<svg xmlns="http://www.w3.org/2000/svg" xmlns:xlink="http://www.w3.org/1999/xlink" viewBox="0 0 533.58 533.58"><defs><style>.cls-1{fill:url(#Motivo_nuevo_3);}.cls-2,.cls-9{fill:none;}.cls-3{clip-path:url(#clip-path);}.cls-4{fill:#00bcbc;}.cls-5{fill:#fff;}.cls-6{fill:url(#Motivo_nuevo_3-3);}.cls-7{clip-path:url(#clip-path-2);}.cls-8{fill:url(#Motivo_nuevo_3-5);}.cls-9{stroke:#00bcbc;stroke-miterlimit:10;stroke-width:2px;}</style><pattern id="Motivo_nuevo_3" data-name="Motivo nuevo 3" width="171.44" height="171.44" patternUnits="userSpaceOnUse" viewBox="0 0 171.44 171.44"><rect class="cls-2" width="171.44" height="171.44"/><g class="cls-3"><rect class="cls-4" x="60.37" y="76.75" width="15.15" height="89.7"/><rect class="cls-4" x="81.64" y="112.68" width="15.15" height="27.86"/><rect class="cls-4" x="66.51" y="11.24" width="15.15" height="60.98"/><rect class="cls-4" x="141.52" y="130.12" width="15.15" height="36.82"/><polygon class="cls-4" points="-34.45 50.94 -34.45 35.78 11.39 35.78 11.39 50.94 -34.45 50.94"/><polygon class="cls-4" points="136.99 50.94 136.99 35.78 182.83 35.78 182.83 50.94 136.99 50.94"/><polygon class="cls-4" points="122.57 164.38 122.57 149.22 137.12 149.22 137.12 164.38 122.57 164.38"/><polygon class="cls-4" points="33.11 92.03 33.11 76.87 53.53 76.87 53.53 92.03 33.11 92.03"/><path class="cls-4" d="M51.11,155.35a30.19,30.19,0,1,1-30.18-30.19A30.18,30.18,0,0,1,51.11,155.35Zm-15.15,0a15,15,0,1,0-15,15A15,15,0,0,0,36,155.35Z"/><path class="cls-4" d="M62.29,48.62a23.2,23.2,0,1,1-23.2-23.2A23.2,23.2,0,0,1,62.29,48.62Zm-11.64,0A11.56,11.56,0,1,0,39.09,60.18,11.56,11.56,0,0,0,50.65,48.62Z"/><path class="cls-4" d="M123.77,88.59a19.3,19.3,0,1,1-19.3-19.3A19.3,19.3,0,0,1,123.77,88.59Zm-9.69,0a9.61,9.61,0,1,0-9.61,9.6A9.61,9.61,0,0,0,114.08,88.59Z"/><path class="cls-4" d="M120.38,165.29a19.56,19.56,0,1,1-19.56-19.55A19.55,19.55,0,0,1,120.38,165.29Zm-9.82,0a9.74,9.74,0,1,0-9.74,9.74A9.74,9.74,0,0,0,110.56,165.29Z"/><path class="cls-4" d="M51.11-16.09A30.19,30.19,0,0,1,20.93,14.1,30.19,30.19,0,0,1-9.26-16.09,30.19,30.19,0,0,1,20.93-46.27,30.18,30.18,0,0,1,51.11-16.09ZM36-16.09a15,15,0,0,0-15-15,15,15,0,0,0-15,15,15,15,0,0,0,15,15A15,15,0,0,0,36-16.09Z"/><path class="cls-4" d="M222.55,155.35a30.19,30.19,0,1,1-30.19-30.19A30.18,30.18,0,0,1,222.55,155.35Zm-15.15,0a15,15,0,1,0-15,15A15,15,0,0,0,207.4,155.35Z"/><path class="cls-4" d="M222.55-16.09A30.19,30.19,0,0,1,192.36,14.1a30.19,30.19,0,0,1-30.18-30.19,30.18,30.18,0,0,1,30.18-30.18A30.18,30.18,0,0,1,222.55-16.09Zm-15.15,0a15,15,0,0,0-15-15,15,15,0,0,0-15,15,15,15,0,0,0,15,15A15,15,0,0,0,207.4-16.09Z"/><path class="cls-4" d="M120.38-6.14a19.56,19.56,0,0,1-19.56,19.55A19.56,19.56,0,0,1,81.27-6.14,19.56,19.56,0,0,1,100.82-25.7,19.56,19.56,0,0,1,120.38-6.14Zm-9.82,0a9.74,9.74,0,0,0-9.74-9.74,9.74,9.74,0,0,0-9.73,9.74,9.73,9.73,0,0,0,9.73,9.73A9.74,9.74,0,0,0,110.56-6.14Z"/><rect class="cls-4" x="151.05" y="4.34" width="15.15" height="26.95"/><path class="cls-4" d="M131.5,66.9a5.75,5.75,0,1,1-5.74-5.74A5.74,5.74,0,0,1,131.5,66.9Zm-2.88,0a2.86,2.86,0,1,0-2.86,2.86A2.86,2.86,0,0,0,128.62,66.9Z"/><path class="cls-4" d="M18.58,24.37a7.46,7.46,0,1,1-7.46-7.45A7.46,7.46,0,0,1,18.58,24.37Zm-3.75,0a3.71,3.71,0,1,0-3.71,3.72A3.71,3.71,0,0,0,14.83,24.37Z"/><path class="cls-4" d="M175.37,90.72a12,12,0,1,1-12-12A12,12,0,0,1,175.37,90.72Zm-6,0a6,6,0,1,0-6,6A6,6,0,0,0,169.33,90.72Z"/><path class="cls-4" d="M63.55,13.71A10.49,10.49,0,1,1,53.07,3.23,10.49,10.49,0,0,1,63.55,13.71Zm-5.26,0a5.22,5.22,0,1,0-5.22,5.23A5.22,5.22,0,0,0,58.29,13.71Z"/><path class="cls-4" d="M147.93,14.69a12,12,0,1,1-12-12A12,12,0,0,1,147.93,14.69Zm-6,0a6,6,0,1,0-6,6A6,6,0,0,0,141.9,14.69Z"/><path class="cls-4" d="M129.79,40.85a22.22,22.22,0,1,1-22.22-22.22A22.21,22.21,0,0,1,129.79,40.85Zm-11.15,0a11.07,11.07,0,1,0-11.07,11.06A11.07,11.07,0,0,0,118.64,40.85Z"/><path class="cls-4" d="M198.9,90.72a35.57,35.57,0,1,1-35.56-35.56A35.57,35.57,0,0,1,198.9,90.72Zm-17.85,0a17.71,17.71,0,1,0-17.71,17.71A17.71,17.71,0,0,0,181.05,90.72Z"/><path class="cls-4" d="M3.94,90.72a12,12,0,0,1-12,12,12,12,0,0,1-12-12,12,12,0,0,1,12-12A12,12,0,0,1,3.94,90.72Zm-6,0a6,6,0,0,0-6-6,6,6,0,0,0-6,6,6,6,0,0,0,6,6A6,6,0,0,0-2.11,90.72Z"/><path class="cls-4" d="M27.46,90.72A35.57,35.57,0,0,1-8.1,126.29,35.57,35.57,0,0,1-43.66,90.72,35.56,35.56,0,0,1-8.1,55.16,35.56,35.56,0,0,1,27.46,90.72Zm-17.85,0A17.71,17.71,0,0,0-8.1,73,17.71,17.71,0,0,0-25.81,90.72,17.71,17.71,0,0,0-8.1,108.43,17.71,17.71,0,0,0,9.61,90.72Z"/><path class="cls-4" d="M55.61,112A13.93,13.93,0,1,1,41.68,98.11,13.93,13.93,0,0,1,55.61,112Zm-7,0A6.94,6.94,0,1,0,41.68,119,6.94,6.94,0,0,0,48.61,112Z"/><path class="cls-4" d="M136.62,127.58a16.86,16.86,0,1,1-16.86-16.86A16.86,16.86,0,0,1,136.62,127.58Zm-8.46,0a8.4,8.4,0,1,0-8.4,8.39A8.4,8.4,0,0,0,128.16,127.58Z"/></g></pattern><clipPath id="clip-path"><rect class="cls-2" width="171.44" height="171.44"/></clipPath><pattern id="Motivo_nuevo_3-3" data-name="Motivo nuevo 3" width="171.44" height="171.44" patternUnits="userSpaceOnUse" viewBox="0 0 171.44 171.44"><rect class="cls-2" width="171.44" height="171.44"/><g class="cls-3"><rect class="cls-4" x="60.37" y="76.75" width="15.15" height="89.7"/><rect class="cls-4" x="81.64" y="112.68" width="15.15" height="27.86"/><rect class="cls-4" x="66.51" y="11.24" width="15.15" height="60.98"/><rect class="cls-4" x="141.52" y="130.12" width="15.15" height="36.82"/><polygon class="cls-4" points="-34.45 50.94 -34.45 35.78 11.39 35.78 11.39 50.94 -34.45 50.94"/><polygon class="cls-4" points="136.99 50.94 136.99 35.78 182.83 35.78 182.83 50.94 136.99 50.94"/><polygon class="cls-4" points="122.57 164.38 122.57 149.22 137.12 149.22 137.12 164.38 122.57 164.38"/><polygon class="cls-4" points="33.11 92.03 33.11 76.87 53.53 76.87 53.53 92.03 33.11 92.03"/><path class="cls-4" d="M51.11,155.35a30.19,30.19,0,1,1-30.18-30.19A30.18,30.18,0,0,1,51.11,155.35Zm-15.15,0a15,15,0,1,0-15,15A15,15,0,0,0,36,155.35Z"/><path class="cls-4" d="M62.29,48.62a23.2,23.2,0,1,1-23.2-23.2A23.2,23.2,0,0,1,62.29,48.62Zm-11.64,0A11.56,11.56,0,1,0,39.09,60.18,11.56,11.56,0,0,0,50.65,48.62Z"/><path class="cls-4" d="M123.77,88.59a19.3,19.3,0,1,1-19.3-19.3A19.3,19.3,0,0,1,123.77,88.59Zm-9.69,0a9.61,9.61,0,1,0-9.61,9.6A9.61,9.61,0,0,0,114.08,88.59Z"/><path class="cls-4" d="M120.38,165.29a19.56,19.56,0,1,1-19.56-19.55A19.55,19.55,0,0,1,120.38,165.29Zm-9.82,0a9.74,9.74,0,1,0-9.74,9.74A9.74,9.74,0,0,0,110.56,165.29Z"/><path class="cls-4" d="M51.11-16.09A30.19,30.19,0,0,1,20.93,14.1,30.19,30.19,0,0,1-9.26-16.09,30.19,30.19,0,0,1,20.93-46.27,30.18,30.18,0,0,1,51.11-16.09ZM36-16.09a15,15,0,0,0-15-15,15,15,0,0,0-15,15,15,15,0,0,0,15,15A15,15,0,0,0,36-16.09Z"/><path class="cls-4" d="M222.55,155.35a30.19,30.19,0,1,1-30.19-30.19A30.18,30.18,0,0,1,222.55,155.35Zm-15.15,0a15,15,0,1,0-15,15A15,15,0,0,0,207.4,155.35Z"/><path class="cls-4" d="M222.55-16.09A30.19,30.19,0,0,1,192.36,14.1a30.19,30.19,0,0,1-30.18-30.19,30.18,30.18,0,0,1,30.18-30.18A30.18,30.18,0,0,1,222.55-16.09Zm-15.15,0a15,15,0,0,0-15-15,15,15,0,0,0-15,15,15,15,0,0,0,15,15A15,15,0,0,0,207.4-16.09Z"/><path class="cls-4" d="M120.38-6.14a19.56,19.56,0,0,1-19.56,19.55A19.56,19.56,0,0,1,81.27-6.14,19.56,19.56,0,0,1,100.82-25.7,19.56,19.56,0,0,1,120.38-6.14Zm-9.82,0a9.74,9.74,0,0,0-9.74-9.74,9.74,9.74,0,0,0-9.73,9.74,9.73,9.73,0,0,0,9.73,9.73A9.74,9.74,0,0,0,110.56-6.14Z"/><rect class="cls-4" x="151.05" y="4.34" width="15.15" height="26.95"/><path class="cls-4" d="M131.5,66.9a5.75,5.75,0,1,1-5.74-5.74A5.74,5.74,0,0,1,131.5,66.9Zm-2.88,0a2.86,2.86,0,1,0-2.86,2.86A2.86,2.86,0,0,0,128.62,66.9Z"/><path class="cls-4" d="M18.58,24.37a7.46,7.46,0,1,1-7.46-7.45A7.46,7.46,0,0,1,18.58,24.37Zm-3.75,0a3.71,3.71,0,1,0-3.71,3.72A3.71,3.71,0,0,0,14.83,24.37Z"/><path class="cls-4" d="M175.37,90.72a12,12,0,1,1-12-12A12,12,0,0,1,175.37,90.72Zm-6,0a6,6,0,1,0-6,6A6,6,0,0,0,169.33,90.72Z"/><path class="cls-4" d="M63.55,13.71A10.49,10.49,0,1,1,53.07,3.23,10.49,10.49,0,0,1,63.55,13.71Zm-5.26,0a5.22,5.22,0,1,0-5.22,5.23A5.22,5.22,0,0,0,58.29,13.71Z"/><path class="cls-4" d="M147.93,14.69a12,12,0,1,1-12-12A12,12,0,0,1,147.93,14.69Zm-6,0a6,6,0,1,0-6,6A6,6,0,0,0,141.9,14.69Z"/><path class="cls-4" d="M129.79,40.85a22.22,22.22,0,1,1-22.22-22.22A22.21,22.21,0,0,1,129.79,40.85Zm-11.15,0a11.07,11.07,0,1,0-11.07,11.06A11.07,11.07,0,0,0,118.64,40.85Z"/><path class="cls-4" d="M198.9,90.72a35.57,35.57,0,1,1-35.56-35.56A35.57,35.57,0,0,1,198.9,90.72Zm-17.85,0a17.71,17.71,0,1,0-17.71,17.71A17.71,17.71,0,0,0,181.05,90.72Z"/><path class="cls-4" d="M3.94,90.72a12,12,0,0,1-12,12,12,12,0,0,1-12-12,12,12,0,0,1,12-12A12,12,0,0,1,3.94,90.72Zm-6,0a6,6,0,0,0-6-6,6,6,0,0,0-6,6,6,6,0,0,0,6,6A6,6,0,0,0-2.11,90.72Z"/><path class="cls-4" d="M27.46,90.72A35.57,35.57,0,0,1-8.1,126.29,35.57,35.57,0,0,1-43.66,90.72,35.56,35.56,0,0,1-8.1,55.16,35.56,35.56,0,0,1,27.46,90.72Zm-17.85,0A17.71,17.71,0,0,0-8.1,73,17.71,17.71,0,0,0-25.81,90.72,17.71,17.71,0,0,0-8.1,108.43,17.71,17.71,0,0,0,9.61,90.72Z"/><path class="cls-4" d="M55.61,112A13.93,13.93,0,1,1,41.68,98.11,13.93,13.93,0,0,1,55.61,112Zm-7,0A6.94,6.94,0,1,0,41.68,119,6.94,6.94,0,0,0,48.61,112Z"/><path class="cls-4" d="M136.62,127.58a16.86,16.86,0,1,1-16.86-16.86A16.86,16.86,0,0,1,136.62,127.58Zm-8.46,0a8.4,8.4,0,1,0-8.4,8.39A8.4,8.4,0,0,0,128.16,127.58Z"/></g></pattern><clipPath id="clip-path-2" transform="translate(50.26 0)"><path class="cls-1" d="M45.55,533.58H12c-6.6,0-12-8.59-12-19.09V19.1C0,8.59,5.4,0,12,0H45.55Z"/></clipPath><pattern id="Motivo_nuevo_3-5" data-name="Motivo nuevo 3" x="50.26" width="171.44" height="171.44" patternUnits="userSpaceOnUse" viewBox="0 0 171.44 171.44"><rect class="cls-2" width="171.44" height="171.44"/><g class="cls-3"><rect class="cls-4" x="60.37" y="76.75" width="15.15" height="89.7"/><rect class="cls-4" x="81.64" y="112.68" width="15.15" height="27.86"/><rect class="cls-4" x="66.51" y="11.24" width="15.15" height="60.98"/><rect class="cls-4" x="141.52" y="130.12" width="15.15" height="36.82"/><polygon class="cls-4" points="-34.45 50.94 -34.45 35.78 11.39 35.78 11.39 50.94 -34.45 50.94"/><polygon class="cls-4" points="136.99 50.94 136.99 35.78 182.83 35.78 182.83 50.94 136.99 50.94"/><polygon class="cls-4" points="122.57 164.38 122.57 149.22 137.12 149.22 137.12 164.38 122.57 164.38"/><polygon class="cls-4" points="33.11 92.03 33.11 76.87 53.53 76.87 53.53 92.03 33.11 92.03"/><path class="cls-4" d="M51.11,155.35a30.19,30.19,0,1,1-30.18-30.19A30.18,30.18,0,0,1,51.11,155.35Zm-15.15,0a15,15,0,1,0-15,15A15,15,0,0,0,36,155.35Z"/><path class="cls-4" d="M62.29,48.62a23.2,23.2,0,1,1-23.2-23.2A23.2,23.2,0,0,1,62.29,48.62Zm-11.64,0A11.56,11.56,0,1,0,39.09,60.18,11.56,11.56,0,0,0,50.65,48.62Z"/><path class="cls-4" d="M123.77,88.59a19.3,19.3,0,1,1-19.3-19.3A19.3,19.3,0,0,1,123.77,88.59Zm-9.69,0a9.61,9.61,0,1,0-9.61,9.6A9.61,9.61,0,0,0,114.08,88.59Z"/><path class="cls-4" d="M120.38,165.29a19.56,19.56,0,1,1-19.56-19.55A19.55,19.55,0,0,1,120.38,165.29Zm-9.82,0a9.74,9.74,0,1,0-9.74,9.74A9.74,9.74,0,0,0,110.56,165.29Z"/><path class="cls-4" d="M51.11-16.09A30.19,30.19,0,0,1,20.93,14.1,30.19,30.19,0,0,1-9.26-16.09,30.19,30.19,0,0,1,20.93-46.27,30.18,30.18,0,0,1,51.11-16.09ZM36-16.09a15,15,0,0,0-15-15,15,15,0,0,0-15,15,15,15,0,0,0,15,15A15,15,0,0,0,36-16.09Z"/><path class="cls-4" d="M222.55,155.35a30.19,30.19,0,1,1-30.19-30.19A30.18,30.18,0,0,1,222.55,155.35Zm-15.15,0a15,15,0,1,0-15,15A15,15,0,0,0,207.4,155.35Z"/><path class="cls-4" d="M222.55-16.09A30.19,30.19,0,0,1,192.36,14.1a30.19,30.19,0,0,1-30.18-30.19,30.18,30.18,0,0,1,30.18-30.18A30.18,30.18,0,0,1,222.55-16.09Zm-15.15,0a15,15,0,0,0-15-15,15,15,0,0,0-15,15,15,15,0,0,0,15,15A15,15,0,0,0,207.4-16.09Z"/><path class="cls-4" d="M120.38-6.14a19.56,19.56,0,0,1-19.56,19.55A19.56,19.56,0,0,1,81.27-6.14,19.56,19.56,0,0,1,100.82-25.7,19.56,19.56,0,0,1,120.38-6.14Zm-9.82,0a9.74,9.74,0,0,0-9.74-9.74,9.74,9.74,0,0,0-9.73,9.74,9.73,9.73,0,0,0,9.73,9.73A9.74,9.74,0,0,0,110.56-6.14Z"/><rect class="cls-4" x="151.05" y="4.34" width="15.15" height="26.95"/><path class="cls-4" d="M131.5,66.9a5.75,5.75,0,1,1-5.74-5.74A5.74,5.74,0,0,1,131.5,66.9Zm-2.88,0a2.86,2.86,0,1,0-2.86,2.86A2.86,2.86,0,0,0,128.62,66.9Z"/><path class="cls-4" d="M18.58,24.37a7.46,7.46,0,1,1-7.46-7.45A7.46,7.46,0,0,1,18.58,24.37Zm-3.75,0a3.71,3.71,0,1,0-3.71,3.72A3.71,3.71,0,0,0,14.83,24.37Z"/><path class="cls-4" d="M175.37,90.72a12,12,0,1,1-12-12A12,12,0,0,1,175.37,90.72Zm-6,0a6,6,0,1,0-6,6A6,6,0,0,0,169.33,90.72Z"/><path class="cls-4" d="M63.55,13.71A10.49,10.49,0,1,1,53.07,3.23,10.49,10.49,0,0,1,63.55,13.71Zm-5.26,0a5.22,5.22,0,1,0-5.22,5.23A5.22,5.22,0,0,0,58.29,13.71Z"/><path class="cls-4" d="M147.93,14.69a12,12,0,1,1-12-12A12,12,0,0,1,147.93,14.69Zm-6,0a6,6,0,1,0-6,6A6,6,0,0,0,141.9,14.69Z"/><path class="cls-4" d="M129.79,40.85a22.22,22.22,0,1,1-22.22-22.22A22.21,22.21,0,0,1,129.79,40.85Zm-11.15,0a11.07,11.07,0,1,0-11.07,11.06A11.07,11.07,0,0,0,118.64,40.85Z"/><path class="cls-4" d="M198.9,90.72a35.57,35.57,0,1,1-35.56-35.56A35.57,35.57,0,0,1,198.9,90.72Zm-17.85,0a17.71,17.71,0,1,0-17.71,17.71A17.71,17.71,0,0,0,181.05,90.72Z"/><path class="cls-4" d="M3.94,90.72a12,12,0,0,1-12,12,12,12,0,0,1-12-12,12,12,0,0,1,12-12A12,12,0,0,1,3.94,90.72Zm-6,0a6,6,0,0,0-6-6,6,6,0,0,0-6,6,6,6,0,0,0,6,6A6,6,0,0,0-2.11,90.72Z"/><path class="cls-4" d="M27.46,90.72A35.57,35.57,0,0,1-8.1,126.29,35.57,35.57,0,0,1-43.66,90.72,35.56,35.56,0,0,1-8.1,55.16,35.56,35.56,0,0,1,27.46,90.72Zm-17.85,0A17.71,17.71,0,0,0-8.1,73,17.71,17.71,0,0,0-25.81,90.72,17.71,17.71,0,0,0-8.1,108.43,17.71,17.71,0,0,0,9.61,90.72Z"/><path class="cls-4" d="M55.61,112A13.93,13.93,0,1,1,41.68,98.11,13.93,13.93,0,0,1,55.61,112Zm-7,0A6.94,6.94,0,1,0,41.68,119,6.94,6.94,0,0,0,48.61,112Z"/><path class="cls-4" d="M136.62,127.58a16.86,16.86,0,1,1-16.86-16.86A16.86,16.86,0,0,1,136.62,127.58Zm-8.46,0a8.4,8.4,0,1,0-8.4,8.39A8.4,8.4,0,0,0,128.16,127.58Z"/></g></pattern></defs><g id="Capa_2" data-name="Capa 2"><g id="Capa_2-2" data-name="Capa 2"><rect class="cls-5" x="-97.16" y="99.16" width="533.58" height="335.26" rx="12" transform="translate(486.68 97.16) rotate(90)"/><path class="cls-6" d="M45.55,533.58H12c-6.6,0-12-8.59-12-19.09V19.1C0,8.59,5.4,0,12,0H45.55Z" transform="translate(50.26 0)"/><g class="cls-7"><rect class="cls-8" width="533.58" height="533.58" rx="12"/></g><path class="cls-4" d="M220.62,110.05H204.49v15h18v4.49H199.13V88h22.41V92.5h-17v13.12h16.13Z" transform="translate(50.26 0)"/><path class="cls-4" d="M229.42,88h5.36v37h17.74v4.49h-23.1Z" transform="translate(50.26 0)"/><rect class="cls-4" x="133.98" y="138.77" width="226.34" height="64.16"/><path class="cls-5" d="M136.62,172c0,11.91-7.23,18.23-16.07,18.23-9.14,0-15.55-7.09-15.55-17.56,0-11,6.82-18.18,16.07-18.18C130.51,154.47,136.62,161.71,136.62,172Zm-26.85.56c0,7.4,4,14,11,14S131.9,180,131.9,172.18c0-6.88-3.59-14.07-11-14.07S109.77,164.94,109.77,172.54Z" transform="translate(50.26 0)"/><path class="cls-5" d="M142.43,155.5a45.91,45.91,0,0,1,8.58-.72c4.77,0,7.85.87,10,2.82a8.63,8.63,0,0,1,2.72,6.57,9.09,9.09,0,0,1-6.52,8.83v.16c2.67.92,4.26,3.39,5.08,7,1.13,4.83,1.95,8.17,2.67,9.5h-4.62c-.56-1-1.33-3.95-2.31-8.27-1-4.77-2.87-6.57-6.93-6.72H146.9v15h-4.47Zm4.47,15.76h4.57c4.77,0,7.8-2.62,7.8-6.57,0-4.47-3.23-6.42-8-6.47a18.14,18.14,0,0,0-4.41.41Z" transform="translate(50.26 0)"/><path class="cls-5" d="M174.53,155v34.61h-4.47V155Z" transform="translate(50.26 0)"/><path class="cls-5" d="M208.67,188.1A32.16,32.16,0,0,1,198,190c-5.23,0-9.55-1.33-12.94-4.57-3-2.88-4.82-7.5-4.82-12.89.05-10.32,7.13-17.87,18.74-17.87a21.39,21.39,0,0,1,8.63,1.6l-1.08,3.64a18,18,0,0,0-7.65-1.49c-8.42,0-13.92,5.24-13.92,13.92s5.29,14,13.35,14a14.67,14.67,0,0,0,6-.92V175.06h-7v-3.6h11.4Z" transform="translate(50.26 0)"/><path class="cls-5" d="M233.42,173.42H220v12.47h15v3.75H215.5V155h18.69v3.75H220v10.94h13.45Z" transform="translate(50.26 0)"/><path class="cls-5" d="M240.77,189.64V155h4.88l11.09,17.51A96.79,96.79,0,0,1,263,183.79l.1,0c-.41-4.63-.51-8.84-.51-14.23V155h4.21v34.61h-4.52l-11-17.56a110.91,110.91,0,0,1-6.47-11.55l-.15.05c.26,4.36.36,8.52.36,14.27v14.79Z" transform="translate(50.26 0)"/><line class="cls-9" x1="299.3" y1="129.07" x2="388.25" y2="129.07"/><path d="M73.4,232.09c0-.28,0-.59,0-.94l0-.84,1.26-.08c0,.57,0,1.18,0,1.75v6.5c.45,0,.91,0,1.38,0,.84,0,1.83,0,2.65-.06a5.73,5.73,0,0,0,0,.82v.19l-3.4,0c-.62,0-1.8,0-1.8,0,0-.42,0-1.08,0-1.65Z" transform="translate(50.26 0)"/><path d="M82,239.51C80.1,239.51,79,238,79,236s1.3-3.58,3.11-3.58,3.07,1.45,3.07,3.54S83.85,239.51,82,239.51Zm0-6.23c-1.21,0-1.92,1.13-1.92,2.63,0,1.72.82,2.65,1.92,2.65a1.65,1.65,0,0,0,1.37-.71,3.09,3.09,0,0,0,.56-1.94C84,234.35,83.24,233.28,82,233.28Z" transform="translate(50.26 0)"/><path d="M86.42,234.27c0-.45-.06-1.38-.06-1.6a4,4,0,0,0,1-.24h.19v1.43a2,2,0,0,1,1.76-1.49,1.82,1.82,0,0,1,1.06.29,3.74,3.74,0,0,0-.39,1,1.49,1.49,0,0,0-.78-.22c-.66,0-1.17.34-1.65,1.42v3.21c0,.74,0,1,0,1.35-.37,0-.79,0-1.22,0Z" transform="translate(50.26 0)"/><path d="M93.6,232.37a2.58,2.58,0,0,1,2.7,2.79,6,6,0,0,1,0,.84H91.7v.2a2.13,2.13,0,0,0,2.13,2.37,3.12,3.12,0,0,0,1.93-.67,4,4,0,0,0,.37.66,2.79,2.79,0,0,1-1.17.72,4.2,4.2,0,0,1-1.3.23c-1.78,0-3.14-1.2-3.14-3.54C90.52,234,91.83,232.37,93.6,232.37Zm1.66,2.86c0-.89-.32-2-1.62-2a2,2,0,0,0-1.93,2Z" transform="translate(50.26 0)"/><path d="M97.6,234.27a15.54,15.54,0,0,0-.06-1.6,4.07,4.07,0,0,0,1-.24h.19v1.41a3,3,0,0,1,2.39-1.47,1.86,1.86,0,0,1,1.92,1.47,3,3,0,0,1,2.39-1.47,1.88,1.88,0,0,1,2,2v3.76c0,.69,0,1.05,0,1.27-.38,0-.8,0-1.23,0v-4.74a1.21,1.21,0,0,0-.4-1.06,1.36,1.36,0,0,0-.83-.28,2.59,2.59,0,0,0-1.91,1.17v3.6c0,.69,0,1.1.05,1.27-.4,0-.82,0-1.22,0v-4.74a1.19,1.19,0,0,0-.41-1.06,1.36,1.36,0,0,0-.83-.28,1.93,1.93,0,0,0-1.08.37,3.46,3.46,0,0,0-.87.88v3.44c0,.74,0,1.14,0,1.35-.38,0-.78,0-1.21,0Z" transform="translate(50.26 0)"/><path d="M112.33,229.92a.72.72,0,0,1,.74.7.74.74,0,0,1-1.48,0A.72.72,0,0,1,112.33,229.92Zm-.58,8.16v-3.51c0-.34,0-1.72-.06-1.9a3.7,3.7,0,0,0,1-.24h.2v5.65c0,.74,0,1.18,0,1.35-.38,0-.8,0-1.23,0Z" transform="translate(50.26 0)"/><path d="M114.67,234.58a18.91,18.91,0,0,0-.08-1.91,5.06,5.06,0,0,0,1.06-.24h.18a5.34,5.34,0,0,0,0,.57,2.84,2.84,0,0,1,1.77-.63c1.57,0,2.92,1.24,2.92,3.42,0,2.33-1.46,3.72-3.18,3.72a3.08,3.08,0,0,1-1.51-.4V241a10.59,10.59,0,0,0,0,1.18c-.38,0-.8,0-1.22,0,0-.17,0-2.1,0-2.27Zm4.66,1.36c0-1.6-.85-2.62-2-2.62a2.45,2.45,0,0,0-1.45.44v4.36a1.62,1.62,0,0,0,1.3.56C118.3,238.68,119.33,237.64,119.33,235.94Z" transform="translate(50.26 0)"/><path d="M123.34,238.59a2.21,2.21,0,0,0,1.06-.25.9.9,0,0,0,.46-.87c0-.57-.39-.75-1.47-1.17a6.48,6.48,0,0,1-1.37-.74,1.55,1.55,0,0,1-.56-1.35c0-1.13.89-1.84,2.23-1.84a4.09,4.09,0,0,1,2,.46,2.1,2.1,0,0,0-.27.71l-.09.06a3.64,3.64,0,0,0-1.48-.3c-.67,0-1.28.2-1.28.88s.5.9,1.33,1.17a4.16,4.16,0,0,1,1.51.81,1.78,1.78,0,0,1,.45,1.3c0,1.41-1.21,2-2.47,2a3.61,3.61,0,0,1-2-.58,2.88,2.88,0,0,0,.29-.77A3.07,3.07,0,0,0,123.34,238.59Z" transform="translate(50.26 0)"/><path d="M127.11,234.26c0-.79,0-1.56-.06-1.73a8.78,8.78,0,0,0,1-.1h.19v4.66a1.32,1.32,0,0,0,.4,1.07,1.36,1.36,0,0,0,.85.34,2.75,2.75,0,0,0,1.85-1v-3.1c0-.92-.06-1.66-.07-1.88a8.65,8.65,0,0,0,1-.1h.21v5.18a10.65,10.65,0,0,0,.16,1.82c-.37,0-.79,0-1.22,0a10.88,10.88,0,0,1-.11-1.18,3.08,3.08,0,0,1-2.29,1.22,2,2,0,0,1-2-2.11Z" transform="translate(50.26 0)"/><path d="M134.37,234.27a14.93,14.93,0,0,0-.07-1.6,4,4,0,0,0,1-.24h.2v1.41a3,3,0,0,1,2.39-1.47,1.85,1.85,0,0,1,1.91,1.47,3,3,0,0,1,2.39-1.47,1.88,1.88,0,0,1,2,2v3.76c0,.69,0,1.05,0,1.27-.38,0-.79,0-1.22,0v-4.74a1.19,1.19,0,0,0-.41-1.06,1.36,1.36,0,0,0-.83-.28,2.63,2.63,0,0,0-1.91,1.17v3.6c0,.69,0,1.1.05,1.27-.4,0-.82,0-1.22,0v-4.74a1.21,1.21,0,0,0-.4-1.06,1.38,1.38,0,0,0-.83-.28,1.9,1.9,0,0,0-1.08.37,3.46,3.46,0,0,0-.87.88v3.44c0,.74,0,1.14,0,1.35-.37,0-.78,0-1.2,0Z" transform="translate(50.26 0)"/><path d="M148.07,236.05c0-2.34,1.45-3.68,3.18-3.68a2.91,2.91,0,0,1,1.51.39c0-.37,0-2.82,0-3a8.27,8.27,0,0,0,1-.22h.18v8.18a8.71,8.71,0,0,0,.18,1.71c-.37,0-.78,0-1.21,0a3.88,3.88,0,0,1-.09-.66,2.77,2.77,0,0,1-1.8.7C149.45,239.51,148.07,238.22,148.07,236.05Zm3.4-2.86c-1.17,0-2.21,1-2.21,2.72a3,3,0,0,0,.58,1.92,1.79,1.79,0,0,0,1.48.73,2.26,2.26,0,0,0,1.45-.51c0-.14,0-1.45,0-4.31A1.6,1.6,0,0,0,151.47,233.19Z" transform="translate(50.26 0)"/><path d="M158.27,239.51c-1.92,0-3.07-1.53-3.07-3.56s1.3-3.58,3.11-3.58,3.07,1.45,3.07,3.54S160.09,239.51,158.27,239.51Zm0-6.23c-1.21,0-1.93,1.13-1.93,2.63,0,1.72.82,2.65,1.93,2.65a1.64,1.64,0,0,0,1.36-.71,3,3,0,0,0,.56-1.94C160.21,234.35,159.48,233.28,158.29,233.28Z" transform="translate(50.26 0)"/><path d="M162.65,231.72c0-.27,0-1.8,0-2a5,5,0,0,0,1-.22h.18V238a9.8,9.8,0,0,0,.06,1.41c-.38,0-.82,0-1.24,0,0-.12,0-1.27,0-1.45Z" transform="translate(50.26 0)"/><path d="M168.17,239.51c-1.93,0-3.07-1.53-3.07-3.56s1.3-3.58,3.1-3.58,3.07,1.45,3.07,3.54S170,239.51,168.17,239.51Zm0-6.23c-1.21,0-1.93,1.13-1.93,2.63,0,1.72.82,2.65,1.93,2.65a1.64,1.64,0,0,0,1.36-.71,3,3,0,0,0,.56-1.94C170.1,234.35,169.37,233.28,168.18,233.28Z" transform="translate(50.26 0)"/><path d="M172.56,234.27c0-.45-.07-1.38-.07-1.6a3.83,3.83,0,0,0,1-.24h.2v1.43a2,2,0,0,1,1.75-1.49,1.83,1.83,0,0,1,1.07.29,3.74,3.74,0,0,0-.39,1,1.51,1.51,0,0,0-.78-.22c-.66,0-1.17.34-1.65,1.42v3.21c0,.74,0,1,.05,1.35-.38,0-.79,0-1.22,0Z" transform="translate(50.26 0)"/><path d="M181.4,238.59a2.14,2.14,0,0,0,1-.25.9.9,0,0,0,.47-.87c0-.57-.39-.75-1.47-1.17a6.57,6.57,0,0,1-1.38-.74,1.57,1.57,0,0,1-.56-1.35c0-1.13.9-1.84,2.24-1.84a4.12,4.12,0,0,1,2,.46,1.75,1.75,0,0,0-.27.71l-.1.06a3.64,3.64,0,0,0-1.48-.3c-.66,0-1.27.2-1.27.88s.49.9,1.32,1.17a4.07,4.07,0,0,1,1.51.81,1.74,1.74,0,0,1,.46,1.3c0,1.41-1.21,2-2.47,2a3.58,3.58,0,0,1-2-.58,2.58,2.58,0,0,0,.28-.77A3.13,3.13,0,0,0,181.4,238.59Z" transform="translate(50.26 0)"/><path d="M185.77,229.92a.73.73,0,0,1,.74.7.74.74,0,0,1-1.48,0A.72.72,0,0,1,185.77,229.92Zm-.59,8.16v-3.51c0-.34,0-1.72-.05-1.9a3.87,3.87,0,0,0,1-.24h.19v5.65c0,.74,0,1.18,0,1.35-.38,0-.79,0-1.22,0Z" transform="translate(50.26 0)"/><path d="M188.29,233.36l-1-.13,0-.6,1-.2.09-1.38a4.46,4.46,0,0,0,.91-.22h.16v1.6h1.93a2.49,2.49,0,0,0,0,.53c0,.15,0,.28,0,.4h-1.88v3.93c0,1,.39,1.23,1,1.23a1.71,1.71,0,0,0,1-.34,2.41,2.41,0,0,0,.26.77,2.61,2.61,0,0,1-1.55.56c-1.09,0-1.84-.68-1.84-2.07Z" transform="translate(50.26 0)"/><path d="M201,239a1.32,1.32,0,0,1-1,.48c-.61,0-1.06-.39-1.22-1.22a3.43,3.43,0,0,1-.86.83,2.2,2.2,0,0,1-1.3.39,1.62,1.62,0,0,1-1.73-1.69c0-1,1-2.11,3.83-2.46v-.7c0-.95-.42-1.39-1.24-1.39a1.13,1.13,0,0,0-1.26,1.27c-.22,0-.75.06-1.08.12,0,0,0-.12,0-.17,0-1.52,1.1-2.12,2.42-2.12a2.11,2.11,0,0,1,2.31,2.27v2.84c0,.63.08,1.12.53,1.12a.54.54,0,0,0,.38-.16A1.65,1.65,0,0,0,201,239Zm-2.28-3c-.94.14-2.7.49-2.7,1.68,0,.63.49.92,1.07.92a2.32,2.32,0,0,0,1.63-1Z" transform="translate(50.26 0)"/><path d="M201.85,234.27a14.93,14.93,0,0,0-.07-1.6,4,4,0,0,0,1-.24h.2v1.41a3,3,0,0,1,2.39-1.47,1.85,1.85,0,0,1,1.91,1.47,3,3,0,0,1,2.39-1.47,1.88,1.88,0,0,1,2,2v3.76c0,.69,0,1.05,0,1.27-.38,0-.79,0-1.22,0v-4.74a1.21,1.21,0,0,0-.4-1.06,1.39,1.39,0,0,0-.84-.28,2.63,2.63,0,0,0-1.91,1.17v3.6c0,.69,0,1.1,0,1.27-.4,0-.81,0-1.22,0v-4.74a1.21,1.21,0,0,0-.4-1.06,1.36,1.36,0,0,0-.83-.28,1.9,1.9,0,0,0-1.08.37,3.46,3.46,0,0,0-.87.88v3.44c0,.74,0,1.14,0,1.35-.38,0-.78,0-1.21,0Z" transform="translate(50.26 0)"/><path d="M216,232.37a2.58,2.58,0,0,1,2.7,2.79,6,6,0,0,1,0,.84h-4.55v.2a2.13,2.13,0,0,0,2.13,2.37,3.1,3.1,0,0,0,1.93-.67,3.38,3.38,0,0,0,.38.66,2.92,2.92,0,0,1-1.17.72,4.3,4.3,0,0,1-1.3.23c-1.79,0-3.15-1.2-3.15-3.54C213,234,214.26,232.37,216,232.37Zm1.66,2.86c0-.89-.32-2-1.62-2a2,2,0,0,0-1.92,2Z" transform="translate(50.26 0)"/><path d="M220.24,233.36l-1-.13v-.6l1-.2.09-1.38a4.16,4.16,0,0,0,.91-.22h.16v1.6h1.94a2.53,2.53,0,0,0-.06.53,2.49,2.49,0,0,0,0,.4h-1.89v3.93c0,1,.39,1.23,1,1.23a1.73,1.73,0,0,0,1-.34,2.41,2.41,0,0,0,.26.77,2.64,2.64,0,0,1-1.55.56c-1.09,0-1.85-.68-1.85-2.07Z" transform="translate(50.26 0)"/><path d="M224.51,240.51v-.08a1,1,0,0,0,.82-1c-.52,0-.85-.25-.85-.66a.72.72,0,0,1,.77-.74c.53,0,.83.37.83,1.09a1.84,1.84,0,0,1-1.24,1.73A1.7,1.7,0,0,0,224.51,240.51Z" transform="translate(50.26 0)"/><path d="M232.71,232.37a2.61,2.61,0,0,1,1.66.52,1.81,1.81,0,0,1,.68,1.56v.12h-.26a3.3,3.3,0,0,0-.77.07v-.2a1.23,1.23,0,0,0-.28-.79,1.21,1.21,0,0,0-1-.38,1.65,1.65,0,0,0-1.38.75,3.17,3.17,0,0,0-.53,1.86c0,1.52.66,2.69,2.14,2.69a3.23,3.23,0,0,0,1.86-.59,2.63,2.63,0,0,0,.37.66,3.62,3.62,0,0,1-2.38.87c-1.81,0-3.15-1.27-3.15-3.54C229.64,234,230.9,232.37,232.71,232.37Z" transform="translate(50.26 0)"/><path d="M239,239.51c-1.92,0-3.07-1.53-3.07-3.56s1.3-3.58,3.11-3.58,3.07,1.45,3.07,3.54S240.78,239.51,239,239.51Zm0-6.23c-1.21,0-1.93,1.13-1.93,2.63,0,1.72.82,2.65,1.93,2.65a1.64,1.64,0,0,0,1.36-.71,3,3,0,0,0,.56-1.94C240.9,234.35,240.17,233.28,239,233.28Z" transform="translate(50.26 0)"/><path d="M243.36,234.27c0-.45-.06-1.58-.07-1.6a3.66,3.66,0,0,0,1-.24h.2v1.41a3,3,0,0,1,2.39-1.47,1.87,1.87,0,0,1,2,2v3.76c0,.69,0,1,.05,1.27-.4,0-.82,0-1.22,0v-4.74a1.21,1.21,0,0,0-.4-1.06,1.36,1.36,0,0,0-.83-.28,1.9,1.9,0,0,0-1.08.37,3.46,3.46,0,0,0-.87.88v3.44c0,.74,0,1.11,0,1.35-.38,0-.78,0-1.21,0Z" transform="translate(50.26 0)"/><path d="M252.13,238.59a2.14,2.14,0,0,0,1.05-.25.89.89,0,0,0,.47-.87c0-.57-.39-.75-1.47-1.17a6.48,6.48,0,0,1-1.37-.74,1.55,1.55,0,0,1-.56-1.35c0-1.13.89-1.84,2.23-1.84a4.09,4.09,0,0,1,2,.46,2.1,2.1,0,0,0-.27.71l-.09.06a3.64,3.64,0,0,0-1.48-.3c-.67,0-1.28.2-1.28.88s.5.9,1.33,1.17a4.16,4.16,0,0,1,1.51.81,1.78,1.78,0,0,1,.45,1.3c0,1.41-1.21,2-2.47,2a3.61,3.61,0,0,1-2-.58,2.88,2.88,0,0,0,.29-.77A3.07,3.07,0,0,0,252.13,238.59Z" transform="translate(50.26 0)"/><path d="M258.55,232.37a2.58,2.58,0,0,1,2.71,2.79,8,8,0,0,1-.05.84h-4.55v.2a2.12,2.12,0,0,0,2.13,2.37,3.1,3.1,0,0,0,1.92-.67,4,4,0,0,0,.38.66,2.79,2.79,0,0,1-1.17.72,4.3,4.3,0,0,1-1.3.23c-1.78,0-3.15-1.2-3.15-3.54C255.47,234,256.79,232.37,258.55,232.37Zm1.67,2.86c0-.89-.33-2-1.63-2a2,2,0,0,0-1.92,2Z" transform="translate(50.26 0)"/><path d="M265.17,232.37a2.61,2.61,0,0,1,1.66.52,1.81,1.81,0,0,1,.68,1.56v.12h-.26a3.3,3.3,0,0,0-.77.07v-.2a1.23,1.23,0,0,0-.28-.79,1.19,1.19,0,0,0-1-.38,1.65,1.65,0,0,0-1.38.75,3.17,3.17,0,0,0-.53,1.86c0,1.52.66,2.69,2.14,2.69a3.23,3.23,0,0,0,1.86-.59,2.63,2.63,0,0,0,.37.66,3.62,3.62,0,0,1-2.38.87c-1.81,0-3.15-1.27-3.15-3.54C262.1,234,263.36,232.37,265.17,232.37Z" transform="translate(50.26 0)"/><path d="M269,233.36l-1-.13,0-.6,1-.2.09-1.38a4.46,4.46,0,0,0,.91-.22h.16v1.6h1.93a2.49,2.49,0,0,0-.05.53c0,.15,0,.28,0,.4h-1.88v3.93c0,1,.39,1.23,1,1.23a1.71,1.71,0,0,0,1-.34,2.41,2.41,0,0,0,.26.77,2.61,2.61,0,0,1-1.55.56c-1.09,0-1.84-.68-1.84-2.07Z" transform="translate(50.26 0)"/><path d="M276,232.37a2.58,2.58,0,0,1,2.7,2.79,6,6,0,0,1,0,.84h-4.55v.2a2.13,2.13,0,0,0,2.13,2.37,3.12,3.12,0,0,0,1.93-.67,4,4,0,0,0,.37.66,2.79,2.79,0,0,1-1.17.72,4.25,4.25,0,0,1-1.3.23c-1.78,0-3.14-1.2-3.14-3.54C272.87,234,274.18,232.37,276,232.37Zm1.66,2.86c0-.89-.32-2-1.62-2a2,2,0,0,0-1.93,2Z" transform="translate(50.26 0)"/><path d="M280.16,233.36l-1-.13,0-.6,1-.2.09-1.38a4.31,4.31,0,0,0,.91-.22h.16v1.6h1.93a2.49,2.49,0,0,0-.05.53c0,.15,0,.28,0,.4h-1.88v3.93c0,1,.39,1.23,1,1.23a1.71,1.71,0,0,0,1-.34,2.68,2.68,0,0,0,.26.77,2.61,2.61,0,0,1-1.54.56c-1.1,0-1.85-.68-1.85-2.07Z" transform="translate(50.26 0)"/><path d="M284.57,234.26c0-.79-.06-1.56-.07-1.73a8.78,8.78,0,0,0,1-.1h.2v4.66A1.27,1.27,0,0,0,287,238.5a2.73,2.73,0,0,0,1.85-1v-3.1c0-.92-.05-1.66-.06-1.88a8.52,8.52,0,0,0,1-.1H290v5.18a9.49,9.49,0,0,0,.17,1.82c-.38,0-.79,0-1.22,0a8.15,8.15,0,0,1-.12-1.18,3,3,0,0,1-2.29,1.22,2,2,0,0,1-2-2.11Z" transform="translate(50.26 0)"/><path d="M294.45,232.37a2.58,2.58,0,0,1,2.7,2.79,6,6,0,0,1,0,.84h-4.55v.2a2.13,2.13,0,0,0,2.13,2.37,3.08,3.08,0,0,0,1.92-.67,4,4,0,0,0,.38.66,2.79,2.79,0,0,1-1.17.72,4.3,4.3,0,0,1-1.3.23c-1.78,0-3.14-1.2-3.14-3.54C291.37,234,292.68,232.37,294.45,232.37Zm1.66,2.86c0-.89-.32-2-1.62-2a2,2,0,0,0-1.93,2Z" transform="translate(50.26 0)"/><path d="M298.45,234.27c0-.45-.06-1.38-.06-1.6a4,4,0,0,0,1-.24h.19v1.43a2,2,0,0,1,1.76-1.49,1.82,1.82,0,0,1,1.06.29,3.74,3.74,0,0,0-.39,1,1.51,1.51,0,0,0-.78-.22c-.66,0-1.17.34-1.65,1.42v3.21c0,.74,0,1,.05,1.35-.37,0-.79,0-1.22,0Z" transform="translate(50.26 0)"/><path d="M85.06,254.63a1.35,1.35,0,0,1-1,.48c-.61,0-1.06-.39-1.22-1.22a3.43,3.43,0,0,1-.86.83,2.2,2.2,0,0,1-1.3.39,1.62,1.62,0,0,1-1.73-1.69c0-1,1-2.1,3.83-2.46v-.7c0-.95-.42-1.39-1.24-1.39a1.13,1.13,0,0,0-1.26,1.28,10.12,10.12,0,0,0-1.08.11s0-.11,0-.17c0-1.52,1.1-2.12,2.42-2.12a2.11,2.11,0,0,1,2.31,2.27v2.84c0,.63.08,1.12.53,1.12a.54.54,0,0,0,.38-.16A1.48,1.48,0,0,0,85.06,254.63Zm-2.29-3c-.94.14-2.69.49-2.69,1.68,0,.64.48.92,1.06.92a2.29,2.29,0,0,0,1.63-1Z" transform="translate(50.26 0)"/><path d="M85.35,251.65c0-2.34,1.46-3.68,3.19-3.68a3,3,0,0,1,1.51.39c0-.37,0-2.82,0-3a9.12,9.12,0,0,0,1-.22h.18v8.18A8,8,0,0,0,91.4,255c-.38,0-.78,0-1.21,0a3,3,0,0,1-.09-.66,2.8,2.8,0,0,1-1.81.7C86.73,255.11,85.35,253.82,85.35,251.65Zm3.41-2.86c-1.17,0-2.21,1-2.21,2.72a3.09,3.09,0,0,0,.57,1.92,1.78,1.78,0,0,0,1.48.73,2.35,2.35,0,0,0,1.46-.5c0-.15,0-1.46,0-4.32A1.62,1.62,0,0,0,88.76,248.79Z" transform="translate(50.26 0)"/><path d="M93.52,245.52a.73.73,0,0,1,.74.7.74.74,0,0,1-1.48,0A.73.73,0,0,1,93.52,245.52Zm-.59,8.16v-3.51c0-.34,0-1.71-.05-1.9a3.78,3.78,0,0,0,1-.24h.19v5.65c0,.74,0,1.18,0,1.35-.38,0-.79,0-1.22,0Z" transform="translate(50.26 0)"/><path d="M95.86,250.18c0-1-.07-1.79-.08-1.91a5,5,0,0,0,1-.24H97c0,.11,0,.37,0,.57a2.89,2.89,0,0,1,1.77-.63c1.58,0,2.93,1.24,2.93,3.42,0,2.33-1.46,3.72-3.19,3.72a3.13,3.13,0,0,1-1.51-.4v1.92a10.87,10.87,0,0,0,0,1.19c-.37,0-.79,0-1.22,0,0-.16,0-2.1,0-2.27Zm4.65,1.36c0-1.6-.84-2.62-2-2.62a2.42,2.42,0,0,0-1.46.45v4.35a1.64,1.64,0,0,0,1.3.56C99.48,254.28,100.51,253.24,100.51,251.54Z" transform="translate(50.26 0)"/><path d="M103.58,245.52a.73.73,0,0,1,.74.7.74.74,0,0,1-1.48,0A.73.73,0,0,1,103.58,245.52Zm-.59,8.16v-3.51c0-.34,0-1.71,0-1.9a3.7,3.7,0,0,0,1-.24h.19v5.65c0,.74,0,1.18,0,1.35-.37,0-.79,0-1.22,0Z" transform="translate(50.26 0)"/><path d="M107.41,254.19a2.18,2.18,0,0,0,1.06-.25.9.9,0,0,0,.47-.87c0-.57-.4-.75-1.47-1.17a6.33,6.33,0,0,1-1.38-.74,1.55,1.55,0,0,1-.56-1.35c0-1.13.9-1.84,2.24-1.84a4.08,4.08,0,0,1,2,.46,2.1,2.1,0,0,0-.27.71l-.09.06a3.64,3.64,0,0,0-1.48-.3c-.66,0-1.28.2-1.28.88s.5.9,1.33,1.17a4.16,4.16,0,0,1,1.51.81,1.75,1.75,0,0,1,.45,1.3c0,1.41-1.21,2.05-2.47,2.05a3.63,3.63,0,0,1-2-.58,2.48,2.48,0,0,0,.29-.77A3.12,3.12,0,0,0,107.41,254.19Z" transform="translate(50.26 0)"/><path d="M113.82,248a2.64,2.64,0,0,1,1.67.52,1.83,1.83,0,0,1,.67,1.56v.12h-.26a3.16,3.16,0,0,0-.76.07V250a1.26,1.26,0,0,0-.29-.79,1.19,1.19,0,0,0-1-.38,1.65,1.65,0,0,0-1.38.75,3.17,3.17,0,0,0-.53,1.86c0,1.52.66,2.69,2.15,2.69a3.25,3.25,0,0,0,1.86-.59,2.33,2.33,0,0,0,.36.66,3.57,3.57,0,0,1-2.38.87c-1.81,0-3.15-1.27-3.15-3.53C110.75,249.55,112,248,113.82,248Z" transform="translate(50.26 0)"/><path d="M118,245.52a.74.74,0,0,1,.75.7.75.75,0,0,1-1.49,0A.74.74,0,0,1,118,245.52Zm-.58,8.16v-3.51c0-.34,0-1.71,0-1.9a3.71,3.71,0,0,0,1-.24h.2v5.65c0,.74,0,1.18,0,1.35-.38,0-.79,0-1.22,0Z" transform="translate(50.26 0)"/><path d="M120.35,249.87c0-.45,0-1.58-.07-1.6a3.66,3.66,0,0,0,1-.24h.2v1.41a3,3,0,0,1,2.39-1.47,1.87,1.87,0,0,1,2,2v3.76a12.53,12.53,0,0,0,.06,1.27c-.41,0-.82,0-1.23,0v-4.74a1.21,1.21,0,0,0-.4-1.06,1.36,1.36,0,0,0-.83-.28,1.84,1.84,0,0,0-1.08.38,3.27,3.27,0,0,0-.87.87v3.44c0,.74,0,1.11,0,1.35-.38,0-.78,0-1.21,0Z" transform="translate(50.26 0)"/><path d="M128.17,254.7a1.14,1.14,0,0,1-.8-1,1.61,1.61,0,0,1,.92-1.28,2.25,2.25,0,0,1-1-1.9,2.33,2.33,0,0,1,2.49-2.54,3.09,3.09,0,0,1,1.12.23l2.26-.12c0,.17,0,.31,0,.45v.39l-.08.05-1.3,0a2.53,2.53,0,0,1,.48,1.57,2.31,2.31,0,0,1-2.51,2.33,2.14,2.14,0,0,1-.91-.2,1.11,1.11,0,0,0-.46.74c0,.35.32.57.94.57h1.5c1.51,0,2.34.56,2.34,1.66,0,1.39-1.51,2.19-3.19,2.19a4.07,4.07,0,0,1-2.15-.51,1.36,1.36,0,0,1,.33-2.59Zm2.46.1h-1.81a1.2,1.2,0,0,0-.78,1c0,.62.75,1.14,2,1.14a3,3,0,0,0,1.51-.35,1,1,0,0,0,.63-.87C132.17,255.16,131.74,254.8,130.63,254.8Zm-.84-6.09c-1,0-1.37.84-1.37,1.71a1.53,1.53,0,0,0,1.38,1.65,1.14,1.14,0,0,0,1-.51,2.16,2.16,0,0,0,.34-1.17C131.18,249.55,130.75,248.71,129.79,248.71Z" transform="translate(50.26 0)"/><path d="M139.5,248a2.58,2.58,0,0,1,2.7,2.79,6,6,0,0,1,0,.84H137.6v.2a2.13,2.13,0,0,0,2.13,2.37,3.12,3.12,0,0,0,1.93-.67,4,4,0,0,0,.37.66,2.79,2.79,0,0,1-1.17.72,4.25,4.25,0,0,1-1.3.23c-1.78,0-3.14-1.19-3.14-3.53C136.42,249.55,137.73,248,139.5,248Zm1.66,2.86c0-.89-.32-2-1.62-2a2,2,0,0,0-1.93,2Z" transform="translate(50.26 0)"/><path d="M143.49,247.32c0-.27,0-1.8,0-2a5.15,5.15,0,0,0,1-.22h.18v8.48a10.32,10.32,0,0,0,.05,1.41c-.38,0-.82,0-1.23,0,0-.11,0-1.27,0-1.45Z" transform="translate(50.26 0)"/><path d="M147,245.52a.73.73,0,0,1,.74.7.74.74,0,0,1-1.48,0A.73.73,0,0,1,147,245.52Zm-.59,8.16v-3.51c0-.34,0-1.71-.05-1.9a3.7,3.7,0,0,0,1-.24h.19v5.65c0,.74,0,1.18,0,1.35-.37,0-.79,0-1.22,0Z" transform="translate(50.26 0)"/><path d="M149.48,249l-1-.13v-.6l1-.2.09-1.38a4.16,4.16,0,0,0,.91-.22h.16V248h1.94a2.53,2.53,0,0,0-.06.53,2.49,2.49,0,0,0,0,.4h-1.89v3.93c0,1,.39,1.23,1,1.23a1.76,1.76,0,0,0,1-.33,2.94,2.94,0,0,0,.26.76,2.59,2.59,0,0,1-1.54.56c-1.1,0-1.85-.67-1.85-2.07Z" transform="translate(50.26 0)"/><path d="M153.75,256.11V256a1,1,0,0,0,.81-1c-.52,0-.84-.24-.84-.66a.72.72,0,0,1,.77-.74c.53,0,.83.37.83,1.09a1.82,1.82,0,0,1-1.24,1.73A1.7,1.7,0,0,0,153.75,256.11Z" transform="translate(50.26 0)"/><path d="M160.86,254.19a2.14,2.14,0,0,0,1-.25.9.9,0,0,0,.47-.87c0-.57-.39-.75-1.47-1.17a6.57,6.57,0,0,1-1.38-.74,1.55,1.55,0,0,1-.56-1.35c0-1.13.9-1.84,2.24-1.84a4.14,4.14,0,0,1,2,.46,1.94,1.94,0,0,0-.28.71l-.09.06a3.64,3.64,0,0,0-1.48-.3c-.66,0-1.27.2-1.27.88s.49.9,1.32,1.17a4.16,4.16,0,0,1,1.51.81,1.76,1.76,0,0,1,.46,1.3c0,1.41-1.21,2.05-2.47,2.05a3.58,3.58,0,0,1-2-.58,2.76,2.76,0,0,0,.28-.77A3.13,3.13,0,0,0,160.86,254.19Z" transform="translate(50.26 0)"/><path d="M167.28,248a2.58,2.58,0,0,1,2.7,2.79,6,6,0,0,1,0,.84h-4.55v.2a2.13,2.13,0,0,0,2.13,2.37,3.12,3.12,0,0,0,1.93-.67,4,4,0,0,0,.37.66,2.79,2.79,0,0,1-1.17.72,4.2,4.2,0,0,1-1.3.23c-1.78,0-3.14-1.19-3.14-3.53C164.2,249.55,165.51,248,167.28,248Zm1.66,2.86c0-.89-.32-2-1.62-2a2,2,0,0,0-1.93,2Z" transform="translate(50.26 0)"/><path d="M170.83,251.65c0-2.34,1.45-3.68,3.18-3.68a3,3,0,0,1,1.51.39c0-.37,0-2.82,0-3a8.27,8.27,0,0,0,1-.22h.18v8.18a8.71,8.71,0,0,0,.18,1.71c-.37,0-.78,0-1.21,0a3.88,3.88,0,0,1-.09-.66,2.77,2.77,0,0,1-1.8.7C172.21,255.11,170.83,253.82,170.83,251.65Zm3.4-2.86c-1.17,0-2.21,1-2.21,2.72a3,3,0,0,0,.58,1.92,1.77,1.77,0,0,0,1.48.73,2.3,2.3,0,0,0,1.45-.5c0-.15,0-1.46,0-4.32A1.6,1.6,0,0,0,174.23,248.79Z" transform="translate(50.26 0)"/><path d="M180.56,251.65c0-2.34,1.46-3.68,3.19-3.68a3,3,0,0,1,1.51.39c0-.37,0-2.82,0-3a9.12,9.12,0,0,0,1-.22h.18v8.18a8,8,0,0,0,.18,1.71c-.38,0-.78,0-1.21,0a3,3,0,0,1-.09-.66,2.8,2.8,0,0,1-1.81.7C181.94,255.11,180.56,253.82,180.56,251.65Zm3.41-2.86c-1.17,0-2.21,1-2.21,2.72a3.09,3.09,0,0,0,.57,1.92,1.78,1.78,0,0,0,1.48.73,2.35,2.35,0,0,0,1.46-.5c0-.15,0-1.46,0-4.32A1.62,1.62,0,0,0,184,248.79Z" transform="translate(50.26 0)"/><path d="M188.73,245.52a.74.74,0,0,1,.74.7.74.74,0,0,1-1.48,0A.73.73,0,0,1,188.73,245.52Zm-.59,8.16v-3.51c0-.34,0-1.71,0-1.9a3.78,3.78,0,0,0,1-.24h.19v5.65c0,.74,0,1.18,0,1.35-.38,0-.79,0-1.22,0Z" transform="translate(50.26 0)"/><path d="M196.68,254.63a1.32,1.32,0,0,1-1,.48c-.61,0-1.06-.39-1.22-1.22a3.43,3.43,0,0,1-.86.83,2.2,2.2,0,0,1-1.3.39,1.62,1.62,0,0,1-1.73-1.69c0-1,1-2.1,3.83-2.46v-.7c0-.95-.42-1.39-1.24-1.39a1.13,1.13,0,0,0-1.26,1.28,10.12,10.12,0,0,0-1.08.11s0-.11,0-.17c0-1.52,1.1-2.12,2.42-2.12a2.11,2.11,0,0,1,2.31,2.27v2.84c0,.63.08,1.12.53,1.12a.56.56,0,0,0,.38-.16A1.65,1.65,0,0,0,196.68,254.63Zm-2.28-3c-.94.14-2.7.49-2.7,1.68,0,.64.49.92,1.07.92a2.29,2.29,0,0,0,1.63-1Z" transform="translate(50.26 0)"/><path d="M197.57,249.87a14.93,14.93,0,0,0-.07-1.6,4,4,0,0,0,1-.24h.2v1.41a3,3,0,0,1,2.39-1.47,1.85,1.85,0,0,1,1.91,1.47,3,3,0,0,1,2.39-1.47,1.88,1.88,0,0,1,2,2v3.76c0,.69,0,1.05,0,1.27-.38,0-.79,0-1.22,0v-4.74a1.21,1.21,0,0,0-.4-1.06A1.39,1.39,0,0,0,205,249a2.63,2.63,0,0,0-1.91,1.17v3.6c0,.69,0,1.1,0,1.27-.4,0-.81,0-1.22,0v-4.74a1.21,1.21,0,0,0-.4-1.06,1.36,1.36,0,0,0-.83-.28,1.84,1.84,0,0,0-1.08.38,3.27,3.27,0,0,0-.87.87v3.44c0,.74,0,1.15,0,1.35-.38,0-.78,0-1.21,0Z" transform="translate(50.26 0)"/><path d="M211.72,249.87c0-.45-.05-1.58-.06-1.6a3.74,3.74,0,0,0,1-.24h.19v1.41a3,3,0,0,1,2.4-1.47,1.87,1.87,0,0,1,2,2v3.76c0,.69,0,1,.05,1.27-.4,0-.82,0-1.22,0v-4.74a1.21,1.21,0,0,0-.4-1.06,1.39,1.39,0,0,0-.84-.28,1.84,1.84,0,0,0-1.07.38,3.31,3.31,0,0,0-.88.87v3.44c0,.74,0,1.11,0,1.35-.37,0-.78,0-1.21,0Z" transform="translate(50.26 0)"/><path d="M221.59,255.11c-1.92,0-3.07-1.53-3.07-3.56s1.3-3.58,3.11-3.58,3.07,1.45,3.07,3.54S223.41,255.11,221.59,255.11Zm0-6.23c-1.2,0-1.92,1.13-1.92,2.63,0,1.72.82,2.65,1.92,2.65a1.64,1.64,0,0,0,1.37-.71,3,3,0,0,0,.56-1.94C223.53,250,222.8,248.88,221.6,248.88Z" transform="translate(50.26 0)"/><path d="M226,249.87c0-.45-.06-1.58-.07-1.6a3.66,3.66,0,0,0,1-.24h.2v1.41a3,3,0,0,1,2.39-1.47,1.87,1.87,0,0,1,2,2v3.76c0,.69,0,1,.05,1.27-.4,0-.82,0-1.22,0v-4.74a1.21,1.21,0,0,0-.4-1.06,1.38,1.38,0,0,0-.83-.28,1.84,1.84,0,0,0-1.08.38,3.27,3.27,0,0,0-.87.87v3.44c0,.74,0,1.11,0,1.35-.37,0-.78,0-1.2,0Z" transform="translate(50.26 0)"/><path d="M233.21,249.86c0-.79-.05-1.56-.06-1.73a8.78,8.78,0,0,0,1-.1h.19v4.66a1.29,1.29,0,0,0,.41,1.07,1.31,1.31,0,0,0,.84.34,2.73,2.73,0,0,0,1.85-1V250c0-.92,0-1.66-.07-1.88a8.47,8.47,0,0,0,1-.1h.21v5.18a9.49,9.49,0,0,0,.17,1.82c-.38,0-.8,0-1.23,0a10.88,10.88,0,0,1-.11-1.18,3.08,3.08,0,0,1-2.29,1.22,2,2,0,0,1-2-2.11Z" transform="translate(50.26 0)"/><path d="M240.47,249.87a14.93,14.93,0,0,0-.07-1.6,4,4,0,0,0,1-.24h.2v1.41A3,3,0,0,1,244,248a1.85,1.85,0,0,1,1.91,1.47,3,3,0,0,1,2.39-1.47,1.88,1.88,0,0,1,2,2v3.76c0,.69,0,1.05,0,1.27-.38,0-.79,0-1.22,0v-4.74a1.21,1.21,0,0,0-.4-1.06,1.39,1.39,0,0,0-.84-.28,2.63,2.63,0,0,0-1.91,1.17v3.6c0,.69,0,1.1,0,1.27-.4,0-.81,0-1.22,0v-4.74a1.21,1.21,0,0,0-.4-1.06,1.36,1.36,0,0,0-.83-.28,1.84,1.84,0,0,0-1.08.38,3.27,3.27,0,0,0-.87.87v3.44c0,.74,0,1.15,0,1.35-.38,0-.78,0-1.21,0Z" transform="translate(50.26 0)"/><path d="M252,249.87a15.54,15.54,0,0,0-.06-1.6,4,4,0,0,0,1-.24h.19v1.41a3,3,0,0,1,2.4-1.47,1.85,1.85,0,0,1,1.91,1.47,3,3,0,0,1,2.39-1.47,1.88,1.88,0,0,1,2,2v3.76c0,.69,0,1.05,0,1.27-.38,0-.8,0-1.22,0v-4.74a1.19,1.19,0,0,0-.41-1.06,1.36,1.36,0,0,0-.83-.28,2.61,2.61,0,0,0-1.91,1.17v3.6c0,.69,0,1.1.05,1.27-.4,0-.82,0-1.22,0v-4.74a1.21,1.21,0,0,0-.4-1.06,1.39,1.39,0,0,0-.84-.28,1.84,1.84,0,0,0-1.07.38,3.31,3.31,0,0,0-.88.87v3.44c0,.74,0,1.15,0,1.35-.37,0-.78,0-1.21,0Z" transform="translate(50.26 0)"/><path d="M265.8,253.24c.07.22.17.53.19.64l.09-.34.1-.3.44-1.28c.2-.57.38-1.14.56-1.7l.5-1.52.23-.71h1.18l-.48,1.32-.91,2.51-.89,2.5-.45,1.26a4.32,4.32,0,0,1-.79,1.56,1.74,1.74,0,0,1-1.42.62,2.21,2.21,0,0,1-1.22-.38,2.27,2.27,0,0,0,.35-.8,2,2,0,0,0,.86.23c.46,0,.75-.35,1.05-1.09.07-.21.19-.45.28-.75l-2.76-7H264Z" transform="translate(50.26 0)"/><path d="M272.53,249.87c0-.45-.06-1.58-.07-1.6a3.66,3.66,0,0,0,1-.24h.2v1.41a3,3,0,0,1,2.39-1.47,1.87,1.87,0,0,1,2,2v3.76c0,.69,0,1,.05,1.27-.4,0-.82,0-1.22,0v-4.74a1.21,1.21,0,0,0-.4-1.06,1.38,1.38,0,0,0-.83-.28,1.84,1.84,0,0,0-1.08.38,3.27,3.27,0,0,0-.87.87v3.44c0,.74,0,1.11,0,1.35-.37,0-.78,0-1.2,0Z" transform="translate(50.26 0)"/><path d="M280.35,245.52a.73.73,0,0,1,.74.7.74.74,0,0,1-1.48,0A.73.73,0,0,1,280.35,245.52Zm-.58,8.16v-3.51c0-.34,0-1.71-.06-1.9a3.7,3.7,0,0,0,1-.24h.2v5.65c0,.74,0,1.18,0,1.35-.38,0-.8,0-1.23,0Z" transform="translate(50.26 0)"/><path d="M283.11,255h-.47V246.7c0-.23,0-1.24,0-1.34a5,5,0,0,0,1-.22h.17c0,.35,0,3,0,3.44a2.85,2.85,0,0,1,1.75-.61c1.57,0,2.93,1.24,2.93,3.42,0,2.33-1.46,3.72-3.18,3.72a3.32,3.32,0,0,1-1.69-.48Zm4.17-3.49c0-1.6-.83-2.62-2-2.62a2.34,2.34,0,0,0-1.44.45c0,2.89,0,4.21,0,4.35a1.64,1.64,0,0,0,1.3.56C286.25,254.28,287.28,253.24,287.28,251.54Z" transform="translate(50.26 0)"/><path d="M289.78,247.3c0-.39,0-1.86,0-1.94a5.06,5.06,0,0,0,1-.22H291v4.32a3,3,0,0,1,2.39-1.49,1.87,1.87,0,0,1,2,2v3.76a10.07,10.07,0,0,0,.06,1.27c-.43,0-.82,0-1.23,0v-4.74a1.21,1.21,0,0,0-.4-1.06,1.41,1.41,0,0,0-.83-.28,2.62,2.62,0,0,0-2,1.26v3.37A10,10,0,0,0,291,255c-.4,0-.82,0-1.24,0,0-.15,0-1.34,0-1.47Z" transform="translate(50.26 0)"/><path d="M93.77,263.57a2.58,2.58,0,0,1,2.71,2.79,6,6,0,0,1-.06.84H91.87v.2A2.14,2.14,0,0,0,94,269.77a3.1,3.1,0,0,0,1.92-.67,3.38,3.38,0,0,0,.38.66,2.92,2.92,0,0,1-1.17.72,4.3,4.3,0,0,1-1.3.23c-1.78,0-3.15-1.2-3.15-3.54C90.69,265.15,92,263.57,93.77,263.57Zm1.67,2.86c0-.89-.33-2-1.63-2a2,2,0,0,0-1.92,2Z" transform="translate(50.26 0)"/><path d="M97.75,265.46c0-.79,0-1.56-.07-1.73a8.42,8.42,0,0,0,1-.1h.2v4.66a1.32,1.32,0,0,0,.4,1.07,1.36,1.36,0,0,0,.85.34,2.72,2.72,0,0,0,1.84-1v-3.1c0-.92-.05-1.66-.06-1.88a8.65,8.65,0,0,0,1-.1h.2v5.18a10.4,10.4,0,0,0,.17,1.82c-.37,0-.79,0-1.22,0,0-.14-.1-.61-.12-1.18a3,3,0,0,1-2.28,1.22,2,2,0,0,1-2-2.11Z" transform="translate(50.26 0)"/><path d="M105.58,261.12a.74.74,0,0,1,.74.7.75.75,0,0,1-1.49,0A.74.74,0,0,1,105.58,261.12Zm-.59,8.16v-3.51c0-.34,0-1.72,0-1.9a3.87,3.87,0,0,0,1-.24h.19v5.65c0,.74,0,1.18,0,1.35-.38,0-.79,0-1.22,0Z" transform="translate(50.26 0)"/><path d="M109.41,269.79a2.14,2.14,0,0,0,1-.25.89.89,0,0,0,.47-.87c0-.57-.39-.75-1.47-1.17a6.83,6.83,0,0,1-1.38-.74,1.57,1.57,0,0,1-.56-1.35c0-1.13.9-1.84,2.24-1.84a4.09,4.09,0,0,1,2,.46,1.9,1.9,0,0,0-.27.71l-.09.06a3.69,3.69,0,0,0-1.49-.3c-.66,0-1.27.2-1.27.88s.49.9,1.33,1.17a4,4,0,0,1,1.5.81,1.74,1.74,0,0,1,.46,1.3c0,1.41-1.21,2-2.47,2a3.58,3.58,0,0,1-2-.58,2.75,2.75,0,0,0,.29-.77A3.07,3.07,0,0,0,109.41,269.79Z" transform="translate(50.26 0)"/><path d="M113.21,265.47a14.93,14.93,0,0,0-.07-1.6,4,4,0,0,0,1-.24h.2V265a3,3,0,0,1,2.39-1.47,1.85,1.85,0,0,1,1.91,1.47,3,3,0,0,1,2.39-1.47,1.88,1.88,0,0,1,2,2v3.76c0,.69,0,1.05,0,1.27-.38,0-.79,0-1.22,0v-4.74a1.19,1.19,0,0,0-.41-1.06,1.36,1.36,0,0,0-.83-.28,2.63,2.63,0,0,0-1.91,1.17v3.6c0,.69,0,1.1,0,1.27-.4,0-.82,0-1.22,0v-4.74a1.21,1.21,0,0,0-.4-1.06,1.38,1.38,0,0,0-.83-.28,1.9,1.9,0,0,0-1.08.37,3.46,3.46,0,0,0-.87.88v3.44c0,.74,0,1.14,0,1.35-.38,0-.78,0-1.21,0Z" transform="translate(50.26 0)"/><path d="M127.38,270.71c-1.93,0-3.07-1.53-3.07-3.56s1.3-3.58,3.11-3.58,3.06,1.45,3.06,3.54S129.2,270.71,127.38,270.71Zm0-6.23c-1.21,0-1.92,1.13-1.92,2.63,0,1.72.81,2.65,1.92,2.65a1.62,1.62,0,0,0,1.36-.71,3,3,0,0,0,.56-1.94C129.31,265.55,128.59,264.48,127.39,264.48Z" transform="translate(50.26 0)"/><path d="M131.31,267.25c0-2.34,1.46-3.68,3.19-3.68A3,3,0,0,1,136,264c0-.37,0-2.82,0-3a8.67,8.67,0,0,0,1-.22h.18v8.18a8.71,8.71,0,0,0,.18,1.71c-.38,0-.78,0-1.21,0a3,3,0,0,1-.09-.66,2.8,2.8,0,0,1-1.81.7C132.69,270.71,131.31,269.42,131.31,267.25Zm3.41-2.86c-1.17,0-2.21,1-2.21,2.72a3.09,3.09,0,0,0,.57,1.92,1.81,1.81,0,0,0,1.48.73,2.3,2.3,0,0,0,1.46-.51c0-.14,0-1.45,0-4.31A1.62,1.62,0,0,0,134.72,264.39Z" transform="translate(50.26 0)"/><path d="M141.71,264.56l-1-.13v-.6l1-.2.1-1.38a4.46,4.46,0,0,0,.91-.22h.15v1.6h1.94a2.49,2.49,0,0,0-.05.53c0,.15,0,.28,0,.4h-1.89v3.93c0,.95.39,1.23,1,1.23a1.73,1.73,0,0,0,1-.34,2.32,2.32,0,0,0,.26.77,2.64,2.64,0,0,1-1.55.56c-1.09,0-1.85-.67-1.85-2.07Z" transform="translate(50.26 0)"/><path d="M146.72,261.12a.73.73,0,0,1,.74.7.74.74,0,0,1-1.48,0A.73.73,0,0,1,146.72,261.12Zm-.59,8.16v-3.51c0-.34,0-1.72,0-1.9a3.7,3.7,0,0,0,1-.24h.2v5.65c0,.74,0,1.18,0,1.35-.37,0-.79,0-1.22,0Z" transform="translate(50.26 0)"/><path d="M149,265.47c0-.45-.05-1.58-.06-1.6a3.74,3.74,0,0,0,1-.24h.19V265a3,3,0,0,1,2.4-1.47,1.87,1.87,0,0,1,2,2v3.76c0,.69,0,1,.05,1.27-.4,0-.82,0-1.22,0v-4.74a1.21,1.21,0,0,0-.4-1.06,1.39,1.39,0,0,0-.84-.28,2,2,0,0,0-1.08.37,3.46,3.46,0,0,0-.87.88v3.44c0,.74,0,1.11,0,1.35-.37,0-.78,0-1.21,0Z" transform="translate(50.26 0)"/><path d="M158.9,263.57a2.61,2.61,0,0,1,1.66.52,1.81,1.81,0,0,1,.68,1.56v.12H161a3.3,3.3,0,0,0-.77.07v-.2a1.23,1.23,0,0,0-.28-.79,1.19,1.19,0,0,0-1-.38,1.65,1.65,0,0,0-1.38.75,3.17,3.17,0,0,0-.53,1.86c0,1.52.66,2.69,2.14,2.69a3.23,3.23,0,0,0,1.86-.59,2.63,2.63,0,0,0,.37.66,3.62,3.62,0,0,1-2.38.87c-1.81,0-3.15-1.27-3.15-3.54C155.83,265.15,157.09,263.57,158.9,263.57Z" transform="translate(50.26 0)"/><path d="M163.11,261.12a.73.73,0,0,1,.74.7.74.74,0,0,1-1.48,0A.74.74,0,0,1,163.11,261.12Zm-.58,8.16v-3.51c0-.34,0-1.72-.05-1.9a3.71,3.71,0,0,0,1-.24h.2v5.65c0,.74,0,1.18,0,1.35-.38,0-.8,0-1.23,0Z" transform="translate(50.26 0)"/><path d="M165,267.25c0-2.34,1.46-3.68,3.19-3.68a3,3,0,0,1,1.5.39c0-.37,0-2.82,0-3a8.53,8.53,0,0,0,1-.22h.18v8.18a7.82,7.82,0,0,0,.19,1.71c-.38,0-.78,0-1.21,0a2.44,2.44,0,0,1-.09-.66,2.82,2.82,0,0,1-1.81.7C166.35,270.71,165,269.42,165,267.25Zm3.41-2.86c-1.17,0-2.21,1-2.21,2.72a3,3,0,0,0,.57,1.92,1.81,1.81,0,0,0,1.48.73,2.3,2.3,0,0,0,1.46-.51c0-.14,0-1.45,0-4.31A1.59,1.59,0,0,0,168.38,264.39Z" transform="translate(50.26 0)"/><path d="M172.54,265.46c0-.79-.06-1.56-.07-1.73a8.6,8.6,0,0,0,1-.1h.2v4.66a1.32,1.32,0,0,0,.4,1.07,1.33,1.33,0,0,0,.85.34,2.72,2.72,0,0,0,1.84-1v-3.1c0-.92-.05-1.66-.06-1.88a8.52,8.52,0,0,0,1-.1H178v5.18a10.4,10.4,0,0,0,.17,1.82c-.38,0-.79,0-1.22,0a10,10,0,0,1-.12-1.18,3,3,0,0,1-2.29,1.22,2,2,0,0,1-2-2.11Z" transform="translate(50.26 0)"/><path d="M179.79,265.47c0-.45,0-1.58-.06-1.6a3.74,3.74,0,0,0,1-.24H181V265a3,3,0,0,1,2.39-1.47,1.87,1.87,0,0,1,2,2v3.76c0,.69,0,1,.05,1.27-.4,0-.82,0-1.22,0v-4.74a1.19,1.19,0,0,0-.41-1.06,1.36,1.36,0,0,0-.83-.28,1.93,1.93,0,0,0-1.08.37,3.46,3.46,0,0,0-.87.88v3.44c0,.74,0,1.11,0,1.35-.38,0-.78,0-1.21,0Z" transform="translate(50.26 0)"/><path d="M187.25,264.56l-1-.13v-.6l1-.2.09-1.38a4.16,4.16,0,0,0,.91-.22h.16v1.6h1.94a2.53,2.53,0,0,0-.06.53,2.49,2.49,0,0,0,0,.4h-1.89v3.93c0,.95.39,1.23,1,1.23a1.73,1.73,0,0,0,1-.34,2.32,2.32,0,0,0,.26.77,2.64,2.64,0,0,1-1.55.56c-1.09,0-1.85-.67-1.85-2.07Z" transform="translate(50.26 0)"/><path d="M194.26,265.46c0-.79,0-1.56-.07-1.73a8.42,8.42,0,0,0,1-.1h.2v4.66a1.32,1.32,0,0,0,.4,1.07,1.36,1.36,0,0,0,.85.34,2.7,2.7,0,0,0,1.84-1v-3.1c0-.92-.05-1.66-.06-1.88a8.65,8.65,0,0,0,1-.1h.2v5.18a10.4,10.4,0,0,0,.17,1.82c-.37,0-.79,0-1.22,0,0-.14-.1-.61-.12-1.18a3,3,0,0,1-2.28,1.22,2,2,0,0,1-2-2.11Z" transform="translate(50.26 0)"/><path d="M201.72,264.56l-1-.13v-.6l1-.2.09-1.38a4.16,4.16,0,0,0,.91-.22h.16v1.6h1.94a2.53,2.53,0,0,0-.06.53,2.49,2.49,0,0,0,0,.4h-1.89v3.93c0,.95.39,1.23,1,1.23a1.68,1.68,0,0,0,1-.34,2.58,2.58,0,0,0,.27.77,2.64,2.64,0,0,1-1.55.56c-1.09,0-1.85-.67-1.85-2.07Z" transform="translate(50.26 0)"/><path d="M208.74,262.92c0-.27,0-1.8,0-2a5,5,0,0,0,1-.22h.18v8.48a12.54,12.54,0,0,0,.05,1.41c-.37,0-.81,0-1.23,0,0-.12,0-1.27,0-1.45Z" transform="translate(50.26 0)"/><path d="M217.28,270.23a1.32,1.32,0,0,1-1,.48c-.61,0-1.06-.39-1.22-1.22a3.43,3.43,0,0,1-.86.83,2.2,2.2,0,0,1-1.3.39,1.62,1.62,0,0,1-1.73-1.69c0-1,1-2.1,3.83-2.46v-.7c0-.95-.42-1.39-1.24-1.39a1.13,1.13,0,0,0-1.26,1.28,10.12,10.12,0,0,0-1.08.11c0-.05,0-.11,0-.17,0-1.52,1.1-2.12,2.42-2.12a2.11,2.11,0,0,1,2.31,2.27v2.84c0,.63.08,1.12.53,1.12a.56.56,0,0,0,.38-.16A1.65,1.65,0,0,0,217.28,270.23Zm-2.28-3c-.94.14-2.7.49-2.7,1.68,0,.63.49.92,1.07.92a2.32,2.32,0,0,0,1.63-1Z" transform="translate(50.26 0)"/><path d="M220.65,270.71c-1.92,0-3.07-1.53-3.07-3.56s1.3-3.58,3.11-3.58,3.07,1.45,3.07,3.54S222.47,270.71,220.65,270.71Zm0-6.23c-1.21,0-1.92,1.13-1.92,2.63,0,1.72.82,2.65,1.92,2.65a1.65,1.65,0,0,0,1.37-.71,3,3,0,0,0,.56-1.94C222.59,265.55,221.86,264.48,220.66,264.48Z" transform="translate(50.26 0)"/><path d="M225,265.47c0-.45-.06-1.38-.06-1.6a4,4,0,0,0,1-.24h.19v1.43a2,2,0,0,1,1.76-1.49,1.85,1.85,0,0,1,1.07.29,3.16,3.16,0,0,0-.39,1,1.52,1.52,0,0,0-.79-.22c-.66,0-1.17.34-1.65,1.42v3.21c0,.74,0,1.05.06,1.35-.38,0-.8,0-1.23,0Z" transform="translate(50.26 0)"/><path d="M232.22,263.57a2.58,2.58,0,0,1,2.7,2.79,6,6,0,0,1,0,.84h-4.55v.2a2.13,2.13,0,0,0,2.13,2.37,3.12,3.12,0,0,0,1.93-.67,4,4,0,0,0,.37.66,2.79,2.79,0,0,1-1.17.72,4.2,4.2,0,0,1-1.3.23c-1.78,0-3.14-1.2-3.14-3.54C229.14,265.15,230.45,263.57,232.22,263.57Zm1.66,2.86c0-.89-.32-2-1.62-2a2,2,0,0,0-1.93,2Z" transform="translate(50.26 0)"/><path d="M238.85,263.57a2.58,2.58,0,0,1,2.7,2.79,6,6,0,0,1-.05.84H237v.2a2.13,2.13,0,0,0,2.13,2.37,3.12,3.12,0,0,0,1.93-.67,4,4,0,0,0,.37.66,2.79,2.79,0,0,1-1.17.72,4.2,4.2,0,0,1-1.3.23c-1.78,0-3.14-1.2-3.14-3.54C235.77,265.15,237.08,263.57,238.85,263.57Zm1.66,2.86c0-.89-.32-2-1.62-2a2,2,0,0,0-1.93,2Z" transform="translate(50.26 0)"/><path d="M243.06,264.56l-1-.13v-.6l1-.2.09-1.38a4.16,4.16,0,0,0,.91-.22h.16v1.6h1.94a2.53,2.53,0,0,0-.06.53,2.49,2.49,0,0,0,0,.4h-1.89v3.93c0,.95.39,1.23,1,1.23a1.68,1.68,0,0,0,1-.34,2.89,2.89,0,0,0,.26.77,2.59,2.59,0,0,1-1.54.56c-1.09,0-1.85-.67-1.85-2.07Z" transform="translate(50.26 0)"/><path d="M249.64,267.25c0-2.34,1.46-3.68,3.18-3.68a3,3,0,0,1,1.51.39c0-.37,0-2.82,0-3a8.27,8.27,0,0,0,1-.22h.18v8.18a7.82,7.82,0,0,0,.19,1.71c-.38,0-.79,0-1.21,0a2.72,2.72,0,0,1-.1-.66,2.77,2.77,0,0,1-1.8.7C251,270.71,249.64,269.42,249.64,267.25Zm3.41-2.86c-1.17,0-2.21,1-2.21,2.72a3,3,0,0,0,.57,1.92,1.79,1.79,0,0,0,1.48.73,2.3,2.3,0,0,0,1.46-.51c0-.14,0-1.45,0-4.31A1.59,1.59,0,0,0,253.05,264.39Z" transform="translate(50.26 0)"/><path d="M259.84,270.71c-1.92,0-3.06-1.53-3.06-3.56s1.3-3.58,3.1-3.58S263,265,263,267.11,261.66,270.71,259.84,270.71Zm0-6.23c-1.21,0-1.93,1.13-1.93,2.63,0,1.72.82,2.65,1.93,2.65a1.64,1.64,0,0,0,1.36-.71,3,3,0,0,0,.56-1.94C261.78,265.55,261.05,264.48,259.86,264.48Z" transform="translate(50.26 0)"/><path d="M264.23,262.92c0-.27,0-1.8,0-2a5.06,5.06,0,0,0,1-.22h.19v8.48a10.42,10.42,0,0,0,.05,1.41c-.38,0-.82,0-1.24,0,0-.12,0-1.27,0-1.45Z" transform="translate(50.26 0)"/><path d="M269.74,270.71c-1.93,0-3.07-1.53-3.07-3.56s1.3-3.58,3.11-3.58,3.06,1.45,3.06,3.54S271.56,270.71,269.74,270.71Zm0-6.23c-1.21,0-1.92,1.13-1.92,2.63,0,1.72.82,2.65,1.92,2.65a1.65,1.65,0,0,0,1.37-.71,3.08,3.08,0,0,0,.55-1.94C271.67,265.55,271,264.48,269.75,264.48Z" transform="translate(50.26 0)"/><path d="M274.13,265.47c0-.45-.06-1.38-.06-1.6a4,4,0,0,0,1-.24h.19v1.43a2,2,0,0,1,1.76-1.49,1.82,1.82,0,0,1,1.06.29,3.74,3.74,0,0,0-.39,1,1.49,1.49,0,0,0-.78-.22c-.66,0-1.17.34-1.65,1.42v3.21c0,.74,0,1.05.05,1.35-.37,0-.79,0-1.22,0Z" transform="translate(50.26 0)"/><path d="M281.31,263.57a2.58,2.58,0,0,1,2.7,2.79,6,6,0,0,1-.05.84h-4.55v.2a2.13,2.13,0,0,0,2.13,2.37,3.08,3.08,0,0,0,1.92-.67,4,4,0,0,0,.38.66,2.79,2.79,0,0,1-1.17.72,4.3,4.3,0,0,1-1.3.23c-1.78,0-3.14-1.2-3.14-3.54C278.23,265.15,279.54,263.57,281.31,263.57Zm1.66,2.86c0-.89-.32-2-1.62-2a2,2,0,0,0-1.93,2Z" transform="translate(50.26 0)"/><path d="M87.18,281.07c0-.53,0-1.43-.06-1.6a4.07,4.07,0,0,0,1-.24h.19v1.41a3,3,0,0,1,2.39-1.47,1.84,1.84,0,0,1,1.91,1.47,3,3,0,0,1,2.4-1.47,1.88,1.88,0,0,1,2,2V285c0,.69,0,1.05,0,1.27-.37,0-.79,0-1.22,0v-4.74a1.21,1.21,0,0,0-.4-1.06,1.36,1.36,0,0,0-.83-.28,2.59,2.59,0,0,0-1.91,1.17V285a12.08,12.08,0,0,0,.05,1.27c-.41,0-.82,0-1.22,0v-4.74a1.19,1.19,0,0,0-.41-1.06,1.36,1.36,0,0,0-.83-.28,1.93,1.93,0,0,0-1.08.37,3.46,3.46,0,0,0-.87.88v3.44c0,.74,0,1.14,0,1.35-.38,0-.78,0-1.21,0Z" transform="translate(50.26 0)"/><path d="M104.38,285.83a1.33,1.33,0,0,1-1,.48c-.61,0-1.07-.39-1.22-1.22a3.61,3.61,0,0,1-.86.83,2.24,2.24,0,0,1-1.3.39,1.62,1.62,0,0,1-1.73-1.69c0-1,1-2.11,3.82-2.46v-.7c0-.95-.41-1.39-1.23-1.39a1.12,1.12,0,0,0-1.26,1.27c-.23,0-.76.06-1.08.12,0,0,0-.12,0-.17,0-1.52,1.11-2.12,2.42-2.12a2.11,2.11,0,0,1,2.32,2.27v2.84c0,.63.07,1.12.53,1.12a.56.56,0,0,0,.38-.16A1.65,1.65,0,0,0,104.38,285.83Zm-2.29-3c-.93.14-2.69.49-2.69,1.68,0,.63.48.92,1.07.92a2.3,2.3,0,0,0,1.62-1Z" transform="translate(50.26 0)"/><path d="M105.89,285.89a1.11,1.11,0,0,1-.81-1,1.61,1.61,0,0,1,.92-1.28,2.25,2.25,0,0,1-1-1.9,2.33,2.33,0,0,1,2.5-2.54,3.31,3.31,0,0,1,1.11.22l2.27-.11a3.77,3.77,0,0,0,0,.45v.39l-.08.05-1.3,0a2.52,2.52,0,0,1,.49,1.58,2.31,2.31,0,0,1-2.51,2.33,2.14,2.14,0,0,1-.91-.2,1.09,1.09,0,0,0-.47.74c0,.35.32.57,1,.57h1.49c1.51,0,2.34.56,2.34,1.65,0,1.4-1.51,2.2-3.18,2.2a4.09,4.09,0,0,1-2.16-.51,1.36,1.36,0,0,1,.34-2.6Zm2.45.11h-1.8a1.19,1.19,0,0,0-.78,1c0,.62.74,1.14,2,1.14a3,3,0,0,0,1.5-.35,1,1,0,0,0,.63-.87C109.88,286.36,109.45,286,108.34,286Zm-.84-6.09c-1,0-1.37.84-1.37,1.71a1.54,1.54,0,0,0,1.38,1.65,1.14,1.14,0,0,0,1-.51,2.16,2.16,0,0,0,.34-1.17C108.89,280.75,108.46,279.91,107.5,279.91Z" transform="translate(50.26 0)"/><path d="M112,281.07c0-.45,0-1.58-.06-1.6a3.74,3.74,0,0,0,1-.24h.19v1.41a3,3,0,0,1,2.4-1.47,1.87,1.87,0,0,1,2,2V285c0,.69,0,1,0,1.27-.4,0-.82,0-1.22,0v-4.74a1.21,1.21,0,0,0-.4-1.06,1.39,1.39,0,0,0-.84-.28,1.9,1.9,0,0,0-1.07.37,3.5,3.5,0,0,0-.88.88v3.44c0,.74,0,1.11,0,1.35-.37,0-.78,0-1.21,0Z" transform="translate(50.26 0)"/><path d="M124.88,285.83a1.33,1.33,0,0,1-1,.48c-.61,0-1.07-.39-1.22-1.22a3.61,3.61,0,0,1-.86.83,2.24,2.24,0,0,1-1.3.39,1.62,1.62,0,0,1-1.73-1.69c0-1,1-2.11,3.82-2.46v-.7c0-.95-.41-1.39-1.23-1.39a1.13,1.13,0,0,0-1.26,1.27c-.22,0-.76.06-1.08.12,0,0,0-.12,0-.17,0-1.52,1.11-2.12,2.42-2.12a2.11,2.11,0,0,1,2.32,2.27v2.84c0,.63.07,1.12.53,1.12a.56.56,0,0,0,.38-.16A1.65,1.65,0,0,0,124.88,285.83Zm-2.29-3c-.93.14-2.69.49-2.69,1.68,0,.63.48.92,1.07.92a2.28,2.28,0,0,0,1.62-1Z" transform="translate(50.26 0)"/><path d="M134,285.83a1.35,1.35,0,0,1-1,.48c-.62,0-1.07-.39-1.23-1.22a3.54,3.54,0,0,1-.85.83,2.24,2.24,0,0,1-1.3.39,1.61,1.61,0,0,1-1.73-1.69c0-1,.95-2.11,3.82-2.46v-.7c0-.95-.42-1.39-1.24-1.39a1.13,1.13,0,0,0-1.26,1.27c-.22,0-.75.06-1.08.12,0,0,0-.12,0-.17,0-1.52,1.11-2.12,2.42-2.12a2.11,2.11,0,0,1,2.31,2.27v2.84c0,.63.08,1.12.54,1.12a.53.53,0,0,0,.37-.16A1.64,1.64,0,0,0,134,285.83Zm-2.29-3c-.94.14-2.69.49-2.69,1.68,0,.63.48.92,1.06.92a2.32,2.32,0,0,0,1.63-1Z" transform="translate(50.26 0)"/><path d="M134.88,278.52c0-.27,0-1.8,0-2a5.3,5.3,0,0,0,1-.22h.18v8.48a10.42,10.42,0,0,0,0,1.41c-.38,0-.82,0-1.24,0,0-.12,0-1.27,0-1.45Z" transform="translate(50.26 0)"/><path d="M138.35,276.72a.72.72,0,0,1,.74.7.74.74,0,0,1-1.48,0A.72.72,0,0,1,138.35,276.72Zm-.59,8.16v-3.51c0-.34,0-1.72,0-1.9a3.78,3.78,0,0,0,1-.24h.19v5.65c0,.74,0,1.18,0,1.35-.38,0-.79,0-1.22,0Z" transform="translate(50.26 0)"/><path d="M144.9,285.65a2.8,2.8,0,0,1-1.76.66c-1.56,0-2.93-1.29-2.93-3.46,0-2.34,1.45-3.68,3.18-3.68a2.9,2.9,0,0,1,1.67.5l.53-.44h.48v8.21c0,.64,0,1.2,0,1.57-.38,0-.81,0-1.24,0,0-.14,0-1.5,0-1.69Zm0-5.11a1.61,1.61,0,0,0-1.29-.55c-1.17,0-2.21,1-2.21,2.72a3.09,3.09,0,0,0,.57,1.92,1.82,1.82,0,0,0,1.49.73,2.55,2.55,0,0,0,1.44-.49Z" transform="translate(50.26 0)"/><path d="M147.76,281.06c0-.79,0-1.56-.07-1.73a8.42,8.42,0,0,0,1-.1h.2v4.66a1.32,1.32,0,0,0,.4,1.07,1.36,1.36,0,0,0,.85.34,2.72,2.72,0,0,0,1.84-1v-3.1c0-.92-.05-1.66-.06-1.88a8.65,8.65,0,0,0,1-.1h.2v5.18a10.4,10.4,0,0,0,.17,1.82c-.37,0-.79,0-1.22,0,0-.14-.1-.61-.12-1.18a3,3,0,0,1-2.28,1.22,2,2,0,0,1-2-2.11Z" transform="translate(50.26 0)"/><path d="M160.66,285.83a1.35,1.35,0,0,1-1,.48c-.61,0-1.06-.39-1.22-1.22a3.43,3.43,0,0,1-.86.83,2.2,2.2,0,0,1-1.3.39,1.61,1.61,0,0,1-1.72-1.69c0-1,.94-2.11,3.82-2.46v-.7c0-.95-.42-1.39-1.24-1.39a1.13,1.13,0,0,0-1.26,1.27c-.22,0-.75.06-1.08.12,0,0,0-.12,0-.17,0-1.52,1.1-2.12,2.42-2.12a2.11,2.11,0,0,1,2.31,2.27v2.84c0,.63.08,1.12.53,1.12a.54.54,0,0,0,.38-.16A1.48,1.48,0,0,0,160.66,285.83Zm-2.29-3c-.94.14-2.69.49-2.69,1.68,0,.63.48.92,1.06.92a2.32,2.32,0,0,0,1.63-1Z" transform="translate(50.26 0)"/><path d="M161.54,281.07a14.93,14.93,0,0,0-.07-1.6,3.88,3.88,0,0,0,1-.24h.2v1.41a3,3,0,0,1,2.39-1.47,1.84,1.84,0,0,1,1.91,1.47,3,3,0,0,1,2.39-1.47,1.88,1.88,0,0,1,2,2V285c0,.69,0,1.05,0,1.27-.37,0-.79,0-1.22,0v-4.74a1.21,1.21,0,0,0-.4-1.06,1.38,1.38,0,0,0-.83-.28,2.63,2.63,0,0,0-1.92,1.17V285a11,11,0,0,0,.06,1.27c-.41,0-.82,0-1.23,0v-4.74a1.21,1.21,0,0,0-.4-1.06,1.36,1.36,0,0,0-.83-.28,1.93,1.93,0,0,0-1.08.37,3.46,3.46,0,0,0-.87.88v3.44c0,.74,0,1.14,0,1.35-.38,0-.78,0-1.21,0Z" transform="translate(50.26 0)"/><path d="M178.32,279.17A2.58,2.58,0,0,1,181,282a8,8,0,0,1-.05.84h-4.56v.2a2.14,2.14,0,0,0,2.14,2.37,3.1,3.1,0,0,0,1.92-.67,3.38,3.38,0,0,0,.38.66,2.79,2.79,0,0,1-1.17.72,4.3,4.3,0,0,1-1.3.23c-1.78,0-3.15-1.2-3.15-3.54C175.24,280.75,176.55,279.17,178.32,279.17ZM180,282c0-.89-.33-2-1.63-2a2,2,0,0,0-1.92,2Z" transform="translate(50.26 0)"/><path d="M182.33,281.07c0-.45-.07-1.38-.07-1.6a3.83,3.83,0,0,0,1-.24h.2v1.43a2,2,0,0,1,1.75-1.49,1.85,1.85,0,0,1,1.07.29,3.42,3.42,0,0,0-.39,1,1.51,1.51,0,0,0-.78-.22c-.67,0-1.17.34-1.65,1.42v3.21c0,.74,0,1.05.05,1.35-.38,0-.79,0-1.22,0Z" transform="translate(50.26 0)"/><path d="M192.54,285.83a1.32,1.32,0,0,1-1,.48c-.61,0-1.06-.39-1.22-1.22a3.43,3.43,0,0,1-.86.83,2.2,2.2,0,0,1-1.3.39,1.62,1.62,0,0,1-1.73-1.69c0-1,.95-2.11,3.83-2.46v-.7c0-.95-.42-1.39-1.24-1.39a1.13,1.13,0,0,0-1.26,1.27c-.22,0-.75.06-1.08.12,0,0,0-.12,0-.17,0-1.52,1.1-2.12,2.42-2.12a2.11,2.11,0,0,1,2.31,2.27v2.84c0,.63.08,1.12.53,1.12a.54.54,0,0,0,.38-.16A1.65,1.65,0,0,0,192.54,285.83Zm-2.28-3c-.94.14-2.69.49-2.69,1.68,0,.63.48.92,1.06.92a2.32,2.32,0,0,0,1.63-1Z" transform="translate(50.26 0)"/><path d="M193.47,280.16l-1-.13,0-.6,1-.2.09-1.38a4.46,4.46,0,0,0,.91-.22h.15v1.6h1.94a2.49,2.49,0,0,0-.05.53c0,.15,0,.28,0,.4h-1.88v3.93c0,1,.39,1.23,1,1.23a1.71,1.71,0,0,0,1-.34,2.41,2.41,0,0,0,.26.77,2.64,2.64,0,0,1-1.55.56c-1.09,0-1.84-.68-1.84-2.07Z" transform="translate(50.26 0)"/><path d="M201.07,279.24l1.8,5.29a4.24,4.24,0,0,1,.18.64,6.58,6.58,0,0,1,.19-.64l.45-1.3.57-1.73.51-1.53.23-.73h1.18l-2.61,7h-.3l-.79,0-.52-1.37-.86-2.25-.85-2.19c-.24-.68-.4-1.08-.45-1.21Z" transform="translate(50.26 0)"/><path d="M209.54,286.31c-1.93,0-3.07-1.53-3.07-3.56s1.3-3.58,3.11-3.58,3.06,1.45,3.06,3.54S211.36,286.31,209.54,286.31Zm0-6.23c-1.21,0-1.92,1.13-1.92,2.63,0,1.72.81,2.65,1.92,2.65a1.62,1.62,0,0,0,1.36-.71,3,3,0,0,0,.56-1.94C211.47,281.15,210.75,280.08,209.55,280.08Z" transform="translate(50.26 0)"/><path d="M213.92,278.52c0-.27,0-1.8,0-2a5.3,5.3,0,0,0,1-.22h.18v8.48a10.42,10.42,0,0,0,0,1.41c-.38,0-.82,0-1.24,0,0-.12,0-1.27,0-1.45Z" transform="translate(50.26 0)"/><path d="M216.79,281.06c0-.79,0-1.56-.06-1.73a8.78,8.78,0,0,0,1-.1H218v4.66a1.32,1.32,0,0,0,.4,1.07,1.36,1.36,0,0,0,.85.34,2.72,2.72,0,0,0,1.84-1v-3.1c0-.92-.05-1.66-.06-1.88a8.65,8.65,0,0,0,1-.1h.2v5.18a10.4,10.4,0,0,0,.17,1.82c-.37,0-.79,0-1.22,0,0-.14-.1-.61-.12-1.18a3,3,0,0,1-2.28,1.22,2,2,0,0,1-2-2.11Z" transform="translate(50.26 0)"/><path d="M224.25,280.16l-1-.13v-.6l1-.2.09-1.38a4.16,4.16,0,0,0,.91-.22h.16v1.6h1.94a2.53,2.53,0,0,0-.06.53,2.49,2.49,0,0,0,0,.4h-1.89v3.93c0,1,.39,1.23,1,1.23a1.73,1.73,0,0,0,1-.34,2.41,2.41,0,0,0,.26.77,2.64,2.64,0,0,1-1.55.56c-1.09,0-1.85-.68-1.85-2.07Z" transform="translate(50.26 0)"/><path d="M228.71,281.38a18.91,18.91,0,0,0-.08-1.91,5.06,5.06,0,0,0,1.06-.24h.18a5.34,5.34,0,0,0,0,.57,2.84,2.84,0,0,1,1.77-.63c1.57,0,2.92,1.24,2.92,3.42,0,2.33-1.46,3.72-3.18,3.72a3.08,3.08,0,0,1-1.51-.4v1.92a10.59,10.59,0,0,0,0,1.18c-.38,0-.8,0-1.22,0,0-.17,0-2.1,0-2.27Zm4.66,1.36c0-1.6-.85-2.62-2.05-2.62a2.45,2.45,0,0,0-1.45.44v4.36a1.62,1.62,0,0,0,1.3.56C232.34,285.48,233.37,284.44,233.37,282.74Z" transform="translate(50.26 0)"/><path d="M241.5,285.83a1.32,1.32,0,0,1-1,.48c-.61,0-1.06-.39-1.22-1.22a3.61,3.61,0,0,1-.86.83,2.22,2.22,0,0,1-1.3.39,1.62,1.62,0,0,1-1.73-1.69c0-1,1-2.11,3.82-2.46v-.7c0-.95-.41-1.39-1.23-1.39a1.13,1.13,0,0,0-1.26,1.27c-.22,0-.76.06-1.08.12,0,0,0-.12,0-.17,0-1.52,1.1-2.12,2.41-2.12a2.11,2.11,0,0,1,2.32,2.27v2.84c0,.63.08,1.12.53,1.12a.56.56,0,0,0,.38-.16A1.65,1.65,0,0,0,241.5,285.83Zm-2.29-3c-.93.14-2.69.49-2.69,1.68,0,.63.48.92,1.07.92a2.28,2.28,0,0,0,1.62-1Z" transform="translate(50.26 0)"/><path d="M242.43,280.16l-1-.13v-.6l1-.2.09-1.38a4.46,4.46,0,0,0,.91-.22h.15v1.6h1.94a2.49,2.49,0,0,0-.05.53c0,.15,0,.28,0,.4H243.6v3.93c0,1,.39,1.23,1,1.23a1.73,1.73,0,0,0,1-.34,2.41,2.41,0,0,0,.26.77,2.64,2.64,0,0,1-1.55.56c-1.09,0-1.84-.68-1.84-2.07Z" transform="translate(50.26 0)"/><path d="M246.61,285.58a.74.74,0,1,1,.74.72A.72.72,0,0,1,246.61,285.58Z" transform="translate(50.26 0)"/><path d="M252.22,277.11c.42,0,.8,0,1.18,0v5.63c0,1.65.71,2.57,2.07,2.57s2.06-.92,2.06-2.63v-5.53a9.47,9.47,0,0,0,1.19,0v5.6c0,2.38-1.25,3.64-3.28,3.64s-3.22-1.12-3.22-3.47Z" transform="translate(50.26 0)"/><path d="M260.77,280.16l-1-.13,0-.6,1-.2.09-1.38a4.31,4.31,0,0,0,.91-.22h.16v1.6h1.93a2.49,2.49,0,0,0-.05.53c0,.15,0,.28,0,.4h-1.88v3.93c0,1,.39,1.23,1,1.23a1.71,1.71,0,0,0,1-.34,2.41,2.41,0,0,0,.26.77,2.61,2.61,0,0,1-1.54.56c-1.1,0-1.85-.68-1.85-2.07Z" transform="translate(50.26 0)"/><path d="M272.43,282l-.31-1.26c0,.18-.18.85-.29,1.28l-1.23,4.18-1.13,0-2.29-7,.65,0,.62,0,1.41,4.95c0,.13.06.3.1.5a3,3,0,0,0,.08.33s.06-.27.19-.79l.45-1.77.49-1.93c.17-.64.3-1.07.39-1.3h1.12c0,.1.11.36.23.79s.27.88.42,1.4.3,1,.44,1.56.26.94.32,1.24l.19.8s.05-.32.19-.84l1.38-4.95.61,0,.61,0-2.27,7-1.11,0Z" transform="translate(50.26 0)"/><path d="M278.76,276.72a.72.72,0,0,1,.74.7.74.74,0,0,1-1.48,0A.72.72,0,0,1,278.76,276.72Zm-.58,8.16v-3.51c0-.34,0-1.72-.06-1.9a3.7,3.7,0,0,0,1-.24h.2v5.65c0,.74,0,1.18,0,1.35-.37,0-.79,0-1.22,0Z" transform="translate(50.26 0)"/><path d="M282.6,285.39a2.14,2.14,0,0,0,1-.25.9.9,0,0,0,.47-.87c0-.57-.39-.75-1.47-1.17a6.57,6.57,0,0,1-1.38-.74,1.56,1.56,0,0,1-.56-1.35c0-1.14.9-1.84,2.24-1.84a4.14,4.14,0,0,1,2,.46,1.87,1.87,0,0,0-.28.71l-.09.06a3.64,3.64,0,0,0-1.48-.3c-.66,0-1.27.2-1.27.88s.49.9,1.32,1.17a4.16,4.16,0,0,1,1.51.81,1.72,1.72,0,0,1,.45,1.3c0,1.41-1.2,2.05-2.47,2.05a3.57,3.57,0,0,1-2-.58,2.88,2.88,0,0,0,.28-.77A3.13,3.13,0,0,0,282.6,285.39Z" transform="translate(50.26 0)"/><path d="M287,276.72a.72.72,0,0,1,.74.7.74.74,0,0,1-1.48,0A.73.73,0,0,1,287,276.72Zm-.58,8.16v-3.51c0-.34,0-1.72-.05-1.9a3.71,3.71,0,0,0,1-.24h.2v5.65c0,.74,0,1.18,0,1.35-.38,0-.8,0-1.22,0Z" transform="translate(50.26 0)"/><path d="M90.42,294.77a2.58,2.58,0,0,1,2.7,2.79,6,6,0,0,1-.05.84H88.52v.2A2.13,2.13,0,0,0,90.65,301a3.12,3.12,0,0,0,1.93-.67A4,4,0,0,0,93,301a2.79,2.79,0,0,1-1.17.72,4.25,4.25,0,0,1-1.3.23c-1.78,0-3.14-1.2-3.14-3.54C87.34,296.35,88.65,294.77,90.42,294.77Zm1.66,2.86c0-.89-.32-2-1.62-2a2,2,0,0,0-1.93,2Z" transform="translate(50.26 0)"/><path d="M94.42,296.67c0-.45,0-1.58-.06-1.6a3.74,3.74,0,0,0,1-.24h.19v1.41A3,3,0,0,1,98,294.77a1.87,1.87,0,0,1,2,2v3.76c0,.69,0,1,0,1.27-.4,0-.82,0-1.22,0v-4.74a1.19,1.19,0,0,0-.41-1.06,1.36,1.36,0,0,0-.83-.28,1.87,1.87,0,0,0-1.08.38,3.27,3.27,0,0,0-.87.87v3.44c0,.74,0,1.11,0,1.35-.38,0-.78,0-1.21,0Z" transform="translate(50.26 0)"/><path d="M102.25,292.32a.74.74,0,0,1,.74.7.74.74,0,0,1-1.48,0A.73.73,0,0,1,102.25,292.32Zm-.59,8.16V297c0-.34,0-1.72,0-1.9a3.78,3.78,0,0,0,1-.24h.19v5.65c0,.74,0,1.18,0,1.35-.38,0-.79,0-1.22,0Z" transform="translate(50.26 0)"/><path d="M104.56,296.67a15.54,15.54,0,0,0-.06-1.6,4.07,4.07,0,0,0,1-.24h.19v1.41a3,3,0,0,1,2.39-1.47,1.84,1.84,0,0,1,1.91,1.47,3,3,0,0,1,2.4-1.47,1.88,1.88,0,0,1,2,2v3.76c0,.69,0,1.05,0,1.27-.37,0-.79,0-1.22,0v-4.74a1.21,1.21,0,0,0-.4-1.06,1.36,1.36,0,0,0-.83-.28,2.59,2.59,0,0,0-1.91,1.17v3.6a12.08,12.08,0,0,0,0,1.27c-.4,0-.82,0-1.22,0v-4.74a1.19,1.19,0,0,0-.41-1.06,1.36,1.36,0,0,0-.83-.28,1.87,1.87,0,0,0-1.08.38,3.27,3.27,0,0,0-.87.87v3.44c0,.74,0,1.14,0,1.35-.38,0-.78,0-1.21,0Z" transform="translate(50.26 0)"/><path d="M124.36,301.43a1.33,1.33,0,0,1-1,.48c-.61,0-1.07-.39-1.22-1.22a3.61,3.61,0,0,1-.86.83,2.24,2.24,0,0,1-1.3.39,1.62,1.62,0,0,1-1.73-1.69c0-1,1-2.1,3.82-2.46v-.7c0-.95-.41-1.39-1.23-1.39a1.13,1.13,0,0,0-1.26,1.27c-.23,0-.76.06-1.08.12,0-.05,0-.12,0-.17,0-1.52,1.11-2.12,2.42-2.12a2.11,2.11,0,0,1,2.32,2.27v2.84c0,.63.07,1.12.53,1.12a.56.56,0,0,0,.38-.16A1.65,1.65,0,0,0,124.36,301.43Zm-2.29-3c-.93.14-2.69.49-2.69,1.68,0,.63.48.92,1.07.92a2.25,2.25,0,0,0,1.62-1Z" transform="translate(50.26 0)"/><path d="M124.66,298.45c0-2.34,1.46-3.68,3.18-3.68a2.86,2.86,0,0,1,1.51.39c0-.37,0-2.82,0-3a8.27,8.27,0,0,0,1-.22h.18v8.18a8.71,8.71,0,0,0,.18,1.71c-.37,0-.78,0-1.2,0a2.72,2.72,0,0,1-.1-.66,2.77,2.77,0,0,1-1.8.7C126,301.91,124.66,300.62,124.66,298.45Zm3.41-2.86c-1.17,0-2.22,1-2.22,2.72a3,3,0,0,0,.58,1.92,1.79,1.79,0,0,0,1.48.73,2.35,2.35,0,0,0,1.46-.5c0-.15,0-1.46,0-4.32A1.59,1.59,0,0,0,128.07,295.59Z" transform="translate(50.26 0)"/><path d="M134.85,296.67a15.54,15.54,0,0,0-.06-1.6,4.07,4.07,0,0,0,1-.24H136v1.41a3,3,0,0,1,2.39-1.47,1.84,1.84,0,0,1,1.91,1.47,3,3,0,0,1,2.4-1.47,1.88,1.88,0,0,1,2,2v3.76c0,.69,0,1.05,0,1.27-.37,0-.79,0-1.22,0v-4.74a1.21,1.21,0,0,0-.4-1.06,1.36,1.36,0,0,0-.83-.28,2.59,2.59,0,0,0-1.91,1.17v3.6c0,.69,0,1.1.05,1.27-.4,0-.82,0-1.22,0v-4.74a1.19,1.19,0,0,0-.41-1.06,1.36,1.36,0,0,0-.83-.28,1.87,1.87,0,0,0-1.08.38,3.27,3.27,0,0,0-.87.87v3.44c0,.74,0,1.14,0,1.35-.38,0-.78,0-1.21,0Z" transform="translate(50.26 0)"/><path d="M147,292.32a.73.73,0,0,1,.74.7.74.74,0,0,1-1.48,0A.73.73,0,0,1,147,292.32Zm-.58,8.16V297c0-.34,0-1.72-.06-1.9a3.7,3.7,0,0,0,1-.24h.19v5.65c0,.74,0,1.18,0,1.35-.37,0-.79,0-1.22,0Z" transform="translate(50.26 0)"/><path d="M149.29,296.67c0-.45,0-1.58-.06-1.6a3.74,3.74,0,0,0,1-.24h.19v1.41a3,3,0,0,1,2.4-1.47,1.87,1.87,0,0,1,2,2v3.76c0,.69,0,1,.05,1.27-.4,0-.82,0-1.22,0v-4.74a1.21,1.21,0,0,0-.4-1.06,1.39,1.39,0,0,0-.84-.28,1.89,1.89,0,0,0-1.08.38,3.43,3.43,0,0,0-.87.87v3.44c0,.74,0,1.11,0,1.35-.37,0-.78,0-1.21,0Z" transform="translate(50.26 0)"/><path d="M157.12,292.32a.73.73,0,0,1,.74.7.74.74,0,0,1-1.48,0A.73.73,0,0,1,157.12,292.32Zm-.59,8.16V297c0-.34,0-1.72-.05-1.9a3.7,3.7,0,0,0,1-.24h.19v5.65c0,.74,0,1.18,0,1.35-.37,0-.79,0-1.22,0Z" transform="translate(50.26 0)"/><path d="M159.43,296.67a15.54,15.54,0,0,0-.06-1.6,4,4,0,0,0,1-.24h.19v1.41a3,3,0,0,1,2.4-1.47,1.85,1.85,0,0,1,1.91,1.47,3,3,0,0,1,2.39-1.47,1.88,1.88,0,0,1,2,2v3.76c0,.69,0,1.05,0,1.27-.38,0-.8,0-1.23,0v-4.74a1.18,1.18,0,0,0-.4-1.06,1.36,1.36,0,0,0-.83-.28A2.59,2.59,0,0,0,165,297v3.6c0,.69,0,1.1,0,1.27-.4,0-.82,0-1.22,0v-4.74a1.21,1.21,0,0,0-.4-1.06,1.39,1.39,0,0,0-.84-.28,1.89,1.89,0,0,0-1.08.38,3.27,3.27,0,0,0-.87.87v3.44c0,.74,0,1.14,0,1.35-.37,0-.78,0-1.21,0Z" transform="translate(50.26 0)"/><path d="M174.16,294.84l1.8,5.29a4.24,4.24,0,0,1,.18.64,6.58,6.58,0,0,1,.19-.64l.45-1.3.57-1.73.5-1.53.24-.73c.4,0,.81,0,1.18,0l-2.61,7h-.3l-.79,0-.52-1.37-.86-2.24-.85-2.2c-.24-.68-.4-1.08-.45-1.21C173.32,294.85,173.76,294.85,174.16,294.84Z" transform="translate(50.26 0)"/><path d="M182.64,294.77a2.58,2.58,0,0,1,2.7,2.79,6,6,0,0,1-.05.84h-4.55v.2a2.13,2.13,0,0,0,2.13,2.37,3.12,3.12,0,0,0,1.93-.67,4,4,0,0,0,.37.66,2.79,2.79,0,0,1-1.17.72,4.2,4.2,0,0,1-1.3.23c-1.78,0-3.14-1.2-3.14-3.54C179.56,296.35,180.87,294.77,182.64,294.77Zm1.66,2.86c0-.89-.32-2-1.62-2a2,2,0,0,0-1.93,2Z" transform="translate(50.26 0)"/><path d="M186.64,296.67c0-.45,0-1.58-.06-1.6a3.74,3.74,0,0,0,1-.24h.19v1.41a3,3,0,0,1,2.4-1.47,1.87,1.87,0,0,1,2,2v3.76c0,.69,0,1,.05,1.27-.4,0-.82,0-1.22,0v-4.74a1.21,1.21,0,0,0-.4-1.06,1.41,1.41,0,0,0-.84-.28,1.89,1.89,0,0,0-1.08.38,3.27,3.27,0,0,0-.87.87v3.44c0,.74,0,1.11,0,1.35-.37,0-.78,0-1.21,0Z" transform="translate(50.26 0)"/><path d="M194.47,292.32a.73.73,0,0,1,.74.7.74.74,0,0,1-1.48,0A.73.73,0,0,1,194.47,292.32Zm-.59,8.16V297c0-.34,0-1.72,0-1.9a3.7,3.7,0,0,0,1-.24h.19v5.65c0,.74,0,1.18,0,1.35-.37,0-.79,0-1.22,0Z" transform="translate(50.26 0)"/><path d="M202.42,301.43a1.32,1.32,0,0,1-1,.48c-.61,0-1.06-.39-1.22-1.22a3.43,3.43,0,0,1-.86.83,2.2,2.2,0,0,1-1.3.39,1.62,1.62,0,0,1-1.73-1.69c0-1,.95-2.1,3.83-2.46v-.7c0-.95-.42-1.39-1.24-1.39a1.13,1.13,0,0,0-1.26,1.27c-.22,0-.75.06-1.08.12,0-.05,0-.12,0-.17,0-1.52,1.1-2.12,2.42-2.12a2.11,2.11,0,0,1,2.31,2.27v2.84c0,.63.08,1.12.53,1.12a.54.54,0,0,0,.38-.16A1.65,1.65,0,0,0,202.42,301.43Zm-2.28-3c-.94.14-2.69.49-2.69,1.68,0,.63.48.92,1.06.92a2.29,2.29,0,0,0,1.63-1Z" transform="translate(50.26 0)"/><path d="M203.31,296.67a14.93,14.93,0,0,0-.07-1.6,4,4,0,0,0,1-.24h.2v1.41a3,3,0,0,1,2.39-1.47,1.85,1.85,0,0,1,1.91,1.47,3,3,0,0,1,2.39-1.47,1.88,1.88,0,0,1,2,2v3.76c0,.69,0,1.05,0,1.27-.38,0-.79,0-1.22,0v-4.74a1.21,1.21,0,0,0-.4-1.06,1.39,1.39,0,0,0-.84-.28,2.63,2.63,0,0,0-1.91,1.17v3.6a11,11,0,0,0,.06,1.27c-.41,0-.82,0-1.23,0v-4.74a1.21,1.21,0,0,0-.4-1.06,1.36,1.36,0,0,0-.83-.28,1.84,1.84,0,0,0-1.08.38,3.27,3.27,0,0,0-.87.87v3.44c0,.74,0,1.14,0,1.35-.38,0-.78,0-1.21,0Z" transform="translate(50.26 0)"/><path d="M214.62,302.91v-.08a1,1,0,0,0,.82-1c-.52,0-.85-.25-.85-.66a.72.72,0,0,1,.77-.74c.53,0,.83.37.83,1.09a1.84,1.84,0,0,1-1.23,1.73A2.05,2.05,0,0,0,214.62,302.91Z" transform="translate(50.26 0)"/><path d="M224.45,301.25a2.8,2.8,0,0,1-1.76.66c-1.56,0-2.94-1.29-2.94-3.46,0-2.34,1.46-3.68,3.19-3.68a2.87,2.87,0,0,1,1.66.5l.54-.44h.48V303c0,.64,0,1.2,0,1.58-.37,0-.8,0-1.23,0,0-.14,0-1.5,0-1.69Zm0-5.11a1.62,1.62,0,0,0-1.29-.55c-1.17,0-2.21,1-2.21,2.72a3.09,3.09,0,0,0,.57,1.92A1.81,1.81,0,0,0,223,301a2.55,2.55,0,0,0,1.45-.49Z" transform="translate(50.26 0)"/><path d="M227.31,296.66c0-.79-.06-1.56-.07-1.73a8.6,8.6,0,0,0,1-.1h.2v4.66a1.32,1.32,0,0,0,.4,1.07,1.33,1.33,0,0,0,.85.34,2.72,2.72,0,0,0,1.84-1v-3.1c0-.92,0-1.66-.06-1.88a8.52,8.52,0,0,0,1-.1h.21V300a10.4,10.4,0,0,0,.17,1.82c-.38,0-.79,0-1.22,0a10,10,0,0,1-.12-1.18,3,3,0,0,1-2.29,1.22,2,2,0,0,1-2-2.11Z" transform="translate(50.26 0)"/><path d="M235.13,292.32a.73.73,0,0,1,.74.7.74.74,0,0,1-1.48,0A.74.74,0,0,1,235.13,292.32Zm-.58,8.16V297c0-.34,0-1.72-.05-1.9a3.71,3.71,0,0,0,1-.24h.2v5.65c0,.74,0,1.18,0,1.35-.38,0-.8,0-1.22,0Z" transform="translate(50.26 0)"/><path d="M239,301a2.14,2.14,0,0,0,1.05-.25.9.9,0,0,0,.47-.87c0-.57-.39-.75-1.47-1.17a6.57,6.57,0,0,1-1.38-.74,1.55,1.55,0,0,1-.56-1.35c0-1.13.9-1.84,2.24-1.84a4.14,4.14,0,0,1,2,.46,1.94,1.94,0,0,0-.28.71l-.09.06a3.64,3.64,0,0,0-1.48-.3c-.66,0-1.27.21-1.27.88s.49.9,1.32,1.17a4.07,4.07,0,0,1,1.51.81,1.76,1.76,0,0,1,.46,1.3c0,1.41-1.21,2.05-2.47,2.05a3.58,3.58,0,0,1-2-.58,2.88,2.88,0,0,0,.28-.77A3.13,3.13,0,0,0,239,301Z" transform="translate(50.26 0)"/><path d="M245.36,296.67c0-.45-.05-1.58-.06-1.6a3.74,3.74,0,0,0,1-.24h.19v1.41a3,3,0,0,1,2.4-1.47,1.87,1.87,0,0,1,2,2v3.76c0,.69,0,1,.05,1.27-.4,0-.82,0-1.22,0v-4.74a1.21,1.21,0,0,0-.4-1.06,1.39,1.39,0,0,0-.84-.28,1.89,1.89,0,0,0-1.08.38,3.27,3.27,0,0,0-.87.87v3.44c0,.74,0,1.11,0,1.35-.37,0-.78,0-1.21,0Z" transform="translate(50.26 0)"/><path d="M255.23,301.91c-1.92,0-3.07-1.53-3.07-3.56s1.3-3.58,3.11-3.58,3.07,1.45,3.07,3.54S257.05,301.91,255.23,301.91Zm0-6.23c-1.21,0-1.92,1.13-1.92,2.63,0,1.72.82,2.65,1.92,2.65a1.65,1.65,0,0,0,1.37-.71,3,3,0,0,0,.56-1.94C257.17,296.75,256.44,295.68,255.24,295.68Z" transform="translate(50.26 0)"/><path d="M261.15,301a2.14,2.14,0,0,0,1.05-.25.9.9,0,0,0,.47-.87c0-.57-.39-.75-1.47-1.17a6.57,6.57,0,0,1-1.38-.74,1.55,1.55,0,0,1-.56-1.35c0-1.13.9-1.84,2.24-1.84a4.14,4.14,0,0,1,2,.46,1.94,1.94,0,0,0-.28.71l-.09.06a3.64,3.64,0,0,0-1.48-.3c-.66,0-1.27.21-1.27.88s.49.9,1.32,1.17a4.16,4.16,0,0,1,1.51.81,1.75,1.75,0,0,1,.45,1.3c0,1.41-1.2,2.05-2.47,2.05a3.57,3.57,0,0,1-2-.58,2.88,2.88,0,0,0,.28-.77A3.13,3.13,0,0,0,261.15,301Z" transform="translate(50.26 0)"/><path d="M265.15,295.76l-1-.13,0-.6,1-.2.09-1.38a4.16,4.16,0,0,0,.91-.22h.16v1.6h1.93a2.49,2.49,0,0,0-.05.53c0,.15,0,.28,0,.4h-1.88v3.93c0,.95.39,1.23,1,1.23a1.71,1.71,0,0,0,1-.34,2.68,2.68,0,0,0,.26.77,2.61,2.61,0,0,1-1.54.56c-1.1,0-1.85-.67-1.85-2.07Z" transform="translate(50.26 0)"/><path d="M269.58,296.67c0-.45-.06-1.38-.06-1.6a4,4,0,0,0,1-.24h.19v1.43a2,2,0,0,1,1.76-1.49,1.82,1.82,0,0,1,1.06.29,3.74,3.74,0,0,0-.39,1,1.49,1.49,0,0,0-.78-.22c-.66,0-1.17.34-1.65,1.42v3.21c0,.74,0,1,.05,1.35-.37,0-.79,0-1.22,0Z" transform="translate(50.26 0)"/><path d="M274.28,296.66c0-.79-.06-1.56-.07-1.73a8.78,8.78,0,0,0,1-.1h.2v4.66a1.27,1.27,0,0,0,1.24,1.41,2.73,2.73,0,0,0,1.85-1v-3.1c0-.92-.05-1.66-.07-1.88a8.47,8.47,0,0,0,1-.1h.21V300a9.49,9.49,0,0,0,.17,1.82c-.38,0-.79,0-1.22,0a8.15,8.15,0,0,1-.12-1.18,3.08,3.08,0,0,1-2.29,1.22,2,2,0,0,1-2-2.11Z" transform="translate(50.26 0)"/><path d="M281.07,298.45c0-2.34,1.46-3.68,3.19-3.68a2.91,2.91,0,0,1,1.51.39c0-.37,0-2.82,0-3a9.12,9.12,0,0,0,1-.22h.18v8.18a8,8,0,0,0,.18,1.71c-.38,0-.78,0-1.21,0a3,3,0,0,1-.09-.66,2.8,2.8,0,0,1-1.81.7C282.45,301.91,281.07,300.62,281.07,298.45Zm3.41-2.86c-1.17,0-2.21,1-2.21,2.72a3.09,3.09,0,0,0,.57,1.92,1.81,1.81,0,0,0,1.48.73,2.35,2.35,0,0,0,1.46-.5c0-.15,0-1.46,0-4.32A1.62,1.62,0,0,0,284.48,295.59Z" transform="translate(50.26 0)"/><path d="M156.53,310.37a2.58,2.58,0,0,1,2.71,2.79,6,6,0,0,1-.05.84h-4.55v.2a2.13,2.13,0,0,0,2.13,2.37,3.08,3.08,0,0,0,1.92-.67,4,4,0,0,0,.38.66,2.79,2.79,0,0,1-1.17.72,4.3,4.3,0,0,1-1.3.23c-1.78,0-3.15-1.2-3.15-3.54C153.45,312,154.77,310.37,156.53,310.37Zm1.67,2.86c0-.89-.33-2-1.63-2a2,2,0,0,0-1.92,2Z" transform="translate(50.26 0)"/><path d="M159.93,310.45h1.27c.43.72,1,1.54,1.74,2.67.77-1.13,1.33-1.95,1.76-2.67h1.22c-.84,1.25-1.61,2.35-2.33,3.38.64.95,1.62,2.46,2.45,3.6a10.12,10.12,0,0,0-1.25.05c-.07-.14-.51-.79-.92-1.43l-.93-1.41-1.82,2.81c-.4,0-1,0-1.28,0,.8-1.16,1.75-2.59,2.41-3.6C161.49,312.78,160.77,311.7,159.93,310.45Z" transform="translate(50.26 0)"/><path d="M169.47,310.37a2.58,2.58,0,0,1,2.7,2.79,6,6,0,0,1,0,.84h-4.55v.2a2.13,2.13,0,0,0,2.13,2.37,3.12,3.12,0,0,0,1.93-.67,4,4,0,0,0,.37.66,2.79,2.79,0,0,1-1.17.72,4.2,4.2,0,0,1-1.3.23c-1.78,0-3.14-1.2-3.14-3.54C166.39,312,167.7,310.37,169.47,310.37Zm1.66,2.86c0-.89-.32-2-1.62-2a2,2,0,0,0-1.93,2Z" transform="translate(50.26 0)"/><path d="M173.47,312.27c0-.45-.06-1.38-.06-1.6a4,4,0,0,0,1-.24h.19v1.43a2,2,0,0,1,1.76-1.49,1.82,1.82,0,0,1,1.06.29,3.74,3.74,0,0,0-.39,1,1.49,1.49,0,0,0-.78-.22c-.66,0-1.17.34-1.65,1.42v3.21c0,.74,0,1.05.06,1.35-.38,0-.8,0-1.23,0Z" transform="translate(50.26 0)"/><path d="M180.64,310.37a2.61,2.61,0,0,1,1.66.52,1.81,1.81,0,0,1,.68,1.56v.12h-.26a3.3,3.3,0,0,0-.77.07v-.2a1.16,1.16,0,0,0-1.31-1.17,1.64,1.64,0,0,0-1.38.75,3.17,3.17,0,0,0-.53,1.86c0,1.52.66,2.69,2.14,2.69a3.23,3.23,0,0,0,1.86-.59,2.61,2.61,0,0,0,.36.66,3.6,3.6,0,0,1-2.38.87c-1.8,0-3.14-1.27-3.14-3.54C177.57,312,178.83,310.37,180.64,310.37Z" transform="translate(50.26 0)"/><path d="M184.85,307.92a.72.72,0,0,1,.74.7.74.74,0,0,1-1.48,0A.72.72,0,0,1,184.85,307.92Zm-.59,8.16v-3.51c0-.34,0-1.72,0-1.9a3.7,3.7,0,0,0,1-.24h.19v5.65c0,.74,0,1.18,0,1.35-.37,0-.79,0-1.22,0Z" transform="translate(50.26 0)"/><path d="M190,311.36l-1-.13v-.6l1-.2.09-1.38a4.16,4.16,0,0,0,.91-.22h.16v1.6h1.93a3.38,3.38,0,0,0-.05.53,2.49,2.49,0,0,0,0,.4h-1.89v3.93c0,.95.39,1.23,1,1.23a1.7,1.7,0,0,0,1-.34,3,3,0,0,0,.26.77,2.59,2.59,0,0,1-1.54.56c-1.1,0-1.85-.68-1.85-2.07Z" transform="translate(50.26 0)"/><path d="M200.05,317a1.35,1.35,0,0,1-1,.48c-.61,0-1.06-.39-1.22-1.22a3.43,3.43,0,0,1-.86.83,2.2,2.2,0,0,1-1.3.39,1.61,1.61,0,0,1-1.72-1.69c0-1,.94-2.11,3.82-2.46v-.7c0-1-.42-1.39-1.24-1.39a1.13,1.13,0,0,0-1.26,1.27c-.22,0-.75.06-1.08.12,0-.05,0-.12,0-.17,0-1.52,1.1-2.12,2.42-2.12a2.11,2.11,0,0,1,2.31,2.27v2.84c0,.63.08,1.12.53,1.12a.54.54,0,0,0,.38-.16A1.48,1.48,0,0,0,200.05,317Zm-2.29-3c-.94.14-2.69.49-2.69,1.68,0,.63.48.92,1.06.92a2.32,2.32,0,0,0,1.63-1Z" transform="translate(50.26 0)"/><path d="M201,311.36l-1-.13,0-.6,1-.2.09-1.38a4.46,4.46,0,0,0,.91-.22h.16v1.6h1.93a2.49,2.49,0,0,0-.05.53c0,.15,0,.28,0,.4h-1.88v3.93c0,.95.39,1.23,1,1.23a1.71,1.71,0,0,0,1-.34,2.41,2.41,0,0,0,.26.77,2.61,2.61,0,0,1-1.55.56c-1.09,0-1.84-.68-1.84-2.07Z" transform="translate(50.26 0)"/><path d="M206,307.92a.72.72,0,0,1,.74.7.74.74,0,0,1-1.48,0A.73.73,0,0,1,206,307.92Zm-.58,8.16v-3.51c0-.34,0-1.72,0-1.9a3.71,3.71,0,0,0,1-.24h.2v5.65c0,.74,0,1.18,0,1.35-.38,0-.8,0-1.22,0Z" transform="translate(50.26 0)"/><path d="M210.9,317.51c-1.92,0-3.07-1.53-3.07-3.56s1.3-3.58,3.11-3.58,3.07,1.45,3.07,3.54S212.72,317.51,210.9,317.51Zm0-6.23c-1.21,0-1.92,1.13-1.92,2.63,0,1.72.82,2.65,1.92,2.65a1.65,1.65,0,0,0,1.37-.71,3,3,0,0,0,.56-1.94C212.84,312.35,212.11,311.28,210.91,311.28Z" transform="translate(50.26 0)"/><path d="M215.29,312.27c0-.45,0-1.58-.06-1.6a3.74,3.74,0,0,0,1-.24h.19v1.41a3,3,0,0,1,2.4-1.47,1.87,1.87,0,0,1,2,2v3.76c0,.69,0,1,.05,1.27-.4,0-.82,0-1.22,0v-4.74a1.21,1.21,0,0,0-.4-1.06,1.39,1.39,0,0,0-.84-.28,1.9,1.9,0,0,0-1.07.37,3.5,3.5,0,0,0-.88.88v3.44c0,.74,0,1.11,0,1.35-.37,0-.78,0-1.21,0Z" transform="translate(50.26 0)"/><image width="1747" height="1081" transform="translate(143.25 372.59) scale(0.12)" xlink:href="../../../../../Downloads/Recurso%201.png"/><path d="M78.67,367.24a2.5,2.5,0,0,0-1.2,1.89,1.36,1.36,0,0,0,2.72.13,1.48,1.48,0,0,0,0-.21c.11,0,.28,0,.45,0s.44,0,.56,0v.26a2.22,2.22,0,0,1-2.43,2.09,2.13,2.13,0,0,1-2.4-2.23,3.07,3.07,0,0,1,1.37-2.34l.81-.71a1,1,0,0,0,.4-.76,1.58,1.58,0,0,0-.32-.85h.76a1.22,1.22,0,0,1,.5,1C79.88,366.26,79.28,366.74,78.67,367.24Zm1.08-4.4a.72.72,0,0,1-.76.7.71.71,0,1,1,0-1.42A.73.73,0,0,1,79.75,362.84Z" transform="translate(50.26 0)"/><path d="M85.57,360.5a2.45,2.45,0,0,1,2.52,1.69,4.3,4.3,0,0,0-.59.69h-.06a1.69,1.69,0,0,0-1.83-1.3,2.36,2.36,0,0,0-2,1,4.18,4.18,0,0,0-.76,2.64,4,4,0,0,0,.79,2.59,2.66,2.66,0,0,0,2.15.95,3.85,3.85,0,0,0,2.08-.65,2.73,2.73,0,0,0,.31.91,4.49,4.49,0,0,1-2.52.78,3.77,3.77,0,0,1-2.94-1.2,4.74,4.74,0,0,1-1.09-3.31C81.66,362.46,83.17,360.5,85.57,360.5Z" transform="translate(50.26 0)"/><path d="M92,369.78c-1.92,0-3.06-1.53-3.06-3.56s1.3-3.58,3.1-3.58,3.07,1.44,3.07,3.54S93.81,369.78,92,369.78Zm0-6.23c-1.21,0-1.93,1.13-1.93,2.63,0,1.71.82,2.65,1.93,2.65a1.64,1.64,0,0,0,1.36-.71,3,3,0,0,0,.56-1.94C93.93,364.62,93.2,363.55,92,363.55Z" transform="translate(50.26 0)"/><path d="M96.39,364.54a14.93,14.93,0,0,0-.07-1.6,3.61,3.61,0,0,0,1-.25h.2v1.42a3,3,0,0,1,2.39-1.47,1.85,1.85,0,0,1,1.91,1.47,3,3,0,0,1,2.39-1.47,1.88,1.88,0,0,1,2,2v3.76c0,.69,0,1.05,0,1.27-.38,0-.79,0-1.22,0V365a1.18,1.18,0,0,0-.4-1.06,1.39,1.39,0,0,0-.84-.28,2.63,2.63,0,0,0-1.91,1.17v3.6a11,11,0,0,0,.06,1.27c-.41,0-.82,0-1.23,0V365a1.18,1.18,0,0,0-.4-1.06,1.36,1.36,0,0,0-.83-.28,1.9,1.9,0,0,0-1.08.37,3.59,3.59,0,0,0-.87.87v3.45c0,.74,0,1.14,0,1.35-.38,0-.78,0-1.21,0Z" transform="translate(50.26 0)"/><path d="M110.56,369.78c-1.93,0-3.07-1.53-3.07-3.56s1.3-3.58,3.11-3.58,3.07,1.44,3.07,3.54S112.38,369.78,110.56,369.78Zm0-6.23c-1.21,0-1.92,1.13-1.92,2.63,0,1.71.82,2.65,1.92,2.65a1.65,1.65,0,0,0,1.37-.71,3.11,3.11,0,0,0,.56-1.94C112.5,364.62,111.77,363.55,110.57,363.55Z" transform="translate(50.26 0)"/><path d="M117.76,363.63l-1-.13v-.6l1-.21.09-1.37a3.69,3.69,0,0,0,.91-.23h.16v1.6h1.93a3.61,3.61,0,0,0,0,.54,2.49,2.49,0,0,0,0,.4h-1.89v3.93c0,.94.39,1.23,1,1.23a1.7,1.7,0,0,0,1-.34,3,3,0,0,0,.26.77,2.65,2.65,0,0,1-1.54.56c-1.1,0-1.85-.68-1.85-2.07Z" transform="translate(50.26 0)"/><path d="M124.69,362.64a2.57,2.57,0,0,1,2.7,2.78,6.06,6.06,0,0,1,0,.85h-4.55v.19a2.14,2.14,0,0,0,2.13,2.38,3.12,3.12,0,0,0,1.93-.67,4,4,0,0,0,.37.66,2.68,2.68,0,0,1-1.17.71,4,4,0,0,1-1.3.24c-1.78,0-3.14-1.2-3.14-3.54C121.61,364.21,122.92,362.64,124.69,362.64Zm1.66,2.86c0-.89-.32-2-1.62-2a2,2,0,0,0-1.93,2Z" transform="translate(50.26 0)"/><path d="M132.81,368.86a2.18,2.18,0,0,0,1.06-.25.91.91,0,0,0,.47-.87c0-.57-.39-.76-1.47-1.17a6.57,6.57,0,0,1-1.38-.74,1.57,1.57,0,0,1-.56-1.36c0-1.13.9-1.83,2.24-1.83a4.08,4.08,0,0,1,2,.46,2,2,0,0,0-.27.71l-.09.05a3.82,3.82,0,0,0-1.48-.3c-.66,0-1.28.21-1.28.89s.5.9,1.33,1.17a4.32,4.32,0,0,1,1.51.8,1.75,1.75,0,0,1,.45,1.3c0,1.42-1.21,2.06-2.47,2.06a3.56,3.56,0,0,1-2-.59,2.41,2.41,0,0,0,.29-.76A3.21,3.21,0,0,0,132.81,368.86Z" transform="translate(50.26 0)"/><path d="M139.24,362.64a2.57,2.57,0,0,1,2.7,2.78,6.06,6.06,0,0,1-.05.85h-4.55v.19a2.14,2.14,0,0,0,2.13,2.38,3.08,3.08,0,0,0,1.92-.67,4,4,0,0,0,.38.66,2.68,2.68,0,0,1-1.17.71,4,4,0,0,1-1.3.24c-1.78,0-3.14-1.2-3.14-3.54C136.16,364.21,137.47,362.64,139.24,362.64Zm1.66,2.86c0-.89-.32-2-1.62-2a2,2,0,0,0-1.93,2Z" transform="translate(50.26 0)"/><path d="M143.24,364.54c0-.46-.05-1.59-.06-1.6a3.44,3.44,0,0,0,1-.25h.19v1.42a3,3,0,0,1,2.39-1.47,1.87,1.87,0,0,1,2,2v3.76c0,.69,0,1,0,1.27-.41,0-.82,0-1.22,0V365a1.16,1.16,0,0,0-.41-1.06,1.36,1.36,0,0,0-.83-.28,1.93,1.93,0,0,0-1.08.37,3.59,3.59,0,0,0-.87.87v3.45c0,.74,0,1.1,0,1.35-.38,0-.78,0-1.21,0Z" transform="translate(50.26 0)"/><path d="M150.7,363.63l-1-.13v-.6l1-.21.09-1.37a3.69,3.69,0,0,0,.91-.23h.16v1.6h1.94a2.7,2.7,0,0,0-.06.54,2.49,2.49,0,0,0,0,.4h-1.89v3.93c0,.94.39,1.23,1,1.23a1.68,1.68,0,0,0,1-.34,2.68,2.68,0,0,0,.27.77,2.7,2.7,0,0,1-1.55.56c-1.09,0-1.85-.68-1.85-2.07Z" transform="translate(50.26 0)"/><path d="M155.71,360.18a.74.74,0,0,1,.74.71.74.74,0,0,1-1.48,0A.73.73,0,0,1,155.71,360.18Zm-.59,8.17v-3.51c0-.34,0-1.72-.05-1.9a3.46,3.46,0,0,0,1-.25h.19v5.66c0,.74,0,1.18,0,1.35-.38,0-.79,0-1.22,0Z" transform="translate(50.26 0)"/><path d="M159.54,368.86a2.21,2.21,0,0,0,1.06-.25.91.91,0,0,0,.46-.87c0-.57-.39-.76-1.47-1.17a6.48,6.48,0,0,1-1.37-.74,1.57,1.57,0,0,1-.56-1.36c0-1.13.89-1.83,2.23-1.83a4.09,4.09,0,0,1,2,.46,2,2,0,0,0-.27.71l-.09.05a3.82,3.82,0,0,0-1.48-.3c-.67,0-1.28.21-1.28.89s.5.9,1.33,1.17a4.32,4.32,0,0,1,1.51.8,1.75,1.75,0,0,1,.45,1.3c0,1.42-1.21,2.06-2.47,2.06a3.53,3.53,0,0,1-2-.59,2.68,2.68,0,0,0,.29-.76A3.16,3.16,0,0,0,159.54,368.86Z" transform="translate(50.26 0)"/><path d="M163.55,363.63l-1-.13v-.6l1-.21.09-1.37a3.92,3.92,0,0,0,.91-.23h.15v1.6h1.94a2.65,2.65,0,0,0,0,.54c0,.15,0,.28,0,.4h-1.88v3.93c0,.94.39,1.23,1,1.23a1.73,1.73,0,0,0,1-.34,2.41,2.41,0,0,0,.26.77,2.7,2.7,0,0,1-1.55.56c-1.09,0-1.84-.68-1.84-2.07Z" transform="translate(50.26 0)"/><path d="M170.48,362.64a2.57,2.57,0,0,1,2.7,2.78,6.06,6.06,0,0,1-.05.85h-4.55v.19a2.14,2.14,0,0,0,2.13,2.38,3.08,3.08,0,0,0,1.92-.67,4,4,0,0,0,.38.66,2.68,2.68,0,0,1-1.17.71,4,4,0,0,1-1.3.24c-1.78,0-3.15-1.2-3.15-3.54C167.39,364.21,168.71,362.64,170.48,362.64Zm1.66,2.86c0-.89-.33-2-1.63-2a2,2,0,0,0-1.92,2Z" transform="translate(50.26 0)"/><path d="M177.08,364.54c0-.46-.07-1.38-.07-1.6a3.51,3.51,0,0,0,1-.25h.2v1.43a2,2,0,0,1,1.75-1.48,1.83,1.83,0,0,1,1.07.29,3.74,3.74,0,0,0-.39,1,1.51,1.51,0,0,0-.78-.22c-.66,0-1.17.34-1.65,1.42v3.21c0,.74,0,1,.05,1.35-.38,0-.79,0-1.22,0Z" transform="translate(50.26 0)"/><path d="M184.25,362.64a2.58,2.58,0,0,1,2.71,2.78,6.06,6.06,0,0,1-.05.85h-4.55v.19a2.14,2.14,0,0,0,2.13,2.38,3.08,3.08,0,0,0,1.92-.67,4,4,0,0,0,.38.66,2.68,2.68,0,0,1-1.17.71,4,4,0,0,1-1.3.24c-1.78,0-3.15-1.2-3.15-3.54C181.17,364.21,182.49,362.64,184.25,362.64Zm1.67,2.86c0-.89-.33-2-1.63-2a2,2,0,0,0-1.92,2Z" transform="translate(50.26 0)"/><path d="M193.9,369.3a1.32,1.32,0,0,1-1,.48c-.61,0-1.07-.39-1.22-1.22a3.61,3.61,0,0,1-.86.83,2.24,2.24,0,0,1-1.3.39,1.62,1.62,0,0,1-1.73-1.69c0-1,1-2.11,3.82-2.46v-.7c0-.95-.41-1.39-1.23-1.39a1.13,1.13,0,0,0-1.26,1.27c-.22,0-.76.06-1.08.12,0-.05,0-.12,0-.17,0-1.52,1.11-2.12,2.42-2.12a2.11,2.11,0,0,1,2.32,2.26v2.85c0,.62.07,1.12.53,1.12a.56.56,0,0,0,.38-.16A1.65,1.65,0,0,0,193.9,369.3Zm-2.29-3c-.93.14-2.69.49-2.69,1.68,0,.63.48.92,1.07.92a2.28,2.28,0,0,0,1.62-1Z" transform="translate(50.26 0)"/><path d="M194.77,362c0-.27,0-1.81,0-2a5,5,0,0,0,1-.22h.18v8.47a10.5,10.5,0,0,0,.05,1.42c-.37,0-.82,0-1.23,0,0-.12,0-1.27,0-1.46Z" transform="translate(50.26 0)"/><path d="M198.24,360.18a.73.73,0,0,1,.74.71.74.74,0,0,1-1.48,0A.74.74,0,0,1,198.24,360.18Zm-.58,8.17v-3.51c0-.34,0-1.72,0-1.9a3.39,3.39,0,0,0,1-.25h.2v5.66c0,.74,0,1.18,0,1.35-.38,0-.8,0-1.23,0Z" transform="translate(50.26 0)"/><path d="M200.05,369.7v-.79l.68-1,1.2-1.76c.43-.64.84-1.21,1.2-1.75l.62-.87h-2.1c-.51,0-1,0-1.47,0,0-.14,0-.32,0-.47a3,3,0,0,0,0-.43h4.89v.82l-.74,1-1.24,1.78L201.92,368l-.53.78h2.51c.4,0,.8,0,1.15-.05,0,.16,0,.33,0,.45s0,.31,0,.48Z" transform="translate(50.26 0)"/><path d="M211.91,369.3a1.35,1.35,0,0,1-1,.48c-.61,0-1.06-.39-1.22-1.22a3.43,3.43,0,0,1-.86.83,2.2,2.2,0,0,1-1.3.39,1.62,1.62,0,0,1-1.73-1.69c0-1,1-2.11,3.83-2.46v-.7c0-.95-.42-1.39-1.24-1.39a1.13,1.13,0,0,0-1.26,1.27c-.22,0-.75.06-1.08.12,0-.05,0-.12,0-.17,0-1.52,1.1-2.12,2.42-2.12a2.1,2.1,0,0,1,2.31,2.26v2.85c0,.62.08,1.12.53,1.12a.54.54,0,0,0,.38-.16A1.48,1.48,0,0,0,211.91,369.3Zm-2.29-3c-.94.14-2.69.49-2.69,1.68,0,.63.48.92,1.06.92a2.32,2.32,0,0,0,1.63-1Z" transform="translate(50.26 0)"/><path d="M212.79,364.54c0-.46,0-1.59-.07-1.6a3.3,3.3,0,0,0,1-.25h.2v1.42a3,3,0,0,1,2.39-1.47,1.87,1.87,0,0,1,2,2v3.76a12.53,12.53,0,0,0,.06,1.27c-.41,0-.82,0-1.23,0V365a1.18,1.18,0,0,0-.4-1.06,1.36,1.36,0,0,0-.83-.28,1.9,1.9,0,0,0-1.08.37,3.59,3.59,0,0,0-.87.87v3.45c0,.74,0,1.1,0,1.35-.38,0-.78,0-1.21,0Z" transform="translate(50.26 0)"/><path d="M219.59,366.32c0-2.34,1.45-3.68,3.18-3.68a2.91,2.91,0,0,1,1.51.39c0-.37,0-2.82,0-3a8.27,8.27,0,0,0,1-.22h.18V368a8.71,8.71,0,0,0,.18,1.71c-.37,0-.78,0-1.21,0a4.29,4.29,0,0,1-.09-.66,2.77,2.77,0,0,1-1.8.7C221,369.78,219.59,368.49,219.59,366.32Zm3.4-2.86c-1.17,0-2.21,1-2.21,2.72a3,3,0,0,0,.58,1.92,1.79,1.79,0,0,0,1.48.73,2.31,2.31,0,0,0,1.45-.51c0-.14,0-1.45,0-4.31A1.6,1.6,0,0,0,223,363.46Z" transform="translate(50.26 0)"/><path d="M229.79,369.78c-1.92,0-3.07-1.53-3.07-3.56s1.3-3.58,3.11-3.58,3.07,1.44,3.07,3.54S231.61,369.78,229.79,369.78Zm0-6.23c-1.21,0-1.93,1.13-1.93,2.63,0,1.71.82,2.65,1.93,2.65a1.64,1.64,0,0,0,1.36-.71,3,3,0,0,0,.56-1.94C231.73,364.62,231,363.55,229.81,363.55Z" transform="translate(50.26 0)"/><path d="M239.41,362.64a2.58,2.58,0,0,1,2.71,2.78,6.07,6.07,0,0,1-.06.85h-4.55v.19a2.14,2.14,0,0,0,2.14,2.38,3.1,3.1,0,0,0,1.92-.67,3.38,3.38,0,0,0,.38.66,2.68,2.68,0,0,1-1.17.71,4,4,0,0,1-1.3.24c-1.78,0-3.15-1.2-3.15-3.54C236.33,364.21,237.64,362.64,239.41,362.64Zm1.67,2.86c0-.89-.33-2-1.63-2a2,2,0,0,0-1.92,2Z" transform="translate(50.26 0)"/><path d="M244.94,368.86a2.14,2.14,0,0,0,1.05-.25.91.91,0,0,0,.47-.87c0-.57-.39-.76-1.47-1.17a6.57,6.57,0,0,1-1.38-.74,1.57,1.57,0,0,1-.56-1.36c0-1.13.9-1.83,2.24-1.83a4.14,4.14,0,0,1,2,.46,1.87,1.87,0,0,0-.28.71l-.09.05a3.82,3.82,0,0,0-1.48-.3c-.66,0-1.27.21-1.27.89s.49.9,1.32,1.17a4.23,4.23,0,0,1,1.51.8,1.76,1.76,0,0,1,.46,1.3c0,1.42-1.21,2.06-2.47,2.06a3.51,3.51,0,0,1-2-.59,2.69,2.69,0,0,0,.28-.76A3.22,3.22,0,0,0,244.94,368.86Z" transform="translate(50.26 0)"/><path d="M248.94,363.63l-1-.13v-.6l1-.21.09-1.37a3.69,3.69,0,0,0,.91-.23h.16v1.6H252a2.7,2.7,0,0,0-.06.54,2.49,2.49,0,0,0,0,.4h-1.89v3.93c0,.94.39,1.23,1,1.23a1.68,1.68,0,0,0,1-.34,3,3,0,0,0,.26.77,2.65,2.65,0,0,1-1.54.56c-1.09,0-1.85-.68-1.85-2.07Z" transform="translate(50.26 0)"/><path d="M259,369.3a1.35,1.35,0,0,1-1,.48c-.62,0-1.07-.39-1.23-1.22a3.54,3.54,0,0,1-.85.83,2.24,2.24,0,0,1-1.3.39,1.61,1.61,0,0,1-1.73-1.69c0-1,1-2.11,3.82-2.46v-.7c0-.95-.42-1.39-1.24-1.39a1.13,1.13,0,0,0-1.26,1.27c-.22,0-.75.06-1.08.12,0-.05,0-.12,0-.17,0-1.52,1.11-2.12,2.42-2.12a2.1,2.1,0,0,1,2.31,2.26v2.85c0,.62.08,1.12.54,1.12a.53.53,0,0,0,.37-.16A1.64,1.64,0,0,0,259,369.3Zm-2.29-3c-.94.14-2.69.49-2.69,1.68,0,.63.48.92,1.06.92a2.32,2.32,0,0,0,1.63-1Z" transform="translate(50.26 0)"/><path d="M268.14,369.3a1.32,1.32,0,0,1-1,.48c-.61,0-1.06-.39-1.22-1.22a3.61,3.61,0,0,1-.86.83,2.22,2.22,0,0,1-1.3.39,1.62,1.62,0,0,1-1.73-1.69c0-1,1-2.11,3.82-2.46v-.7c0-.95-.41-1.39-1.23-1.39a1.13,1.13,0,0,0-1.26,1.27c-.22,0-.76.06-1.08.12,0-.05,0-.12,0-.17,0-1.52,1.1-2.12,2.41-2.12A2.11,2.11,0,0,1,267,364.9v2.85c0,.62.08,1.12.53,1.12a.56.56,0,0,0,.38-.16A1.65,1.65,0,0,0,268.14,369.3Zm-2.29-3c-.93.14-2.69.49-2.69,1.68,0,.63.48.92,1.07.92a2.28,2.28,0,0,0,1.62-1Z" transform="translate(50.26 0)"/><path d="M271.51,362.64a2.61,2.61,0,0,1,1.66.52,1.81,1.81,0,0,1,.68,1.56v.12h-.26a3.94,3.94,0,0,0-.77.06v-.19a1.23,1.23,0,0,0-.28-.79,1.21,1.21,0,0,0-1-.38,1.65,1.65,0,0,0-1.38.75,3.17,3.17,0,0,0-.53,1.86c0,1.52.66,2.69,2.14,2.69a3.23,3.23,0,0,0,1.86-.59,2.63,2.63,0,0,0,.37.66,3.62,3.62,0,0,1-2.38.87c-1.81,0-3.15-1.28-3.15-3.54C268.44,364.21,269.7,362.64,271.51,362.64Z" transform="translate(50.26 0)"/><path d="M275.36,363.63l-1-.13,0-.6,1-.21.09-1.37a3.92,3.92,0,0,0,.91-.23h.15v1.6h1.94a2.65,2.65,0,0,0-.05.54c0,.15,0,.28,0,.4h-1.88v3.93c0,.94.39,1.23,1,1.23a1.71,1.71,0,0,0,1-.34,2.41,2.41,0,0,0,.26.77,2.7,2.7,0,0,1-1.55.56c-1.09,0-1.84-.68-1.84-2.07Z" transform="translate(50.26 0)"/><path d="M280.36,360.18a.73.73,0,0,1,.74.71.74.74,0,0,1-1.48,0A.74.74,0,0,1,280.36,360.18Zm-.58,8.17v-3.51c0-.34,0-1.72,0-1.9a3.39,3.39,0,0,0,1-.25h.2v5.66c0,.74,0,1.18,0,1.35-.38,0-.8,0-1.23,0Z" transform="translate(50.26 0)"/><path d="M283.25,362.71,285,368a3.46,3.46,0,0,1,.18.63c0-.11.13-.42.2-.63l.44-1.3.57-1.73.51-1.54.23-.72c.41,0,.81,0,1.19,0l-2.62,7h-.29c-.17,0-.55,0-.8,0l-.52-1.37-.86-2.25-.84-2.19c-.25-.68-.4-1.08-.46-1.21C282.4,362.72,282.85,362.72,283.25,362.71Z" transform="translate(50.26 0)"/><path d="M290,360.18a.73.73,0,0,1,.74.71.74.74,0,0,1-1.48,0A.73.73,0,0,1,290,360.18Zm-.59,8.17v-3.51c0-.34,0-1.72-.05-1.9a3.38,3.38,0,0,0,1-.25h.19v5.66c0,.74,0,1.18,0,1.35-.37,0-.79,0-1.22,0Z" transform="translate(50.26 0)"/><path d="M291.83,366.32c0-2.34,1.45-3.68,3.18-3.68a2.91,2.91,0,0,1,1.51.39c0-.37,0-2.82,0-3a8.27,8.27,0,0,0,1-.22h.18V368a8.71,8.71,0,0,0,.18,1.71c-.37,0-.78,0-1.21,0a4.29,4.29,0,0,1-.09-.66,2.77,2.77,0,0,1-1.8.7C293.21,369.78,291.83,368.49,291.83,366.32Zm3.4-2.86c-1.17,0-2.21,1-2.21,2.72a3,3,0,0,0,.58,1.92,1.79,1.79,0,0,0,1.48.73,2.31,2.31,0,0,0,1.45-.51c0-.14,0-1.45,0-4.31A1.6,1.6,0,0,0,295.23,363.46Z" transform="translate(50.26 0)"/><path d="M305.06,369.3a1.32,1.32,0,0,1-1,.48c-.61,0-1.06-.39-1.22-1.22a3.61,3.61,0,0,1-.86.83,2.24,2.24,0,0,1-1.3.39,1.62,1.62,0,0,1-1.73-1.69c0-1,.95-2.11,3.82-2.46v-.7c0-.95-.41-1.39-1.23-1.39a1.13,1.13,0,0,0-1.26,1.27c-.22,0-.76.06-1.08.12,0-.05,0-.12,0-.17,0-1.52,1.1-2.12,2.41-2.12a2.11,2.11,0,0,1,2.32,2.26v2.85c0,.62.08,1.12.53,1.12a.56.56,0,0,0,.38-.16A1.65,1.65,0,0,0,305.06,369.3Zm-2.29-3c-.93.14-2.69.49-2.69,1.68,0,.63.48.92,1.07.92a2.28,2.28,0,0,0,1.62-1Z" transform="translate(50.26 0)"/><path d="M305.36,366.32c0-2.34,1.46-3.68,3.19-3.68a2.85,2.85,0,0,1,1.5.39c0-.37,0-2.82,0-3a8.53,8.53,0,0,0,1-.22h.18V368a7.82,7.82,0,0,0,.19,1.71c-.38,0-.78,0-1.21,0a2.62,2.62,0,0,1-.09-.66,2.82,2.82,0,0,1-1.81.7C306.74,369.78,305.36,368.49,305.36,366.32Zm3.41-2.86c-1.17,0-2.21,1-2.21,2.72a3,3,0,0,0,.57,1.92,1.81,1.81,0,0,0,1.48.73,2.36,2.36,0,0,0,1.46-.51c0-.14,0-1.45,0-4.31A1.59,1.59,0,0,0,308.77,363.46Z" transform="translate(50.26 0)"/><path d="M316.32,362.76a1.28,1.28,0,0,0-1.37-1.37,1.24,1.24,0,0,0-1.35,1.23v.2h-.35c-.25,0-.53,0-.65,0v-.26a2.23,2.23,0,0,1,2.42-2.11,2.14,2.14,0,0,1,2.4,2.24,3.06,3.06,0,0,1-1.36,2.34l-.82.72a.91.91,0,0,0-.39.75,1.37,1.37,0,0,0,.33.84h-.78a1.27,1.27,0,0,1-.5-1C313.9,364.85,316.32,364.49,316.32,362.76Zm-1.53,5.58a.73.73,0,0,1,.74.71.75.75,0,0,1-1.49,0A.72.72,0,0,1,314.79,368.34Z" transform="translate(50.26 0)"/></g></g></svg>