<svg xmlns="http://www.w3.org/2000/svg" xmlns:xlink="http://www.w3.org/1999/xlink" viewBox="0 0 533.58 533.58"><defs><style>.cls-1{fill:url(#Motivo_nuevo_3);}.cls-2{fill:none;}.cls-3{clip-path:url(#clip-path);}.cls-4{fill:#00bcbc;}.cls-5{fill:#fff;}.cls-6{fill:url(#Motivo_nuevo_3-3);}.cls-7{clip-path:url(#clip-path-2);}.cls-8{fill:url(#Motivo_nuevo_3-5);}</style><pattern id="Motivo_nuevo_3" data-name="Motivo nuevo 3" width="171.44" height="171.44" patternUnits="userSpaceOnUse" viewBox="0 0 171.44 171.44"><rect class="cls-2" width="171.44" height="171.44"/><g class="cls-3"><rect class="cls-4" x="60.37" y="76.75" width="15.15" height="89.7"/><rect class="cls-4" x="81.64" y="112.68" width="15.15" height="27.86"/><rect class="cls-4" x="66.51" y="11.24" width="15.15" height="60.98"/><rect class="cls-4" x="141.52" y="130.12" width="15.15" height="36.82"/><polygon class="cls-4" points="-34.45 50.94 -34.45 35.78 11.39 35.78 11.39 50.94 -34.45 50.94"/><polygon class="cls-4" points="136.99 50.94 136.99 35.78 182.83 35.78 182.83 50.94 136.99 50.94"/><polygon class="cls-4" points="122.57 164.38 122.57 149.22 137.12 149.22 137.12 164.38 122.57 164.38"/><polygon class="cls-4" points="33.11 92.03 33.11 76.87 53.53 76.87 53.53 92.03 33.11 92.03"/><path class="cls-4" d="M51.11,155.35a30.19,30.19,0,1,1-30.18-30.19A30.18,30.18,0,0,1,51.11,155.35Zm-15.15,0a15,15,0,1,0-15,15A15,15,0,0,0,36,155.35Z"/><path class="cls-4" d="M62.29,48.62a23.2,23.2,0,1,1-23.2-23.2A23.2,23.2,0,0,1,62.29,48.62Zm-11.64,0A11.56,11.56,0,1,0,39.09,60.18,11.56,11.56,0,0,0,50.65,48.62Z"/><path class="cls-4" d="M123.77,88.59a19.3,19.3,0,1,1-19.3-19.3A19.3,19.3,0,0,1,123.77,88.59Zm-9.69,0a9.61,9.61,0,1,0-9.61,9.6A9.61,9.61,0,0,0,114.08,88.59Z"/><path class="cls-4" d="M120.38,165.29a19.56,19.56,0,1,1-19.56-19.55A19.55,19.55,0,0,1,120.38,165.29Zm-9.82,0a9.74,9.74,0,1,0-9.74,9.74A9.74,9.74,0,0,0,110.56,165.29Z"/><path class="cls-4" d="M51.11-16.09A30.19,30.19,0,0,1,20.93,14.1,30.19,30.19,0,0,1-9.26-16.09,30.19,30.19,0,0,1,20.93-46.27,30.18,30.18,0,0,1,51.11-16.09ZM36-16.09a15,15,0,0,0-15-15,15,15,0,0,0-15,15,15,15,0,0,0,15,15A15,15,0,0,0,36-16.09Z"/><path class="cls-4" d="M222.55,155.35a30.19,30.19,0,1,1-30.19-30.19A30.18,30.18,0,0,1,222.55,155.35Zm-15.15,0a15,15,0,1,0-15,15A15,15,0,0,0,207.4,155.35Z"/><path class="cls-4" d="M222.55-16.09A30.19,30.19,0,0,1,192.36,14.1a30.19,30.19,0,0,1-30.18-30.19,30.18,30.18,0,0,1,30.18-30.18A30.18,30.18,0,0,1,222.55-16.09Zm-15.15,0a15,15,0,0,0-15-15,15,15,0,0,0-15,15,15,15,0,0,0,15,15A15,15,0,0,0,207.4-16.09Z"/><path class="cls-4" d="M120.38-6.14a19.56,19.56,0,0,1-19.56,19.55A19.56,19.56,0,0,1,81.27-6.14,19.56,19.56,0,0,1,100.82-25.7,19.56,19.56,0,0,1,120.38-6.14Zm-9.82,0a9.74,9.74,0,0,0-9.74-9.74,9.74,9.74,0,0,0-9.73,9.74,9.73,9.73,0,0,0,9.73,9.73A9.74,9.74,0,0,0,110.56-6.14Z"/><rect class="cls-4" x="151.05" y="4.34" width="15.15" height="26.95"/><path class="cls-4" d="M131.5,66.9a5.75,5.75,0,1,1-5.74-5.74A5.74,5.74,0,0,1,131.5,66.9Zm-2.88,0a2.86,2.86,0,1,0-2.86,2.86A2.86,2.86,0,0,0,128.62,66.9Z"/><path class="cls-4" d="M18.58,24.37a7.46,7.46,0,1,1-7.46-7.45A7.46,7.46,0,0,1,18.58,24.37Zm-3.75,0a3.71,3.71,0,1,0-3.71,3.72A3.71,3.71,0,0,0,14.83,24.37Z"/><path class="cls-4" d="M175.37,90.72a12,12,0,1,1-12-12A12,12,0,0,1,175.37,90.72Zm-6,0a6,6,0,1,0-6,6A6,6,0,0,0,169.33,90.72Z"/><path class="cls-4" d="M63.55,13.71A10.49,10.49,0,1,1,53.07,3.23,10.49,10.49,0,0,1,63.55,13.71Zm-5.26,0a5.22,5.22,0,1,0-5.22,5.23A5.22,5.22,0,0,0,58.29,13.71Z"/><path class="cls-4" d="M147.93,14.69a12,12,0,1,1-12-12A12,12,0,0,1,147.93,14.69Zm-6,0a6,6,0,1,0-6,6A6,6,0,0,0,141.9,14.69Z"/><path class="cls-4" d="M129.79,40.85a22.22,22.22,0,1,1-22.22-22.22A22.21,22.21,0,0,1,129.79,40.85Zm-11.15,0a11.07,11.07,0,1,0-11.07,11.06A11.07,11.07,0,0,0,118.64,40.85Z"/><path class="cls-4" d="M198.9,90.72a35.57,35.57,0,1,1-35.56-35.56A35.57,35.57,0,0,1,198.9,90.72Zm-17.85,0a17.71,17.71,0,1,0-17.71,17.71A17.71,17.71,0,0,0,181.05,90.72Z"/><path class="cls-4" d="M3.94,90.72a12,12,0,0,1-12,12,12,12,0,0,1-12-12,12,12,0,0,1,12-12A12,12,0,0,1,3.94,90.72Zm-6,0a6,6,0,0,0-6-6,6,6,0,0,0-6,6,6,6,0,0,0,6,6A6,6,0,0,0-2.11,90.72Z"/><path class="cls-4" d="M27.46,90.72A35.57,35.57,0,0,1-8.1,126.29,35.57,35.57,0,0,1-43.66,90.72,35.56,35.56,0,0,1-8.1,55.16,35.56,35.56,0,0,1,27.46,90.72Zm-17.85,0A17.71,17.71,0,0,0-8.1,73,17.71,17.71,0,0,0-25.81,90.72,17.71,17.71,0,0,0-8.1,108.43,17.71,17.71,0,0,0,9.61,90.72Z"/><path class="cls-4" d="M55.61,112A13.93,13.93,0,1,1,41.68,98.11,13.93,13.93,0,0,1,55.61,112Zm-7,0A6.94,6.94,0,1,0,41.68,119,6.94,6.94,0,0,0,48.61,112Z"/><path class="cls-4" d="M136.62,127.58a16.86,16.86,0,1,1-16.86-16.86A16.86,16.86,0,0,1,136.62,127.58Zm-8.46,0a8.4,8.4,0,1,0-8.4,8.39A8.4,8.4,0,0,0,128.16,127.58Z"/></g></pattern><clipPath id="clip-path"><rect class="cls-2" width="171.44" height="171.44"/></clipPath><pattern id="Motivo_nuevo_3-3" data-name="Motivo nuevo 3" width="171.44" height="171.44" patternUnits="userSpaceOnUse" viewBox="0 0 171.44 171.44"><rect class="cls-2" width="171.44" height="171.44"/><g class="cls-3"><rect class="cls-4" x="60.37" y="76.75" width="15.15" height="89.7"/><rect class="cls-4" x="81.64" y="112.68" width="15.15" height="27.86"/><rect class="cls-4" x="66.51" y="11.24" width="15.15" height="60.98"/><rect class="cls-4" x="141.52" y="130.12" width="15.15" height="36.82"/><polygon class="cls-4" points="-34.45 50.94 -34.45 35.78 11.39 35.78 11.39 50.94 -34.45 50.94"/><polygon class="cls-4" points="136.99 50.94 136.99 35.78 182.83 35.78 182.83 50.94 136.99 50.94"/><polygon class="cls-4" points="122.57 164.38 122.57 149.22 137.12 149.22 137.12 164.38 122.57 164.38"/><polygon class="cls-4" points="33.11 92.03 33.11 76.87 53.53 76.87 53.53 92.03 33.11 92.03"/><path class="cls-4" d="M51.11,155.35a30.19,30.19,0,1,1-30.18-30.19A30.18,30.18,0,0,1,51.11,155.35Zm-15.15,0a15,15,0,1,0-15,15A15,15,0,0,0,36,155.35Z"/><path class="cls-4" d="M62.29,48.62a23.2,23.2,0,1,1-23.2-23.2A23.2,23.2,0,0,1,62.29,48.62Zm-11.64,0A11.56,11.56,0,1,0,39.09,60.18,11.56,11.56,0,0,0,50.65,48.62Z"/><path class="cls-4" d="M123.77,88.59a19.3,19.3,0,1,1-19.3-19.3A19.3,19.3,0,0,1,123.77,88.59Zm-9.69,0a9.61,9.61,0,1,0-9.61,9.6A9.61,9.61,0,0,0,114.08,88.59Z"/><path class="cls-4" d="M120.38,165.29a19.56,19.56,0,1,1-19.56-19.55A19.55,19.55,0,0,1,120.38,165.29Zm-9.82,0a9.74,9.74,0,1,0-9.74,9.74A9.74,9.74,0,0,0,110.56,165.29Z"/><path class="cls-4" d="M51.11-16.09A30.19,30.19,0,0,1,20.93,14.1,30.19,30.19,0,0,1-9.26-16.09,30.19,30.19,0,0,1,20.93-46.27,30.18,30.18,0,0,1,51.11-16.09ZM36-16.09a15,15,0,0,0-15-15,15,15,0,0,0-15,15,15,15,0,0,0,15,15A15,15,0,0,0,36-16.09Z"/><path class="cls-4" d="M222.55,155.35a30.19,30.19,0,1,1-30.19-30.19A30.18,30.18,0,0,1,222.55,155.35Zm-15.15,0a15,15,0,1,0-15,15A15,15,0,0,0,207.4,155.35Z"/><path class="cls-4" d="M222.55-16.09A30.19,30.19,0,0,1,192.36,14.1a30.19,30.19,0,0,1-30.18-30.19,30.18,30.18,0,0,1,30.18-30.18A30.18,30.18,0,0,1,222.55-16.09Zm-15.15,0a15,15,0,0,0-15-15,15,15,0,0,0-15,15,15,15,0,0,0,15,15A15,15,0,0,0,207.4-16.09Z"/><path class="cls-4" d="M120.38-6.14a19.56,19.56,0,0,1-19.56,19.55A19.56,19.56,0,0,1,81.27-6.14,19.56,19.56,0,0,1,100.82-25.7,19.56,19.56,0,0,1,120.38-6.14Zm-9.82,0a9.74,9.74,0,0,0-9.74-9.74,9.74,9.74,0,0,0-9.73,9.74,9.73,9.73,0,0,0,9.73,9.73A9.74,9.74,0,0,0,110.56-6.14Z"/><rect class="cls-4" x="151.05" y="4.34" width="15.15" height="26.95"/><path class="cls-4" d="M131.5,66.9a5.75,5.75,0,1,1-5.74-5.74A5.74,5.74,0,0,1,131.5,66.9Zm-2.88,0a2.86,2.86,0,1,0-2.86,2.86A2.86,2.86,0,0,0,128.62,66.9Z"/><path class="cls-4" d="M18.58,24.37a7.46,7.46,0,1,1-7.46-7.45A7.46,7.46,0,0,1,18.58,24.37Zm-3.75,0a3.71,3.71,0,1,0-3.71,3.72A3.71,3.71,0,0,0,14.83,24.37Z"/><path class="cls-4" d="M175.37,90.72a12,12,0,1,1-12-12A12,12,0,0,1,175.37,90.72Zm-6,0a6,6,0,1,0-6,6A6,6,0,0,0,169.33,90.72Z"/><path class="cls-4" d="M63.55,13.71A10.49,10.49,0,1,1,53.07,3.23,10.49,10.49,0,0,1,63.55,13.71Zm-5.26,0a5.22,5.22,0,1,0-5.22,5.23A5.22,5.22,0,0,0,58.29,13.71Z"/><path class="cls-4" d="M147.93,14.69a12,12,0,1,1-12-12A12,12,0,0,1,147.93,14.69Zm-6,0a6,6,0,1,0-6,6A6,6,0,0,0,141.9,14.69Z"/><path class="cls-4" d="M129.79,40.85a22.22,22.22,0,1,1-22.22-22.22A22.21,22.21,0,0,1,129.79,40.85Zm-11.15,0a11.07,11.07,0,1,0-11.07,11.06A11.07,11.07,0,0,0,118.64,40.85Z"/><path class="cls-4" d="M198.9,90.72a35.57,35.57,0,1,1-35.56-35.56A35.57,35.57,0,0,1,198.9,90.72Zm-17.85,0a17.71,17.71,0,1,0-17.71,17.71A17.71,17.71,0,0,0,181.05,90.72Z"/><path class="cls-4" d="M3.94,90.72a12,12,0,0,1-12,12,12,12,0,0,1-12-12,12,12,0,0,1,12-12A12,12,0,0,1,3.94,90.72Zm-6,0a6,6,0,0,0-6-6,6,6,0,0,0-6,6,6,6,0,0,0,6,6A6,6,0,0,0-2.11,90.72Z"/><path class="cls-4" d="M27.46,90.72A35.57,35.57,0,0,1-8.1,126.29,35.57,35.57,0,0,1-43.66,90.72,35.56,35.56,0,0,1-8.1,55.16,35.56,35.56,0,0,1,27.46,90.72Zm-17.85,0A17.71,17.71,0,0,0-8.1,73,17.71,17.71,0,0,0-25.81,90.72,17.71,17.71,0,0,0-8.1,108.43,17.71,17.71,0,0,0,9.61,90.72Z"/><path class="cls-4" d="M55.61,112A13.93,13.93,0,1,1,41.68,98.11,13.93,13.93,0,0,1,55.61,112Zm-7,0A6.94,6.94,0,1,0,41.68,119,6.94,6.94,0,0,0,48.61,112Z"/><path class="cls-4" d="M136.62,127.58a16.86,16.86,0,1,1-16.86-16.86A16.86,16.86,0,0,1,136.62,127.58Zm-8.46,0a8.4,8.4,0,1,0-8.4,8.39A8.4,8.4,0,0,0,128.16,127.58Z"/></g></pattern><clipPath id="clip-path-2" transform="translate(50.26 0)"><path class="cls-1" d="M45.55,533.58H12c-6.6,0-12-8.59-12-19.09V19.1C0,8.59,5.4,0,12,0H45.55Z"/></clipPath><pattern id="Motivo_nuevo_3-5" data-name="Motivo nuevo 3" x="50.26" width="171.44" height="171.44" patternUnits="userSpaceOnUse" viewBox="0 0 171.44 171.44"><rect class="cls-2" width="171.44" height="171.44"/><g class="cls-3"><rect class="cls-4" x="60.37" y="76.75" width="15.15" height="89.7"/><rect class="cls-4" x="81.64" y="112.68" width="15.15" height="27.86"/><rect class="cls-4" x="66.51" y="11.24" width="15.15" height="60.98"/><rect class="cls-4" x="141.52" y="130.12" width="15.15" height="36.82"/><polygon class="cls-4" points="-34.45 50.94 -34.45 35.78 11.39 35.78 11.39 50.94 -34.45 50.94"/><polygon class="cls-4" points="136.99 50.94 136.99 35.78 182.83 35.78 182.83 50.94 136.99 50.94"/><polygon class="cls-4" points="122.57 164.38 122.57 149.22 137.12 149.22 137.12 164.38 122.57 164.38"/><polygon class="cls-4" points="33.11 92.03 33.11 76.87 53.53 76.87 53.53 92.03 33.11 92.03"/><path class="cls-4" d="M51.11,155.35a30.19,30.19,0,1,1-30.18-30.19A30.18,30.18,0,0,1,51.11,155.35Zm-15.15,0a15,15,0,1,0-15,15A15,15,0,0,0,36,155.35Z"/><path class="cls-4" d="M62.29,48.62a23.2,23.2,0,1,1-23.2-23.2A23.2,23.2,0,0,1,62.29,48.62Zm-11.64,0A11.56,11.56,0,1,0,39.09,60.18,11.56,11.56,0,0,0,50.65,48.62Z"/><path class="cls-4" d="M123.77,88.59a19.3,19.3,0,1,1-19.3-19.3A19.3,19.3,0,0,1,123.77,88.59Zm-9.69,0a9.61,9.61,0,1,0-9.61,9.6A9.61,9.61,0,0,0,114.08,88.59Z"/><path class="cls-4" d="M120.38,165.29a19.56,19.56,0,1,1-19.56-19.55A19.55,19.55,0,0,1,120.38,165.29Zm-9.82,0a9.74,9.74,0,1,0-9.74,9.74A9.74,9.74,0,0,0,110.56,165.29Z"/><path class="cls-4" d="M51.11-16.09A30.19,30.19,0,0,1,20.93,14.1,30.19,30.19,0,0,1-9.26-16.09,30.19,30.19,0,0,1,20.93-46.27,30.18,30.18,0,0,1,51.11-16.09ZM36-16.09a15,15,0,0,0-15-15,15,15,0,0,0-15,15,15,15,0,0,0,15,15A15,15,0,0,0,36-16.09Z"/><path class="cls-4" d="M222.55,155.35a30.19,30.19,0,1,1-30.19-30.19A30.18,30.18,0,0,1,222.55,155.35Zm-15.15,0a15,15,0,1,0-15,15A15,15,0,0,0,207.4,155.35Z"/><path class="cls-4" d="M222.55-16.09A30.19,30.19,0,0,1,192.36,14.1a30.19,30.19,0,0,1-30.18-30.19,30.18,30.18,0,0,1,30.18-30.18A30.18,30.18,0,0,1,222.55-16.09Zm-15.15,0a15,15,0,0,0-15-15,15,15,0,0,0-15,15,15,15,0,0,0,15,15A15,15,0,0,0,207.4-16.09Z"/><path class="cls-4" d="M120.38-6.14a19.56,19.56,0,0,1-19.56,19.55A19.56,19.56,0,0,1,81.27-6.14,19.56,19.56,0,0,1,100.82-25.7,19.56,19.56,0,0,1,120.38-6.14Zm-9.82,0a9.74,9.74,0,0,0-9.74-9.74,9.74,9.74,0,0,0-9.73,9.74,9.73,9.73,0,0,0,9.73,9.73A9.74,9.74,0,0,0,110.56-6.14Z"/><rect class="cls-4" x="151.05" y="4.34" width="15.15" height="26.95"/><path class="cls-4" d="M131.5,66.9a5.75,5.75,0,1,1-5.74-5.74A5.74,5.74,0,0,1,131.5,66.9Zm-2.88,0a2.86,2.86,0,1,0-2.86,2.86A2.86,2.86,0,0,0,128.62,66.9Z"/><path class="cls-4" d="M18.58,24.37a7.46,7.46,0,1,1-7.46-7.45A7.46,7.46,0,0,1,18.58,24.37Zm-3.75,0a3.71,3.71,0,1,0-3.71,3.72A3.71,3.71,0,0,0,14.83,24.37Z"/><path class="cls-4" d="M175.37,90.72a12,12,0,1,1-12-12A12,12,0,0,1,175.37,90.72Zm-6,0a6,6,0,1,0-6,6A6,6,0,0,0,169.33,90.72Z"/><path class="cls-4" d="M63.55,13.71A10.49,10.49,0,1,1,53.07,3.23,10.49,10.49,0,0,1,63.55,13.71Zm-5.26,0a5.22,5.22,0,1,0-5.22,5.23A5.22,5.22,0,0,0,58.29,13.71Z"/><path class="cls-4" d="M147.93,14.69a12,12,0,1,1-12-12A12,12,0,0,1,147.93,14.69Zm-6,0a6,6,0,1,0-6,6A6,6,0,0,0,141.9,14.69Z"/><path class="cls-4" d="M129.79,40.85a22.22,22.22,0,1,1-22.22-22.22A22.21,22.21,0,0,1,129.79,40.85Zm-11.15,0a11.07,11.07,0,1,0-11.07,11.06A11.07,11.07,0,0,0,118.64,40.85Z"/><path class="cls-4" d="M198.9,90.72a35.57,35.57,0,1,1-35.56-35.56A35.57,35.57,0,0,1,198.9,90.72Zm-17.85,0a17.71,17.71,0,1,0-17.71,17.71A17.71,17.71,0,0,0,181.05,90.72Z"/><path class="cls-4" d="M3.94,90.72a12,12,0,0,1-12,12,12,12,0,0,1-12-12,12,12,0,0,1,12-12A12,12,0,0,1,3.94,90.72Zm-6,0a6,6,0,0,0-6-6,6,6,0,0,0-6,6,6,6,0,0,0,6,6A6,6,0,0,0-2.11,90.72Z"/><path class="cls-4" d="M27.46,90.72A35.57,35.57,0,0,1-8.1,126.29,35.57,35.57,0,0,1-43.66,90.72,35.56,35.56,0,0,1-8.1,55.16,35.56,35.56,0,0,1,27.46,90.72Zm-17.85,0A17.71,17.71,0,0,0-8.1,73,17.71,17.71,0,0,0-25.81,90.72,17.71,17.71,0,0,0-8.1,108.43,17.71,17.71,0,0,0,9.61,90.72Z"/><path class="cls-4" d="M55.61,112A13.93,13.93,0,1,1,41.68,98.11,13.93,13.93,0,0,1,55.61,112Zm-7,0A6.94,6.94,0,1,0,41.68,119,6.94,6.94,0,0,0,48.61,112Z"/><path class="cls-4" d="M136.62,127.58a16.86,16.86,0,1,1-16.86-16.86A16.86,16.86,0,0,1,136.62,127.58Zm-8.46,0a8.4,8.4,0,1,0-8.4,8.39A8.4,8.4,0,0,0,128.16,127.58Z"/></g></pattern></defs><g id="Capa_2" data-name="Capa 2"><g id="Capa_2-2" data-name="Capa 2"><rect class="cls-5" x="-97.16" y="99.16" width="533.58" height="335.26" rx="12" transform="translate(486.68 97.16) rotate(90)"/><path class="cls-6" d="M45.55,533.58H12c-6.6,0-12-8.59-12-19.09V19.1C0,8.59,5.4,0,12,0H45.55Z" transform="translate(50.26 0)"/><g class="cls-7"><rect class="cls-8" width="533.58" height="533.58" rx="12"/></g><path class="cls-4" d="M219.56,114.09H203.42v15h18v4.5H198.06V92h22.42v4.5H203.42v13.12h16.14Z" transform="translate(50.26 0)"/><path class="cls-4" d="M228.36,92h5.36v37h17.73v4.5H228.36Z" transform="translate(50.26 0)"/><rect class="cls-4" x="125.25" y="132.11" width="262.26" height="49.85"/><path class="cls-5" d="M84.42,161.62l-2.66,8.06H78.34L87,144.07h4l8.74,25.61H96.23l-2.73-8.06ZM92.81,159l-2.5-7.37c-.57-1.67-1-3.19-1.33-4.68H88.9c-.38,1.52-.8,3.08-1.29,4.64L85.1,159Z" transform="translate(50.26 0)"/><path class="cls-5" d="M105.77,144.07v15.16c0,5.74,2.55,8.17,6,8.17,3.8,0,6.23-2.51,6.23-8.17V144.07h3.34V159c0,7.87-4.14,11.09-9.69,11.09-5.24,0-9.19-3-9.19-10.94V144.07Z" transform="translate(50.26 0)"/><path class="cls-5" d="M131.92,146.88h-7.79v-2.81h19v2.81h-7.83v22.8h-3.34Z" transform="translate(50.26 0)"/><path class="cls-5" d="M166.8,156.61c0,8.81-5.36,13.48-11.9,13.48-6.76,0-11.51-5.24-11.51-13,0-8.13,5.06-13.45,11.9-13.45C162.28,143.65,166.8,149,166.8,156.61Zm-19.87.41c0,5.48,3,10.38,8.16,10.38s8.21-4.83,8.21-10.64c0-5.09-2.66-10.41-8.17-10.41S146.93,151.4,146.93,157Z" transform="translate(50.26 0)"/><path class="cls-5" d="M171.09,144.41a34.73,34.73,0,0,1,6.35-.53c3.53,0,5.81.64,7.41,2.09a6.38,6.38,0,0,1,2,4.86,6.73,6.73,0,0,1-4.82,6.54v.11c2,.68,3.15,2.51,3.76,5.17a40.68,40.68,0,0,0,2,7h-3.42a34.64,34.64,0,0,1-1.71-6.12c-.76-3.53-2.12-4.86-5.12-5H174.4v11.1h-3.31Zm3.31,11.67h3.38c3.53,0,5.78-1.94,5.78-4.87,0-3.3-2.4-4.75-5.89-4.79a13.59,13.59,0,0,0-3.27.31Z" transform="translate(50.26 0)"/><path class="cls-5" d="M191.54,144.41a34.54,34.54,0,0,1,6.34-.53c3.54,0,5.82.64,7.41,2.09a6.39,6.39,0,0,1,2,4.86,6.73,6.73,0,0,1-4.83,6.54v.11c2,.68,3.15,2.51,3.76,5.17a41.34,41.34,0,0,0,2,7H204.8a32.88,32.88,0,0,1-1.71-6.12c-.76-3.53-2.13-4.86-5.13-5h-3.12v11.1h-3.3Zm3.3,11.67h3.39c3.53,0,5.77-1.94,5.77-4.87,0-3.3-2.39-4.75-5.89-4.79a13.73,13.73,0,0,0-3.27.31Z" transform="translate(50.26 0)"/><path class="cls-5" d="M225.24,157.67h-10v9.23h11.09v2.78H212V144.07h13.83v2.77H215.29v8.09h10Z" transform="translate(50.26 0)"/><path class="cls-5" d="M236.15,146.88h-7.79v-2.81h19v2.81h-7.83v22.8h-3.34Z" transform="translate(50.26 0)"/><path class="cls-5" d="M250.17,144.41a34.66,34.66,0,0,1,6.35-.53c3.53,0,5.81.64,7.41,2.09a6.38,6.38,0,0,1,2,4.86,6.73,6.73,0,0,1-4.83,6.54v.11c2,.68,3.16,2.51,3.77,5.17a40.68,40.68,0,0,0,2,7h-3.42a32.88,32.88,0,0,1-1.71-6.12c-.76-3.53-2.13-4.86-5.13-5h-3.11v11.1h-3.31Zm3.31,11.67h3.38c3.53,0,5.77-1.94,5.77-4.87,0-3.3-2.39-4.75-5.89-4.79a13.56,13.56,0,0,0-3.26.31Z" transform="translate(50.26 0)"/><path class="cls-5" d="M275,161.62l-2.66,8.06h-3.42l8.7-25.61h4l8.74,25.61h-3.54L284,161.62Zm8.39-2.58-2.5-7.37c-.57-1.67-.95-3.19-1.33-4.68h-.08c-.38,1.52-.8,3.08-1.29,4.64L275.63,159Z" transform="translate(50.26 0)"/><path class="cls-5" d="M296,146.88h-7.79v-2.81h19v2.81h-7.83v22.8H296Z" transform="translate(50.26 0)"/><path class="cls-5" d="M330.88,156.61c0,8.81-5.36,13.48-11.89,13.48-6.77,0-11.52-5.24-11.52-13,0-8.13,5.06-13.45,11.9-13.45S330.88,149,330.88,156.61ZM311,157c0,5.48,3,10.38,8.17,10.38s8.2-4.83,8.2-10.64c0-5.09-2.66-10.41-8.16-10.41S311,151.4,311,157Z" transform="translate(50.26 0)"/><path d="M78.12,205.07c0-.28,0-.59,0-.94l0-.84,1.26-.08c0,.57,0,1.18,0,1.75v6.5c.46,0,.91,0,1.38,0,.84,0,1.83,0,2.65-.06a5.73,5.73,0,0,0,0,.82v.18H79.89c-.63,0-1.81,0-1.81,0,0-.42,0-1.08,0-1.65Z" transform="translate(50.26 0)"/><path d="M86.75,212.49c-1.92,0-3.07-1.53-3.07-3.56s1.3-3.58,3.11-3.58,3.07,1.44,3.07,3.54S88.57,212.49,86.75,212.49Zm0-6.23c-1.21,0-1.92,1.13-1.92,2.63,0,1.71.82,2.65,1.92,2.65a1.65,1.65,0,0,0,1.37-.71,3,3,0,0,0,.56-1.94C88.69,207.33,88,206.26,86.76,206.26Z" transform="translate(50.26 0)"/><path d="M91.14,207.25c0-.46-.06-1.38-.06-1.6a3.66,3.66,0,0,0,1-.25h.19v1.43a2,2,0,0,1,1.76-1.48,1.8,1.8,0,0,1,1.06.29,3.74,3.74,0,0,0-.39,1,1.46,1.46,0,0,0-.78-.22c-.66,0-1.17.34-1.65,1.42v3.21c0,.74,0,1.05.06,1.35-.38,0-.8,0-1.23,0Z" transform="translate(50.26 0)"/><path d="M98.32,205.35a2.57,2.57,0,0,1,2.7,2.78,6.06,6.06,0,0,1,0,.85H96.42v.19a2.14,2.14,0,0,0,2.13,2.38,3.1,3.1,0,0,0,1.93-.67,3.38,3.38,0,0,0,.38.66,2.8,2.8,0,0,1-1.17.71,4.05,4.05,0,0,1-1.31.24c-1.78,0-3.14-1.2-3.14-3.54C95.24,206.92,96.55,205.35,98.32,205.35Zm1.66,2.86c0-.89-.32-2-1.62-2a2,2,0,0,0-1.92,2Z" transform="translate(50.26 0)"/><path d="M102.32,207.25a15.54,15.54,0,0,0-.06-1.6,3.61,3.61,0,0,0,1-.25h.19v1.42a3,3,0,0,1,2.4-1.47,1.85,1.85,0,0,1,1.91,1.47,3,3,0,0,1,2.39-1.47,1.88,1.88,0,0,1,2,2v3.76c0,.69,0,1.05,0,1.27-.38,0-.8,0-1.22,0v-4.74a1.19,1.19,0,0,0-.41-1.06,1.36,1.36,0,0,0-.83-.28,2.61,2.61,0,0,0-1.91,1.17v3.6c0,.69,0,1.1.05,1.27-.4,0-.82,0-1.22,0v-4.74a1.18,1.18,0,0,0-.4-1.06,1.39,1.39,0,0,0-.84-.28,2,2,0,0,0-1.08.37,3.78,3.78,0,0,0-.87.87v3.45c0,.74,0,1.14,0,1.35-.37,0-.78,0-1.21,0Z" transform="translate(50.26 0)"/><path d="M117.05,202.89a.73.73,0,0,1,.74.71.74.74,0,0,1-1.48,0A.74.74,0,0,1,117.05,202.89Zm-.58,8.17v-3.51c0-.34,0-1.72,0-1.9a3.39,3.39,0,0,0,1-.25h.2v5.66c0,.74,0,1.18,0,1.35-.38,0-.8,0-1.22,0Z" transform="translate(50.26 0)"/><path d="M119.39,207.56a18.91,18.91,0,0,0-.08-1.91,4.53,4.53,0,0,0,1.06-.25h.18c0,.12,0,.38,0,.58a2.84,2.84,0,0,1,1.77-.63c1.57,0,2.92,1.24,2.92,3.42s-1.45,3.72-3.18,3.72a3.08,3.08,0,0,1-1.51-.4V214a10.59,10.59,0,0,0,0,1.18c-.38,0-.79,0-1.22,0,0-.17,0-2.1,0-2.27Zm4.66,1.35c0-1.59-.85-2.61-2-2.61a2.47,2.47,0,0,0-1.46.44v4.36a1.62,1.62,0,0,0,1.3.56C123,211.66,124.05,210.62,124.05,208.91Z" transform="translate(50.26 0)"/><path d="M128.06,211.57a2.21,2.21,0,0,0,1.06-.25.91.91,0,0,0,.46-.87c0-.57-.39-.76-1.46-1.17a6.33,6.33,0,0,1-1.38-.74,1.57,1.57,0,0,1-.56-1.36c0-1.13.9-1.83,2.23-1.83a4.09,4.09,0,0,1,2,.46,2,2,0,0,0-.27.71l-.09,0a3.82,3.82,0,0,0-1.48-.3c-.67,0-1.28.21-1.28.89s.5.9,1.33,1.17a4.32,4.32,0,0,1,1.51.8,1.75,1.75,0,0,1,.45,1.3c0,1.42-1.21,2.06-2.47,2.06a3.56,3.56,0,0,1-2-.59,2.68,2.68,0,0,0,.29-.76A3.19,3.19,0,0,0,128.06,211.57Z" transform="translate(50.26 0)"/><path d="M131.83,207.24c0-.8-.05-1.56-.06-1.73a7.35,7.35,0,0,0,1-.11H133v4.67a1.29,1.29,0,0,0,.41,1.07,1.31,1.31,0,0,0,.84.34,2.73,2.73,0,0,0,1.85-1v-3.1c0-.92,0-1.66-.07-1.88a7.1,7.1,0,0,0,1-.11h.21v5.19a9.49,9.49,0,0,0,.17,1.82c-.38,0-.8,0-1.23,0a10.88,10.88,0,0,1-.11-1.18,3.08,3.08,0,0,1-2.29,1.22,2,2,0,0,1-2-2.11Z" transform="translate(50.26 0)"/><path d="M139.09,207.25a14.93,14.93,0,0,0-.07-1.6,3.61,3.61,0,0,0,1-.25h.2v1.42a3,3,0,0,1,2.39-1.47,1.85,1.85,0,0,1,1.91,1.47,3,3,0,0,1,2.39-1.47,1.88,1.88,0,0,1,2,2v3.76c0,.69,0,1.05,0,1.27-.38,0-.79,0-1.22,0v-4.74a1.18,1.18,0,0,0-.4-1.06,1.39,1.39,0,0,0-.84-.28,2.63,2.63,0,0,0-1.91,1.17v3.6c0,.69,0,1.1,0,1.27-.4,0-.81,0-1.22,0v-4.74a1.18,1.18,0,0,0-.4-1.06,1.36,1.36,0,0,0-.83-.28,1.9,1.9,0,0,0-1.08.37,3.59,3.59,0,0,0-.87.87v3.45c0,.74,0,1.14,0,1.35-.38,0-.78,0-1.21,0Z" transform="translate(50.26 0)"/><path d="M152.79,209c0-2.34,1.46-3.68,3.18-3.68a2.86,2.86,0,0,1,1.51.39c0-.37,0-2.82,0-3a8.27,8.27,0,0,0,1-.22h.18v8.18a7.82,7.82,0,0,0,.19,1.71c-.38,0-.79,0-1.21,0a3,3,0,0,1-.1-.66,2.77,2.77,0,0,1-1.8.7C154.17,212.49,152.79,211.2,152.79,209Zm3.41-2.86c-1.17,0-2.21,1-2.21,2.72a3,3,0,0,0,.57,1.92,1.79,1.79,0,0,0,1.48.73,2.36,2.36,0,0,0,1.46-.51c0-.14,0-1.45,0-4.31A1.59,1.59,0,0,0,156.2,206.17Z" transform="translate(50.26 0)"/><path d="M163,212.49c-1.92,0-3.06-1.53-3.06-3.56s1.3-3.58,3.1-3.58,3.07,1.44,3.07,3.54S164.81,212.49,163,212.49Zm0-6.23c-1.21,0-1.93,1.13-1.93,2.63,0,1.71.82,2.65,1.93,2.65a1.64,1.64,0,0,0,1.36-.71,3,3,0,0,0,.56-1.94C164.93,207.33,164.2,206.26,163,206.26Z" transform="translate(50.26 0)"/><path d="M167.38,204.7c0-.27,0-1.81,0-2a5.06,5.06,0,0,0,1-.22h.19V211a10.5,10.5,0,0,0,0,1.42c-.38,0-.82,0-1.24,0,0-.12,0-1.27,0-1.46Z" transform="translate(50.26 0)"/><path d="M172.89,212.49c-1.93,0-3.07-1.53-3.07-3.56s1.3-3.58,3.11-3.58,3.06,1.44,3.06,3.54S174.71,212.49,172.89,212.49Zm0-6.23c-1.21,0-1.92,1.13-1.92,2.63,0,1.71.82,2.65,1.92,2.65a1.65,1.65,0,0,0,1.37-.71,3.1,3.1,0,0,0,.55-1.94C174.82,207.33,174.1,206.26,172.9,206.26Z" transform="translate(50.26 0)"/><path d="M177.28,207.25c0-.46-.06-1.38-.06-1.6a3.66,3.66,0,0,0,1-.25h.19v1.43a2,2,0,0,1,1.76-1.48,1.82,1.82,0,0,1,1.06.29,3.74,3.74,0,0,0-.39,1,1.49,1.49,0,0,0-.78-.22c-.66,0-1.17.34-1.65,1.42v3.21c0,.74,0,1.05.05,1.35-.37,0-.79,0-1.22,0Z" transform="translate(50.26 0)"/><path d="M186.12,211.57a2.14,2.14,0,0,0,1-.25.9.9,0,0,0,.47-.87c0-.57-.39-.76-1.47-1.17a6.83,6.83,0,0,1-1.38-.74,1.59,1.59,0,0,1-.55-1.36c0-1.13.89-1.83,2.23-1.83a4.09,4.09,0,0,1,2,.46,1.84,1.84,0,0,0-.27.71l-.09,0a3.87,3.87,0,0,0-1.49-.3c-.66,0-1.27.21-1.27.89s.49.9,1.33,1.17a4.32,4.32,0,0,1,1.51.8,1.8,1.8,0,0,1,.45,1.3c0,1.42-1.21,2.06-2.47,2.06a3.53,3.53,0,0,1-2-.59,2.68,2.68,0,0,0,.29-.76A3.16,3.16,0,0,0,186.12,211.57Z" transform="translate(50.26 0)"/><path d="M190.49,202.89a.73.73,0,0,1,.74.71.74.74,0,0,1-1.48,0A.73.73,0,0,1,190.49,202.89Zm-.59,8.17v-3.51c0-.34,0-1.72-.05-1.9a3.38,3.38,0,0,0,1-.25h.19v5.66c0,.74,0,1.18,0,1.35-.37,0-.79,0-1.22,0Z" transform="translate(50.26 0)"/><path d="M193,206.34l-1-.13v-.6l1-.21.09-1.37a3.69,3.69,0,0,0,.91-.23h.16v1.6h1.93a3.61,3.61,0,0,0,0,.54,2.49,2.49,0,0,0,0,.4h-1.89v3.93c0,.94.39,1.23,1,1.23a1.7,1.7,0,0,0,1-.34,3,3,0,0,0,.26.77,2.65,2.65,0,0,1-1.54.56c-1.1,0-1.85-.68-1.85-2.07Z" transform="translate(50.26 0)"/><path d="M205.69,212a1.35,1.35,0,0,1-1,.48c-.61,0-1.06-.39-1.22-1.22a3.43,3.43,0,0,1-.86.83,2.2,2.2,0,0,1-1.3.39,1.61,1.61,0,0,1-1.72-1.69c0-1,.94-2.11,3.82-2.46v-.7c0-.95-.42-1.39-1.24-1.39a1.13,1.13,0,0,0-1.26,1.27c-.22,0-.75.06-1.08.12,0,0,0-.12,0-.17,0-1.52,1.1-2.12,2.42-2.12a2.1,2.1,0,0,1,2.31,2.26v2.85c0,.62.08,1.12.53,1.12a.54.54,0,0,0,.38-.16A1.48,1.48,0,0,0,205.69,212Zm-2.29-3c-.94.14-2.69.49-2.69,1.68,0,.63.48.92,1.06.92a2.32,2.32,0,0,0,1.63-1Z" transform="translate(50.26 0)"/><path d="M206.57,207.25a14.93,14.93,0,0,0-.07-1.6,3.53,3.53,0,0,0,1-.25h.2v1.42a3,3,0,0,1,2.39-1.47,1.84,1.84,0,0,1,1.91,1.47,3,3,0,0,1,2.39-1.47,1.88,1.88,0,0,1,2,2v3.76c0,.69,0,1.05,0,1.27-.37,0-.79,0-1.22,0v-4.74a1.18,1.18,0,0,0-.4-1.06,1.38,1.38,0,0,0-.83-.28,2.63,2.63,0,0,0-1.92,1.17v3.6a11,11,0,0,0,.06,1.27c-.41,0-.82,0-1.23,0v-4.74a1.18,1.18,0,0,0-.4-1.06,1.36,1.36,0,0,0-.83-.28,1.93,1.93,0,0,0-1.08.37,3.59,3.59,0,0,0-.87.87v3.45c0,.74,0,1.14,0,1.35-.38,0-.78,0-1.21,0Z" transform="translate(50.26 0)"/><path d="M220.75,205.35a2.58,2.58,0,0,1,2.71,2.78,6.07,6.07,0,0,1-.06.85h-4.55v.19a2.14,2.14,0,0,0,2.14,2.38,3.1,3.1,0,0,0,1.92-.67,3.38,3.38,0,0,0,.38.66,2.68,2.68,0,0,1-1.17.71,4,4,0,0,1-1.3.24c-1.78,0-3.15-1.2-3.15-3.54C217.67,206.92,219,205.35,220.75,205.35Zm1.67,2.86c0-.89-.33-2-1.63-2a2,2,0,0,0-1.92,2Z" transform="translate(50.26 0)"/><path d="M225,206.34l-1-.13v-.6l1-.21.1-1.37a3.92,3.92,0,0,0,.91-.23h.15v1.6h1.94a2.65,2.65,0,0,0-.05.54c0,.15,0,.28,0,.4h-1.89v3.93c0,.94.39,1.23,1,1.23a1.73,1.73,0,0,0,1-.34,2.41,2.41,0,0,0,.26.77,2.7,2.7,0,0,1-1.55.56c-1.09,0-1.85-.68-1.85-2.07Z" transform="translate(50.26 0)"/><path d="M229.23,213.49v-.08a1,1,0,0,0,.82-1c-.52,0-.85-.25-.85-.66a.72.72,0,0,1,.77-.74c.53,0,.83.37.83,1.09a1.84,1.84,0,0,1-1.23,1.73A2.05,2.05,0,0,0,229.23,213.49Z" transform="translate(50.26 0)"/><path d="M237.43,205.35a2.66,2.66,0,0,1,1.67.52,1.83,1.83,0,0,1,.67,1.56v.12h-.26a3.94,3.94,0,0,0-.77.06v-.19a1.23,1.23,0,0,0-.28-.79,1.19,1.19,0,0,0-1-.38,1.65,1.65,0,0,0-1.38.75,3.17,3.17,0,0,0-.53,1.86c0,1.52.66,2.69,2.15,2.69a3.22,3.22,0,0,0,1.85-.59,2.63,2.63,0,0,0,.37.66,3.62,3.62,0,0,1-2.38.87c-1.81,0-3.15-1.28-3.15-3.54C234.36,206.92,235.62,205.35,237.43,205.35Z" transform="translate(50.26 0)"/><path d="M243.68,212.49c-1.92,0-3.06-1.53-3.06-3.56s1.3-3.58,3.1-3.58,3.07,1.44,3.07,3.54S245.5,212.49,243.68,212.49Zm0-6.23c-1.21,0-1.93,1.13-1.93,2.63,0,1.71.82,2.65,1.93,2.65a1.64,1.64,0,0,0,1.36-.71,3,3,0,0,0,.56-1.94C245.62,207.33,244.89,206.26,243.7,206.26Z" transform="translate(50.26 0)"/><path d="M248.08,207.25c0-.46-.05-1.59-.07-1.6a3.37,3.37,0,0,0,1-.25h.2v1.42a3,3,0,0,1,2.39-1.47,1.87,1.87,0,0,1,2,2v3.76a12.53,12.53,0,0,0,.06,1.27c-.41,0-.82,0-1.23,0v-4.74a1.18,1.18,0,0,0-.4-1.06,1.36,1.36,0,0,0-.83-.28,1.9,1.9,0,0,0-1.08.37,3.59,3.59,0,0,0-.87.87v3.45c0,.74,0,1.1,0,1.35-.38,0-.78,0-1.21,0Z" transform="translate(50.26 0)"/><path d="M256.85,211.57a2.21,2.21,0,0,0,1.06-.25.91.91,0,0,0,.46-.87c0-.57-.39-.76-1.47-1.17a6.48,6.48,0,0,1-1.37-.74,1.57,1.57,0,0,1-.56-1.36c0-1.13.89-1.83,2.23-1.83a4.09,4.09,0,0,1,2,.46,2,2,0,0,0-.27.71l-.09,0a3.82,3.82,0,0,0-1.48-.3c-.67,0-1.28.21-1.28.89s.5.9,1.33,1.17a4.32,4.32,0,0,1,1.51.8,1.75,1.75,0,0,1,.45,1.3c0,1.42-1.21,2.06-2.47,2.06a3.56,3.56,0,0,1-2-.59,2.68,2.68,0,0,0,.29-.76A3.19,3.19,0,0,0,256.85,211.57Z" transform="translate(50.26 0)"/><path d="M263.28,205.35a2.57,2.57,0,0,1,2.7,2.78,6.06,6.06,0,0,1-.05.85h-4.55v.19a2.14,2.14,0,0,0,2.13,2.38,3.08,3.08,0,0,0,1.92-.67,4,4,0,0,0,.38.66,2.68,2.68,0,0,1-1.17.71,4,4,0,0,1-1.3.24c-1.78,0-3.15-1.2-3.15-3.54C260.19,206.92,261.51,205.35,263.28,205.35Zm1.66,2.86c0-.89-.33-2-1.63-2a2,2,0,0,0-1.92,2Z" transform="translate(50.26 0)"/><path d="M269.89,205.35a2.66,2.66,0,0,1,1.67.52,1.83,1.83,0,0,1,.67,1.56v.12H272a3.78,3.78,0,0,0-.76.06v-.19a1.24,1.24,0,0,0-.29-.79,1.19,1.19,0,0,0-1-.38,1.65,1.65,0,0,0-1.38.75,3.17,3.17,0,0,0-.53,1.86c0,1.52.66,2.69,2.15,2.69A3.25,3.25,0,0,0,272,211a2.33,2.33,0,0,0,.36.66,3.62,3.62,0,0,1-2.38.87c-1.81,0-3.15-1.28-3.15-3.54C266.82,206.92,268.09,205.35,269.89,205.35Z" transform="translate(50.26 0)"/><path d="M273.74,206.34l-1-.13,0-.6,1-.21.09-1.37a3.69,3.69,0,0,0,.91-.23h.16v1.6h1.93a3.61,3.61,0,0,0-.05.54,2.49,2.49,0,0,0,0,.4h-1.89v3.93c0,.94.39,1.23,1,1.23a1.71,1.71,0,0,0,1-.34,3,3,0,0,0,.26.77,2.68,2.68,0,0,1-1.54.56c-1.1,0-1.85-.68-1.85-2.07Z" transform="translate(50.26 0)"/><path d="M280.67,205.35a2.57,2.57,0,0,1,2.7,2.78,6.06,6.06,0,0,1-.05.85h-4.55v.19a2.14,2.14,0,0,0,2.13,2.38,3.12,3.12,0,0,0,1.93-.67,4,4,0,0,0,.37.66,2.68,2.68,0,0,1-1.17.71,4,4,0,0,1-1.3.24c-1.78,0-3.14-1.2-3.14-3.54C277.59,206.92,278.9,205.35,280.67,205.35Zm1.66,2.86c0-.89-.32-2-1.62-2a2,2,0,0,0-1.93,2Z" transform="translate(50.26 0)"/><path d="M284.88,206.34l-1-.13v-.6l1-.21L285,204a3.69,3.69,0,0,0,.91-.23H286v1.6H288a2.7,2.7,0,0,0-.06.54,2.49,2.49,0,0,0,0,.4h-1.89v3.93c0,.94.39,1.23,1,1.23a1.7,1.7,0,0,0,1-.34,3,3,0,0,0,.26.77,2.65,2.65,0,0,1-1.54.56c-1.1,0-1.85-.68-1.85-2.07Z" transform="translate(50.26 0)"/><path d="M289.29,207.24c0-.8-.05-1.56-.07-1.73a7.08,7.08,0,0,0,1-.11h.2v4.67a1.32,1.32,0,0,0,.4,1.07,1.33,1.33,0,0,0,.85.34,2.72,2.72,0,0,0,1.84-1v-3.1c0-.92-.05-1.66-.06-1.88a7,7,0,0,0,1-.11h.21v5.19a10.4,10.4,0,0,0,.17,1.82c-.38,0-.79,0-1.22,0,0-.14-.1-.61-.12-1.18a3,3,0,0,1-2.29,1.22,2,2,0,0,1-2-2.11Z" transform="translate(50.26 0)"/><path d="M299.17,205.35a2.57,2.57,0,0,1,2.7,2.78,6.06,6.06,0,0,1-.05.85h-4.55v.19a2.14,2.14,0,0,0,2.13,2.38,3.12,3.12,0,0,0,1.93-.67,4,4,0,0,0,.37.66,2.68,2.68,0,0,1-1.17.71,4,4,0,0,1-1.3.24c-1.78,0-3.14-1.2-3.14-3.54C296.09,206.92,297.4,205.35,299.17,205.35Zm1.66,2.86c0-.89-.32-2-1.62-2a2,2,0,0,0-1.93,2Z" transform="translate(50.26 0)"/><path d="M303.17,207.25c0-.46-.06-1.38-.06-1.6a3.66,3.66,0,0,0,1-.25h.19v1.43a2,2,0,0,1,1.76-1.48,1.82,1.82,0,0,1,1.06.29,3.74,3.74,0,0,0-.39,1,1.49,1.49,0,0,0-.78-.22c-.66,0-1.17.34-1.65,1.42v3.21c0,.74,0,1.05.05,1.35-.37,0-.79,0-1.22,0Z" transform="translate(50.26 0)"/><path d="M89.78,227.61a1.33,1.33,0,0,1-1,.48c-.61,0-1.07-.39-1.23-1.22a3.54,3.54,0,0,1-.85.83,2.24,2.24,0,0,1-1.3.39,1.61,1.61,0,0,1-1.73-1.69c0-1,1-2.11,3.82-2.46v-.7c0-1-.42-1.39-1.24-1.39A1.13,1.13,0,0,0,85,223.12c-.22,0-.75.06-1.08.12,0-.05,0-.12,0-.17,0-1.52,1.11-2.12,2.42-2.12a2.1,2.1,0,0,1,2.31,2.26v2.85c0,.63.08,1.12.54,1.12a.51.51,0,0,0,.37-.16A1.64,1.64,0,0,0,89.78,227.61Zm-2.29-3c-.94.14-2.69.49-2.69,1.68,0,.63.48.92,1.06.92a2.3,2.3,0,0,0,1.63-1Z" transform="translate(50.26 0)"/><path d="M90.08,224.63c0-2.34,1.45-3.68,3.18-3.68a2.91,2.91,0,0,1,1.51.39c0-.37,0-2.82,0-3a8.67,8.67,0,0,0,1-.22h.18v8.18a8.71,8.71,0,0,0,.18,1.71c-.38,0-.78,0-1.21,0a3.12,3.12,0,0,1-.09-.66,2.78,2.78,0,0,1-1.81.7C91.45,228.09,90.08,226.8,90.08,224.63Zm3.4-2.86c-1.17,0-2.21,1-2.21,2.72a3.09,3.09,0,0,0,.57,1.92,1.82,1.82,0,0,0,1.49.73,2.33,2.33,0,0,0,1.45-.51c0-.14,0-1.45,0-4.31A1.62,1.62,0,0,0,93.48,221.77Z" transform="translate(50.26 0)"/><path d="M98.24,218.5a.72.72,0,0,1,.74.7.74.74,0,0,1-1.48,0A.72.72,0,0,1,98.24,218.5Zm-.59,8.16v-3.51c0-.34,0-1.72-.05-1.9a3.38,3.38,0,0,0,1-.25h.19v5.66c0,.74,0,1.18,0,1.35-.37,0-.79,0-1.22,0Z" transform="translate(50.26 0)"/><path d="M100.58,223.16c0-1-.07-1.79-.08-1.91a4.34,4.34,0,0,0,1-.25h.19a5.55,5.55,0,0,0,0,.58,2.84,2.84,0,0,1,1.76-.63c1.58,0,2.93,1.24,2.93,3.42s-1.46,3.72-3.19,3.72a3.07,3.07,0,0,1-1.5-.4v1.92a10.59,10.59,0,0,0,0,1.18c-.38,0-.8,0-1.23,0,0-.17,0-2.1,0-2.27Zm4.65,1.35c0-1.6-.84-2.61-2-2.61a2.42,2.42,0,0,0-1.45.44v4.36a1.62,1.62,0,0,0,1.3.56C104.21,227.26,105.23,226.22,105.23,224.51Z" transform="translate(50.26 0)"/><path d="M108.3,218.5a.72.72,0,0,1,.74.7.74.74,0,0,1-1.48,0A.72.72,0,0,1,108.3,218.5Zm-.58,8.16v-3.51c0-.34,0-1.72-.06-1.9a3.38,3.38,0,0,0,1-.25h.2v5.66c0,.74,0,1.18,0,1.35-.38,0-.8,0-1.23,0Z" transform="translate(50.26 0)"/><path d="M112.14,227.17a2.14,2.14,0,0,0,1-.25.91.91,0,0,0,.47-.87c0-.57-.39-.76-1.47-1.17a6.57,6.57,0,0,1-1.38-.74,1.56,1.56,0,0,1-.56-1.35c0-1.14.9-1.84,2.24-1.84a4.14,4.14,0,0,1,2,.46,1.87,1.87,0,0,0-.28.71l-.09,0a3.83,3.83,0,0,0-1.48-.29c-.66,0-1.27.2-1.27.88s.49.9,1.32,1.17a4.16,4.16,0,0,1,1.51.81,1.73,1.73,0,0,1,.46,1.3c0,1.41-1.21,2.05-2.47,2.05a3.51,3.51,0,0,1-2-.59,2.69,2.69,0,0,0,.28-.76A3.22,3.22,0,0,0,112.14,227.17Z" transform="translate(50.26 0)"/><path d="M118.54,221a2.64,2.64,0,0,1,1.67.52,1.83,1.83,0,0,1,.67,1.56v.12h-.26a3.84,3.84,0,0,0-.76.06V223a1.16,1.16,0,0,0-1.32-1.17,1.63,1.63,0,0,0-1.37.75,3.17,3.17,0,0,0-.54,1.86c0,1.52.67,2.69,2.15,2.69a3.25,3.25,0,0,0,1.86-.59,2.33,2.33,0,0,0,.36.66,3.6,3.6,0,0,1-2.38.87c-1.8,0-3.14-1.27-3.14-3.54C115.48,222.53,116.74,221,118.54,221Z" transform="translate(50.26 0)"/><path d="M122.76,218.5a.73.73,0,0,1,.74.7.74.74,0,0,1-1.48,0A.72.72,0,0,1,122.76,218.5Zm-.59,8.16v-3.51c0-.34,0-1.72,0-1.9a3.53,3.53,0,0,0,1-.25h.19v5.66c0,.74,0,1.18,0,1.35-.38,0-.79,0-1.22,0Z" transform="translate(50.26 0)"/><path d="M125.07,222.85c0-.45,0-1.59-.06-1.6a3.44,3.44,0,0,0,1-.25h.19v1.42a3,3,0,0,1,2.39-1.47,1.87,1.87,0,0,1,2,2v3.76c0,.69,0,1,.05,1.27-.41,0-.82,0-1.22,0v-4.74a1.17,1.17,0,0,0-.41-1.06,1.36,1.36,0,0,0-.83-.28,1.93,1.93,0,0,0-1.08.37,3.59,3.59,0,0,0-.87.87v3.45c0,.74,0,1.1,0,1.35-.38,0-.78,0-1.21,0Z" transform="translate(50.26 0)"/><path d="M132.9,227.67a1.11,1.11,0,0,1-.81-1,1.6,1.6,0,0,1,.92-1.28,2.25,2.25,0,0,1-1-1.9,2.33,2.33,0,0,1,2.49-2.54,3.32,3.32,0,0,1,1.12.22l2.26-.11c0,.17,0,.31,0,.45v.39l-.08,0-1.3,0a2.52,2.52,0,0,1,.48,1.58,2.3,2.3,0,0,1-2.5,2.32,2.11,2.11,0,0,1-.91-.19,1.09,1.09,0,0,0-.47.74c0,.35.32.57.95.57h1.49c1.51,0,2.34.56,2.34,1.65,0,1.39-1.51,2.2-3.18,2.2a4.09,4.09,0,0,1-2.16-.51,1.36,1.36,0,0,1,.34-2.6Zm2.45.11h-1.8a1.19,1.19,0,0,0-.78,1c0,.63.74,1.15,2,1.15a3,3,0,0,0,1.5-.35,1,1,0,0,0,.63-.87C136.89,228.14,136.46,227.78,135.35,227.78Zm-.84-6.09c-1,0-1.37.84-1.37,1.71a1.53,1.53,0,0,0,1.38,1.65,1.14,1.14,0,0,0,1-.51,2.16,2.16,0,0,0,.34-1.17C135.9,222.53,135.47,221.69,134.51,221.69Z" transform="translate(50.26 0)"/><path d="M144.22,221a2.57,2.57,0,0,1,2.7,2.78,6.06,6.06,0,0,1,0,.85h-4.55v.19a2.14,2.14,0,0,0,2.13,2.38,3.12,3.12,0,0,0,1.93-.67,4,4,0,0,0,.37.66,2.79,2.79,0,0,1-1.17.72,4.2,4.2,0,0,1-1.3.23c-1.78,0-3.14-1.2-3.14-3.54C141.14,222.53,142.45,221,144.22,221Zm1.66,2.86c0-.9-.32-2-1.62-2a2,2,0,0,0-1.93,2Z" transform="translate(50.26 0)"/><path d="M148.21,220.3c0-.27,0-1.8,0-2a5,5,0,0,0,1-.22h.18v8.47a10.5,10.5,0,0,0,.05,1.42c-.37,0-.82,0-1.23,0,0-.12,0-1.27,0-1.46Z" transform="translate(50.26 0)"/><path d="M151.68,218.5a.72.72,0,0,1,.74.7.74.74,0,0,1-1.48,0A.72.72,0,0,1,151.68,218.5Zm-.58,8.16v-3.51c0-.34,0-1.72-.06-1.9a3.38,3.38,0,0,0,1-.25h.2v5.66c0,.74,0,1.18,0,1.35-.37,0-.79,0-1.22,0Z" transform="translate(50.26 0)"/><path d="M154.2,221.94l-1-.13v-.6l1-.21.09-1.37a4.16,4.16,0,0,0,.91-.22h.16V221h1.94a2.7,2.7,0,0,0-.06.54,2.49,2.49,0,0,0,0,.4h-1.89v3.93c0,.95.39,1.23,1,1.23a1.73,1.73,0,0,0,1-.34,2.41,2.41,0,0,0,.26.77,2.7,2.7,0,0,1-1.55.56c-1.09,0-1.85-.68-1.85-2.07Z" transform="translate(50.26 0)"/><path d="M158.47,229.09V229a1,1,0,0,0,.82-1c-.52,0-.85-.25-.85-.66a.72.72,0,0,1,.77-.74c.53,0,.83.37.83,1.09a1.84,1.84,0,0,1-1.24,1.73A1.7,1.7,0,0,0,158.47,229.09Z" transform="translate(50.26 0)"/><path d="M165.58,227.17a2.14,2.14,0,0,0,1-.25.91.91,0,0,0,.47-.87c0-.57-.39-.76-1.47-1.17a6.57,6.57,0,0,1-1.38-.74,1.59,1.59,0,0,1-.56-1.35c0-1.14.9-1.84,2.24-1.84a4.12,4.12,0,0,1,2,.46,1.7,1.7,0,0,0-.27.71l-.1,0a3.83,3.83,0,0,0-1.48-.29c-.66,0-1.27.2-1.27.88s.49.9,1.32,1.17a4.07,4.07,0,0,1,1.51.81,1.73,1.73,0,0,1,.46,1.3c0,1.41-1.21,2.05-2.47,2.05a3.51,3.51,0,0,1-2-.59,2.41,2.41,0,0,0,.28-.76A3.22,3.22,0,0,0,165.58,227.17Z" transform="translate(50.26 0)"/><path d="M172,221a2.57,2.57,0,0,1,2.7,2.78,6.06,6.06,0,0,1,0,.85H170.1v.19a2.14,2.14,0,0,0,2.13,2.38,3.1,3.1,0,0,0,1.93-.67,3.38,3.38,0,0,0,.38.66,2.92,2.92,0,0,1-1.17.72,4.3,4.3,0,0,1-1.3.23c-1.79,0-3.15-1.2-3.15-3.54C168.92,222.53,170.23,221,172,221Zm1.66,2.86c0-.9-.32-2-1.62-2a2,2,0,0,0-1.93,2Z" transform="translate(50.26 0)"/><path d="M175.55,224.63c0-2.34,1.46-3.68,3.18-3.68a2.86,2.86,0,0,1,1.51.39c0-.37,0-2.82,0-3a8.27,8.27,0,0,0,1-.22h.18v8.18a8.71,8.71,0,0,0,.18,1.71c-.37,0-.78,0-1.2,0a2.83,2.83,0,0,1-.1-.66,2.77,2.77,0,0,1-1.8.7C176.93,228.09,175.55,226.8,175.55,224.63Zm3.41-2.86c-1.18,0-2.22,1-2.22,2.72a3,3,0,0,0,.58,1.92,1.79,1.79,0,0,0,1.48.73,2.36,2.36,0,0,0,1.46-.51c0-.14,0-1.45,0-4.31A1.59,1.59,0,0,0,179,221.77Z" transform="translate(50.26 0)"/><path d="M185.29,224.63c0-2.34,1.45-3.68,3.18-3.68a2.91,2.91,0,0,1,1.51.39c0-.37,0-2.82,0-3a8.67,8.67,0,0,0,1-.22h.18v8.18a8.71,8.71,0,0,0,.18,1.71c-.38,0-.78,0-1.21,0a3.12,3.12,0,0,1-.09-.66,2.78,2.78,0,0,1-1.81.7C186.66,228.09,185.29,226.8,185.29,224.63Zm3.4-2.86c-1.17,0-2.21,1-2.21,2.72a3.09,3.09,0,0,0,.57,1.92,1.82,1.82,0,0,0,1.49.73,2.33,2.33,0,0,0,1.45-.51c0-.14,0-1.45,0-4.31A1.62,1.62,0,0,0,188.69,221.77Z" transform="translate(50.26 0)"/><path d="M193.45,218.5a.72.72,0,0,1,.74.7.74.74,0,0,1-1.48,0A.72.72,0,0,1,193.45,218.5Zm-.59,8.16v-3.51c0-.34,0-1.72-.05-1.9a3.38,3.38,0,0,0,1-.25H194v5.66c0,.74,0,1.18,0,1.35-.37,0-.79,0-1.22,0Z" transform="translate(50.26 0)"/><path d="M201.41,227.61a1.35,1.35,0,0,1-1,.48c-.61,0-1.06-.39-1.22-1.22a3.43,3.43,0,0,1-.86.83,2.2,2.2,0,0,1-1.3.39,1.61,1.61,0,0,1-1.72-1.69c0-1,.94-2.11,3.82-2.46v-.7c0-1-.42-1.39-1.24-1.39a1.13,1.13,0,0,0-1.26,1.27c-.22,0-.75.06-1.08.12,0-.05,0-.12,0-.17,0-1.52,1.1-2.12,2.42-2.12a2.1,2.1,0,0,1,2.31,2.26v2.85c0,.63.08,1.12.53,1.12a.54.54,0,0,0,.38-.16A1.48,1.48,0,0,0,201.41,227.61Zm-2.29-3c-.94.14-2.69.49-2.69,1.68,0,.63.48.92,1.06.92a2.32,2.32,0,0,0,1.63-1Z" transform="translate(50.26 0)"/><path d="M202.29,222.85a14.93,14.93,0,0,0-.07-1.6,3.53,3.53,0,0,0,1-.25h.2v1.42a3,3,0,0,1,2.39-1.47,1.84,1.84,0,0,1,1.91,1.47,3,3,0,0,1,2.39-1.47,1.88,1.88,0,0,1,2,2v3.76c0,.69,0,1,0,1.27-.37,0-.79,0-1.22,0v-4.74a1.2,1.2,0,0,0-.4-1.06,1.38,1.38,0,0,0-.83-.28,2.63,2.63,0,0,0-1.92,1.17v3.6a11,11,0,0,0,.06,1.27c-.41,0-.82,0-1.23,0v-4.74a1.2,1.2,0,0,0-.4-1.06,1.36,1.36,0,0,0-.83-.28,1.93,1.93,0,0,0-1.08.37,3.59,3.59,0,0,0-.87.87v3.45c0,.74,0,1.14,0,1.35-.38,0-.78,0-1.21,0Z" transform="translate(50.26 0)"/><path d="M216.45,222.85c0-.45-.06-1.59-.07-1.6a3.37,3.37,0,0,0,1-.25h.2v1.42A3,3,0,0,1,220,221a1.87,1.87,0,0,1,2,2v3.76c0,.69,0,1,.05,1.27-.4,0-.82,0-1.22,0v-4.74a1.2,1.2,0,0,0-.4-1.06,1.36,1.36,0,0,0-.83-.28,1.9,1.9,0,0,0-1.08.37,3.59,3.59,0,0,0-.87.87v3.45c0,.74,0,1.1,0,1.35-.38,0-.78,0-1.21,0Z" transform="translate(50.26 0)"/><path d="M226.31,228.09c-1.92,0-3.06-1.53-3.06-3.56s1.3-3.58,3.1-3.58,3.07,1.45,3.07,3.54S228.13,228.09,226.31,228.09Zm0-6.23c-1.21,0-1.93,1.13-1.93,2.63,0,1.72.82,2.65,1.93,2.65a1.64,1.64,0,0,0,1.36-.71,3,3,0,0,0,.56-1.94C228.25,222.93,227.52,221.86,226.33,221.86Z" transform="translate(50.26 0)"/><path d="M230.71,222.85c0-.45-.06-1.59-.07-1.6a3.37,3.37,0,0,0,1-.25h.2v1.42a3,3,0,0,1,2.39-1.47,1.87,1.87,0,0,1,2,2v3.76c0,.69,0,1,.05,1.27-.4,0-.81,0-1.22,0v-4.74a1.2,1.2,0,0,0-.4-1.06,1.36,1.36,0,0,0-.83-.28,1.9,1.9,0,0,0-1.08.37,3.59,3.59,0,0,0-.87.87v3.45c0,.74,0,1.1,0,1.35-.38,0-.78,0-1.21,0Z" transform="translate(50.26 0)"/><path d="M237.94,222.84c0-.8-.06-1.56-.07-1.73a7.35,7.35,0,0,0,1-.11h.2v4.67a1.27,1.27,0,0,0,1.24,1.41,2.73,2.73,0,0,0,1.85-1V223c0-.92,0-1.66-.07-1.88a7.1,7.1,0,0,0,1-.11h.21v5.19a9.49,9.49,0,0,0,.17,1.82c-.38,0-.79,0-1.22,0a8.15,8.15,0,0,1-.12-1.18,3.08,3.08,0,0,1-2.29,1.22,2,2,0,0,1-2-2.11Z" transform="translate(50.26 0)"/><path d="M245.19,222.85a14.93,14.93,0,0,0-.07-1.6,3.53,3.53,0,0,0,1-.25h.2v1.42a3,3,0,0,1,2.39-1.47,1.84,1.84,0,0,1,1.91,1.47,3,3,0,0,1,2.39-1.47,1.88,1.88,0,0,1,2,2v3.76c0,.69,0,1,0,1.27-.37,0-.79,0-1.22,0v-4.74a1.2,1.2,0,0,0-.4-1.06,1.38,1.38,0,0,0-.83-.28,2.63,2.63,0,0,0-1.92,1.17v3.6a11,11,0,0,0,.06,1.27c-.41,0-.82,0-1.23,0v-4.74a1.2,1.2,0,0,0-.4-1.06,1.36,1.36,0,0,0-.83-.28,1.93,1.93,0,0,0-1.08.37,3.59,3.59,0,0,0-.87.87v3.45c0,.74,0,1.14,0,1.35-.38,0-.78,0-1.21,0Z" transform="translate(50.26 0)"/><path d="M256.75,222.85a14.93,14.93,0,0,0-.07-1.6,3.61,3.61,0,0,0,1-.25h.2v1.42a3,3,0,0,1,2.39-1.47,1.85,1.85,0,0,1,1.91,1.47,3,3,0,0,1,2.39-1.47,1.88,1.88,0,0,1,2,2v3.76c0,.69,0,1,0,1.27-.38,0-.79,0-1.22,0v-4.74a1.17,1.17,0,0,0-.41-1.06,1.36,1.36,0,0,0-.83-.28,2.63,2.63,0,0,0-1.91,1.17v3.6c0,.69,0,1.1.05,1.27-.4,0-.82,0-1.22,0v-4.74a1.2,1.2,0,0,0-.4-1.06,1.36,1.36,0,0,0-.83-.28,1.9,1.9,0,0,0-1.08.37,3.59,3.59,0,0,0-.87.87v3.45c0,.74,0,1.14,0,1.35-.38,0-.78,0-1.21,0Z" transform="translate(50.26 0)"/><path d="M270.53,226.22c.06.22.17.53.18.63l.09-.33.1-.3.45-1.28c.19-.57.37-1.14.55-1.7l.5-1.52.23-.72a11.81,11.81,0,0,0,1.19,0l-.49,1.33-.91,2.51-.89,2.5-.44,1.26a4.58,4.58,0,0,1-.8,1.56,1.72,1.72,0,0,1-1.41.62,2.22,2.22,0,0,1-1.23-.38,2.27,2.27,0,0,0,.35-.8,2.17,2.17,0,0,0,.86.23c.46,0,.76-.35,1.06-1.09.06-.21.18-.45.27-.75l-2.76-7a5.94,5.94,0,0,0,.65,0,5.37,5.37,0,0,0,.63,0Z" transform="translate(50.26 0)"/><path d="M277.25,222.85c0-.45-.05-1.59-.07-1.6a3.37,3.37,0,0,0,1-.25h.2v1.42a3,3,0,0,1,2.39-1.47,1.87,1.87,0,0,1,2,2v3.76c0,.69,0,1,.05,1.27-.4,0-.81,0-1.22,0v-4.74a1.2,1.2,0,0,0-.4-1.06,1.36,1.36,0,0,0-.83-.28,1.9,1.9,0,0,0-1.08.37,3.59,3.59,0,0,0-.87.87v3.45c0,.74,0,1.1,0,1.35-.38,0-.78,0-1.21,0Z" transform="translate(50.26 0)"/><path d="M285.07,218.5a.72.72,0,0,1,.74.7.74.74,0,0,1-1.48,0A.73.73,0,0,1,285.07,218.5Zm-.58,8.16v-3.51c0-.34,0-1.72-.05-1.9a3.39,3.39,0,0,0,1-.25h.2v5.66c0,.74,0,1.18,0,1.35-.38,0-.8,0-1.22,0Z" transform="translate(50.26 0)"/><path d="M287.83,228h-.47v-8.33c0-.24,0-1.24,0-1.34a5.06,5.06,0,0,0,1-.22h.17c0,.35,0,2.95,0,3.44a2.79,2.79,0,0,1,1.75-.61c1.58,0,2.93,1.24,2.93,3.42s-1.46,3.72-3.17,3.72a3.4,3.4,0,0,1-1.69-.48Zm4.17-3.5c0-1.6-.83-2.61-2-2.61a2.4,2.4,0,0,0-1.44.44c0,2.9,0,4.22,0,4.36a1.62,1.62,0,0,0,1.3.56C291,227.26,292,226.22,292,224.51Z" transform="translate(50.26 0)"/><path d="M294.5,220.28c0-.39,0-1.86,0-1.94a5.15,5.15,0,0,0,1-.22h.18v4.31a3,3,0,0,1,2.39-1.48,1.88,1.88,0,0,1,2,2v3.76c0,.69,0,1.15,0,1.27a12.13,12.13,0,0,0-1.22,0v-4.74a1.17,1.17,0,0,0-.41-1.06,1.41,1.41,0,0,0-.83-.28,2.62,2.62,0,0,0-2,1.26v3.36a10.12,10.12,0,0,0,.05,1.42c-.4,0-.82,0-1.23,0,0-.16,0-1.34,0-1.47Z" transform="translate(50.26 0)"/><path d="M98.49,236.55a2.58,2.58,0,0,1,2.71,2.78,8.08,8.08,0,0,1,0,.85H96.6v.19a2.13,2.13,0,0,0,2.13,2.38,3.1,3.1,0,0,0,1.92-.67,4,4,0,0,0,.38.66,2.79,2.79,0,0,1-1.17.72,4.3,4.3,0,0,1-1.3.23c-1.78,0-3.15-1.2-3.15-3.54C95.41,238.12,96.73,236.55,98.49,236.55Zm1.67,2.86c0-.9-.33-2-1.63-2a2,2,0,0,0-1.92,2Z" transform="translate(50.26 0)"/><path d="M102.47,238.44c0-.8,0-1.56-.06-1.73a7.35,7.35,0,0,0,1-.11h.19v4.67a1.32,1.32,0,0,0,.4,1.07,1.34,1.34,0,0,0,.85.33,2.74,2.74,0,0,0,1.85-1v-3.1c0-.92-.06-1.66-.07-1.88a7.24,7.24,0,0,0,1-.11h.21v5.19a10.65,10.65,0,0,0,.16,1.82c-.37,0-.79,0-1.22,0a10.88,10.88,0,0,1-.11-1.18,3.08,3.08,0,0,1-2.29,1.22,2,2,0,0,1-2-2.11Z" transform="translate(50.26 0)"/><path d="M110.3,234.09a.74.74,0,0,1,.74.71.74.74,0,0,1-1.48,0A.73.73,0,0,1,110.3,234.09Zm-.59,8.17v-3.51c0-.34,0-1.72,0-1.9a3.46,3.46,0,0,0,1-.25h.19v5.66c0,.74,0,1.18,0,1.35-.38,0-.79,0-1.22,0Z" transform="translate(50.26 0)"/><path d="M114.13,242.77a2.21,2.21,0,0,0,1.06-.25.91.91,0,0,0,.46-.87c0-.57-.39-.76-1.47-1.17a6.48,6.48,0,0,1-1.37-.74,1.57,1.57,0,0,1-.56-1.36c0-1.13.89-1.83,2.23-1.83a4.09,4.09,0,0,1,2,.46,2,2,0,0,0-.27.71l-.09.05a3.83,3.83,0,0,0-1.48-.29c-.67,0-1.28.2-1.28.88s.5.9,1.33,1.17a4.32,4.32,0,0,1,1.51.8,1.76,1.76,0,0,1,.45,1.31c0,1.41-1.21,2.05-2.47,2.05a3.56,3.56,0,0,1-2-.59,2.68,2.68,0,0,0,.29-.76A3.16,3.16,0,0,0,114.13,242.77Z" transform="translate(50.26 0)"/><path d="M117.93,238.45a14.93,14.93,0,0,0-.07-1.6,3.61,3.61,0,0,0,1-.25h.2V238a3,3,0,0,1,2.39-1.47A1.85,1.85,0,0,1,123.4,238a3,3,0,0,1,2.39-1.47,1.88,1.88,0,0,1,2,2v3.76c0,.69,0,1,0,1.27-.38,0-.79,0-1.22,0v-4.74a1.18,1.18,0,0,0-.4-1.06,1.39,1.39,0,0,0-.84-.28,2.63,2.63,0,0,0-1.91,1.17v3.6a11,11,0,0,0,.06,1.27c-.41,0-.82,0-1.23,0v-4.74a1.18,1.18,0,0,0-.4-1.06,1.36,1.36,0,0,0-.83-.28,1.9,1.9,0,0,0-1.08.37,3.59,3.59,0,0,0-.87.87v3.45c0,.74,0,1.14,0,1.35-.38,0-.78,0-1.21,0Z" transform="translate(50.26 0)"/><path d="M132.1,243.69c-1.93,0-3.07-1.53-3.07-3.56s1.3-3.58,3.11-3.58,3.07,1.45,3.07,3.54S133.92,243.69,132.1,243.69Zm0-6.23c-1.21,0-1.92,1.13-1.92,2.63,0,1.71.82,2.65,1.92,2.65a1.65,1.65,0,0,0,1.37-.71,3.11,3.11,0,0,0,.56-1.94C134,238.53,133.31,237.46,132.11,237.46Z" transform="translate(50.26 0)"/><path d="M136,240.23c0-2.34,1.45-3.68,3.18-3.68a2.91,2.91,0,0,1,1.51.39c0-.37,0-2.82,0-3a8.27,8.27,0,0,0,1-.22h.18v8.18a8.71,8.71,0,0,0,.18,1.71c-.38,0-.78,0-1.21,0a4.29,4.29,0,0,1-.09-.66,2.78,2.78,0,0,1-1.81.7C137.41,243.69,136,242.4,136,240.23Zm3.4-2.86c-1.17,0-2.21,1-2.21,2.72a3.09,3.09,0,0,0,.57,1.92,1.82,1.82,0,0,0,1.49.73,2.31,2.31,0,0,0,1.45-.51c0-.14,0-1.45,0-4.31A1.61,1.61,0,0,0,139.44,237.37Z" transform="translate(50.26 0)"/><path d="M146.44,237.54l-1-.13v-.6l1-.21.09-1.37a3.92,3.92,0,0,0,.91-.23h.15v1.6h1.94a2.65,2.65,0,0,0-.05.54c0,.15,0,.28,0,.4h-1.88v3.93c0,.94.39,1.23,1,1.23a1.71,1.71,0,0,0,1-.34,2.41,2.41,0,0,0,.26.77,2.7,2.7,0,0,1-1.55.56c-1.09,0-1.84-.68-1.84-2.07Z" transform="translate(50.26 0)"/><path d="M151.44,234.09a.73.73,0,0,1,.74.71.74.74,0,0,1-1.48,0A.73.73,0,0,1,151.44,234.09Zm-.58,8.17v-3.51c0-.34,0-1.72-.06-1.9a3.38,3.38,0,0,0,1-.25h.2v5.66c0,.74,0,1.18,0,1.35-.38,0-.8,0-1.23,0Z" transform="translate(50.26 0)"/><path d="M153.76,238.45c0-.45-.06-1.59-.07-1.6a3.37,3.37,0,0,0,1-.25h.2V238a3,3,0,0,1,2.39-1.47,1.87,1.87,0,0,1,2,2v3.76c0,.69,0,1,.05,1.27-.4,0-.82,0-1.22,0v-4.74a1.18,1.18,0,0,0-.4-1.06,1.38,1.38,0,0,0-.83-.28,1.9,1.9,0,0,0-1.08.37,3.59,3.59,0,0,0-.87.87v3.45c0,.74,0,1.1,0,1.35-.37,0-.78,0-1.2,0Z" transform="translate(50.26 0)"/><path d="M163.62,236.55a2.64,2.64,0,0,1,1.67.52,1.83,1.83,0,0,1,.67,1.56v.12h-.26a3.78,3.78,0,0,0-.76.06v-.19a1.24,1.24,0,0,0-.29-.79,1.19,1.19,0,0,0-1-.38,1.65,1.65,0,0,0-1.38.75,3.17,3.17,0,0,0-.53,1.86c0,1.52.66,2.69,2.15,2.69a3.25,3.25,0,0,0,1.86-.59,2.33,2.33,0,0,0,.36.66,3.62,3.62,0,0,1-2.38.87c-1.81,0-3.15-1.28-3.15-3.54C160.55,238.12,161.82,236.55,163.62,236.55Z" transform="translate(50.26 0)"/><path d="M167.83,234.09a.74.74,0,0,1,.75.71.75.75,0,0,1-1.49,0A.74.74,0,0,1,167.83,234.09Zm-.58,8.17v-3.51c0-.34,0-1.72-.05-1.9a3.39,3.39,0,0,0,1-.25h.2v5.66c0,.74,0,1.18,0,1.35-.38,0-.79,0-1.22,0Z" transform="translate(50.26 0)"/><path d="M169.69,240.23c0-2.34,1.46-3.68,3.19-3.68a2.91,2.91,0,0,1,1.51.39c0-.37,0-2.82,0-3a8.53,8.53,0,0,0,1-.22h.19v8.18a8,8,0,0,0,.18,1.71c-.38,0-.78,0-1.21,0a3.25,3.25,0,0,1-.09-.66,2.8,2.8,0,0,1-1.81.7C171.07,243.69,169.69,242.4,169.69,240.23Zm3.41-2.86c-1.17,0-2.21,1-2.21,2.72a3,3,0,0,0,.57,1.92,1.81,1.81,0,0,0,1.48.73,2.36,2.36,0,0,0,1.46-.51c0-.14,0-1.45,0-4.31A1.62,1.62,0,0,0,173.1,237.37Z" transform="translate(50.26 0)"/><path d="M177.26,238.44c0-.8,0-1.56-.07-1.73a7.08,7.08,0,0,0,1-.11h.2v4.67a1.26,1.26,0,0,0,1.25,1.4,2.71,2.71,0,0,0,1.84-1v-3.1c0-.92-.05-1.66-.06-1.88a7.24,7.24,0,0,0,1-.11h.2v5.19a10.4,10.4,0,0,0,.17,1.82c-.37,0-.79,0-1.22,0,0-.14-.1-.61-.12-1.18a3,3,0,0,1-2.28,1.22,2,2,0,0,1-2-2.11Z" transform="translate(50.26 0)"/><path d="M184.51,238.45c0-.45,0-1.59-.06-1.6a3.44,3.44,0,0,0,1-.25h.19V238a3,3,0,0,1,2.39-1.47,1.87,1.87,0,0,1,2,2v3.76c0,.69,0,1,.05,1.27-.4,0-.82,0-1.22,0v-4.74a1.18,1.18,0,0,0-.4-1.06,1.41,1.41,0,0,0-.84-.28,1.93,1.93,0,0,0-1.08.37,3.59,3.59,0,0,0-.87.87v3.45c0,.74,0,1.1,0,1.35-.38,0-.78,0-1.21,0Z" transform="translate(50.26 0)"/><path d="M192,237.54l-1-.13v-.6l1-.21.1-1.37A3.92,3.92,0,0,0,193,235h.15v1.6h1.94a2.65,2.65,0,0,0,0,.54c0,.15,0,.28,0,.4h-1.89v3.93c0,.94.39,1.23,1,1.23a1.73,1.73,0,0,0,1-.34,2.41,2.41,0,0,0,.26.77,2.7,2.7,0,0,1-1.55.56c-1.09,0-1.85-.68-1.85-2.07Z" transform="translate(50.26 0)"/><path d="M199,238.44c0-.8,0-1.56-.06-1.73a7.35,7.35,0,0,0,1-.11h.19v4.67a1.32,1.32,0,0,0,.4,1.07,1.34,1.34,0,0,0,.85.33,2.74,2.74,0,0,0,1.85-1v-3.1c0-.92-.06-1.66-.07-1.88a7.24,7.24,0,0,0,1-.11h.21v5.19a9.49,9.49,0,0,0,.17,1.82c-.38,0-.8,0-1.23,0a10.88,10.88,0,0,1-.11-1.18,3.08,3.08,0,0,1-2.29,1.22,2,2,0,0,1-2-2.11Z" transform="translate(50.26 0)"/><path d="M206.44,237.54l-1-.13v-.6l1-.21.09-1.37a3.88,3.88,0,0,0,.92-.23h.15v1.6h1.94a2.65,2.65,0,0,0,0,.54c0,.15,0,.28,0,.4h-1.89v3.93c0,.94.39,1.23,1,1.23a1.73,1.73,0,0,0,1-.34,2.41,2.41,0,0,0,.26.77,2.7,2.7,0,0,1-1.55.56c-1.09,0-1.85-.68-1.85-2.07Z" transform="translate(50.26 0)"/><path d="M213.46,235.9c0-.27,0-1.81,0-2a5.06,5.06,0,0,0,1-.22h.18v8.47a9.88,9.88,0,0,0,.06,1.42c-.38,0-.82,0-1.24,0,0-.12,0-1.27,0-1.46Z" transform="translate(50.26 0)"/><path d="M222,243.21a1.35,1.35,0,0,1-1,.48c-.61,0-1.06-.39-1.22-1.22a3.43,3.43,0,0,1-.86.83,2.2,2.2,0,0,1-1.3.39,1.62,1.62,0,0,1-1.73-1.69c0-1,1-2.11,3.83-2.46v-.7c0-1-.42-1.39-1.24-1.39a1.13,1.13,0,0,0-1.26,1.27c-.22,0-.75.06-1.08.12,0-.05,0-.12,0-.17,0-1.52,1.1-2.12,2.42-2.12a2.1,2.1,0,0,1,2.31,2.26v2.85c0,.63.08,1.12.53,1.12a.54.54,0,0,0,.38-.16A1.48,1.48,0,0,0,222,243.21Zm-2.29-3c-.94.14-2.69.49-2.69,1.68,0,.63.48.92,1.06.92a2.32,2.32,0,0,0,1.63-1Z" transform="translate(50.26 0)"/><path d="M225.37,243.69c-1.92,0-3.07-1.53-3.07-3.56s1.3-3.58,3.11-3.58,3.07,1.45,3.07,3.54S227.19,243.69,225.37,243.69Zm0-6.23c-1.2,0-1.92,1.13-1.92,2.63,0,1.71.82,2.65,1.92,2.65a1.64,1.64,0,0,0,1.37-.71,3,3,0,0,0,.56-1.94C227.31,238.53,226.58,237.46,225.38,237.46Z" transform="translate(50.26 0)"/><path d="M229.77,238.45c0-.45-.07-1.38-.07-1.6a3.51,3.51,0,0,0,1-.25h.2V238a2,2,0,0,1,1.75-1.48,1.85,1.85,0,0,1,1.07.29,3.42,3.42,0,0,0-.39,1,1.51,1.51,0,0,0-.78-.22c-.67,0-1.17.34-1.65,1.42v3.21c0,.74,0,1.05.05,1.35-.38,0-.79,0-1.22,0Z" transform="translate(50.26 0)"/><path d="M236.94,236.55a2.58,2.58,0,0,1,2.71,2.78,6.07,6.07,0,0,1-.06.85H235v.19a2.14,2.14,0,0,0,2.14,2.38,3.1,3.1,0,0,0,1.92-.67,3.38,3.38,0,0,0,.38.66,2.92,2.92,0,0,1-1.17.72,4.3,4.3,0,0,1-1.3.23c-1.78,0-3.15-1.2-3.15-3.54C233.86,238.12,235.17,236.55,236.94,236.55Zm1.67,2.86c0-.9-.33-2-1.63-2a2,2,0,0,0-1.92,2Z" transform="translate(50.26 0)"/><path d="M243.57,236.55a2.58,2.58,0,0,1,2.71,2.78,6.07,6.07,0,0,1-.06.85h-4.55v.19a2.14,2.14,0,0,0,2.14,2.38,3.1,3.1,0,0,0,1.92-.67,3.38,3.38,0,0,0,.38.66,2.92,2.92,0,0,1-1.17.72,4.3,4.3,0,0,1-1.3.23c-1.78,0-3.15-1.2-3.15-3.54C240.49,238.12,241.8,236.55,243.57,236.55Zm1.67,2.86c0-.9-.33-2-1.63-2a2,2,0,0,0-1.92,2Z" transform="translate(50.26 0)"/><path d="M247.78,237.54l-1-.13v-.6l1-.21.09-1.37a3.69,3.69,0,0,0,.91-.23h.16v1.6h1.94a2.65,2.65,0,0,0,0,.54c0,.15,0,.28,0,.4H249v3.93c0,.94.39,1.23,1,1.23a1.73,1.73,0,0,0,1-.34,2.41,2.41,0,0,0,.26.77,2.7,2.7,0,0,1-1.55.56c-1.09,0-1.85-.68-1.85-2.07Z" transform="translate(50.26 0)"/><path d="M254.36,240.23c0-2.34,1.46-3.68,3.19-3.68a2.85,2.85,0,0,1,1.5.39c0-.37,0-2.82,0-3a8.53,8.53,0,0,0,1-.22h.18v8.18a7.82,7.82,0,0,0,.19,1.71c-.38,0-.78,0-1.21,0a2.62,2.62,0,0,1-.09-.66,2.82,2.82,0,0,1-1.81.7C255.74,243.69,254.36,242.4,254.36,240.23Zm3.41-2.86c-1.17,0-2.21,1-2.21,2.72a3,3,0,0,0,.57,1.92,1.81,1.81,0,0,0,1.48.73,2.36,2.36,0,0,0,1.46-.51c0-.14,0-1.45,0-4.31A1.59,1.59,0,0,0,257.77,237.37Z" transform="translate(50.26 0)"/><path d="M264.57,243.69c-1.93,0-3.07-1.53-3.07-3.56s1.3-3.58,3.11-3.58,3.06,1.45,3.06,3.54S266.39,243.69,264.57,243.69Zm0-6.23c-1.21,0-1.92,1.13-1.92,2.63,0,1.71.81,2.65,1.92,2.65a1.62,1.62,0,0,0,1.36-.71,3,3,0,0,0,.56-1.94C266.5,238.53,265.78,237.46,264.58,237.46Z" transform="translate(50.26 0)"/><path d="M269,235.9c0-.27,0-1.81,0-2a5.3,5.3,0,0,0,1-.22h.18v8.47a10.5,10.5,0,0,0,.05,1.42c-.38,0-.82,0-1.24,0,0-.12,0-1.27,0-1.46Z" transform="translate(50.26 0)"/><path d="M274.46,243.69c-1.93,0-3.07-1.53-3.07-3.56s1.3-3.58,3.11-3.58,3.07,1.45,3.07,3.54S276.28,243.69,274.46,243.69Zm0-6.23c-1.21,0-1.92,1.13-1.92,2.63,0,1.71.82,2.65,1.92,2.65a1.65,1.65,0,0,0,1.37-.71,3.11,3.11,0,0,0,.56-1.94C276.4,238.53,275.67,237.46,274.47,237.46Z" transform="translate(50.26 0)"/><path d="M278.85,238.45c0-.45-.06-1.38-.06-1.6a3.66,3.66,0,0,0,1-.25H280V238a2,2,0,0,1,1.76-1.48,1.82,1.82,0,0,1,1.06.29,3.74,3.74,0,0,0-.39,1,1.49,1.49,0,0,0-.78-.22c-.66,0-1.17.34-1.65,1.42v3.21c0,.74,0,1.05.05,1.35-.37,0-.79,0-1.22,0Z" transform="translate(50.26 0)"/><path d="M286,236.55a2.57,2.57,0,0,1,2.7,2.78,6.06,6.06,0,0,1-.05.85h-4.55v.19a2.14,2.14,0,0,0,2.13,2.38,3.12,3.12,0,0,0,1.93-.67,4,4,0,0,0,.37.66,2.79,2.79,0,0,1-1.17.72,4.2,4.2,0,0,1-1.3.23c-1.78,0-3.14-1.2-3.14-3.54C283,238.12,284.26,236.55,286,236.55Zm1.66,2.86c0-.9-.32-2-1.62-2a2,2,0,0,0-1.93,2Z" transform="translate(50.26 0)"/><path d="M91.9,254.05a15.54,15.54,0,0,0-.06-1.6,4.06,4.06,0,0,0,1-.25h.19v1.42a3,3,0,0,1,2.39-1.47,1.86,1.86,0,0,1,1.92,1.47,3,3,0,0,1,2.39-1.47,1.88,1.88,0,0,1,2,2v3.76c0,.69,0,1.05,0,1.27-.38,0-.8,0-1.23,0V254.5a1.18,1.18,0,0,0-.4-1.05,1.36,1.36,0,0,0-.83-.28,2.59,2.59,0,0,0-1.91,1.17v3.6c0,.69,0,1.1,0,1.27-.4,0-.82,0-1.22,0V254.5a1.15,1.15,0,0,0-.41-1.05,1.36,1.36,0,0,0-.83-.28,1.93,1.93,0,0,0-1.08.37,3.59,3.59,0,0,0-.87.87v3.45c0,.74,0,1.14,0,1.35-.38,0-.78,0-1.21,0Z" transform="translate(50.26 0)"/><path d="M109.1,258.81a1.32,1.32,0,0,1-1,.48c-.61,0-1.07-.39-1.22-1.22a3.61,3.61,0,0,1-.86.83,2.24,2.24,0,0,1-1.3.39A1.62,1.62,0,0,1,103,257.6c0-1,1-2.11,3.82-2.46v-.7c0-.95-.41-1.39-1.23-1.39a1.13,1.13,0,0,0-1.26,1.27,10.14,10.14,0,0,0-1.08.12c0-.05,0-.12,0-.17,0-1.52,1.1-2.12,2.41-2.12a2.11,2.11,0,0,1,2.32,2.26v2.85c0,.62.08,1.12.53,1.12a.56.56,0,0,0,.38-.16A1.65,1.65,0,0,0,109.1,258.81Zm-2.29-3c-.93.14-2.69.49-2.69,1.68,0,.63.48.92,1.07.92a2.28,2.28,0,0,0,1.62-1Z" transform="translate(50.26 0)"/><path d="M110.61,258.87a1.14,1.14,0,0,1-.81-1,1.62,1.62,0,0,1,.93-1.29,2.21,2.21,0,0,1-1-1.89,2.33,2.33,0,0,1,2.5-2.54,3.38,3.38,0,0,1,1.12.22l2.26-.11a3.64,3.64,0,0,0,0,.45v.39l-.07.05-1.3,0a2.58,2.58,0,0,1,.48,1.58,2.3,2.3,0,0,1-2.51,2.32,2.14,2.14,0,0,1-.91-.19,1.13,1.13,0,0,0-.47.74c0,.35.33.57,1,.57h1.49c1.51,0,2.34.56,2.34,1.65,0,1.39-1.5,2.2-3.18,2.2a4.11,4.11,0,0,1-2.16-.51,1.47,1.47,0,0,1-.82-1.25A1.44,1.44,0,0,1,110.61,258.87Zm2.46.11h-1.81a1.19,1.19,0,0,0-.78,1c0,.63.74,1.15,2,1.15a3,3,0,0,0,1.51-.35,1,1,0,0,0,.62-.87C114.6,259.34,114.17,259,113.07,259Zm-.85-6.09c-1,0-1.36.83-1.36,1.71a1.53,1.53,0,0,0,1.37,1.65,1.13,1.13,0,0,0,1-.51,2.08,2.08,0,0,0,.34-1.17C113.61,253.72,113.18,252.89,112.22,252.89Z" transform="translate(50.26 0)"/><path d="M116.71,254.05c0-.46-.06-1.59-.07-1.6a3.37,3.37,0,0,0,1-.25h.2v1.42a3,3,0,0,1,2.39-1.47,1.87,1.87,0,0,1,2,2v3.76c0,.69,0,1,0,1.27-.4,0-.82,0-1.22,0V254.5a1.18,1.18,0,0,0-.4-1.05,1.36,1.36,0,0,0-.83-.28,1.9,1.9,0,0,0-1.08.37,3.59,3.59,0,0,0-.87.87v3.45c0,.74,0,1.1,0,1.35-.38,0-.78,0-1.21,0Z" transform="translate(50.26 0)"/><path d="M129.6,258.81a1.32,1.32,0,0,1-1,.48c-.61,0-1.06-.39-1.22-1.22a3.61,3.61,0,0,1-.86.83,2.22,2.22,0,0,1-1.3.39,1.62,1.62,0,0,1-1.73-1.69c0-1,1-2.11,3.82-2.46v-.7c0-.95-.41-1.39-1.23-1.39a1.13,1.13,0,0,0-1.26,1.27,10.14,10.14,0,0,0-1.08.12c0-.05,0-.12,0-.17,0-1.52,1.1-2.12,2.41-2.12a2.11,2.11,0,0,1,2.32,2.26v2.85c0,.62.08,1.12.53,1.12a.56.56,0,0,0,.38-.16A1.65,1.65,0,0,0,129.6,258.81Zm-2.29-3c-.93.14-2.69.49-2.69,1.68,0,.63.48.92,1.07.92a2.28,2.28,0,0,0,1.62-1Z" transform="translate(50.26 0)"/><path d="M138.73,258.81a1.33,1.33,0,0,1-1,.48c-.61,0-1.07-.39-1.22-1.22a3.81,3.81,0,0,1-.86.83,2.24,2.24,0,0,1-1.3.39,1.61,1.61,0,0,1-1.73-1.69c0-1,.95-2.11,3.82-2.46v-.7c0-.95-.42-1.39-1.23-1.39a1.13,1.13,0,0,0-1.27,1.27,10.42,10.42,0,0,0-1.08.12c0-.05,0-.12,0-.17,0-1.52,1.11-2.12,2.42-2.12a2.1,2.1,0,0,1,2.31,2.26v2.85c0,.62.08,1.12.54,1.12a.51.51,0,0,0,.37-.16A1.84,1.84,0,0,0,138.73,258.81Zm-2.29-3c-.94.14-2.69.49-2.69,1.68,0,.63.48.92,1.07.92a2.3,2.3,0,0,0,1.62-1Z" transform="translate(50.26 0)"/><path d="M139.6,251.5c0-.27,0-1.81,0-2a5.15,5.15,0,0,0,1-.22h.18v8.47a10.5,10.5,0,0,0,0,1.42c-.38,0-.82,0-1.23,0,0-.12,0-1.27,0-1.46Z" transform="translate(50.26 0)"/><path d="M143.07,249.69a.73.73,0,0,1,.74.71.74.74,0,0,1-1.48,0A.73.73,0,0,1,143.07,249.69Zm-.59,8.17v-3.51c0-.34,0-1.72,0-1.9a3.38,3.38,0,0,0,1-.25h.19v5.66c0,.74,0,1.18,0,1.35-.37,0-.79,0-1.22,0Z" transform="translate(50.26 0)"/><path d="M149.62,258.63a2.8,2.8,0,0,1-1.75.66c-1.56,0-2.94-1.29-2.94-3.46,0-2.34,1.45-3.68,3.18-3.68a2.88,2.88,0,0,1,1.67.5l.53-.45h.48v8.22c0,.64,0,1.2,0,1.57-.38,0-.81,0-1.24,0,0-.14,0-1.51,0-1.69Zm0-5.11a1.6,1.6,0,0,0-1.29-.55c-1.17,0-2.21,1-2.21,2.72a3,3,0,0,0,.58,1.92,1.79,1.79,0,0,0,1.48.73,2.55,2.55,0,0,0,1.44-.49Z" transform="translate(50.26 0)"/><path d="M152.48,254c0-.8,0-1.56-.06-1.73a7.35,7.35,0,0,0,1-.11h.19v4.67a1.32,1.32,0,0,0,.4,1.07,1.34,1.34,0,0,0,.85.33,2.74,2.74,0,0,0,1.85-1v-3.1c0-.92-.06-1.66-.07-1.88a7.24,7.24,0,0,0,1-.11h.21v5.19a10.65,10.65,0,0,0,.16,1.82c-.37,0-.79,0-1.22,0a10.88,10.88,0,0,1-.11-1.18,3.08,3.08,0,0,1-2.29,1.22,2,2,0,0,1-2-2.11Z" transform="translate(50.26 0)"/><path d="M165.38,258.81a1.33,1.33,0,0,1-1,.48c-.61,0-1.07-.39-1.23-1.22a3.54,3.54,0,0,1-.85.83,2.24,2.24,0,0,1-1.3.39,1.61,1.61,0,0,1-1.73-1.69c0-1,.95-2.11,3.82-2.46v-.7c0-.95-.42-1.39-1.24-1.39a1.13,1.13,0,0,0-1.26,1.27,10.42,10.42,0,0,0-1.08.12c0-.05,0-.12,0-.17,0-1.52,1.11-2.12,2.42-2.12a2.1,2.1,0,0,1,2.31,2.26v2.85c0,.62.08,1.12.54,1.12a.51.51,0,0,0,.37-.16A1.84,1.84,0,0,0,165.38,258.81Zm-2.29-3c-.94.14-2.69.49-2.69,1.68,0,.63.48.92,1.06.92a2.3,2.3,0,0,0,1.63-1Z" transform="translate(50.26 0)"/><path d="M166.26,254.05a15.54,15.54,0,0,0-.06-1.6,4.06,4.06,0,0,0,1-.25h.19v1.42a3,3,0,0,1,2.39-1.47,1.84,1.84,0,0,1,1.91,1.47,3,3,0,0,1,2.4-1.47,1.88,1.88,0,0,1,2,2v3.76c0,.69,0,1.05,0,1.27-.37,0-.79,0-1.22,0V254.5a1.18,1.18,0,0,0-.4-1.05,1.36,1.36,0,0,0-.83-.28,2.59,2.59,0,0,0-1.91,1.17v3.6c0,.69,0,1.1.05,1.27-.4,0-.82,0-1.22,0V254.5a1.15,1.15,0,0,0-.41-1.05,1.36,1.36,0,0,0-.83-.28,1.93,1.93,0,0,0-1.08.37,3.59,3.59,0,0,0-.87.87v3.45c0,.74,0,1.14,0,1.35-.38,0-.78,0-1.21,0Z" transform="translate(50.26 0)"/><path d="M183,252.15a2.58,2.58,0,0,1,2.71,2.78,6.06,6.06,0,0,1-.05.85h-4.55V256a2.14,2.14,0,0,0,2.13,2.38,3.08,3.08,0,0,0,1.92-.67,4,4,0,0,0,.38.66,2.78,2.78,0,0,1-1.17.71,4,4,0,0,1-1.3.24c-1.78,0-3.15-1.2-3.15-3.54C180,253.72,181.28,252.15,183,252.15Zm1.67,2.86c0-.9-.33-2-1.63-2a2,2,0,0,0-1.92,2Z" transform="translate(50.26 0)"/><path d="M187.05,254.05c0-.46-.07-1.38-.07-1.6a3.51,3.51,0,0,0,1-.25h.2v1.43a2,2,0,0,1,1.75-1.48,1.85,1.85,0,0,1,1.07.29,3.42,3.42,0,0,0-.39,1,1.51,1.51,0,0,0-.78-.22c-.66,0-1.17.34-1.65,1.42v3.21c0,.74,0,1.05.05,1.35-.38,0-.79,0-1.22,0Z" transform="translate(50.26 0)"/><path d="M197.27,258.81a1.35,1.35,0,0,1-1,.48c-.62,0-1.07-.39-1.23-1.22a3.54,3.54,0,0,1-.85.83,2.24,2.24,0,0,1-1.3.39,1.61,1.61,0,0,1-1.73-1.69c0-1,1-2.11,3.82-2.46v-.7c0-.95-.42-1.39-1.24-1.39a1.13,1.13,0,0,0-1.26,1.27,10.42,10.42,0,0,0-1.08.12c0-.05,0-.12,0-.17,0-1.52,1.11-2.12,2.42-2.12a2.1,2.1,0,0,1,2.31,2.26v2.85c0,.62.08,1.12.54,1.12a.53.53,0,0,0,.37-.16A1.64,1.64,0,0,0,197.27,258.81Zm-2.29-3c-.94.14-2.69.49-2.69,1.68,0,.63.48.92,1.06.92a2.32,2.32,0,0,0,1.63-1Z" transform="translate(50.26 0)"/><path d="M198.19,253.14l-1-.13,0-.6,1-.21.09-1.37a3.69,3.69,0,0,0,.91-.23h.16v1.6h1.93a2.65,2.65,0,0,0-.05.54c0,.15,0,.28,0,.4h-1.88v3.93c0,.94.39,1.23,1,1.23a1.71,1.71,0,0,0,1-.34,2.68,2.68,0,0,0,.26.77,2.68,2.68,0,0,1-1.54.56c-1.1,0-1.85-.68-1.85-2.07Z" transform="translate(50.26 0)"/><path d="M205.79,252.22l1.8,5.29a4.51,4.51,0,0,1,.18.63,5.32,5.32,0,0,1,.2-.63l.44-1.3.57-1.73.51-1.54.23-.72h1.18l-2.61,7H208c-.17,0-.54,0-.79,0l-.52-1.37-.86-2.25-.84-2.19c-.25-.68-.41-1.08-.46-1.21Z" transform="translate(50.26 0)"/><path d="M214.26,259.29c-1.93,0-3.07-1.54-3.07-3.56s1.3-3.58,3.11-3.58,3.07,1.44,3.07,3.54S216.08,259.29,214.26,259.29Zm0-6.23c-1.21,0-1.92,1.13-1.92,2.63,0,1.71.82,2.65,1.92,2.65a1.64,1.64,0,0,0,1.37-.72,3.06,3.06,0,0,0,.56-1.93C216.2,254.13,215.47,253.06,214.27,253.06Z" transform="translate(50.26 0)"/><path d="M218.64,251.5c0-.27,0-1.81,0-2a5,5,0,0,0,1-.22h.18v8.47a10.5,10.5,0,0,0,.05,1.42c-.38,0-.82,0-1.23,0,0-.12,0-1.27,0-1.46Z" transform="translate(50.26 0)"/><path d="M221.51,254c0-.8,0-1.56-.06-1.73a7.35,7.35,0,0,0,1-.11h.19v4.67a1.32,1.32,0,0,0,.4,1.07,1.34,1.34,0,0,0,.85.33,2.74,2.74,0,0,0,1.85-1v-3.1c0-.92-.06-1.66-.07-1.88a7.24,7.24,0,0,0,1-.11H227v5.19a10.65,10.65,0,0,0,.16,1.82c-.37,0-.79,0-1.22,0a10.88,10.88,0,0,1-.11-1.18,3.08,3.08,0,0,1-2.29,1.22,2,2,0,0,1-2-2.11Z" transform="translate(50.26 0)"/><path d="M229,253.14l-1-.13v-.6l1-.21.09-1.37a3.69,3.69,0,0,0,.91-.23h.16v1.6h1.94a2.65,2.65,0,0,0,0,.54c0,.15,0,.28,0,.4h-1.89v3.93c0,.94.39,1.23,1,1.23a1.73,1.73,0,0,0,1-.34,2.41,2.41,0,0,0,.26.77,2.7,2.7,0,0,1-1.55.56c-1.09,0-1.85-.68-1.85-2.07Z" transform="translate(50.26 0)"/><path d="M233.43,254.36a18.91,18.91,0,0,0-.08-1.91,5.09,5.09,0,0,0,1.06-.25h.18c0,.12,0,.38,0,.58a2.84,2.84,0,0,1,1.77-.63c1.57,0,2.92,1.24,2.92,3.42s-1.45,3.72-3.18,3.72a3.08,3.08,0,0,1-1.51-.4v1.92a10.59,10.59,0,0,0,0,1.18c-.38,0-.79,0-1.22,0,0-.17,0-2.1,0-2.27Zm4.66,1.35c0-1.6-.85-2.61-2-2.61a2.47,2.47,0,0,0-1.46.44v4.36a1.62,1.62,0,0,0,1.3.56C237.06,258.46,238.09,257.42,238.09,255.71Z" transform="translate(50.26 0)"/><path d="M246.22,258.81a1.32,1.32,0,0,1-1,.48c-.61,0-1.06-.39-1.22-1.22a3.43,3.43,0,0,1-.86.83,2.2,2.2,0,0,1-1.3.39,1.62,1.62,0,0,1-1.73-1.69c0-1,.95-2.11,3.83-2.46v-.7c0-.95-.42-1.39-1.24-1.39a1.13,1.13,0,0,0-1.26,1.27,10.42,10.42,0,0,0-1.08.12c0-.05,0-.12,0-.17,0-1.52,1.1-2.12,2.42-2.12a2.1,2.1,0,0,1,2.31,2.26v2.85c0,.62.08,1.12.53,1.12a.54.54,0,0,0,.38-.16A1.65,1.65,0,0,0,246.22,258.81Zm-2.28-3c-.94.14-2.69.49-2.69,1.68,0,.63.48.92,1.06.92a2.32,2.32,0,0,0,1.63-1Z" transform="translate(50.26 0)"/><path d="M247.15,253.14l-1-.13,0-.6,1-.21.09-1.37a3.92,3.92,0,0,0,.91-.23h.15v1.6h1.94a2.65,2.65,0,0,0-.05.54c0,.15,0,.28,0,.4h-1.88v3.93c0,.94.39,1.23,1,1.23a1.71,1.71,0,0,0,1-.34,2.41,2.41,0,0,0,.26.77,2.7,2.7,0,0,1-1.55.56c-1.09,0-1.84-.68-1.84-2.07Z" transform="translate(50.26 0)"/><path d="M251.33,258.56a.72.72,0,0,1,.74-.71.73.73,0,0,1,.75.71.74.74,0,0,1-.75.72A.73.73,0,0,1,251.33,258.56Z" transform="translate(50.26 0)"/><path d="M256.94,250.08c.43,0,.8,0,1.18,0v5.62c0,1.66.72,2.58,2.07,2.58s2.06-.92,2.06-2.63v-5.54a9.46,9.46,0,0,0,1.19,0v5.6c0,2.38-1.25,3.64-3.28,3.64s-3.22-1.12-3.22-3.47Z" transform="translate(50.26 0)"/><path d="M265.49,253.14l-1-.13v-.6l1-.21.09-1.37a3.69,3.69,0,0,0,.91-.23h.16v1.6h1.94a2.7,2.7,0,0,0-.06.54,2.49,2.49,0,0,0,0,.4h-1.89v3.93c0,.94.39,1.23,1,1.23a1.7,1.7,0,0,0,1-.34,3,3,0,0,0,.26.77,2.65,2.65,0,0,1-1.54.56c-1.1,0-1.85-.68-1.85-2.07Z" transform="translate(50.26 0)"/><path d="M277.15,255l-.31-1.26c0,.18-.18.85-.29,1.27l-1.23,4.19c-.26,0-.86,0-1.13,0l-2.29-7,.65,0,.62,0,1.41,5c0,.13.06.3.1.49a2.87,2.87,0,0,0,.08.34s.06-.27.2-.79l.44-1.77.49-1.94c.17-.63.3-1.06.39-1.3h1.12c0,.11.12.37.23.8s.28.88.42,1.4.3,1,.44,1.56.26.94.33,1.24l.18.8s.05-.32.19-.84l1.38-5c.21,0,.4,0,.61,0s.41,0,.61,0l-2.27,7c-.26,0-.83,0-1.11,0Z" transform="translate(50.26 0)"/><path d="M283.48,249.69a.73.73,0,0,1,.74.71.74.74,0,1,1-.74-.71Zm-.58,8.17v-3.51c0-.34,0-1.72,0-1.9a3.39,3.39,0,0,0,1-.25h.2v5.66c0,.74,0,1.18,0,1.35-.38,0-.8,0-1.23,0Z" transform="translate(50.26 0)"/><path d="M287.32,258.37a2.14,2.14,0,0,0,1.05-.25.91.91,0,0,0,.47-.87c0-.57-.39-.76-1.47-1.17a6.57,6.57,0,0,1-1.38-.74,1.57,1.57,0,0,1-.56-1.36c0-1.13.9-1.83,2.24-1.83a4,4,0,0,1,2,.46,1.87,1.87,0,0,0-.28.71l-.09.05a3.83,3.83,0,0,0-1.48-.29c-.66,0-1.27.2-1.27.88s.49.9,1.32,1.17a4.23,4.23,0,0,1,1.51.8,1.77,1.77,0,0,1,.46,1.31c0,1.41-1.21,2.05-2.47,2.05a3.51,3.51,0,0,1-2-.59,2.69,2.69,0,0,0,.28-.76A3.22,3.22,0,0,0,287.32,258.37Z" transform="translate(50.26 0)"/><path d="M291.69,249.69a.74.74,0,0,1,.74.71.75.75,0,1,1-.74-.71Zm-.59,8.17v-3.51c0-.34,0-1.72-.05-1.9a3.53,3.53,0,0,0,1-.25h.19v5.66c0,.74,0,1.18,0,1.35-.38,0-.79,0-1.22,0Z" transform="translate(50.26 0)"/><path d="M95.14,267.75a2.57,2.57,0,0,1,2.7,2.78,6.06,6.06,0,0,1,0,.85H93.24v.19A2.14,2.14,0,0,0,95.37,274a3.12,3.12,0,0,0,1.93-.67,4,4,0,0,0,.37.66,2.79,2.79,0,0,1-1.17.72,4.2,4.2,0,0,1-1.3.23c-1.78,0-3.14-1.2-3.14-3.54C92.06,269.33,93.37,267.75,95.14,267.75Zm1.66,2.86c0-.89-.32-2-1.62-2a2,2,0,0,0-1.93,2Z" transform="translate(50.26 0)"/><path d="M99.14,269.65c0-.45,0-1.59-.06-1.6a3.44,3.44,0,0,0,1-.25h.19v1.42a3,3,0,0,1,2.4-1.47,1.87,1.87,0,0,1,2,2v3.76c0,.69,0,1,0,1.27-.4,0-.82,0-1.22,0v-4.74a1.18,1.18,0,0,0-.4-1.06,1.39,1.39,0,0,0-.84-.28,2,2,0,0,0-1.08.37,3.59,3.59,0,0,0-.87.87v3.45c0,.74,0,1.1,0,1.35-.37,0-.78,0-1.21,0Z" transform="translate(50.26 0)"/><path d="M107,265.29a.73.73,0,0,1,.74.71.74.74,0,0,1-1.48,0A.73.73,0,0,1,107,265.29Zm-.59,8.17V270c0-.34,0-1.72,0-1.9a3.38,3.38,0,0,0,1-.25h.19v5.66c0,.74,0,1.18,0,1.35-.37,0-.79,0-1.22,0Z" transform="translate(50.26 0)"/><path d="M109.28,269.65a15.54,15.54,0,0,0-.06-1.6,3.61,3.61,0,0,0,1-.25h.19v1.42a3,3,0,0,1,2.39-1.47,1.85,1.85,0,0,1,1.92,1.47,3,3,0,0,1,2.39-1.47,1.88,1.88,0,0,1,2,2v3.76c0,.69,0,1,0,1.27-.38,0-.8,0-1.23,0v-4.74a1.18,1.18,0,0,0-.4-1.06,1.36,1.36,0,0,0-.83-.28,2.59,2.59,0,0,0-1.91,1.17v3.6c0,.69,0,1.1,0,1.27-.4,0-.82,0-1.22,0v-4.74a1.18,1.18,0,0,0-.4-1.06,1.41,1.41,0,0,0-.84-.28,2,2,0,0,0-1.08.37,3.59,3.59,0,0,0-.87.87v3.45c0,.74,0,1.14,0,1.35-.38,0-.78,0-1.21,0Z" transform="translate(50.26 0)"/><path d="M129.08,274.41a1.32,1.32,0,0,1-1,.48c-.61,0-1.06-.39-1.22-1.22a3.61,3.61,0,0,1-.86.83,2.22,2.22,0,0,1-1.3.39A1.62,1.62,0,0,1,123,273.2c0-1,1-2.11,3.82-2.46V270c0-1-.41-1.39-1.23-1.39a1.13,1.13,0,0,0-1.26,1.27c-.22,0-.76.06-1.08.12,0-.05,0-.12,0-.17,0-1.52,1.1-2.12,2.41-2.12a2.11,2.11,0,0,1,2.32,2.26v2.85c0,.63.08,1.12.53,1.12a.56.56,0,0,0,.38-.16A1.65,1.65,0,0,0,129.08,274.41Zm-2.29-3c-.93.14-2.69.49-2.69,1.68,0,.63.48.92,1.07.92a2.28,2.28,0,0,0,1.62-1Z" transform="translate(50.26 0)"/><path d="M129.38,271.43c0-2.34,1.46-3.68,3.19-3.68a2.85,2.85,0,0,1,1.5.39c0-.37,0-2.82,0-3a8.53,8.53,0,0,0,1-.22h.18v8.18a7.82,7.82,0,0,0,.19,1.71c-.38,0-.78,0-1.21,0a2.53,2.53,0,0,1-.09-.66,2.82,2.82,0,0,1-1.81.7C130.76,274.89,129.38,273.6,129.38,271.43Zm3.41-2.86c-1.17,0-2.21,1-2.21,2.72a3,3,0,0,0,.57,1.92,1.81,1.81,0,0,0,1.48.73,2.36,2.36,0,0,0,1.46-.51c0-.14,0-1.45,0-4.31A1.59,1.59,0,0,0,132.79,268.57Z" transform="translate(50.26 0)"/><path d="M139.57,269.65a15.54,15.54,0,0,0-.06-1.6,3.61,3.61,0,0,0,1-.25h.19v1.42a3,3,0,0,1,2.39-1.47,1.85,1.85,0,0,1,1.92,1.47,3,3,0,0,1,2.39-1.47,1.88,1.88,0,0,1,2,2v3.76c0,.69,0,1,0,1.27-.38,0-.8,0-1.23,0v-4.74a1.18,1.18,0,0,0-.4-1.06,1.36,1.36,0,0,0-.83-.28,2.59,2.59,0,0,0-1.91,1.17v3.6c0,.69,0,1.1.05,1.27-.4,0-.82,0-1.22,0v-4.74a1.18,1.18,0,0,0-.4-1.06,1.41,1.41,0,0,0-.84-.28,2,2,0,0,0-1.08.37,3.59,3.59,0,0,0-.87.87v3.45c0,.74,0,1.14,0,1.35-.38,0-.78,0-1.21,0Z" transform="translate(50.26 0)"/><path d="M151.7,265.29a.73.73,0,0,1,.74.71.74.74,0,0,1-1.48,0A.73.73,0,0,1,151.7,265.29Zm-.58,8.17V270c0-.34,0-1.72-.05-1.9a3.39,3.39,0,0,0,1-.25h.2v5.66c0,.74,0,1.18,0,1.35-.38,0-.8,0-1.23,0Z" transform="translate(50.26 0)"/><path d="M154,269.65c0-.45-.06-1.59-.07-1.6a3.37,3.37,0,0,0,1-.25h.2v1.42a3,3,0,0,1,2.39-1.47,1.87,1.87,0,0,1,2,2v3.76c0,.69,0,1,.05,1.27-.4,0-.82,0-1.22,0v-4.74a1.18,1.18,0,0,0-.4-1.06,1.38,1.38,0,0,0-.83-.28,1.9,1.9,0,0,0-1.08.37,3.59,3.59,0,0,0-.87.87v3.45c0,.74,0,1.1,0,1.35-.37,0-.77,0-1.2,0Z" transform="translate(50.26 0)"/><path d="M161.84,265.29a.73.73,0,0,1,.74.71.74.74,0,0,1-1.48,0A.73.73,0,0,1,161.84,265.29Zm-.58,8.17V270c0-.34,0-1.72-.06-1.9a3.38,3.38,0,0,0,1-.25h.2v5.66c0,.74,0,1.18,0,1.35-.38,0-.8,0-1.23,0Z" transform="translate(50.26 0)"/><path d="M164.16,269.65a14.93,14.93,0,0,0-.07-1.6,3.61,3.61,0,0,0,1-.25h.2v1.42a3,3,0,0,1,2.39-1.47,1.85,1.85,0,0,1,1.91,1.47,3,3,0,0,1,2.39-1.47,1.88,1.88,0,0,1,2,2v3.76c0,.69,0,1,0,1.27-.38,0-.79,0-1.22,0v-4.74a1.16,1.16,0,0,0-.41-1.06,1.36,1.36,0,0,0-.83-.28,2.63,2.63,0,0,0-1.91,1.17v3.6c0,.69,0,1.1,0,1.27-.4,0-.82,0-1.22,0v-4.74a1.18,1.18,0,0,0-.4-1.06,1.38,1.38,0,0,0-.83-.28,1.9,1.9,0,0,0-1.08.37,3.59,3.59,0,0,0-.87.87v3.45c0,.74,0,1.14,0,1.35-.37,0-.78,0-1.2,0Z" transform="translate(50.26 0)"/><path d="M178.88,267.82l1.8,5.29a4.24,4.24,0,0,1,.18.64,4.87,4.87,0,0,1,.2-.64l.44-1.3.57-1.73.51-1.54.23-.72H184l-2.61,7h-.3c-.17,0-.54,0-.79,0l-.52-1.37-.86-2.25-.84-2.19c-.25-.68-.41-1.08-.46-1.21Z" transform="translate(50.26 0)"/><path d="M187.36,267.75a2.58,2.58,0,0,1,2.71,2.78,6.07,6.07,0,0,1-.06.85h-4.55v.19a2.14,2.14,0,0,0,2.13,2.38,3.1,3.1,0,0,0,1.93-.67,3.38,3.38,0,0,0,.38.66,2.92,2.92,0,0,1-1.17.72,4.3,4.3,0,0,1-1.3.23c-1.78,0-3.15-1.2-3.15-3.54C184.28,269.33,185.59,267.75,187.36,267.75Zm1.67,2.86c0-.89-.33-2-1.63-2a2,2,0,0,0-1.92,2Z" transform="translate(50.26 0)"/><path d="M191.36,269.65c0-.45-.05-1.59-.06-1.6a3.44,3.44,0,0,0,1-.25h.19v1.42a3,3,0,0,1,2.4-1.47,1.87,1.87,0,0,1,2,2v3.76c0,.69,0,1,.05,1.27-.4,0-.82,0-1.22,0v-4.74a1.18,1.18,0,0,0-.4-1.06,1.38,1.38,0,0,0-.83-.28,1.9,1.9,0,0,0-1.08.37,3.64,3.64,0,0,0-.88.87v3.45c0,.74,0,1.1,0,1.35-.37,0-.78,0-1.21,0Z" transform="translate(50.26 0)"/><path d="M199.19,265.29a.73.73,0,0,1,.74.71.74.74,0,0,1-1.48,0A.73.73,0,0,1,199.19,265.29Zm-.58,8.17V270c0-.34,0-1.72-.06-1.9a3.38,3.38,0,0,0,1-.25h.2v5.66c0,.74,0,1.18,0,1.35-.37,0-.79,0-1.22,0Z" transform="translate(50.26 0)"/><path d="M207.15,274.41a1.35,1.35,0,0,1-1,.48c-.62,0-1.07-.39-1.23-1.22a3.54,3.54,0,0,1-.85.83,2.24,2.24,0,0,1-1.3.39A1.61,1.61,0,0,1,201,273.2c0-1,1-2.11,3.82-2.46V270c0-1-.42-1.39-1.24-1.39a1.13,1.13,0,0,0-1.26,1.27c-.22,0-.75.06-1.08.12,0-.05,0-.12,0-.17,0-1.52,1.11-2.12,2.42-2.12A2.1,2.1,0,0,1,206,270v2.85c0,.63.08,1.12.54,1.12a.53.53,0,0,0,.37-.16A1.64,1.64,0,0,0,207.15,274.41Zm-2.29-3c-.94.14-2.69.49-2.69,1.68,0,.63.48.92,1.06.92a2.32,2.32,0,0,0,1.63-1Z" transform="translate(50.26 0)"/><path d="M208,269.65c0-.53,0-1.43-.06-1.6a3.69,3.69,0,0,0,1-.25h.19v1.42a3,3,0,0,1,2.39-1.47,1.84,1.84,0,0,1,1.91,1.47,3,3,0,0,1,2.4-1.47,1.88,1.88,0,0,1,2,2v3.76c0,.69,0,1,0,1.27-.37,0-.79,0-1.22,0v-4.74a1.18,1.18,0,0,0-.4-1.06,1.36,1.36,0,0,0-.83-.28,2.59,2.59,0,0,0-1.91,1.17v3.6a12.08,12.08,0,0,0,.05,1.27c-.41,0-.82,0-1.22,0v-4.74a1.16,1.16,0,0,0-.41-1.06,1.36,1.36,0,0,0-.83-.28,1.93,1.93,0,0,0-1.08.37,3.59,3.59,0,0,0-.87.87v3.45c0,.74,0,1.14,0,1.35-.38,0-.78,0-1.21,0Z" transform="translate(50.26 0)"/><path d="M219.34,275.89v-.08a1,1,0,0,0,.82-1c-.52,0-.85-.25-.85-.66a.72.72,0,0,1,.77-.74c.53,0,.83.37.83,1.09a1.84,1.84,0,0,1-1.23,1.73A2.05,2.05,0,0,0,219.34,275.89Z" transform="translate(50.26 0)"/><path d="M229.17,274.23a2.8,2.8,0,0,1-1.76.66c-1.56,0-2.93-1.29-2.93-3.46,0-2.34,1.45-3.68,3.18-3.68a2.87,2.87,0,0,1,1.66.5l.54-.45h.48V276c0,.64,0,1.2,0,1.57-.37,0-.8,0-1.23,0,0-.14,0-1.51,0-1.69Zm0-5.11a1.62,1.62,0,0,0-1.29-.55c-1.17,0-2.21,1-2.21,2.72a3.09,3.09,0,0,0,.57,1.92,1.81,1.81,0,0,0,1.49.73,2.55,2.55,0,0,0,1.44-.49Z" transform="translate(50.26 0)"/><path d="M232,269.64c0-.8-.05-1.56-.07-1.73a7.08,7.08,0,0,0,1-.11h.2v4.67a1.32,1.32,0,0,0,.4,1.07,1.33,1.33,0,0,0,.85.34,2.72,2.72,0,0,0,1.84-1v-3.1c0-.92,0-1.66-.06-1.88a7.24,7.24,0,0,0,1-.11h.2V273a10.4,10.4,0,0,0,.17,1.82c-.37,0-.79,0-1.22,0,0-.14-.1-.61-.12-1.18a3,3,0,0,1-2.28,1.22,2,2,0,0,1-2-2.11Z" transform="translate(50.26 0)"/><path d="M239.85,265.29a.74.74,0,0,1,.75.71.75.75,0,0,1-1.49,0A.74.74,0,0,1,239.85,265.29Zm-.58,8.17V270c0-.34,0-1.72-.05-1.9a3.39,3.39,0,0,0,1-.25h.2v5.66c0,.74,0,1.18,0,1.35-.38,0-.79,0-1.22,0Z" transform="translate(50.26 0)"/><path d="M243.69,274a2.14,2.14,0,0,0,1.05-.25.91.91,0,0,0,.47-.87c0-.57-.39-.76-1.47-1.17a6.83,6.83,0,0,1-1.38-.74,1.59,1.59,0,0,1-.56-1.36c0-1.13.9-1.83,2.24-1.83a4.09,4.09,0,0,1,2,.46,1.84,1.84,0,0,0-.27.71l-.09.05a3.87,3.87,0,0,0-1.49-.3c-.66,0-1.27.21-1.27.89s.49.9,1.33,1.17a4.1,4.1,0,0,1,1.5.81,1.72,1.72,0,0,1,.46,1.29c0,1.42-1.21,2.06-2.47,2.06a3.51,3.51,0,0,1-2-.59,2.68,2.68,0,0,0,.29-.76A3.16,3.16,0,0,0,243.69,274Z" transform="translate(50.26 0)"/><path d="M250.09,269.65c0-.45-.06-1.59-.07-1.6a3.37,3.37,0,0,0,1-.25h.2v1.42a3,3,0,0,1,2.39-1.47,1.87,1.87,0,0,1,2,2v3.76c0,.69,0,1,0,1.27-.4,0-.82,0-1.22,0v-4.74a1.18,1.18,0,0,0-.4-1.06,1.38,1.38,0,0,0-.83-.28,1.9,1.9,0,0,0-1.08.37,3.59,3.59,0,0,0-.87.87v3.45c0,.74,0,1.1,0,1.35-.37,0-.78,0-1.2,0Z" transform="translate(50.26 0)"/><path d="M260,274.89c-1.92,0-3.07-1.53-3.07-3.56s1.3-3.58,3.11-3.58,3.07,1.45,3.07,3.54S261.77,274.89,260,274.89Zm0-6.23c-1.21,0-1.93,1.13-1.93,2.63,0,1.71.82,2.65,1.93,2.65a1.64,1.64,0,0,0,1.36-.71,3,3,0,0,0,.56-1.94C261.89,269.73,261.16,268.66,260,268.66Z" transform="translate(50.26 0)"/><path d="M265.87,274a2.14,2.14,0,0,0,1.05-.25.91.91,0,0,0,.47-.87c0-.57-.39-.76-1.47-1.17a6.57,6.57,0,0,1-1.38-.74,1.57,1.57,0,0,1-.56-1.36c0-1.13.9-1.83,2.24-1.83a4.14,4.14,0,0,1,2,.46,1.87,1.87,0,0,0-.28.71l-.09.05a3.82,3.82,0,0,0-1.48-.3c-.66,0-1.27.21-1.27.89s.49.9,1.32,1.17a4.07,4.07,0,0,1,1.51.81,1.72,1.72,0,0,1,.46,1.29c0,1.42-1.21,2.06-2.47,2.06a3.51,3.51,0,0,1-2-.59,2.69,2.69,0,0,0,.28-.76A3.22,3.22,0,0,0,265.87,274Z" transform="translate(50.26 0)"/><path d="M269.87,268.74l-1-.13V268l1-.21.09-1.37a4.16,4.16,0,0,0,.91-.22H271v1.59H273a2.7,2.7,0,0,0-.06.54,2.49,2.49,0,0,0,0,.4H271v3.93c0,.95.39,1.23,1,1.23a1.68,1.68,0,0,0,1-.34,3,3,0,0,0,.26.77,2.65,2.65,0,0,1-1.54.56c-1.09,0-1.85-.68-1.85-2.07Z" transform="translate(50.26 0)"/><path d="M274.3,269.65c0-.45-.06-1.38-.06-1.6a3.66,3.66,0,0,0,1-.25h.19v1.43a2,2,0,0,1,1.76-1.48,1.85,1.85,0,0,1,1.07.29,3.42,3.42,0,0,0-.39,1,1.51,1.51,0,0,0-.78-.22c-.67,0-1.17.34-1.66,1.42v3.21c0,.74,0,1.05.06,1.35-.38,0-.8,0-1.23,0Z" transform="translate(50.26 0)"/><path d="M279,269.64c0-.8-.05-1.56-.07-1.73a7.21,7.21,0,0,0,1-.11h.2v4.67a1.32,1.32,0,0,0,.4,1.07,1.33,1.33,0,0,0,.85.34,2.72,2.72,0,0,0,1.84-1v-3.1c0-.92-.05-1.66-.06-1.88a7,7,0,0,0,1-.11h.21V273a10.4,10.4,0,0,0,.17,1.82c-.38,0-.79,0-1.22,0a10,10,0,0,1-.12-1.18,3,3,0,0,1-2.29,1.22,2,2,0,0,1-2-2.11Z" transform="translate(50.26 0)"/><path d="M285.8,271.43c0-2.34,1.45-3.68,3.18-3.68a2.91,2.91,0,0,1,1.51.39c0-.37,0-2.82,0-3a8.27,8.27,0,0,0,1-.22h.18v8.18a8.71,8.71,0,0,0,.18,1.71c-.38,0-.78,0-1.21,0a3.12,3.12,0,0,1-.09-.66,2.78,2.78,0,0,1-1.81.7C287.17,274.89,285.8,273.6,285.8,271.43Zm3.4-2.86c-1.17,0-2.21,1-2.21,2.72a3.09,3.09,0,0,0,.57,1.92,1.82,1.82,0,0,0,1.49.73,2.33,2.33,0,0,0,1.45-.51c0-.14,0-1.45,0-4.31A1.61,1.61,0,0,0,289.2,268.57Z" transform="translate(50.26 0)"/><path d="M161.26,283.35a2.57,2.57,0,0,1,2.7,2.78,6.06,6.06,0,0,1-.05.85h-4.55v.19a2.14,2.14,0,0,0,2.13,2.38,3.08,3.08,0,0,0,1.92-.67,4,4,0,0,0,.38.66,2.68,2.68,0,0,1-1.17.71,4,4,0,0,1-1.3.24c-1.78,0-3.14-1.2-3.14-3.54C158.18,284.92,159.49,283.35,161.26,283.35Zm1.66,2.86c0-.89-.32-2-1.62-2a2,2,0,0,0-1.93,2Z" transform="translate(50.26 0)"/><path d="M164.65,283.43h1.27c.43.71,1,1.53,1.75,2.66.76-1.13,1.32-1.95,1.75-2.66h1.22c-.84,1.25-1.61,2.35-2.32,3.38.63.95,1.61,2.46,2.44,3.6a10.12,10.12,0,0,0-1.25,0c-.06-.14-.51-.79-.92-1.43s-.86-1.3-.92-1.41l-1.82,2.8c-.41,0-1,0-1.29,0,.8-1.16,1.75-2.59,2.42-3.6C166.21,285.76,165.49,284.68,164.65,283.43Z" transform="translate(50.26 0)"/><path d="M174.19,283.35a2.58,2.58,0,0,1,2.71,2.78,6.07,6.07,0,0,1-.06.85h-4.55v.19a2.14,2.14,0,0,0,2.14,2.38,3.1,3.1,0,0,0,1.92-.67,3.38,3.38,0,0,0,.38.66,2.8,2.8,0,0,1-1.17.71,4,4,0,0,1-1.3.24c-1.78,0-3.15-1.2-3.15-3.54C171.11,284.92,172.42,283.35,174.19,283.35Zm1.67,2.86c0-.89-.33-2-1.63-2a2,2,0,0,0-1.92,2Z" transform="translate(50.26 0)"/><path d="M178.2,285.25c0-.46-.07-1.38-.07-1.6a3.51,3.51,0,0,0,1-.25h.2v1.43a2,2,0,0,1,1.75-1.48,1.85,1.85,0,0,1,1.07.29,3.42,3.42,0,0,0-.39,1,1.51,1.51,0,0,0-.78-.22c-.67,0-1.17.34-1.65,1.42v3.21c0,.74,0,1.05,0,1.35-.38,0-.8,0-1.22,0Z" transform="translate(50.26 0)"/><path d="M185.36,283.35a2.61,2.61,0,0,1,1.66.52,1.81,1.81,0,0,1,.68,1.56v.12h-.26a3.94,3.94,0,0,0-.77.06v-.19a1.23,1.23,0,0,0-.28-.79,1.21,1.21,0,0,0-1-.38A1.64,1.64,0,0,0,184,285a3.17,3.17,0,0,0-.53,1.86c0,1.52.66,2.69,2.14,2.69a3.23,3.23,0,0,0,1.86-.59,2.63,2.63,0,0,0,.37.66,3.62,3.62,0,0,1-2.38.87c-1.81,0-3.15-1.28-3.15-3.54C182.29,284.92,183.55,283.35,185.36,283.35Z" transform="translate(50.26 0)"/><path d="M189.57,280.89a.73.73,0,0,1,.74.71.74.74,0,0,1-1.48,0A.73.73,0,0,1,189.57,280.89Zm-.58,8.17v-3.51c0-.34,0-1.72-.06-1.9a3.38,3.38,0,0,0,1-.25h.19v5.66c0,.74,0,1.18,0,1.35-.37,0-.79,0-1.22,0Z" transform="translate(50.26 0)"/><path d="M194.69,284.34l-1-.13v-.6l1-.21.09-1.37a3.69,3.69,0,0,0,.91-.23h.16v1.6h1.94a2.7,2.7,0,0,0-.06.54,2.49,2.49,0,0,0,0,.4h-1.89v3.93c0,.94.39,1.23,1,1.23a1.68,1.68,0,0,0,1-.34,2.68,2.68,0,0,0,.27.77,2.7,2.7,0,0,1-1.55.56c-1.09,0-1.85-.68-1.85-2.07Z" transform="translate(50.26 0)"/><path d="M204.77,290a1.33,1.33,0,0,1-1,.48c-.61,0-1.07-.39-1.23-1.22a3.54,3.54,0,0,1-.85.83,2.24,2.24,0,0,1-1.3.39,1.61,1.61,0,0,1-1.73-1.69c0-1,1-2.11,3.82-2.46v-.7c0-.95-.42-1.39-1.24-1.39a1.13,1.13,0,0,0-1.26,1.27c-.22,0-.75.06-1.08.12,0-.05,0-.12,0-.17,0-1.52,1.11-2.12,2.42-2.12a2.1,2.1,0,0,1,2.31,2.26v2.85c0,.62.08,1.12.54,1.12a.51.51,0,0,0,.37-.16A1.84,1.84,0,0,0,204.77,290Zm-2.29-3c-.94.14-2.69.49-2.69,1.68,0,.63.48.92,1.06.92a2.3,2.3,0,0,0,1.63-1Z" transform="translate(50.26 0)"/><path d="M205.69,284.34l-1-.13v-.6l1-.21.09-1.37a3.69,3.69,0,0,0,.91-.23h.16v1.6h1.93a3.61,3.61,0,0,0-.05.54,2.49,2.49,0,0,0,0,.4h-1.89v3.93c0,.94.39,1.23,1,1.23a1.7,1.7,0,0,0,1-.34,3,3,0,0,0,.26.77,2.65,2.65,0,0,1-1.54.56c-1.1,0-1.85-.68-1.85-2.07Z" transform="translate(50.26 0)"/><path d="M210.7,280.89a.74.74,0,0,1,.74.71.75.75,0,0,1-1.49,0A.74.74,0,0,1,210.7,280.89Zm-.59,8.17v-3.51c0-.34,0-1.72-.05-1.9a3.53,3.53,0,0,0,1-.25h.19v5.66c0,.74,0,1.18,0,1.35-.38,0-.79,0-1.22,0Z" transform="translate(50.26 0)"/><path d="M215.62,290.49c-1.92,0-3.07-1.53-3.07-3.56s1.3-3.58,3.11-3.58,3.07,1.44,3.07,3.54S217.44,290.49,215.62,290.49Zm0-6.23c-1.21,0-1.93,1.13-1.93,2.63,0,1.71.82,2.65,1.93,2.65a1.64,1.64,0,0,0,1.36-.71,3,3,0,0,0,.56-1.94C217.56,285.33,216.83,284.26,215.64,284.26Z" transform="translate(50.26 0)"/><path d="M220,285.25c0-.46-.06-1.59-.07-1.6a3.37,3.37,0,0,0,1-.25h.2v1.42a3,3,0,0,1,2.39-1.47,1.87,1.87,0,0,1,2,2v3.76c0,.69,0,1,.05,1.27-.4,0-.82,0-1.22,0v-4.74a1.18,1.18,0,0,0-.4-1.06,1.36,1.36,0,0,0-.83-.28,1.9,1.9,0,0,0-1.08.37,3.59,3.59,0,0,0-.87.87v3.45c0,.74,0,1.1,0,1.35-.38,0-.78,0-1.21,0Z" transform="translate(50.26 0)"/><path d="M79.84,337.76a2.53,2.53,0,0,0-1.19,1.89,1.36,1.36,0,0,0,2.71.13,1.48,1.48,0,0,0,0-.21c.12,0,.29,0,.46,0s.44,0,.55,0v.26a2.22,2.22,0,0,1-2.43,2.09,2.13,2.13,0,0,1-2.4-2.24,3.09,3.09,0,0,1,1.38-2.34l.8-.7a.94.94,0,0,0,.41-.76,1.52,1.52,0,0,0-.33-.85h.77a1.24,1.24,0,0,1,.49,1C81.05,336.78,80.45,337.26,79.84,337.76Zm1.08-4.4a.72.72,0,0,1-.75.7.71.71,0,1,1,.75-.7Z" transform="translate(50.26 0)"/><path d="M86.75,331a2.46,2.46,0,0,1,2.52,1.69,4.37,4.37,0,0,0-.6.69h0a1.69,1.69,0,0,0-1.84-1.3,2.38,2.38,0,0,0-2,1,4.18,4.18,0,0,0-.76,2.64,3.9,3.9,0,0,0,.8,2.59,2.64,2.64,0,0,0,2.14.95,3.82,3.82,0,0,0,2.08-.65,3.27,3.27,0,0,0,.31.91,4.46,4.46,0,0,1-2.52.78,3.79,3.79,0,0,1-2.94-1.2,4.78,4.78,0,0,1-1.09-3.31C82.83,333,84.34,331,86.75,331Z" transform="translate(50.26 0)"/><path d="M93.17,340.3c-1.93,0-3.07-1.54-3.07-3.56s1.3-3.58,3.11-3.58,3.06,1.44,3.06,3.54S95,340.3,93.17,340.3Zm0-6.23c-1.21,0-1.92,1.13-1.92,2.63,0,1.71.82,2.65,1.92,2.65a1.64,1.64,0,0,0,1.37-.72,3.05,3.05,0,0,0,.55-1.93C95.1,335.14,94.38,334.07,93.18,334.07Z" transform="translate(50.26 0)"/><path d="M97.56,335.06a15.54,15.54,0,0,0-.06-1.6,4.06,4.06,0,0,0,1-.25h.19v1.42a3,3,0,0,1,2.39-1.47,1.84,1.84,0,0,1,1.91,1.47,3,3,0,0,1,2.4-1.47,1.88,1.88,0,0,1,2,2V339c0,.69,0,1.05,0,1.27-.37,0-.79,0-1.22,0v-4.75a1.18,1.18,0,0,0-.4-1.05,1.36,1.36,0,0,0-.83-.28,2.59,2.59,0,0,0-1.91,1.17V339c0,.69,0,1.1,0,1.27-.4,0-.82,0-1.22,0v-4.75a1.15,1.15,0,0,0-.41-1.05,1.36,1.36,0,0,0-.83-.28,1.93,1.93,0,0,0-1.08.37,3.59,3.59,0,0,0-.87.87v3.45c0,.74,0,1.14,0,1.35-.38,0-.78,0-1.21,0Z" transform="translate(50.26 0)"/><path d="M111.73,340.3c-1.92,0-3.07-1.54-3.07-3.56s1.3-3.58,3.11-3.58,3.07,1.44,3.07,3.54S113.55,340.3,111.73,340.3Zm0-6.23c-1.2,0-1.92,1.13-1.92,2.63,0,1.71.82,2.65,1.92,2.65a1.63,1.63,0,0,0,1.37-.72,3,3,0,0,0,.56-1.93C113.67,335.14,112.94,334.07,111.74,334.07Z" transform="translate(50.26 0)"/><path d="M118.93,334.15l-1-.13v-.6l1-.21.09-1.38a3.27,3.27,0,0,0,.91-.22h.16v1.6H122a2.65,2.65,0,0,0,0,.54c0,.15,0,.28,0,.4H120.1v3.93c0,.94.39,1.23,1,1.23a1.73,1.73,0,0,0,1-.34,2.41,2.41,0,0,0,.26.77,2.7,2.7,0,0,1-1.55.56c-1.09,0-1.85-.68-1.85-2.07Z" transform="translate(50.26 0)"/><path d="M125.86,333.16a2.58,2.58,0,0,1,2.71,2.78,6.07,6.07,0,0,1-.06.85H124V337a2.14,2.14,0,0,0,2.14,2.38,3.1,3.1,0,0,0,1.92-.67,3.38,3.38,0,0,0,.38.66,2.78,2.78,0,0,1-1.17.71,4,4,0,0,1-1.3.24c-1.78,0-3.15-1.2-3.15-3.54C122.78,334.73,124.09,333.16,125.86,333.16Zm1.67,2.86c0-.9-.33-2-1.63-2a2,2,0,0,0-1.92,2Z" transform="translate(50.26 0)"/><path d="M134,339.38a2.14,2.14,0,0,0,1-.25.91.91,0,0,0,.47-.87c0-.57-.39-.76-1.47-1.17a6.57,6.57,0,0,1-1.38-.74,1.57,1.57,0,0,1-.56-1.36c0-1.13.9-1.83,2.24-1.83a4,4,0,0,1,2,.46,1.87,1.87,0,0,0-.28.71l-.09.05a3.82,3.82,0,0,0-1.48-.3c-.66,0-1.27.21-1.27.89s.49.9,1.32,1.17a4.23,4.23,0,0,1,1.51.8,1.77,1.77,0,0,1,.46,1.31c0,1.41-1.21,2.05-2.47,2.05a3.51,3.51,0,0,1-2-.59,2.69,2.69,0,0,0,.28-.76A3.22,3.22,0,0,0,134,339.38Z" transform="translate(50.26 0)"/><path d="M140.41,333.16a2.57,2.57,0,0,1,2.7,2.78,6.06,6.06,0,0,1-.05.85h-4.55V337a2.14,2.14,0,0,0,2.13,2.38,3.12,3.12,0,0,0,1.93-.67,4,4,0,0,0,.37.66,2.78,2.78,0,0,1-1.17.71,4,4,0,0,1-1.3.24c-1.78,0-3.14-1.2-3.14-3.54C137.33,334.73,138.64,333.16,140.41,333.16Zm1.66,2.86c0-.9-.32-2-1.62-2a2,2,0,0,0-1.93,2Z" transform="translate(50.26 0)"/><path d="M144.41,335.06c0-.46,0-1.59-.06-1.6a3.44,3.44,0,0,0,1-.25h.19v1.42a3,3,0,0,1,2.4-1.47,1.87,1.87,0,0,1,2,2V339c0,.69,0,1,.05,1.27-.4,0-.82,0-1.22,0v-4.75a1.18,1.18,0,0,0-.4-1.05,1.39,1.39,0,0,0-.84-.28,2,2,0,0,0-1.08.37,3.59,3.59,0,0,0-.87.87v3.45c0,.74,0,1.1,0,1.35-.37,0-.78,0-1.21,0Z" transform="translate(50.26 0)"/><path d="M151.88,334.15l-1-.13v-.6l1-.21.09-1.38a3.45,3.45,0,0,0,.91-.22H153v1.6H155a2.65,2.65,0,0,0-.05.54c0,.15,0,.28,0,.4h-1.88v3.93c0,.94.39,1.23,1,1.23a1.73,1.73,0,0,0,1-.34,2.41,2.41,0,0,0,.26.77,2.7,2.7,0,0,1-1.55.56c-1.09,0-1.84-.68-1.84-2.07Z" transform="translate(50.26 0)"/><path d="M156.88,330.7a.73.73,0,0,1,.74.71.74.74,0,0,1-1.48,0A.73.73,0,0,1,156.88,330.7Zm-.58,8.17v-3.51c0-.34,0-1.72-.06-1.9a3.38,3.38,0,0,0,1-.25h.2v5.66c0,.74,0,1.18,0,1.35-.37,0-.79,0-1.22,0Z" transform="translate(50.26 0)"/><path d="M160.72,339.38a2.14,2.14,0,0,0,1.05-.25.91.91,0,0,0,.47-.87c0-.57-.39-.76-1.47-1.17a6.57,6.57,0,0,1-1.38-.74,1.57,1.57,0,0,1-.56-1.36c0-1.13.9-1.83,2.24-1.83a4,4,0,0,1,2,.46,1.87,1.87,0,0,0-.28.71l-.09.05a3.82,3.82,0,0,0-1.48-.3c-.66,0-1.27.21-1.27.89s.49.9,1.32,1.17a4.32,4.32,0,0,1,1.51.8,1.76,1.76,0,0,1,.45,1.31c0,1.41-1.2,2.05-2.47,2.05a3.56,3.56,0,0,1-2-.59,2.41,2.41,0,0,0,.29-.76A3.22,3.22,0,0,0,160.72,339.38Z" transform="translate(50.26 0)"/><path d="M164.72,334.15l-1-.13,0-.6,1-.21.09-1.38a3.45,3.45,0,0,0,.91-.22h.16v1.6h1.93a2.65,2.65,0,0,0-.05.54c0,.15,0,.28,0,.4h-1.88v3.93c0,.94.39,1.23,1,1.23a1.71,1.71,0,0,0,1-.34,2.41,2.41,0,0,0,.26.77,2.68,2.68,0,0,1-1.54.56c-1.1,0-1.85-.68-1.85-2.07Z" transform="translate(50.26 0)"/><path d="M171.65,333.16a2.57,2.57,0,0,1,2.7,2.78,6.06,6.06,0,0,1,0,.85h-4.55V337a2.14,2.14,0,0,0,2.13,2.38,3.12,3.12,0,0,0,1.93-.67,4,4,0,0,0,.37.66,2.78,2.78,0,0,1-1.17.71,4,4,0,0,1-1.3.24c-1.78,0-3.14-1.2-3.14-3.54C168.57,334.73,169.88,333.16,171.65,333.16Zm1.66,2.86c0-.9-.32-2-1.62-2a2,2,0,0,0-1.93,2Z" transform="translate(50.26 0)"/><path d="M178.25,335.06c0-.46-.06-1.38-.06-1.6a3.66,3.66,0,0,0,1-.25h.19v1.43a2,2,0,0,1,1.76-1.48,1.82,1.82,0,0,1,1.06.29,3.62,3.62,0,0,0-.39,1,1.49,1.49,0,0,0-.78-.22c-.66,0-1.17.34-1.65,1.42v3.21c0,.74,0,1.05.05,1.35-.37,0-.79,0-1.22,0Z" transform="translate(50.26 0)"/><path d="M185.43,333.16a2.57,2.57,0,0,1,2.7,2.78,6.06,6.06,0,0,1,0,.85h-4.55V337a2.14,2.14,0,0,0,2.13,2.38,3.12,3.12,0,0,0,1.93-.67,4,4,0,0,0,.37.66,2.78,2.78,0,0,1-1.17.71,4,4,0,0,1-1.3.24c-1.78,0-3.14-1.2-3.14-3.54C182.35,334.73,183.66,333.16,185.43,333.16Zm1.66,2.86c0-.9-.32-2-1.62-2a2,2,0,0,0-1.93,2Z" transform="translate(50.26 0)"/><path d="M195.07,339.82a1.32,1.32,0,0,1-1,.48c-.61,0-1.06-.39-1.22-1.22a3.43,3.43,0,0,1-.86.83,2.2,2.2,0,0,1-1.3.39,1.62,1.62,0,0,1-1.73-1.69c0-1,.95-2.11,3.83-2.46v-.7c0-.95-.42-1.39-1.24-1.39a1.13,1.13,0,0,0-1.26,1.27,10.42,10.42,0,0,0-1.08.12c0-.05,0-.12,0-.17,0-1.52,1.1-2.12,2.42-2.12a2.1,2.1,0,0,1,2.31,2.26v2.85c0,.62.08,1.12.53,1.12a.54.54,0,0,0,.38-.16A1.65,1.65,0,0,0,195.07,339.82Zm-2.28-3c-.94.14-2.7.49-2.7,1.68,0,.63.49.92,1.07.92a2.32,2.32,0,0,0,1.63-1Z" transform="translate(50.26 0)"/><path d="M195.94,332.51c0-.27,0-1.81,0-2a5.06,5.06,0,0,0,1-.22h.18v8.47a10,10,0,0,0,.06,1.42c-.38,0-.82,0-1.24,0,0-.12,0-1.27,0-1.46Z" transform="translate(50.26 0)"/><path d="M199.42,330.7a.74.74,0,0,1,.74.71.75.75,0,1,1-.74-.71Zm-.59,8.17v-3.51c0-.34,0-1.72-.05-1.9a3.53,3.53,0,0,0,1-.25H200v5.66c0,.74,0,1.18,0,1.35-.38,0-.79,0-1.22,0Z" transform="translate(50.26 0)"/><path d="M201.22,340.22v-.79l.68-1,1.21-1.77c.43-.63.83-1.2,1.19-1.74l.63-.87h-2.11c-.51,0-1,0-1.47,0,0-.14,0-.32,0-.47a3,3,0,0,0,0-.43h4.89V334l-.74,1-1.23,1.78-1.19,1.71-.53.78h2.51a10.57,10.57,0,0,0,1.16-.06,4.21,4.21,0,0,0,0,.46,3.87,3.87,0,0,0,0,.48Z" transform="translate(50.26 0)"/><path d="M213.08,339.82a1.33,1.33,0,0,1-1,.48c-.61,0-1.07-.39-1.22-1.22a3.81,3.81,0,0,1-.86.83,2.24,2.24,0,0,1-1.3.39,1.61,1.61,0,0,1-1.73-1.69c0-1,.95-2.11,3.82-2.46v-.7c0-.95-.42-1.39-1.23-1.39a1.13,1.13,0,0,0-1.27,1.27,10,10,0,0,0-1.07.12c0-.05,0-.12,0-.17,0-1.52,1.11-2.12,2.42-2.12a2.1,2.1,0,0,1,2.31,2.26v2.85c0,.62.08,1.12.54,1.12a.51.51,0,0,0,.37-.16A1.84,1.84,0,0,0,213.08,339.82Zm-2.29-3c-.94.14-2.69.49-2.69,1.68,0,.63.48.92,1.07.92a2.3,2.3,0,0,0,1.62-1Z" transform="translate(50.26 0)"/><path d="M214,335.06c0-.46-.05-1.59-.06-1.6a3.44,3.44,0,0,0,1-.25h.19v1.42a3,3,0,0,1,2.39-1.47,1.87,1.87,0,0,1,2,2V339c0,.69,0,1,0,1.27-.4,0-.82,0-1.22,0v-4.75a1.15,1.15,0,0,0-.41-1.05,1.36,1.36,0,0,0-.83-.28,1.93,1.93,0,0,0-1.08.37,3.59,3.59,0,0,0-.87.87v3.45c0,.74,0,1.1,0,1.35-.38,0-.78,0-1.21,0Z" transform="translate(50.26 0)"/><path d="M220.76,336.84c0-2.34,1.46-3.68,3.19-3.68a2.85,2.85,0,0,1,1.5.39c0-.38,0-2.82,0-3a8.53,8.53,0,0,0,1-.22h.18v8.17a7.85,7.85,0,0,0,.19,1.72c-.38,0-.78,0-1.21,0a2.62,2.62,0,0,1-.09-.66,2.82,2.82,0,0,1-1.81.7C222.14,340.3,220.76,339,220.76,336.84Zm3.41-2.86c-1.17,0-2.21,1-2.21,2.72a3,3,0,0,0,.57,1.92,1.81,1.81,0,0,0,1.48.73,2.36,2.36,0,0,0,1.46-.51c0-.14,0-1.45,0-4.31A1.59,1.59,0,0,0,224.17,334Z" transform="translate(50.26 0)"/><path d="M231,340.3c-1.93,0-3.07-1.54-3.07-3.56s1.3-3.58,3.1-3.58,3.07,1.44,3.07,3.54S232.79,340.3,231,340.3Zm0-6.23c-1.21,0-1.93,1.13-1.93,2.63,0,1.71.82,2.65,1.93,2.65a1.62,1.62,0,0,0,1.36-.72,3,3,0,0,0,.56-1.93C232.9,335.14,232.18,334.07,231,334.07Z" transform="translate(50.26 0)"/><path d="M240.59,333.16a2.57,2.57,0,0,1,2.7,2.78,6.06,6.06,0,0,1,0,.85h-4.55V337a2.14,2.14,0,0,0,2.13,2.38,3.08,3.08,0,0,0,1.92-.67,4,4,0,0,0,.38.66,2.78,2.78,0,0,1-1.17.71,4,4,0,0,1-1.3.24c-1.78,0-3.15-1.2-3.15-3.54C237.5,334.73,238.82,333.16,240.59,333.16Zm1.66,2.86c0-.9-.33-2-1.63-2a2,2,0,0,0-1.92,2Z" transform="translate(50.26 0)"/><path d="M246.11,339.38a2.14,2.14,0,0,0,1-.25.9.9,0,0,0,.47-.87c0-.57-.39-.76-1.47-1.17a6.83,6.83,0,0,1-1.38-.74,1.59,1.59,0,0,1-.55-1.36c0-1.13.89-1.83,2.23-1.83a4,4,0,0,1,2,.46,1.84,1.84,0,0,0-.27.71l-.09.05a3.87,3.87,0,0,0-1.49-.3c-.66,0-1.27.21-1.27.89s.49.9,1.33,1.17a4.17,4.17,0,0,1,1.5.8,1.77,1.77,0,0,1,.46,1.31c0,1.41-1.21,2.05-2.47,2.05a3.51,3.51,0,0,1-2-.59,2.68,2.68,0,0,0,.29-.76A3.16,3.16,0,0,0,246.11,339.38Z" transform="translate(50.26 0)"/><path d="M250.11,334.15l-1-.13v-.6l1-.21.1-1.38a3.45,3.45,0,0,0,.91-.22h.15v1.6h1.94a2.65,2.65,0,0,0-.05.54c0,.15,0,.28,0,.4h-1.89v3.93c0,.94.39,1.23,1,1.23a1.73,1.73,0,0,0,1-.34,2.41,2.41,0,0,0,.26.77,2.7,2.7,0,0,1-1.55.56c-1.09,0-1.85-.68-1.85-2.07Z" transform="translate(50.26 0)"/><path d="M260.19,339.82a1.33,1.33,0,0,1-1,.48c-.61,0-1.07-.39-1.22-1.22a3.61,3.61,0,0,1-.86.83,2.24,2.24,0,0,1-1.3.39,1.62,1.62,0,0,1-1.73-1.69c0-1,.95-2.11,3.82-2.46v-.7c0-.95-.41-1.39-1.23-1.39a1.12,1.12,0,0,0-1.26,1.27,9.87,9.87,0,0,0-1.08.12c0-.05,0-.12,0-.17,0-1.52,1.11-2.12,2.42-2.12a2.11,2.11,0,0,1,2.32,2.26v2.85c0,.62.07,1.12.53,1.12a.56.56,0,0,0,.38-.16A1.65,1.65,0,0,0,260.19,339.82Zm-2.29-3c-.93.14-2.69.49-2.69,1.68,0,.63.48.92,1.07.92a2.3,2.3,0,0,0,1.62-1Z" transform="translate(50.26 0)"/><path d="M269.32,339.82a1.35,1.35,0,0,1-1,.48c-.61,0-1.06-.39-1.22-1.22a3.43,3.43,0,0,1-.86.83,2.2,2.2,0,0,1-1.3.39,1.61,1.61,0,0,1-1.72-1.69c0-1,.94-2.11,3.82-2.46v-.7c0-.95-.42-1.39-1.24-1.39a1.13,1.13,0,0,0-1.26,1.27,10.42,10.42,0,0,0-1.08.12c0-.05,0-.12,0-.17,0-1.52,1.1-2.12,2.42-2.12a2.1,2.1,0,0,1,2.31,2.26v2.85c0,.62.08,1.12.53,1.12a.54.54,0,0,0,.38-.16A1.48,1.48,0,0,0,269.32,339.82Zm-2.29-3c-.94.14-2.69.49-2.69,1.68,0,.63.48.92,1.06.92a2.32,2.32,0,0,0,1.63-1Z" transform="translate(50.26 0)"/><path d="M272.68,333.16a2.64,2.64,0,0,1,1.67.52,1.83,1.83,0,0,1,.67,1.56v.12h-.26a3.78,3.78,0,0,0-.76.06v-.19a1.24,1.24,0,0,0-.29-.79,1.19,1.19,0,0,0-1-.38,1.65,1.65,0,0,0-1.38.75,3.17,3.17,0,0,0-.53,1.86c0,1.52.66,2.69,2.15,2.69a3.19,3.19,0,0,0,1.86-.6,2.26,2.26,0,0,0,.36.67,3.62,3.62,0,0,1-2.38.87c-1.81,0-3.15-1.28-3.15-3.54C269.61,334.73,270.88,333.16,272.68,333.16Z" transform="translate(50.26 0)"/><path d="M276.53,334.15l-1-.13v-.6l1-.21.09-1.38a3.27,3.27,0,0,0,.91-.22h.16v1.6h1.93a3.61,3.61,0,0,0-.05.54,2.49,2.49,0,0,0,0,.4H277.7v3.93c0,.94.39,1.23,1,1.23a1.7,1.7,0,0,0,1-.34,3,3,0,0,0,.26.77,2.65,2.65,0,0,1-1.54.56c-1.1,0-1.85-.68-1.85-2.07Z" transform="translate(50.26 0)"/><path d="M281.54,330.7a.74.74,0,0,1,.74.71.75.75,0,1,1-.74-.71Zm-.59,8.17v-3.51c0-.34,0-1.72-.05-1.9a3.53,3.53,0,0,0,1-.25h.19v5.66c0,.74,0,1.18,0,1.35-.38,0-.79,0-1.22,0Z" transform="translate(50.26 0)"/><path d="M284.42,333.23l1.8,5.29a6.48,6.48,0,0,1,.18.63c0-.11.13-.42.19-.63l.44-1.3.58-1.73.5-1.54.24-.72h1.18l-2.61,7h-.3c-.17,0-.55,0-.79,0l-.52-1.37-.86-2.25-.85-2.19c-.24-.68-.4-1.08-.45-1.21Z" transform="translate(50.26 0)"/><path d="M291.14,330.7a.73.73,0,0,1,.74.71.74.74,0,1,1-.74-.71Zm-.58,8.17v-3.51c0-.34,0-1.72-.05-1.9a3.39,3.39,0,0,0,1-.25h.2v5.66c0,.74,0,1.18,0,1.35-.38,0-.8,0-1.23,0Z" transform="translate(50.26 0)"/><path d="M293,336.84c0-2.34,1.46-3.68,3.19-3.68a2.85,2.85,0,0,1,1.5.39c0-.38,0-2.82,0-3a8.53,8.53,0,0,0,1-.22h.18v8.17a7.85,7.85,0,0,0,.19,1.72c-.38,0-.78,0-1.21,0a2.62,2.62,0,0,1-.09-.66,2.82,2.82,0,0,1-1.81.7C294.38,340.3,293,339,293,336.84Zm3.41-2.86c-1.17,0-2.21,1-2.21,2.72a3,3,0,0,0,.57,1.92,1.81,1.81,0,0,0,1.48.73,2.36,2.36,0,0,0,1.46-.51c0-.14,0-1.45,0-4.31A1.59,1.59,0,0,0,296.41,334Z" transform="translate(50.26 0)"/><path d="M306.24,339.82a1.35,1.35,0,0,1-1,.48c-.61,0-1.06-.39-1.22-1.22a3.43,3.43,0,0,1-.86.83,2.2,2.2,0,0,1-1.3.39,1.62,1.62,0,0,1-1.73-1.69c0-1,.95-2.11,3.83-2.46v-.7c0-.95-.42-1.39-1.24-1.39a1.13,1.13,0,0,0-1.26,1.27,10.42,10.42,0,0,0-1.08.12c0-.05,0-.12,0-.17,0-1.52,1.1-2.12,2.42-2.12a2.1,2.1,0,0,1,2.31,2.26v2.85c0,.62.08,1.12.53,1.12a.54.54,0,0,0,.38-.16A1.48,1.48,0,0,0,306.24,339.82Zm-2.29-3c-.94.14-2.69.49-2.69,1.68,0,.63.48.92,1.06.92a2.32,2.32,0,0,0,1.63-1Z" transform="translate(50.26 0)"/><path d="M306.53,336.84c0-2.34,1.46-3.68,3.19-3.68a2.91,2.91,0,0,1,1.51.39c0-.38,0-2.82,0-3a9.12,9.12,0,0,0,1-.22h.18v8.17a8,8,0,0,0,.18,1.72c-.38,0-.78,0-1.21,0a3.25,3.25,0,0,1-.09-.66,2.8,2.8,0,0,1-1.81.7C307.91,340.3,306.53,339,306.53,336.84Zm3.41-2.86c-1.17,0-2.21,1-2.21,2.72a3.09,3.09,0,0,0,.57,1.92,1.81,1.81,0,0,0,1.48.73,2.36,2.36,0,0,0,1.46-.51c0-.14,0-1.45,0-4.31A1.62,1.62,0,0,0,309.94,334Z" transform="translate(50.26 0)"/><path d="M317.49,333.28a1.27,1.27,0,0,0-1.36-1.37,1.24,1.24,0,0,0-1.35,1.23v.2h-.36c-.24,0-.53,0-.65,0v-.26a2.23,2.23,0,0,1,2.42-2.11,2.15,2.15,0,0,1,2.41,2.24,3,3,0,0,1-1.37,2.34c-.28.26-.56.49-.82.71a.94.94,0,0,0-.39.76,1.37,1.37,0,0,0,.33.84h-.78a1.27,1.27,0,0,1-.5-1C315.07,335.37,317.49,335,317.49,333.28ZM316,338.86a.73.73,0,0,1,.74.71.73.73,0,0,1-.74.72.72.72,0,0,1-.74-.72A.71.71,0,0,1,316,338.86Z" transform="translate(50.26 0)"/><image width="1747" height="1081" transform="translate(138.19 338.16) scale(0.12)" xlink:href="../../../../../Downloads/Recurso%201.png"/></g></g></svg>