<svg xmlns="http://www.w3.org/2000/svg" viewBox="0 0 656.42 292.76"><defs><style>.cls-1,.cls-9{fill:#009995;}.cls-2{fill:#00bcbc;}.cls-12,.cls-14,.cls-3,.cls-5{fill:none;}.cls-3,.cls-5{stroke:#009995;}.cls-12,.cls-14,.cls-3{stroke-linecap:round;}.cls-12,.cls-3{stroke-linejoin:round;}.cls-3{stroke-width:2px;}.cls-4{fill:#e5a21a;}.cls-14,.cls-5{stroke-miterlimit:10;}.cls-12,.cls-5{stroke-width:3px;}.cls-6{fill:#e5e5e5;}.cls-7{fill:#fcb910;}.cls-8{fill:#fbb917;}.cls-9{opacity:0.71;}.cls-10{fill:#1c1b28;}.cls-11{fill:#f95c4b;}.cls-12{stroke:#1c1b28;}.cls-13{fill:#fff;}.cls-14{stroke:#fff;stroke-width:0.5px;}</style></defs><g id="Capa_2" data-name="Capa 2"><g id="Capa_2-2" data-name="Capa 2"><path class="cls-1" d="M262.89,186.91l-17.2,12.68a25.73,25.73,0,0,0-8.54,11.27l-3.81,9.49,25.82-5.17c4.22-.9,8.86-3.09,11.51-7.37l11.5-14.94-15.65-28.11-1.2,1.77-12.53,5.39.31,21.52"/><line class="cls-1" x1="251.61" y1="171.99" x2="251.92" y2="193.51"/><path class="cls-1" d="M261.71,187l-17.2,12.68A25.88,25.88,0,0,0,236,210.93l-3.81,9.49L258,215.26c4.22-.9,8.86-3.1,11.5-7.38L281,193l-15.65-28.12"/><path class="cls-2" d="M258.65,188.21l-17.2,12.68a25.86,25.86,0,0,0-8.54,11.27l-3.81,9.49L255.72,216a18.31,18.31,0,0,0,10.71-6.87l11.5-14.93L264.14,166.6"/><path class="cls-3" d="M229.59,220.53s.38-15.07,29.62-33"/><path class="cls-2" d="M260,187.11,244.89,197c-3.73,2.76-8.81,9.45-10.67,14.09l-3.81,9.49L257,214.87A18.35,18.35,0,0,0,267.74,208l11.5-14.94L265.45,165.5l-15.59,6.62.32,21.52"/><path class="cls-1" d="M269,209.51c1.32-5.12-1.78-9.54-7.39-11.07-17.86-4.86-31.92,9.06-36.28,15.08-.5.69,1.27,1.56,2.07,1l10.08-5.81-15.84,15c-1.86,1.75-.3,3.86,2.31,3.11l18.57-5.36L228,234c-1.24,1.51.6,3.33,2.66,2.65l2.69-.69A68.36,68.36,0,0,0,256.77,225C262.25,221,267.41,215.69,269,209.51Z"/><path class="cls-2" d="M268.23,208.4c1.07-5-1.9-9.38-7.11-11-16.59-5.24-29.16,8-33,13.75-.45.67,1.21,1.57,1.93,1.08l9.12-5.4L225,221c-1.66,1.67-.16,3.77,2.21,3.11l17-4.74-13,11.85c-1.1,1.45.64,3.27,2.52,2.67l2.46-.61a57.21,57.21,0,0,0,21.28-10.05C262.33,219.42,266.93,214.4,268.23,208.4Z"/><path class="cls-4" d="M264.17,163.33c-.06.67-.15,1.34-.24,2h0a76.9,76.9,0,0,1-14.76,35.71s-27,36.52-69,42.73c-.48.07-.79.54-1.21.77C138.77,267.2,65.79,266.49,65.79,266.49S34.23,265.67,3,236a9.18,9.18,0,0,1-.15-13.46c3.33-3.1,8.62-6.17,16.92-7.25a45.83,45.83,0,0,1,40.59,16.11,14,14,0,0,1,11.09-12.89l15.45-13.85,1.45-1.54,7.12-9.58,14.82-12a10.71,10.71,0,0,0,1.88-4.54c9.18-54.61,32-70,33-70.76a.17.17,0,0,0,.06-.06C172.91,78.06,199,72.92,215.1,73.88l.7.05A36.81,36.81,0,0,1,225.55,76h0A37.93,37.93,0,0,1,245.73,93.2c1.81,3.25,3.47,6.63,5,10a.07.07,0,0,1,0,.06,199.12,199.12,0,0,1,9,24.43A76.57,76.57,0,0,1,264.17,163.33Z"/><line class="cls-5" x1="398.19" y1="211" x2="407.64" y2="190.54"/><ellipse class="cls-6" cx="381.78" cy="254.82" rx="176.38" ry="36.37" transform="translate(-15.13 24.28) rotate(-3.57)"/><path class="cls-1" d="M322,215.05l-21.45,9.76A28.47,28.47,0,0,0,288.74,235l-6.28,9.37,29,.32c4.76,0,10.26-1.32,14.1-5.34l15.81-13.49L330.94,192l-1.7,1.63-14.75,3-4.57,23.29"/><line class="cls-1" x1="313.2" y1="196.38" x2="308.63" y2="219.67"/><path class="cls-1" d="M320.68,214.86l-21.45,9.76a28.42,28.42,0,0,0-11.79,10.21l-6.27,9.37,29,.32c4.76,0,10.26-1.32,14.1-5.34l15.81-13.49-10.47-33.9"/><path class="cls-2" d="M317.11,215.49l-21.45,9.76a28.49,28.49,0,0,0-11.79,10.21l-6.28,9.37,30-.05a20.2,20.2,0,0,0,13.12-5l15.82-13.49-8.6-32.9"/><path class="cls-3" d="M278.38,243.73s3.85-16.17,39.48-28.84"/><path class="cls-2" d="M318.77,214.6l-18.51,7.21c-4.66,2.11-11.66,8.18-14.73,12.76l-6.27,9.37,30-.05a20.22,20.22,0,0,0,13.12-5l15.81-13.49-8.59-32.9-18.33,3.59-4.57,23.29"/><path class="cls-1" d="M410.13,207.05l-23.64,3.8a30,30,0,0,0-14,6.24l-8.3,6.67,29.14,6.4c4.79,1,10.6,1,15.31-1.58l18.76-8.18L424,189.25l-2.05,1-15.46-.59L397,208.62"/><line class="cls-1" x1="405.27" y1="189.27" x2="395.73" y2="208.18"/><path class="cls-1" d="M408.7,208.14,385,212.45c-5.15.93-16.64,1-20.72,4.58l-8.55,8.08,35.73,6.83c4.78,1,9.86.17,14.73-1.8l21.19-9.84-4.61-31.48"/><path class="cls-2" d="M405.14,206.4l-23.64,3.8a30.15,30.15,0,0,0-14,6.23l-8.3,6.68,30.2,6.28a23.54,23.54,0,0,0,14.25-1.47l18.77-8.17-1.67-29.9"/><path class="cls-3" d="M360.2,222.33s7.31-13,45.82-16.28"/><path class="cls-2" d="M407,206l-20.14,2.25A46.38,46.38,0,0,0,369.35,216l-8.3,6.67,30.2,6.29a23.67,23.67,0,0,0,14.24-1.47l18.77-8.18-1.67-29.9-19.19-.8-9.53,18.92"/><path class="cls-3" d="M360.05,223.76s7.46-14.41,46-17.71"/><polygon class="cls-1" points="209.34 59.85 223.79 53.25 226.3 64.27 214.21 67.25 209.34 59.85"/><path class="cls-1" d="M554.92,171.54s4.4-63.68-73.93-137.62c0,0,20.68,91-60.75,163.24,0,0,62.49,46.49,131,18.92,23.73-9.56,28.78-40.87,13.48-61.39a88.37,88.37,0,0,0-9-10.23Z"/><path class="cls-4" d="M420.24,197.16l-7.37-5.31s19.42-3.84,40.71-60.31c0,0,20-60.73,5.06-108.92L481,33.92s2.43,11.88,2,34.42c-.5,23.43-7.2,43.77-14.94,67.4C460.59,158.37,439.48,187.33,420.24,197.16Z"/><path class="cls-4" d="M425.82,9.63l32.82,13s16.46,52.56-2.26,99c0,0-12.31,56.38-43.51,70.21h-9s21.85-18.76,30-53.09C433.84,138.76,452.87,56.43,425.82,9.63Z"/><path class="cls-7" d="M332,197.16l16.86-8.81h10.27s5.13-121-58.66-161.29l-14.66,6.86-21.63,5.32S324.7,57.19,332,197.16Z"/><path class="cls-1" d="M300.45,27.06S326.38-4.11,425.82,9.63c0,0,27.3,29.45,15.32,92.58,0,0-8.31,73.57-39.8,89.64l-42.23-3.5S366,81.61,300.45,27.06Z"/><path class="cls-7" d="M422.06,196.18l-7.8-5.54S434,186,453,131c0,0,17.83-59.19,4.52-106.15l20,11s2.17,11.57,1.75,33.53c-.44,22.84-6.43,42.66-13.34,65.69C459.24,157.13,439.24,186.6,422.06,196.18Z"/><path class="cls-2" d="M554.68,210.33c-62.74,31.76-123-15.68-123-15.68,72.15-68.93,55.74-151.14,55.74-151.14,75.06,67.71,70.85,126,70.85,126l3.46-14.72,7.16,21.81A27.65,27.65,0,0,1,566,200.29,28.61,28.61,0,0,1,554.68,210.33Z"/><path class="cls-7" d="M428.4,13l25.06,11.88s8.78,48.25-1.77,96c0,0-11.39,57.23-39.66,71.06H401.34s21-17.65,29-50c.43-1.75.85-3.51,1.33-5.25C434.92,124.68,449.08,62.05,428.4,13Z"/><path class="cls-2" d="M309.85,29.31s22-29.73,106.52-16.63c0,0,23.18,28.1,13,88.33,0,0-5.93,69.51-32.68,84.84l-37-2.65S368.72,77.67,309.85,29.31Z"/><path class="cls-4" d="M290.37,38.68a63.06,63.06,0,0,1,11.87,9.74A111.49,111.49,0,0,1,311.56,60c3.21,4.44,6.41,8.89,9.2,13.61a122.69,122.69,0,0,1,7.39,14.72c8.66,20.46,12.26,42.66,14.75,64.61,1.26,11.07,2.25,22.17,3.32,33.25-.15-1.65.16-3.35,0-5-2-20.86-3.62-41.85-7.65-62.44a185.44,185.44,0,0,0-8.95-31.8,132.28,132.28,0,0,0-15.74-28.71,149.2,149.2,0,0,0-10.4-13.48,63.74,63.74,0,0,0-13.11-11.07,12.4,12.4,0,0,1,0,2.5c0,.31-.23,2.33,0,2.5Z"/><path class="cls-1" d="M332,197.16S333.3,136,313.92,99c0,0-11.57-40.08-47.93-60.2,0,0-26.16-4.63-42.2,14.46,0,0,30.84,25.94,42.2,52,0,0,.93,45.53,24.38,86.65l13.35,16Z"/><path class="cls-1" d="M305.94,207s-17.44,7.95-31.28-19.82v0l-3.79-7.61a124.8,124.8,0,0,1-6.69-16.21A120,120,0,0,1,259,140.75c-1.6-12.47-4.14-25.9-8.27-37.48a.14.14,0,0,0,0-.06.07.07,0,0,0,0-.06,74.77,74.77,0,0,0-7.46-15.55,30.81,30.81,0,0,0-13.59-11.34l-4.82-2.09-1.08-.47-.68-.29,0-.56.43-12,.27-7.62S234.21,50,255.32,81.77a77.32,77.32,0,0,1,11.36,27.42c3,15,8.35,40.2,13.34,58.78a67.65,67.65,0,0,0,12.73,25C297.06,198.28,302.14,204.09,305.94,207Z"/><path class="cls-7" d="M223.07,76.54l-33.92-47.6a20,20,0,0,0-8.91-6.83C165,16.2,122.94,0,119.72,0c-3,0,14.28,30.47,21.69,43.91,2.26,4.11,3.77,6.79,3.77,6.79L191,77.11Z"/><path class="cls-7" d="M137.6,37l-23.39-2.5-19.9-2.12a1.35,1.35,0,0,0-1.33,2l17.35,31.46a15,15,0,0,0,7.27,6.54L135.73,80a9.06,9.06,0,0,0,2.4.64l36.34,4.57L191,77.11,145.18,50.7Z"/><polygon class="cls-2" points="145.18 50.7 137.6 37.03 114.21 34.53 129.9 61.61 190.95 77.11 145.18 50.7"/><path class="cls-2" d="M302,205.52s-14.95,1.38-27.34-18.35v0c-1.09-1.75-2.17-3.66-3.21-5.75l-3.52-7.07q-2.19-4.4-4-9h0a113.53,113.53,0,0,1-7-27.23c-1.26-9.8-3-22.87-6.16-34.86a.14.14,0,0,0,0-.06.07.07,0,0,0,0-.06c-2.37-9-5.56-17.31-10-23.25-6.42-8.64-12.87-7.16-15.89-5.73l-.52.26a9.23,9.23,0,0,0-1.24.79l-8.86-11.1a9.64,9.64,0,0,1,1.41-1,18.39,18.39,0,0,1,5.89-2.07,15.27,15.27,0,0,1,2-.23,19.07,19.07,0,0,1,11.33,3c5.14,3.25,13,8.87,16,14.62,0,0,7.47,11.19,8.18,13,.31.8,1.22,2.56,2.14,4.29a36.5,36.5,0,0,1,3.52,9.7l.72,3.48c3.54,13.76,4.48,37.43,11,54.58C276.41,163.61,281.43,185.26,302,205.52Z"/><path class="cls-2" d="M268,41.35c32.75,15.13,44.05,57.8,44.05,57.8,16.57,33.94,15.44,90.16,15.44,90.16L306,200.38,300.32,194a87.82,87.82,0,0,1-15.78-25.67,207.1,207.1,0,0,1-13.24-59.58l0-.17a50,50,0,0,0-7.86-23.39c-7.21-11.29-22.15-31.69-33.86-27.82h0S254.11,34.91,268,41.35Z"/><path class="cls-7" d="M33.84,220.42a37,37,0,0,1,35.7,14.24c1.23-10.77,10.28-12.74,10.28-12.74L94,208.13l1.35-1.52,6.64-9.43,13.58-12h0a11.56,11.56,0,0,0,1.82-4.43c9.87-52.78,30.68-68.28,31.6-69l.06-.06c25.54-27.88,49-33.63,63.29-33.2a30.86,30.86,0,0,1,26.72,17.63c7.28,14.77,11.45,32.67,11.45,32.67s13.34,35.32-11.71,70.93c0,0-25.18,36-62.87,43.21-.43.08-.72.55-1.1.79-36.51,23-101.56,24.54-101.56,24.54s-28.12.19-55-27.36a9.31,9.31,0,0,1,.28-12.94C21.59,224.83,26.41,221.71,33.84,220.42Z"/><path class="cls-8" d="M34.24,221.86c13.14-2.21,26.13,3.46,34.24,13.86.9,1.16,2.42,0,2.56-1.06a13.71,13.71,0,0,1,3.63-8,12.39,12.39,0,0,1,2.4-1.93c.38-.23.77-.45,1.16-.64a6.62,6.62,0,0,1,.76-.34,5.62,5.62,0,0,0,2.12-1c1.14-1.05,2.23-2.16,3.35-3.24l9.6-9.33a40.44,40.44,0,0,0,4.81-5.94l3.88-5.51.44-.63c.24-.37-.14.14-.07.1a7.59,7.59,0,0,0,1-.88l10-8.87a23.84,23.84,0,0,0,2.64-2.38,12.26,12.26,0,0,0,2.22-5.62q.65-3.36,1.38-6.71a189.19,189.19,0,0,1,6.49-22.91A113.78,113.78,0,0,1,141,122.7a51,51,0,0,1,8.68-9.65c1.32-1.1,2.41-2.5,3.62-3.73a133.21,133.21,0,0,1,10.07-9.38,99.37,99.37,0,0,1,18.65-12.48c9.16-4.67,19.39-7.72,29.74-7.54a29,29,0,0,1,19.11,7.64c5.86,5.4,8.85,12.94,11.6,20.24,2.85,7.56,4.82,15.34,7.15,23a76,76,0,0,1,2.65,28.06,80.59,80.59,0,0,1-15,40.32l-.58.78c-.12.17-.25.34-.38.5-.3.39,0,0-.35.46q-1.4,1.77-2.85,3.49a134.92,134.92,0,0,1-9.27,9.86A111,111,0,0,1,192.73,236a80.18,80.18,0,0,1-9.94,3.7c-1.79.53-3.61,1-5.44,1.4a8.59,8.59,0,0,0-2.46.65c-.73.43-1.39,1-2.13,1.48A110.76,110.76,0,0,1,155,251.72a212.36,212.36,0,0,1-39,10.39c-10.51,1.86-21.12,3.17-31.76,4-3.74.29-7.57.7-11.33.62-7.39-.18-15.14-2.47-22.16-5.33a89.28,89.28,0,0,1-19.14-10.84,100,100,0,0,1-10.24-8.71c-1.38-1.35-2.93-2.65-3.61-4.52a8,8,0,0,1-.14-5c.86-2.91,3.48-5,5.95-6.53a29.8,29.8,0,0,1,10.69-3.94c1.89-.34,1.09-3.23-.8-2.89a31.88,31.88,0,0,0-11.26,4.15c-2.73,1.7-5.58,3.93-6.91,6.93a10.87,10.87,0,0,0,.61,10.22,27.67,27.67,0,0,0,4.55,4.82c1.7,1.61,3.47,3.16,5.28,4.65,10.64,8.72,23.15,15.41,36.62,18.47a47,47,0,0,0,12.15,1.46c7.27-.28,14.54-.9,21.77-1.72A294.2,294.2,0,0,0,134,261.37c13.35-3.31,26.68-7.74,38.64-14.62.64-.37,1.27-.75,1.9-1.13.36-.22.72-.42,1.07-.66.2-.14.38-.3.57-.45s.42-.28.17-.18a20.91,20.91,0,0,1,2.87-.62c.94-.22,1.88-.46,2.81-.71a83.06,83.06,0,0,0,10.45-3.68,99.41,99.41,0,0,0,18.25-10.24,131.42,131.42,0,0,0,24.13-22,86.68,86.68,0,0,0,14.3-23,82.87,82.87,0,0,0,5.81-42,73.57,73.57,0,0,0-2.29-11.59c-.41-1.41-.84-2.78-1.2-4.21a191.47,191.47,0,0,0-5.87-18.72c-2.82-7.57-5.87-15.48-11.68-21.29a32.21,32.21,0,0,0-19.58-9.24,51.08,51.08,0,0,0-14.43,1c-13.12,2.53-25.14,9.15-35.58,17.31a127.3,127.3,0,0,0-10.13,8.87c-1.78,1.72-3.5,3.48-5.19,5.29-.41.43-.79.89-1.23,1.28-1,.86-1.95,1.68-2.87,2.61a77.45,77.45,0,0,0-12.65,17.76C125.6,143.48,121.17,157,118,170.59c-.53,2.25-1,4.51-1.47,6.78a20.43,20.43,0,0,1-2,6.67c-.54.94.29-.08-.15.19a4.4,4.4,0,0,0-.52.46L112,186.33l-10.17,9a10.58,10.58,0,0,0-1.72,1.94l-4,5.64-1.66,2.37c-.12.17-.24.35-.37.52s.37-.42.11-.16l-.51.58c-.71.81-1.47,1.55-2.25,2.3l-10,9.74-1.84,1.79c-.17.16-.76.56-.82.8.14-.57,1-.39.5-.34a3,3,0,0,0-.56.17,15.39,15.39,0,0,0-2.14.9c-5.06,2.57-7.85,7.57-8.53,13.08l2.56-1.06A38.93,38.93,0,0,0,33.44,219C31.54,219.29,32.34,222.18,34.24,221.86Z"/><polygon class="cls-9" points="514.59 113.1 505.29 108.67 512.51 105.52 519.84 102.51 521.58 108.95 523.88 117.53 514.59 113.1"/><polygon class="cls-9" points="536.7 150.4 527.4 145.97 534.63 142.82 541.95 139.81 543.7 146.25 546 154.83 536.7 150.4"/><polygon class="cls-9" points="499.43 92.64 491.14 88.69 497.58 85.88 504.11 83.19 505.67 88.93 507.72 96.58 499.43 92.64"/><polygon class="cls-9" points="500.33 124.2 494.45 120.34 499.63 118.88 504.86 117.52 505.45 122.03 506.21 128.05 500.33 124.2"/><polygon class="cls-9" points="541.03 133.31 533.33 128.26 539.42 127.38 545.61 126.63 546.96 131.66 548.74 138.35 541.03 133.31"/><polygon class="cls-9" points="523.83 132.83 517.95 128.97 523.12 127.51 528.36 126.15 528.95 130.66 529.71 136.68 523.83 132.83"/><polygon class="cls-9" points="510.31 139.56 505.29 136.27 509.71 135.02 514.18 133.86 514.68 137.71 515.33 142.85 510.31 139.56"/><polygon class="cls-9" points="533.33 117.62 527.4 113.75 532.61 112.27 537.88 110.9 538.48 115.44 539.25 121.5 533.33 117.62"/><polygon class="cls-9" points="517.9 92.25 513.55 89.41 517.38 88.33 521.24 87.32 521.68 90.66 522.24 95.1 517.9 92.25"/><polygon class="cls-9" points="487.89 104.95 482 101.09 487.18 99.63 492.42 98.27 493 102.78 493.77 108.8 487.89 104.95"/><polygon class="cls-9" points="499.43 73.43 491.73 68.38 497.82 67.5 504.01 66.75 505.36 71.78 507.13 78.47 499.43 73.43"/><polygon class="cls-9" points="356.71 46.16 367.92 47.15 362.87 40.18 357.64 33.28 352.43 38.37 345.5 45.17 356.71 46.16"/><polygon class="cls-9" points="381.78 40.7 391.57 42.88 387.92 36.13 384.11 29.42 378.9 33.31 371.99 38.51 381.78 40.7"/><polygon class="cls-9" points="420.18 49.6 430.83 53.22 427.58 45.25 424.14 37.31 417.87 41.01 409.53 45.98 420.18 49.6"/><polygon class="cls-9" points="332.93 54.23 340.47 55.7 337.54 50.61 334.48 45.55 330.58 48.64 325.39 52.77 332.93 54.23"/><polygon class="cls-9" points="339.71 29.77 347.25 31.24 344.31 26.15 341.25 21.09 337.35 24.18 332.17 28.3 339.71 29.77"/><polygon class="cls-9" points="368.38 27.3 373.91 28.37 371.76 24.64 369.52 20.93 366.65 23.19 362.85 26.22 368.38 27.3"/><polygon class="cls-9" points="385.92 18.43 389.81 19.19 388.3 16.57 386.72 13.96 384.71 15.55 382.04 17.68 385.92 18.43"/><polygon class="cls-9" points="354.88 18.82 358.83 18.73 356.8 16.49 354.7 14.28 353.08 16.26 350.92 18.91 354.88 18.82"/><polygon class="cls-9" points="401.03 40.15 405.95 41.11 404.03 37.78 402.04 34.48 399.49 36.5 396.11 39.19 401.03 40.15"/><polygon class="cls-9" points="422.59 30.51 427.51 31.47 425.59 28.14 423.6 24.84 421.05 26.86 417.67 29.55 422.59 30.51"/><polygon class="cls-9" points="403.26 29.42 410.8 30.89 407.86 25.8 404.8 20.74 400.9 23.83 395.72 27.95 403.26 29.42"/><path class="cls-4" d="M569.07,162.18s10.33,26.73-5,45.27l17.77-9.32s32.43,3.62,47.41-4c0,0,18.73-6.07,27-29.13a2.89,2.89,0,0,0-3.07-3.84h0a12.83,12.83,0,0,0-6.33,2.65C639,170,613.94,189.18,569.07,162.18Z"/><path class="cls-1" d="M257.05,162.41a40.2,40.2,0,0,0,6.53,30.23h0a18.27,18.27,0,0,0,22,6.84h0l-26.33-48.89Z"/><path class="cls-1" d="M323.41,240.83c2.6-5.22.26-10.7-5.45-13.63-18.16-9.32-36.5,2.49-42.58,8-.7.63,1,2,2,1.59l12.2-4-20.5,12.56c-2.41,1.47-1.2,4.1,1.78,3.88l21.26-1.55-18.54,10.2c-1.68,1.35-.11,3.73,2.26,3.47l3.06-.14a75.13,75.13,0,0,0,27.78-6.45C313.52,251.66,320.29,247.13,323.41,240.83Z"/><path class="cls-2" d="M322.83,239.46c2.3-5.13.09-10.56-5.15-13.52-16.7-9.45-33.28,2-38.75,7.31-.63.61,1,2,1.84,1.6l11.08-3.75-18.54,12.11c-2.18,1.42-1,4,1.67,3.86l19.38-1.24-16.78,9.81c-1.51,1.31-.05,3.67,2.11,3.45l2.8-.09a63.29,63.29,0,0,0,25.26-6C314,250,320.06,245.63,322.83,239.46Z"/><path class="cls-7" d="M586,196.81a1.5,1.5,0,0,0,0-3,1.5,1.5,0,0,0,0,3Z"/><path class="cls-7" d="M585.86,197.68a34.76,34.76,0,0,0,9.19-17.86,13.92,13.92,0,0,0,0-2.5,14.94,14.94,0,0,1,0-2.5,34.76,34.76,0,0,1-9.19,17.86,3.07,3.07,0,0,0,0,.73c0,.59,0,1.18,0,1.77s0,1.17,0,1.76a3.12,3.12,0,0,1,0,.74Z"/><path class="cls-7" d="M603.5,198.14a23.36,23.36,0,0,1,3.23-4.25,17.51,17.51,0,0,0,2.87-4.49,17,17,0,0,0,1.3-5.21,52.21,52.21,0,0,0,0-7.4c0-.32,0,.4,0,.25,0,.5,0,1,0,1.5,0,1,0,2.06,0,3.07.16,2.41.17-4.53,0-2.61,0,.43-.08.86-.14,1.29a16,16,0,0,1-.48,2.16,16.62,16.62,0,0,1-1.7,3.92c-1.46,2.44-3.77,4.24-5.09,6.77a2.61,2.61,0,0,0,0,.73c0,.59,0,1.18,0,1.77s0,1.18,0,1.77a2.59,2.59,0,0,1,0,.73Z"/><path class="cls-7" d="M620.07,196.62a26.08,26.08,0,0,0,8.18-16.82c.14-1.66-.14-3.35,0-5a26.08,26.08,0,0,1-8.18,16.82,3.72,3.72,0,0,0,0,.73v3.54a2.6,2.6,0,0,1,0,.73Z"/><path class="cls-7" d="M638.11,188.41a27.12,27.12,0,0,0,5.29-15.7c0-1.14,0-2.28,0-3.42,0-.26.12-.94,0-1.14s0,0,0,.25a26.37,26.37,0,0,1-5.26,15,3.09,3.09,0,0,0,0,.74c0,.59,0,1.18,0,1.76s0,1.18,0,1.77c0,.14.08.64,0,.73Z"/><path class="cls-7" d="M579.21,186.53a16.63,16.63,0,0,0,3.46-6.95,18.07,18.07,0,0,0,.42-3.73,55,55,0,0,0-.11-6.67c.08.81,0,1.69,0,2.5a23.14,23.14,0,0,0,0,2.5c0,.31,0,.61.07.92.13,1.78.13-5.14,0-3,0,.51-.1,1-.18,1.51a17.15,17.15,0,0,1-.72,2.82,16.43,16.43,0,0,1-2.93,5.12,3.62,3.62,0,0,0,0,.73c0,.59,0,1.18,0,1.77s0,1.18,0,1.77c0,.13.08.65,0,.73Z"/><path class="cls-10" d="M207.78,194.88l-3.69,17.75a17.93,17.93,0,0,1-19.35,13.84l-16.81-2.66A105.81,105.81,0,0,0,207.78,194.88Z"/><path class="cls-11" d="M204.09,212.63a17.92,17.92,0,0,1-18.8,13.87c6.14-16.11,15.27-16.44,19.18-15.72Z"/><path class="cls-12" d="M214.06,191.38l-2.18,19c-4.59,17.93-9,23-27.2,22.35l-20.31-4.5"/><ellipse class="cls-10" cx="137.89" cy="146.34" rx="15.74" ry="6.25" transform="translate(-37.92 243.92) rotate(-75.73)"/><ellipse class="cls-10" cx="184.54" cy="149.76" rx="16.49" ry="6.54" transform="matrix(0.25, -0.97, 0.97, 0.25, -6.07, 291.71)"/><ellipse class="cls-13" cx="184.27" cy="154.35" rx="11.58" ry="4.59" transform="translate(-10.72 294.91) rotate(-75.73)"/><circle class="cls-13" cx="188.98" cy="140.05" r="1.53"/><ellipse class="cls-13" cx="137.29" cy="150.59" rx="10.63" ry="4.22" transform="translate(-42.49 246.54) rotate(-75.73)"/><circle class="cls-13" cx="142.23" cy="136.98" r="1.53"/><path class="cls-10" d="M185,127c.31-.18.63-.34.95-.49l.47-.22c.28-.12-.14.06-.06,0l.31-.13a12,12,0,0,1,1.32-.44,15,15,0,0,1,1.48-.33c.25,0-.35,0,.07,0,.13,0,.25,0,.38,0a6.4,6.4,0,0,1,.76,0l.38,0c.41,0-.18,0,.07,0s.52.11.78.19l.23.08c-.23-.09.16.08.21.11l.3.17c.1.06.5.38.19.11.24.21.46.44.68.67s0,0,0,0l.16.23a4.57,4.57,0,0,1,.29.47,6.1,6.1,0,0,1,.29.57c-.12-.26.11.29.13.36a11.15,11.15,0,0,1,.39,1.43,1.5,1.5,0,1,0,2.89-.8c-.64-3.06-2.53-5.93-5.82-6.46a12.53,12.53,0,0,0-7,1.23,13.11,13.11,0,0,0-1.35.68A1.5,1.5,0,0,0,185,127Z"/><path class="cls-10" d="M143.79,124.35c.19-.13.39-.24.6-.36l.66-.35.38-.18.21-.09-.2.08.13,0a8.52,8.52,0,0,1,1-.33l.51-.13.22,0,.15,0c.18,0-.35,0-.17,0a6,6,0,0,1,1,0c.32,0-.3-.07-.07,0l.22,0,.24.07.11,0c.23.07-.27-.14-.12-.05l.49.28c.15.09-.07.05-.12-.1,0,0,.1.08.12.1s.16.15.23.23l.08.1c.12.11-.21-.31-.05-.07l.18.27.18.34a.61.61,0,0,1,.07.14c-.08-.19-.1-.23,0-.12l0,.15a1.54,1.54,0,0,0,1.85,1,1.52,1.52,0,0,0,1.05-1.85,5.75,5.75,0,0,0-2.11-2.86,5,5,0,0,0-2.76-.76,10.32,10.32,0,0,0-4.7,1.37c-.31.17-.62.34-.91.53a1.53,1.53,0,0,0-.53,2.06,1.52,1.52,0,0,0,2,.53Z"/><path class="cls-1" d="M167.45,119.42A46.34,46.34,0,0,1,176.88,96c6.82-8.55,17.49-13.75,29.17-15.08,2.24-.25,4.66-.45,7.1-.52,11.08-.32,18.62,11.54,12.45,19.68-4,5.22-11.86,10.83-26.83,15.7l-26.16,7.57C169.94,124.11,167.16,122,167.45,119.42Z"/><path class="cls-2" d="M171.79,116a38.74,38.74,0,0,1,7-19.44c5.21-7,13.52-11.27,22.69-12.24,1.75-.18,3.66-.32,5.57-.35,8.72-.13,14.85,9.86,10.14,16.58-3,4.31-9.14,8.9-20.84,12.78l-20.45,6A3.29,3.29,0,0,1,171.79,116Z"/><line class="cls-14" x1="191.65" y1="90.17" x2="204.31" y2="92.93"/><line class="cls-14" x1="187.49" y1="92.46" x2="200.16" y2="95.22"/><line class="cls-14" x1="188.72" y1="95.84" x2="201.38" y2="98.6"/><line class="cls-14" x1="203.03" y1="95.85" x2="206.91" y2="96.69"/><path class="cls-1" d="M513.1,228.28l-25.69,7a33.32,33.32,0,0,0-14.75,8.58l-8.38,8.38,33,3.57c5.41.53,11.84-.12,16.73-3.58L533.78,241l-7.43-34-2.15,1.39L507,209.53l-8.27,22.06"/><line class="cls-1" x1="505.59" y1="209.2" x2="497.31" y2="231.26"/><path class="cls-1" d="M511.65,229.66,486,237.27c-5.58,1.65-18.28,3.14-22.37,7.56l-8.48,10L495.45,258c5.41.57,10.93-1,16.07-3.75l22.26-13.43L524.9,206.6"/><path class="cls-2" d="M507.51,228.16l-25.69,7a33.36,33.36,0,0,0-14.76,8.58l-8.37,8.38,34.15,3.32a26.24,26.24,0,0,0,15.58-3.34l19.77-11.29L522.76,208"/><path class="cls-3" d="M459.72,251.18s6.52-15.24,48.72-23.51"/><path class="cls-2" d="M509.52,227.48l-22,4.91c-5.58,1.53-14.35,6.62-18.44,10.71l-8.37,8.38,34.15,3.33a26.3,26.3,0,0,0,15.58-3.34l19.77-11.3-5.43-32.86-21.32,1.42-8.28,22.06"/><path class="cls-3" d="M459.72,252.77s6.52-16.83,48.72-25.1"/><path class="cls-7" d="M189,76.28l51.39,28a2,2,0,0,0,2.49-2.88l-24-31.82Z"/><path class="cls-1" d="M250.7,103.15c-1.5-3.32-3.16-6.7-5-10A37.93,37.93,0,0,0,225.56,76h0l-1.24-1.61.52-.26,4.82,2.09A30.81,30.81,0,0,1,243.24,87.6,74.77,74.77,0,0,1,250.7,103.15Z"/><path class="cls-2" d="M231.65,83.94l-15.85-10L162.06,40,121.24,0l60.38,22.69a14.65,14.65,0,0,1,6.65,5l27.35,35.43,7.47,9.68.66.85.56.73L225.55,76h0Z"/></g></g></svg>