<svg xmlns="http://www.w3.org/2000/svg" xmlns:xlink="http://www.w3.org/1999/xlink" viewBox="0 0 582.35 1038.58"><defs><style>.cls-1{fill:url(#Motivo_nuevo_9);}.cls-12,.cls-13,.cls-14,.cls-15,.cls-16,.cls-17,.cls-2,.cls-6{fill:none;}.cls-3{clip-path:url(#clip-path);}.cls-4{fill:#00bcbc;}.cls-5{fill:#f9f9f9;}.cls-12,.cls-13,.cls-6{stroke:#1c1b28;}.cls-13,.cls-14,.cls-6{stroke-miterlimit:10;}.cls-12,.cls-13,.cls-15,.cls-16,.cls-6{stroke-width:3px;}.cls-23,.cls-7{fill:#1c1b28;}.cls-8{fill:#fcb910;}.cls-9{fill:#e5a21a;}.cls-10,.cls-18{fill:#009995;}.cls-11{fill:#f95c4b;}.cls-12,.cls-13,.cls-14,.cls-15,.cls-16,.cls-17{stroke-linecap:round;}.cls-12,.cls-15,.cls-16,.cls-17{stroke-linejoin:round;}.cls-14{stroke:#fff;}.cls-15{stroke:#009995;}.cls-16{stroke:#e09e1b;}.cls-17{stroke:#f2af19;stroke-width:4px;}.cls-18{opacity:0.71;}.cls-19{fill:#e09e1b;}.cls-20{font-size:68px;font-family:Nexa-Bold;font-weight:700;letter-spacing:0em;}.cls-21{letter-spacing:0em;}.cls-22{letter-spacing:-0.02em;}.cls-23{font-size:57px;font-family:koliko-Regular, koliko;}.cls-24{fill:url(#Motivo_nuevo_9-3);}.cls-25{clip-path:url(#clip-path-2);}</style><pattern id="Motivo_nuevo_9" data-name="Motivo nuevo 9" width="171.44" height="171.44" patternUnits="userSpaceOnUse" viewBox="0 0 171.44 171.44"><rect class="cls-2" width="171.44" height="171.44"/><g class="cls-3"><rect class="cls-4" x="60.37" y="76.75" width="15.15" height="89.7"/><rect class="cls-4" x="81.64" y="112.68" width="15.15" height="27.86"/><rect class="cls-4" x="66.51" y="11.24" width="15.15" height="60.98"/><rect class="cls-4" x="141.52" y="130.12" width="15.15" height="36.82"/><polygon class="cls-4" points="-34.45 50.94 -34.45 35.78 11.39 35.78 11.39 50.94 -34.45 50.94"/><polygon class="cls-4" points="136.99 50.94 136.99 35.78 182.83 35.78 182.83 50.94 136.99 50.94"/><polygon class="cls-4" points="122.57 164.37 122.57 149.22 137.12 149.22 137.12 164.37 122.57 164.37"/><polygon class="cls-4" points="33.11 92.03 33.11 76.87 53.53 76.87 53.53 92.03 33.11 92.03"/><path class="cls-4" d="M51.11,155.35a30.19,30.19,0,1,1-30.18-30.19A30.18,30.18,0,0,1,51.11,155.35Zm-15.15,0a15,15,0,1,0-15,15A15,15,0,0,0,36,155.35Z"/><path class="cls-4" d="M62.29,48.62a23.2,23.2,0,1,1-23.2-23.2A23.2,23.2,0,0,1,62.29,48.62Zm-11.64,0A11.56,11.56,0,1,0,39.09,60.18,11.56,11.56,0,0,0,50.65,48.62Z"/><path class="cls-4" d="M123.77,88.59a19.3,19.3,0,1,1-19.3-19.3A19.3,19.3,0,0,1,123.77,88.59Zm-9.69,0a9.61,9.61,0,1,0-9.61,9.6A9.61,9.61,0,0,0,114.08,88.59Z"/><path class="cls-4" d="M120.38,165.29a19.56,19.56,0,1,1-19.56-19.55A19.55,19.55,0,0,1,120.38,165.29Zm-9.82,0a9.74,9.74,0,1,0-9.74,9.74A9.74,9.74,0,0,0,110.56,165.29Z"/><path class="cls-4" d="M51.11-16.09A30.19,30.19,0,0,1,20.93,14.1,30.19,30.19,0,0,1-9.26-16.09,30.19,30.19,0,0,1,20.93-46.27,30.18,30.18,0,0,1,51.11-16.09ZM36-16.09a15,15,0,0,0-15-15,15,15,0,0,0-15,15,15,15,0,0,0,15,15A15,15,0,0,0,36-16.09Z"/><path class="cls-4" d="M222.55,155.35a30.19,30.19,0,1,1-30.19-30.19A30.18,30.18,0,0,1,222.55,155.35Zm-15.15,0a15,15,0,1,0-15,15A15,15,0,0,0,207.4,155.35Z"/><path class="cls-4" d="M222.55-16.09A30.19,30.19,0,0,1,192.36,14.1a30.19,30.19,0,0,1-30.18-30.19,30.18,30.18,0,0,1,30.18-30.18A30.18,30.18,0,0,1,222.55-16.09Zm-15.15,0a15,15,0,0,0-15-15,15,15,0,0,0-15,15,15,15,0,0,0,15,15A15,15,0,0,0,207.4-16.09Z"/><path class="cls-4" d="M120.38-6.14a19.56,19.56,0,0,1-19.56,19.55A19.56,19.56,0,0,1,81.27-6.14,19.56,19.56,0,0,1,100.82-25.7,19.56,19.56,0,0,1,120.38-6.14Zm-9.82,0a9.74,9.74,0,0,0-9.74-9.74,9.74,9.74,0,0,0-9.73,9.74,9.73,9.73,0,0,0,9.73,9.73A9.74,9.74,0,0,0,110.56-6.14Z"/><rect class="cls-4" x="151.05" y="4.34" width="15.15" height="26.95"/><path class="cls-4" d="M131.5,66.9a5.75,5.75,0,1,1-5.74-5.74A5.74,5.74,0,0,1,131.5,66.9Zm-2.88,0a2.86,2.86,0,1,0-2.86,2.86A2.86,2.86,0,0,0,128.62,66.9Z"/><path class="cls-4" d="M18.58,24.37a7.46,7.46,0,1,1-7.46-7.45A7.46,7.46,0,0,1,18.58,24.37Zm-3.75,0a3.71,3.71,0,1,0-3.71,3.72A3.71,3.71,0,0,0,14.83,24.37Z"/><path class="cls-4" d="M175.37,90.72a12,12,0,1,1-12-12A12,12,0,0,1,175.37,90.72Zm-6,0a6,6,0,1,0-6,6A6,6,0,0,0,169.33,90.72Z"/><path class="cls-4" d="M63.55,13.71A10.49,10.49,0,1,1,53.07,3.23,10.49,10.49,0,0,1,63.55,13.71Zm-5.26,0a5.22,5.22,0,1,0-5.22,5.23A5.22,5.22,0,0,0,58.29,13.71Z"/><path class="cls-4" d="M147.93,14.69a12,12,0,1,1-12-12A12,12,0,0,1,147.93,14.69Zm-6,0a6,6,0,1,0-6,6A6,6,0,0,0,141.9,14.69Z"/><path class="cls-4" d="M129.79,40.85a22.22,22.22,0,1,1-22.22-22.22A22.22,22.22,0,0,1,129.79,40.85Zm-11.15,0a11.07,11.07,0,1,0-11.07,11.06A11.07,11.07,0,0,0,118.64,40.85Z"/><path class="cls-4" d="M198.9,90.72a35.57,35.57,0,1,1-35.56-35.56A35.57,35.57,0,0,1,198.9,90.72Zm-17.85,0a17.71,17.71,0,1,0-17.71,17.71A17.71,17.71,0,0,0,181.05,90.72Z"/><path class="cls-4" d="M3.94,90.72a12,12,0,0,1-12,12,12,12,0,0,1-12-12,12,12,0,0,1,12-12A12,12,0,0,1,3.94,90.72Zm-6,0a6,6,0,0,0-6-6,6,6,0,0,0-6,6,6,6,0,0,0,6,6A6,6,0,0,0-2.11,90.72Z"/><path class="cls-4" d="M27.46,90.72A35.57,35.57,0,0,1-8.1,126.29,35.57,35.57,0,0,1-43.66,90.72,35.56,35.56,0,0,1-8.1,55.16,35.56,35.56,0,0,1,27.46,90.72Zm-17.85,0A17.71,17.71,0,0,0-8.1,73,17.71,17.71,0,0,0-25.81,90.72,17.71,17.71,0,0,0-8.1,108.43,17.71,17.71,0,0,0,9.61,90.72Z"/><path class="cls-4" d="M55.61,112A13.93,13.93,0,1,1,41.68,98.11,13.93,13.93,0,0,1,55.61,112Zm-7,0A6.94,6.94,0,1,0,41.68,119,6.94,6.94,0,0,0,48.61,112Z"/><path class="cls-4" d="M136.62,127.58a16.86,16.86,0,1,1-16.86-16.86A16.86,16.86,0,0,1,136.62,127.58Zm-8.46,0a8.4,8.4,0,1,0-8.4,8.39A8.4,8.4,0,0,0,128.16,127.58Z"/></g></pattern><clipPath id="clip-path"><rect class="cls-2" width="171.44" height="171.44"/></clipPath><pattern id="Motivo_nuevo_9-3" data-name="Motivo nuevo 9" width="171.44" height="171.44" patternUnits="userSpaceOnUse" viewBox="0 0 171.44 171.44"><rect class="cls-2" width="171.44" height="171.44"/><g class="cls-3"><rect class="cls-4" x="60.37" y="76.75" width="15.15" height="89.7"/><rect class="cls-4" x="81.64" y="112.68" width="15.15" height="27.86"/><rect class="cls-4" x="66.51" y="11.24" width="15.15" height="60.98"/><rect class="cls-4" x="141.52" y="130.12" width="15.15" height="36.82"/><polygon class="cls-4" points="-34.45 50.94 -34.45 35.78 11.39 35.78 11.39 50.94 -34.45 50.94"/><polygon class="cls-4" points="136.99 50.94 136.99 35.78 182.83 35.78 182.83 50.94 136.99 50.94"/><polygon class="cls-4" points="122.57 164.37 122.57 149.22 137.12 149.22 137.12 164.37 122.57 164.37"/><polygon class="cls-4" points="33.11 92.03 33.11 76.87 53.53 76.87 53.53 92.03 33.11 92.03"/><path class="cls-4" d="M51.11,155.35a30.19,30.19,0,1,1-30.18-30.19A30.18,30.18,0,0,1,51.11,155.35Zm-15.15,0a15,15,0,1,0-15,15A15,15,0,0,0,36,155.35Z"/><path class="cls-4" d="M62.29,48.62a23.2,23.2,0,1,1-23.2-23.2A23.2,23.2,0,0,1,62.29,48.62Zm-11.64,0A11.56,11.56,0,1,0,39.09,60.18,11.56,11.56,0,0,0,50.65,48.62Z"/><path class="cls-4" d="M123.77,88.59a19.3,19.3,0,1,1-19.3-19.3A19.3,19.3,0,0,1,123.77,88.59Zm-9.69,0a9.61,9.61,0,1,0-9.61,9.6A9.61,9.61,0,0,0,114.08,88.59Z"/><path class="cls-4" d="M120.38,165.29a19.56,19.56,0,1,1-19.56-19.55A19.55,19.55,0,0,1,120.38,165.29Zm-9.82,0a9.74,9.74,0,1,0-9.74,9.74A9.74,9.74,0,0,0,110.56,165.29Z"/><path class="cls-4" d="M51.11-16.09A30.19,30.19,0,0,1,20.93,14.1,30.19,30.19,0,0,1-9.26-16.09,30.19,30.19,0,0,1,20.93-46.27,30.18,30.18,0,0,1,51.11-16.09ZM36-16.09a15,15,0,0,0-15-15,15,15,0,0,0-15,15,15,15,0,0,0,15,15A15,15,0,0,0,36-16.09Z"/><path class="cls-4" d="M222.55,155.35a30.19,30.19,0,1,1-30.19-30.19A30.18,30.18,0,0,1,222.55,155.35Zm-15.15,0a15,15,0,1,0-15,15A15,15,0,0,0,207.4,155.35Z"/><path class="cls-4" d="M222.55-16.09A30.19,30.19,0,0,1,192.36,14.1a30.19,30.19,0,0,1-30.18-30.19,30.18,30.18,0,0,1,30.18-30.18A30.18,30.18,0,0,1,222.55-16.09Zm-15.15,0a15,15,0,0,0-15-15,15,15,0,0,0-15,15,15,15,0,0,0,15,15A15,15,0,0,0,207.4-16.09Z"/><path class="cls-4" d="M120.38-6.14a19.56,19.56,0,0,1-19.56,19.55A19.56,19.56,0,0,1,81.27-6.14,19.56,19.56,0,0,1,100.82-25.7,19.56,19.56,0,0,1,120.38-6.14Zm-9.82,0a9.74,9.74,0,0,0-9.74-9.74,9.74,9.74,0,0,0-9.73,9.74,9.73,9.73,0,0,0,9.73,9.73A9.74,9.74,0,0,0,110.56-6.14Z"/><rect class="cls-4" x="151.05" y="4.34" width="15.15" height="26.95"/><path class="cls-4" d="M131.5,66.9a5.75,5.75,0,1,1-5.74-5.74A5.74,5.74,0,0,1,131.5,66.9Zm-2.88,0a2.86,2.86,0,1,0-2.86,2.86A2.86,2.86,0,0,0,128.62,66.9Z"/><path class="cls-4" d="M18.58,24.37a7.46,7.46,0,1,1-7.46-7.45A7.46,7.46,0,0,1,18.58,24.37Zm-3.75,0a3.71,3.71,0,1,0-3.71,3.72A3.71,3.71,0,0,0,14.83,24.37Z"/><path class="cls-4" d="M175.37,90.72a12,12,0,1,1-12-12A12,12,0,0,1,175.37,90.72Zm-6,0a6,6,0,1,0-6,6A6,6,0,0,0,169.33,90.72Z"/><path class="cls-4" d="M63.55,13.71A10.49,10.49,0,1,1,53.07,3.23,10.49,10.49,0,0,1,63.55,13.71Zm-5.26,0a5.22,5.22,0,1,0-5.22,5.23A5.22,5.22,0,0,0,58.29,13.71Z"/><path class="cls-4" d="M147.93,14.69a12,12,0,1,1-12-12A12,12,0,0,1,147.93,14.69Zm-6,0a6,6,0,1,0-6,6A6,6,0,0,0,141.9,14.69Z"/><path class="cls-4" d="M129.79,40.85a22.22,22.22,0,1,1-22.22-22.22A22.22,22.22,0,0,1,129.79,40.85Zm-11.15,0a11.07,11.07,0,1,0-11.07,11.06A11.07,11.07,0,0,0,118.64,40.85Z"/><path class="cls-4" d="M198.9,90.72a35.57,35.57,0,1,1-35.56-35.56A35.57,35.57,0,0,1,198.9,90.72Zm-17.85,0a17.71,17.71,0,1,0-17.71,17.71A17.71,17.71,0,0,0,181.05,90.72Z"/><path class="cls-4" d="M3.94,90.72a12,12,0,0,1-12,12,12,12,0,0,1-12-12,12,12,0,0,1,12-12A12,12,0,0,1,3.94,90.72Zm-6,0a6,6,0,0,0-6-6,6,6,0,0,0-6,6,6,6,0,0,0,6,6A6,6,0,0,0-2.11,90.72Z"/><path class="cls-4" d="M27.46,90.72A35.57,35.57,0,0,1-8.1,126.29,35.57,35.57,0,0,1-43.66,90.72,35.56,35.56,0,0,1-8.1,55.16,35.56,35.56,0,0,1,27.46,90.72Zm-17.85,0A17.71,17.71,0,0,0-8.1,73,17.71,17.71,0,0,0-25.81,90.72,17.71,17.71,0,0,0-8.1,108.43,17.71,17.71,0,0,0,9.61,90.72Z"/><path class="cls-4" d="M55.61,112A13.93,13.93,0,1,1,41.68,98.11,13.93,13.93,0,0,1,55.61,112Zm-7,0A6.94,6.94,0,1,0,41.68,119,6.94,6.94,0,0,0,48.61,112Z"/><path class="cls-4" d="M136.62,127.58a16.86,16.86,0,1,1-16.86-16.86A16.86,16.86,0,0,1,136.62,127.58Zm-8.46,0a8.4,8.4,0,1,0-8.4,8.39A8.4,8.4,0,0,0,128.16,127.58Z"/></g></pattern><clipPath id="clip-path-2" transform="translate(0)"><path class="cls-1" d="M581.46,883.77V938c0,10.66-9.37,19.38-20.82,19.38H20.81C9.37,957.38,0,948.65,0,938V883.77Z"/></clipPath></defs><g id="Capa_2" data-name="Capa 2"><g id="Capa_2-2" data-name="Capa 2"><rect class="cls-5" x="0.36" width="581.99" height="956.93" rx="12"/><path class="cls-6" d="M144.3,445.88A223.78,223.78,0,0,1,374.86,70.17c84.61,33.55,139.3,116.47,138.82,207.49,0,8.06-.25,16.37-.75,23.76" transform="translate(0)"/><circle class="cls-7" cx="292.43" cy="278.22" r="182.14"/><circle class="cls-8" cx="292.43" cy="278.22" r="147.92"/><path class="cls-9" d="M253.63,395.81C197.15,391.55,172.1,363,172.1,363L198,286.13s44.34,32.28,56.59,92.5" transform="translate(0)"/><path class="cls-9" d="M339.47,398c-1.4-61.78,22.66-91.83,22.66-91.83l56.54,48s-13.8,32.26-64.42,57.66" transform="translate(0)"/><path class="cls-7" d="M301.46,321.71l-18.93,1.62a20,20,0,0,1-20.44-17l-2.7-20.08L287,284.52l14.13,24.22Z" transform="translate(0)"/><path class="cls-4" d="M276.92,141.08,235,97.8a19.7,19.7,0,0,1,.4-27.81l29.07-28.35" transform="translate(0)"/><path class="cls-4" d="M317.2,41.64,346.27,70a19.69,19.69,0,0,1,.39,27.81l-41.94,43.28" transform="translate(0)"/><path class="cls-4" d="M439.78,279.44a147.07,147.07,0,0,1-18.5,71.65q-2.8,5.06-6,9.85a31.78,31.78,0,0,1-55.49-21.15c0-.51,0-1,0-1.52a69.21,69.21,0,0,0,1.35-7.81,68.26,68.26,0,0,0,.48-8.13,69.62,69.62,0,1,0-138.8,7.78,66.19,66.19,0,0,0,1.48,8.5c0,.39,0,.79,0,1.18a31.78,31.78,0,0,1-55.77,20.84q-2.94-4.44-5.54-9.1a147.75,147.75,0,1,1,276.73-72.09Z" transform="translate(0)"/><path class="cls-10" d="M440.73,277.83a147.07,147.07,0,0,1-18.5,71.65q-2.81,5.06-6,9.85a31.67,31.67,0,0,1-16.46,9.79q1.8-2.88,3.45-5.86A147.78,147.78,0,0,0,197.13,165.41a147.74,147.74,0,0,1,243.6,112.42Z" transform="translate(0)"/><path class="cls-8" d="M276.92,141.08l3.47-40.4a17.54,17.54,0,0,0-.64-6.4l-15.3-52.64L255,90.58a23.07,23.07,0,0,0,2.49,15.62Z" transform="translate(0)"/><path class="cls-8" d="M427,333a41.31,41.31,0,0,0-40.57.65A13.67,13.67,0,0,0,381,318.23l-8.86-17.72-.76-1.88-3-11.05-8.91-15.86-1.13.27c10.92-54-3.74-78.86-4.37-79.9l0-.08c-14.79-34.72-35.76-48.25-50.06-52.87a34.24,34.24,0,0,0-33,6.93c-12.71,11.11-23.52,26.2-23.52,26.2s-26.38,28-15,69.69c0,0,11.41,42.06,45.9,62,.39.23.51.76.79,1.12,27.45,34,91.07,58.27,91.07,58.27s30.83,11.16,70.75-8.91a.65.65,0,0,0,.38-.58C441.33,351.59,440.89,340.68,427,333Z" transform="translate(0)"/><path class="cls-10" d="M424.47,332.08a41.28,41.28,0,0,0-40.57.66,13.66,13.66,0,0,0-5.38-15.38l-8.87-17.73-.76-1.88-3-11.05L357,270.84l-1.12.28c10.92-54-3.75-78.87-4.38-79.91a.25.25,0,0,1,0-.07c-14.79-34.73-35.75-48.25-50.06-52.88-11.41-3.69-23.31-.18-33,6.94a103.56,103.56,0,0,0-24.2,25.88s-27,29.52-14.3,70c0,0,2.63,13.39,15.3,29.23.25.31,3.21-.15,3.46.16,7,8.4,14.43,17.47,27.69,26.72.37.26,5.29,2.43,5.58,2.79,27.45,34,86.72,60,86.72,60s29.84,13.63,69.77-6.44a.7.7,0,0,0,.38-.59C438.84,350.72,438.4,339.81,424.47,332.08Z" transform="translate(0)"/><path class="cls-8" d="M428.18,332.67a41.28,41.28,0,0,0-40.57.66A13.67,13.67,0,0,0,382.22,318l-8.86-17.73-.76-1.88-3-11-8.91-15.86-1.13.28c10.92-54-3.74-78.87-4.37-79.91a.25.25,0,0,1,0-.07c-14.79-34.73-35.76-48.25-50.06-52.88a34.24,34.24,0,0,0-33,6.94c-12.71,11.1-23.52,26.2-23.52,26.2s-26.38,28-15,69.68c0,0,11.41,42.06,45.9,62,.39.22.51.75.79,1.11,27.45,34,91.07,58.28,91.07,58.28s30.83,11.16,70.75-8.91a.66.66,0,0,0,.38-.59C442.55,351.31,442.11,340.4,428.18,332.67Z" transform="translate(0)"/><path class="cls-8" d="M304.72,141.08l-3.46-40.4a17.53,17.53,0,0,1,.63-6.4L317.2,41.64l9.45,48.94a23.08,23.08,0,0,1-2.5,15.62Z" transform="translate(0)"/><path class="cls-4" d="M276.1,145.29l-5.23,5.17a27.39,27.39,0,0,0-3.18,35.18l24.14,34.47a8.14,8.14,0,0,0,13.81-.73l19-34.42a27.52,27.52,0,0,0-4.32-32.43l-6.6-6.83A26.47,26.47,0,0,0,276.1,145.29Z" transform="translate(0)"/><path class="cls-11" d="M262.09,306.36a20,20,0,0,0,19.82,17c-5.54-18.45-15.69-19.55-20.11-19.06Z" transform="translate(0)"/><path class="cls-12" d="M252.69,281.88l.89,21.38c3.68,20.35,8.2,26.38,28.51,27.09l23-3.38" transform="translate(0)"/><path class="cls-10" d="M320.33,152.53l-6.6-6.83a26.47,26.47,0,0,0-37.63-.41l-5.23,5.17a27.36,27.36,0,0,0-4.47,5.79c.3-.32.58-.66.9-1l5.23-5.17a26.47,26.47,0,0,1,37.64.42l6.6,6.82a27.51,27.51,0,0,1,4.31,32.43l-17.82,32.29a8,8,0,0,0,2.38-2.68l19-34.42A27.52,27.52,0,0,0,320.33,152.53Z" transform="translate(0)"/><path class="cls-13" d="M251.28,211.06s10.2-8,21.75-3.13" transform="translate(0)"/><path class="cls-13" d="M323.91,208.23s11.9-5.14,21.83,2.51" transform="translate(0)"/><line class="cls-14" x1="274.13" y1="161.7" x2="291.95" y2="161.7"/><line class="cls-14" x1="269.14" y1="166.45" x2="286.96" y2="166.45"/><line class="cls-14" x1="271.7" y1="171.08" x2="289.52" y2="171.08"/><line class="cls-14" x1="291" y1="166.45" x2="296.47" y2="166.45"/><path class="cls-15" d="M360.26,268.38s16.07,10.77,10.38,29.53" transform="translate(0)"/><path class="cls-15" d="M368.36,290.51S384,300,378.29,318.76" transform="translate(0)"/><path class="cls-15" d="M378.29,312.27s12.78,3.42,11.7,19.27" transform="translate(0)"/><path class="cls-16" d="M376.66,319.36s5.94-12.35-6.42-23.52" transform="translate(0)"/><path class="cls-16" d="M378.08,314.43s11.7,5.21,10.31,17.84" transform="translate(0)"/><path class="cls-17" d="M248.27,231.51s13.91-11.38,25.12,2.32" transform="translate(0)"/><path class="cls-17" d="M248.76,231.54s14-7.07,24.63,2.29" transform="translate(0)"/><path class="cls-13" d="M248.27,231.11s14.3-16.25,25.12,2.32" transform="translate(0)"/><path class="cls-13" d="M248.27,231.11s14.3-12.39,25.12,2.32" transform="translate(0)"/><path class="cls-17" d="M347.39,232.16s-13.92-11.38-25.13,2.32" transform="translate(0)"/><path class="cls-17" d="M346.89,232.19s-14-7.07-24.63,2.29" transform="translate(0)"/><path class="cls-13" d="M347.39,231.76s-14.31-16.25-25.13,2.32" transform="translate(0)"/><path class="cls-13" d="M347.39,231.76s-14.31-12.39-25.13,2.32" transform="translate(0)"/><polygon class="cls-18" points="388.51 269.83 383.31 262.06 390.4 262.95 397.52 264 395.9 269.83 393.72 277.59 388.51 269.83"/><polygon class="cls-18" points="388.5 309.18 383.29 301.42 390.39 302.31 397.5 303.35 395.88 309.19 393.7 316.95 388.5 309.18"/><polygon class="cls-18" points="386.17 246.84 381.52 239.91 387.85 240.71 394.2 241.63 392.75 246.84 390.81 253.76 386.17 246.84"/><polygon class="cls-18" points="356.24 183.81 352.21 177.81 357.7 178.5 363.2 179.3 361.94 183.81 360.26 189.81 356.24 183.81"/><polygon class="cls-18" points="371.46 218.5 366.26 210.74 373.35 211.63 380.47 212.67 378.85 218.5 376.67 226.27 371.46 218.5"/><polygon class="cls-18" points="372.25 271.88 369.44 266.15 374.16 267.41 378.88 268.77 377.25 272.57 375.06 277.62 372.25 271.88"/><polygon class="cls-18" points="403.36 301.42 399.68 293.91 404.84 296.06 410.02 298.33 408.75 302.88 407.03 308.93 403.36 301.42"/><polygon class="cls-18" points="386.59 289.51 383.78 283.77 388.5 285.03 393.22 286.39 391.59 290.19 389.4 295.24 386.59 289.51"/><polygon class="cls-18" points="403.23 319.36 400.85 314.5 404.85 315.56 408.85 316.72 407.47 319.94 405.61 324.22 403.23 319.36"/><polygon class="cls-18" points="404.75 278.78 401.95 273.05 406.67 274.31 411.38 275.67 409.75 279.46 407.56 284.52 404.75 278.78"/><polygon class="cls-18" points="400.55 255.25 398.49 251.04 401.95 251.96 405.41 252.96 404.21 255.75 402.61 259.45 400.55 255.25"/><polygon class="cls-18" points="370.7 234.43 368.65 230.22 372.11 231.14 375.57 232.14 374.37 234.93 372.76 238.63 370.7 234.43"/><polygon class="cls-18" points="363.63 200.28 361.57 196.07 365.03 196.99 368.5 197.99 367.3 200.77 365.69 204.48 363.63 200.28"/><polygon class="cls-18" points="348.83 171.09 347.38 168.13 349.82 168.78 352.25 169.48 351.4 171.44 350.28 174.04 348.83 171.09"/><polygon class="cls-18" points="368.82 188.87 367.38 185.92 369.81 186.56 372.24 187.27 371.4 189.22 370.27 191.82 368.82 188.87"/><polygon class="cls-18" points="371.45 251.1 368.65 245.37 373.37 246.62 378.08 247.98 376.45 251.78 374.26 256.83 371.45 251.1"/><polygon class="cls-18" points="383.18 231.83 381.35 228.09 384.43 228.91 387.51 229.8 386.44 232.27 385.01 235.57 383.18 231.83"/><polygon class="cls-18" points="386.26 212.45 384.43 208.71 387.51 209.53 390.59 210.42 389.52 212.9 388.09 216.19 386.26 212.45"/><polygon class="cls-18" points="391.31 227.72 388.5 221.99 393.22 223.25 397.94 224.61 396.3 228.41 394.12 233.46 391.31 227.72"/><polygon class="cls-18" points="376.17 201.05 373.37 195.32 378.08 196.57 382.8 197.94 381.17 201.73 378.98 206.78 376.17 201.05"/><polygon class="cls-18" points="176.55 263.5 179.77 254.73 173.09 257.27 166.42 259.98 169.38 265.26 173.34 272.28 176.55 263.5"/><polygon class="cls-18" points="176.49 303.06 180.06 294.42 173.28 296.7 166.51 299.13 169.26 304.53 172.93 311.7 176.49 303.06"/><polygon class="cls-18" points="168.86 333.05 171.8 325.92 166.2 327.8 160.62 329.81 162.88 334.26 165.92 340.18 168.86 333.05"/><polygon class="cls-18" points="177.59 242.21 181.46 234.83 175.25 236.3 169.04 237.91 171.04 242.92 173.71 249.59 177.59 242.21"/><polygon class="cls-18" points="208.25 178.63 212.27 172.63 206.79 173.32 201.29 174.12 202.54 178.63 204.23 184.63 208.25 178.63"/><polygon class="cls-18" points="193.02 213.32 198.23 205.56 191.13 206.45 184.02 207.49 185.64 213.32 187.82 221.09 193.02 213.32"/><polygon class="cls-18" points="192.24 266.71 195.04 260.97 190.32 262.23 185.61 263.59 187.24 267.39 189.43 272.44 192.24 266.71"/><polygon class="cls-18" points="161.13 296.24 164.81 288.73 159.64 290.88 154.47 293.15 155.74 297.7 157.45 303.75 161.13 296.24"/><polygon class="cls-18" points="177.9 284.33 180.7 278.6 175.99 279.85 171.27 281.21 172.9 285.01 175.09 290.06 177.9 284.33"/><polygon class="cls-18" points="161.26 314.18 163.64 309.32 159.64 310.38 155.63 311.54 157.02 314.76 158.88 319.04 161.26 314.18"/><polygon class="cls-18" points="159.73 273.61 162.54 267.87 157.82 269.13 153.1 270.49 154.74 274.29 156.93 279.34 159.73 273.61"/><polygon class="cls-18" points="163.94 250.07 166 245.86 162.54 246.78 159.08 247.78 160.28 250.57 161.88 254.27 163.94 250.07"/><polygon class="cls-18" points="193.78 229.25 195.84 225.04 192.38 225.97 188.92 226.96 190.12 229.75 191.72 233.45 193.78 229.25"/><polygon class="cls-18" points="200.86 195.09 202.91 190.89 199.45 191.81 195.99 192.81 197.19 195.59 198.8 199.3 200.86 195.09"/><polygon class="cls-18" points="215.66 165.91 217.1 162.95 214.67 163.6 212.24 164.3 213.08 166.26 214.21 168.86 215.66 165.91"/><polygon class="cls-18" points="160.62 234.08 162.07 231.13 159.64 231.77 157.21 232.47 158.05 234.43 159.18 237.03 160.62 234.08"/><polygon class="cls-18" points="154.22 259.07 155.01 255.88 152.77 257.03 150.55 258.23 151.78 259.96 153.44 262.26 154.22 259.07"/><polygon class="cls-18" points="169.32 319.36 170.1 316.17 167.86 317.32 165.64 318.52 166.88 320.25 168.53 322.55 169.32 319.36"/><polygon class="cls-18" points="195.66 183.69 197.11 180.74 194.68 181.38 192.25 182.09 193.09 184.04 194.22 186.64 195.66 183.69"/><polygon class="cls-18" points="193.03 245.92 195.84 240.19 191.12 241.44 186.41 242.8 188.04 246.6 190.23 251.65 193.03 245.92"/><polygon class="cls-18" points="181.3 226.65 183.13 222.91 180.06 223.73 176.98 224.62 178.04 227.09 179.47 230.39 181.3 226.65"/><polygon class="cls-18" points="178.23 207.27 180.06 203.53 176.98 204.35 173.9 205.24 174.97 207.72 176.4 211.01 178.23 207.27"/><polygon class="cls-18" points="173.18 222.55 175.99 216.81 171.27 218.07 166.55 219.43 168.18 223.23 170.37 228.28 173.18 222.55"/><polygon class="cls-18" points="188.32 195.87 191.12 190.14 186.41 191.39 181.69 192.76 183.32 196.55 185.51 201.6 188.32 195.87"/><path class="cls-19" d="M426.42,332.4a41.19,41.19,0,0,0-38.18-.62c-.94.47-1.25-.51-1.14-1.56.82-7.57-5.1-11.47-6.36-12.36a1.28,1.28,0,0,1-.43-.52l-7.05-17.71c-.06-.14-1.35-.49-1.46-.6l-.64-.63a1.33,1.33,0,0,1-.37-.77l-1.49-11.79a1.36,1.36,0,0,0-.15-.47l-8.66-15.75-.74-.09c10.92-54-4.06-77.28-4.69-78.32a.25.25,0,0,1,0-.07c-13.77-35.38-37.13-48.66-51.43-53.29-11.42-3.69-24.23-.22-33.26,7.67-7.15,6.25-12.79,13.85-17.15,19.22,4.15-4.9,9-10.77,14.76-15.82a33.59,33.59,0,0,1,32.61-7c14.29,4.62,35.24,18.13,50,52.8l.12.22c1.05,1.77,16.21,26.44,5.46,79.56h0s12.51,8.65,10.82,23.33c-.13,1.17,1.23,1,1.55,2.1,0,0,9.9,2.38,7,18.57a2.3,2.3,0,0,0,1.13,2.37c2.82.45,9.13,3.74,7,12.9a1.3,1.3,0,0,0,1.89,1.35,41.16,41.16,0,0,1,38.18.62c10.32,5.72,13.23,13.19,14,17.59a1.32,1.32,0,0,0,1.87.94l0,0a2,2,0,0,0,1.13-1.89C440.56,348.86,438.94,339.35,426.42,332.4Z" transform="translate(0)"/><path class="cls-16" d="M359.22,269.65s15.06,14.07,9.12,28.8" transform="translate(0)"/><path class="cls-10" d="M357.69,408a11.56,11.56,0,0,0-9.87-10.56c-17.41-3.11-25.86,12.62-28,19.25-.24.76,1.6,1.47,2.16.85l7.29-7-9.73,17a2.15,2.15,0,0,0,3,2.95l15-7.44-9.29,14.36c-.66,1.68,1.52,3.34,3.15,2.43l2.21-1a46.87,46.87,0,0,0,17.71-13.66C355.05,420.49,358.09,414.54,357.69,408Z" transform="translate(0)"/><path class="cls-4" d="M358.2,406.32c-.29-5.23-4.24-9.28-9.57-10.2-16.95-2.93-25.28,12.39-27.38,18.83-.24.75,1.55,1.42,2.1.82l7.15-6.84-9.58,16.56c-1.13,1.95.83,3.87,2.89,2.85L338.49,421l-9.14,14c-.65,1.63,1.47,3.24,3.07,2.35l2.15-1A46.36,46.36,0,0,0,351.92,423C355.56,418.42,358.56,412.62,358.2,406.32Z" transform="translate(0)"/><path class="cls-10" d="M242.55,388.85c0-5.25,3.68-9.54,9-10.77,16.81-3.92,26.12,10.91,28.62,17.24.29.73-1.46,1.51-2.05.94l-7.59-6.43,10.64,16c1.24,1.87-.6,3.92-2.73,3l-15.17-6.44,10,13.46c.76,1.59-1.27,3.32-2.93,2.53l-2.22-.85a46.86,46.86,0,0,1-18.22-12.35C246,400.8,242.58,395.18,242.55,388.85Z" transform="translate(0)"/><path class="cls-4" d="M240.73,388.82c-.49-5.3,2.91-9.94,8.18-11.6,16.78-5.28,27.57,9,30.68,15.2.36.72-1.36,1.65-2,1.11l-8.3-5.9L281.53,403c1.44,1.81-.26,4-2.51,3.27l-16-5.33,11.41,12.83c.91,1.55-1,3.46-2.76,2.79l-2.33-.69a48.54,48.54,0,0,1-19.66-11.06C245.26,400.65,241.33,395.23,240.73,388.82Z" transform="translate(0)"/><rect class="cls-4" x="73.53" y="664.47" width="434.57" height="88.22" rx="26.53"/><text class="cls-20" transform="translate(189.59 730.23)">I<tspan class="cls-21" x="19.18" y="0">nicia</tspan><tspan class="cls-22" x="171.56" y="0">r</tspan></text><text class="cls-23" transform="translate(163.67 483.95) rotate(27.54)">R</text><text class="cls-23" transform="translate(197.14 500.63) rotate(19.19)">e</text><text class="cls-23" transform="matrix(0.98, 0.18, -0.18, 0.98, 230.45, 511.55)">d</text><text class="cls-23" transform="translate(266.94 517.54) rotate(1.92)">e</text><text class="cls-23" transform="translate(301.39 517.89) rotate(-5.37)">s</text><text class="cls-23" transform="matrix(0.98, -0.21, 0.21, 0.98, 327.71, 514.98)"> </text><text class="cls-23" transform="matrix(0.94, -0.34, 0.34, 0.94, 355.8, 508.74)">d</text><text class="cls-23" transform="translate(390.34 495.63) rotate(-28.14)">e</text><text class="cls-23" transform="matrix(0.79, -0.61, 0.61, 0.79, 421.41, 478.5)">A</text><text class="cls-23" transform="translate(455.94 450.44) rotate(-47.75)">p</text><text class="cls-23" transform="matrix(0.55, -0.84, 0.84, 0.55, 481.58, 420.95)">o</text><text class="cls-23" transform="translate(501.57 389.37) rotate(-66.28)">y</text><text class="cls-23" transform="translate(517.95 349.44) rotate(-75.93)">o</text><path class="cls-24" d="M581.46,883.77V938c0,10.66-9.37,19.38-20.82,19.38H20.81C9.37,957.38,0,948.65,0,938V883.77Z" transform="translate(0)"/><g class="cls-25"><path class="cls-24" d="M581.46,188.4v838.18a12,12,0,0,1-12,12H12a12,12,0,0,1-12-12V188.4a12,12,0,0,1,12-12H569.46A12,12,0,0,1,581.46,188.4Z" transform="translate(0)"/></g></g></g></svg>