<svg xmlns="http://www.w3.org/2000/svg" xmlns:xlink="http://www.w3.org/1999/xlink" viewBox="0 0 533.58 534.86"><defs><style>.cls-1{fill:url(#Motivo_nuevo_2);}.cls-2{fill:none;}.cls-3{clip-path:url(#clip-path);}.cls-4{fill:#f95c4b;}.cls-5,.cls-9{fill:#fff;}.cls-6{fill:url(#Motivo_nuevo_2-3);}.cls-7{clip-path:url(#clip-path-2);}.cls-8{fill:#f96c4b;}.cls-9{font-size:38px;font-family:MultiDisplay-Medium, MultiDisplay Medium;font-weight:500;}.cls-10{letter-spacing:-0.03em;}.cls-11{letter-spacing:-0.03em;}.cls-12{letter-spacing:0.02em;}.cls-13{letter-spacing:0em;}.cls-14{letter-spacing:-0.08em;}.cls-15{font-size:13px;font-family:MultiDisplay-Regular, Multi Display;}.cls-16{letter-spacing:-0.03em;}.cls-17{letter-spacing:-0.01em;}.cls-18{letter-spacing:0.01em;}.cls-19{letter-spacing:-0.01em;}.cls-20{letter-spacing:0.01em;}.cls-21{letter-spacing:-0.01em;}.cls-22{letter-spacing:-0.02em;}.cls-23{letter-spacing:0em;}.cls-24{letter-spacing:-0.01em;}.cls-25{letter-spacing:-0.02em;}.cls-26{letter-spacing:-0.02em;}.cls-27{letter-spacing:-0.02em;}.cls-28{letter-spacing:0.01em;}</style><pattern id="Motivo_nuevo_2" data-name="Motivo nuevo 2" width="171.44" height="171.44" patternUnits="userSpaceOnUse" viewBox="0 0 171.44 171.44"><rect class="cls-2" width="171.44" height="171.44"/><g class="cls-3"><rect class="cls-4" x="60.37" y="76.75" width="15.15" height="89.7"/><rect class="cls-4" x="81.64" y="112.68" width="15.15" height="27.86"/><rect class="cls-4" x="66.51" y="11.24" width="15.15" height="60.98"/><rect class="cls-4" x="141.52" y="130.12" width="15.15" height="36.82"/><polygon class="cls-4" points="-34.45 50.94 -34.45 35.78 11.39 35.78 11.39 50.94 -34.45 50.94"/><polygon class="cls-4" points="136.99 50.94 136.99 35.78 182.83 35.78 182.83 50.94 136.99 50.94"/><polygon class="cls-4" points="122.57 164.37 122.57 149.22 137.12 149.22 137.12 164.37 122.57 164.37"/><polygon class="cls-4" points="33.11 92.03 33.11 76.87 53.53 76.87 53.53 92.03 33.11 92.03"/><path class="cls-4" d="M51.11,155.35a30.19,30.19,0,1,1-30.18-30.19A30.18,30.18,0,0,1,51.11,155.35Zm-15.15,0a15,15,0,1,0-15,15A15,15,0,0,0,36,155.35Z"/><path class="cls-4" d="M62.29,48.62a23.2,23.2,0,1,1-23.2-23.2A23.2,23.2,0,0,1,62.29,48.62Zm-11.64,0A11.56,11.56,0,1,0,39.09,60.18,11.56,11.56,0,0,0,50.65,48.62Z"/><path class="cls-4" d="M123.77,88.59a19.3,19.3,0,1,1-19.3-19.3A19.3,19.3,0,0,1,123.77,88.59Zm-9.69,0a9.61,9.61,0,1,0-9.61,9.6A9.61,9.61,0,0,0,114.08,88.59Z"/><path class="cls-4" d="M120.38,165.29a19.56,19.56,0,1,1-19.56-19.55A19.55,19.55,0,0,1,120.38,165.29Zm-9.82,0a9.74,9.74,0,1,0-9.74,9.74A9.74,9.74,0,0,0,110.56,165.29Z"/><path class="cls-4" d="M51.11-16.09A30.19,30.19,0,0,1,20.93,14.1,30.19,30.19,0,0,1-9.26-16.09,30.19,30.19,0,0,1,20.93-46.27,30.18,30.18,0,0,1,51.11-16.09ZM36-16.09a15,15,0,0,0-15-15,15,15,0,0,0-15,15,15,15,0,0,0,15,15A15,15,0,0,0,36-16.09Z"/><path class="cls-4" d="M222.55,155.35a30.19,30.19,0,1,1-30.19-30.19A30.18,30.18,0,0,1,222.55,155.35Zm-15.15,0a15,15,0,1,0-15,15A15,15,0,0,0,207.4,155.35Z"/><path class="cls-4" d="M222.55-16.09A30.19,30.19,0,0,1,192.36,14.1a30.19,30.19,0,0,1-30.18-30.19,30.18,30.18,0,0,1,30.18-30.18A30.18,30.18,0,0,1,222.55-16.09Zm-15.15,0a15,15,0,0,0-15-15,15,15,0,0,0-15,15,15,15,0,0,0,15,15A15,15,0,0,0,207.4-16.09Z"/><path class="cls-4" d="M120.38-6.14a19.56,19.56,0,0,1-19.56,19.55A19.56,19.56,0,0,1,81.27-6.14,19.56,19.56,0,0,1,100.82-25.7,19.56,19.56,0,0,1,120.38-6.14Zm-9.82,0a9.74,9.74,0,0,0-9.74-9.74,9.74,9.74,0,0,0-9.73,9.74,9.73,9.73,0,0,0,9.73,9.73A9.74,9.74,0,0,0,110.56-6.14Z"/><rect class="cls-4" x="151.05" y="4.34" width="15.15" height="26.95"/><path class="cls-4" d="M131.5,66.9a5.75,5.75,0,1,1-5.74-5.74A5.74,5.74,0,0,1,131.5,66.9Zm-2.88,0a2.86,2.86,0,1,0-2.86,2.86A2.86,2.86,0,0,0,128.62,66.9Z"/><path class="cls-4" d="M18.58,24.37a7.46,7.46,0,1,1-7.46-7.45A7.46,7.46,0,0,1,18.58,24.37Zm-3.75,0a3.71,3.71,0,1,0-3.71,3.72A3.71,3.71,0,0,0,14.83,24.37Z"/><path class="cls-4" d="M175.37,90.72a12,12,0,1,1-12-12A12,12,0,0,1,175.37,90.72Zm-6,0a6,6,0,1,0-6,6A6,6,0,0,0,169.33,90.72Z"/><path class="cls-4" d="M63.55,13.71A10.49,10.49,0,1,1,53.07,3.23,10.49,10.49,0,0,1,63.55,13.71Zm-5.26,0a5.22,5.22,0,1,0-5.22,5.23A5.22,5.22,0,0,0,58.29,13.71Z"/><path class="cls-4" d="M147.93,14.69a12,12,0,1,1-12-12A12,12,0,0,1,147.93,14.69Zm-6,0a6,6,0,1,0-6,6A6,6,0,0,0,141.9,14.69Z"/><path class="cls-4" d="M129.79,40.85a22.22,22.22,0,1,1-22.22-22.22A22.21,22.21,0,0,1,129.79,40.85Zm-11.15,0a11.07,11.07,0,1,0-11.07,11.06A11.07,11.07,0,0,0,118.64,40.85Z"/><path class="cls-4" d="M198.9,90.72a35.57,35.57,0,1,1-35.56-35.56A35.57,35.57,0,0,1,198.9,90.72Zm-17.85,0a17.71,17.71,0,1,0-17.71,17.71A17.71,17.71,0,0,0,181.05,90.72Z"/><path class="cls-4" d="M3.94,90.72a12,12,0,0,1-12,12,12,12,0,0,1-12-12,12,12,0,0,1,12-12A12,12,0,0,1,3.94,90.72Zm-6,0a6,6,0,0,0-6-6,6,6,0,0,0-6,6,6,6,0,0,0,6,6A6,6,0,0,0-2.11,90.72Z"/><path class="cls-4" d="M27.46,90.72A35.57,35.57,0,0,1-8.1,126.29,35.57,35.57,0,0,1-43.66,90.72,35.56,35.56,0,0,1-8.1,55.16,35.56,35.56,0,0,1,27.46,90.72Zm-17.85,0A17.71,17.71,0,0,0-8.1,73,17.71,17.71,0,0,0-25.81,90.72,17.71,17.71,0,0,0-8.1,108.43,17.71,17.71,0,0,0,9.61,90.72Z"/><path class="cls-4" d="M55.61,112A13.93,13.93,0,1,1,41.68,98.11,13.93,13.93,0,0,1,55.61,112Zm-7,0A6.94,6.94,0,1,0,41.68,119,6.94,6.94,0,0,0,48.61,112Z"/><path class="cls-4" d="M136.62,127.58a16.86,16.86,0,1,1-16.86-16.86A16.86,16.86,0,0,1,136.62,127.58Zm-8.46,0a8.4,8.4,0,1,0-8.4,8.39A8.4,8.4,0,0,0,128.16,127.58Z"/></g></pattern><clipPath id="clip-path"><rect class="cls-2" width="171.44" height="171.44"/></clipPath><pattern id="Motivo_nuevo_2-3" data-name="Motivo nuevo 2" width="171.44" height="171.44" patternUnits="userSpaceOnUse" viewBox="0 0 171.44 171.44"><rect class="cls-2" width="171.44" height="171.44"/><g class="cls-3"><rect class="cls-4" x="60.37" y="76.75" width="15.15" height="89.7"/><rect class="cls-4" x="81.64" y="112.68" width="15.15" height="27.86"/><rect class="cls-4" x="66.51" y="11.24" width="15.15" height="60.98"/><rect class="cls-4" x="141.52" y="130.12" width="15.15" height="36.82"/><polygon class="cls-4" points="-34.45 50.94 -34.45 35.78 11.39 35.78 11.39 50.94 -34.45 50.94"/><polygon class="cls-4" points="136.99 50.94 136.99 35.78 182.83 35.78 182.83 50.94 136.99 50.94"/><polygon class="cls-4" points="122.57 164.37 122.57 149.22 137.12 149.22 137.12 164.37 122.57 164.37"/><polygon class="cls-4" points="33.11 92.03 33.11 76.87 53.53 76.87 53.53 92.03 33.11 92.03"/><path class="cls-4" d="M51.11,155.35a30.19,30.19,0,1,1-30.18-30.19A30.18,30.18,0,0,1,51.11,155.35Zm-15.15,0a15,15,0,1,0-15,15A15,15,0,0,0,36,155.35Z"/><path class="cls-4" d="M62.29,48.62a23.2,23.2,0,1,1-23.2-23.2A23.2,23.2,0,0,1,62.29,48.62Zm-11.64,0A11.56,11.56,0,1,0,39.09,60.18,11.56,11.56,0,0,0,50.65,48.62Z"/><path class="cls-4" d="M123.77,88.59a19.3,19.3,0,1,1-19.3-19.3A19.3,19.3,0,0,1,123.77,88.59Zm-9.69,0a9.61,9.61,0,1,0-9.61,9.6A9.61,9.61,0,0,0,114.08,88.59Z"/><path class="cls-4" d="M120.38,165.29a19.56,19.56,0,1,1-19.56-19.55A19.55,19.55,0,0,1,120.38,165.29Zm-9.82,0a9.74,9.74,0,1,0-9.74,9.74A9.74,9.74,0,0,0,110.56,165.29Z"/><path class="cls-4" d="M51.11-16.09A30.19,30.19,0,0,1,20.93,14.1,30.19,30.19,0,0,1-9.26-16.09,30.19,30.19,0,0,1,20.93-46.27,30.18,30.18,0,0,1,51.11-16.09ZM36-16.09a15,15,0,0,0-15-15,15,15,0,0,0-15,15,15,15,0,0,0,15,15A15,15,0,0,0,36-16.09Z"/><path class="cls-4" d="M222.55,155.35a30.19,30.19,0,1,1-30.19-30.19A30.18,30.18,0,0,1,222.55,155.35Zm-15.15,0a15,15,0,1,0-15,15A15,15,0,0,0,207.4,155.35Z"/><path class="cls-4" d="M222.55-16.09A30.19,30.19,0,0,1,192.36,14.1a30.19,30.19,0,0,1-30.18-30.19,30.18,30.18,0,0,1,30.18-30.18A30.18,30.18,0,0,1,222.55-16.09Zm-15.15,0a15,15,0,0,0-15-15,15,15,0,0,0-15,15,15,15,0,0,0,15,15A15,15,0,0,0,207.4-16.09Z"/><path class="cls-4" d="M120.38-6.14a19.56,19.56,0,0,1-19.56,19.55A19.56,19.56,0,0,1,81.27-6.14,19.56,19.56,0,0,1,100.82-25.7,19.56,19.56,0,0,1,120.38-6.14Zm-9.82,0a9.74,9.74,0,0,0-9.74-9.74,9.74,9.74,0,0,0-9.73,9.74,9.73,9.73,0,0,0,9.73,9.73A9.74,9.74,0,0,0,110.56-6.14Z"/><rect class="cls-4" x="151.05" y="4.34" width="15.15" height="26.95"/><path class="cls-4" d="M131.5,66.9a5.75,5.75,0,1,1-5.74-5.74A5.74,5.74,0,0,1,131.5,66.9Zm-2.88,0a2.86,2.86,0,1,0-2.86,2.86A2.86,2.86,0,0,0,128.62,66.9Z"/><path class="cls-4" d="M18.58,24.37a7.46,7.46,0,1,1-7.46-7.45A7.46,7.46,0,0,1,18.58,24.37Zm-3.75,0a3.71,3.71,0,1,0-3.71,3.72A3.71,3.71,0,0,0,14.83,24.37Z"/><path class="cls-4" d="M175.37,90.72a12,12,0,1,1-12-12A12,12,0,0,1,175.37,90.72Zm-6,0a6,6,0,1,0-6,6A6,6,0,0,0,169.33,90.72Z"/><path class="cls-4" d="M63.55,13.71A10.49,10.49,0,1,1,53.07,3.23,10.49,10.49,0,0,1,63.55,13.71Zm-5.26,0a5.22,5.22,0,1,0-5.22,5.23A5.22,5.22,0,0,0,58.29,13.71Z"/><path class="cls-4" d="M147.93,14.69a12,12,0,1,1-12-12A12,12,0,0,1,147.93,14.69Zm-6,0a6,6,0,1,0-6,6A6,6,0,0,0,141.9,14.69Z"/><path class="cls-4" d="M129.79,40.85a22.22,22.22,0,1,1-22.22-22.22A22.21,22.21,0,0,1,129.79,40.85Zm-11.15,0a11.07,11.07,0,1,0-11.07,11.06A11.07,11.07,0,0,0,118.64,40.85Z"/><path class="cls-4" d="M198.9,90.72a35.57,35.57,0,1,1-35.56-35.56A35.57,35.57,0,0,1,198.9,90.72Zm-17.85,0a17.71,17.71,0,1,0-17.71,17.71A17.71,17.71,0,0,0,181.05,90.72Z"/><path class="cls-4" d="M3.94,90.72a12,12,0,0,1-12,12,12,12,0,0,1-12-12,12,12,0,0,1,12-12A12,12,0,0,1,3.94,90.72Zm-6,0a6,6,0,0,0-6-6,6,6,0,0,0-6,6,6,6,0,0,0,6,6A6,6,0,0,0-2.11,90.72Z"/><path class="cls-4" d="M27.46,90.72A35.57,35.57,0,0,1-8.1,126.29,35.57,35.57,0,0,1-43.66,90.72,35.56,35.56,0,0,1-8.1,55.16,35.56,35.56,0,0,1,27.46,90.72Zm-17.85,0A17.71,17.71,0,0,0-8.1,73,17.71,17.71,0,0,0-25.81,90.72,17.71,17.71,0,0,0-8.1,108.43,17.71,17.71,0,0,0,9.61,90.72Z"/><path class="cls-4" d="M55.61,112A13.93,13.93,0,1,1,41.68,98.11,13.93,13.93,0,0,1,55.61,112Zm-7,0A6.94,6.94,0,1,0,41.68,119,6.94,6.94,0,0,0,48.61,112Z"/><path class="cls-4" d="M136.62,127.58a16.86,16.86,0,1,1-16.86-16.86A16.86,16.86,0,0,1,136.62,127.58Zm-8.46,0a8.4,8.4,0,1,0-8.4,8.39A8.4,8.4,0,0,0,128.16,127.58Z"/></g></pattern><clipPath id="clip-path-2" transform="translate(50.26)"><path class="cls-1" d="M45.55,534.86H12c-6.6,0-12-8.59-12-19.1V20.38C0,9.87,5.4,1.28,12,1.28H45.55Z"/></clipPath></defs><g id="Capa_2" data-name="Capa 2"><g id="Capa_2-2" data-name="Capa 2"><rect class="cls-5" x="-99.16" y="99.16" width="533.58" height="335.26" rx="12" transform="translate(484.68 99.16) rotate(90)"/><path class="cls-6" d="M45.55,534.86H12c-6.6,0-12-8.59-12-19.1V20.38C0,9.87,5.4,1.28,12,1.28H45.55Z" transform="translate(50.26)"/><g class="cls-7"><path class="cls-6" d="M471.33,534.86H-38.26a12,12,0,0,1-12-12V13.28a12,12,0,0,1,12-12H471.33a12,12,0,0,1,12,12V522.86A12,12,0,0,1,471.33,534.86Z" transform="translate(50.26)"/></g><rect class="cls-8" x="122.57" y="127.45" width="262.26" height="49.85"/><text class="cls-9" transform="translate(124.97 165.02)"><tspan class="cls-10">A</tspan><tspan x="22.19" y="0">U</tspan><tspan class="cls-11" x="46.78" y="0">T</tspan><tspan x="64.64" y="0">ORR</tspan><tspan class="cls-12" x="131.71" y="0">E</tspan><tspan x="151.01" y="0">T</tspan><tspan class="cls-13" x="169.9" y="0">R</tspan><tspan class="cls-14" x="190.53" y="0">A</tspan><tspan class="cls-11" x="210.86" y="0">T</tspan><tspan x="228.72" y="0">O</tspan></text><line class="cls-8" x1="295.55" y1="128.46" x2="384.5" y2="128.46"/><text class="cls-15" transform="translate(124.67 216.76)"><tspan class="cls-16">L</tspan><tspan x="6.23" y="0">o</tspan><tspan class="cls-17" x="13.23" y="0">r</tspan><tspan x="17.78" y="0">em ipsum dolor sit ame</tspan><tspan class="cls-18" x="146.85" y="0">t</tspan><tspan x="151.56" y="0">, consec</tspan><tspan class="cls-19" x="195.62" y="0">t</tspan><tspan x="200.13" y="0">etuer </tspan><tspan class="cls-19" x="6.17" y="15.6">a</tspan><tspan x="12.57" y="15.6">dipiscing eli</tspan><tspan class="cls-20" x="76.03" y="15.6">t</tspan><tspan x="80.75" y="15.6">, sed diam nonum</tspan><tspan class="cls-21" x="178.79" y="15.6">m</tspan><tspan class="cls-22" x="190.17" y="15.6">y</tspan><tspan x="196.69" y="15.6" xml:space="preserve"> nibh </tspan><tspan x="17.91" y="31.2">euismod tincidunt ut l</tspan><tspan class="cls-19" x="138.4" y="31.2">a</tspan><tspan x="144.8" y="31.2">o</tspan><tspan class="cls-21" x="151.81" y="31.2">r</tspan><tspan x="156.36" y="31.2">eet dolo</tspan><tspan class="cls-21" x="200.89" y="31.2">r</tspan><tspan x="205.44" y="31.2">e </tspan><tspan x="13.94" y="46.8">m</tspan><tspan class="cls-23" x="25.5" y="46.8">a</tspan><tspan x="32.08" y="46.8">gna aliquam e</tspan><tspan class="cls-24" x="109.09" y="46.8">r</tspan><tspan class="cls-21" x="113.66" y="46.8">a</tspan><tspan x="120.02" y="46.8">t </tspan><tspan class="cls-25" x="127.26" y="46.8">v</tspan><tspan x="133.69" y="46.8">olutp</tspan><tspan class="cls-21" x="162.62" y="46.8">a</tspan><tspan class="cls-20" x="168.98" y="46.8">t</tspan><tspan x="173.7" y="46.8">. Ut wisi </tspan><tspan x="14.55" y="62.4">enim </tspan><tspan class="cls-19" x="45.48" y="62.4">a</tspan><tspan x="51.88" y="62.4">d minim </tspan><tspan class="cls-25" x="100.35" y="62.4">v</tspan><tspan x="106.77" y="62.4">eniam, quis nostrud </tspan><tspan x="80.67" y="78">e</tspan><tspan class="cls-26" x="87.3" y="78">x</tspan><tspan x="93.61" y="78">e</tspan><tspan class="cls-21" x="100.24" y="78">r</tspan><tspan x="104.79" y="78">ci t</tspan><tspan class="cls-17" x="121.17" y="78">a</tspan><tspan x="127.52" y="78">tion </tspan></text><text class="cls-15" transform="translate(124.79 344.57)"><tspan class="cls-16">¿</tspan><tspan class="cls-27" x="5.12" y="0">C</tspan><tspan x="12.47" y="0">omo </tspan><tspan class="cls-19" x="40.64" y="0">t</tspan><tspan x="45.15" y="0">e sentis</tspan><tspan class="cls-19" x="86.42" y="0">t</tspan><tspan x="90.93" y="0">e </tspan><tspan class="cls-21" x="100.16" y="0">r</tspan><tspan x="104.71" y="0">ealizando esta </tspan><tspan class="cls-19" x="185.59" y="0">a</tspan><tspan x="191.98" y="0">ctivid</tspan><tspan class="cls-19" x="222.51" y="0">a</tspan><tspan class="cls-28" x="228.9" y="0">d</tspan><tspan x="236.23" y="0">?</tspan></text><image width="1747" height="1081" transform="translate(135.51 342.51) scale(0.12)" xlink:href="../../../../../Downloads/Recurso%201.png"/></g></g></svg>