<svg xmlns="http://www.w3.org/2000/svg" xmlns:xlink="http://www.w3.org/1999/xlink" viewBox="0 0 605.81 1040.58"><defs><style>.cls-1,.cls-15,.cls-16,.cls-17,.cls-18,.cls-19,.cls-20,.cls-23{fill:none;}.cls-2{clip-path:url(#clip-path);}.cls-3{fill:#9768f2;}.cls-4{fill:#f9f9f9;}.cls-5{font-size:57px;font-family:koliko-Regular, koliko;}.cls-11,.cls-5{fill:#1c1b28;}.cls-6{font-size:68px;font-family:Nexa-Bold;font-weight:700;letter-spacing:0em;}.cls-7{letter-spacing:0em;}.cls-8{letter-spacing:-0.02em;}.cls-9{fill:#fcb910;}.cls-10{fill:#e5a21a;}.cls-12{fill:#00bcbc;}.cls-13,.cls-21{fill:#009995;}.cls-14{fill:#f95c4b;}.cls-15,.cls-16{stroke:#1c1b28;}.cls-15,.cls-16,.cls-17,.cls-18,.cls-19,.cls-20{stroke-linecap:round;}.cls-15,.cls-18,.cls-19,.cls-20{stroke-linejoin:round;}.cls-15,.cls-16,.cls-18,.cls-19{stroke-width:3px;}.cls-16,.cls-17,.cls-23{stroke-miterlimit:10;}.cls-17{stroke:#fff;}.cls-18{stroke:#009995;}.cls-19{stroke:#e09e1b;}.cls-20{stroke:#f2af19;stroke-width:4px;}.cls-21{opacity:0.71;}.cls-22{fill:#e09e1b;}.cls-23{stroke:#9768f2;stroke-width:5px;}.cls-24{clip-path:url(#clip-path-2);}.cls-25{fill:url(#Motivo_nuevo_8);}</style><clipPath id="clip-path"><rect class="cls-1" width="171.44" height="171.44"/></clipPath><clipPath id="clip-path-2"><path class="cls-1" d="M581.46,885.77V940c0,10.66-9.37,19.38-20.82,19.38H20.81C9.37,959.38,0,950.65,0,940V885.77Z"/></clipPath><pattern id="Motivo_nuevo_8" data-name="Motivo nuevo 8" width="171.44" height="171.44" patternTransform="translate(-186.34 -23.1)" patternUnits="userSpaceOnUse" viewBox="0 0 171.44 171.44"><rect class="cls-1" width="171.44" height="171.44"/><g class="cls-2"><rect class="cls-3" x="60.37" y="76.75" width="15.15" height="89.7"/><rect class="cls-3" x="81.64" y="112.68" width="15.15" height="27.86"/><rect class="cls-3" x="66.51" y="11.24" width="15.15" height="60.98"/><rect class="cls-3" x="141.52" y="130.12" width="15.15" height="36.82"/><rect class="cls-3" x="-34.45" y="35.78" width="45.84" height="15.15"/><rect class="cls-3" x="136.99" y="35.78" width="45.84" height="15.15"/><rect class="cls-3" x="122.57" y="149.22" width="14.56" height="15.15"/><rect class="cls-3" x="33.11" y="76.87" width="20.42" height="15.15"/><path class="cls-3" d="M51.11,155.35a30.19,30.19,0,1,1-30.18-30.19A30.18,30.18,0,0,1,51.11,155.35Zm-15.15,0a15,15,0,1,0-15,15A15,15,0,0,0,36,155.35Z"/><path class="cls-3" d="M62.29,48.62a23.2,23.2,0,1,1-23.2-23.2A23.2,23.2,0,0,1,62.29,48.62Zm-11.64,0A11.56,11.56,0,1,0,39.09,60.18,11.56,11.56,0,0,0,50.65,48.62Z"/><path class="cls-3" d="M123.77,88.59a19.3,19.3,0,1,1-19.3-19.3A19.3,19.3,0,0,1,123.77,88.59Zm-9.69,0a9.61,9.61,0,1,0-9.61,9.6A9.61,9.61,0,0,0,114.08,88.59Z"/><path class="cls-3" d="M120.38,165.29a19.56,19.56,0,1,1-19.56-19.55A19.55,19.55,0,0,1,120.38,165.29Zm-9.82,0a9.74,9.74,0,1,0-9.74,9.74A9.74,9.74,0,0,0,110.56,165.29Z"/><path class="cls-3" d="M51.11-16.09A30.19,30.19,0,0,1,20.93,14.1,30.19,30.19,0,0,1-9.26-16.09,30.19,30.19,0,0,1,20.93-46.27,30.18,30.18,0,0,1,51.11-16.09ZM36-16.09a15,15,0,0,0-15-15,15,15,0,0,0-15,15,15,15,0,0,0,15,15A15,15,0,0,0,36-16.09Z"/><path class="cls-3" d="M222.55,155.35a30.19,30.19,0,1,1-30.19-30.19A30.18,30.18,0,0,1,222.55,155.35Zm-15.15,0a15,15,0,1,0-15,15A15,15,0,0,0,207.4,155.35Z"/><path class="cls-3" d="M222.55-16.09A30.19,30.19,0,0,1,192.36,14.1a30.19,30.19,0,0,1-30.18-30.19,30.18,30.18,0,0,1,30.18-30.18A30.18,30.18,0,0,1,222.55-16.09Zm-15.15,0a15,15,0,0,0-15-15,15,15,0,0,0-15,15,15,15,0,0,0,15,15A15,15,0,0,0,207.4-16.09Z"/><path class="cls-3" d="M120.38-6.14a19.56,19.56,0,0,1-19.56,19.55A19.56,19.56,0,0,1,81.27-6.14,19.56,19.56,0,0,1,100.82-25.7,19.56,19.56,0,0,1,120.38-6.14Zm-9.82,0a9.74,9.74,0,0,0-9.74-9.74,9.74,9.74,0,0,0-9.73,9.74,9.73,9.73,0,0,0,9.73,9.73A9.74,9.74,0,0,0,110.56-6.14Z"/><rect class="cls-3" x="151.05" y="4.34" width="15.15" height="26.95"/><path class="cls-3" d="M131.5,66.9a5.75,5.75,0,1,1-5.74-5.74A5.74,5.74,0,0,1,131.5,66.9Zm-2.88,0a2.86,2.86,0,1,0-2.86,2.86A2.86,2.86,0,0,0,128.62,66.9Z"/><path class="cls-3" d="M18.58,24.37a7.46,7.46,0,1,1-7.46-7.45A7.46,7.46,0,0,1,18.58,24.37Zm-3.75,0a3.71,3.71,0,1,0-3.71,3.72A3.71,3.71,0,0,0,14.83,24.37Z"/><path class="cls-3" d="M175.37,90.72a12,12,0,1,1-12-12A12,12,0,0,1,175.37,90.72Zm-6,0a6,6,0,1,0-6,6A6,6,0,0,0,169.33,90.72Z"/><path class="cls-3" d="M63.55,13.71A10.49,10.49,0,1,1,53.07,3.23,10.49,10.49,0,0,1,63.55,13.71Zm-5.26,0a5.22,5.22,0,1,0-5.22,5.23A5.22,5.22,0,0,0,58.29,13.71Z"/><path class="cls-3" d="M147.93,14.69a12,12,0,1,1-12-12A12,12,0,0,1,147.93,14.69Zm-6,0a6,6,0,1,0-6,6A6,6,0,0,0,141.9,14.69Z"/><path class="cls-3" d="M129.79,40.85a22.22,22.22,0,1,1-22.22-22.22A22.21,22.21,0,0,1,129.79,40.85Zm-11.15,0a11.07,11.07,0,1,0-11.07,11.06A11.07,11.07,0,0,0,118.64,40.85Z"/><path class="cls-3" d="M198.9,90.72a35.57,35.57,0,1,1-35.56-35.56A35.57,35.57,0,0,1,198.9,90.72Zm-17.85,0a17.71,17.71,0,1,0-17.71,17.71A17.71,17.71,0,0,0,181.05,90.72Z"/><path class="cls-3" d="M3.94,90.72a12,12,0,0,1-12,12,12,12,0,0,1-12-12,12,12,0,0,1,12-12A12,12,0,0,1,3.94,90.72Zm-6,0a6,6,0,0,0-6-6,6,6,0,0,0-6,6,6,6,0,0,0,6,6A6,6,0,0,0-2.11,90.72Z"/><path class="cls-3" d="M27.46,90.72A35.57,35.57,0,0,1-8.1,126.29,35.57,35.57,0,0,1-43.66,90.72,35.56,35.56,0,0,1-8.1,55.16,35.56,35.56,0,0,1,27.46,90.72Zm-17.85,0A17.71,17.71,0,0,0-8.1,73,17.71,17.71,0,0,0-25.81,90.72,17.71,17.71,0,0,0-8.1,108.43,17.71,17.71,0,0,0,9.61,90.72Z"/><path class="cls-3" d="M55.61,112A13.93,13.93,0,1,1,41.68,98.11,13.93,13.93,0,0,1,55.61,112Zm-7,0A6.94,6.94,0,1,0,41.68,119,6.94,6.94,0,0,0,48.61,112Z"/><path class="cls-3" d="M136.62,127.58a16.86,16.86,0,1,1-16.86-16.86A16.86,16.86,0,0,1,136.62,127.58Zm-8.46,0a8.4,8.4,0,1,0-8.4,8.39A8.4,8.4,0,0,0,128.16,127.58Z"/></g></pattern></defs><g id="Capa_2" data-name="Capa 2"><g id="Capa_2-2" data-name="Capa 2"><rect class="cls-4" width="581.99" height="956.93" rx="12"/><text class="cls-5" transform="matrix(0.86, 0.51, -0.51, 0.86, 147.26, 501.86)">A</text><text class="cls-5" transform="translate(181.85 521.97) rotate(24.98)">u</text><text class="cls-5" transform="matrix(0.95, 0.32, -0.32, 0.95, 215.42, 537.02)">t</text><text class="cls-5" transform="translate(245.73 547.02) rotate(11.84)">o</text><text class="cls-5" transform="matrix(1, 0.06, -0.06, 1, 282.05, 553.87)">c</text><text class="cls-5" transform="translate(316.39 555.19) rotate(-6.63)">o</text><text class="cls-5" transform="translate(354.33 549.73) rotate(-18.26)">n</text><text class="cls-5" transform="matrix(0.87, -0.5, 0.5, 0.87, 390.65, 536.55)">o</text><text class="cls-5" transform="matrix(0.73, -0.68, 0.68, 0.73, 424.38, 516.7)">m</text><text class="cls-5" transform="matrix(0.61, -0.79, 0.79, 0.61, 464.29, 476.4)">i</text><text class="cls-5" transform="matrix(0.52, -0.85, 0.85, 0.52, 480.19, 455.62)">e</text><text class="cls-5" transform="translate(498.01 425.27) rotate(-67.59)">n</text><text class="cls-5" transform="matrix(0.23, -0.97, 0.97, 0.23, 511.46, 390.07)">t</text><text class="cls-5" transform="translate(518.23 358.04) rotate(-85.96)">o</text><rect class="cls-3" x="73.17" y="664.47" width="434.57" height="88.22" rx="26.53"/><text class="cls-6" transform="translate(189.24 730.23)">I<tspan class="cls-7" x="19.18" y="0">nicia</tspan><tspan class="cls-8" x="171.56" y="0">r</tspan></text><circle class="cls-3" cx="293.09" cy="307.75" r="182.14"/><circle class="cls-9" cx="293.09" cy="307.75" r="147.92"/><path class="cls-10" d="M254.29,425.34c-56.47-4.26-81.52-32.8-81.52-32.8l25.86-76.87s44.34,32.27,56.59,92.5"/><path class="cls-10" d="M340.13,427.57c-1.4-61.77,22.66-91.82,22.66-91.82l56.55,48S405.53,416,354.91,441.37"/><path class="cls-11" d="M302.13,351.24l-18.94,1.62a20,20,0,0,1-20.44-17l-2.7-20.08,27.64-1.76,14.12,24.22Z"/><path class="cls-12" d="M277.59,170.62l-41.94-43.29A19.69,19.69,0,0,1,236,99.52l29.07-28.35"/><path class="cls-12" d="M317.86,71.17l29.07,28.35a19.7,19.7,0,0,1,.4,27.81l-41.95,43.29"/><path class="cls-12" d="M440.45,309A147.07,147.07,0,0,1,422,380.63q-2.81,5.06-6,9.85a31.78,31.78,0,0,1-55.49-21.15c0-.51,0-1,0-1.52a69.21,69.21,0,0,0,1.35-7.81,68.26,68.26,0,0,0,.48-8.13,69.62,69.62,0,1,0-138.8,7.78,66.19,66.19,0,0,0,1.48,8.5c0,.39,0,.79,0,1.18a31.78,31.78,0,0,1-55.77,20.84q-2.94-4.44-5.54-9.1A147.75,147.75,0,1,1,440.45,309Z"/><path class="cls-13" d="M441.4,307.37A147.07,147.07,0,0,1,422.9,379q-2.82,5.06-6,9.85a31.67,31.67,0,0,1-16.46,9.79c1.2-1.92,2.34-3.87,3.45-5.86A147.78,147.78,0,0,0,197.79,195,147.75,147.75,0,0,1,441.4,307.37Z"/><path class="cls-9" d="M277.59,170.62l3.46-40.4a17.56,17.56,0,0,0-.63-6.41L265.11,71.17l-9.45,49a23.06,23.06,0,0,0,2.5,15.61Z"/><path class="cls-9" d="M427.62,362.49a41.28,41.28,0,0,0-40.57.66,13.66,13.66,0,0,0-5.38-15.38L372.8,330l-.76-1.88-3-11.05-8.91-15.86-1.13.28c10.93-54-3.74-78.87-4.37-79.91a.2.2,0,0,1,0-.08c-14.79-34.72-35.75-48.25-50.06-52.87a34.22,34.22,0,0,0-33,6.94c-12.71,11.1-23.53,26.2-23.53,26.2s-26.37,28-15,69.68c0,0,11.41,42.06,45.9,62,.39.22.51.75.8,1.11,27.44,34,91.07,58.28,91.07,58.28S401.62,404,441.55,384a.71.71,0,0,0,.38-.59C442,381.13,441.55,370.22,427.62,362.49Z"/><path class="cls-13" d="M425.13,361.61a41.29,41.29,0,0,0-40.56.66,13.67,13.67,0,0,0-5.39-15.38l-8.86-17.73-.76-1.87-3-11.05-8.91-15.86-1.13.27c10.92-54-3.74-78.87-4.38-79.9a.3.3,0,0,0,0-.08c-14.78-34.73-35.75-48.25-50.05-52.87-11.42-3.7-23.32-.18-33,6.93a103.35,103.35,0,0,0-24.19,25.89s-27,29.51-14.3,70c0,0,2.63,13.4,15.3,29.23.24.31,3.2-.14,3.46.17,7,8.39,14.42,17.46,27.68,26.71.37.26,5.3,2.43,5.58,2.79,27.45,34,86.72,60,86.72,60s29.85,13.63,69.77-6.44a.68.68,0,0,0,.38-.59C439.51,380.25,439.07,369.34,425.13,361.61Z"/><path class="cls-9" d="M428.84,362.2a41.31,41.31,0,0,0-40.57.66,13.66,13.66,0,0,0-5.38-15.38L374,329.75l-.76-1.87-3-11.05L361.32,301l-1.13.27c10.93-54-3.74-78.87-4.37-79.9l0-.08C341,186.53,320,173,305.72,168.38a34.22,34.22,0,0,0-33,6.94c-12.71,11.11-23.53,26.2-23.53,26.2s-26.37,28-15,69.68c0,0,11.41,42.06,45.9,62,.4.23.51.76.8,1.11,27.44,34,91.07,58.28,91.07,58.28s30.82,11.16,70.75-8.91a.7.7,0,0,0,.38-.59C443.21,380.84,442.77,369.93,428.84,362.2Z"/><path class="cls-9" d="M305.38,170.62l-3.46-40.4a17.57,17.57,0,0,1,.64-6.41l15.3-52.64,9.45,49a23.06,23.06,0,0,1-2.5,15.61Z"/><path class="cls-12" d="M276.76,174.82,271.53,180a27.38,27.38,0,0,0-3.17,35.18l24.13,34.48a8.16,8.16,0,0,0,13.82-.74l19-34.42A27.53,27.53,0,0,0,321,182.06l-6.6-6.82A26.47,26.47,0,0,0,276.76,174.82Z"/><path class="cls-14" d="M262.75,335.89a20,20,0,0,0,19.82,17c-5.54-18.44-15.69-19.54-20.1-19.06Z"/><path class="cls-15" d="M253.35,311.41l.89,21.39c3.68,20.35,8.2,26.37,28.52,27.09l23-3.39"/><path class="cls-13" d="M321,182.06l-6.6-6.82a26.47,26.47,0,0,0-37.64-.42L271.53,180a27.42,27.42,0,0,0-4.47,5.8c.3-.33.59-.67.91-1l5.23-5.18a26.46,26.46,0,0,1,37.63.42l6.6,6.82a27.52,27.52,0,0,1,4.32,32.43l-17.83,32.29a8.18,8.18,0,0,0,2.39-2.68l19-34.42A27.53,27.53,0,0,0,321,182.06Z"/><path class="cls-16" d="M252,240.6s10.19-8,21.75-3.13"/><path class="cls-16" d="M324.57,237.76s11.9-5.14,21.83,2.51"/><line class="cls-17" x1="274.8" y1="191.23" x2="292.62" y2="191.23"/><line class="cls-17" x1="269.81" y1="195.98" x2="287.63" y2="195.98"/><line class="cls-17" x1="272.36" y1="200.62" x2="290.18" y2="200.62"/><line class="cls-17" x1="291.67" y1="195.98" x2="297.13" y2="195.98"/><path class="cls-18" d="M360.92,297.92S377,308.68,371.3,327.45"/><path class="cls-18" d="M369,320.05s15.62,9.48,9.93,28.25"/><path class="cls-18" d="M379,341.8s12.77,3.42,11.7,19.28"/><path class="cls-19" d="M377.32,348.89s5.94-12.35-6.42-23.52"/><path class="cls-19" d="M378.75,344s11.69,5.21,10.3,17.85"/><path class="cls-20" d="M248.93,261.05s13.92-11.39,25.13,2.31"/><path class="cls-20" d="M249.43,261.07s14-7.07,24.63,2.29"/><path class="cls-16" d="M248.93,260.64s14.31-16.25,25.13,2.32"/><path class="cls-16" d="M248.93,260.64s14.31-12.39,25.13,2.32"/><path class="cls-20" d="M348.05,261.7s-13.91-11.39-25.12,2.31"/><path class="cls-20" d="M347.56,261.72s-14-7.07-24.63,2.29"/><path class="cls-16" d="M348.05,261.29s-14.3-16.25-25.12,2.32"/><path class="cls-16" d="M348.05,261.29s-14.3-12.39-25.12,2.32"/><polygon class="cls-21" points="389.18 299.36 383.97 291.6 391.07 292.49 398.18 293.53 396.56 299.36 394.38 307.12 389.18 299.36"/><polygon class="cls-21" points="389.16 338.72 383.96 330.95 391.05 331.84 398.17 332.89 396.55 338.72 394.37 346.48 389.16 338.72"/><polygon class="cls-21" points="386.83 276.37 382.19 269.45 388.51 270.24 394.86 271.17 393.42 276.37 391.47 283.29 386.83 276.37"/><polygon class="cls-21" points="356.9 213.34 352.88 207.34 358.36 208.03 363.86 208.84 362.61 213.34 360.92 219.34 356.9 213.34"/><polygon class="cls-21" points="372.13 248.04 366.92 240.27 374.02 241.16 381.13 242.21 379.51 248.04 377.33 255.8 372.13 248.04"/><polygon class="cls-21" points="372.92 301.42 370.11 295.69 374.83 296.94 379.54 298.3 377.91 302.1 375.72 307.15 372.92 301.42"/><polygon class="cls-21" points="404.02 330.95 400.34 323.45 405.51 325.59 410.69 327.86 409.41 332.41 407.7 338.46 404.02 330.95"/><polygon class="cls-21" points="387.25 319.04 384.45 313.31 389.17 314.56 393.88 315.92 392.25 319.72 390.06 324.77 387.25 319.04"/><polygon class="cls-21" points="403.89 348.89 401.51 344.03 405.51 345.1 409.52 346.25 408.13 349.47 406.27 353.76 403.89 348.89"/><polygon class="cls-21" points="405.42 308.32 402.61 302.59 407.33 303.84 412.05 305.2 410.42 309 408.23 314.05 405.42 308.32"/><polygon class="cls-21" points="401.21 284.78 399.15 280.57 402.61 281.5 406.07 282.49 404.88 285.28 403.27 288.98 401.21 284.78"/><polygon class="cls-21" points="371.37 263.96 369.31 259.76 372.77 260.68 376.23 261.68 375.03 264.46 373.43 268.17 371.37 263.96"/><polygon class="cls-21" points="364.3 229.81 362.24 225.6 365.7 226.52 369.16 227.52 367.96 230.31 366.35 234.01 364.3 229.81"/><polygon class="cls-21" points="349.49 200.62 348.05 197.67 350.48 198.31 352.91 199.01 352.07 200.97 350.94 203.57 349.49 200.62"/><polygon class="cls-21" points="369.49 218.4 368.04 215.45 370.47 216.1 372.9 216.8 372.06 218.75 370.93 221.36 369.49 218.4"/><polygon class="cls-21" points="372.12 280.63 369.31 274.9 374.03 276.15 378.75 277.51 377.11 281.31 374.92 286.36 372.12 280.63"/><polygon class="cls-21" points="383.85 261.36 382.02 257.62 385.09 258.44 388.17 259.33 387.11 261.81 385.68 265.1 383.85 261.36"/><polygon class="cls-21" points="386.93 241.99 385.09 238.25 388.17 239.06 391.25 239.95 390.19 242.43 388.76 245.72 386.93 241.99"/><polygon class="cls-21" points="391.97 257.26 389.17 251.53 393.88 252.78 398.6 254.14 396.97 257.94 394.78 262.99 391.97 257.26"/><polygon class="cls-21" points="376.83 230.58 374.03 224.85 378.75 226.11 383.46 227.47 381.83 231.26 379.64 236.32 376.83 230.58"/><polygon class="cls-21" points="177.22 293.04 180.43 284.26 173.75 286.81 167.09 289.51 170.04 294.79 174 301.81 177.22 293.04"/><polygon class="cls-21" points="177.16 332.59 180.72 323.95 173.94 326.23 167.17 328.67 169.92 334.06 173.6 341.24 177.16 332.59"/><polygon class="cls-21" points="169.52 362.58 172.46 355.45 166.87 357.33 161.28 359.34 163.55 363.79 166.58 369.72 169.52 362.58"/><polygon class="cls-21" points="178.25 271.75 182.12 264.37 175.91 265.83 169.71 267.44 171.7 272.45 174.38 279.13 178.25 271.75"/><polygon class="cls-21" points="208.91 208.16 212.94 202.16 207.45 202.85 201.95 203.66 203.21 208.16 204.89 214.16 208.91 208.16"/><polygon class="cls-21" points="193.69 242.86 198.89 235.09 191.8 235.98 184.68 237.03 186.3 242.86 188.48 250.62 193.69 242.86"/><polygon class="cls-21" points="192.9 296.24 195.71 290.51 190.99 291.76 186.27 293.12 187.9 296.92 190.09 301.97 192.9 296.24"/><polygon class="cls-21" points="161.79 325.78 165.47 318.27 160.31 320.41 155.13 322.68 156.41 327.23 158.12 333.28 161.79 325.78"/><polygon class="cls-21" points="178.56 313.86 181.37 308.13 176.65 309.38 171.93 310.74 173.56 314.54 175.75 319.59 178.56 313.86"/><polygon class="cls-21" points="161.92 343.71 164.3 338.85 160.3 339.92 156.3 341.07 157.68 344.29 159.54 348.58 161.92 343.71"/><polygon class="cls-21" points="160.4 303.14 163.2 297.41 158.48 298.66 153.77 300.02 155.4 303.82 157.59 308.87 160.4 303.14"/><polygon class="cls-21" points="164.6 279.6 166.66 275.39 163.2 276.31 159.74 277.31 160.94 280.1 162.55 283.8 164.6 279.6"/><polygon class="cls-21" points="194.45 258.78 196.5 254.58 193.04 255.5 189.58 256.5 190.78 259.28 192.39 262.99 194.45 258.78"/><polygon class="cls-21" points="201.52 224.63 203.58 220.42 200.12 221.34 196.66 222.34 197.85 225.13 199.46 228.83 201.52 224.63"/><polygon class="cls-21" points="216.32 195.44 217.77 192.49 215.34 193.13 212.91 193.83 213.75 195.79 214.87 198.39 216.32 195.44"/><polygon class="cls-21" points="161.28 263.61 162.73 260.66 160.3 261.31 157.87 262.01 158.71 263.96 159.84 266.56 161.28 263.61"/><polygon class="cls-21" points="154.89 288.6 155.67 285.41 153.44 286.56 151.21 287.76 152.45 289.49 154.1 291.8 154.89 288.6"/><polygon class="cls-21" points="169.98 348.89 170.76 345.7 168.53 346.85 166.3 348.05 167.54 349.79 169.19 352.09 169.98 348.89"/><polygon class="cls-21" points="196.33 213.22 197.77 210.27 195.34 210.92 192.91 211.62 193.75 213.57 194.88 216.18 196.33 213.22"/><polygon class="cls-21" points="193.7 275.45 196.5 269.72 191.79 270.97 187.07 272.33 188.7 276.13 190.89 281.18 193.7 275.45"/><polygon class="cls-21" points="181.97 256.18 183.8 252.44 180.72 253.26 177.64 254.15 178.71 256.63 180.14 259.92 181.97 256.18"/><polygon class="cls-21" points="178.89 236.81 180.72 233.07 177.64 233.88 174.56 234.77 175.63 237.25 177.06 240.54 178.89 236.81"/><polygon class="cls-21" points="173.84 252.08 176.65 246.35 171.93 247.6 167.21 248.96 168.85 252.76 171.04 257.81 173.84 252.08"/><polygon class="cls-21" points="188.98 225.41 191.79 219.67 187.07 220.93 182.35 222.29 183.98 226.09 186.17 231.14 188.98 225.41"/><path class="cls-22" d="M427.08,361.94a41.17,41.17,0,0,0-38.17-.63c-1,.47-1.26-.51-1.15-1.56.82-7.56-5.09-11.47-6.36-12.35a1.4,1.4,0,0,1-.42-.52l-7.05-17.72c-.07-.14-1.35-.48-1.47-.59l-.63-.64a1.34,1.34,0,0,1-.38-.77L370,315.38a1.36,1.36,0,0,0-.16-.48l-8.66-15.75-.74-.09c10.93-54-4.05-77.28-4.69-78.31,0,0,0-.05,0-.08-13.76-35.37-37.12-48.66-51.43-53.29-11.42-3.69-24.22-.22-33.26,7.68-7.15,6.24-12.79,13.84-17.15,19.22,4.16-4.91,9-10.78,14.76-15.82a33.6,33.6,0,0,1,32.61-7c14.3,4.63,35.24,18.13,50,52.8l.11.22c1,1.77,16.21,26.44,5.46,79.57h0s12.51,8.64,10.83,23.33c-.14,1.16,1.22,1,1.54,2.09,0,0,9.91,2.39,7,18.58a2.34,2.34,0,0,0,1.14,2.37c2.81.44,9.12,3.74,6.94,12.9a1.3,1.3,0,0,0,1.9,1.34,41.17,41.17,0,0,1,38.17.62c10.32,5.73,13.24,13.2,14,17.59a1.32,1.32,0,0,0,1.87.94h0a2,2,0,0,0,1.12-1.9C441.23,378.39,439.6,368.88,427.08,361.94Z"/><path class="cls-19" d="M359.88,299.19S374.94,313.25,369,328"/><path class="cls-13" d="M358.36,437.57A11.59,11.59,0,0,0,348.48,427c-17.4-3.11-25.86,12.63-28,19.25-.25.76,1.6,1.47,2.15.85l7.29-7-9.73,17a2.16,2.16,0,0,0,3,2.95l15-7.45L328.93,467c-.66,1.68,1.52,3.34,3.16,2.44l2.2-1A47,47,0,0,0,352,454.76C355.71,450,358.76,444.07,358.36,437.57Z"/><path class="cls-12" d="M358.87,435.85c-.3-5.22-4.25-9.28-9.58-10.2-17-2.92-25.28,12.39-27.37,18.84-.25.74,1.55,1.42,2.09.81l7.15-6.84L321.58,455a2.07,2.07,0,0,0,2.89,2.84l14.69-7.3-9.14,14c-.65,1.63,1.46,3.23,3.06,2.34l2.16-1a46.56,46.56,0,0,0,17.35-13.36C356.22,448,359.23,442.16,358.87,435.85Z"/><path class="cls-13" d="M243.21,418.38c0-5.24,3.68-9.54,9-10.77,16.82-3.92,26.12,10.92,28.63,17.24.28.73-1.47,1.51-2.05.94l-7.6-6.43,10.64,16c1.25,1.88-.6,3.92-2.72,3L263.89,432l10,13.46c.76,1.6-1.26,3.33-2.92,2.53l-2.22-.85a46.87,46.87,0,0,1-18.23-12.34C246.62,430.34,243.25,424.71,243.21,418.38Z"/><path class="cls-12" d="M241.4,418.36c-.5-5.31,2.9-9.94,8.17-11.6,16.78-5.29,27.57,9,30.68,15.19.36.72-1.36,1.65-2,1.11l-8.31-5.9,12.25,15.37c1.44,1.8-.26,4-2.5,3.26l-16-5.33,11.41,12.83c.91,1.56-1,3.47-2.76,2.79l-2.33-.69a48.47,48.47,0,0,1-19.66-11.05C245.92,430.18,242,424.76,241.4,418.36Z"/><path class="cls-23" d="M145,475.42A223.78,223.78,0,0,1,375.52,99.71c84.61,33.55,139.31,116.47,138.82,207.49,0,8.05-.25,16.36-.75,23.76"/><g class="cls-24"><path class="cls-25" d="M581.46,190.4v838.18a12,12,0,0,1-12,12H12a12,12,0,0,1-12-12V190.4a12,12,0,0,1,12-12H569.46A12,12,0,0,1,581.46,190.4Z"/></g></g></g></svg>