<svg xmlns="http://www.w3.org/2000/svg" xmlns:xlink="http://www.w3.org/1999/xlink" viewBox="0 0 581.99 1038.14"><defs><style>.cls-1{fill:url(#Motivo_nuevo_10);}.cls-12,.cls-13,.cls-14,.cls-15,.cls-16,.cls-17,.cls-2,.cls-6{fill:none;}.cls-3{clip-path:url(#clip-path);}.cls-4{fill:#f95c4b;}.cls-5{fill:#f9f9f9;}.cls-6{stroke:#f95c4b;stroke-width:5px;}.cls-12,.cls-13,.cls-14,.cls-15,.cls-16,.cls-17,.cls-6{stroke-linecap:round;}.cls-12,.cls-15,.cls-16,.cls-17,.cls-6{stroke-linejoin:round;}.cls-7{fill:#fcb910;}.cls-8{fill:#e5a21a;}.cls-20,.cls-9{fill:#1c1b28;}.cls-10{fill:#00bcbc;}.cls-11,.cls-18{fill:#009995;}.cls-12,.cls-13{stroke:#1c1b28;}.cls-12,.cls-13,.cls-15,.cls-16{stroke-width:3px;}.cls-13,.cls-14{stroke-miterlimit:10;}.cls-14{stroke:#fff;}.cls-15{stroke:#009995;}.cls-16{stroke:#e09e1b;}.cls-17{stroke:#f2af19;stroke-width:4px;}.cls-18{opacity:0.71;}.cls-19{fill:#e09e1b;}.cls-20{font-size:57px;font-family:koliko-Regular, koliko;}.cls-21{fill:url(#Motivo_nuevo_10-3);}.cls-22{clip-path:url(#clip-path-2);}</style><pattern id="Motivo_nuevo_10" data-name="Motivo nuevo 10" width="171.44" height="171.44" patternUnits="userSpaceOnUse" viewBox="0 0 171.44 171.44"><rect class="cls-2" width="171.44" height="171.44"/><g class="cls-3"><rect class="cls-4" x="60.37" y="76.75" width="15.15" height="89.7"/><rect class="cls-4" x="81.64" y="112.68" width="15.15" height="27.86"/><rect class="cls-4" x="66.51" y="11.24" width="15.15" height="60.98"/><rect class="cls-4" x="141.52" y="130.12" width="15.15" height="36.82"/><polygon class="cls-4" points="-34.45 50.94 -34.45 35.78 11.39 35.78 11.39 50.94 -34.45 50.94"/><polygon class="cls-4" points="136.99 50.94 136.99 35.78 182.83 35.78 182.83 50.94 136.99 50.94"/><polygon class="cls-4" points="122.57 164.37 122.57 149.22 137.12 149.22 137.12 164.37 122.57 164.37"/><polygon class="cls-4" points="33.11 92.03 33.11 76.87 53.53 76.87 53.53 92.03 33.11 92.03"/><path class="cls-4" d="M51.11,155.35a30.19,30.19,0,1,1-30.18-30.19A30.18,30.18,0,0,1,51.11,155.35Zm-15.15,0a15,15,0,1,0-15,15A15,15,0,0,0,36,155.35Z"/><path class="cls-4" d="M62.29,48.62a23.2,23.2,0,1,1-23.2-23.2A23.2,23.2,0,0,1,62.29,48.62Zm-11.64,0A11.56,11.56,0,1,0,39.09,60.18,11.56,11.56,0,0,0,50.65,48.62Z"/><path class="cls-4" d="M123.77,88.59a19.3,19.3,0,1,1-19.3-19.3A19.3,19.3,0,0,1,123.77,88.59Zm-9.69,0a9.61,9.61,0,1,0-9.61,9.6A9.61,9.61,0,0,0,114.08,88.59Z"/><path class="cls-4" d="M120.38,165.29a19.56,19.56,0,1,1-19.56-19.55A19.55,19.55,0,0,1,120.38,165.29Zm-9.82,0a9.74,9.74,0,1,0-9.74,9.74A9.74,9.74,0,0,0,110.56,165.29Z"/><path class="cls-4" d="M51.11-16.09A30.19,30.19,0,0,1,20.93,14.1,30.19,30.19,0,0,1-9.26-16.09,30.19,30.19,0,0,1,20.93-46.27,30.18,30.18,0,0,1,51.11-16.09ZM36-16.09a15,15,0,0,0-15-15,15,15,0,0,0-15,15,15,15,0,0,0,15,15A15,15,0,0,0,36-16.09Z"/><path class="cls-4" d="M222.55,155.35a30.19,30.19,0,1,1-30.19-30.19A30.18,30.18,0,0,1,222.55,155.35Zm-15.15,0a15,15,0,1,0-15,15A15,15,0,0,0,207.4,155.35Z"/><path class="cls-4" d="M222.55-16.09A30.19,30.19,0,0,1,192.36,14.1a30.19,30.19,0,0,1-30.18-30.19,30.18,30.18,0,0,1,30.18-30.18A30.18,30.18,0,0,1,222.55-16.09Zm-15.15,0a15,15,0,0,0-15-15,15,15,0,0,0-15,15,15,15,0,0,0,15,15A15,15,0,0,0,207.4-16.09Z"/><path class="cls-4" d="M120.38-6.14a19.56,19.56,0,0,1-19.56,19.55A19.56,19.56,0,0,1,81.27-6.14,19.56,19.56,0,0,1,100.82-25.7,19.56,19.56,0,0,1,120.38-6.14Zm-9.82,0a9.74,9.74,0,0,0-9.74-9.74,9.74,9.74,0,0,0-9.73,9.74,9.73,9.73,0,0,0,9.73,9.73A9.74,9.74,0,0,0,110.56-6.14Z"/><rect class="cls-4" x="151.05" y="4.34" width="15.15" height="26.95"/><path class="cls-4" d="M131.5,66.9a5.75,5.75,0,1,1-5.74-5.74A5.74,5.74,0,0,1,131.5,66.9Zm-2.88,0a2.86,2.86,0,1,0-2.86,2.86A2.86,2.86,0,0,0,128.62,66.9Z"/><path class="cls-4" d="M18.58,24.37a7.46,7.46,0,1,1-7.46-7.45A7.46,7.46,0,0,1,18.58,24.37Zm-3.75,0a3.71,3.71,0,1,0-3.71,3.72A3.71,3.71,0,0,0,14.83,24.37Z"/><path class="cls-4" d="M175.37,90.72a12,12,0,1,1-12-12A12,12,0,0,1,175.37,90.72Zm-6,0a6,6,0,1,0-6,6A6,6,0,0,0,169.33,90.72Z"/><path class="cls-4" d="M63.55,13.71A10.49,10.49,0,1,1,53.07,3.23,10.49,10.49,0,0,1,63.55,13.71Zm-5.26,0a5.22,5.22,0,1,0-5.22,5.23A5.22,5.22,0,0,0,58.29,13.71Z"/><path class="cls-4" d="M147.93,14.69a12,12,0,1,1-12-12A12,12,0,0,1,147.93,14.69Zm-6,0a6,6,0,1,0-6,6A6,6,0,0,0,141.9,14.69Z"/><path class="cls-4" d="M129.79,40.85a22.22,22.22,0,1,1-22.22-22.22A22.22,22.22,0,0,1,129.79,40.85Zm-11.15,0a11.07,11.07,0,1,0-11.07,11.06A11.07,11.07,0,0,0,118.64,40.85Z"/><path class="cls-4" d="M198.9,90.72a35.57,35.57,0,1,1-35.56-35.56A35.57,35.57,0,0,1,198.9,90.72Zm-17.85,0a17.71,17.71,0,1,0-17.71,17.71A17.71,17.71,0,0,0,181.05,90.72Z"/><path class="cls-4" d="M3.94,90.72a12,12,0,0,1-12,12,12,12,0,0,1-12-12,12,12,0,0,1,12-12A12,12,0,0,1,3.94,90.72Zm-6,0a6,6,0,0,0-6-6,6,6,0,0,0-6,6,6,6,0,0,0,6,6A6,6,0,0,0-2.11,90.72Z"/><path class="cls-4" d="M27.46,90.72A35.57,35.57,0,0,1-8.1,126.29,35.57,35.57,0,0,1-43.66,90.72,35.56,35.56,0,0,1-8.1,55.16,35.56,35.56,0,0,1,27.46,90.72Zm-17.85,0A17.71,17.71,0,0,0-8.1,73,17.71,17.71,0,0,0-25.81,90.72,17.71,17.71,0,0,0-8.1,108.43,17.71,17.71,0,0,0,9.61,90.72Z"/><path class="cls-4" d="M55.61,112A13.93,13.93,0,1,1,41.68,98.11,13.93,13.93,0,0,1,55.61,112Zm-7,0A6.94,6.94,0,1,0,41.68,119,6.94,6.94,0,0,0,48.61,112Z"/><path class="cls-4" d="M136.62,127.58a16.86,16.86,0,1,1-16.86-16.86A16.86,16.86,0,0,1,136.62,127.58Zm-8.46,0a8.4,8.4,0,1,0-8.4,8.39A8.4,8.4,0,0,0,128.16,127.58Z"/></g></pattern><clipPath id="clip-path"><rect class="cls-2" width="171.44" height="171.44"/></clipPath><pattern id="Motivo_nuevo_10-3" data-name="Motivo nuevo 10" width="171.44" height="171.44" patternUnits="userSpaceOnUse" viewBox="0 0 171.44 171.44"><rect class="cls-2" width="171.44" height="171.44"/><g class="cls-3"><rect class="cls-4" x="60.37" y="76.75" width="15.15" height="89.7"/><rect class="cls-4" x="81.64" y="112.68" width="15.15" height="27.86"/><rect class="cls-4" x="66.51" y="11.24" width="15.15" height="60.98"/><rect class="cls-4" x="141.52" y="130.12" width="15.15" height="36.82"/><polygon class="cls-4" points="-34.45 50.94 -34.45 35.78 11.39 35.78 11.39 50.94 -34.45 50.94"/><polygon class="cls-4" points="136.99 50.94 136.99 35.78 182.83 35.78 182.83 50.94 136.99 50.94"/><polygon class="cls-4" points="122.57 164.37 122.57 149.22 137.12 149.22 137.12 164.37 122.57 164.37"/><polygon class="cls-4" points="33.11 92.03 33.11 76.87 53.53 76.87 53.53 92.03 33.11 92.03"/><path class="cls-4" d="M51.11,155.35a30.19,30.19,0,1,1-30.18-30.19A30.18,30.18,0,0,1,51.11,155.35Zm-15.15,0a15,15,0,1,0-15,15A15,15,0,0,0,36,155.35Z"/><path class="cls-4" d="M62.29,48.62a23.2,23.2,0,1,1-23.2-23.2A23.2,23.2,0,0,1,62.29,48.62Zm-11.64,0A11.56,11.56,0,1,0,39.09,60.18,11.56,11.56,0,0,0,50.65,48.62Z"/><path class="cls-4" d="M123.77,88.59a19.3,19.3,0,1,1-19.3-19.3A19.3,19.3,0,0,1,123.77,88.59Zm-9.69,0a9.61,9.61,0,1,0-9.61,9.6A9.61,9.61,0,0,0,114.08,88.59Z"/><path class="cls-4" d="M120.38,165.29a19.56,19.56,0,1,1-19.56-19.55A19.55,19.55,0,0,1,120.38,165.29Zm-9.82,0a9.74,9.74,0,1,0-9.74,9.74A9.74,9.74,0,0,0,110.56,165.29Z"/><path class="cls-4" d="M51.11-16.09A30.19,30.19,0,0,1,20.93,14.1,30.19,30.19,0,0,1-9.26-16.09,30.19,30.19,0,0,1,20.93-46.27,30.18,30.18,0,0,1,51.11-16.09ZM36-16.09a15,15,0,0,0-15-15,15,15,0,0,0-15,15,15,15,0,0,0,15,15A15,15,0,0,0,36-16.09Z"/><path class="cls-4" d="M222.55,155.35a30.19,30.19,0,1,1-30.19-30.19A30.18,30.18,0,0,1,222.55,155.35Zm-15.15,0a15,15,0,1,0-15,15A15,15,0,0,0,207.4,155.35Z"/><path class="cls-4" d="M222.55-16.09A30.19,30.19,0,0,1,192.36,14.1a30.19,30.19,0,0,1-30.18-30.19,30.18,30.18,0,0,1,30.18-30.18A30.18,30.18,0,0,1,222.55-16.09Zm-15.15,0a15,15,0,0,0-15-15,15,15,0,0,0-15,15,15,15,0,0,0,15,15A15,15,0,0,0,207.4-16.09Z"/><path class="cls-4" d="M120.38-6.14a19.56,19.56,0,0,1-19.56,19.55A19.56,19.56,0,0,1,81.27-6.14,19.56,19.56,0,0,1,100.82-25.7,19.56,19.56,0,0,1,120.38-6.14Zm-9.82,0a9.74,9.74,0,0,0-9.74-9.74,9.74,9.74,0,0,0-9.73,9.74,9.73,9.73,0,0,0,9.73,9.73A9.74,9.74,0,0,0,110.56-6.14Z"/><rect class="cls-4" x="151.05" y="4.34" width="15.15" height="26.95"/><path class="cls-4" d="M131.5,66.9a5.75,5.75,0,1,1-5.74-5.74A5.74,5.74,0,0,1,131.5,66.9Zm-2.88,0a2.86,2.86,0,1,0-2.86,2.86A2.86,2.86,0,0,0,128.62,66.9Z"/><path class="cls-4" d="M18.58,24.37a7.46,7.46,0,1,1-7.46-7.45A7.46,7.46,0,0,1,18.58,24.37Zm-3.75,0a3.71,3.71,0,1,0-3.71,3.72A3.71,3.71,0,0,0,14.83,24.37Z"/><path class="cls-4" d="M175.37,90.72a12,12,0,1,1-12-12A12,12,0,0,1,175.37,90.72Zm-6,0a6,6,0,1,0-6,6A6,6,0,0,0,169.33,90.72Z"/><path class="cls-4" d="M63.55,13.71A10.49,10.49,0,1,1,53.07,3.23,10.49,10.49,0,0,1,63.55,13.71Zm-5.26,0a5.22,5.22,0,1,0-5.22,5.23A5.22,5.22,0,0,0,58.29,13.71Z"/><path class="cls-4" d="M147.93,14.69a12,12,0,1,1-12-12A12,12,0,0,1,147.93,14.69Zm-6,0a6,6,0,1,0-6,6A6,6,0,0,0,141.9,14.69Z"/><path class="cls-4" d="M129.79,40.85a22.22,22.22,0,1,1-22.22-22.22A22.22,22.22,0,0,1,129.79,40.85Zm-11.15,0a11.07,11.07,0,1,0-11.07,11.06A11.07,11.07,0,0,0,118.64,40.85Z"/><path class="cls-4" d="M198.9,90.72a35.57,35.57,0,1,1-35.56-35.56A35.57,35.57,0,0,1,198.9,90.72Zm-17.85,0a17.71,17.71,0,1,0-17.71,17.71A17.71,17.71,0,0,0,181.05,90.72Z"/><path class="cls-4" d="M3.94,90.72a12,12,0,0,1-12,12,12,12,0,0,1-12-12,12,12,0,0,1,12-12A12,12,0,0,1,3.94,90.72Zm-6,0a6,6,0,0,0-6-6,6,6,0,0,0-6,6,6,6,0,0,0,6,6A6,6,0,0,0-2.11,90.72Z"/><path class="cls-4" d="M27.46,90.72A35.57,35.57,0,0,1-8.1,126.29,35.57,35.57,0,0,1-43.66,90.72,35.56,35.56,0,0,1-8.1,55.16,35.56,35.56,0,0,1,27.46,90.72Zm-17.85,0A17.71,17.71,0,0,0-8.1,73,17.71,17.71,0,0,0-25.81,90.72,17.71,17.71,0,0,0-8.1,108.43,17.71,17.71,0,0,0,9.61,90.72Z"/><path class="cls-4" d="M55.61,112A13.93,13.93,0,1,1,41.68,98.11,13.93,13.93,0,0,1,55.61,112Zm-7,0A6.94,6.94,0,1,0,41.68,119,6.94,6.94,0,0,0,48.61,112Z"/><path class="cls-4" d="M136.62,127.58a16.86,16.86,0,1,1-16.86-16.86A16.86,16.86,0,0,1,136.62,127.58Zm-8.46,0a8.4,8.4,0,1,0-8.4,8.39A8.4,8.4,0,0,0,128.16,127.58Z"/></g></pattern><clipPath id="clip-path-2"><path class="cls-1" d="M581.89,883.33v54.21c0,10.67-9.37,19.39-20.81,19.39H21.24C9.8,956.93.43,948.21.43,937.54V883.33Z"/></clipPath></defs><g id="Capa_2" data-name="Capa 2"><g id="Capa_2-2" data-name="Capa 2"><rect class="cls-5" width="581.99" height="956.93" rx="12"/><circle class="cls-4" cx="292.07" cy="278.22" r="182.14"/><path class="cls-6" d="M143.94,445.88A223.17,223.17,0,0,1,68.35,278.22C68.35,154.66,168.51,54.5,292.07,54.5c110.59,0,202.44,80.24,220.5,185.68,0,0,19.09,78-43.68,169.77"/><circle class="cls-7" cx="292.07" cy="278.22" r="147.92"/><path class="cls-8" d="M253.27,395.81C196.79,391.55,171.74,363,171.74,363l25.87-76.87s44.34,32.28,56.59,92.5"/><path class="cls-8" d="M339.11,398c-1.4-61.78,22.66-91.83,22.66-91.83l56.54,48s-13.8,32.26-64.42,57.66"/><path class="cls-9" d="M301.11,321.71l-18.94,1.62a20,20,0,0,1-20.44-17L259,286.28l27.63-1.76,14.13,24.22Z"/><path class="cls-10" d="M276.57,141.08,234.62,97.8A19.7,19.7,0,0,1,235,70l29.07-28.35"/><path class="cls-10" d="M316.84,41.64,345.91,70a19.69,19.69,0,0,1,.39,27.81l-41.94,43.28"/><path class="cls-10" d="M439.42,279.44a147.07,147.07,0,0,1-18.5,71.65q-2.81,5.06-6,9.85a31.78,31.78,0,0,1-55.49-21.15c0-.51,0-1,0-1.52a69.21,69.21,0,0,0,1.35-7.81,68.26,68.26,0,0,0,.48-8.13,69.62,69.62,0,1,0-138.8,7.78,66.19,66.19,0,0,0,1.48,8.5c0,.39,0,.79,0,1.18a31.78,31.78,0,0,1-55.77,20.84q-2.94-4.44-5.54-9.1a147.75,147.75,0,1,1,276.73-72.09Z"/><path class="cls-11" d="M440.37,277.83a147.07,147.07,0,0,1-18.5,71.65q-2.81,5.06-6,9.85a31.67,31.67,0,0,1-16.46,9.79q1.8-2.88,3.45-5.86A147.78,147.78,0,0,0,196.77,165.41a147.74,147.74,0,0,1,243.6,112.42Z"/><path class="cls-7" d="M276.57,141.08l3.46-40.4a17.54,17.54,0,0,0-.64-6.4l-15.3-52.64-9.45,48.94a23.08,23.08,0,0,0,2.5,15.62Z"/><path class="cls-7" d="M426.6,333a41.31,41.31,0,0,0-40.57.65,13.67,13.67,0,0,0-5.39-15.38l-8.86-17.72-.76-1.88-3-11.05-8.91-15.86L358,272c10.92-54-3.74-78.86-4.37-79.9l0-.08c-14.79-34.72-35.76-48.25-50.06-52.87a34.22,34.22,0,0,0-33,6.93c-12.72,11.11-23.53,26.2-23.53,26.2s-26.37,28-15,69.69c0,0,11.41,42.06,45.9,62,.39.23.51.76.79,1.12,27.45,34,91.07,58.27,91.07,58.27s30.83,11.16,70.75-8.91a.65.65,0,0,0,.38-.58C441,351.59,440.53,340.68,426.6,333Z"/><path class="cls-11" d="M424.11,332.08a41.28,41.28,0,0,0-40.57.66,13.66,13.66,0,0,0-5.38-15.38l-8.86-17.73-.76-1.88-3-11.05-8.91-15.86-1.13.28c10.92-54-3.75-78.87-4.38-79.91l0-.07c-14.78-34.73-35.75-48.25-50.06-52.88-11.41-3.69-23.31-.18-33,6.94a103.56,103.56,0,0,0-24.2,25.88s-27,29.52-14.29,70c0,0,2.63,13.39,15.29,29.23.25.31,3.21-.15,3.46.16,7,8.4,14.43,17.47,27.69,26.72.37.26,5.29,2.43,5.58,2.79,27.45,34,86.72,60,86.72,60s29.84,13.63,69.77-6.44a.7.7,0,0,0,.38-.59C438.48,350.72,438,339.81,424.11,332.08Z"/><path class="cls-7" d="M427.82,332.67a41.28,41.28,0,0,0-40.57.66A13.67,13.67,0,0,0,381.86,318L373,300.22l-.76-1.88-3-11-8.91-15.86-1.13.28c10.92-54-3.74-78.87-4.37-79.91a.25.25,0,0,1,0-.07C340,157,319,143.48,304.7,138.85a34.22,34.22,0,0,0-33,6.94C259,156.89,248.2,172,248.2,172s-26.37,28-15,69.68c0,0,11.41,42.06,45.9,62,.39.22.51.75.79,1.11C307.37,338.8,371,363,371,363s30.83,11.16,70.75-8.91a.66.66,0,0,0,.38-.59C442.19,351.31,441.75,340.4,427.82,332.67Z"/><path class="cls-7" d="M304.36,141.08l-3.46-40.4a17.53,17.53,0,0,1,.63-6.4l15.31-52.64,9.45,48.94a23.08,23.08,0,0,1-2.5,15.62Z"/><path class="cls-10" d="M275.74,145.29l-5.23,5.17a27.39,27.39,0,0,0-3.18,35.18l24.14,34.47a8.15,8.15,0,0,0,13.82-.73l19-34.42A27.53,27.53,0,0,0,320,152.53l-6.61-6.83A26.47,26.47,0,0,0,275.74,145.29Z"/><path class="cls-4" d="M261.73,306.36a20,20,0,0,0,19.82,17c-5.54-18.45-15.69-19.55-20.1-19.06Z"/><path class="cls-12" d="M252.33,281.88l.89,21.38c3.68,20.35,8.2,26.38,28.51,27.09l23-3.38"/><path class="cls-11" d="M320,152.53l-6.61-6.83a26.47,26.47,0,0,0-37.63-.41l-5.23,5.17a27.36,27.36,0,0,0-4.47,5.79c.3-.32.59-.66.91-1l5.22-5.17a26.47,26.47,0,0,1,37.64.42l6.6,6.82a27.5,27.5,0,0,1,4.31,32.43L302.9,222.06a8.18,8.18,0,0,0,2.39-2.68l19-34.42A27.53,27.53,0,0,0,320,152.53Z"/><path class="cls-13" d="M250.92,211.06s10.2-8,21.76-3.13"/><path class="cls-13" d="M323.55,208.23s11.9-5.14,21.83,2.51"/><line class="cls-14" x1="273.77" y1="161.7" x2="291.6" y2="161.7"/><line class="cls-14" x1="268.78" y1="166.45" x2="286.61" y2="166.45"/><line class="cls-14" x1="271.34" y1="171.08" x2="289.16" y2="171.08"/><line class="cls-14" x1="290.64" y1="166.45" x2="296.11" y2="166.45"/><path class="cls-15" d="M359.9,268.38s16.07,10.77,10.38,29.53"/><path class="cls-15" d="M368,290.51s15.63,9.49,9.93,28.25"/><path class="cls-15" d="M377.93,312.27s12.78,3.42,11.7,19.27"/><path class="cls-16" d="M376.3,319.36s5.94-12.35-6.42-23.52"/><path class="cls-16" d="M377.72,314.43s11.7,5.21,10.31,17.84"/><path class="cls-17" d="M247.91,231.51s13.91-11.38,25.13,2.32"/><path class="cls-17" d="M248.4,231.54s14-7.07,24.64,2.29"/><path class="cls-13" d="M247.91,231.11s14.31-16.25,25.13,2.32"/><path class="cls-13" d="M247.91,231.11s14.31-12.39,25.13,2.32"/><path class="cls-17" d="M347,232.16s-13.92-11.38-25.13,2.32"/><path class="cls-17" d="M346.53,232.19s-14-7.07-24.63,2.29"/><path class="cls-13" d="M347,231.76s-14.31-16.25-25.13,2.32"/><path class="cls-13" d="M347,231.76s-14.31-12.39-25.13,2.32"/><polygon class="cls-18" points="388.16 269.83 382.95 262.06 390.05 262.95 397.16 264 395.54 269.83 393.36 277.59 388.16 269.83"/><polygon class="cls-18" points="388.14 309.18 382.93 301.42 390.03 302.31 397.14 303.35 395.52 309.19 393.35 316.95 388.14 309.18"/><polygon class="cls-18" points="385.81 246.84 381.17 239.91 387.49 240.71 393.84 241.63 392.39 246.84 390.45 253.76 385.81 246.84"/><polygon class="cls-18" points="355.88 183.81 351.86 177.81 357.34 178.5 362.84 179.3 361.59 183.81 359.9 189.81 355.88 183.81"/><polygon class="cls-18" points="371.11 218.5 365.9 210.74 373 211.63 380.11 212.67 378.49 218.5 376.31 226.27 371.11 218.5"/><polygon class="cls-18" points="371.89 271.88 369.09 266.15 373.8 267.41 378.52 268.77 376.89 272.57 374.7 277.62 371.89 271.88"/><polygon class="cls-18" points="403 301.42 399.32 293.91 404.49 296.06 409.66 298.33 408.39 302.88 406.67 308.93 403 301.42"/><polygon class="cls-18" points="386.23 289.51 383.43 283.77 388.14 285.03 392.86 286.39 391.23 290.19 389.04 295.24 386.23 289.51"/><polygon class="cls-18" points="402.87 319.36 400.49 314.5 404.49 315.56 408.49 316.72 407.11 319.94 405.25 324.22 402.87 319.36"/><polygon class="cls-18" points="404.4 278.78 401.59 273.05 406.31 274.31 411.03 275.67 409.39 279.46 407.2 284.52 404.4 278.78"/><polygon class="cls-18" points="400.19 255.25 398.13 251.04 401.59 251.96 405.05 252.96 403.85 255.75 402.25 259.45 400.19 255.25"/><polygon class="cls-18" points="370.35 234.43 368.29 230.22 371.75 231.14 375.21 232.14 374.01 234.93 372.4 238.63 370.35 234.43"/><polygon class="cls-18" points="363.27 200.28 361.21 196.07 364.68 196.99 368.14 197.99 366.94 200.77 365.33 204.48 363.27 200.28"/><polygon class="cls-18" points="348.47 171.09 347.03 168.13 349.46 168.78 351.89 169.48 351.05 171.44 349.92 174.04 348.47 171.09"/><polygon class="cls-18" points="368.46 188.87 367.02 185.92 369.45 186.56 371.88 187.27 371.04 189.22 369.91 191.82 368.46 188.87"/><polygon class="cls-18" points="371.09 251.1 368.29 245.37 373.01 246.62 377.72 247.98 376.09 251.78 373.9 256.83 371.09 251.1"/><polygon class="cls-18" points="382.82 231.83 380.99 228.09 384.07 228.91 387.15 229.8 386.08 232.27 384.65 235.57 382.82 231.83"/><polygon class="cls-18" points="385.9 212.45 384.07 208.71 387.15 209.53 390.23 210.42 389.16 212.9 387.73 216.19 385.9 212.45"/><polygon class="cls-18" points="390.95 227.72 388.14 221.99 392.86 223.25 397.58 224.61 395.95 228.41 393.76 233.46 390.95 227.72"/><polygon class="cls-18" points="375.81 201.05 373.01 195.32 377.72 196.57 382.44 197.94 380.81 201.73 378.62 206.78 375.81 201.05"/><polygon class="cls-18" points="176.19 263.5 179.41 254.73 172.73 257.27 166.06 259.98 169.02 265.26 172.98 272.28 176.19 263.5"/><polygon class="cls-18" points="176.13 303.06 179.7 294.42 172.92 296.7 166.15 299.13 168.9 304.53 172.57 311.7 176.13 303.06"/><polygon class="cls-18" points="168.5 333.05 171.44 325.92 165.84 327.8 160.26 329.81 162.53 334.26 165.56 340.18 168.5 333.05"/><polygon class="cls-18" points="177.23 242.21 181.1 234.83 174.89 236.3 168.68 237.91 170.68 242.92 173.35 249.59 177.23 242.21"/><polygon class="cls-18" points="207.89 178.63 211.91 172.63 206.43 173.32 200.93 174.12 202.18 178.63 203.87 184.63 207.89 178.63"/><polygon class="cls-18" points="192.66 213.32 197.87 205.56 190.78 206.45 183.66 207.49 185.28 213.32 187.46 221.09 192.66 213.32"/><polygon class="cls-18" points="191.88 266.71 194.68 260.97 189.97 262.23 185.25 263.59 186.88 267.39 189.07 272.44 191.88 266.71"/><polygon class="cls-18" points="160.77 296.24 164.45 288.73 159.28 290.88 154.11 293.15 155.38 297.7 157.1 303.75 160.77 296.24"/><polygon class="cls-18" points="177.54 284.33 180.34 278.6 175.63 279.85 170.91 281.21 172.54 285.01 174.73 290.06 177.54 284.33"/><polygon class="cls-18" points="160.9 314.18 163.28 309.32 159.28 310.38 155.28 311.54 156.66 314.76 158.52 319.04 160.9 314.18"/><polygon class="cls-18" points="159.37 273.61 162.18 267.87 157.46 269.13 152.74 270.49 154.38 274.29 156.57 279.34 159.37 273.61"/><polygon class="cls-18" points="163.58 250.07 165.64 245.86 162.18 246.78 158.72 247.78 159.92 250.57 161.52 254.27 163.58 250.07"/><polygon class="cls-18" points="193.42 229.25 195.48 225.04 192.02 225.97 188.56 226.96 189.76 229.75 191.37 233.45 193.42 229.25"/><polygon class="cls-18" points="200.5 195.09 202.56 190.89 199.09 191.81 195.63 192.81 196.83 195.59 198.44 199.3 200.5 195.09"/><polygon class="cls-18" points="215.3 165.91 216.74 162.95 214.31 163.6 211.88 164.3 212.72 166.26 213.85 168.86 215.3 165.91"/><polygon class="cls-18" points="160.26 234.08 161.71 231.13 159.28 231.77 156.85 232.47 157.69 234.43 158.82 237.03 160.26 234.08"/><polygon class="cls-18" points="153.87 259.07 154.65 255.88 152.41 257.03 150.19 258.23 151.43 259.96 153.08 262.26 153.87 259.07"/><polygon class="cls-18" points="168.96 319.36 169.74 316.17 167.51 317.32 165.28 318.52 166.52 320.25 168.17 322.55 168.96 319.36"/><polygon class="cls-18" points="195.31 183.69 196.75 180.74 194.32 181.38 191.89 182.09 192.73 184.04 193.86 186.64 195.31 183.69"/><polygon class="cls-18" points="192.68 245.92 195.48 240.19 190.76 241.44 186.05 242.8 187.68 246.6 189.87 251.65 192.68 245.92"/><polygon class="cls-18" points="180.95 226.65 182.78 222.91 179.7 223.73 176.62 224.62 177.69 227.09 179.12 230.39 180.95 226.65"/><polygon class="cls-18" points="177.87 207.27 179.7 203.53 176.62 204.35 173.54 205.24 174.61 207.72 176.04 211.01 177.87 207.27"/><polygon class="cls-18" points="172.82 222.55 175.63 216.81 170.91 218.07 166.19 219.43 167.82 223.23 170.01 228.28 172.82 222.55"/><polygon class="cls-18" points="187.96 195.87 190.76 190.14 186.05 191.39 181.33 192.76 182.96 196.55 185.15 201.6 187.96 195.87"/><path class="cls-19" d="M426.06,332.4a41.17,41.17,0,0,0-38.17-.62c-.95.47-1.26-.51-1.15-1.56.82-7.57-5.1-11.47-6.36-12.36a1.28,1.28,0,0,1-.43-.52l-7-17.71c-.07-.14-1.36-.49-1.47-.6l-.63-.63a1.29,1.29,0,0,1-.38-.77l-1.49-11.79a1.36,1.36,0,0,0-.15-.47l-8.66-15.75-.74-.09c10.92-54-4.06-77.28-4.69-78.32l0-.07c-13.76-35.38-37.13-48.66-51.43-53.29-11.42-3.69-24.23-.22-33.26,7.67-7.15,6.25-12.79,13.85-17.15,19.22,4.16-4.9,9-10.77,14.76-15.82a33.59,33.59,0,0,1,32.61-7c14.3,4.62,35.24,18.13,50,52.8l.12.22c1.05,1.77,16.21,26.44,5.46,79.56h0s12.51,8.65,10.82,23.33c-.13,1.17,1.23,1,1.55,2.1,0,0,9.9,2.38,7,18.57a2.3,2.3,0,0,0,1.13,2.37c2.82.45,9.13,3.74,6.95,12.9a1.3,1.3,0,0,0,1.89,1.35,41.16,41.16,0,0,1,38.18.62c10.32,5.72,13.23,13.19,14,17.59a1.32,1.32,0,0,0,1.87.94l0,0a2,2,0,0,0,1.12-1.89C440.2,348.86,438.58,339.35,426.06,332.4Z"/><path class="cls-16" d="M358.86,269.65s15.06,14.07,9.12,28.8"/><path class="cls-11" d="M357.33,408a11.56,11.56,0,0,0-9.87-10.56c-17.41-3.11-25.86,12.62-28,19.25-.24.76,1.6,1.47,2.16.85l7.29-7-9.73,17a2.15,2.15,0,0,0,3,2.95l15-7.44-9.29,14.36c-.66,1.68,1.52,3.34,3.15,2.43l2.21-1A47,47,0,0,0,351,425.23C354.69,420.49,357.74,414.54,357.33,408Z"/><path class="cls-10" d="M357.85,406.32c-.3-5.23-4.25-9.28-9.58-10.2C331.32,393.19,323,408.51,320.89,415c-.24.75,1.55,1.42,2.1.82l7.15-6.84-9.58,16.56c-1.13,1.95.83,3.87,2.89,2.85L338.13,421,329,435c-.65,1.63,1.46,3.24,3.06,2.35l2.15-1A46.28,46.28,0,0,0,351.56,423C355.2,418.42,358.2,412.62,357.85,406.32Z"/><path class="cls-11" d="M242.19,388.85c0-5.25,3.68-9.54,9-10.77,16.81-3.92,26.12,10.91,28.62,17.24.29.73-1.46,1.51-2,.94l-7.59-6.43,10.64,16c1.24,1.87-.6,3.92-2.73,3l-15.17-6.44,10,13.46c.76,1.59-1.26,3.32-2.92,2.53l-2.22-.85a46.82,46.82,0,0,1-18.23-12.35C245.59,400.8,242.22,395.18,242.19,388.85Z"/><path class="cls-10" d="M240.38,388.82c-.5-5.3,2.9-9.94,8.17-11.6,16.78-5.28,27.57,9,30.68,15.2.36.72-1.36,1.65-2,1.11l-8.31-5.9L281.17,403c1.44,1.81-.26,4-2.5,3.27l-16-5.33,11.41,12.83c.91,1.55-1,3.46-2.76,2.79l-2.33-.69A48.54,48.54,0,0,1,249.3,404.8C244.9,400.65,241,395.23,240.38,388.82Z"/><text class="cls-20" transform="translate(157.48 471.57) rotate(33.87)">I</text><text class="cls-20" transform="translate(172.21 481.52) rotate(27.48)">n</text><text class="cls-20" transform="matrix(0.95, 0.33, -0.33, 0.95, 205.62, 497.97)">f</text><text class="cls-20" transform="matrix(0.97, 0.23, -0.23, 0.97, 236.57, 507.76)">l</text><text class="cls-20" transform="translate(253.27 511.72) rotate(6.6)">u</text><text class="cls-20" transform="translate(291.03 515.26) rotate(-2.09)">e</text><text class="cls-20" transform="translate(326 513.36) rotate(-10.65)">n</text><text class="cls-20" transform="translate(362.45 505.68) rotate(-19.06)">c</text><text class="cls-20" transform="translate(393.49 494.17) rotate(-26.15)">i</text><text class="cls-20" transform="matrix(0.83, -0.56, 0.56, 0.83, 417.3, 482.2)">a</text><text class="cls-20" transform="translate(447.43 460.95) rotate(-41.41)">s</text><text class="cls-20" transform="matrix(0.67, -0.74, 0.74, 0.67, 467.03, 443.07)"> </text><rect class="cls-4" x="73.17" y="664.47" width="434.57" height="88.22" rx="26.53"/><path d="M195.22,730.23v-47.6h7.55v47.6Z"/><path d="M238.6,730.23v-18a10.06,10.06,0,0,0-2.38-7,8.57,8.57,0,0,0-6.66-2.62,8.68,8.68,0,0,0-6.73,2.93,10.24,10.24,0,0,0-2.66,7.14v17.54h-7V696.64h6.39l.41,4.9a14.6,14.6,0,0,1,11.29-5.38,13.64,13.64,0,0,1,10.37,4.29q4,4.27,4,11.76v18Z"/><path d="M256,683a4.65,4.65,0,0,1,4.35,0,3.91,3.91,0,0,1,2.18,3.81,4,4,0,0,1-2.18,3.84,4.49,4.49,0,0,1-4.35,0,4,4,0,0,1-2.18-3.84A3.91,3.91,0,0,1,256,683Zm-1.36,13.53v33.66h7V696.57Z"/><path d="M299.53,725.88a17.47,17.47,0,0,1-12.72,5.23,18,18,0,0,1-12.64-4.62q-5-4.62-5-13t5-13a17.93,17.93,0,0,1,12.64-4.63,16.63,16.63,0,0,1,12.11,5l-4.49,4.69a11.15,11.15,0,0,0-15.23,0,10.65,10.65,0,0,0-3.06,7.92,10.37,10.37,0,0,0,3.06,8,11.65,11.65,0,0,0,15.57-.27Z"/><path d="M307.15,683a4.65,4.65,0,0,1,4.35,0,3.9,3.9,0,0,1,2.17,3.81,4,4,0,0,1-2.17,3.84,4.49,4.49,0,0,1-4.35,0,4,4,0,0,1-2.18-3.84A3.91,3.91,0,0,1,307.15,683Zm-1.36,13.53v33.66h7V696.57Z"/><path d="M349.23,696.71H356v33.52h-6.66l-.34-5.44a10.49,10.49,0,0,1-4.86,4.69,14.93,14.93,0,0,1-6.7,1.63,16.75,16.75,0,0,1-12.37-4.62q-4.83-4.69-4.83-13.06,0-8.16,4.93-12.81A17.34,17.34,0,0,1,337.61,696a14.33,14.33,0,0,1,6.73,1.63A11.1,11.1,0,0,1,349,702Zm-18.83,8.67a10.69,10.69,0,0,0-3.13,8,10.84,10.84,0,0,0,3.13,8.1,10.66,10.66,0,0,0,7.75,3.06,11.3,11.3,0,0,0,5.34-1.23,8.66,8.66,0,0,0,3.53-3.19,15.24,15.24,0,0,0,1.77-4.32,9.71,9.71,0,0,0,0-4.73,15.18,15.18,0,0,0-1.77-4.35,8.66,8.66,0,0,0-3.53-3.19,11.3,11.3,0,0,0-5.34-1.23A10.71,10.71,0,0,0,330.4,705.38Z"/><path d="M372.08,696.71l.48,4.42q2.93-5.18,9.86-5.17a11.94,11.94,0,0,1,8.29,2.86l-3.19,6.12a9.79,9.79,0,0,0-12.38.34,8.77,8.77,0,0,0-2.58,6.79v18.16h-7V696.71Z"/><path class="cls-21" d="M581.89,883.33v54.21c0,10.67-9.37,19.39-20.81,19.39H21.24C9.8,956.93.43,948.21.43,937.54V883.33Z"/><g class="cls-22"><path class="cls-21" d="M581.89,188v838.18a12,12,0,0,1-12,12H12.43a12,12,0,0,1-12-12V188a12,12,0,0,1,12-12H569.89A12,12,0,0,1,581.89,188Z"/></g></g></g></svg>