<svg xmlns="http://www.w3.org/2000/svg" xmlns:xlink="http://www.w3.org/1999/xlink" viewBox="0 0 335.26 533.58"><defs><style>.cls-1{fill:url(#Motivo_nuevo_2);}.cls-2{fill:none;}.cls-3{clip-path:url(#clip-path);}.cls-4{fill:#f95c4b;}.cls-5{fill:#fff;}.cls-6{fill:url(#Motivo_nuevo_2-3);}.cls-7{clip-path:url(#clip-path-2);}.cls-8{fill:#f96c4b;}.cls-9{fill:#1c1b28;}.cls-10{fill:#fcb910;}.cls-11{fill:#e5a21a;}.cls-12{fill:#00bcbc;}.cls-13{fill:#009995;}.cls-14{fill:#e09e1b;}.cls-15{fill:#f2af19;}.cls-16{opacity:0.71;}</style><pattern id="Motivo_nuevo_2" data-name="Motivo nuevo 2" width="171.44" height="171.44" patternUnits="userSpaceOnUse" viewBox="0 0 171.44 171.44"><rect class="cls-2" width="171.44" height="171.44"/><g class="cls-3"><rect class="cls-4" x="60.37" y="76.75" width="15.15" height="89.7"/><rect class="cls-4" x="81.64" y="112.68" width="15.15" height="27.86"/><rect class="cls-4" x="66.51" y="11.24" width="15.15" height="60.98"/><rect class="cls-4" x="141.52" y="130.12" width="15.15" height="36.82"/><polygon class="cls-4" points="-34.45 50.94 -34.45 35.78 11.39 35.78 11.39 50.94 -34.45 50.94"/><polygon class="cls-4" points="136.99 50.94 136.99 35.78 182.83 35.78 182.83 50.94 136.99 50.94"/><polygon class="cls-4" points="122.57 164.37 122.57 149.22 137.12 149.22 137.12 164.37 122.57 164.37"/><polygon class="cls-4" points="33.11 92.03 33.11 76.87 53.53 76.87 53.53 92.03 33.11 92.03"/><path class="cls-4" d="M51.11,155.35a30.19,30.19,0,1,1-30.18-30.19A30.18,30.18,0,0,1,51.11,155.35Zm-15.15,0a15,15,0,1,0-15,15A15,15,0,0,0,36,155.35Z"/><path class="cls-4" d="M62.29,48.62a23.2,23.2,0,1,1-23.2-23.2A23.2,23.2,0,0,1,62.29,48.62Zm-11.64,0A11.56,11.56,0,1,0,39.09,60.18,11.56,11.56,0,0,0,50.65,48.62Z"/><path class="cls-4" d="M123.77,88.59a19.3,19.3,0,1,1-19.3-19.3A19.3,19.3,0,0,1,123.77,88.59Zm-9.69,0a9.61,9.61,0,1,0-9.61,9.6A9.61,9.61,0,0,0,114.08,88.59Z"/><path class="cls-4" d="M120.38,165.29a19.56,19.56,0,1,1-19.56-19.55A19.55,19.55,0,0,1,120.38,165.29Zm-9.82,0a9.74,9.74,0,1,0-9.74,9.74A9.74,9.74,0,0,0,110.56,165.29Z"/><path class="cls-4" d="M51.11-16.09A30.19,30.19,0,0,1,20.93,14.1,30.19,30.19,0,0,1-9.26-16.09,30.19,30.19,0,0,1,20.93-46.27,30.18,30.18,0,0,1,51.11-16.09ZM36-16.09a15,15,0,0,0-15-15,15,15,0,0,0-15,15,15,15,0,0,0,15,15A15,15,0,0,0,36-16.09Z"/><path class="cls-4" d="M222.55,155.35a30.19,30.19,0,1,1-30.19-30.19A30.18,30.18,0,0,1,222.55,155.35Zm-15.15,0a15,15,0,1,0-15,15A15,15,0,0,0,207.4,155.35Z"/><path class="cls-4" d="M222.55-16.09A30.19,30.19,0,0,1,192.36,14.1a30.19,30.19,0,0,1-30.18-30.19,30.18,30.18,0,0,1,30.18-30.18A30.18,30.18,0,0,1,222.55-16.09Zm-15.15,0a15,15,0,0,0-15-15,15,15,0,0,0-15,15,15,15,0,0,0,15,15A15,15,0,0,0,207.4-16.09Z"/><path class="cls-4" d="M120.38-6.14a19.56,19.56,0,0,1-19.56,19.55A19.56,19.56,0,0,1,81.27-6.14,19.56,19.56,0,0,1,100.82-25.7,19.56,19.56,0,0,1,120.38-6.14Zm-9.82,0a9.74,9.74,0,0,0-9.74-9.74,9.74,9.74,0,0,0-9.73,9.74,9.73,9.73,0,0,0,9.73,9.73A9.74,9.74,0,0,0,110.56-6.14Z"/><rect class="cls-4" x="151.05" y="4.34" width="15.15" height="26.95"/><path class="cls-4" d="M131.5,66.9a5.75,5.75,0,1,1-5.74-5.74A5.74,5.74,0,0,1,131.5,66.9Zm-2.88,0a2.86,2.86,0,1,0-2.86,2.86A2.86,2.86,0,0,0,128.62,66.9Z"/><path class="cls-4" d="M18.58,24.37a7.46,7.46,0,1,1-7.46-7.45A7.46,7.46,0,0,1,18.58,24.37Zm-3.75,0a3.71,3.71,0,1,0-3.71,3.72A3.71,3.71,0,0,0,14.83,24.37Z"/><path class="cls-4" d="M175.37,90.72a12,12,0,1,1-12-12A12,12,0,0,1,175.37,90.72Zm-6,0a6,6,0,1,0-6,6A6,6,0,0,0,169.33,90.72Z"/><path class="cls-4" d="M63.55,13.71A10.49,10.49,0,1,1,53.07,3.23,10.49,10.49,0,0,1,63.55,13.71Zm-5.26,0a5.22,5.22,0,1,0-5.22,5.23A5.22,5.22,0,0,0,58.29,13.71Z"/><path class="cls-4" d="M147.93,14.69a12,12,0,1,1-12-12A12,12,0,0,1,147.93,14.69Zm-6,0a6,6,0,1,0-6,6A6,6,0,0,0,141.9,14.69Z"/><path class="cls-4" d="M129.79,40.85a22.22,22.22,0,1,1-22.22-22.22A22.21,22.21,0,0,1,129.79,40.85Zm-11.15,0a11.07,11.07,0,1,0-11.07,11.06A11.07,11.07,0,0,0,118.64,40.85Z"/><path class="cls-4" d="M198.9,90.72a35.57,35.57,0,1,1-35.56-35.56A35.57,35.57,0,0,1,198.9,90.72Zm-17.85,0a17.71,17.71,0,1,0-17.71,17.71A17.71,17.71,0,0,0,181.05,90.72Z"/><path class="cls-4" d="M3.94,90.72a12,12,0,0,1-12,12,12,12,0,0,1-12-12,12,12,0,0,1,12-12A12,12,0,0,1,3.94,90.72Zm-6,0a6,6,0,0,0-6-6,6,6,0,0,0-6,6,6,6,0,0,0,6,6A6,6,0,0,0-2.11,90.72Z"/><path class="cls-4" d="M27.46,90.72A35.57,35.57,0,0,1-8.1,126.29,35.57,35.57,0,0,1-43.66,90.72,35.56,35.56,0,0,1-8.1,55.16,35.56,35.56,0,0,1,27.46,90.72Zm-17.85,0A17.71,17.71,0,0,0-8.1,73,17.71,17.71,0,0,0-25.81,90.72,17.71,17.71,0,0,0-8.1,108.43,17.71,17.71,0,0,0,9.61,90.72Z"/><path class="cls-4" d="M55.61,112A13.93,13.93,0,1,1,41.68,98.11,13.93,13.93,0,0,1,55.61,112Zm-7,0A6.94,6.94,0,1,0,41.68,119,6.94,6.94,0,0,0,48.61,112Z"/><path class="cls-4" d="M136.62,127.58a16.86,16.86,0,1,1-16.86-16.86A16.86,16.86,0,0,1,136.62,127.58Zm-8.46,0a8.4,8.4,0,1,0-8.4,8.39A8.4,8.4,0,0,0,128.16,127.58Z"/></g></pattern><clipPath id="clip-path"><rect class="cls-2" width="171.44" height="171.44"/></clipPath><pattern id="Motivo_nuevo_2-3" data-name="Motivo nuevo 2" width="171.44" height="171.44" patternUnits="userSpaceOnUse" viewBox="0 0 171.44 171.44"><rect class="cls-2" width="171.44" height="171.44"/><g class="cls-3"><rect class="cls-4" x="60.37" y="76.75" width="15.15" height="89.7"/><rect class="cls-4" x="81.64" y="112.68" width="15.15" height="27.86"/><rect class="cls-4" x="66.51" y="11.24" width="15.15" height="60.98"/><rect class="cls-4" x="141.52" y="130.12" width="15.15" height="36.82"/><polygon class="cls-4" points="-34.45 50.94 -34.45 35.78 11.39 35.78 11.39 50.94 -34.45 50.94"/><polygon class="cls-4" points="136.99 50.94 136.99 35.78 182.83 35.78 182.83 50.94 136.99 50.94"/><polygon class="cls-4" points="122.57 164.37 122.57 149.22 137.12 149.22 137.12 164.37 122.57 164.37"/><polygon class="cls-4" points="33.11 92.03 33.11 76.87 53.53 76.87 53.53 92.03 33.11 92.03"/><path class="cls-4" d="M51.11,155.35a30.19,30.19,0,1,1-30.18-30.19A30.18,30.18,0,0,1,51.11,155.35Zm-15.15,0a15,15,0,1,0-15,15A15,15,0,0,0,36,155.35Z"/><path class="cls-4" d="M62.29,48.62a23.2,23.2,0,1,1-23.2-23.2A23.2,23.2,0,0,1,62.29,48.62Zm-11.64,0A11.56,11.56,0,1,0,39.09,60.18,11.56,11.56,0,0,0,50.65,48.62Z"/><path class="cls-4" d="M123.77,88.59a19.3,19.3,0,1,1-19.3-19.3A19.3,19.3,0,0,1,123.77,88.59Zm-9.69,0a9.61,9.61,0,1,0-9.61,9.6A9.61,9.61,0,0,0,114.08,88.59Z"/><path class="cls-4" d="M120.38,165.29a19.56,19.56,0,1,1-19.56-19.55A19.55,19.55,0,0,1,120.38,165.29Zm-9.82,0a9.74,9.74,0,1,0-9.74,9.74A9.74,9.74,0,0,0,110.56,165.29Z"/><path class="cls-4" d="M51.11-16.09A30.19,30.19,0,0,1,20.93,14.1,30.19,30.19,0,0,1-9.26-16.09,30.19,30.19,0,0,1,20.93-46.27,30.18,30.18,0,0,1,51.11-16.09ZM36-16.09a15,15,0,0,0-15-15,15,15,0,0,0-15,15,15,15,0,0,0,15,15A15,15,0,0,0,36-16.09Z"/><path class="cls-4" d="M222.55,155.35a30.19,30.19,0,1,1-30.19-30.19A30.18,30.18,0,0,1,222.55,155.35Zm-15.15,0a15,15,0,1,0-15,15A15,15,0,0,0,207.4,155.35Z"/><path class="cls-4" d="M222.55-16.09A30.19,30.19,0,0,1,192.36,14.1a30.19,30.19,0,0,1-30.18-30.19,30.18,30.18,0,0,1,30.18-30.18A30.18,30.18,0,0,1,222.55-16.09Zm-15.15,0a15,15,0,0,0-15-15,15,15,0,0,0-15,15,15,15,0,0,0,15,15A15,15,0,0,0,207.4-16.09Z"/><path class="cls-4" d="M120.38-6.14a19.56,19.56,0,0,1-19.56,19.55A19.56,19.56,0,0,1,81.27-6.14,19.56,19.56,0,0,1,100.82-25.7,19.56,19.56,0,0,1,120.38-6.14Zm-9.82,0a9.74,9.74,0,0,0-9.74-9.74,9.74,9.74,0,0,0-9.73,9.74,9.73,9.73,0,0,0,9.73,9.73A9.74,9.74,0,0,0,110.56-6.14Z"/><rect class="cls-4" x="151.05" y="4.34" width="15.15" height="26.95"/><path class="cls-4" d="M131.5,66.9a5.75,5.75,0,1,1-5.74-5.74A5.74,5.74,0,0,1,131.5,66.9Zm-2.88,0a2.86,2.86,0,1,0-2.86,2.86A2.86,2.86,0,0,0,128.62,66.9Z"/><path class="cls-4" d="M18.58,24.37a7.46,7.46,0,1,1-7.46-7.45A7.46,7.46,0,0,1,18.58,24.37Zm-3.75,0a3.71,3.71,0,1,0-3.71,3.72A3.71,3.71,0,0,0,14.83,24.37Z"/><path class="cls-4" d="M175.37,90.72a12,12,0,1,1-12-12A12,12,0,0,1,175.37,90.72Zm-6,0a6,6,0,1,0-6,6A6,6,0,0,0,169.33,90.72Z"/><path class="cls-4" d="M63.55,13.71A10.49,10.49,0,1,1,53.07,3.23,10.49,10.49,0,0,1,63.55,13.71Zm-5.26,0a5.22,5.22,0,1,0-5.22,5.23A5.22,5.22,0,0,0,58.29,13.71Z"/><path class="cls-4" d="M147.93,14.69a12,12,0,1,1-12-12A12,12,0,0,1,147.93,14.69Zm-6,0a6,6,0,1,0-6,6A6,6,0,0,0,141.9,14.69Z"/><path class="cls-4" d="M129.79,40.85a22.22,22.22,0,1,1-22.22-22.22A22.21,22.21,0,0,1,129.79,40.85Zm-11.15,0a11.07,11.07,0,1,0-11.07,11.06A11.07,11.07,0,0,0,118.64,40.85Z"/><path class="cls-4" d="M198.9,90.72a35.57,35.57,0,1,1-35.56-35.56A35.57,35.57,0,0,1,198.9,90.72Zm-17.85,0a17.71,17.71,0,1,0-17.71,17.71A17.71,17.71,0,0,0,181.05,90.72Z"/><path class="cls-4" d="M3.94,90.72a12,12,0,0,1-12,12,12,12,0,0,1-12-12,12,12,0,0,1,12-12A12,12,0,0,1,3.94,90.72Zm-6,0a6,6,0,0,0-6-6,6,6,0,0,0-6,6,6,6,0,0,0,6,6A6,6,0,0,0-2.11,90.72Z"/><path class="cls-4" d="M27.46,90.72A35.57,35.57,0,0,1-8.1,126.29,35.57,35.57,0,0,1-43.66,90.72,35.56,35.56,0,0,1-8.1,55.16,35.56,35.56,0,0,1,27.46,90.72Zm-17.85,0A17.71,17.71,0,0,0-8.1,73,17.71,17.71,0,0,0-25.81,90.72,17.71,17.71,0,0,0-8.1,108.43,17.71,17.71,0,0,0,9.61,90.72Z"/><path class="cls-4" d="M55.61,112A13.93,13.93,0,1,1,41.68,98.11,13.93,13.93,0,0,1,55.61,112Zm-7,0A6.94,6.94,0,1,0,41.68,119,6.94,6.94,0,0,0,48.61,112Z"/><path class="cls-4" d="M136.62,127.58a16.86,16.86,0,1,1-16.86-16.86A16.86,16.86,0,0,1,136.62,127.58Zm-8.46,0a8.4,8.4,0,1,0-8.4,8.39A8.4,8.4,0,0,0,128.16,127.58Z"/></g></pattern><clipPath id="clip-path-2"><path class="cls-1" d="M335.26,12V451.9a12,12,0,0,1-12,12H12a12,12,0,0,1-12-12V12A12,12,0,0,1,12,0H323.26A12,12,0,0,1,335.26,12Z"/></clipPath></defs><g id="Capa_2" data-name="Capa 2"><g id="Capa_2-2" data-name="Capa 2"><rect class="cls-5" x="-99.16" y="99.16" width="533.58" height="335.26" rx="12" transform="translate(434.42 99.16) rotate(90)"/><path class="cls-6" d="M335.26,12V451.9a12,12,0,0,1-12,12H12a12,12,0,0,1-12-12V12A12,12,0,0,1,12,0H323.26A12,12,0,0,1,335.26,12Z"/><g class="cls-7"><path class="cls-6" d="M335.26,12V500.14a12,12,0,0,1-12,12H12a12,12,0,0,1-12-12V12A12,12,0,0,1,12,0H323.26A12,12,0,0,1,335.26,12Z"/></g><circle class="cls-5" cx="165.68" cy="240.75" r="133.12"/><circle class="cls-8" cx="165.68" cy="242.07" r="87.29"/><path class="cls-9" d="M201.5,335.05l-5,2.05a33.33,33.33,0,0,0-1.53-4.21c3.4-1.28,11.73-4.74,14.56-6a40.59,40.59,0,0,0,1.47,4.24c-1.15.44-3,1.22-4.9,2l3.73,9.07c.44,1.07,1.66,3.81,2,4.51-1.92.79-3.9,1.72-4.71,2.12-.23-.65-.89-2.38-1.28-3.32Z"/><path class="cls-9" d="M222.53,331.17l-.33-.54c-.6-1-1.19-1.83-2.4-1.08a1.42,1.42,0,0,0-.12,2.3,23.86,23.86,0,0,0-3.37,2.66,7.8,7.8,0,0,1-.5-.72c-2.43-3.92.67-6.17,2.46-7.28,2.16-1.33,5.61-2.31,7.91,1.41l2.3,3.71c.73,1.19,1.32,1.56,2.06,1.1l.19-.11a7,7,0,0,0,1.14,1.64,3.53,3.53,0,0,1-1.73,2.64,2.9,2.9,0,0,1-3.72,0,5,5,0,0,1-2.35,3.74c-2,1.26-4.07.95-5.35-1.12C217.84,338.12,217.52,335.11,222.53,331.17Zm1.21,1.95c-.91.76-2.25,2.17-1.62,3.19.47.77,1.23.69,1.93.25a3.66,3.66,0,0,0,1.13-1.12Z"/><path class="cls-9" d="M230.49,322.64l-2.09,1a6,6,0,0,0-.61-.8,9.63,9.63,0,0,0-.88-.94l1.29-1.94-1.7-2.78a16.54,16.54,0,0,0,2.46-3l.54-.46,2.28,3,2.82-2.41a18.26,18.26,0,0,0,1.26,1.76,12.12,12.12,0,0,0,1,1.07l-2.63,2.25,2.91,3.41c1.28,1.49,2.4,1.75,3.4.9a4.29,4.29,0,0,0,.95-1.24,9.23,9.23,0,0,0,2.57,1.78,7.4,7.4,0,0,1-2.18,3.46c-2.14,1.83-5.3,2-7.85-.94Z"/><path class="cls-9" d="M237.72,301.46l2.69-3.21.23.2,1.08,5.21-1.46,1.74Zm4.91,13.12c-1.24-1-3.77-2.87-4.49-3.37a44.13,44.13,0,0,0,2.67-3.61l.47-.56,7,5.89a1.62,1.62,0,0,0,2.43-.14,4.75,4.75,0,0,0,.89-2.46l-3.1-2.6c-1.22-1-3.83-3-4.58-3.47.65-.78,1.31-1.65,2.65-3.59l.48-.57,8.14,6.83a17.62,17.62,0,0,0,3.57,2.41c-1,1.24-2,2.47-3.15,4-.62-.42-1.14-.78-2.09-1.47a6.58,6.58,0,0,1-1.08,5.26,4.25,4.25,0,0,1-6.22.49C244.66,316.32,243.51,315.31,242.63,314.58Z"/><path class="cls-8" d="M165.68,350.49a108.38,108.38,0,1,1,90.52-48.72l-2-1.32a105.77,105.77,0,1,0-54.76,42.16l.76,2.27A108.36,108.36,0,0,1,165.68,350.49Z"/><circle class="cls-10" cx="165.68" cy="242.07" r="70.89"/><path class="cls-11" d="M147.28,298.28c-27.07-2-39.08-15.72-39.08-15.72l12.4-36.84a77.83,77.83,0,0,1,27.12,44.33"/><path class="cls-11" d="M188.42,299.35c-.68-29.6,10.86-44,10.86-44l27.09,23S219.76,293.79,195.5,306"/><path class="cls-9" d="M170.2,262.77l-9.07.78a9.61,9.61,0,0,1-9.8-8.14L150,245.79l13.24-.85,6.77,11.61Z"/><path class="cls-12" d="M158.44,176.2l-20.1-20.74a9.44,9.44,0,0,1,.19-13.33l13.93-13.59"/><path class="cls-12" d="M177.74,128.54l13.93,13.59a9.44,9.44,0,0,1,.19,13.33l-20.1,20.74"/><path class="cls-12" d="M236.49,242.51a70.49,70.49,0,0,1-8.86,34.34q-1.35,2.43-2.88,4.72a15.23,15.23,0,0,1-26.59-10.13c0-.25,0-.49,0-.73a34.23,34.23,0,0,0,.88-7.64,33.37,33.37,0,1,0-66.73,0,32.91,32.91,0,0,0,.21,3.73,32.35,32.35,0,0,0,.71,4.07c0,.19,0,.38,0,.57a15.23,15.23,0,0,1-26.73,10c-.94-1.41-1.82-2.87-2.65-4.36a70.81,70.81,0,1,1,132.62-34.55Z"/><path class="cls-13" d="M237,241.74a70.5,70.5,0,0,1-8.87,34.34c-.9,1.62-1.85,3.19-2.88,4.72a15.11,15.11,0,0,1-7.88,4.69c.57-.92,1.12-1.85,1.65-2.8a70.83,70.83,0,0,0-98.77-94.83A70.81,70.81,0,0,1,237,241.74Z"/><path class="cls-10" d="M158.44,176.2l1.66-19.36a8.61,8.61,0,0,0-.3-3.07l-7.34-25.23L147.93,152a11.06,11.06,0,0,0,1.2,7.48Z"/><path class="cls-10" d="M230.34,268.16a19.8,19.8,0,0,0-19.44.31,6.55,6.55,0,0,0-2.58-7.37l-4.25-8.49-.36-.9-1.45-5.3-4.27-7.6-.54.13c5.23-25.87-1.8-37.8-2.1-38.29l0,0c-7.09-16.64-17.14-23.12-24-25.34a16.4,16.4,0,0,0-15.8,3.32,85.06,85.06,0,0,0-11.28,12.56,36.56,36.56,0,0,0-7.17,33.4s5.46,20.15,22,29.7c.19.11.25.36.38.53,13.16,16.32,43.65,27.93,43.65,27.93s14.77,5.35,33.91-4.27a.31.31,0,0,0,.18-.28C237.23,277.09,237,271.86,230.34,268.16Z"/><path class="cls-13" d="M229.15,267.74a19.78,19.78,0,0,0-19.44.32,6.56,6.56,0,0,0-2.58-7.38l-4.25-8.49-.36-.9-1.45-5.3-4.27-7.6-.55.13c5.24-25.87-1.79-37.79-2.09-38.29l0,0c-7.09-16.64-17.14-23.12-24-25.34-5.47-1.77-11.18-.09-15.81,3.33a49.58,49.58,0,0,0-11.59,12.4s-12.94,14.15-6.85,33.55c0,0,1.26,6.42,7.33,14,.12.14,1.53-.07,1.66.07A62.3,62.3,0,0,0,158.15,251c.18.12,2.54,1.16,2.68,1.33,13.15,16.32,41.56,28.76,41.56,28.76s14.3,6.53,33.44-3.08a.33.33,0,0,0,.18-.29C236,276.67,235.83,271.44,229.15,267.74Z"/><path class="cls-10" d="M230.93,268a19.8,19.8,0,0,0-19.44.32,6.56,6.56,0,0,0-2.58-7.37l-4.25-8.5-.37-.9-1.45-5.29-4.27-7.61-.54.14c5.23-25.88-1.79-37.8-2.1-38.3l0,0c-7.08-16.64-17.13-23.12-24-25.34a16.4,16.4,0,0,0-15.8,3.33A85,85,0,0,0,144.85,191a36.54,36.54,0,0,0-7.18,33.4s5.47,20.16,22,29.7c.19.11.24.37.38.54C173.2,271,203.7,282.58,203.7,282.58s14.77,5.35,33.9-4.27a.35.35,0,0,0,.19-.28C237.82,277,237.61,271.73,230.93,268Z"/><path class="cls-10" d="M171.76,176.2l-1.66-19.36a8.4,8.4,0,0,1,.31-3.07l7.33-25.23L182.27,152a11,11,0,0,1-1.2,7.48Z"/><path class="cls-12" d="M158,178.22l-2.5,2.48A13.12,13.12,0,0,0,154,197.56l11.56,16.52a3.91,3.91,0,0,0,6.62-.35l9.11-16.5a13.18,13.18,0,0,0-2.07-15.54l-3.16-3.27A12.68,12.68,0,0,0,158,178.22Z"/><path class="cls-4" d="M151.33,255.41a9.58,9.58,0,0,0,9.5,8.13c-2.66-8.84-7.52-9.37-9.64-9.13Z"/><path class="cls-9" d="M160.92,267.63h0c-10.24-.36-12.56-3.7-14.35-13.57,0,0,0-.07,0-.1l-.42-10.25a.72.72,0,0,1,.68-.75.71.71,0,0,1,.75.69l.43,10.2c1.67,9.25,3.59,12,12.91,12.34l11-1.61a.72.72,0,0,1,.82.6.73.73,0,0,1-.61.82l-11,1.62Z"/><path class="cls-13" d="M179.24,181.69l-3.16-3.27a12.68,12.68,0,0,0-18-.2l-2.5,2.48a13.48,13.48,0,0,0-2.15,2.77c.15-.15.29-.32.44-.47l2.5-2.48a12.7,12.7,0,0,1,18,.2l3.17,3.27a13.21,13.21,0,0,1,2.06,15.55L171.06,215a3.83,3.83,0,0,0,1.14-1.28l9.11-16.5A13.18,13.18,0,0,0,179.24,181.69Z"/><path class="cls-9" d="M146.15,210.46a.72.72,0,0,1-.56-.28.7.7,0,0,1,.12-1c.21-.17,5.28-4.07,11.14-1.6a.72.72,0,0,1,.39.94.71.71,0,0,1-.94.38c-5.07-2.13-9.66,1.37-9.71,1.41A.71.71,0,0,1,146.15,210.46Z"/><path class="cls-9" d="M191.42,210.31a.73.73,0,0,1-.44-.15c-4.35-3.36-9.68-1.14-9.74-1.12a.71.71,0,0,1-.94-.37.72.72,0,0,1,.37-.95c.25-.1,6.15-2.59,11.19,1.3a.72.72,0,0,1-.44,1.29Z"/><path class="cls-5" d="M165.64,186.32H157.1a.24.24,0,0,1-.24-.24.24.24,0,0,1,.24-.24h8.54a.24.24,0,0,1,.24.24A.23.23,0,0,1,165.64,186.32Z"/><path class="cls-5" d="M163.25,188.6h-8.54a.24.24,0,0,1,0-.48h8.54a.24.24,0,1,1,0,.48Z"/><path class="cls-5" d="M164.48,190.82h-8.55a.24.24,0,0,1,0-.48h8.55a.24.24,0,1,1,0,.48Z"/><path class="cls-5" d="M167.81,188.6h-2.62a.24.24,0,0,1,0-.48h2.62a.24.24,0,1,1,0,.48Z"/><path class="cls-13" d="M203.35,252.08l-.2,0a.71.71,0,0,1-.48-.89c2.53-8.36-4.39-13.15-4.69-13.35a.72.72,0,0,1-.2-1,.71.71,0,0,1,1-.19c.08,0,8.11,5.56,5.26,14.95A.72.72,0,0,1,203.35,252.08Z"/><path class="cls-13" d="M207,262.08l-.21,0a.73.73,0,0,1-.48-.9,11,11,0,0,0-4.44-12.72.72.72,0,0,1-.24-1,.74.74,0,0,1,1-.24c.08.05,7.93,5,5.07,14.37A.72.72,0,0,1,207,262.08Z"/><path class="cls-13" d="M212.63,268.2h0a.73.73,0,0,1-.67-.77c.47-6.92-5-8.48-5.07-8.49a.71.71,0,0,1-.51-.88.72.72,0,0,1,.88-.51c.06,0,6.68,1.89,6.14,10A.73.73,0,0,1,212.63,268.2Z"/><path class="cls-14" d="M206.24,262.36a.67.67,0,0,1-.31-.07.72.72,0,0,1-.34-1c.11-.22,2.52-5.52-2.91-10.43a.72.72,0,1,1,1-1.06c6.24,5.64,3.27,12,3.24,12.12A.73.73,0,0,1,206.24,262.36Z"/><path class="cls-14" d="M211.86,268.55h-.08a.72.72,0,0,1-.63-.8c.6-5.47-4.47-7.79-4.52-7.81a.72.72,0,1,1,.58-1.32c.06,0,6.08,2.79,5.36,9.29A.71.71,0,0,1,211.86,268.55Z"/><path class="cls-15" d="M156.75,221.61a1,1,0,0,1-.74-.35c-2-2.42-4.36-3.32-7.08-2.69a10.08,10.08,0,0,0-3.62,1.71.94.94,0,0,1-1.34-.13,1,1,0,0,1,.13-1.35,11.94,11.94,0,0,1,4.4-2.1c2.39-.56,5.9-.43,9,3.35a.94.94,0,0,1-.13,1.34A1,1,0,0,1,156.75,221.61Z"/><path class="cls-15" d="M156.75,221.61a.94.94,0,0,1-.63-.24c-4.55-4-10.49-1.08-10.75-1a1,1,0,0,1-.86-1.71c.3-.15,7.34-3.63,12.87,1.23a1,1,0,0,1,.09,1.36A1,1,0,0,1,156.75,221.61Z"/><path class="cls-9" d="M156.75,221.18a.71.71,0,0,1-.62-.36c-1.4-2.4-3-3.71-4.85-3.88-3.17-.31-6,2.85-6,2.88a.72.72,0,1,1-1.08-.95c.13-.15,3.35-3.74,7.25-3.37,2.3.23,4.3,1.77,6,4.6a.72.72,0,0,1-.26,1A.68.68,0,0,1,156.75,221.18Z"/><path class="cls-9" d="M156.75,221.18a.72.72,0,0,1-.58-.29,6.92,6.92,0,0,0-4.79-3.12c-3.26-.37-6.17,2.1-6.2,2.12a.73.73,0,0,1-1-.07.71.71,0,0,1,.08-1c.13-.12,3.4-2.91,7.29-2.47a8.33,8.33,0,0,1,5.8,3.69.73.73,0,0,1-.16,1A.71.71,0,0,1,156.75,221.18Z"/><path class="cls-15" d="M180.17,221.92a1,1,0,0,1-.61-.21,1,1,0,0,1-.13-1.35c3.08-3.78,6.59-3.9,9-3.35a11.94,11.94,0,0,1,4.4,2.1,1,1,0,0,1-1.22,1.49h0c-.24-.2-6-4.76-10.69,1A1,1,0,0,1,180.17,221.92Z"/><path class="cls-15" d="M180.17,221.92a1,1,0,0,1-.63-1.68c5.53-4.86,12.57-1.38,12.87-1.23a1,1,0,1,1-.87,1.71h0c-.25-.12-6.19-3-10.74,1A1,1,0,0,1,180.17,221.92Z"/><path class="cls-9" d="M180.17,221.49a.65.65,0,0,1-.36-.1.71.71,0,0,1-.26-1c1.64-2.82,3.65-4.37,5.95-4.59,3.9-.38,7.11,3.21,7.25,3.37a.71.71,0,0,1-.07,1,.72.72,0,0,1-1-.06s-2.88-3.2-6-2.89c-1.81.18-3.44,1.48-4.84,3.88A.71.71,0,0,1,180.17,221.49Z"/><path class="cls-9" d="M180.17,221.49a.69.69,0,0,1-.43-.14.71.71,0,0,1-.15-1,8.31,8.31,0,0,1,5.8-3.7c3.89-.43,7.15,2.35,7.29,2.47a.71.71,0,0,1,.07,1,.72.72,0,0,1-1,.08s-3-2.5-6.2-2.13a6.92,6.92,0,0,0-4.79,3.12A.72.72,0,0,1,180.17,221.49Z"/><g class="cls-16"><polygon class="cls-13" points="211.92 237.91 209.43 234.19 212.83 234.61 216.24 235.11 215.46 237.91 214.42 241.63 211.92 237.91"/></g><g class="cls-16"><polygon class="cls-13" points="211.91 256.77 209.42 253.05 212.82 253.47 216.23 253.97 215.45 256.77 214.41 260.49 211.91 256.77"/></g><g class="cls-16"><polygon class="cls-13" points="210.79 226.89 208.57 223.57 211.6 223.95 214.64 224.39 213.95 226.89 213.02 230.2 210.79 226.89"/></g><g class="cls-16"><polygon class="cls-13" points="196.45 196.68 194.52 193.8 197.15 194.13 199.79 194.52 199.19 196.68 198.38 199.56 196.45 196.68"/></g><g class="cls-16"><polygon class="cls-13" points="203.75 213.31 201.25 209.59 204.66 210.01 208.06 210.51 207.29 213.31 206.25 217.03 203.75 213.31"/></g><g class="cls-16"><polygon class="cls-13" points="204.13 238.89 202.78 236.14 205.04 236.75 207.3 237.4 206.52 239.22 205.47 241.64 204.13 238.89"/></g><g class="cls-16"><polygon class="cls-13" points="219.03 253.05 217.27 249.45 219.75 250.47 222.23 251.56 221.62 253.75 220.8 256.64 219.03 253.05"/></g><g class="cls-16"><polygon class="cls-13" points="211 247.34 209.65 244.59 211.91 245.19 214.18 245.84 213.39 247.66 212.34 250.08 211 247.34"/></g><g class="cls-16"><polygon class="cls-13" points="218.97 261.64 217.83 259.31 219.75 259.82 221.67 260.38 221 261.92 220.11 263.98 218.97 261.64"/></g><g class="cls-16"><polygon class="cls-13" points="219.71 242.2 218.36 239.45 220.62 240.05 222.88 240.71 222.1 242.52 221.05 244.94 219.71 242.2"/></g><g class="cls-16"><polygon class="cls-13" points="217.69 230.92 216.7 228.9 218.36 229.34 220.02 229.82 219.44 231.16 218.67 232.93 217.69 230.92"/></g><g class="cls-16"><polygon class="cls-13" points="203.39 220.94 202.4 218.92 204.06 219.37 205.72 219.84 205.14 221.18 204.37 222.96 203.39 220.94"/></g><g class="cls-16"><polygon class="cls-13" points="200 204.57 199.01 202.56 200.67 203 202.33 203.48 201.75 204.81 200.98 206.59 200 204.57"/></g><g class="cls-16"><polygon class="cls-13" points="192.9 190.58 192.21 189.17 193.37 189.48 194.54 189.81 194.14 190.75 193.59 192 192.9 190.58"/></g><g class="cls-16"><polygon class="cls-13" points="202.48 199.1 201.79 197.69 202.96 198 204.12 198.34 203.72 199.27 203.18 200.52 202.48 199.1"/></g><g class="cls-16"><polygon class="cls-13" points="203.74 228.93 202.4 226.18 204.66 226.78 206.92 227.44 206.14 229.25 205.09 231.68 203.74 228.93"/></g><g class="cls-16"><polygon class="cls-13" points="209.37 219.69 208.49 217.9 209.96 218.29 211.44 218.72 210.93 219.91 210.24 221.49 209.37 219.69"/></g><g class="cls-16"><polygon class="cls-13" points="210.84 210.41 209.96 208.62 211.44 209.01 212.91 209.43 212.4 210.62 211.72 212.2 210.84 210.41"/></g><g class="cls-16"><polygon class="cls-13" points="213.26 217.73 211.91 214.98 214.18 215.58 216.44 216.23 215.65 218.05 214.6 220.47 213.26 217.73"/></g><g class="cls-16"><polygon class="cls-13" points="206 204.94 204.66 202.2 206.92 202.8 209.18 203.45 208.4 205.27 207.35 207.69 206 204.94"/></g><g class="cls-16"><polygon class="cls-13" points="110.34 234.88 111.88 230.67 108.67 231.89 105.48 233.19 106.9 235.72 108.8 239.08 110.34 234.88"/></g><g class="cls-16"><polygon class="cls-13" points="110.31 253.83 112.01 249.69 108.77 250.78 105.52 251.95 106.84 254.53 108.6 257.97 110.31 253.83"/></g><g class="cls-16"><polygon class="cls-13" points="106.65 268.2 108.06 264.79 105.38 265.69 102.7 266.65 103.78 268.79 105.24 271.62 106.65 268.2"/></g><g class="cls-16"><polygon class="cls-13" points="110.83 224.67 112.69 221.13 109.71 221.84 106.74 222.61 107.69 225.01 108.97 228.21 110.83 224.67"/></g><g class="cls-16"><polygon class="cls-13" points="125.53 194.2 127.45 191.32 124.83 191.65 122.19 192.04 122.79 194.2 123.6 197.07 125.53 194.2"/></g><g class="cls-16"><polygon class="cls-13" points="118.23 210.82 120.72 207.1 117.32 207.53 113.91 208.03 114.69 210.82 115.73 214.54 118.23 210.82"/></g><g class="cls-16"><polygon class="cls-13" points="117.85 236.41 119.2 233.66 116.94 234.26 114.67 234.92 115.46 236.74 116.51 239.16 117.85 236.41"/></g><g class="cls-16"><polygon class="cls-13" points="102.94 250.56 104.71 246.97 102.23 247.99 99.75 249.08 100.36 251.26 101.18 254.16 102.94 250.56"/></g><g class="cls-16"><polygon class="cls-13" points="110.98 244.85 112.33 242.11 110.06 242.71 107.8 243.36 108.58 245.18 109.64 247.6 110.98 244.85"/></g><g class="cls-16"><polygon class="cls-13" points="103 259.16 104.15 256.83 102.23 257.34 100.31 257.9 100.97 259.44 101.86 261.49 103 259.16"/></g><g class="cls-16"><polygon class="cls-13" points="102.27 239.72 103.62 236.97 101.36 237.57 99.1 238.22 99.88 240.04 100.93 242.46 102.27 239.72"/></g><g class="cls-16"><polygon class="cls-13" points="104.29 228.43 105.28 226.42 103.62 226.86 101.96 227.34 102.53 228.67 103.3 230.45 104.29 228.43"/></g><g class="cls-16"><polygon class="cls-13" points="118.59 218.46 119.58 216.44 117.92 216.88 116.26 217.36 116.84 218.7 117.61 220.47 118.59 218.46"/></g><g class="cls-16"><polygon class="cls-13" points="121.98 202.09 122.97 200.07 121.31 200.51 119.65 200.99 120.23 202.33 121 204.1 121.98 202.09"/></g><g class="cls-16"><polygon class="cls-13" points="129.08 188.1 129.77 186.68 128.6 186.99 127.44 187.33 127.84 188.27 128.38 189.51 129.08 188.1"/></g><g class="cls-16"><polygon class="cls-13" points="102.7 220.77 103.39 219.36 102.23 219.67 101.06 220 101.47 220.94 102.01 222.19 102.7 220.77"/></g><g class="cls-16"><polygon class="cls-13" points="99.64 232.75 100.01 231.22 98.94 231.77 97.87 232.35 98.47 233.18 99.26 234.28 99.64 232.75"/></g><g class="cls-16"><polygon class="cls-13" points="106.87 261.64 107.24 260.12 106.17 260.67 105.11 261.24 105.7 262.07 106.49 263.18 106.87 261.64"/></g><g class="cls-16"><polygon class="cls-13" points="119.5 196.62 120.19 195.21 119.02 195.52 117.86 195.85 118.26 196.79 118.8 198.04 119.5 196.62"/></g><g class="cls-16"><polygon class="cls-13" points="118.23 226.44 119.58 223.7 117.32 224.3 115.06 224.95 115.84 226.77 116.89 229.19 118.23 226.44"/></g><g class="cls-16"><polygon class="cls-13" points="112.61 217.21 113.49 215.42 112.02 215.81 110.54 216.24 111.05 217.43 111.73 219 112.61 217.21"/></g><g class="cls-16"><polygon class="cls-13" points="111.14 207.93 112.02 206.13 110.54 206.53 109.06 206.95 109.58 208.14 110.26 209.72 111.14 207.93"/></g><g class="cls-16"><polygon class="cls-13" points="108.72 215.25 110.06 212.5 107.8 213.1 105.54 213.75 106.32 215.57 107.37 217.99 108.72 215.25"/></g><g class="cls-16"><polygon class="cls-13" points="115.97 202.46 117.32 199.71 115.06 200.31 112.8 200.97 113.58 202.79 114.63 205.21 115.97 202.46"/></g><path class="cls-14" d="M230.09,267.89a19.73,19.73,0,0,0-18.3-.29c-.45.22-.6-.25-.55-.75a6.31,6.31,0,0,0-3-5.92.72.72,0,0,1-.21-.25l-3.38-8.49c0-.07-.65-.23-.7-.29l-.3-.3a.66.66,0,0,1-.19-.37l-.71-5.65a.62.62,0,0,0-.07-.23l-4.15-7.54-.35-.05c5.23-25.87-1.95-37-2.25-37.53a.08.08,0,0,1,0,0c-6.6-16.95-17.8-23.32-24.65-25.54-5.47-1.77-11.61-.1-15.94,3.68a70.3,70.3,0,0,0-8.22,9.21,68.5,68.5,0,0,1,7.07-7.58,16.13,16.13,0,0,1,15.63-3.37c6.85,2.22,16.89,8.69,24,25.31l0,.1c.51.85,7.77,12.67,2.62,38.14h0s6,4.14,5.19,11.18c-.07.56.58.49.74,1,0,0,4.74,1.15,3.35,8.9a1.11,1.11,0,0,0,.55,1.14c1.34.21,4.37,1.79,3.33,6.18a.62.62,0,0,0,.9.65,19.73,19.73,0,0,1,18.3.29c4.94,2.75,6.34,6.33,6.72,8.43a.63.63,0,0,0,.9.45h0a1,1,0,0,0,.54-.91C236.87,275.78,236.09,271.22,230.09,267.89Z"/><path class="cls-14" d="M202.25,252.34a.65.65,0,0,1-.27-.05.73.73,0,0,1-.39-.94c2.63-6.52-4.13-12.94-4.2-13a.72.72,0,1,1,1-1c.31.29,7.55,7.16,4.55,14.59A.71.71,0,0,1,202.25,252.34Z"/><path class="cls-13" d="M196.82,303.07a6,6,0,0,0-5.08-5.43c-8.94-1.59-13.29,6.49-14.37,9.9-.13.39.82.75,1.1.43l3.75-3.6-5,8.75a1.1,1.1,0,0,0,1.53,1.51l7.72-3.82-4.77,7.38c-.34.86.78,1.71,1.62,1.25l1.13-.51a24.3,24.3,0,0,0,9.11-7C195.46,309.47,197,306.41,196.82,303.07Z"/><path class="cls-12" d="M196.37,302.79a5.61,5.61,0,0,0-4.83-5.16c-8.56-1.47-12.77,6.26-13.83,9.52-.12.37.78.72,1.06.41l3.61-3.46-4.84,8.37a1,1,0,0,0,1.46,1.44l7.42-3.69-4.62,7.06c-.33.83.74,1.64,1.55,1.19l1.09-.49a23.56,23.56,0,0,0,8.76-6.75C195,308.9,196.55,306,196.37,302.79Z"/><path class="cls-13" d="M138.23,295.11a5.89,5.89,0,0,1,4.75-5.72c8.93-2.08,13.86,5.8,15.19,9.15.16.39-.78.81-1.08.5l-4-3.41,5.64,8.5a1.1,1.1,0,0,1-1.45,1.6l-8.05-3.42,5.33,7.14c.4.85-.68,1.77-1.56,1.34l-1.17-.45a24.88,24.88,0,0,1-9.68-6.55C140,301.45,138.25,298.47,138.23,295.11Z"/><path class="cls-12" d="M138.66,294.8a5.54,5.54,0,0,1,4.53-5.43c8.54-1.94,13.32,5.59,14.61,8.8.15.37-.74.76-1,.47l-3.88-3.27,5.45,8.13A1,1,0,0,1,157,305l-7.74-3.3,5.14,6.83c.39.81-.64,1.68-1.49,1.27l-1.13-.43a24.33,24.33,0,0,1-9.31-6.29C140.42,300.85,138.69,298,138.66,294.8Z"/><path class="cls-4" d="M48.54,507.28c-.15-.51-.36-1.15-.61-1.91s-.46-1.4-.63-1.93H38.14q-1.47,5-1.51,5.17L32,507.73Q32.9,504,36.4,494.3t4-11.23h4.79q.38,1.31,4.05,11.42t4.35,13.15l-4.62,1C48.83,508.24,48.69,507.8,48.54,507.28Zm-7.29-14.09q-1.12,3.31-1.85,5.67H46l-3.24-9.45h-.21Q42.39,489.88,41.25,493.19Z"/><path class="cls-4" d="M58.09,506a9.44,9.44,0,0,1-2.43-6.74q0-2.19.06-6.61t.06-6.07c0-1.6,0-2.78-.12-3.53h5c.06.78.09,1.68.09,2.69s0,3.19-.06,6.3-.07,5.39-.07,6.84a5.38,5.38,0,0,0,1.18,3.76A4.21,4.21,0,0,0,65,503.94a4.48,4.48,0,0,0,3.5-1.4,5.77,5.77,0,0,0,1.33-3.93q.08-9.33.08-11.68c0-1.62,0-2.91.09-3.86h4.91a28.81,28.81,0,0,0-.13,3.27c0,1.1,0,3,0,5.78s0,4.91,0,6.45A10,10,0,0,1,72,505.86q-2.69,2.75-7.69,2.75A8.22,8.22,0,0,1,58.09,506Z"/><path class="cls-4" d="M89.89,508.27h-5c.08-.9.13-2.21.13-3.95s0-4.53-.11-8.32-.11-6.52-.11-8.23v-.21c-1.51.06-2.61.09-3.31.09-1.63,0-2.76,0-3.41-.09v-4.49c1.1.08,2.3.11,3.62.08q1.71,0,6.26-.19t6.76-.14c.7,0,1.5,0,2.39.08v4.49c-1.06-.05-1.94-.08-2.64-.08-1,0-2.52,0-4.71.08v1c0,1,0,3.56.13,7.67s.12,7.14.12,9.13C90,506.82,90,507.85,89.89,508.27Z"/><path class="cls-4" d="M101.79,505.14q-3.29-3.47-3.29-9.3a12.93,12.93,0,0,1,3.57-9.45,11.69,11.69,0,0,1,8.69-3.66,11.09,11.09,0,0,1,8.38,3.49q3.35,3.48,3.34,9.32a12.8,12.8,0,0,1-3.59,9.43,11.77,11.77,0,0,1-8.71,3.64A11.09,11.09,0,0,1,101.79,505.14Zm13.57-3.44a8.24,8.24,0,0,0,2.12-5.91,9.21,9.21,0,0,0-1.91-6.09,6.18,6.18,0,0,0-5-2.31,6.4,6.4,0,0,0-5,2.34,8.94,8.94,0,0,0-2,6.06,8.58,8.58,0,0,0,2,5.91,6.27,6.27,0,0,0,4.85,2.24A6.68,6.68,0,0,0,115.36,501.7Z"/><path class="cls-4" d="M139.05,506q-.86-1.47-2-3.48c-.73-1.35-1.3-2.37-1.72-3.07a16,16,0,0,1-2.1.13c-.51,0-1.15,0-1.94-.09,0,.76,0,1.75,0,3s0,2.11,0,2.64c0,1.66,0,2.69-.08,3.11h-4.87c.08-.9.12-2.21.12-3.95s0-4.77-.1-9-.11-7.24-.11-9c0-.31,0-.77,0-1.4s0-1.05,0-1.24a55.74,55.74,0,0,1,7.77-.63,9.58,9.58,0,0,1,6.49,2.16,7.09,7.09,0,0,1,2.5,5.61,7.75,7.75,0,0,1-3.32,6.72q4.24,7.23,5.25,8.82l-4.41,2.23C140.16,507.88,139.62,507,139.05,506Zm-2.27-11.84a3.55,3.55,0,0,0,1.37-3q0-3.5-4.41-3.49-.51,0-2.61.21c0,.67,0,1.84.07,3.51s.06,2.87.06,3.63a11.11,11.11,0,0,0,2.1.17A5.44,5.44,0,0,0,136.78,494.2Z"/><path class="cls-4" d="M161.27,506q-.87-1.47-2-3.48c-.73-1.35-1.31-2.37-1.73-3.07a15.79,15.79,0,0,1-2.1.13c-.5,0-1.15,0-1.93-.09,0,.76,0,1.75,0,3s0,2.11,0,2.64c0,1.66,0,2.69-.08,3.11h-4.87c.08-.9.12-2.21.12-3.95s0-4.77-.1-9-.11-7.24-.11-9c0-.31,0-.77,0-1.4s0-1.05,0-1.24a55.74,55.74,0,0,1,7.77-.63,9.56,9.56,0,0,1,6.49,2.16,7.06,7.06,0,0,1,2.5,5.61,7.74,7.74,0,0,1-3.31,6.72q4.23,7.23,5.25,8.82l-4.41,2.23C162.38,507.88,161.84,507,161.27,506ZM159,494.2a3.55,3.55,0,0,0,1.37-3q0-3.5-4.42-3.49c-.33,0-1.2.07-2.6.21q0,1,.06,3.51c.05,1.66.07,2.87.07,3.63a11.11,11.11,0,0,0,2.1.17A5.44,5.44,0,0,0,159,494.2Z"/><path class="cls-4" d="M170.86,508.27c.09-.9.13-2.21.13-3.95s0-4.77-.11-9-.1-7.24-.1-9c0-.31,0-.88,0-1.72s0-1.36,0-1.55q2,0,5.86-.15c2.56-.1,4.4-.13,5.53-.1.69,0,1.49,0,2.39.08v4.66c-1.06-.05-1.95-.08-2.65-.08q-3,0-6.38.12c0,.45,0,1.35,0,2.71s0,2.38,0,3.05h6.89V498h-6.89c0,.7,0,1.67,0,2.9s.05,2.13.05,2.69l6.47-.21c.69,0,1.49,0,2.39.08v4.66c-1.06-.05-1.95-.08-2.65-.08Q176.16,508,170.86,508.27Z"/><path class="cls-4" d="M199.05,508.27h-5c.08-.9.12-2.21.12-3.95s0-4.53-.1-8.32-.11-6.52-.11-8.23v-.21c-1.51.06-2.62.09-3.32.09-1.62,0-2.75,0-3.4-.09v-4.49c1.09.08,2.3.11,3.61.08q1.73,0,6.26-.19c3-.12,5.28-.17,6.77-.14.7,0,1.49,0,2.39.08v4.49c-1.06-.05-1.95-.08-2.65-.08-1,0-2.52,0-4.7.08v1c0,1,0,3.56.12,7.67s.13,7.14.13,9.13C199.13,506.82,199.1,507.85,199.05,508.27Z"/><path class="cls-4" d="M222.21,506c-.57-1-1.23-2.14-2-3.48s-1.31-2.37-1.73-3.07a15.79,15.79,0,0,1-2.1.13c-.5,0-1.14,0-1.93-.09,0,.76,0,1.75,0,3s0,2.11,0,2.64c0,1.66,0,2.69-.08,3.11h-4.87c.08-.9.12-2.21.12-3.95s0-4.77-.1-9-.11-7.24-.11-9c0-.31,0-.77,0-1.4s0-1.05,0-1.24a55.87,55.87,0,0,1,7.78-.63,9.58,9.58,0,0,1,6.49,2.16,7.09,7.09,0,0,1,2.5,5.61,7.75,7.75,0,0,1-3.32,6.72q4.24,7.23,5.25,8.82l-4.41,2.23C223.32,507.88,222.78,507,222.21,506Zm-2.27-11.84a3.55,3.55,0,0,0,1.37-3q0-3.5-4.41-3.49-.51,0-2.61.21c0,.67,0,1.84.07,3.51s.06,2.87.06,3.63a11.11,11.11,0,0,0,2.1.17A5.44,5.44,0,0,0,219.94,494.2Z"/><path class="cls-4" d="M245.61,507.28c-.16-.51-.36-1.15-.61-1.91s-.47-1.4-.63-1.93h-9.16c-1,3.36-1.49,5.08-1.51,5.17l-4.67-.88q.93-3.75,4.43-13.43t4-11.23h4.79q.39,1.31,4.06,11.42t4.34,13.15l-4.62,1Zm-7.29-14.09q-1.14,3.31-1.85,5.67H243l-3.23-9.45h-.21Q239.45,489.88,238.32,493.19Z"/><path class="cls-4" d="M261.75,508.27h-5c.09-.9.13-2.21.13-3.95s0-4.53-.11-8.32-.1-6.52-.1-8.23v-.21c-1.52.06-2.62.09-3.32.09-1.63,0-2.76,0-3.4-.09v-4.49c1.09.08,2.29.11,3.61.08,1.15,0,3.23-.06,6.26-.19s5.28-.17,6.76-.14c.7,0,1.5,0,2.4.08v4.49c-1.07-.05-1.95-.08-2.65-.08-1,0-2.52,0-4.71.08v1c0,1,.05,3.56.13,7.67s.13,7.14.13,9.13A30.69,30.69,0,0,1,261.75,508.27Z"/><path class="cls-4" d="M273.66,505.14q-3.3-3.47-3.3-9.3a12.93,12.93,0,0,1,3.57-9.45,11.69,11.69,0,0,1,8.7-3.66,11.11,11.11,0,0,1,8.38,3.49,14.4,14.4,0,0,1-.26,18.75,11.77,11.77,0,0,1-8.71,3.64A11.07,11.07,0,0,1,273.66,505.14Zm13.57-3.44a8.28,8.28,0,0,0,2.12-5.91,9.27,9.27,0,0,0-1.91-6.09,6.21,6.21,0,0,0-5-2.31,6.4,6.4,0,0,0-5.05,2.34,8.94,8.94,0,0,0-2,6.06,8.58,8.58,0,0,0,2,5.91,6.28,6.28,0,0,0,4.86,2.24A6.71,6.71,0,0,0,287.23,501.7Z"/></g></g></svg>