<svg xmlns="http://www.w3.org/2000/svg" xmlns:xlink="http://www.w3.org/1999/xlink" viewBox="0 0 533.58 534.86"><defs><style>.cls-1{fill:url(#Motivo_nuevo_2);}.cls-2{fill:none;}.cls-3{clip-path:url(#clip-path);}.cls-4{fill:#f95c4b;}.cls-5{fill:#fff;}.cls-6{fill:url(#Motivo_nuevo_2-3);}.cls-7{clip-path:url(#clip-path-2);}.cls-8,.cls-9{fill:#f96c4b;}.cls-9{stroke:#f96c4b;stroke-miterlimit:10;}</style><pattern id="Motivo_nuevo_2" data-name="Motivo nuevo 2" width="171.44" height="171.44" patternUnits="userSpaceOnUse" viewBox="0 0 171.44 171.44"><rect class="cls-2" width="171.44" height="171.44"/><g class="cls-3"><rect class="cls-4" x="60.37" y="76.75" width="15.15" height="89.7"/><rect class="cls-4" x="81.64" y="112.68" width="15.15" height="27.86"/><rect class="cls-4" x="66.51" y="11.24" width="15.15" height="60.98"/><rect class="cls-4" x="141.52" y="130.12" width="15.15" height="36.82"/><polygon class="cls-4" points="-34.45 50.94 -34.45 35.78 11.39 35.78 11.39 50.94 -34.45 50.94"/><polygon class="cls-4" points="136.99 50.94 136.99 35.78 182.83 35.78 182.83 50.94 136.99 50.94"/><polygon class="cls-4" points="122.57 164.37 122.57 149.22 137.12 149.22 137.12 164.37 122.57 164.37"/><polygon class="cls-4" points="33.11 92.03 33.11 76.87 53.53 76.87 53.53 92.03 33.11 92.03"/><path class="cls-4" d="M51.11,155.35a30.19,30.19,0,1,1-30.18-30.19A30.18,30.18,0,0,1,51.11,155.35Zm-15.15,0a15,15,0,1,0-15,15A15,15,0,0,0,36,155.35Z"/><path class="cls-4" d="M62.29,48.62a23.2,23.2,0,1,1-23.2-23.2A23.2,23.2,0,0,1,62.29,48.62Zm-11.64,0A11.56,11.56,0,1,0,39.09,60.18,11.56,11.56,0,0,0,50.65,48.62Z"/><path class="cls-4" d="M123.77,88.59a19.3,19.3,0,1,1-19.3-19.3A19.3,19.3,0,0,1,123.77,88.59Zm-9.69,0a9.61,9.61,0,1,0-9.61,9.6A9.61,9.61,0,0,0,114.08,88.59Z"/><path class="cls-4" d="M120.38,165.29a19.56,19.56,0,1,1-19.56-19.55A19.55,19.55,0,0,1,120.38,165.29Zm-9.82,0a9.74,9.74,0,1,0-9.74,9.74A9.74,9.74,0,0,0,110.56,165.29Z"/><path class="cls-4" d="M51.11-16.09A30.19,30.19,0,0,1,20.93,14.1,30.19,30.19,0,0,1-9.26-16.09,30.19,30.19,0,0,1,20.93-46.27,30.18,30.18,0,0,1,51.11-16.09ZM36-16.09a15,15,0,0,0-15-15,15,15,0,0,0-15,15,15,15,0,0,0,15,15A15,15,0,0,0,36-16.09Z"/><path class="cls-4" d="M222.55,155.35a30.19,30.19,0,1,1-30.19-30.19A30.18,30.18,0,0,1,222.55,155.35Zm-15.15,0a15,15,0,1,0-15,15A15,15,0,0,0,207.4,155.35Z"/><path class="cls-4" d="M222.55-16.09A30.19,30.19,0,0,1,192.36,14.1a30.19,30.19,0,0,1-30.18-30.19,30.18,30.18,0,0,1,30.18-30.18A30.18,30.18,0,0,1,222.55-16.09Zm-15.15,0a15,15,0,0,0-15-15,15,15,0,0,0-15,15,15,15,0,0,0,15,15A15,15,0,0,0,207.4-16.09Z"/><path class="cls-4" d="M120.38-6.14a19.56,19.56,0,0,1-19.56,19.55A19.56,19.56,0,0,1,81.27-6.14,19.56,19.56,0,0,1,100.82-25.7,19.56,19.56,0,0,1,120.38-6.14Zm-9.82,0a9.74,9.74,0,0,0-9.74-9.74,9.74,9.74,0,0,0-9.73,9.74,9.73,9.73,0,0,0,9.73,9.73A9.74,9.74,0,0,0,110.56-6.14Z"/><rect class="cls-4" x="151.05" y="4.34" width="15.15" height="26.95"/><path class="cls-4" d="M131.5,66.9a5.75,5.75,0,1,1-5.74-5.74A5.74,5.74,0,0,1,131.5,66.9Zm-2.88,0a2.86,2.86,0,1,0-2.86,2.86A2.86,2.86,0,0,0,128.62,66.9Z"/><path class="cls-4" d="M18.58,24.37a7.46,7.46,0,1,1-7.46-7.45A7.46,7.46,0,0,1,18.58,24.37Zm-3.75,0a3.71,3.71,0,1,0-3.71,3.72A3.71,3.71,0,0,0,14.83,24.37Z"/><path class="cls-4" d="M175.37,90.72a12,12,0,1,1-12-12A12,12,0,0,1,175.37,90.72Zm-6,0a6,6,0,1,0-6,6A6,6,0,0,0,169.33,90.72Z"/><path class="cls-4" d="M63.55,13.71A10.49,10.49,0,1,1,53.07,3.23,10.49,10.49,0,0,1,63.55,13.71Zm-5.26,0a5.22,5.22,0,1,0-5.22,5.23A5.22,5.22,0,0,0,58.29,13.71Z"/><path class="cls-4" d="M147.93,14.69a12,12,0,1,1-12-12A12,12,0,0,1,147.93,14.69Zm-6,0a6,6,0,1,0-6,6A6,6,0,0,0,141.9,14.69Z"/><path class="cls-4" d="M129.79,40.85a22.22,22.22,0,1,1-22.22-22.22A22.21,22.21,0,0,1,129.79,40.85Zm-11.15,0a11.07,11.07,0,1,0-11.07,11.06A11.07,11.07,0,0,0,118.64,40.85Z"/><path class="cls-4" d="M198.9,90.72a35.57,35.57,0,1,1-35.56-35.56A35.57,35.57,0,0,1,198.9,90.72Zm-17.85,0a17.71,17.71,0,1,0-17.71,17.71A17.71,17.71,0,0,0,181.05,90.72Z"/><path class="cls-4" d="M3.94,90.72a12,12,0,0,1-12,12,12,12,0,0,1-12-12,12,12,0,0,1,12-12A12,12,0,0,1,3.94,90.72Zm-6,0a6,6,0,0,0-6-6,6,6,0,0,0-6,6,6,6,0,0,0,6,6A6,6,0,0,0-2.11,90.72Z"/><path class="cls-4" d="M27.46,90.72A35.57,35.57,0,0,1-8.1,126.29,35.57,35.57,0,0,1-43.66,90.72,35.56,35.56,0,0,1-8.1,55.16,35.56,35.56,0,0,1,27.46,90.72Zm-17.85,0A17.71,17.71,0,0,0-8.1,73,17.71,17.71,0,0,0-25.81,90.72,17.71,17.71,0,0,0-8.1,108.43,17.71,17.71,0,0,0,9.61,90.72Z"/><path class="cls-4" d="M55.61,112A13.93,13.93,0,1,1,41.68,98.11,13.93,13.93,0,0,1,55.61,112Zm-7,0A6.94,6.94,0,1,0,41.68,119,6.94,6.94,0,0,0,48.61,112Z"/><path class="cls-4" d="M136.62,127.58a16.86,16.86,0,1,1-16.86-16.86A16.86,16.86,0,0,1,136.62,127.58Zm-8.46,0a8.4,8.4,0,1,0-8.4,8.39A8.4,8.4,0,0,0,128.16,127.58Z"/></g></pattern><clipPath id="clip-path"><rect class="cls-2" width="171.44" height="171.44"/></clipPath><pattern id="Motivo_nuevo_2-3" data-name="Motivo nuevo 2" width="171.44" height="171.44" patternUnits="userSpaceOnUse" viewBox="0 0 171.44 171.44"><rect class="cls-2" width="171.44" height="171.44"/><g class="cls-3"><rect class="cls-4" x="60.37" y="76.75" width="15.15" height="89.7"/><rect class="cls-4" x="81.64" y="112.68" width="15.15" height="27.86"/><rect class="cls-4" x="66.51" y="11.24" width="15.15" height="60.98"/><rect class="cls-4" x="141.52" y="130.12" width="15.15" height="36.82"/><polygon class="cls-4" points="-34.45 50.94 -34.45 35.78 11.39 35.78 11.39 50.94 -34.45 50.94"/><polygon class="cls-4" points="136.99 50.94 136.99 35.78 182.83 35.78 182.83 50.94 136.99 50.94"/><polygon class="cls-4" points="122.57 164.37 122.57 149.22 137.12 149.22 137.12 164.37 122.57 164.37"/><polygon class="cls-4" points="33.11 92.03 33.11 76.87 53.53 76.87 53.53 92.03 33.11 92.03"/><path class="cls-4" d="M51.11,155.35a30.19,30.19,0,1,1-30.18-30.19A30.18,30.18,0,0,1,51.11,155.35Zm-15.15,0a15,15,0,1,0-15,15A15,15,0,0,0,36,155.35Z"/><path class="cls-4" d="M62.29,48.62a23.2,23.2,0,1,1-23.2-23.2A23.2,23.2,0,0,1,62.29,48.62Zm-11.64,0A11.56,11.56,0,1,0,39.09,60.18,11.56,11.56,0,0,0,50.65,48.62Z"/><path class="cls-4" d="M123.77,88.59a19.3,19.3,0,1,1-19.3-19.3A19.3,19.3,0,0,1,123.77,88.59Zm-9.69,0a9.61,9.61,0,1,0-9.61,9.6A9.61,9.61,0,0,0,114.08,88.59Z"/><path class="cls-4" d="M120.38,165.29a19.56,19.56,0,1,1-19.56-19.55A19.55,19.55,0,0,1,120.38,165.29Zm-9.82,0a9.74,9.74,0,1,0-9.74,9.74A9.74,9.74,0,0,0,110.56,165.29Z"/><path class="cls-4" d="M51.11-16.09A30.19,30.19,0,0,1,20.93,14.1,30.19,30.19,0,0,1-9.26-16.09,30.19,30.19,0,0,1,20.93-46.27,30.18,30.18,0,0,1,51.11-16.09ZM36-16.09a15,15,0,0,0-15-15,15,15,0,0,0-15,15,15,15,0,0,0,15,15A15,15,0,0,0,36-16.09Z"/><path class="cls-4" d="M222.55,155.35a30.19,30.19,0,1,1-30.19-30.19A30.18,30.18,0,0,1,222.55,155.35Zm-15.15,0a15,15,0,1,0-15,15A15,15,0,0,0,207.4,155.35Z"/><path class="cls-4" d="M222.55-16.09A30.19,30.19,0,0,1,192.36,14.1a30.19,30.19,0,0,1-30.18-30.19,30.18,30.18,0,0,1,30.18-30.18A30.18,30.18,0,0,1,222.55-16.09Zm-15.15,0a15,15,0,0,0-15-15,15,15,0,0,0-15,15,15,15,0,0,0,15,15A15,15,0,0,0,207.4-16.09Z"/><path class="cls-4" d="M120.38-6.14a19.56,19.56,0,0,1-19.56,19.55A19.56,19.56,0,0,1,81.27-6.14,19.56,19.56,0,0,1,100.82-25.7,19.56,19.56,0,0,1,120.38-6.14Zm-9.82,0a9.74,9.74,0,0,0-9.74-9.74,9.74,9.74,0,0,0-9.73,9.74,9.73,9.73,0,0,0,9.73,9.73A9.74,9.74,0,0,0,110.56-6.14Z"/><rect class="cls-4" x="151.05" y="4.34" width="15.15" height="26.95"/><path class="cls-4" d="M131.5,66.9a5.75,5.75,0,1,1-5.74-5.74A5.74,5.74,0,0,1,131.5,66.9Zm-2.88,0a2.86,2.86,0,1,0-2.86,2.86A2.86,2.86,0,0,0,128.62,66.9Z"/><path class="cls-4" d="M18.58,24.37a7.46,7.46,0,1,1-7.46-7.45A7.46,7.46,0,0,1,18.58,24.37Zm-3.75,0a3.71,3.71,0,1,0-3.71,3.72A3.71,3.71,0,0,0,14.83,24.37Z"/><path class="cls-4" d="M175.37,90.72a12,12,0,1,1-12-12A12,12,0,0,1,175.37,90.72Zm-6,0a6,6,0,1,0-6,6A6,6,0,0,0,169.33,90.72Z"/><path class="cls-4" d="M63.55,13.71A10.49,10.49,0,1,1,53.07,3.23,10.49,10.49,0,0,1,63.55,13.71Zm-5.26,0a5.22,5.22,0,1,0-5.22,5.23A5.22,5.22,0,0,0,58.29,13.71Z"/><path class="cls-4" d="M147.93,14.69a12,12,0,1,1-12-12A12,12,0,0,1,147.93,14.69Zm-6,0a6,6,0,1,0-6,6A6,6,0,0,0,141.9,14.69Z"/><path class="cls-4" d="M129.79,40.85a22.22,22.22,0,1,1-22.22-22.22A22.21,22.21,0,0,1,129.79,40.85Zm-11.15,0a11.07,11.07,0,1,0-11.07,11.06A11.07,11.07,0,0,0,118.64,40.85Z"/><path class="cls-4" d="M198.9,90.72a35.57,35.57,0,1,1-35.56-35.56A35.57,35.57,0,0,1,198.9,90.72Zm-17.85,0a17.71,17.71,0,1,0-17.71,17.71A17.71,17.71,0,0,0,181.05,90.72Z"/><path class="cls-4" d="M3.94,90.72a12,12,0,0,1-12,12,12,12,0,0,1-12-12,12,12,0,0,1,12-12A12,12,0,0,1,3.94,90.72Zm-6,0a6,6,0,0,0-6-6,6,6,0,0,0-6,6,6,6,0,0,0,6,6A6,6,0,0,0-2.11,90.72Z"/><path class="cls-4" d="M27.46,90.72A35.57,35.57,0,0,1-8.1,126.29,35.57,35.57,0,0,1-43.66,90.72,35.56,35.56,0,0,1-8.1,55.16,35.56,35.56,0,0,1,27.46,90.72Zm-17.85,0A17.71,17.71,0,0,0-8.1,73,17.71,17.71,0,0,0-25.81,90.72,17.71,17.71,0,0,0-8.1,108.43,17.71,17.71,0,0,0,9.61,90.72Z"/><path class="cls-4" d="M55.61,112A13.93,13.93,0,1,1,41.68,98.11,13.93,13.93,0,0,1,55.61,112Zm-7,0A6.94,6.94,0,1,0,41.68,119,6.94,6.94,0,0,0,48.61,112Z"/><path class="cls-4" d="M136.62,127.58a16.86,16.86,0,1,1-16.86-16.86A16.86,16.86,0,0,1,136.62,127.58Zm-8.46,0a8.4,8.4,0,1,0-8.4,8.39A8.4,8.4,0,0,0,128.16,127.58Z"/></g></pattern><clipPath id="clip-path-2" transform="translate(50.26)"><path class="cls-1" d="M45.55,534.86H12c-6.6,0-12-8.59-12-19.1V20.38C0,9.87,5.4,1.28,12,1.28H45.55Z"/></clipPath></defs><g id="Capa_2" data-name="Capa 2"><g id="Capa_2-2" data-name="Capa 2"><rect class="cls-5" x="-99.16" y="99.16" width="533.58" height="335.26" rx="12" transform="translate(484.68 99.16) rotate(90)"/><path class="cls-6" d="M45.55,534.86H12c-6.6,0-12-8.59-12-19.1V20.38C0,9.87,5.4,1.28,12,1.28H45.55Z" transform="translate(50.26)"/><g class="cls-7"><path class="cls-6" d="M471.33,534.86H-38.26a12,12,0,0,1-12-12V13.28a12,12,0,0,1,12-12H471.33a12,12,0,0,1,12,12V522.86A12,12,0,0,1,471.33,534.86Z" transform="translate(50.26)"/></g><rect class="cls-8" x="135.08" y="120.88" width="226.34" height="64.16"/><path class="cls-5" d="M137.73,154.09c0,11.92-7.24,18.23-16.07,18.23-9.14,0-15.56-7.08-15.56-17.56,0-11,6.83-18.17,16.07-18.17C131.62,136.59,137.73,143.82,137.73,154.09Zm-26.86.57c0,7.39,4,14,11,14S133,162.16,133,154.3c0-6.88-3.59-14.07-11-14.07S110.87,147.06,110.87,154.66Z" transform="translate(50.26)"/><path class="cls-5" d="M143.53,137.61a46.78,46.78,0,0,1,8.58-.72c4.77,0,7.85.88,10,2.83a8.6,8.6,0,0,1,2.72,6.57,9.08,9.08,0,0,1-6.52,8.83v.15c2.67.93,4.26,3.39,5.08,7,1.13,4.82,2,8.16,2.67,9.5h-4.62c-.56-1-1.33-4-2.31-8.27-1-4.78-2.87-6.57-6.93-6.73H148v15h-4.47ZM148,153.38h4.57c4.78,0,7.8-2.62,7.8-6.58,0-4.46-3.23-6.42-8-6.47a18.71,18.71,0,0,0-4.42.41Z" transform="translate(50.26)"/><path class="cls-5" d="M175.63,137.15v34.61h-4.47V137.15Z" transform="translate(50.26)"/><path class="cls-5" d="M209.77,170.22a32.15,32.15,0,0,1-10.62,1.9c-5.24,0-9.55-1.34-12.94-4.57-3-2.88-4.83-7.5-4.83-12.89.05-10.32,7.14-17.87,18.74-17.87a21.39,21.39,0,0,1,8.63,1.59L207.67,142a18,18,0,0,0-7.65-1.49c-8.42,0-13.92,5.24-13.92,13.91s5.29,14,13.35,14a14.67,14.67,0,0,0,6-.92V157.17h-7v-3.59h11.39Z" transform="translate(50.26)"/><path class="cls-5" d="M234.53,155.53H221.07V168h15v3.75H216.61V137.15H235.3v3.75H221.07v10.94h13.46Z" transform="translate(50.26)"/><path class="cls-5" d="M241.87,171.76V137.15h4.88l11.09,17.51a96.72,96.72,0,0,1,6.21,11.24l.11-.05c-.42-4.62-.52-8.83-.52-14.22V137.15h4.21v34.61h-4.52l-11-17.56a107.47,107.47,0,0,1-6.47-11.56l-.16.06c.26,4.36.36,8.52.36,14.27v14.79Z" transform="translate(50.26)"/><line class="cls-9" x1="300.4" y1="111.19" x2="389.35" y2="111.19"/><path d="M74.5,214.2q0-.4,0-.93l0-.85,1.27-.08c0,.58,0,1.19,0,1.76v6.5h1.38c.85,0,1.83,0,2.65-.05a5.64,5.64,0,0,0,0,.82v.18H76.27l-1.81,0c0-.41,0-1.07,0-1.65Z" transform="translate(50.26)"/><path d="M83.13,221.63c-1.92,0-3.07-1.54-3.07-3.57s1.3-3.57,3.11-3.57,3.07,1.44,3.07,3.53S85,221.63,83.13,221.63Zm0-6.23c-1.21,0-1.92,1.13-1.92,2.62,0,1.72.82,2.66,1.92,2.66a1.66,1.66,0,0,0,1.37-.72,3,3,0,0,0,.56-1.94C85.07,216.46,84.34,215.4,83.14,215.4Z" transform="translate(50.26)"/><path d="M87.52,216.39c0-.46-.06-1.38-.06-1.6a4,4,0,0,0,1-.25h.19V216a2,2,0,0,1,1.76-1.48,1.92,1.92,0,0,1,1.07.28,3.46,3.46,0,0,0-.39,1,1.43,1.43,0,0,0-.78-.22c-.67,0-1.17.34-1.66,1.41v3.22c0,.74,0,1.05.06,1.35-.38,0-.8,0-1.23,0Z" transform="translate(50.26)"/><path d="M94.7,214.49a2.58,2.58,0,0,1,2.71,2.78,6.07,6.07,0,0,1-.06.85H92.8v.19a2.14,2.14,0,0,0,2.13,2.38,3.05,3.05,0,0,0,1.93-.68,3.81,3.81,0,0,0,.38.67,2.9,2.9,0,0,1-1.17.71,4,4,0,0,1-1.3.24c-1.78,0-3.15-1.2-3.15-3.54C91.62,216.06,92.93,214.49,94.7,214.49Zm1.67,2.86c0-.9-.33-2-1.63-2a2,2,0,0,0-1.92,2Z" transform="translate(50.26)"/><path d="M98.7,216.39a15.41,15.41,0,0,0-.06-1.6,4.4,4.4,0,0,0,1-.25h.19V216a3,3,0,0,1,2.4-1.47,1.85,1.85,0,0,1,1.91,1.47,3,3,0,0,1,2.39-1.47,1.88,1.88,0,0,1,2,2v3.75c0,.69,0,1.06,0,1.28-.38,0-.8,0-1.22,0v-4.75a1.15,1.15,0,0,0-.41-1.05,1.31,1.31,0,0,0-.83-.29,2.64,2.64,0,0,0-1.91,1.17v3.6c0,.69,0,1.11,0,1.28-.4,0-.82,0-1.22,0v-4.75a1.18,1.18,0,0,0-.4-1.05,1.33,1.33,0,0,0-.83-.29,1.84,1.84,0,0,0-1.08.38,3.64,3.64,0,0,0-.88.87v3.45c0,.74,0,1.14,0,1.35-.37,0-.78,0-1.21,0Z" transform="translate(50.26)"/><path d="M113.43,212a.73.73,0,0,1,.74.7.74.74,0,1,1-.74-.7Zm-.58,8.17v-3.51c0-.34,0-1.72,0-1.9a4.12,4.12,0,0,0,1-.25h.2v5.66c0,.74,0,1.18,0,1.35-.38,0-.8,0-1.22,0Z" transform="translate(50.26)"/><path d="M115.77,216.7c0-1-.06-1.8-.07-1.91a5.91,5.91,0,0,0,1-.25h.18c0,.12,0,.38,0,.57a2.83,2.83,0,0,1,1.77-.62c1.57,0,2.92,1.23,2.92,3.42s-1.45,3.72-3.18,3.72a3,3,0,0,1-1.51-.41v1.93a10.68,10.68,0,0,0,0,1.18c-.38,0-.79,0-1.22,0,0-.17,0-2.11,0-2.28Zm4.66,1.35c0-1.6-.85-2.61-2-2.61a2.41,2.41,0,0,0-1.46.44v4.35a1.63,1.63,0,0,0,1.3.56C119.4,220.79,120.43,219.75,120.43,218.05Z" transform="translate(50.26)"/><path d="M124.44,220.7a2.18,2.18,0,0,0,1.06-.24.91.91,0,0,0,.47-.87c0-.58-.39-.76-1.47-1.17a6.33,6.33,0,0,1-1.38-.75,1.54,1.54,0,0,1-.56-1.35c0-1.13.9-1.83,2.24-1.83a4.14,4.14,0,0,1,2,.45,2,2,0,0,0-.28.72l-.09.05a3.64,3.64,0,0,0-1.48-.3c-.66,0-1.28.21-1.28.89s.5.89,1.33,1.17a4,4,0,0,1,1.51.8,1.75,1.75,0,0,1,.45,1.3c0,1.42-1.21,2.06-2.47,2.06a3.56,3.56,0,0,1-2-.59,2.38,2.38,0,0,0,.29-.77A3.12,3.12,0,0,0,124.44,220.7Z" transform="translate(50.26)"/><path d="M128.21,216.37c0-.79-.05-1.56-.06-1.73a7.05,7.05,0,0,0,1-.1h.19v4.67a1.29,1.29,0,0,0,1.25,1.4,2.73,2.73,0,0,0,1.85-1v-3.09c0-.92,0-1.66-.07-1.89a6.83,6.83,0,0,0,1-.1h.21v5.19a9.58,9.58,0,0,0,.17,1.82c-.38,0-.8,0-1.22,0a8.35,8.35,0,0,1-.12-1.19,3.09,3.09,0,0,1-2.29,1.23,2,2,0,0,1-2-2.11Z" transform="translate(50.26)"/><path d="M135.47,216.39a14.79,14.79,0,0,0-.07-1.6,4.4,4.4,0,0,0,1-.25h.2V216a3,3,0,0,1,2.39-1.47,1.85,1.85,0,0,1,1.91,1.47,3,3,0,0,1,2.39-1.47,1.88,1.88,0,0,1,2,2v3.75c0,.69,0,1.06,0,1.28-.38,0-.79,0-1.22,0v-4.75a1.18,1.18,0,0,0-.4-1.05,1.34,1.34,0,0,0-.84-.29,2.66,2.66,0,0,0-1.91,1.17v3.6a11.22,11.22,0,0,0,.06,1.28c-.41,0-.82,0-1.23,0v-4.75a1.18,1.18,0,0,0-.4-1.05,1.31,1.31,0,0,0-.83-.29,1.84,1.84,0,0,0-1.08.38,3.59,3.59,0,0,0-.87.87v3.45c0,.74,0,1.14,0,1.35-.38,0-.78,0-1.21,0Z" transform="translate(50.26)"/><path d="M149.17,218.17c0-2.34,1.46-3.68,3.19-3.68a2.85,2.85,0,0,1,1.5.39c0-.38,0-2.82,0-3a7,7,0,0,0,1-.23H155v8.18a8,8,0,0,0,.19,1.72c-.38,0-.78,0-1.21,0a2.65,2.65,0,0,1-.09-.67,2.78,2.78,0,0,1-1.81.71C150.55,221.63,149.17,220.34,149.17,218.17Zm3.41-2.86c-1.17,0-2.21,1-2.21,2.71a3,3,0,0,0,.57,1.93,1.81,1.81,0,0,0,1.48.73,2.36,2.36,0,0,0,1.46-.51c0-.14,0-1.46,0-4.32A1.58,1.58,0,0,0,152.58,215.31Z" transform="translate(50.26)"/><path d="M159.38,221.63c-1.93,0-3.07-1.54-3.07-3.57s1.3-3.57,3.1-3.57,3.07,1.44,3.07,3.53S161.2,221.63,159.38,221.63Zm0-6.23c-1.21,0-1.93,1.13-1.93,2.62,0,1.72.82,2.66,1.93,2.66a1.65,1.65,0,0,0,1.36-.72,3,3,0,0,0,.56-1.94C161.31,216.46,160.58,215.4,159.39,215.4Z" transform="translate(50.26)"/><path d="M163.76,213.84c0-.27,0-1.81,0-2a5.11,5.11,0,0,0,1-.23h.19v8.48a10.6,10.6,0,0,0,0,1.42c-.38,0-.82,0-1.24,0,0-.12,0-1.28,0-1.46Z" transform="translate(50.26)"/><path d="M169.27,221.63c-1.93,0-3.07-1.54-3.07-3.57s1.3-3.57,3.11-3.57,3.06,1.44,3.06,3.53S171.09,221.63,169.27,221.63Zm0-6.23c-1.21,0-1.92,1.13-1.92,2.62,0,1.72.82,2.66,1.92,2.66a1.66,1.66,0,0,0,1.37-.72,3.08,3.08,0,0,0,.55-1.94C171.2,216.46,170.48,215.4,169.28,215.4Z" transform="translate(50.26)"/><path d="M173.66,216.39c0-.46-.06-1.38-.06-1.6a4,4,0,0,0,1-.25h.19V216a2,2,0,0,1,1.76-1.48,1.89,1.89,0,0,1,1.06.28,3.77,3.77,0,0,0-.39,1,1.4,1.4,0,0,0-.78-.22c-.66,0-1.17.34-1.65,1.41v3.22c0,.74,0,1.05,0,1.35-.37,0-.79,0-1.22,0Z" transform="translate(50.26)"/><path d="M182.5,220.7a2.14,2.14,0,0,0,1.05-.24.9.9,0,0,0,.47-.87c0-.58-.39-.76-1.47-1.17a6.48,6.48,0,0,1-1.37-.75,1.54,1.54,0,0,1-.56-1.35c0-1.13.89-1.83,2.23-1.83a4.09,4.09,0,0,1,2,.45,2.14,2.14,0,0,0-.27.72l-.09.05a3.64,3.64,0,0,0-1.48-.3c-.67,0-1.28.21-1.28.89s.5.89,1.33,1.17a4,4,0,0,1,1.51.8,1.8,1.8,0,0,1,.45,1.3c0,1.42-1.21,2.06-2.47,2.06a3.53,3.53,0,0,1-2-.59,2.64,2.64,0,0,0,.29-.77A3.07,3.07,0,0,0,182.5,220.7Z" transform="translate(50.26)"/><path d="M186.87,212a.73.73,0,0,1,.74.7.74.74,0,0,1-1.48,0A.73.73,0,0,1,186.87,212Zm-.59,8.17v-3.51c0-.34,0-1.72-.05-1.9a4.09,4.09,0,0,0,1-.25h.19v5.66c0,.74,0,1.18,0,1.35-.37,0-.79,0-1.22,0Z" transform="translate(50.26)"/><path d="M189.39,215.48l-1-.13v-.6l1-.21.09-1.38a3.66,3.66,0,0,0,.91-.22h.16v1.6h1.94a2.61,2.61,0,0,0-.06.53,2.55,2.55,0,0,0,0,.41h-1.89v3.92c0,.95.39,1.24,1,1.24a1.7,1.7,0,0,0,1-.34,3,3,0,0,0,.26.77,2.65,2.65,0,0,1-1.54.56c-1.09,0-1.85-.68-1.85-2.07Z" transform="translate(50.26)"/><path d="M202.07,221.14a1.33,1.33,0,0,1-1,.49c-.62,0-1.07-.39-1.23-1.23a3.57,3.57,0,0,1-.85.84,2.24,2.24,0,0,1-1.3.39,1.61,1.61,0,0,1-1.73-1.69c0-1,.95-2.11,3.82-2.46v-.7c0-.95-.42-1.39-1.24-1.39a1.12,1.12,0,0,0-1.26,1.27,8.24,8.24,0,0,0-1.08.12c0-.06,0-.12,0-.17,0-1.52,1.11-2.12,2.42-2.12a2.1,2.1,0,0,1,2.31,2.26v2.85c0,.62.08,1.12.54,1.12a.53.53,0,0,0,.37-.16A1.58,1.58,0,0,0,202.07,221.14Zm-2.29-3c-.94.14-2.69.49-2.69,1.67,0,.64.48.93,1.06.93a2.3,2.3,0,0,0,1.63-1Z" transform="translate(50.26)"/><path d="M203,216.39c0-.54,0-1.43-.06-1.6a4.53,4.53,0,0,0,1-.25h.19V216a3,3,0,0,1,2.39-1.47,1.84,1.84,0,0,1,1.91,1.47,3,3,0,0,1,2.4-1.47,1.88,1.88,0,0,1,2,2v3.75c0,.69,0,1.06,0,1.28-.37,0-.79,0-1.22,0v-4.75a1.18,1.18,0,0,0-.4-1.05,1.31,1.31,0,0,0-.83-.29,2.62,2.62,0,0,0-1.91,1.17v3.6a12.33,12.33,0,0,0,.05,1.28c-.41,0-.82,0-1.22,0v-4.75a1.15,1.15,0,0,0-.41-1.05,1.31,1.31,0,0,0-.83-.29,1.87,1.87,0,0,0-1.08.38,3.59,3.59,0,0,0-.87.87v3.45c0,.74,0,1.14,0,1.35-.38,0-.78,0-1.21,0Z" transform="translate(50.26)"/><path d="M217.13,214.49a2.58,2.58,0,0,1,2.71,2.78,6.06,6.06,0,0,1-.05.85h-4.55v.19a2.13,2.13,0,0,0,2.13,2.38,3,3,0,0,0,1.92-.68,4.57,4.57,0,0,0,.38.67,2.78,2.78,0,0,1-1.17.71,4,4,0,0,1-1.3.24c-1.78,0-3.15-1.2-3.15-3.54C214.05,216.06,215.37,214.49,217.13,214.49Zm1.67,2.86c0-.9-.33-2-1.63-2a2,2,0,0,0-1.92,2Z" transform="translate(50.26)"/><path d="M221.35,215.48l-1-.13v-.6l1-.21.09-1.38a3.89,3.89,0,0,0,.91-.22h.15v1.6h1.94a2.55,2.55,0,0,0-.05.53c0,.16,0,.29,0,.41h-1.88v3.92c0,.95.39,1.24,1,1.24a1.73,1.73,0,0,0,1-.34,2.41,2.41,0,0,0,.26.77,2.7,2.7,0,0,1-1.55.56c-1.09,0-1.84-.68-1.84-2.07Z" transform="translate(50.26)"/><path d="M225.61,222.63v-.08a1,1,0,0,0,.82-1c-.52,0-.85-.25-.85-.67a.72.72,0,0,1,.77-.74c.53,0,.83.38.83,1.09A1.83,1.83,0,0,1,226,223,2.37,2.37,0,0,0,225.61,222.63Z" transform="translate(50.26)"/><path d="M233.81,214.49a2.64,2.64,0,0,1,1.67.52,1.83,1.83,0,0,1,.67,1.56v.12h-.26a3.78,3.78,0,0,0-.76.06v-.19a1.29,1.29,0,0,0-.29-.8,1.22,1.22,0,0,0-1-.37,1.63,1.63,0,0,0-1.38.75,3.14,3.14,0,0,0-.53,1.86c0,1.52.66,2.69,2.15,2.69a3.19,3.19,0,0,0,1.86-.6,2.2,2.2,0,0,0,.36.66,3.58,3.58,0,0,1-2.38.88c-1.81,0-3.15-1.28-3.15-3.54C230.74,216.06,232,214.49,233.81,214.49Z" transform="translate(50.26)"/><path d="M240.07,221.63c-1.93,0-3.07-1.54-3.07-3.57s1.3-3.57,3.1-3.57,3.07,1.44,3.07,3.53S241.89,221.63,240.07,221.63Zm0-6.23c-1.21,0-1.93,1.13-1.93,2.62,0,1.72.82,2.66,1.93,2.66a1.65,1.65,0,0,0,1.36-.72A3,3,0,0,0,242,218C242,216.46,241.27,215.4,240.08,215.4Z" transform="translate(50.26)"/><path d="M244.46,216.39c0-.46-.05-1.59-.07-1.6a3.68,3.68,0,0,0,1-.25h.2V216a3,3,0,0,1,2.39-1.47,1.87,1.87,0,0,1,2,2v3.75a12.79,12.79,0,0,0,.06,1.28c-.41,0-.82,0-1.23,0v-4.75a1.18,1.18,0,0,0-.4-1.05,1.31,1.31,0,0,0-.83-.29,1.84,1.84,0,0,0-1.08.38,3.59,3.59,0,0,0-.87.87v3.45c0,.74,0,1.1,0,1.35-.38,0-.78,0-1.21,0Z" transform="translate(50.26)"/><path d="M253.23,220.7a2.18,2.18,0,0,0,1.06-.24.91.91,0,0,0,.46-.87c0-.58-.38-.76-1.46-1.17a6.57,6.57,0,0,1-1.38-.75,1.54,1.54,0,0,1-.56-1.35c0-1.13.9-1.83,2.23-1.83a4.09,4.09,0,0,1,2,.45,2.14,2.14,0,0,0-.27.72l-.09.05a3.64,3.64,0,0,0-1.48-.3c-.66,0-1.28.21-1.28.89s.5.89,1.33,1.17a4,4,0,0,1,1.51.8,1.75,1.75,0,0,1,.45,1.3c0,1.42-1.21,2.06-2.47,2.06a3.56,3.56,0,0,1-2-.59,2.64,2.64,0,0,0,.29-.77A3.12,3.12,0,0,0,253.23,220.7Z" transform="translate(50.26)"/><path d="M259.66,214.49a2.57,2.57,0,0,1,2.7,2.78,6.06,6.06,0,0,1-.05.85h-4.55v.19a2.14,2.14,0,0,0,2.13,2.38,3,3,0,0,0,1.92-.68,4.57,4.57,0,0,0,.38.67,2.78,2.78,0,0,1-1.17.71,4,4,0,0,1-1.3.24c-1.78,0-3.14-1.2-3.14-3.54C256.58,216.06,257.89,214.49,259.66,214.49Zm1.66,2.86c0-.9-.33-2-1.62-2a2,2,0,0,0-1.93,2Z" transform="translate(50.26)"/><path d="M266.27,214.49a2.64,2.64,0,0,1,1.67.52,1.83,1.83,0,0,1,.67,1.56v.12h-.26a3.78,3.78,0,0,0-.76.06v-.19a1.29,1.29,0,0,0-.29-.8,1.22,1.22,0,0,0-1-.37,1.63,1.63,0,0,0-1.38.75,3.14,3.14,0,0,0-.53,1.86c0,1.52.67,2.69,2.15,2.69a3.19,3.19,0,0,0,1.86-.6,2.2,2.2,0,0,0,.36.66,3.56,3.56,0,0,1-2.38.88c-1.81,0-3.15-1.28-3.15-3.54C263.2,216.06,264.47,214.49,266.27,214.49Z" transform="translate(50.26)"/><path d="M270.12,215.48l-1-.13v-.6l1-.21.09-1.38a3.66,3.66,0,0,0,.91-.22h.16v1.6h1.93a3.49,3.49,0,0,0,0,.53,2.55,2.55,0,0,0,0,.41h-1.89v3.92c0,.95.39,1.24,1,1.24a1.7,1.7,0,0,0,1-.34,3,3,0,0,0,.26.77,2.65,2.65,0,0,1-1.54.56c-1.1,0-1.85-.68-1.85-2.07Z" transform="translate(50.26)"/><path d="M277.05,214.49a2.57,2.57,0,0,1,2.7,2.78,6.06,6.06,0,0,1-.05.85h-4.55v.19a2.14,2.14,0,0,0,2.13,2.38,3.07,3.07,0,0,0,1.93-.68,4.58,4.58,0,0,0,.37.67,2.78,2.78,0,0,1-1.17.71,3.94,3.94,0,0,1-1.29.24c-1.79,0-3.15-1.2-3.15-3.54C274,216.06,275.28,214.49,277.05,214.49Zm1.66,2.86c0-.9-.32-2-1.62-2a2,2,0,0,0-1.93,2Z" transform="translate(50.26)"/><path d="M281.26,215.48l-1-.13v-.6l1-.21.09-1.38a3.66,3.66,0,0,0,.91-.22h.16v1.6h1.94a2.61,2.61,0,0,0-.06.53,2.55,2.55,0,0,0,0,.41h-1.89v3.92c0,.95.39,1.24,1,1.24a1.73,1.73,0,0,0,1-.34,2.41,2.41,0,0,0,.26.77,2.7,2.7,0,0,1-1.55.56c-1.09,0-1.85-.68-1.85-2.07Z" transform="translate(50.26)"/><path d="M285.67,216.37c0-.79-.05-1.56-.07-1.73a6.82,6.82,0,0,0,1-.1h.2v4.67a1.3,1.3,0,0,0,.4,1.06,1.28,1.28,0,0,0,.85.34,2.72,2.72,0,0,0,1.84-1v-3.09c0-.92-.05-1.66-.06-1.89a6.94,6.94,0,0,0,1-.1h.2v5.19a10.51,10.51,0,0,0,.17,1.82c-.37,0-.79,0-1.22,0,0-.15-.1-.61-.12-1.19a3.05,3.05,0,0,1-2.28,1.23,2,2,0,0,1-2-2.11Z" transform="translate(50.26)"/><path d="M295.55,214.49a2.57,2.57,0,0,1,2.7,2.78,6.06,6.06,0,0,1-.05.85h-4.55v.19a2.14,2.14,0,0,0,2.13,2.38,3.07,3.07,0,0,0,1.93-.68,4.58,4.58,0,0,0,.37.67,2.78,2.78,0,0,1-1.17.71,4,4,0,0,1-1.3.24c-1.78,0-3.14-1.2-3.14-3.54C292.47,216.06,293.78,214.49,295.55,214.49Zm1.66,2.86c0-.9-.32-2-1.62-2a2,2,0,0,0-1.93,2Z" transform="translate(50.26)"/><path d="M299.55,216.39c0-.46-.06-1.38-.06-1.6a4,4,0,0,0,1-.25h.19V216a2,2,0,0,1,1.76-1.48,1.89,1.89,0,0,1,1.06.28,3.77,3.77,0,0,0-.39,1,1.4,1.4,0,0,0-.78-.22c-.66,0-1.17.34-1.65,1.41v3.22c0,.74,0,1.05.06,1.35-.38,0-.8,0-1.23,0Z" transform="translate(50.26)"/><path d="M86.16,236.75a1.33,1.33,0,0,1-1,.48c-.61,0-1.07-.39-1.23-1.23a3.57,3.57,0,0,1-.85.84,2.24,2.24,0,0,1-1.3.39,1.61,1.61,0,0,1-1.73-1.69c0-1,1-2.11,3.82-2.46v-.7c0-.95-.42-1.39-1.24-1.39a1.12,1.12,0,0,0-1.26,1.27,8.24,8.24,0,0,0-1.08.12s0-.12,0-.17c0-1.52,1.11-2.12,2.42-2.12A2.1,2.1,0,0,1,85,232.35v2.85c0,.62.08,1.12.54,1.12a.51.51,0,0,0,.37-.16A1.94,1.94,0,0,0,86.16,236.75Zm-2.29-3c-.94.14-2.69.49-2.69,1.67,0,.64.48.93,1.06.93a2.28,2.28,0,0,0,1.63-1Z" transform="translate(50.26)"/><path d="M86.46,233.77c0-2.34,1.45-3.68,3.18-3.68a2.91,2.91,0,0,1,1.51.39c0-.38,0-2.82,0-3a6.86,6.86,0,0,0,1-.23h.18v8.18a8.84,8.84,0,0,0,.18,1.72c-.38,0-.78,0-1.21,0a3.27,3.27,0,0,1-.09-.67,2.74,2.74,0,0,1-1.81.71C87.83,237.23,86.46,235.94,86.46,233.77Zm3.4-2.86c-1.17,0-2.21,1-2.21,2.72a3.09,3.09,0,0,0,.57,1.92,1.82,1.82,0,0,0,1.49.73,2.33,2.33,0,0,0,1.45-.51c0-.14,0-1.46,0-4.32A1.62,1.62,0,0,0,89.86,230.91Z" transform="translate(50.26)"/><path d="M94.62,227.63a.73.73,0,0,1,.74.7.74.74,0,0,1-1.48,0A.73.73,0,0,1,94.62,227.63ZM94,235.8v-3.51c0-.34,0-1.72-.06-1.9a3.38,3.38,0,0,0,1-.25h.2v5.66c0,.74,0,1.18,0,1.35-.37,0-.79,0-1.22,0Z" transform="translate(50.26)"/><path d="M97,232.3a18.71,18.71,0,0,0-.08-1.91,5.09,5.09,0,0,0,1.06-.25h.18a5.37,5.37,0,0,0,0,.57,2.83,2.83,0,0,1,1.77-.62c1.57,0,2.92,1.23,2.92,3.42s-1.46,3.72-3.19,3.72a3,3,0,0,1-1.5-.41v1.93a10.59,10.59,0,0,0,0,1.18c-.38,0-.8,0-1.23,0,0-.17,0-2.11,0-2.28Zm4.65,1.35c0-1.6-.84-2.61-2-2.61a2.45,2.45,0,0,0-1.45.44v4.36a1.64,1.64,0,0,0,1.3.55C100.59,236.39,101.61,235.35,101.61,233.65Z" transform="translate(50.26)"/><path d="M104.68,227.63a.73.73,0,0,1,.74.7.74.74,0,0,1-1.48,0A.73.73,0,0,1,104.68,227.63Zm-.58,8.17v-3.51c0-.34,0-1.72-.06-1.9a3.38,3.38,0,0,0,1-.25h.2v5.66c0,.74,0,1.18,0,1.35-.38,0-.8,0-1.23,0Z" transform="translate(50.26)"/><path d="M108.52,236.3a2.14,2.14,0,0,0,1-.24.91.91,0,0,0,.47-.87c0-.58-.39-.76-1.47-1.17a6.57,6.57,0,0,1-1.38-.75,1.54,1.54,0,0,1-.56-1.35c0-1.13.9-1.83,2.24-1.83a4.14,4.14,0,0,1,2,.45,2,2,0,0,0-.28.72l-.09.05A3.82,3.82,0,0,0,109,231c-.66,0-1.27.21-1.27.89s.49.89,1.32,1.17a4,4,0,0,1,1.51.8,1.76,1.76,0,0,1,.46,1.3c0,1.42-1.21,2.06-2.47,2.06a3.51,3.51,0,0,1-2-.59,2.65,2.65,0,0,0,.28-.77A3.13,3.13,0,0,0,108.52,236.3Z" transform="translate(50.26)"/><path d="M114.93,230.09a2.63,2.63,0,0,1,1.66.52,1.83,1.83,0,0,1,.68,1.56v.12H117a3.94,3.94,0,0,0-.77.06v-.19a1.23,1.23,0,0,0-.29-.8,1.21,1.21,0,0,0-1-.37,1.61,1.61,0,0,0-1.38.75,3.15,3.15,0,0,0-.54,1.86c0,1.52.67,2.69,2.15,2.69a3.19,3.19,0,0,0,1.86-.6,2.67,2.67,0,0,0,.36.67,3.6,3.6,0,0,1-2.38.87c-1.8,0-3.14-1.28-3.14-3.54C111.86,231.66,113.12,230.09,114.93,230.09Z" transform="translate(50.26)"/><path d="M119.14,227.63a.74.74,0,0,1,.74.7.74.74,0,0,1-1.48,0A.73.73,0,0,1,119.14,227.63Zm-.59,8.17v-3.51c0-.34,0-1.72,0-1.9a3.46,3.46,0,0,0,1-.25h.19v5.66c0,.74,0,1.18,0,1.35-.38,0-.79,0-1.22,0Z" transform="translate(50.26)"/><path d="M121.45,232c0-.46,0-1.59-.06-1.6a3.44,3.44,0,0,0,1-.25h.19v1.42a3,3,0,0,1,2.39-1.47,1.87,1.87,0,0,1,2,2v3.75c0,.69,0,1,0,1.28-.4,0-.82,0-1.22,0v-4.75a1.15,1.15,0,0,0-.41-1.05,1.31,1.31,0,0,0-.83-.29,1.87,1.87,0,0,0-1.08.38,3.59,3.59,0,0,0-.87.87v3.45c0,.74,0,1.1,0,1.35-.38,0-.78,0-1.21,0Z" transform="translate(50.26)"/><path d="M129.28,236.81a1.12,1.12,0,0,1-.81-1,1.61,1.61,0,0,1,.92-1.29,2.24,2.24,0,0,1-1-1.9,2.32,2.32,0,0,1,2.49-2.53,3.1,3.1,0,0,1,1.12.22l2.27-.12a3.8,3.8,0,0,0,0,.46V231l-.08.05-1.3,0a2.51,2.51,0,0,1,.49,1.57,2.47,2.47,0,0,1-3.42,2.14,1.07,1.07,0,0,0-.47.74c0,.35.32.57.95.57h1.49c1.51,0,2.34.56,2.34,1.65,0,1.39-1.51,2.2-3.18,2.2a4.09,4.09,0,0,1-2.16-.51,1.45,1.45,0,0,1-.82-1.25A1.44,1.44,0,0,1,129.28,236.81Zm2.45.1h-1.8a1.2,1.2,0,0,0-.78,1c0,.63.74,1.15,2,1.15a2.9,2.9,0,0,0,1.5-.36,1,1,0,0,0,.63-.87C133.27,237.28,132.84,236.91,131.73,236.91Zm-.84-6.08c-1,0-1.37.83-1.37,1.7a1.52,1.52,0,0,0,1.38,1.65,1.13,1.13,0,0,0,1-.5,2.16,2.16,0,0,0,.34-1.17C132.28,231.66,131.85,230.83,130.89,230.83Z" transform="translate(50.26)"/><path d="M140.6,230.09a2.57,2.57,0,0,1,2.7,2.78,6.06,6.06,0,0,1-.05.85H138.7v.19a2.14,2.14,0,0,0,2.13,2.38,3.05,3.05,0,0,0,1.93-.68,3.48,3.48,0,0,0,.38.67A2.9,2.9,0,0,1,142,237a4.05,4.05,0,0,1-1.31.24c-1.78,0-3.14-1.2-3.14-3.54C137.52,231.66,138.83,230.09,140.6,230.09Zm1.66,2.86c0-.9-.32-2-1.62-2a2,2,0,0,0-1.92,2Z" transform="translate(50.26)"/><path d="M144.59,229.44c0-.27,0-1.81,0-2a5,5,0,0,0,1-.23h.18v8.48a10.6,10.6,0,0,0,.05,1.42c-.37,0-.82,0-1.23,0,0-.12,0-1.28,0-1.46Z" transform="translate(50.26)"/><path d="M148.06,227.63a.73.73,0,0,1,.74.7.74.74,0,0,1-1.48,0A.73.73,0,0,1,148.06,227.63Zm-.58,8.17v-3.51c0-.34,0-1.72-.06-1.9a3.38,3.38,0,0,0,1-.25h.2v5.66c0,.74,0,1.18,0,1.35-.38,0-.8,0-1.23,0Z" transform="translate(50.26)"/><path d="M150.58,231.08l-1-.13v-.6l1-.21.09-1.38a3.66,3.66,0,0,0,.91-.22h.16v1.6h1.94a2.55,2.55,0,0,0-.05.53c0,.16,0,.29,0,.41h-1.89V235c0,.95.39,1.24,1,1.24a1.73,1.73,0,0,0,1-.34,2.41,2.41,0,0,0,.26.77,2.7,2.7,0,0,1-1.55.56c-1.09,0-1.85-.68-1.85-2.07Z" transform="translate(50.26)"/><path d="M154.85,238.23v-.08a1,1,0,0,0,.82-1c-.52,0-.85-.25-.85-.67a.72.72,0,0,1,.77-.74c.53,0,.83.38.83,1.1a1.83,1.83,0,0,1-1.23,1.72A2.37,2.37,0,0,0,154.85,238.23Z" transform="translate(50.26)"/><path d="M162,236.3a2.14,2.14,0,0,0,1-.24.91.91,0,0,0,.47-.87c0-.58-.39-.76-1.47-1.17a6.57,6.57,0,0,1-1.38-.75,1.56,1.56,0,0,1-.56-1.35c0-1.13.9-1.83,2.24-1.83a4.09,4.09,0,0,1,2,.45,2,2,0,0,0-.27.72l-.09.05a3.87,3.87,0,0,0-1.49-.3c-.66,0-1.27.21-1.27.89s.49.89,1.32,1.17a3.94,3.94,0,0,1,1.51.8,1.76,1.76,0,0,1,.46,1.3c0,1.42-1.21,2.06-2.47,2.06a3.51,3.51,0,0,1-2-.59,2.39,2.39,0,0,0,.28-.77A3.13,3.13,0,0,0,162,236.3Z" transform="translate(50.26)"/><path d="M168.38,230.09a2.57,2.57,0,0,1,2.7,2.78,6.06,6.06,0,0,1-.05.85h-4.55v.19a2.14,2.14,0,0,0,2.14,2.38,3,3,0,0,0,1.92-.68,3.48,3.48,0,0,0,.38.67,2.9,2.9,0,0,1-1.17.71,4,4,0,0,1-1.3.24c-1.79,0-3.15-1.2-3.15-3.54C165.3,231.66,166.61,230.09,168.38,230.09ZM170,233c0-.9-.32-2-1.62-2a2,2,0,0,0-1.92,2Z" transform="translate(50.26)"/><path d="M171.93,233.77c0-2.34,1.46-3.68,3.19-3.68a2.85,2.85,0,0,1,1.5.39c0-.38,0-2.82,0-3a6.86,6.86,0,0,0,1-.23h.18v8.18a7.93,7.93,0,0,0,.19,1.72c-.38,0-.78,0-1.21,0a3,3,0,0,1-.1-.67,2.73,2.73,0,0,1-1.8.71C173.31,237.23,171.93,235.94,171.93,233.77Zm3.41-2.86c-1.17,0-2.21,1-2.21,2.72a3,3,0,0,0,.57,1.92,1.81,1.81,0,0,0,1.48.73,2.36,2.36,0,0,0,1.46-.51c0-.14,0-1.46,0-4.32A1.61,1.61,0,0,0,175.34,230.91Z" transform="translate(50.26)"/><path d="M181.67,233.77c0-2.34,1.45-3.68,3.18-3.68a2.91,2.91,0,0,1,1.51.39c0-.38,0-2.82,0-3a6.86,6.86,0,0,0,1-.23h.18v8.18a8.84,8.84,0,0,0,.18,1.72c-.38,0-.78,0-1.21,0a3.27,3.27,0,0,1-.09-.67,2.74,2.74,0,0,1-1.81.71C183,237.23,181.67,235.94,181.67,233.77Zm3.4-2.86c-1.17,0-2.21,1-2.21,2.72a3.09,3.09,0,0,0,.57,1.92,1.82,1.82,0,0,0,1.49.73,2.33,2.33,0,0,0,1.45-.51c0-.14,0-1.46,0-4.32A1.62,1.62,0,0,0,185.07,230.91Z" transform="translate(50.26)"/><path d="M189.83,227.63a.73.73,0,0,1,.74.7.74.74,0,0,1-1.48,0A.73.73,0,0,1,189.83,227.63Zm-.59,8.17v-3.51c0-.34,0-1.72-.05-1.9a3.38,3.38,0,0,0,1-.25h.2v5.66c0,.74,0,1.18,0,1.35-.37,0-.79,0-1.22,0Z" transform="translate(50.26)"/><path d="M197.79,236.75a1.35,1.35,0,0,1-1,.48c-.62,0-1.07-.39-1.23-1.23a3.45,3.45,0,0,1-.86.84,2.19,2.19,0,0,1-1.29.39,1.61,1.61,0,0,1-1.73-1.69c0-1,.94-2.11,3.82-2.46v-.7c0-.95-.42-1.39-1.24-1.39a1.12,1.12,0,0,0-1.26,1.27,8.24,8.24,0,0,0-1.08.12s0-.12,0-.17c0-1.52,1.11-2.12,2.42-2.12a2.1,2.1,0,0,1,2.31,2.26v2.85c0,.62.08,1.12.54,1.12a.53.53,0,0,0,.37-.16A1.72,1.72,0,0,0,197.79,236.75Zm-2.29-3c-.94.14-2.69.49-2.69,1.67,0,.64.48.93,1.06.93a2.3,2.3,0,0,0,1.63-1Z" transform="translate(50.26)"/><path d="M198.67,232c0-.54,0-1.43-.06-1.6a4.06,4.06,0,0,0,1-.25h.19v1.42a3,3,0,0,1,2.39-1.47,1.84,1.84,0,0,1,1.91,1.47,3,3,0,0,1,2.4-1.47,1.88,1.88,0,0,1,2,2v3.75c0,.69,0,1.06,0,1.28-.37,0-.79,0-1.22,0v-4.75a1.18,1.18,0,0,0-.4-1.05,1.31,1.31,0,0,0-.83-.29,2.62,2.62,0,0,0-1.91,1.17v3.6a12.33,12.33,0,0,0,.05,1.28c-.41,0-.82,0-1.22,0v-4.75a1.15,1.15,0,0,0-.41-1.05,1.31,1.31,0,0,0-.83-.29,1.87,1.87,0,0,0-1.08.38,3.59,3.59,0,0,0-.87.87v3.45c0,.74,0,1.14,0,1.35-.38,0-.78,0-1.21,0Z" transform="translate(50.26)"/><path d="M212.83,232c0-.46-.05-1.59-.07-1.6a3.37,3.37,0,0,0,1-.25h.2v1.42a3,3,0,0,1,2.39-1.47,1.87,1.87,0,0,1,2,2v3.75c0,.69,0,1,.05,1.28-.4,0-.81,0-1.22,0v-4.75a1.18,1.18,0,0,0-.4-1.05,1.31,1.31,0,0,0-.83-.29,1.84,1.84,0,0,0-1.08.38,3.59,3.59,0,0,0-.87.87v3.45c0,.74,0,1.1,0,1.35-.38,0-.78,0-1.21,0Z" transform="translate(50.26)"/><path d="M222.69,237.23c-1.92,0-3.06-1.54-3.06-3.57s1.3-3.57,3.1-3.57,3.07,1.44,3.07,3.54S224.51,237.23,222.69,237.23Zm0-6.23c-1.21,0-1.93,1.13-1.93,2.63,0,1.71.82,2.65,1.93,2.65a1.65,1.65,0,0,0,1.36-.72,3,3,0,0,0,.56-1.93C224.63,232.07,223.9,231,222.71,231Z" transform="translate(50.26)"/><path d="M227.09,232c0-.46-.05-1.59-.07-1.6a3.37,3.37,0,0,0,1-.25h.2v1.42a3,3,0,0,1,2.39-1.47,1.87,1.87,0,0,1,2,2v3.75c0,.69,0,1,0,1.28-.4,0-.81,0-1.22,0v-4.75a1.18,1.18,0,0,0-.4-1.05,1.31,1.31,0,0,0-.83-.29,1.84,1.84,0,0,0-1.08.38,3.59,3.59,0,0,0-.87.87v3.45c0,.74,0,1.1,0,1.35-.38,0-.78,0-1.21,0Z" transform="translate(50.26)"/><path d="M234.32,232c0-.79-.06-1.56-.07-1.72a7.35,7.35,0,0,0,1-.11h.2v4.67a1.3,1.3,0,0,0,.4,1.06,1.28,1.28,0,0,0,.84.34,2.69,2.69,0,0,0,1.85-1v-3.09c0-.92-.05-1.66-.06-1.88a7.13,7.13,0,0,0,1-.11h.21v5.19a9.49,9.49,0,0,0,.17,1.82c-.38,0-.79,0-1.22,0a8.35,8.35,0,0,1-.12-1.19,3.09,3.09,0,0,1-2.29,1.23,2,2,0,0,1-2-2.11Z" transform="translate(50.26)"/><path d="M241.57,232a14.79,14.79,0,0,0-.07-1.6,3.87,3.87,0,0,0,1-.25h.2v1.42a3,3,0,0,1,2.39-1.47,1.84,1.84,0,0,1,1.91,1.47,3,3,0,0,1,2.4-1.47,1.88,1.88,0,0,1,2,2v3.75c0,.69,0,1.06,0,1.28-.37,0-.79,0-1.22,0v-4.75a1.18,1.18,0,0,0-.4-1.05,1.31,1.31,0,0,0-.83-.29,2.62,2.62,0,0,0-1.91,1.17v3.6a12.33,12.33,0,0,0,.05,1.28c-.41,0-.82,0-1.23,0v-4.75a1.18,1.18,0,0,0-.4-1.05,1.31,1.31,0,0,0-.83-.29,1.87,1.87,0,0,0-1.08.38,3.59,3.59,0,0,0-.87.87v3.45c0,.74,0,1.14,0,1.35-.38,0-.78,0-1.21,0Z" transform="translate(50.26)"/><path d="M253.13,232a14.79,14.79,0,0,0-.07-1.6,4,4,0,0,0,1-.25h.2v1.42a3,3,0,0,1,2.39-1.47,1.85,1.85,0,0,1,1.91,1.47,3,3,0,0,1,2.39-1.47,1.88,1.88,0,0,1,2,2v3.75c0,.69,0,1.06,0,1.28-.38,0-.79,0-1.22,0v-4.75a1.18,1.18,0,0,0-.4-1.05,1.34,1.34,0,0,0-.84-.29,2.66,2.66,0,0,0-1.91,1.17v3.6c0,.69,0,1.11.05,1.28-.4,0-.81,0-1.22,0v-4.75a1.18,1.18,0,0,0-.4-1.05,1.31,1.31,0,0,0-.83-.29,1.84,1.84,0,0,0-1.08.38,3.59,3.59,0,0,0-.87.87v3.45c0,.74,0,1.14,0,1.35-.38,0-.78,0-1.21,0Z" transform="translate(50.26)"/><path d="M266.91,235.35c.06.23.17.54.18.64l.09-.34.1-.3.45-1.27c.19-.57.37-1.14.56-1.7l.49-1.52.23-.72c.28,0,.91,0,1.19,0l-.48,1.33-.91,2.51-.9,2.49-.44,1.26a4.4,4.4,0,0,1-.8,1.56,1.7,1.7,0,0,1-1.41.63,2.3,2.3,0,0,1-1.23-.38,2.55,2.55,0,0,0,.36-.81,2,2,0,0,0,.85.24c.46,0,.76-.35,1.06-1.09.06-.21.18-.46.27-.76l-2.76-7h1.28Z" transform="translate(50.26)"/><path d="M273.63,232c0-.46-.05-1.59-.07-1.6a3.37,3.37,0,0,0,1-.25h.2v1.42a3,3,0,0,1,2.39-1.47,1.87,1.87,0,0,1,2,2v3.75a12.79,12.79,0,0,0,.06,1.28c-.41,0-.82,0-1.23,0v-4.75a1.18,1.18,0,0,0-.4-1.05,1.31,1.31,0,0,0-.83-.29,1.84,1.84,0,0,0-1.08.38,3.59,3.59,0,0,0-.87.87v3.45c0,.74,0,1.1,0,1.35-.38,0-.78,0-1.21,0Z" transform="translate(50.26)"/><path d="M281.45,227.63a.74.74,0,0,1,.75.7.75.75,0,0,1-1.49,0A.74.74,0,0,1,281.45,227.63Zm-.58,8.17v-3.51c0-.34,0-1.72-.05-1.9a3.39,3.39,0,0,0,1-.25h.2v5.66c0,.74,0,1.18,0,1.35-.38,0-.79,0-1.22,0Z" transform="translate(50.26)"/><path d="M284.21,237.15h-.47v-8.33c0-.24,0-1.24,0-1.34a5.11,5.11,0,0,0,1-.23h.17c0,.36,0,3,0,3.45a2.79,2.79,0,0,1,1.75-.61c1.58,0,2.93,1.23,2.93,3.42s-1.46,3.72-3.17,3.72a3.4,3.4,0,0,1-1.69-.48Zm4.17-3.5c0-1.6-.83-2.61-2-2.61a2.42,2.42,0,0,0-1.44.44c0,2.9,0,4.21,0,4.36a1.64,1.64,0,0,0,1.3.55C287.36,236.39,288.38,235.35,288.38,233.65Z" transform="translate(50.26)"/><path d="M290.88,229.41c0-.39,0-1.86,0-1.93a5.2,5.2,0,0,0,1-.23h.18v4.32a3,3,0,0,1,2.39-1.48,1.88,1.88,0,0,1,2,2v3.75c0,.69,0,1.16.05,1.28a12.13,12.13,0,0,0-1.22,0v-4.75a1.15,1.15,0,0,0-.41-1.05,1.35,1.35,0,0,0-.83-.29,2.64,2.64,0,0,0-2,1.26v3.37a10.21,10.21,0,0,0,.05,1.42c-.4,0-.82,0-1.23,0,0-.16,0-1.34,0-1.47Z" transform="translate(50.26)"/><path d="M94.87,245.69a2.58,2.58,0,0,1,2.71,2.78,6.06,6.06,0,0,1,0,.85H93v.19a2.14,2.14,0,0,0,2.13,2.38,3,3,0,0,0,1.92-.68,4.57,4.57,0,0,0,.38.67,2.78,2.78,0,0,1-1.17.71,4,4,0,0,1-1.3.24c-1.78,0-3.15-1.2-3.15-3.54C91.79,247.26,93.11,245.69,94.87,245.69Zm1.67,2.86c0-.9-.33-2-1.63-2a2,2,0,0,0-1.92,2Z" transform="translate(50.26)"/><path d="M98.85,247.57c0-.79,0-1.56-.06-1.73a7.05,7.05,0,0,0,1-.1H100v4.67a1.27,1.27,0,0,0,1.25,1.4,2.73,2.73,0,0,0,1.85-1v-3.09c0-.92-.06-1.66-.07-1.89a6.94,6.94,0,0,0,1-.1h.21v5.19a10.76,10.76,0,0,0,.16,1.82c-.37,0-.79,0-1.22,0a11.17,11.17,0,0,1-.11-1.19,3.09,3.09,0,0,1-2.29,1.23,2,2,0,0,1-2-2.11Z" transform="translate(50.26)"/><path d="M106.68,243.23a.73.73,0,0,1,.74.7.74.74,0,0,1-1.48,0A.73.73,0,0,1,106.68,243.23Zm-.59,8.17v-3.51c0-.34,0-1.72,0-1.9a4.2,4.2,0,0,0,1-.25h.19v5.66c0,.74,0,1.18,0,1.35-.38,0-.79,0-1.22,0Z" transform="translate(50.26)"/><path d="M110.51,251.9a2.21,2.21,0,0,0,1.06-.24.91.91,0,0,0,.46-.87c0-.58-.39-.76-1.46-1.17a6.33,6.33,0,0,1-1.38-.75,1.54,1.54,0,0,1-.56-1.35c0-1.13.9-1.83,2.23-1.83a4.09,4.09,0,0,1,2,.45,2.14,2.14,0,0,0-.27.72l-.09,0a3.64,3.64,0,0,0-1.48-.3c-.67,0-1.28.21-1.28.89s.5.89,1.33,1.17a4,4,0,0,1,1.51.8,1.75,1.75,0,0,1,.45,1.3c0,1.42-1.21,2.06-2.47,2.06a3.56,3.56,0,0,1-2-.59,2.64,2.64,0,0,0,.29-.77A3.09,3.09,0,0,0,110.51,251.9Z" transform="translate(50.26)"/><path d="M114.31,247.59a14.79,14.79,0,0,0-.07-1.6,4.4,4.4,0,0,0,1-.25h.2v1.42a3,3,0,0,1,2.39-1.47,1.84,1.84,0,0,1,1.91,1.47,3,3,0,0,1,2.39-1.47,1.88,1.88,0,0,1,2,2v3.75c0,.69,0,1.06,0,1.28-.37,0-.79,0-1.22,0V248a1.18,1.18,0,0,0-.4-1,1.34,1.34,0,0,0-.84-.29,2.66,2.66,0,0,0-1.91,1.17v3.6a11.22,11.22,0,0,0,.06,1.28c-.41,0-.82,0-1.23,0V248a1.18,1.18,0,0,0-.4-1,1.31,1.31,0,0,0-.83-.29,1.84,1.84,0,0,0-1.08.38,3.59,3.59,0,0,0-.87.87v3.45c0,.74,0,1.14,0,1.35-.38,0-.78,0-1.21,0Z" transform="translate(50.26)"/><path d="M128.48,252.83c-1.93,0-3.07-1.54-3.07-3.57s1.3-3.57,3.11-3.57,3.07,1.44,3.07,3.53S130.3,252.83,128.48,252.83Zm0-6.23c-1.21,0-1.92,1.13-1.92,2.62,0,1.72.82,2.66,1.92,2.66a1.66,1.66,0,0,0,1.37-.72,3.09,3.09,0,0,0,.56-1.94C130.42,247.67,129.69,246.6,128.49,246.6Z" transform="translate(50.26)"/><path d="M132.42,249.37c0-2.34,1.45-3.68,3.18-3.68a2.91,2.91,0,0,1,1.51.39c0-.38,0-2.82,0-3a6.86,6.86,0,0,0,1-.23h.18V251a8.94,8.94,0,0,0,.18,1.72c-.37,0-.78,0-1.21,0a4.3,4.3,0,0,1-.09-.67,2.73,2.73,0,0,1-1.8.71C133.8,252.83,132.42,251.54,132.42,249.37Zm3.4-2.86c-1.17,0-2.21,1-2.21,2.71a3,3,0,0,0,.58,1.93,1.79,1.79,0,0,0,1.48.73,2.31,2.31,0,0,0,1.45-.51c0-.14,0-1.46,0-4.32A1.62,1.62,0,0,0,135.82,246.51Z" transform="translate(50.26)"/><path d="M142.82,246.68l-1-.13,0-.6,1-.21.09-1.38a3.89,3.89,0,0,0,.91-.22H144v1.6h1.94a2.55,2.55,0,0,0,0,.53c0,.16,0,.29,0,.41H144v3.92c0,1,.39,1.24,1,1.24a1.71,1.71,0,0,0,1-.34,2.41,2.41,0,0,0,.26.77,2.7,2.7,0,0,1-1.55.56c-1.09,0-1.84-.68-1.84-2.07Z" transform="translate(50.26)"/><path d="M147.82,243.23a.73.73,0,0,1,.74.7.74.74,0,1,1-.74-.7Zm-.58,8.17v-3.51c0-.34,0-1.72-.05-1.9a4.12,4.12,0,0,0,1-.25h.2v5.66c0,.74,0,1.18,0,1.35-.38,0-.8,0-1.23,0Z" transform="translate(50.26)"/><path d="M150.14,247.59c0-.46-.06-1.59-.07-1.6a3.68,3.68,0,0,0,1-.25h.2v1.42a3,3,0,0,1,2.39-1.47,1.87,1.87,0,0,1,2,2v3.75c0,.69,0,1,.05,1.28-.4,0-.82,0-1.22,0V248a1.18,1.18,0,0,0-.4-1,1.31,1.31,0,0,0-.83-.29,1.84,1.84,0,0,0-1.08.38,3.59,3.59,0,0,0-.87.87v3.45c0,.74,0,1.1,0,1.35-.38,0-.78,0-1.21,0Z" transform="translate(50.26)"/><path d="M160,245.69a2.64,2.64,0,0,1,1.67.52,1.83,1.83,0,0,1,.67,1.56v.12h-.26a3.78,3.78,0,0,0-.76.06v-.19a1.23,1.23,0,0,0-.29-.8,1.22,1.22,0,0,0-1-.37,1.63,1.63,0,0,0-1.38.75,3.14,3.14,0,0,0-.53,1.86c0,1.52.67,2.69,2.15,2.69a3.19,3.19,0,0,0,1.86-.6,2.39,2.39,0,0,0,.36.67,3.6,3.6,0,0,1-2.38.87c-1.81,0-3.14-1.28-3.14-3.54C156.94,247.26,158.2,245.69,160,245.69Z" transform="translate(50.26)"/><path d="M164.21,243.23a.74.74,0,0,1,.75.7.75.75,0,0,1-1.49,0A.74.74,0,0,1,164.21,243.23Zm-.58,8.17v-3.51c0-.34,0-1.72,0-1.9a4.31,4.31,0,0,0,1-.25h.19v5.66c0,.74,0,1.18,0,1.35-.38,0-.79,0-1.22,0Z" transform="translate(50.26)"/><path d="M166.07,249.37c0-2.34,1.46-3.68,3.19-3.68a2.91,2.91,0,0,1,1.51.39c0-.38,0-2.82,0-3a7,7,0,0,0,1-.23h.19V251a8.19,8.19,0,0,0,.18,1.72c-.38,0-.78,0-1.21,0a3.27,3.27,0,0,1-.09-.67,2.76,2.76,0,0,1-1.81.71C167.45,252.83,166.07,251.54,166.07,249.37Zm3.41-2.86c-1.17,0-2.21,1-2.21,2.71a3,3,0,0,0,.57,1.93,1.81,1.81,0,0,0,1.48.73,2.36,2.36,0,0,0,1.46-.51c0-.14,0-1.46,0-4.32A1.65,1.65,0,0,0,169.48,246.51Z" transform="translate(50.26)"/><path d="M173.64,247.57c0-.79,0-1.56-.06-1.73a7.05,7.05,0,0,0,1-.1h.19v4.67a1.27,1.27,0,0,0,1.25,1.4,2.72,2.72,0,0,0,1.84-1v-3.09c0-.92-.05-1.66-.06-1.89a6.94,6.94,0,0,0,1-.1h.2v5.19a10.51,10.51,0,0,0,.17,1.82c-.37,0-.79,0-1.22,0,0-.15-.1-.61-.12-1.19a3.05,3.05,0,0,1-2.28,1.23,2,2,0,0,1-2-2.11Z" transform="translate(50.26)"/><path d="M180.89,247.59c0-.46,0-1.59-.06-1.6a3.76,3.76,0,0,0,1-.25h.19v1.42a3,3,0,0,1,2.4-1.47,1.87,1.87,0,0,1,2,2v3.75c0,.69,0,1,.05,1.28-.4,0-.82,0-1.22,0V248a1.18,1.18,0,0,0-.4-1,1.34,1.34,0,0,0-.84-.29,1.89,1.89,0,0,0-1.08.38,3.78,3.78,0,0,0-.87.87v3.45c0,.74,0,1.1,0,1.35-.37,0-.78,0-1.21,0Z" transform="translate(50.26)"/><path d="M188.36,246.68l-1-.13V246l1-.21.09-1.38a3.89,3.89,0,0,0,.91-.22h.15v1.6h1.94a2.55,2.55,0,0,0,0,.53c0,.16,0,.29,0,.41h-1.88v3.92c0,1,.39,1.24,1,1.24a1.73,1.73,0,0,0,1-.34,2.41,2.41,0,0,0,.26.77,2.7,2.7,0,0,1-1.55.56c-1.09,0-1.84-.68-1.84-2.07Z" transform="translate(50.26)"/><path d="M195.36,247.57c0-.79-.05-1.56-.06-1.73a7.05,7.05,0,0,0,1-.1h.19v4.67a1.29,1.29,0,0,0,1.25,1.4,2.73,2.73,0,0,0,1.85-1v-3.09c0-.92,0-1.66-.07-1.89a6.94,6.94,0,0,0,1-.1h.21v5.19a9.58,9.58,0,0,0,.17,1.82c-.38,0-.8,0-1.23,0a11.17,11.17,0,0,1-.11-1.19,3.09,3.09,0,0,1-2.29,1.23,2,2,0,0,1-2-2.11Z" transform="translate(50.26)"/><path d="M202.83,246.68l-1-.13V246l1-.21.09-1.38a3.89,3.89,0,0,0,.91-.22H204v1.6h1.94a2.55,2.55,0,0,0,0,.53c0,.16,0,.29,0,.41H204v3.92c0,1,.39,1.24,1,1.24a1.73,1.73,0,0,0,1-.34,2.41,2.41,0,0,0,.26.77,2.7,2.7,0,0,1-1.55.56c-1.09,0-1.84-.68-1.84-2.07Z" transform="translate(50.26)"/><path d="M209.84,245c0-.27,0-1.81,0-2a5.11,5.11,0,0,0,1-.23H211v8.48a10.6,10.6,0,0,0,0,1.42c-.38,0-.82,0-1.24,0,0-.12,0-1.28,0-1.46Z" transform="translate(50.26)"/><path d="M218.39,252.34a1.33,1.33,0,0,1-1,.49c-.61,0-1.06-.39-1.22-1.23a3.45,3.45,0,0,1-.86.84,2.2,2.2,0,0,1-1.3.39,1.61,1.61,0,0,1-1.72-1.69c0-1,.94-2.11,3.82-2.46V248c0-.95-.42-1.39-1.24-1.39a1.12,1.12,0,0,0-1.26,1.27,8.24,8.24,0,0,0-1.08.12c0-.06,0-.12,0-.17,0-1.52,1.11-2.12,2.42-2.12a2.1,2.1,0,0,1,2.31,2.26v2.85c0,.62.08,1.12.54,1.12a.53.53,0,0,0,.37-.16A1.43,1.43,0,0,0,218.39,252.34Zm-2.29-3c-.94.14-2.69.49-2.69,1.67,0,.64.48.93,1.06.93a2.3,2.3,0,0,0,1.63-1Z" transform="translate(50.26)"/><path d="M221.75,252.83c-1.92,0-3.07-1.54-3.07-3.57s1.31-3.57,3.11-3.57,3.07,1.44,3.07,3.53S223.57,252.83,221.75,252.83Zm0-6.23c-1.21,0-1.93,1.13-1.93,2.62,0,1.72.82,2.66,1.93,2.66a1.65,1.65,0,0,0,1.36-.72,3,3,0,0,0,.56-1.94C223.69,247.67,223,246.6,221.77,246.6Z" transform="translate(50.26)"/><path d="M226.15,247.59c0-.46-.07-1.38-.07-1.6a3.85,3.85,0,0,0,1-.25h.2v1.43a2,2,0,0,1,1.75-1.48,1.92,1.92,0,0,1,1.07.28,3.46,3.46,0,0,0-.39,1,1.43,1.43,0,0,0-.78-.22c-.67,0-1.17.34-1.65,1.41v3.22c0,.74,0,1,.05,1.35-.38,0-.79,0-1.22,0Z" transform="translate(50.26)"/><path d="M233.32,245.69a2.58,2.58,0,0,1,2.71,2.78,6.07,6.07,0,0,1-.06.85h-4.55v.19a2.14,2.14,0,0,0,2.14,2.38,3,3,0,0,0,1.92-.68,3.81,3.81,0,0,0,.38.67,2.78,2.78,0,0,1-1.17.71,4,4,0,0,1-1.3.24c-1.78,0-3.15-1.2-3.15-3.54C230.24,247.26,231.55,245.69,233.32,245.69Zm1.67,2.86c0-.9-.33-2-1.63-2a2,2,0,0,0-1.92,2Z" transform="translate(50.26)"/><path d="M240,245.69a2.58,2.58,0,0,1,2.71,2.78,6.07,6.07,0,0,1-.06.85h-4.55v.19a2.14,2.14,0,0,0,2.14,2.38,3,3,0,0,0,1.92-.68,3.81,3.81,0,0,0,.38.67,2.78,2.78,0,0,1-1.17.71,4,4,0,0,1-1.3.24c-1.78,0-3.15-1.2-3.15-3.54C236.87,247.26,238.18,245.69,240,245.69Zm1.67,2.86c0-.9-.33-2-1.63-2a2,2,0,0,0-1.92,2Z" transform="translate(50.26)"/><path d="M244.16,246.68l-1-.13V246l1-.21.09-1.38a3.66,3.66,0,0,0,.91-.22h.16v1.6h1.94a2.55,2.55,0,0,0,0,.53c0,.16,0,.29,0,.41h-1.89v3.92c0,1,.39,1.24,1,1.24a1.73,1.73,0,0,0,1-.34,2.41,2.41,0,0,0,.26.77,2.7,2.7,0,0,1-1.55.56c-1.09,0-1.85-.68-1.85-2.07Z" transform="translate(50.26)"/><path d="M250.74,249.37c0-2.34,1.46-3.68,3.19-3.68a2.91,2.91,0,0,1,1.51.39c0-.38,0-2.82,0-3a7,7,0,0,0,1-.23h.19V251a8.19,8.19,0,0,0,.18,1.72c-.38,0-.78,0-1.21,0a3.27,3.27,0,0,1-.09-.67,2.76,2.76,0,0,1-1.81.71C252.12,252.83,250.74,251.54,250.74,249.37Zm3.41-2.86c-1.17,0-2.21,1-2.21,2.71a3,3,0,0,0,.57,1.93,1.81,1.81,0,0,0,1.48.73,2.36,2.36,0,0,0,1.46-.51c0-.14,0-1.46,0-4.32A1.65,1.65,0,0,0,254.15,246.51Z" transform="translate(50.26)"/><path d="M261,252.83c-1.93,0-3.07-1.54-3.07-3.57s1.3-3.57,3.11-3.57,3.06,1.44,3.06,3.53S262.77,252.83,261,252.83Zm0-6.23c-1.21,0-1.92,1.13-1.92,2.62,0,1.72.82,2.66,1.92,2.66a1.66,1.66,0,0,0,1.37-.72,3.08,3.08,0,0,0,.55-1.94C262.88,247.67,262.16,246.6,261,246.6Z" transform="translate(50.26)"/><path d="M265.33,245c0-.27,0-1.81,0-2a5.36,5.36,0,0,0,1-.23h.18v8.48a10.6,10.6,0,0,0,.05,1.42c-.38,0-.82,0-1.23,0,0-.12,0-1.28,0-1.46Z" transform="translate(50.26)"/><path d="M270.84,252.83c-1.92,0-3.07-1.54-3.07-3.57s1.3-3.57,3.11-3.57,3.07,1.44,3.07,3.53S272.66,252.83,270.84,252.83Zm0-6.23c-1.21,0-1.92,1.13-1.92,2.62,0,1.72.82,2.66,1.92,2.66a1.66,1.66,0,0,0,1.37-.72,3.09,3.09,0,0,0,.56-1.94C272.78,247.67,272.05,246.6,270.85,246.6Z" transform="translate(50.26)"/><path d="M275.23,247.59c0-.46-.06-1.38-.06-1.6a4,4,0,0,0,1-.25h.19v1.43a2,2,0,0,1,1.76-1.48,1.87,1.87,0,0,1,1.06.28,3.77,3.77,0,0,0-.39,1,1.38,1.38,0,0,0-.78-.22c-.66,0-1.17.34-1.65,1.41v3.22c0,.74,0,1,.06,1.35-.38,0-.8,0-1.23,0Z" transform="translate(50.26)"/><path d="M282.41,245.69a2.57,2.57,0,0,1,2.7,2.78,6.06,6.06,0,0,1-.05.85h-4.55v.19a2.14,2.14,0,0,0,2.13,2.38,3.07,3.07,0,0,0,1.93-.68,4.58,4.58,0,0,0,.37.67,2.78,2.78,0,0,1-1.17.71,4,4,0,0,1-1.3.24c-1.78,0-3.14-1.2-3.14-3.54C279.33,247.26,280.64,245.69,282.41,245.69Zm1.66,2.86c0-.9-.32-2-1.62-2a2,2,0,0,0-1.93,2Z" transform="translate(50.26)"/><path d="M88.28,263.19a15.41,15.41,0,0,0-.06-1.6,4.4,4.4,0,0,0,1-.25h.19v1.42a3,3,0,0,1,2.4-1.47,1.85,1.85,0,0,1,1.91,1.47,3,3,0,0,1,2.39-1.47,1.88,1.88,0,0,1,2,2v3.75c0,.69,0,1.06,0,1.28-.38,0-.8,0-1.23,0v-4.75a1.15,1.15,0,0,0-.4-1.05,1.31,1.31,0,0,0-.83-.29,2.62,2.62,0,0,0-1.91,1.17v3.6c0,.69,0,1.11,0,1.28-.4,0-.82,0-1.22,0v-4.75a1.18,1.18,0,0,0-.4-1.05,1.34,1.34,0,0,0-.84-.29,1.89,1.89,0,0,0-1.08.38,3.59,3.59,0,0,0-.87.87V267c0,.74,0,1.14,0,1.35-.37,0-.78,0-1.21,0Z" transform="translate(50.26)"/><path d="M105.48,267.94a1.3,1.3,0,0,1-1,.49c-.61,0-1.06-.39-1.22-1.23a3.63,3.63,0,0,1-.86.84,2.22,2.22,0,0,1-1.3.39,1.62,1.62,0,0,1-1.73-1.69c0-1,.95-2.11,3.82-2.46v-.7c0-.95-.41-1.39-1.23-1.39a1.12,1.12,0,0,0-1.26,1.27,8.07,8.07,0,0,0-1.08.12c0-.06,0-.12,0-.17,0-1.52,1.1-2.12,2.41-2.12a2.11,2.11,0,0,1,2.32,2.26v2.85c0,.62.08,1.12.53,1.12a.61.61,0,0,0,.38-.16A1.59,1.59,0,0,0,105.48,267.94Zm-2.29-3c-.93.14-2.69.49-2.69,1.67,0,.64.48.93,1.07.93a2.26,2.26,0,0,0,1.62-1Z" transform="translate(50.26)"/><path d="M107,268a1.14,1.14,0,0,1-.81-1,1.6,1.6,0,0,1,.93-1.29,2.23,2.23,0,0,1-1-1.9,2.33,2.33,0,0,1,2.5-2.53,3.14,3.14,0,0,1,1.12.22l2.26-.12a3.8,3.8,0,0,0,0,.46v.39l-.07.05-1.3,0a2.57,2.57,0,0,1,.48,1.57,2.47,2.47,0,0,1-3.42,2.14,1.11,1.11,0,0,0-.47.74c0,.35.33.57,1,.57h1.5c1.5,0,2.33.56,2.33,1.65,0,1.39-1.5,2.2-3.18,2.2a4.11,4.11,0,0,1-2.16-.51,1.47,1.47,0,0,1-.82-1.25A1.43,1.43,0,0,1,107,268Zm2.46.1h-1.81a1.2,1.2,0,0,0-.78,1c0,.62.74,1.15,2,1.15a2.94,2.94,0,0,0,1.51-.36,1,1,0,0,0,.62-.87C111,268.48,110.55,268.11,109.45,268.11ZM108.6,262c-1,0-1.36.83-1.36,1.7a1.52,1.52,0,0,0,1.38,1.65,1.17,1.17,0,0,0,1-.5,2.15,2.15,0,0,0,.33-1.17C110,262.86,109.56,262,108.6,262Z" transform="translate(50.26)"/><path d="M113.09,263.19c0-.46,0-1.59-.07-1.6a3.68,3.68,0,0,0,1-.25h.2v1.42a3,3,0,0,1,2.39-1.47,1.87,1.87,0,0,1,2,2v3.75c0,.69,0,1,0,1.28-.4,0-.81,0-1.22,0v-4.75a1.18,1.18,0,0,0-.4-1.05,1.31,1.31,0,0,0-.83-.29,1.84,1.84,0,0,0-1.08.38,3.59,3.59,0,0,0-.87.87V267c0,.74,0,1.1,0,1.35-.38,0-.78,0-1.21,0Z" transform="translate(50.26)"/><path d="M126,267.94a1.3,1.3,0,0,1-1,.49c-.61,0-1.06-.39-1.22-1.23a3.45,3.45,0,0,1-.86.84,2.2,2.2,0,0,1-1.3.39,1.62,1.62,0,0,1-1.73-1.69c0-1,.95-2.11,3.83-2.46v-.7c0-.95-.42-1.39-1.24-1.39a1.12,1.12,0,0,0-1.26,1.27,8.24,8.24,0,0,0-1.08.12c0-.06,0-.12,0-.17,0-1.52,1.1-2.12,2.42-2.12a2.1,2.1,0,0,1,2.31,2.26v2.85c0,.62.08,1.12.53,1.12a.61.61,0,0,0,.38-.16A1.59,1.59,0,0,0,126,267.94Zm-2.28-3c-.94.14-2.7.49-2.7,1.67,0,.64.49.93,1.07.93a2.3,2.3,0,0,0,1.63-1Z" transform="translate(50.26)"/><path d="M135.11,267.94a1.31,1.31,0,0,1-1,.49c-.61,0-1.07-.39-1.22-1.23a3.63,3.63,0,0,1-.86.84,2.24,2.24,0,0,1-1.3.39,1.61,1.61,0,0,1-1.73-1.69c0-1,.95-2.11,3.82-2.46v-.7c0-.95-.41-1.39-1.23-1.39a1.12,1.12,0,0,0-1.26,1.27,7.9,7.9,0,0,0-1.08.12c0-.06,0-.12,0-.17,0-1.52,1.11-2.12,2.42-2.12a2.1,2.1,0,0,1,2.31,2.26v2.85c0,.62.08,1.12.54,1.12a.56.56,0,0,0,.37-.16A1.77,1.77,0,0,0,135.11,267.94Zm-2.29-3c-.94.14-2.69.49-2.69,1.67,0,.64.48.93,1.07.93a2.28,2.28,0,0,0,1.62-1Z" transform="translate(50.26)"/><path d="M136,260.64c0-.27,0-1.81,0-2a5,5,0,0,0,1-.22h.18v8.48a10.6,10.6,0,0,0,0,1.42c-.37,0-.82,0-1.23,0,0-.12,0-1.28,0-1.46Z" transform="translate(50.26)"/><path d="M139.45,258.83a.73.73,0,0,1,.74.7.74.74,0,0,1-1.48,0A.73.73,0,0,1,139.45,258.83Zm-.58,8.17v-3.51c0-.34,0-1.72-.06-1.9a4.09,4.09,0,0,0,1-.25h.2V267c0,.74,0,1.18,0,1.35-.37,0-.79,0-1.22,0Z" transform="translate(50.26)"/><path d="M146,267.76a2.75,2.75,0,0,1-1.75.67c-1.56,0-2.94-1.29-2.94-3.46,0-2.34,1.46-3.68,3.18-3.68a2.94,2.94,0,0,1,1.67.49l.53-.44h.48v8.22c0,.63,0,1.19,0,1.57-.38,0-.81,0-1.24,0,0-.14,0-1.51,0-1.69Zm0-5.11a1.58,1.58,0,0,0-1.28-.54c-1.17,0-2.21,1-2.21,2.71a3,3,0,0,0,.57,1.93,1.79,1.79,0,0,0,1.48.73A2.49,2.49,0,0,0,146,267Z" transform="translate(50.26)"/><path d="M148.86,263.17c0-.79-.05-1.56-.06-1.73a7.05,7.05,0,0,0,1-.1H150V266a1.27,1.27,0,0,0,.41,1.06,1.31,1.31,0,0,0,.84.34,2.75,2.75,0,0,0,1.85-1v-3.09c0-.92-.06-1.66-.07-1.89a6.94,6.94,0,0,0,1-.1h.21v5.19a9.58,9.58,0,0,0,.17,1.82c-.38,0-.8,0-1.23,0a11.17,11.17,0,0,1-.11-1.19,3.09,3.09,0,0,1-2.29,1.23,2,2,0,0,1-2-2.11Z" transform="translate(50.26)"/><path d="M161.76,267.94a1.31,1.31,0,0,1-1,.49c-.61,0-1.07-.39-1.22-1.23a3.83,3.83,0,0,1-.86.84,2.24,2.24,0,0,1-1.3.39,1.61,1.61,0,0,1-1.73-1.69c0-1,.95-2.11,3.82-2.46v-.7c0-.95-.42-1.39-1.23-1.39a1.13,1.13,0,0,0-1.27,1.27,7.94,7.94,0,0,0-1.07.12c0-.06,0-.12,0-.17,0-1.52,1.11-2.12,2.42-2.12a2.1,2.1,0,0,1,2.31,2.26v2.85c0,.62.08,1.12.54,1.12a.56.56,0,0,0,.37-.16A1.77,1.77,0,0,0,161.76,267.94Zm-2.29-3c-.94.14-2.69.49-2.69,1.67,0,.64.48.93,1.07.93a2.28,2.28,0,0,0,1.62-1Z" transform="translate(50.26)"/><path d="M162.64,263.19a15.41,15.41,0,0,0-.06-1.6,4.53,4.53,0,0,0,1-.25h.19v1.42a3,3,0,0,1,2.39-1.47,1.86,1.86,0,0,1,1.92,1.47,3,3,0,0,1,2.39-1.47,1.88,1.88,0,0,1,2,2v3.75c0,.69,0,1.06,0,1.28-.38,0-.8,0-1.23,0v-4.75a1.18,1.18,0,0,0-.4-1.05,1.31,1.31,0,0,0-.83-.29,2.62,2.62,0,0,0-1.91,1.17v3.6c0,.69,0,1.11.05,1.28-.4,0-.82,0-1.22,0v-4.75a1.15,1.15,0,0,0-.41-1.05,1.31,1.31,0,0,0-.83-.29,1.87,1.87,0,0,0-1.08.38,3.59,3.59,0,0,0-.87.87V267c0,.74,0,1.14,0,1.35-.38,0-.78,0-1.21,0Z" transform="translate(50.26)"/><path d="M179.43,261.29a2.57,2.57,0,0,1,2.7,2.78,6.06,6.06,0,0,1,0,.85h-4.55v.19a2.14,2.14,0,0,0,2.13,2.38,3,3,0,0,0,1.92-.68,4.57,4.57,0,0,0,.38.67,2.78,2.78,0,0,1-1.17.71,4,4,0,0,1-1.3.24c-1.78,0-3.15-1.2-3.15-3.54C176.34,262.86,177.66,261.29,179.43,261.29Zm1.66,2.86c0-.9-.33-2-1.63-2a2,2,0,0,0-1.92,2Z" transform="translate(50.26)"/><path d="M183.43,263.19c0-.46-.07-1.38-.07-1.6a3.85,3.85,0,0,0,1-.25h.2v1.43a2,2,0,0,1,1.75-1.48,1.9,1.9,0,0,1,1.07.28,3.77,3.77,0,0,0-.39,1,1.43,1.43,0,0,0-.78-.22c-.66,0-1.17.34-1.65,1.41V267c0,.74,0,1.05.05,1.35-.38,0-.79,0-1.22,0Z" transform="translate(50.26)"/><path d="M193.65,267.94a1.31,1.31,0,0,1-1,.49c-.61,0-1.07-.39-1.23-1.23a3.57,3.57,0,0,1-.85.84,2.24,2.24,0,0,1-1.3.39,1.61,1.61,0,0,1-1.73-1.69c0-1,1-2.11,3.82-2.46v-.7c0-.95-.42-1.39-1.24-1.39a1.12,1.12,0,0,0-1.26,1.27,8.24,8.24,0,0,0-1.08.12c0-.06,0-.12,0-.17,0-1.52,1.11-2.12,2.42-2.12a2.1,2.1,0,0,1,2.31,2.26v2.85c0,.62.08,1.12.54,1.12a.56.56,0,0,0,.37-.16A1.77,1.77,0,0,0,193.65,267.94Zm-2.29-3c-.94.14-2.69.49-2.69,1.67,0,.64.48.93,1.06.93a2.28,2.28,0,0,0,1.63-1Z" transform="translate(50.26)"/><path d="M194.57,262.28l-1-.13v-.6l1-.21.09-1.38a3.66,3.66,0,0,0,.91-.22h.16v1.6h1.93a3.49,3.49,0,0,0,0,.53,2.55,2.55,0,0,0,0,.41h-1.89v3.92c0,.95.39,1.24,1,1.24a1.7,1.7,0,0,0,1-.34,3.16,3.16,0,0,0,.26.77,2.65,2.65,0,0,1-1.54.56c-1.1,0-1.85-.68-1.85-2.07Z" transform="translate(50.26)"/><path d="M202.18,261.35l1.79,5.29a3.53,3.53,0,0,1,.18.64,5.38,5.38,0,0,1,.2-.64l.44-1.3.57-1.72.51-1.54.23-.73a11.81,11.81,0,0,0,1.19,0l-2.62,7h-.3l-.79,0-.52-1.36-.86-2.25-.84-2.2c-.25-.67-.41-1.08-.46-1.21C201.33,261.37,201.77,261.37,202.18,261.35Z" transform="translate(50.26)"/><path d="M210.64,268.43c-1.93,0-3.07-1.54-3.07-3.57s1.3-3.57,3.11-3.57,3.07,1.44,3.07,3.53S212.46,268.43,210.64,268.43Zm0-6.23c-1.21,0-1.92,1.13-1.92,2.62,0,1.72.82,2.66,1.92,2.66a1.66,1.66,0,0,0,1.37-.72,3.09,3.09,0,0,0,.56-1.94C212.58,263.26,211.85,262.2,210.65,262.2Z" transform="translate(50.26)"/><path d="M215,260.64c0-.27,0-1.81,0-2a5,5,0,0,0,1-.22h.18v8.48a10.6,10.6,0,0,0,.05,1.42c-.37,0-.82,0-1.23,0,0-.12,0-1.28,0-1.46Z" transform="translate(50.26)"/><path d="M217.89,263.17c0-.79,0-1.56-.06-1.73a7.05,7.05,0,0,0,1-.1h.19V266a1.27,1.27,0,0,0,.41,1.06,1.31,1.31,0,0,0,.84.34,2.73,2.73,0,0,0,1.85-1v-3.09c0-.92-.06-1.66-.07-1.89a6.83,6.83,0,0,0,1-.1h.21v5.19a9.58,9.58,0,0,0,.17,1.82c-.38,0-.8,0-1.23,0a11.17,11.17,0,0,1-.11-1.19,3.09,3.09,0,0,1-2.29,1.23,2,2,0,0,1-2-2.11Z" transform="translate(50.26)"/><path d="M225.35,262.28l-1-.13v-.6l1-.21.1-1.38a3.89,3.89,0,0,0,.91-.22h.15v1.6h1.94a2.55,2.55,0,0,0,0,.53c0,.16,0,.29,0,.41h-1.89v3.92c0,.95.39,1.24,1,1.24a1.73,1.73,0,0,0,1-.34,2.49,2.49,0,0,0,.26.77,2.7,2.7,0,0,1-1.55.56c-1.09,0-1.85-.68-1.85-2.07Z" transform="translate(50.26)"/><path d="M229.81,263.5c0-1-.06-1.8-.07-1.91a5.91,5.91,0,0,0,1-.25H231c0,.12,0,.38,0,.57a2.83,2.83,0,0,1,1.77-.62c1.57,0,2.92,1.23,2.92,3.42s-1.45,3.72-3.18,3.72A3,3,0,0,1,231,268V270a10.68,10.68,0,0,0,0,1.18c-.38,0-.79,0-1.22,0,0-.17,0-2.11,0-2.28Zm4.66,1.35c0-1.6-.85-2.61-2-2.61a2.41,2.41,0,0,0-1.46.44V267a1.63,1.63,0,0,0,1.3.56C233.44,267.59,234.47,266.55,234.47,264.85Z" transform="translate(50.26)"/><path d="M242.61,267.94a1.33,1.33,0,0,1-1,.49c-.61,0-1.06-.39-1.22-1.23a3.45,3.45,0,0,1-.86.84,2.2,2.2,0,0,1-1.3.39,1.62,1.62,0,0,1-1.73-1.69c0-1,.95-2.11,3.83-2.46v-.7c0-.95-.42-1.39-1.24-1.39a1.12,1.12,0,0,0-1.26,1.27,8.24,8.24,0,0,0-1.08.12c0-.06,0-.12,0-.17,0-1.52,1.1-2.12,2.42-2.12a2.1,2.1,0,0,1,2.31,2.26v2.85c0,.62.08,1.12.53,1.12a.59.59,0,0,0,.38-.16A1.43,1.43,0,0,0,242.61,267.94Zm-2.29-3c-.94.14-2.69.49-2.69,1.67,0,.64.48.93,1.06.93a2.3,2.3,0,0,0,1.63-1Z" transform="translate(50.26)"/><path d="M243.53,262.28l-1-.13,0-.6,1-.21.09-1.38a3.89,3.89,0,0,0,.91-.22h.16v1.6h1.93a2.55,2.55,0,0,0-.05.53c0,.16,0,.29,0,.41H244.7v3.92c0,.95.39,1.24,1,1.24a1.71,1.71,0,0,0,1-.34,2.49,2.49,0,0,0,.26.77,2.68,2.68,0,0,1-1.55.56c-1.09,0-1.84-.68-1.84-2.07Z" transform="translate(50.26)"/><path d="M247.71,267.7a.75.75,0,1,1,.75.71A.72.72,0,0,1,247.71,267.7Z" transform="translate(50.26)"/><path d="M253.32,259.22c.43,0,.8,0,1.18,0v5.63c0,1.65.72,2.58,2.07,2.58s2.07-.93,2.07-2.63v-5.54a9.37,9.37,0,0,0,1.18,0v5.61c0,2.38-1.25,3.64-3.28,3.64s-3.22-1.12-3.22-3.48Z" transform="translate(50.26)"/><path d="M261.87,262.28l-1-.13v-.6l1-.21L262,260a3.66,3.66,0,0,0,.91-.22H263v1.6H265a2.61,2.61,0,0,0-.06.53,2.55,2.55,0,0,0,0,.41H263v3.92c0,.95.39,1.24,1,1.24a1.68,1.68,0,0,0,1-.34,3.16,3.16,0,0,0,.26.77,2.65,2.65,0,0,1-1.54.56c-1.09,0-1.85-.68-1.85-2.07Z" transform="translate(50.26)"/><path d="M273.53,264.15l-.31-1.26c0,.18-.18.84-.28,1.27l-1.24,4.19-1.13,0-2.29-7,.65,0a6.13,6.13,0,0,0,.62,0l1.41,5c0,.13.06.3.1.49s.07.31.08.34l.2-.79.44-1.77.49-1.94c.17-.64.3-1.07.39-1.3h1.12a8.17,8.17,0,0,1,.23.79c.13.42.28.89.42,1.41s.3,1,.44,1.56.26.93.33,1.23l.18.81a8.57,8.57,0,0,1,.19-.85l1.38-5,.61,0,.61,0-2.27,7-1.11,0Z" transform="translate(50.26)"/><path d="M279.86,258.83a.73.73,0,0,1,.74.7.74.74,0,1,1-.74-.7Zm-.58,8.17v-3.51c0-.34,0-1.72,0-1.9a4.12,4.12,0,0,0,1-.25h.2V267c0,.74,0,1.18,0,1.35-.38,0-.8,0-1.22,0Z" transform="translate(50.26)"/><path d="M283.7,267.5a2.26,2.26,0,0,0,1.05-.24.92.92,0,0,0,.47-.88c0-.57-.39-.75-1.47-1.17a6.14,6.14,0,0,1-1.38-.74,1.54,1.54,0,0,1-.56-1.35c0-1.13.9-1.83,2.24-1.83a4.11,4.11,0,0,1,2,.45,1.78,1.78,0,0,0-.27.72l-.1.05a3.64,3.64,0,0,0-1.48-.3c-.66,0-1.27.21-1.27.89s.49.89,1.32,1.17a3.94,3.94,0,0,1,1.51.8,1.76,1.76,0,0,1,.46,1.3c0,1.42-1.21,2.06-2.47,2.06a3.51,3.51,0,0,1-2-.59,2.39,2.39,0,0,0,.28-.77A3.13,3.13,0,0,0,283.7,267.5Z" transform="translate(50.26)"/><path d="M288.07,258.83a.74.74,0,0,1,.74.7.74.74,0,0,1-1.48,0A.73.73,0,0,1,288.07,258.83Zm-.59,8.17v-3.51c0-.34,0-1.72-.05-1.9a4.31,4.31,0,0,0,1-.25h.19V267c0,.74,0,1.18,0,1.35-.38,0-.79,0-1.22,0Z" transform="translate(50.26)"/><path d="M91.52,276.89a2.57,2.57,0,0,1,2.7,2.78,6.06,6.06,0,0,1,0,.85H89.62v.19a2.14,2.14,0,0,0,2.13,2.38,3.05,3.05,0,0,0,1.93-.68,3.81,3.81,0,0,0,.38.67,2.9,2.9,0,0,1-1.17.71,4.05,4.05,0,0,1-1.31.24c-1.78,0-3.14-1.2-3.14-3.54C88.44,278.46,89.75,276.89,91.52,276.89Zm1.66,2.86c0-.9-.32-2-1.62-2a2,2,0,0,0-1.92,2Z" transform="translate(50.26)"/><path d="M95.52,278.79c0-.46,0-1.59-.06-1.6a3.76,3.76,0,0,0,1-.25h.19v1.42a3,3,0,0,1,2.4-1.47,1.87,1.87,0,0,1,2,2v3.75c0,.69,0,1,0,1.28-.4,0-.82,0-1.22,0v-4.75a1.18,1.18,0,0,0-.4-1.05,1.34,1.34,0,0,0-.84-.29,1.84,1.84,0,0,0-1.07.38,3.47,3.47,0,0,0-.88.87v3.45c0,.74,0,1.1,0,1.35-.37,0-.78,0-1.21,0Z" transform="translate(50.26)"/><path d="M103.35,274.43a.73.73,0,0,1,.74.7.74.74,0,0,1-1.48,0A.73.73,0,0,1,103.35,274.43Zm-.59,8.17v-3.51c0-.34,0-1.72-.05-1.9a4.09,4.09,0,0,0,1-.25h.2v5.66c0,.74,0,1.18,0,1.35-.37,0-.79,0-1.22,0Z" transform="translate(50.26)"/><path d="M105.66,278.79a15.41,15.41,0,0,0-.06-1.6,4.4,4.4,0,0,0,1-.25h.19v1.42a3,3,0,0,1,2.4-1.47,1.85,1.85,0,0,1,1.91,1.47,3,3,0,0,1,2.39-1.47,1.88,1.88,0,0,1,2,2v3.75c0,.69,0,1.06,0,1.28-.38,0-.8,0-1.23,0v-4.75a1.18,1.18,0,0,0-.4-1.05,1.31,1.31,0,0,0-.83-.29,2.62,2.62,0,0,0-1.91,1.17v3.6c0,.69,0,1.11,0,1.28-.4,0-.82,0-1.22,0v-4.75a1.18,1.18,0,0,0-.4-1.05,1.34,1.34,0,0,0-.84-.29,1.89,1.89,0,0,0-1.08.38,3.59,3.59,0,0,0-.87.87v3.45c0,.74,0,1.14,0,1.35-.37,0-.78,0-1.21,0Z" transform="translate(50.26)"/><path d="M125.46,283.54a1.3,1.3,0,0,1-1,.49c-.61,0-1.06-.39-1.22-1.23a3.63,3.63,0,0,1-.86.84,2.22,2.22,0,0,1-1.3.39,1.62,1.62,0,0,1-1.73-1.69c0-1,1-2.11,3.82-2.46v-.7c0-.95-.41-1.39-1.23-1.39a1.12,1.12,0,0,0-1.26,1.27,8.07,8.07,0,0,0-1.08.12c0-.05,0-.12,0-.17,0-1.52,1.1-2.12,2.41-2.12a2.11,2.11,0,0,1,2.32,2.26V282c0,.62.08,1.12.53,1.12a.56.56,0,0,0,.38-.16A1.59,1.59,0,0,0,125.46,283.54Zm-2.29-3c-.93.14-2.69.49-2.69,1.67,0,.64.48.93,1.07.93a2.26,2.26,0,0,0,1.62-1Z" transform="translate(50.26)"/><path d="M125.76,280.57c0-2.34,1.46-3.68,3.19-3.68a2.85,2.85,0,0,1,1.5.39c0-.38,0-2.82,0-3a7,7,0,0,0,1-.23h.18v8.18a8,8,0,0,0,.19,1.72c-.38,0-.78,0-1.21,0a2.65,2.65,0,0,1-.09-.67,2.76,2.76,0,0,1-1.81.71C127.14,284,125.76,282.74,125.76,280.57Zm3.41-2.86c-1.17,0-2.21,1-2.21,2.71a3,3,0,0,0,.57,1.93,1.81,1.81,0,0,0,1.48.73,2.36,2.36,0,0,0,1.46-.51c0-.14,0-1.46,0-4.32A1.61,1.61,0,0,0,129.17,277.71Z" transform="translate(50.26)"/><path d="M136,278.79a15.41,15.41,0,0,0-.06-1.6,4.4,4.4,0,0,0,1-.25h.19v1.42a3,3,0,0,1,2.4-1.47,1.85,1.85,0,0,1,1.91,1.47,3,3,0,0,1,2.39-1.47,1.88,1.88,0,0,1,2,2v3.75c0,.69,0,1.06,0,1.28-.38,0-.8,0-1.23,0v-4.75a1.18,1.18,0,0,0-.4-1.05,1.31,1.31,0,0,0-.83-.29,2.62,2.62,0,0,0-1.91,1.17v3.6c0,.69,0,1.11.05,1.28-.4,0-.82,0-1.22,0v-4.75a1.18,1.18,0,0,0-.4-1.05,1.34,1.34,0,0,0-.84-.29,1.89,1.89,0,0,0-1.08.38,3.59,3.59,0,0,0-.87.87v3.45c0,.74,0,1.14,0,1.35-.37,0-.78,0-1.21,0Z" transform="translate(50.26)"/><path d="M148.08,274.43a.73.73,0,0,1,.74.7.74.74,0,1,1-.74-.7Zm-.58,8.17v-3.51c0-.34,0-1.72-.05-1.9a4.12,4.12,0,0,0,1-.25h.2v5.66c0,.74,0,1.18,0,1.35-.38,0-.8,0-1.22,0Z" transform="translate(50.26)"/><path d="M150.4,278.79c0-.46-.06-1.59-.07-1.6a3.68,3.68,0,0,0,1-.25h.2v1.42a3,3,0,0,1,2.39-1.47,1.87,1.87,0,0,1,2,2v3.75c0,.69,0,1,.05,1.28-.4,0-.81,0-1.22,0v-4.75a1.18,1.18,0,0,0-.4-1.05,1.31,1.31,0,0,0-.83-.29,1.84,1.84,0,0,0-1.08.38,3.59,3.59,0,0,0-.87.87v3.45c0,.74,0,1.1,0,1.35-.38,0-.78,0-1.21,0Z" transform="translate(50.26)"/><path d="M158.22,274.43a.73.73,0,0,1,.74.7.74.74,0,1,1-.74-.7Zm-.58,8.17v-3.51c0-.34,0-1.72,0-1.9a4.12,4.12,0,0,0,1-.25h.2v5.66c0,.74,0,1.18,0,1.35-.38,0-.8,0-1.23,0Z" transform="translate(50.26)"/><path d="M160.54,278.79a14.79,14.79,0,0,0-.07-1.6,4.4,4.4,0,0,0,1-.25h.2v1.42a3,3,0,0,1,2.39-1.47,1.85,1.85,0,0,1,1.91,1.47,3,3,0,0,1,2.39-1.47,1.88,1.88,0,0,1,2,2v3.75c0,.69,0,1.06,0,1.28-.38,0-.79,0-1.22,0v-4.75a1.15,1.15,0,0,0-.41-1.05,1.31,1.31,0,0,0-.83-.29,2.66,2.66,0,0,0-1.91,1.17v3.6c0,.69,0,1.11.05,1.28-.4,0-.82,0-1.22,0v-4.75a1.18,1.18,0,0,0-.4-1.05,1.33,1.33,0,0,0-.83-.29,1.84,1.84,0,0,0-1.08.38,3.59,3.59,0,0,0-.87.87v3.45c0,.74,0,1.14,0,1.35-.37,0-.77,0-1.2,0Z" transform="translate(50.26)"/><path d="M175.27,277l1.79,5.3a4.15,4.15,0,0,1,.18.63,4.8,4.8,0,0,1,.2-.63l.44-1.3.57-1.73.51-1.54.23-.73a11.61,11.61,0,0,0,1.18,0l-2.61,7h-.3l-.79,0-.52-1.36-.86-2.25-.84-2.2c-.25-.67-.41-1.08-.46-1.21C174.42,277,174.86,277,175.27,277Z" transform="translate(50.26)"/><path d="M183.74,276.89a2.58,2.58,0,0,1,2.71,2.78,6.07,6.07,0,0,1-.06.85h-4.55v.19a2.14,2.14,0,0,0,2.14,2.38,3,3,0,0,0,1.92-.68,3.81,3.81,0,0,0,.38.67,2.84,2.84,0,0,1-1.17.71,4,4,0,0,1-1.3.24c-1.78,0-3.15-1.2-3.15-3.54C180.66,278.46,182,276.89,183.74,276.89Zm1.67,2.86c0-.9-.33-2-1.63-2a2,2,0,0,0-1.92,2Z" transform="translate(50.26)"/><path d="M187.75,278.79c0-.46-.06-1.59-.07-1.6a3.68,3.68,0,0,0,1-.25h.2v1.42a3,3,0,0,1,2.39-1.47,1.87,1.87,0,0,1,2,2v3.75c0,.69,0,1,0,1.28-.4,0-.82,0-1.22,0v-4.75a1.18,1.18,0,0,0-.4-1.05,1.33,1.33,0,0,0-.83-.29,1.84,1.84,0,0,0-1.08.38,3.59,3.59,0,0,0-.87.87v3.45c0,.74,0,1.1,0,1.35-.37,0-.78,0-1.2,0Z" transform="translate(50.26)"/><path d="M195.57,274.43a.73.73,0,0,1,.74.7.74.74,0,0,1-1.48,0A.73.73,0,0,1,195.57,274.43ZM195,282.6v-3.51c0-.34,0-1.72-.06-1.9a4.09,4.09,0,0,0,1-.25h.2v5.66c0,.74,0,1.18,0,1.35-.38,0-.8,0-1.23,0Z" transform="translate(50.26)"/><path d="M203.53,283.54a1.31,1.31,0,0,1-1,.49c-.61,0-1.07-.39-1.23-1.23a3.57,3.57,0,0,1-.85.84,2.24,2.24,0,0,1-1.3.39,1.61,1.61,0,0,1-1.73-1.69c0-1,1-2.11,3.82-2.46v-.7c0-.95-.42-1.39-1.24-1.39a1.12,1.12,0,0,0-1.26,1.27,8.24,8.24,0,0,0-1.08.12c0-.05,0-.12,0-.17,0-1.52,1.11-2.12,2.42-2.12a2.1,2.1,0,0,1,2.31,2.26V282c0,.62.08,1.12.54,1.12a.51.51,0,0,0,.37-.16A1.77,1.77,0,0,0,203.53,283.54Zm-2.29-3c-.94.14-2.69.49-2.69,1.67,0,.64.48.93,1.06.93a2.28,2.28,0,0,0,1.63-1Z" transform="translate(50.26)"/><path d="M204.41,278.79a15.41,15.41,0,0,0-.06-1.6,4.53,4.53,0,0,0,1-.25h.19v1.42a3,3,0,0,1,2.39-1.47,1.84,1.84,0,0,1,1.91,1.47,3,3,0,0,1,2.4-1.47,1.88,1.88,0,0,1,2,2v3.75c0,.69,0,1.06,0,1.28-.37,0-.79,0-1.22,0v-4.75a1.18,1.18,0,0,0-.4-1.05,1.31,1.31,0,0,0-.83-.29,2.62,2.62,0,0,0-1.91,1.17v3.6c0,.69,0,1.11.05,1.28-.4,0-.82,0-1.22,0v-4.75a1.15,1.15,0,0,0-.41-1.05,1.31,1.31,0,0,0-.83-.29,1.87,1.87,0,0,0-1.08.38,3.59,3.59,0,0,0-.87.87v3.45c0,.74,0,1.14,0,1.35-.38,0-.78,0-1.21,0Z" transform="translate(50.26)"/><path d="M215.72,285V285a1,1,0,0,0,.82-1c-.52,0-.84-.25-.84-.67a.71.71,0,0,1,.76-.74c.53,0,.83.38.83,1.09a1.83,1.83,0,0,1-1.23,1.73A2,2,0,0,0,215.72,285Z" transform="translate(50.26)"/><path d="M225.55,283.36a2.76,2.76,0,0,1-1.76.67c-1.56,0-2.93-1.29-2.93-3.46,0-2.34,1.45-3.68,3.18-3.68a2.94,2.94,0,0,1,1.67.49l.53-.44h.48v8.22c0,.63,0,1.19,0,1.57-.38,0-.81,0-1.24,0,0-.14,0-1.51,0-1.69Zm0-5.11a1.63,1.63,0,0,0-1.29-.54c-1.17,0-2.21,1-2.21,2.71a3.1,3.1,0,0,0,.57,1.93,1.82,1.82,0,0,0,1.49.73,2.49,2.49,0,0,0,1.44-.5Z" transform="translate(50.26)"/><path d="M228.41,278.77c0-.79,0-1.56-.07-1.73a6.82,6.82,0,0,0,1-.1h.2v4.67a1.27,1.27,0,0,0,1.25,1.4,2.72,2.72,0,0,0,1.84-1v-3.09c0-.92,0-1.66-.06-1.89a6.94,6.94,0,0,0,1-.1h.2v5.19A10.51,10.51,0,0,0,234,284c-.37,0-.79,0-1.22,0,0-.15-.1-.61-.12-1.19a3.05,3.05,0,0,1-2.28,1.23,2,2,0,0,1-2-2.11Z" transform="translate(50.26)"/><path d="M236.24,274.43a.74.74,0,0,1,.74.7.75.75,0,0,1-1.49,0A.74.74,0,0,1,236.24,274.43Zm-.59,8.17v-3.51c0-.34,0-1.72-.05-1.9a4.31,4.31,0,0,0,1-.25h.19v5.66c0,.74,0,1.18,0,1.35-.38,0-.79,0-1.22,0Z" transform="translate(50.26)"/><path d="M240.07,283.1a2.14,2.14,0,0,0,1.05-.24.9.9,0,0,0,.47-.87c0-.58-.39-.76-1.47-1.17a6.83,6.83,0,0,1-1.38-.75,1.56,1.56,0,0,1-.55-1.35c0-1.13.89-1.83,2.23-1.83a4.09,4.09,0,0,1,2,.45,2,2,0,0,0-.27.72l-.09.05a3.87,3.87,0,0,0-1.49-.3c-.66,0-1.27.21-1.27.89s.49.89,1.33,1.17a3.88,3.88,0,0,1,1.5.8,1.76,1.76,0,0,1,.46,1.3c0,1.42-1.21,2.06-2.47,2.06a3.51,3.51,0,0,1-2-.59,2.64,2.64,0,0,0,.29-.77A3.07,3.07,0,0,0,240.07,283.1Z" transform="translate(50.26)"/><path d="M246.47,278.79c0-.46-.06-1.59-.07-1.6a3.68,3.68,0,0,0,1-.25h.2v1.42a3,3,0,0,1,2.39-1.47,1.87,1.87,0,0,1,2,2v3.75c0,.69,0,1,0,1.28-.4,0-.82,0-1.22,0v-4.75a1.18,1.18,0,0,0-.4-1.05,1.31,1.31,0,0,0-.83-.29,1.84,1.84,0,0,0-1.08.38,3.59,3.59,0,0,0-.87.87v3.45c0,.74,0,1.1,0,1.35-.38,0-.78,0-1.21,0Z" transform="translate(50.26)"/><path d="M256.33,284c-1.92,0-3.06-1.54-3.06-3.57s1.3-3.57,3.1-3.57,3.07,1.44,3.07,3.53S258.15,284,256.33,284Zm0-6.23c-1.21,0-1.93,1.13-1.93,2.62,0,1.72.82,2.66,1.93,2.66a1.65,1.65,0,0,0,1.36-.72,3,3,0,0,0,.56-1.94C258.27,278.87,257.54,277.8,256.35,277.8Z" transform="translate(50.26)"/><path d="M262.25,283.1a2.14,2.14,0,0,0,1.05-.24.91.91,0,0,0,.47-.87c0-.58-.39-.76-1.47-1.17a6.57,6.57,0,0,1-1.38-.75,1.54,1.54,0,0,1-.56-1.35c0-1.13.9-1.83,2.24-1.83a4.11,4.11,0,0,1,2,.45,1.78,1.78,0,0,0-.27.72l-.1.05a3.82,3.82,0,0,0-1.48-.3c-.66,0-1.27.21-1.27.89s.49.89,1.32,1.17a3.94,3.94,0,0,1,1.51.8,1.76,1.76,0,0,1,.46,1.3c0,1.42-1.21,2.06-2.47,2.06a3.51,3.51,0,0,1-2-.59,2.65,2.65,0,0,0,.28-.77A3.13,3.13,0,0,0,262.25,283.1Z" transform="translate(50.26)"/><path d="M266.25,277.88l-1-.13v-.6l1-.21.09-1.38a3.66,3.66,0,0,0,.91-.22h.16v1.6h1.94a2.61,2.61,0,0,0-.06.53,2.55,2.55,0,0,0,0,.41h-1.89v3.92c0,.95.39,1.24,1,1.24a1.73,1.73,0,0,0,1-.34,2.41,2.41,0,0,0,.26.77,2.7,2.7,0,0,1-1.55.56c-1.09,0-1.85-.68-1.85-2.07Z" transform="translate(50.26)"/><path d="M270.69,278.79c0-.46-.07-1.38-.07-1.6a3.94,3.94,0,0,0,1-.25h.2v1.43a2,2,0,0,1,1.75-1.48,1.92,1.92,0,0,1,1.07.28,3.46,3.46,0,0,0-.39,1,1.43,1.43,0,0,0-.78-.22c-.67,0-1.17.34-1.65,1.41v3.22c0,.74,0,1,.05,1.35-.38,0-.8,0-1.22,0Z" transform="translate(50.26)"/><path d="M275.38,278.77c0-.79-.05-1.56-.07-1.73a6.94,6.94,0,0,0,1-.1h.2v4.67a1.3,1.3,0,0,0,.4,1.06,1.28,1.28,0,0,0,.85.34,2.72,2.72,0,0,0,1.84-1v-3.09c0-.92-.05-1.66-.06-1.89a6.72,6.72,0,0,0,1-.1h.21v5.19A10.51,10.51,0,0,0,281,284c-.38,0-.79,0-1.22,0,0-.15-.1-.61-.12-1.19a3.06,3.06,0,0,1-2.29,1.23,2,2,0,0,1-2-2.11Z" transform="translate(50.26)"/><path d="M282.18,280.57c0-2.34,1.45-3.68,3.18-3.68a2.91,2.91,0,0,1,1.51.39c0-.38,0-2.82,0-3a6.86,6.86,0,0,0,1-.23H288v8.18a8.94,8.94,0,0,0,.18,1.72c-.37,0-.78,0-1.21,0a4.3,4.3,0,0,1-.09-.67,2.73,2.73,0,0,1-1.8.71C283.55,284,282.18,282.74,282.18,280.57Zm3.4-2.86c-1.17,0-2.21,1-2.21,2.71a3,3,0,0,0,.58,1.93,1.79,1.79,0,0,0,1.48.73,2.31,2.31,0,0,0,1.45-.51c0-.14,0-1.46,0-4.32A1.63,1.63,0,0,0,285.58,277.71Z" transform="translate(50.26)"/><path d="M157.64,292.49a2.57,2.57,0,0,1,2.7,2.78,6.06,6.06,0,0,1-.05.85h-4.55v.19a2.14,2.14,0,0,0,2.13,2.38,3.07,3.07,0,0,0,1.93-.68,4.58,4.58,0,0,0,.37.67,2.78,2.78,0,0,1-1.17.71,4,4,0,0,1-1.3.24c-1.78,0-3.14-1.2-3.14-3.54C154.56,294.06,155.87,292.49,157.64,292.49Zm1.66,2.86c0-.9-.32-2-1.62-2a2,2,0,0,0-1.93,2Z" transform="translate(50.26)"/><path d="M161,292.57h1.27c.43.71,1,1.53,1.75,2.66.76-1.13,1.32-2,1.75-2.66H167c-.84,1.24-1.61,2.35-2.32,3.38.63.95,1.61,2.45,2.44,3.6a10.12,10.12,0,0,0-1.25.05c-.06-.14-.5-.79-.92-1.43s-.86-1.3-.92-1.42l-1.82,2.81c-.41,0-1,0-1.29,0,.8-1.15,1.75-2.58,2.42-3.6C162.59,294.89,161.87,293.81,161,292.57Z" transform="translate(50.26)"/><path d="M170.57,292.49a2.58,2.58,0,0,1,2.71,2.78,6.07,6.07,0,0,1-.06.85h-4.55v.19a2.14,2.14,0,0,0,2.14,2.38,3,3,0,0,0,1.92-.68,3.81,3.81,0,0,0,.38.67,2.78,2.78,0,0,1-1.17.71,4,4,0,0,1-1.3.24c-1.78,0-3.15-1.2-3.15-3.54C167.49,294.06,168.8,292.49,170.57,292.49Zm1.67,2.86c0-.9-.33-2-1.63-2a2,2,0,0,0-1.92,2Z" transform="translate(50.26)"/><path d="M174.58,294.39c0-.46-.07-1.38-.07-1.6a3.85,3.85,0,0,0,1-.25h.2V294a2,2,0,0,1,1.75-1.48,1.92,1.92,0,0,1,1.07.28,3.46,3.46,0,0,0-.39,1,1.43,1.43,0,0,0-.78-.22c-.67,0-1.17.34-1.65,1.41v3.22c0,.74,0,1.05.05,1.35-.38,0-.79,0-1.22,0Z" transform="translate(50.26)"/><path d="M181.74,292.49a2.61,2.61,0,0,1,1.66.52,1.81,1.81,0,0,1,.68,1.56v.12h-.26a3.94,3.94,0,0,0-.77.06v-.19a1.28,1.28,0,0,0-.28-.8,1.23,1.23,0,0,0-1-.37,1.63,1.63,0,0,0-1.38.75,3.14,3.14,0,0,0-.53,1.86c0,1.52.66,2.69,2.14,2.69a3.17,3.17,0,0,0,1.86-.6,2.46,2.46,0,0,0,.37.66,3.58,3.58,0,0,1-2.38.88c-1.81,0-3.15-1.28-3.15-3.54C178.67,294.06,179.93,292.49,181.74,292.49Z" transform="translate(50.26)"/><path d="M186,290a.73.73,0,0,1,.74.7.74.74,0,0,1-1.48,0A.73.73,0,0,1,186,290Zm-.58,8.17v-3.51c0-.34,0-1.72-.06-1.9a4.09,4.09,0,0,0,1-.25h.2v5.66c0,.74,0,1.18,0,1.35-.38,0-.8,0-1.23,0Z" transform="translate(50.26)"/><path d="M191.07,293.48l-1-.13v-.6l1-.21.09-1.38a3.66,3.66,0,0,0,.91-.22h.16v1.6h1.94a2.55,2.55,0,0,0,0,.53c0,.16,0,.29,0,.41h-1.89v3.92c0,1,.39,1.24,1,1.24a1.73,1.73,0,0,0,1-.34,2.41,2.41,0,0,0,.26.77,2.7,2.7,0,0,1-1.55.56c-1.09,0-1.85-.68-1.85-2.07Z" transform="translate(50.26)"/><path d="M201.15,299.14a1.31,1.31,0,0,1-1,.49c-.61,0-1.07-.39-1.23-1.23a3.57,3.57,0,0,1-.85.84,2.24,2.24,0,0,1-1.3.39,1.61,1.61,0,0,1-1.73-1.69c0-1,1-2.11,3.82-2.46v-.7c0-.95-.42-1.39-1.24-1.39a1.12,1.12,0,0,0-1.26,1.27,7.94,7.94,0,0,0-1.07.12c0-.06,0-.12,0-.17,0-1.52,1.11-2.12,2.42-2.12a2.1,2.1,0,0,1,2.31,2.26v2.85c0,.62.08,1.12.54,1.12a.51.51,0,0,0,.37-.16A1.77,1.77,0,0,0,201.15,299.14Zm-2.29-3c-.94.14-2.69.49-2.69,1.67,0,.64.48.93,1.07.93a2.28,2.28,0,0,0,1.62-1Z" transform="translate(50.26)"/><path d="M202.07,293.48l-1-.13v-.6l1-.21.09-1.38a3.66,3.66,0,0,0,.91-.22h.16v1.6h1.94a2.61,2.61,0,0,0-.06.53,2.55,2.55,0,0,0,0,.41h-1.89v3.92c0,1,.39,1.24,1,1.24a1.68,1.68,0,0,0,1-.34,3,3,0,0,0,.26.77,2.65,2.65,0,0,1-1.54.56c-1.09,0-1.85-.68-1.85-2.07Z" transform="translate(50.26)"/><path d="M207.08,290a.74.74,0,0,1,.74.7.74.74,0,0,1-1.48,0A.73.73,0,0,1,207.08,290Zm-.59,8.17v-3.51c0-.34,0-1.72-.05-1.9a4.31,4.31,0,0,0,1-.25h.19v5.66c0,.74,0,1.18,0,1.35-.38,0-.79,0-1.22,0Z" transform="translate(50.26)"/><path d="M212,299.63c-1.92,0-3.06-1.54-3.06-3.57s1.3-3.57,3.1-3.57,3.07,1.44,3.07,3.53S213.82,299.63,212,299.63Zm0-6.23c-1.21,0-1.93,1.13-1.93,2.62,0,1.72.82,2.66,1.93,2.66a1.65,1.65,0,0,0,1.36-.72,3,3,0,0,0,.56-1.94C213.94,294.46,213.21,293.4,212,293.4Z" transform="translate(50.26)"/><path d="M216.4,294.39c0-.46-.06-1.59-.07-1.6a3.68,3.68,0,0,0,1-.25h.2V294a3,3,0,0,1,2.39-1.47,1.87,1.87,0,0,1,2,2v3.75c0,.69,0,1,.05,1.28-.4,0-.81,0-1.22,0v-4.75a1.18,1.18,0,0,0-.4-1,1.31,1.31,0,0,0-.83-.29,1.84,1.84,0,0,0-1.08.38,3.59,3.59,0,0,0-.87.87v3.45c0,.74,0,1.1,0,1.35-.38,0-.78,0-1.21,0Z" transform="translate(50.26)"/><image width="1747" height="1081" transform="translate(144.35 354.7) scale(0.12)" xlink:href="../../../../../Downloads/Recurso%201.png"/><path d="M79.77,349.36a2.49,2.49,0,0,0-1.19,1.88,1.36,1.36,0,0,0,2.71.13,1.34,1.34,0,0,0,0-.2l.46,0a3.56,3.56,0,0,0,.55,0v.26a2.23,2.23,0,0,1-2.43,2.1,2.13,2.13,0,0,1-2.4-2.24,3.06,3.06,0,0,1,1.38-2.34c.27-.25.54-.48.8-.7a1,1,0,0,0,.4-.77,1.55,1.55,0,0,0-.32-.84h.77a1.22,1.22,0,0,1,.49,1C81,348.37,80.38,348.85,79.77,349.36ZM80.85,345a.71.71,0,0,1-.75.7.72.72,0,0,1-.74-.7.73.73,0,0,1,.74-.71A.72.72,0,0,1,80.85,345Z" transform="translate(50.26)"/><path d="M86.67,342.61a2.47,2.47,0,0,1,2.53,1.69,5.49,5.49,0,0,0-.6.69h0a1.69,1.69,0,0,0-1.84-1.3,2.37,2.37,0,0,0-2,1,4.16,4.16,0,0,0-.76,2.64,3.9,3.9,0,0,0,.8,2.59,2.67,2.67,0,0,0,2.14.95A3.83,3.83,0,0,0,89,350.2a3.06,3.06,0,0,0,.31.91,4.46,4.46,0,0,1-2.52.79,3.82,3.82,0,0,1-2.94-1.2,4.81,4.81,0,0,1-1.09-3.32C82.76,344.58,84.27,342.61,86.67,342.61Z" transform="translate(50.26)"/><path d="M93.1,351.9c-1.93,0-3.07-1.54-3.07-3.57s1.3-3.57,3.11-3.57,3.06,1.44,3.06,3.53S94.92,351.9,93.1,351.9Zm0-6.23c-1.21,0-1.92,1.13-1.92,2.62,0,1.72.81,2.66,1.92,2.66a1.66,1.66,0,0,0,1.37-.72,3.08,3.08,0,0,0,.55-1.94C95,346.73,94.31,345.67,93.11,345.67Z" transform="translate(50.26)"/><path d="M97.49,346.66c0-.54,0-1.43-.06-1.6a4.53,4.53,0,0,0,1-.25h.19v1.42a3,3,0,0,1,2.39-1.47,1.83,1.83,0,0,1,1.91,1.47,3,3,0,0,1,2.4-1.47,1.88,1.88,0,0,1,2,2v3.75c0,.69,0,1.06,0,1.28-.37,0-.79,0-1.22,0v-4.75a1.18,1.18,0,0,0-.4-1.05,1.31,1.31,0,0,0-.83-.29,2.62,2.62,0,0,0-1.91,1.17v3.6a12.33,12.33,0,0,0,0,1.28c-.41,0-.82,0-1.22,0v-4.75a1.15,1.15,0,0,0-.41-1.05,1.31,1.31,0,0,0-.83-.29,1.87,1.87,0,0,0-1.08.38,3.42,3.42,0,0,0-.87.87v3.45c0,.74,0,1.14,0,1.35-.38,0-.78,0-1.21,0Z" transform="translate(50.26)"/><path d="M111.66,351.9c-1.92,0-3.07-1.54-3.07-3.57s1.3-3.57,3.11-3.57,3.07,1.44,3.07,3.53S113.48,351.9,111.66,351.9Zm0-6.23c-1.21,0-1.92,1.13-1.92,2.62,0,1.72.82,2.66,1.92,2.66a1.66,1.66,0,0,0,1.37-.72,3,3,0,0,0,.56-1.94C113.6,346.73,112.87,345.67,111.67,345.67Z" transform="translate(50.26)"/><path d="M118.86,345.75l-1-.13V345l1-.21.09-1.38a3.66,3.66,0,0,0,.91-.22H120v1.6H122a2.49,2.49,0,0,0,0,.53c0,.16,0,.29,0,.41H120v3.92c0,.95.39,1.24,1,1.24a1.73,1.73,0,0,0,1-.34,2.49,2.49,0,0,0,.26.77,2.7,2.7,0,0,1-1.55.56c-1.09,0-1.85-.68-1.85-2.07Z" transform="translate(50.26)"/><path d="M125.79,344.76a2.58,2.58,0,0,1,2.71,2.78,6.07,6.07,0,0,1-.06.85h-4.55v.19A2.14,2.14,0,0,0,126,351a3,3,0,0,0,1.92-.68,3.81,3.81,0,0,0,.38.67,3,3,0,0,1-1.17.71,4,4,0,0,1-1.3.24c-1.78,0-3.15-1.2-3.15-3.54C122.71,346.33,124,344.76,125.79,344.76Zm1.67,2.86c0-.9-.33-2-1.63-2a2,2,0,0,0-1.92,2Z" transform="translate(50.26)"/><path d="M133.92,351a2.26,2.26,0,0,0,1.05-.24.92.92,0,0,0,.47-.88c0-.57-.39-.75-1.47-1.17a6.14,6.14,0,0,1-1.38-.74,1.55,1.55,0,0,1-.56-1.35c0-1.13.9-1.83,2.24-1.83a4.14,4.14,0,0,1,2,.45,2,2,0,0,0-.28.72l-.09.05a3.64,3.64,0,0,0-1.48-.3c-.66,0-1.27.21-1.27.88s.49.9,1.32,1.17a4.16,4.16,0,0,1,1.51.81,1.76,1.76,0,0,1,.46,1.3c0,1.42-1.21,2.06-2.47,2.06a3.51,3.51,0,0,1-2-.59,2.65,2.65,0,0,0,.28-.77A3.13,3.13,0,0,0,133.92,351Z" transform="translate(50.26)"/><path d="M140.34,344.76a2.57,2.57,0,0,1,2.7,2.78,6.06,6.06,0,0,1,0,.85h-4.55v.19a2.14,2.14,0,0,0,2.13,2.38,3.07,3.07,0,0,0,1.93-.68,4.58,4.58,0,0,0,.37.67,2.88,2.88,0,0,1-1.17.71,4,4,0,0,1-1.3.24c-1.78,0-3.14-1.2-3.14-3.54C137.26,346.33,138.57,344.76,140.34,344.76Zm1.66,2.86c0-.9-.32-2-1.62-2a2,2,0,0,0-1.93,2Z" transform="translate(50.26)"/><path d="M144.34,346.66c0-.46-.05-1.59-.06-1.6a3.76,3.76,0,0,0,1-.25h.19v1.42a3,3,0,0,1,2.4-1.47,1.87,1.87,0,0,1,2,2v3.75c0,.69,0,1,0,1.28-.4,0-.82,0-1.22,0v-4.75a1.15,1.15,0,0,0-.41-1.05,1.29,1.29,0,0,0-.83-.29,1.89,1.89,0,0,0-1.08.38,3.42,3.42,0,0,0-.87.87v3.45c0,.74,0,1.1,0,1.35-.38,0-.78,0-1.21,0Z" transform="translate(50.26)"/><path d="M151.8,345.75l-1-.13V345l1-.21.1-1.38a3.89,3.89,0,0,0,.91-.22H153v1.6h1.94a2.49,2.49,0,0,0-.05.53c0,.16,0,.29,0,.41H153v3.92c0,.95.4,1.24,1,1.24a1.73,1.73,0,0,0,1-.34,2.49,2.49,0,0,0,.26.77,2.7,2.7,0,0,1-1.55.56c-1.09,0-1.85-.68-1.85-2.07Z" transform="translate(50.26)"/><path d="M156.81,342.3a.73.73,0,0,1,.74.7.74.74,0,0,1-1.48,0A.73.73,0,0,1,156.81,342.3Zm-.59,8.17V347c0-.33,0-1.71-.05-1.89a4.09,4.09,0,0,0,1-.25h.19v5.66c0,.74,0,1.18,0,1.35-.37,0-.79,0-1.22,0Z" transform="translate(50.26)"/><path d="M160.64,351a2.27,2.27,0,0,0,1.06-.24.92.92,0,0,0,.47-.88c0-.57-.39-.75-1.47-1.17a6.14,6.14,0,0,1-1.38-.74,1.55,1.55,0,0,1-.56-1.35c0-1.13.9-1.83,2.24-1.83a4.07,4.07,0,0,1,2,.45,2.14,2.14,0,0,0-.27.72l-.09.05a3.64,3.64,0,0,0-1.48-.3c-.66,0-1.28.21-1.28.88s.5.9,1.33,1.17a4.16,4.16,0,0,1,1.51.81,1.75,1.75,0,0,1,.45,1.3c0,1.42-1.21,2.06-2.47,2.06a3.56,3.56,0,0,1-2-.59,2.38,2.38,0,0,0,.29-.77A3.12,3.12,0,0,0,160.64,351Z" transform="translate(50.26)"/><path d="M164.65,345.75l-1-.13,0-.6,1-.21.09-1.38a3.89,3.89,0,0,0,.91-.22h.16v1.6h1.93a2.49,2.49,0,0,0-.05.53c0,.16,0,.29,0,.41h-1.88v3.92c0,.95.39,1.24,1,1.24a1.71,1.71,0,0,0,1-.34,2.49,2.49,0,0,0,.26.77,2.68,2.68,0,0,1-1.55.56c-1.09,0-1.84-.68-1.84-2.07Z" transform="translate(50.26)"/><path d="M171.58,344.76a2.57,2.57,0,0,1,2.7,2.78,6.06,6.06,0,0,1-.05.85h-4.55v.19a2.14,2.14,0,0,0,2.13,2.38,3.07,3.07,0,0,0,1.93-.68,4.58,4.58,0,0,0,.37.67,2.88,2.88,0,0,1-1.17.71,4,4,0,0,1-1.3.24c-1.78,0-3.14-1.2-3.14-3.54C168.5,346.33,169.81,344.76,171.58,344.76Zm1.66,2.86c0-.9-.32-2-1.62-2a2,2,0,0,0-1.93,2Z" transform="translate(50.26)"/><path d="M178.18,346.66c0-.46-.06-1.38-.06-1.6a4,4,0,0,0,1-.25h.19v1.43a2,2,0,0,1,1.76-1.48,1.89,1.89,0,0,1,1.06.28,3.77,3.77,0,0,0-.39,1,1.4,1.4,0,0,0-.78-.22c-.66,0-1.17.33-1.65,1.41v3.22c0,.74,0,1,.05,1.35-.37,0-.79,0-1.22,0Z" transform="translate(50.26)"/><path d="M185.36,344.76a2.57,2.57,0,0,1,2.7,2.78,6.06,6.06,0,0,1-.05.85h-4.55v.19a2.14,2.14,0,0,0,2.13,2.38,3.07,3.07,0,0,0,1.93-.68,4.58,4.58,0,0,0,.37.67,2.88,2.88,0,0,1-1.17.71,4,4,0,0,1-1.3.24c-1.78,0-3.14-1.2-3.14-3.54C182.28,346.33,183.59,344.76,185.36,344.76Zm1.66,2.86c0-.9-.32-2-1.62-2a2,2,0,0,0-1.93,2Z" transform="translate(50.26)"/><path d="M195,351.41a1.3,1.3,0,0,1-1,.49c-.61,0-1.06-.4-1.22-1.23a3.26,3.26,0,0,1-.86.83,2.14,2.14,0,0,1-1.3.4,1.62,1.62,0,0,1-1.73-1.7c0-1,1-2.1,3.83-2.45v-.7c0-.95-.42-1.4-1.24-1.4a1.13,1.13,0,0,0-1.26,1.28,8.24,8.24,0,0,0-1.08.12c0-.06,0-.12,0-.17,0-1.52,1.1-2.12,2.42-2.12a2.1,2.1,0,0,1,2.31,2.26v2.85c0,.62.08,1.11.53,1.11a.61.61,0,0,0,.38-.15A1.59,1.59,0,0,0,195,351.41Zm-2.28-3c-.94.14-2.7.49-2.7,1.67,0,.64.49.92,1.07.92a2.29,2.29,0,0,0,1.63-1Z" transform="translate(50.26)"/><path d="M195.87,344.11c0-.28,0-1.81,0-2a5.81,5.81,0,0,0,1-.23H197v8.48a10,10,0,0,0,.06,1.42c-.38,0-.82,0-1.24,0,0-.12,0-1.28,0-1.46Z" transform="translate(50.26)"/><path d="M199.34,342.3a.74.74,0,0,1,.75.7.75.75,0,0,1-1.49,0A.74.74,0,0,1,199.34,342.3Zm-.58,8.17V347c0-.33,0-1.71,0-1.89a4.31,4.31,0,0,0,1-.25h.19v5.66c0,.74,0,1.18,0,1.35-.38,0-.79,0-1.22,0Z" transform="translate(50.26)"/><path d="M201.15,351.82V351l.68-1,1.21-1.77c.43-.64.83-1.21,1.19-1.74l.63-.87h-2.11c-.51,0-1,0-1.47,0,0-.15,0-.33,0-.47a3,3,0,0,0,0-.43h4.89v.82l-.74,1-1.23,1.78-1.19,1.7-.53.78H205a10.67,10.67,0,0,0,1.16-.05,4.21,4.21,0,0,0,0,.46,4,4,0,0,0,0,.48Z" transform="translate(50.26)"/><path d="M213,351.41a1.31,1.31,0,0,1-1,.49c-.61,0-1.07-.4-1.22-1.23a3.6,3.6,0,0,1-.86.83,2.18,2.18,0,0,1-1.3.4,1.61,1.61,0,0,1-1.73-1.7c0-1,.95-2.1,3.82-2.45v-.7c0-.95-.42-1.4-1.23-1.4a1.13,1.13,0,0,0-1.27,1.28,8.24,8.24,0,0,0-1.08.12c0-.06,0-.12,0-.17,0-1.52,1.11-2.12,2.42-2.12a2.1,2.1,0,0,1,2.31,2.26v2.85c0,.62.08,1.11.54,1.11a.55.55,0,0,0,.37-.15A1.77,1.77,0,0,0,213,351.41Zm-2.29-3c-.94.14-2.69.49-2.69,1.67,0,.64.48.92,1.06.92a2.27,2.27,0,0,0,1.63-1Z" transform="translate(50.26)"/><path d="M213.89,346.66c0-.46,0-1.59-.06-1.6a3.76,3.76,0,0,0,1-.25h.19v1.42a3,3,0,0,1,2.39-1.47,1.87,1.87,0,0,1,2,2v3.75c0,.69,0,1,.05,1.28-.4,0-.82,0-1.22,0v-4.75a1.15,1.15,0,0,0-.41-1.05,1.31,1.31,0,0,0-.83-.29,1.87,1.87,0,0,0-1.08.38,3.42,3.42,0,0,0-.87.87v3.45c0,.74,0,1.1,0,1.35-.38,0-.78,0-1.21,0Z" transform="translate(50.26)"/><path d="M220.69,348.44c0-2.34,1.46-3.68,3.19-3.68a2.85,2.85,0,0,1,1.5.39c0-.38,0-2.82,0-3a8.36,8.36,0,0,0,1-.23h.18v8.18a8,8,0,0,0,.19,1.72c-.38,0-.78,0-1.21,0a2.65,2.65,0,0,1-.09-.67,2.83,2.83,0,0,1-1.81.71C222.07,351.9,220.69,350.61,220.69,348.44Zm3.41-2.86c-1.17,0-2.21,1-2.21,2.71a3,3,0,0,0,.57,1.93,1.81,1.81,0,0,0,1.48.73,2.36,2.36,0,0,0,1.46-.51c0-.14,0-1.46,0-4.32A1.58,1.58,0,0,0,224.1,345.58Z" transform="translate(50.26)"/><path d="M230.9,351.9c-1.93,0-3.07-1.54-3.07-3.57s1.3-3.57,3.1-3.57,3.07,1.44,3.07,3.53S232.72,351.9,230.9,351.9Zm0-6.23c-1.21,0-1.93,1.13-1.93,2.62,0,1.72.82,2.66,1.93,2.66a1.65,1.65,0,0,0,1.36-.72,3,3,0,0,0,.56-1.94C232.83,346.73,232.1,345.67,230.91,345.67Z" transform="translate(50.26)"/><path d="M240.52,344.76a2.57,2.57,0,0,1,2.7,2.78,6.06,6.06,0,0,1-.05.85h-4.55v.19a2.14,2.14,0,0,0,2.13,2.38,3,3,0,0,0,1.92-.68,4.57,4.57,0,0,0,.38.67,2.88,2.88,0,0,1-1.17.71,4,4,0,0,1-1.3.24c-1.78,0-3.15-1.2-3.15-3.54C237.43,346.33,238.75,344.76,240.52,344.76Zm1.66,2.86c0-.9-.33-2-1.63-2a2,2,0,0,0-1.92,2Z" transform="translate(50.26)"/><path d="M246,351a2.26,2.26,0,0,0,1.05-.24.9.9,0,0,0,.47-.88c0-.57-.39-.75-1.47-1.17a6.37,6.37,0,0,1-1.38-.74,1.57,1.57,0,0,1-.55-1.35c0-1.13.89-1.83,2.23-1.83a4.09,4.09,0,0,1,2,.45,2,2,0,0,0-.27.72L248,346a3.69,3.69,0,0,0-1.49-.3c-.66,0-1.27.21-1.27.88s.49.9,1.33,1.17a4.1,4.1,0,0,1,1.5.81,1.76,1.76,0,0,1,.46,1.3c0,1.42-1.21,2.06-2.47,2.06a3.51,3.51,0,0,1-2-.59,2.64,2.64,0,0,0,.29-.77A3.07,3.07,0,0,0,246,351Z" transform="translate(50.26)"/><path d="M250,345.75l-1-.13V345l1-.21.09-1.38a3.66,3.66,0,0,0,.91-.22h.16v1.6h1.94a2.49,2.49,0,0,0,0,.53c0,.16,0,.29,0,.41h-1.89v3.92c0,.95.39,1.24,1,1.24a1.73,1.73,0,0,0,1-.34,2.49,2.49,0,0,0,.26.77,2.7,2.7,0,0,1-1.55.56c-1.09,0-1.85-.68-1.85-2.07Z" transform="translate(50.26)"/><path d="M260.12,351.41a1.31,1.31,0,0,1-1,.49c-.61,0-1.07-.4-1.22-1.23a3.6,3.6,0,0,1-.86.83,2.18,2.18,0,0,1-1.3.4,1.62,1.62,0,0,1-1.73-1.7c0-1,1-2.1,3.82-2.45v-.7c0-.95-.42-1.4-1.23-1.4a1.13,1.13,0,0,0-1.27,1.28,7.94,7.94,0,0,0-1.07.12c0-.06,0-.12,0-.17,0-1.52,1.11-2.12,2.42-2.12A2.11,2.11,0,0,1,259,347v2.85c0,.62.07,1.11.53,1.11a.61.61,0,0,0,.38-.15A1.59,1.59,0,0,0,260.12,351.41Zm-2.29-3c-.93.14-2.69.49-2.69,1.67,0,.64.48.92,1.07.92a2.27,2.27,0,0,0,1.62-1Z" transform="translate(50.26)"/><path d="M269.24,351.41a1.3,1.3,0,0,1-1,.49c-.61,0-1.06-.4-1.22-1.23a3.26,3.26,0,0,1-.86.83,2.14,2.14,0,0,1-1.3.4,1.62,1.62,0,0,1-1.73-1.7c0-1,.95-2.1,3.83-2.45v-.7c0-.95-.42-1.4-1.24-1.4a1.13,1.13,0,0,0-1.26,1.28,8.24,8.24,0,0,0-1.08.12c0-.06,0-.12,0-.17,0-1.52,1.1-2.12,2.42-2.12A2.1,2.1,0,0,1,268.1,347v2.85c0,.62.08,1.11.53,1.11a.58.58,0,0,0,.38-.15A1.59,1.59,0,0,0,269.24,351.41Zm-2.28-3c-.94.14-2.69.49-2.69,1.67,0,.64.48.92,1.06.92a2.29,2.29,0,0,0,1.63-1Z" transform="translate(50.26)"/><path d="M272.61,344.76a2.64,2.64,0,0,1,1.67.52,1.83,1.83,0,0,1,.67,1.56V347h-.26a3.77,3.77,0,0,0-.76.07v-.2a1.29,1.29,0,0,0-.29-.79,1.19,1.19,0,0,0-1-.38,1.64,1.64,0,0,0-1.38.76,3.14,3.14,0,0,0-.53,1.86c0,1.52.66,2.69,2.15,2.69a3.21,3.21,0,0,0,1.85-.6,2.46,2.46,0,0,0,.37.66,3.58,3.58,0,0,1-2.38.88c-1.81,0-3.15-1.28-3.15-3.54C269.54,346.33,270.81,344.76,272.61,344.76Z" transform="translate(50.26)"/><path d="M276.46,345.75l-1-.13V345l1-.21.09-1.38a3.66,3.66,0,0,0,.91-.22h.16v1.6h1.93a3.38,3.38,0,0,0-.05.53,2.55,2.55,0,0,0,0,.41h-1.89v3.92c0,.95.39,1.24,1,1.24a1.7,1.7,0,0,0,1-.34,3.16,3.16,0,0,0,.26.77,2.68,2.68,0,0,1-1.54.56c-1.1,0-1.85-.68-1.85-2.07Z" transform="translate(50.26)"/><path d="M281.46,342.3a.74.74,0,0,1,.75.7.75.75,0,0,1-1.49,0A.74.74,0,0,1,281.46,342.3Zm-.58,8.17V347c0-.33,0-1.71-.05-1.89a4.31,4.31,0,0,0,1-.25h.19v5.66c0,.74,0,1.18,0,1.35-.38,0-.79,0-1.22,0Z" transform="translate(50.26)"/><path d="M284.35,344.82l1.8,5.29a5.88,5.88,0,0,1,.18.64,6.58,6.58,0,0,1,.19-.64l.44-1.3.58-1.73.5-1.53.24-.73a11.61,11.61,0,0,0,1.18,0l-2.61,7h-.3l-.8,0-.51-1.36-.86-2.25-.85-2.2c-.24-.67-.4-1.08-.45-1.21C283.51,344.84,284,344.84,284.35,344.82Z" transform="translate(50.26)"/><path d="M291.07,342.3a.73.73,0,0,1,.74.7.74.74,0,1,1-.74-.7Zm-.58,8.17V347c0-.33,0-1.71-.05-1.89a4.12,4.12,0,0,0,1-.25h.2v5.66c0,.74,0,1.18,0,1.35-.38,0-.8,0-1.23,0Z" transform="translate(50.26)"/><path d="M292.93,348.44c0-2.34,1.46-3.68,3.19-3.68a2.85,2.85,0,0,1,1.5.39c0-.38,0-2.82,0-3a8.36,8.36,0,0,0,1-.23h.18v8.18a8,8,0,0,0,.19,1.72c-.38,0-.78,0-1.21,0a2.65,2.65,0,0,1-.09-.67,2.83,2.83,0,0,1-1.81.71C294.31,351.9,292.93,350.61,292.93,348.44Zm3.41-2.86c-1.17,0-2.21,1-2.21,2.71a3,3,0,0,0,.57,1.93,1.81,1.81,0,0,0,1.48.73,2.36,2.36,0,0,0,1.46-.51c0-.14,0-1.46,0-4.32A1.58,1.58,0,0,0,296.34,345.58Z" transform="translate(50.26)"/><path d="M306.16,351.41a1.3,1.3,0,0,1-1,.49c-.61,0-1.06-.4-1.22-1.23a3.26,3.26,0,0,1-.86.83,2.14,2.14,0,0,1-1.3.4,1.62,1.62,0,0,1-1.73-1.7c0-1,.95-2.1,3.83-2.45v-.7c0-.95-.42-1.4-1.24-1.4a1.13,1.13,0,0,0-1.26,1.28,8.24,8.24,0,0,0-1.08.12c0-.06,0-.12,0-.17,0-1.52,1.1-2.12,2.42-2.12A2.1,2.1,0,0,1,305,347v2.85c0,.62.08,1.11.53,1.11a.58.58,0,0,0,.38-.15A1.59,1.59,0,0,0,306.16,351.41Zm-2.28-3c-.94.14-2.69.49-2.69,1.67,0,.64.48.92,1.06.92a2.29,2.29,0,0,0,1.63-1Z" transform="translate(50.26)"/><path d="M306.46,348.44c0-2.34,1.46-3.68,3.19-3.68a2.91,2.91,0,0,1,1.51.39c0-.38,0-2.82,0-3a8.64,8.64,0,0,0,1-.23h.19v8.18a8.19,8.19,0,0,0,.18,1.72c-.38,0-.78,0-1.21,0a3.27,3.27,0,0,1-.09-.67,2.81,2.81,0,0,1-1.81.71C307.84,351.9,306.46,350.61,306.46,348.44Zm3.41-2.86c-1.17,0-2.21,1-2.21,2.71a3,3,0,0,0,.57,1.93,1.81,1.81,0,0,0,1.48.73,2.36,2.36,0,0,0,1.46-.51c0-.14,0-1.46,0-4.32A1.61,1.61,0,0,0,309.87,345.58Z" transform="translate(50.26)"/><path d="M317.42,344.87a1.27,1.27,0,0,0-1.36-1.36,1.24,1.24,0,0,0-1.36,1.22v.21h-.35a5.08,5.08,0,0,0-.65,0v-.26a2.23,2.23,0,0,1,2.42-2.11,2.14,2.14,0,0,1,2.41,2.24,3.07,3.07,0,0,1-1.37,2.34c-.28.26-.56.49-.82.71a.94.94,0,0,0-.39.76,1.42,1.42,0,0,0,.33.84h-.78a1.29,1.29,0,0,1-.5-1C315,347,317.42,346.6,317.42,344.87Zm-1.53,5.58a.72.72,0,1,1,0,1.43.72.72,0,1,1,0-1.43Z" transform="translate(50.26)"/><path class="cls-8" d="M226.25,91.73H210.12v15h18v4.5H204.76V69.68h22.41v4.5h-17V87.3h16.13Z" transform="translate(50.26)"/><path class="cls-8" d="M235.05,69.68h5.36v37h17.74v4.5h-23.1Z" transform="translate(50.26)"/></g></g></svg>