<svg xmlns="http://www.w3.org/2000/svg" xmlns:xlink="http://www.w3.org/1999/xlink" viewBox="0 0 533.58 534.86"><defs><style>.cls-1{fill:url(#Motivo_nuevo_2);}.cls-2{fill:none;}.cls-3{clip-path:url(#clip-path);}.cls-4{fill:#f95c4b;}.cls-5{fill:#fff;}.cls-6{fill:url(#Motivo_nuevo_2-3);}.cls-7{clip-path:url(#clip-path-2);}.cls-8{fill:#f96c4b;}</style><pattern id="Motivo_nuevo_2" data-name="Motivo nuevo 2" width="171.44" height="171.44" patternUnits="userSpaceOnUse" viewBox="0 0 171.44 171.44"><rect class="cls-2" width="171.44" height="171.44"/><g class="cls-3"><rect class="cls-4" x="60.37" y="76.75" width="15.15" height="89.7"/><rect class="cls-4" x="81.64" y="112.68" width="15.15" height="27.86"/><rect class="cls-4" x="66.51" y="11.24" width="15.15" height="60.98"/><rect class="cls-4" x="141.52" y="130.12" width="15.15" height="36.82"/><polygon class="cls-4" points="-34.45 50.94 -34.45 35.78 11.39 35.78 11.39 50.94 -34.45 50.94"/><polygon class="cls-4" points="136.99 50.94 136.99 35.78 182.83 35.78 182.83 50.94 136.99 50.94"/><polygon class="cls-4" points="122.57 164.37 122.57 149.22 137.12 149.22 137.12 164.37 122.57 164.37"/><polygon class="cls-4" points="33.11 92.03 33.11 76.87 53.53 76.87 53.53 92.03 33.11 92.03"/><path class="cls-4" d="M51.11,155.35a30.19,30.19,0,1,1-30.18-30.19A30.18,30.18,0,0,1,51.11,155.35Zm-15.15,0a15,15,0,1,0-15,15A15,15,0,0,0,36,155.35Z"/><path class="cls-4" d="M62.29,48.62a23.2,23.2,0,1,1-23.2-23.2A23.2,23.2,0,0,1,62.29,48.62Zm-11.64,0A11.56,11.56,0,1,0,39.09,60.18,11.56,11.56,0,0,0,50.65,48.62Z"/><path class="cls-4" d="M123.77,88.59a19.3,19.3,0,1,1-19.3-19.3A19.3,19.3,0,0,1,123.77,88.59Zm-9.69,0a9.61,9.61,0,1,0-9.61,9.6A9.61,9.61,0,0,0,114.08,88.59Z"/><path class="cls-4" d="M120.38,165.29a19.56,19.56,0,1,1-19.56-19.55A19.55,19.55,0,0,1,120.38,165.29Zm-9.82,0a9.74,9.74,0,1,0-9.74,9.74A9.74,9.74,0,0,0,110.56,165.29Z"/><path class="cls-4" d="M51.11-16.09A30.19,30.19,0,0,1,20.93,14.1,30.19,30.19,0,0,1-9.26-16.09,30.19,30.19,0,0,1,20.93-46.27,30.18,30.18,0,0,1,51.11-16.09ZM36-16.09a15,15,0,0,0-15-15,15,15,0,0,0-15,15,15,15,0,0,0,15,15A15,15,0,0,0,36-16.09Z"/><path class="cls-4" d="M222.55,155.35a30.19,30.19,0,1,1-30.19-30.19A30.18,30.18,0,0,1,222.55,155.35Zm-15.15,0a15,15,0,1,0-15,15A15,15,0,0,0,207.4,155.35Z"/><path class="cls-4" d="M222.55-16.09A30.19,30.19,0,0,1,192.36,14.1a30.19,30.19,0,0,1-30.18-30.19,30.18,30.18,0,0,1,30.18-30.18A30.18,30.18,0,0,1,222.55-16.09Zm-15.15,0a15,15,0,0,0-15-15,15,15,0,0,0-15,15,15,15,0,0,0,15,15A15,15,0,0,0,207.4-16.09Z"/><path class="cls-4" d="M120.38-6.14a19.56,19.56,0,0,1-19.56,19.55A19.56,19.56,0,0,1,81.27-6.14,19.56,19.56,0,0,1,100.82-25.7,19.56,19.56,0,0,1,120.38-6.14Zm-9.82,0a9.74,9.74,0,0,0-9.74-9.74,9.74,9.74,0,0,0-9.73,9.74,9.73,9.73,0,0,0,9.73,9.73A9.74,9.74,0,0,0,110.56-6.14Z"/><rect class="cls-4" x="151.05" y="4.34" width="15.15" height="26.95"/><path class="cls-4" d="M131.5,66.9a5.75,5.75,0,1,1-5.74-5.74A5.74,5.74,0,0,1,131.5,66.9Zm-2.88,0a2.86,2.86,0,1,0-2.86,2.86A2.86,2.86,0,0,0,128.62,66.9Z"/><path class="cls-4" d="M18.58,24.37a7.46,7.46,0,1,1-7.46-7.45A7.46,7.46,0,0,1,18.58,24.37Zm-3.75,0a3.71,3.71,0,1,0-3.71,3.72A3.71,3.71,0,0,0,14.83,24.37Z"/><path class="cls-4" d="M175.37,90.72a12,12,0,1,1-12-12A12,12,0,0,1,175.37,90.72Zm-6,0a6,6,0,1,0-6,6A6,6,0,0,0,169.33,90.72Z"/><path class="cls-4" d="M63.55,13.71A10.49,10.49,0,1,1,53.07,3.23,10.49,10.49,0,0,1,63.55,13.71Zm-5.26,0a5.22,5.22,0,1,0-5.22,5.23A5.22,5.22,0,0,0,58.29,13.71Z"/><path class="cls-4" d="M147.93,14.69a12,12,0,1,1-12-12A12,12,0,0,1,147.93,14.69Zm-6,0a6,6,0,1,0-6,6A6,6,0,0,0,141.9,14.69Z"/><path class="cls-4" d="M129.79,40.85a22.22,22.22,0,1,1-22.22-22.22A22.21,22.21,0,0,1,129.79,40.85Zm-11.15,0a11.07,11.07,0,1,0-11.07,11.06A11.07,11.07,0,0,0,118.64,40.85Z"/><path class="cls-4" d="M198.9,90.72a35.57,35.57,0,1,1-35.56-35.56A35.57,35.57,0,0,1,198.9,90.72Zm-17.85,0a17.71,17.71,0,1,0-17.71,17.71A17.71,17.71,0,0,0,181.05,90.72Z"/><path class="cls-4" d="M3.94,90.72a12,12,0,0,1-12,12,12,12,0,0,1-12-12,12,12,0,0,1,12-12A12,12,0,0,1,3.94,90.72Zm-6,0a6,6,0,0,0-6-6,6,6,0,0,0-6,6,6,6,0,0,0,6,6A6,6,0,0,0-2.11,90.72Z"/><path class="cls-4" d="M27.46,90.72A35.57,35.57,0,0,1-8.1,126.29,35.57,35.57,0,0,1-43.66,90.72,35.56,35.56,0,0,1-8.1,55.16,35.56,35.56,0,0,1,27.46,90.72Zm-17.85,0A17.71,17.71,0,0,0-8.1,73,17.71,17.71,0,0,0-25.81,90.72,17.71,17.71,0,0,0-8.1,108.43,17.71,17.71,0,0,0,9.61,90.72Z"/><path class="cls-4" d="M55.61,112A13.93,13.93,0,1,1,41.68,98.11,13.93,13.93,0,0,1,55.61,112Zm-7,0A6.94,6.94,0,1,0,41.68,119,6.94,6.94,0,0,0,48.61,112Z"/><path class="cls-4" d="M136.62,127.58a16.86,16.86,0,1,1-16.86-16.86A16.86,16.86,0,0,1,136.62,127.58Zm-8.46,0a8.4,8.4,0,1,0-8.4,8.39A8.4,8.4,0,0,0,128.16,127.58Z"/></g></pattern><clipPath id="clip-path"><rect class="cls-2" width="171.44" height="171.44"/></clipPath><pattern id="Motivo_nuevo_2-3" data-name="Motivo nuevo 2" width="171.44" height="171.44" patternUnits="userSpaceOnUse" viewBox="0 0 171.44 171.44"><rect class="cls-2" width="171.44" height="171.44"/><g class="cls-3"><rect class="cls-4" x="60.37" y="76.75" width="15.15" height="89.7"/><rect class="cls-4" x="81.64" y="112.68" width="15.15" height="27.86"/><rect class="cls-4" x="66.51" y="11.24" width="15.15" height="60.98"/><rect class="cls-4" x="141.52" y="130.12" width="15.15" height="36.82"/><polygon class="cls-4" points="-34.45 50.94 -34.45 35.78 11.39 35.78 11.39 50.94 -34.45 50.94"/><polygon class="cls-4" points="136.99 50.94 136.99 35.78 182.83 35.78 182.83 50.94 136.99 50.94"/><polygon class="cls-4" points="122.57 164.37 122.57 149.22 137.12 149.22 137.12 164.37 122.57 164.37"/><polygon class="cls-4" points="33.11 92.03 33.11 76.87 53.53 76.87 53.53 92.03 33.11 92.03"/><path class="cls-4" d="M51.11,155.35a30.19,30.19,0,1,1-30.18-30.19A30.18,30.18,0,0,1,51.11,155.35Zm-15.15,0a15,15,0,1,0-15,15A15,15,0,0,0,36,155.35Z"/><path class="cls-4" d="M62.29,48.62a23.2,23.2,0,1,1-23.2-23.2A23.2,23.2,0,0,1,62.29,48.62Zm-11.64,0A11.56,11.56,0,1,0,39.09,60.18,11.56,11.56,0,0,0,50.65,48.62Z"/><path class="cls-4" d="M123.77,88.59a19.3,19.3,0,1,1-19.3-19.3A19.3,19.3,0,0,1,123.77,88.59Zm-9.69,0a9.61,9.61,0,1,0-9.61,9.6A9.61,9.61,0,0,0,114.08,88.59Z"/><path class="cls-4" d="M120.38,165.29a19.56,19.56,0,1,1-19.56-19.55A19.55,19.55,0,0,1,120.38,165.29Zm-9.82,0a9.74,9.74,0,1,0-9.74,9.74A9.74,9.74,0,0,0,110.56,165.29Z"/><path class="cls-4" d="M51.11-16.09A30.19,30.19,0,0,1,20.93,14.1,30.19,30.19,0,0,1-9.26-16.09,30.19,30.19,0,0,1,20.93-46.27,30.18,30.18,0,0,1,51.11-16.09ZM36-16.09a15,15,0,0,0-15-15,15,15,0,0,0-15,15,15,15,0,0,0,15,15A15,15,0,0,0,36-16.09Z"/><path class="cls-4" d="M222.55,155.35a30.19,30.19,0,1,1-30.19-30.19A30.18,30.18,0,0,1,222.55,155.35Zm-15.15,0a15,15,0,1,0-15,15A15,15,0,0,0,207.4,155.35Z"/><path class="cls-4" d="M222.55-16.09A30.19,30.19,0,0,1,192.36,14.1a30.19,30.19,0,0,1-30.18-30.19,30.18,30.18,0,0,1,30.18-30.18A30.18,30.18,0,0,1,222.55-16.09Zm-15.15,0a15,15,0,0,0-15-15,15,15,0,0,0-15,15,15,15,0,0,0,15,15A15,15,0,0,0,207.4-16.09Z"/><path class="cls-4" d="M120.38-6.14a19.56,19.56,0,0,1-19.56,19.55A19.56,19.56,0,0,1,81.27-6.14,19.56,19.56,0,0,1,100.82-25.7,19.56,19.56,0,0,1,120.38-6.14Zm-9.82,0a9.74,9.74,0,0,0-9.74-9.74,9.74,9.74,0,0,0-9.73,9.74,9.73,9.73,0,0,0,9.73,9.73A9.74,9.74,0,0,0,110.56-6.14Z"/><rect class="cls-4" x="151.05" y="4.34" width="15.15" height="26.95"/><path class="cls-4" d="M131.5,66.9a5.75,5.75,0,1,1-5.74-5.74A5.74,5.74,0,0,1,131.5,66.9Zm-2.88,0a2.86,2.86,0,1,0-2.86,2.86A2.86,2.86,0,0,0,128.62,66.9Z"/><path class="cls-4" d="M18.58,24.37a7.46,7.46,0,1,1-7.46-7.45A7.46,7.46,0,0,1,18.58,24.37Zm-3.75,0a3.71,3.71,0,1,0-3.71,3.72A3.71,3.71,0,0,0,14.83,24.37Z"/><path class="cls-4" d="M175.37,90.72a12,12,0,1,1-12-12A12,12,0,0,1,175.37,90.72Zm-6,0a6,6,0,1,0-6,6A6,6,0,0,0,169.33,90.72Z"/><path class="cls-4" d="M63.55,13.71A10.49,10.49,0,1,1,53.07,3.23,10.49,10.49,0,0,1,63.55,13.71Zm-5.26,0a5.22,5.22,0,1,0-5.22,5.23A5.22,5.22,0,0,0,58.29,13.71Z"/><path class="cls-4" d="M147.93,14.69a12,12,0,1,1-12-12A12,12,0,0,1,147.93,14.69Zm-6,0a6,6,0,1,0-6,6A6,6,0,0,0,141.9,14.69Z"/><path class="cls-4" d="M129.79,40.85a22.22,22.22,0,1,1-22.22-22.22A22.21,22.21,0,0,1,129.79,40.85Zm-11.15,0a11.07,11.07,0,1,0-11.07,11.06A11.07,11.07,0,0,0,118.64,40.85Z"/><path class="cls-4" d="M198.9,90.72a35.57,35.57,0,1,1-35.56-35.56A35.57,35.57,0,0,1,198.9,90.72Zm-17.85,0a17.71,17.71,0,1,0-17.71,17.71A17.71,17.71,0,0,0,181.05,90.72Z"/><path class="cls-4" d="M3.94,90.72a12,12,0,0,1-12,12,12,12,0,0,1-12-12,12,12,0,0,1,12-12A12,12,0,0,1,3.94,90.72Zm-6,0a6,6,0,0,0-6-6,6,6,0,0,0-6,6,6,6,0,0,0,6,6A6,6,0,0,0-2.11,90.72Z"/><path class="cls-4" d="M27.46,90.72A35.57,35.57,0,0,1-8.1,126.29,35.57,35.57,0,0,1-43.66,90.72,35.56,35.56,0,0,1-8.1,55.16,35.56,35.56,0,0,1,27.46,90.72Zm-17.85,0A17.71,17.71,0,0,0-8.1,73,17.71,17.71,0,0,0-25.81,90.72,17.71,17.71,0,0,0-8.1,108.43,17.71,17.71,0,0,0,9.61,90.72Z"/><path class="cls-4" d="M55.61,112A13.93,13.93,0,1,1,41.68,98.11,13.93,13.93,0,0,1,55.61,112Zm-7,0A6.94,6.94,0,1,0,41.68,119,6.94,6.94,0,0,0,48.61,112Z"/><path class="cls-4" d="M136.62,127.58a16.86,16.86,0,1,1-16.86-16.86A16.86,16.86,0,0,1,136.62,127.58Zm-8.46,0a8.4,8.4,0,1,0-8.4,8.39A8.4,8.4,0,0,0,128.16,127.58Z"/></g></pattern><clipPath id="clip-path-2" transform="translate(50.26)"><path class="cls-1" d="M45.55,534.86H12c-6.6,0-12-8.59-12-19.1V20.38C0,9.87,5.4,1.28,12,1.28H45.55Z"/></clipPath></defs><g id="Capa_2" data-name="Capa 2"><g id="Capa_2-2" data-name="Capa 2"><rect class="cls-5" x="-99.16" y="99.16" width="533.58" height="335.26" rx="12" transform="translate(484.68 99.16) rotate(90)"/><path class="cls-6" d="M45.55,534.86H12c-6.6,0-12-8.59-12-19.1V20.38C0,9.87,5.4,1.28,12,1.28H45.55Z" transform="translate(50.26)"/><g class="cls-7"><path class="cls-6" d="M471.33,534.86H-38.26a12,12,0,0,1-12-12V13.28a12,12,0,0,1,12-12H471.33a12,12,0,0,1,12,12V522.86A12,12,0,0,1,471.33,534.86Z" transform="translate(50.26)"/></g><rect class="cls-8" x="122.57" y="127.45" width="262.26" height="49.85"/><path class="cls-5" d="M81.74,157,79.08,165H75.66l8.7-25.61h4L97.09,165H93.55L90.82,157Zm8.39-2.59L87.63,147c-.57-1.67-.95-3.19-1.33-4.67h-.08c-.38,1.52-.8,3.08-1.29,4.64l-2.51,7.4Z" transform="translate(50.26)"/><path class="cls-5" d="M103.09,139.41v15.16c0,5.74,2.55,8.17,6,8.17,3.8,0,6.23-2.5,6.23-8.17V139.41h3.34v14.94c0,7.86-4.14,11.09-9.69,11.09-5.24,0-9.19-3-9.19-10.94V139.41Z" transform="translate(50.26)"/><path class="cls-5" d="M129.24,142.23h-7.79v-2.82h19v2.82h-7.83V165h-3.34Z" transform="translate(50.26)"/><path class="cls-5" d="M164.12,152c0,8.82-5.36,13.49-11.89,13.49-6.77,0-11.52-5.24-11.52-13,0-8.13,5.06-13.45,11.9-13.45S164.12,144.35,164.12,152Zm-19.87.42c0,5.47,3,10.37,8.17,10.37s8.2-4.82,8.2-10.64c0-5.09-2.66-10.41-8.17-10.41S144.25,146.75,144.25,152.37Z" transform="translate(50.26)"/><path class="cls-5" d="M168.41,139.76a33.8,33.8,0,0,1,6.35-.54c3.53,0,5.81.65,7.41,2.09a6.39,6.39,0,0,1,2,4.87,6.72,6.72,0,0,1-4.82,6.53v.12c2,.68,3.15,2.5,3.76,5.16a40.39,40.39,0,0,0,2,7h-3.42a34.42,34.42,0,0,1-1.71-6.11c-.76-3.54-2.12-4.87-5.12-5h-3.12V165h-3.31Zm3.31,11.66h3.38c3.53,0,5.78-1.94,5.78-4.86,0-3.31-2.4-4.75-5.89-4.79a13.76,13.76,0,0,0-3.27.3Z" transform="translate(50.26)"/><path class="cls-5" d="M188.86,139.76a33.62,33.62,0,0,1,6.34-.54c3.54,0,5.82.65,7.41,2.09a6.4,6.4,0,0,1,2,4.87,6.72,6.72,0,0,1-4.83,6.53v.12c2,.68,3.15,2.5,3.76,5.16a41,41,0,0,0,2,7h-3.42a32.69,32.69,0,0,1-1.71-6.11c-.76-3.54-2.13-4.87-5.13-5h-3.12V165h-3.3Zm3.3,11.66h3.39c3.53,0,5.77-1.94,5.77-4.86,0-3.31-2.39-4.75-5.89-4.79a13.89,13.89,0,0,0-3.27.3Z" transform="translate(50.26)"/><path class="cls-5" d="M222.56,153h-9.95v9.23H223.7V165H209.3V139.41h13.83v2.78H212.61v8.09h9.95Z" transform="translate(50.26)"/><path class="cls-5" d="M233.47,142.23h-7.79v-2.82h19v2.82h-7.83V165h-3.34Z" transform="translate(50.26)"/><path class="cls-5" d="M247.49,139.76a33.73,33.73,0,0,1,6.35-.54c3.53,0,5.81.65,7.41,2.09a6.39,6.39,0,0,1,2,4.87,6.72,6.72,0,0,1-4.83,6.53v.12c2,.68,3.16,2.5,3.76,5.16a41,41,0,0,0,2,7h-3.42a32.69,32.69,0,0,1-1.71-6.11c-.76-3.54-2.13-4.87-5.13-5H250.8V165h-3.31Zm3.31,11.66h3.38c3.53,0,5.77-1.94,5.77-4.86,0-3.31-2.39-4.75-5.89-4.79a13.72,13.72,0,0,0-3.26.3Z" transform="translate(50.26)"/><path class="cls-5" d="M272.27,157,269.61,165h-3.42l8.7-25.61h4L287.62,165h-3.54L281.35,157Zm8.39-2.59L278.15,147c-.56-1.67-.94-3.19-1.32-4.67h-.08c-.38,1.52-.8,3.08-1.29,4.64l-2.51,7.4Z" transform="translate(50.26)"/><path class="cls-5" d="M293.32,142.23h-7.79v-2.82h19v2.82h-7.83V165h-3.34Z" transform="translate(50.26)"/><path class="cls-5" d="M328.2,152c0,8.82-5.36,13.49-11.89,13.49-6.77,0-11.51-5.24-11.51-13,0-8.13,5.05-13.45,11.89-13.45C323.68,139,328.2,144.35,328.2,152Zm-19.87.42c0,5.47,3,10.37,8.17,10.37s8.2-4.82,8.2-10.64c0-5.09-2.66-10.41-8.16-10.41S308.33,146.75,308.33,152.37Z" transform="translate(50.26)"/><line class="cls-8" x1="295.55" y1="128.46" x2="384.5" y2="128.46"/><path d="M75.44,209.41c0-.27,0-.58,0-.93l0-.85,1.26-.08c0,.57,0,1.19,0,1.76v6.5H78c.84,0,1.83,0,2.65,0a5.56,5.56,0,0,0-.05.82v.18H77.21l-1.81,0c0-.41,0-1.08,0-1.65Z" transform="translate(50.26)"/><path d="M84.07,216.83c-1.92,0-3.07-1.53-3.07-3.56s1.3-3.57,3.11-3.57,3.07,1.44,3.07,3.53S85.89,216.83,84.07,216.83Zm0-6.22c-1.21,0-1.92,1.13-1.92,2.62,0,1.72.82,2.66,1.92,2.66a1.66,1.66,0,0,0,1.37-.72,3.09,3.09,0,0,0,.56-1.94C86,211.67,85.28,210.61,84.08,210.61Z" transform="translate(50.26)"/><path d="M88.46,211.6c0-.46-.06-1.38-.06-1.6a4,4,0,0,0,1-.25h.19v1.43a2,2,0,0,1,1.76-1.48,1.89,1.89,0,0,1,1.06.28,3.77,3.77,0,0,0-.39,1,1.4,1.4,0,0,0-.78-.22c-.66,0-1.17.33-1.65,1.41v3.22c0,.74,0,1.05.06,1.35-.38,0-.8,0-1.23,0Z" transform="translate(50.26)"/><path d="M95.64,209.7a2.57,2.57,0,0,1,2.7,2.78,6.06,6.06,0,0,1,0,.85H93.74v.19a2.14,2.14,0,0,0,2.13,2.38,3.07,3.07,0,0,0,1.93-.68,4.58,4.58,0,0,0,.37.67,2.88,2.88,0,0,1-1.17.71,3.92,3.92,0,0,1-1.3.23c-1.78,0-3.14-1.19-3.14-3.53C92.56,211.27,93.87,209.7,95.64,209.7Zm1.66,2.86c0-.9-.32-2-1.62-2a2,2,0,0,0-1.93,2Z" transform="translate(50.26)"/><path d="M99.64,211.6a15.41,15.41,0,0,0-.06-1.6,4.4,4.4,0,0,0,1-.25h.19v1.42a3,3,0,0,1,2.4-1.47,1.84,1.84,0,0,1,1.91,1.47,3,3,0,0,1,2.39-1.47,1.88,1.88,0,0,1,2,2v3.75c0,.69,0,1.06,0,1.28-.38,0-.8,0-1.22,0v-4.75a1.18,1.18,0,0,0-.41-1.05,1.31,1.31,0,0,0-.83-.29,2.62,2.62,0,0,0-1.91,1.17v3.6c0,.69,0,1.11,0,1.28-.4,0-.82,0-1.22,0v-4.75a1.18,1.18,0,0,0-.4-1.05,1.34,1.34,0,0,0-.84-.29,1.89,1.89,0,0,0-1.08.38,3.42,3.42,0,0,0-.87.87v3.45c0,.74,0,1.14,0,1.35-.37,0-.78,0-1.21,0Z" transform="translate(50.26)"/><path d="M114.37,207.24a.73.73,0,0,1,.74.7.74.74,0,1,1-.74-.7Zm-.58,8.17v-3.52c0-.33,0-1.71-.05-1.89a4.12,4.12,0,0,0,1-.25h.2v5.66c0,.74,0,1.18,0,1.35-.38,0-.8,0-1.23,0Z" transform="translate(50.26)"/><path d="M116.71,211.91a18.71,18.71,0,0,0-.08-1.91,5.82,5.82,0,0,0,1.06-.25h.18c0,.12,0,.38,0,.57a2.83,2.83,0,0,1,1.77-.62c1.57,0,2.92,1.23,2.92,3.42s-1.45,3.71-3.18,3.71a3.08,3.08,0,0,1-1.51-.4v1.93a10.77,10.77,0,0,0,0,1.18c-.38,0-.79,0-1.22,0,0-.17,0-2.11,0-2.28Zm4.66,1.35c0-1.6-.85-2.61-2-2.61a2.41,2.41,0,0,0-1.46.44v4.35a1.62,1.62,0,0,0,1.3.56C120.34,216,121.37,215,121.37,213.26Z" transform="translate(50.26)"/><path d="M125.38,215.91a2.21,2.21,0,0,0,1.06-.25.89.89,0,0,0,.46-.87c0-.57-.39-.75-1.46-1.17a5.93,5.93,0,0,1-1.38-.74,1.55,1.55,0,0,1-.56-1.35c0-1.13.9-1.83,2.23-1.83a4.09,4.09,0,0,1,2,.45,2.14,2.14,0,0,0-.27.72l-.09,0a3.64,3.64,0,0,0-1.48-.3c-.67,0-1.28.21-1.28.88s.5.9,1.33,1.17a4.16,4.16,0,0,1,1.51.81,1.75,1.75,0,0,1,.45,1.3c0,1.42-1.21,2.05-2.47,2.05a3.55,3.55,0,0,1-2-.58,2.64,2.64,0,0,0,.29-.77A3.09,3.09,0,0,0,125.38,215.91Z" transform="translate(50.26)"/><path d="M129.15,211.58c0-.79-.05-1.56-.06-1.73a8.78,8.78,0,0,0,1-.1h.19v4.67a1.27,1.27,0,0,0,.41,1.06,1.31,1.31,0,0,0,.84.34,2.73,2.73,0,0,0,1.85-1v-3.09c0-.92,0-1.67-.07-1.89a8.47,8.47,0,0,0,1-.1h.21v5.19a9.58,9.58,0,0,0,.17,1.82c-.38,0-.8,0-1.23,0a11.47,11.47,0,0,1-.11-1.19,3.08,3.08,0,0,1-2.29,1.22,2,2,0,0,1-2-2.1Z" transform="translate(50.26)"/><path d="M136.41,211.6a14.79,14.79,0,0,0-.07-1.6,4.4,4.4,0,0,0,1-.25h.2v1.42A3,3,0,0,1,140,209.7a1.84,1.84,0,0,1,1.91,1.47,3,3,0,0,1,2.39-1.47,1.88,1.88,0,0,1,2,2v3.75c0,.69,0,1.06,0,1.28-.38,0-.79,0-1.22,0v-4.75a1.18,1.18,0,0,0-.4-1.05,1.34,1.34,0,0,0-.84-.29,2.66,2.66,0,0,0-1.91,1.17v3.6c0,.69,0,1.11,0,1.28-.4,0-.81,0-1.22,0v-4.75a1.18,1.18,0,0,0-.4-1.05,1.31,1.31,0,0,0-.83-.29,1.84,1.84,0,0,0-1.08.38,3.42,3.42,0,0,0-.87.87v3.45c0,.74,0,1.14,0,1.35-.38,0-.78,0-1.21,0Z" transform="translate(50.26)"/><path d="M150.11,213.38c0-2.34,1.46-3.68,3.18-3.68a2.86,2.86,0,0,1,1.51.39c0-.38,0-2.82,0-3a6.79,6.79,0,0,0,1-.22H156V215a8.94,8.94,0,0,0,.18,1.72c-.37,0-.78,0-1.2,0a3,3,0,0,1-.1-.67,2.77,2.77,0,0,1-1.8.7C151.49,216.83,150.11,215.55,150.11,213.38Zm3.41-2.86c-1.17,0-2.21,1-2.21,2.71a3,3,0,0,0,.57,1.93,1.79,1.79,0,0,0,1.48.73,2.36,2.36,0,0,0,1.46-.51c0-.14,0-1.46,0-4.32A1.58,1.58,0,0,0,153.52,210.52Z" transform="translate(50.26)"/><path d="M160.31,216.83c-1.92,0-3.06-1.53-3.06-3.56s1.3-3.57,3.1-3.57,3.07,1.44,3.07,3.53S162.13,216.83,160.31,216.83Zm0-6.22c-1.21,0-1.93,1.13-1.93,2.62,0,1.72.82,2.66,1.93,2.66a1.65,1.65,0,0,0,1.36-.72,3,3,0,0,0,.56-1.94C162.25,211.67,161.52,210.61,160.33,210.61Z" transform="translate(50.26)"/><path d="M164.69,209.05c0-.28,0-1.81,0-2a5.06,5.06,0,0,0,1-.22h.19v8.48a10.6,10.6,0,0,0,0,1.42c-.38,0-.82,0-1.24,0,0-.12,0-1.28,0-1.46Z" transform="translate(50.26)"/><path d="M170.21,216.83c-1.93,0-3.07-1.53-3.07-3.56s1.3-3.57,3.11-3.57,3.06,1.44,3.06,3.53S172,216.83,170.21,216.83Zm0-6.22c-1.21,0-1.92,1.13-1.92,2.62,0,1.72.81,2.66,1.92,2.66a1.66,1.66,0,0,0,1.37-.72,3.08,3.08,0,0,0,.55-1.94C172.14,211.67,171.42,210.61,170.22,210.61Z" transform="translate(50.26)"/><path d="M174.6,211.6c0-.46-.06-1.38-.06-1.6a4,4,0,0,0,1-.25h.19v1.43a2,2,0,0,1,1.76-1.48,1.89,1.89,0,0,1,1.06.28,3.77,3.77,0,0,0-.39,1,1.43,1.43,0,0,0-.78-.22c-.66,0-1.17.33-1.65,1.41v3.22c0,.74,0,1.05,0,1.35-.37,0-.79,0-1.22,0Z" transform="translate(50.26)"/><path d="M183.44,215.91a2.14,2.14,0,0,0,1.05-.25.88.88,0,0,0,.47-.87c0-.57-.39-.75-1.47-1.17a6.37,6.37,0,0,1-1.38-.74,1.57,1.57,0,0,1-.55-1.35c0-1.13.89-1.83,2.23-1.83a4.09,4.09,0,0,1,2,.45,2,2,0,0,0-.27.72l-.09,0a3.69,3.69,0,0,0-1.49-.3c-.66,0-1.27.21-1.27.88s.49.9,1.33,1.17a4,4,0,0,1,1.5.81,1.76,1.76,0,0,1,.46,1.3c0,1.42-1.21,2.05-2.47,2.05a3.5,3.5,0,0,1-2-.58,2.64,2.64,0,0,0,.29-.77A3.07,3.07,0,0,0,183.44,215.91Z" transform="translate(50.26)"/><path d="M187.81,207.24a.73.73,0,0,1,.74.7.74.74,0,0,1-1.48,0A.73.73,0,0,1,187.81,207.24Zm-.59,8.17v-3.52c0-.33,0-1.71-.05-1.89a4.09,4.09,0,0,0,1-.25h.19v5.66c0,.74,0,1.18,0,1.35-.37,0-.79,0-1.22,0Z" transform="translate(50.26)"/><path d="M190.33,210.69l-1-.13V210l1-.21.09-1.38a3.66,3.66,0,0,0,.91-.22h.16v1.6h1.93a3.38,3.38,0,0,0,0,.53,2.55,2.55,0,0,0,0,.41H191.5v3.92c0,.95.39,1.24,1,1.24a1.7,1.7,0,0,0,1-.34,3.16,3.16,0,0,0,.26.77,2.66,2.66,0,0,1-1.54.55c-1.1,0-1.85-.67-1.85-2.06Z" transform="translate(50.26)"/><path d="M203,216.35a1.35,1.35,0,0,1-1,.48c-.61,0-1.06-.39-1.22-1.22a3.26,3.26,0,0,1-.86.83,2.2,2.2,0,0,1-1.3.39,1.6,1.6,0,0,1-1.72-1.69c0-1,.94-2.1,3.82-2.45V212c0-1-.42-1.4-1.24-1.4a1.13,1.13,0,0,0-1.26,1.28,8.24,8.24,0,0,0-1.08.12c0-.06,0-.12,0-.17,0-1.52,1.1-2.12,2.42-2.12a2.1,2.1,0,0,1,2.31,2.26v2.85c0,.62.08,1.11.53,1.11a.58.58,0,0,0,.38-.15A1.43,1.43,0,0,0,203,216.35Zm-2.29-3c-.94.14-2.69.49-2.69,1.67,0,.64.48.92,1.06.92a2.29,2.29,0,0,0,1.63-1Z" transform="translate(50.26)"/><path d="M203.89,211.6a14.79,14.79,0,0,0-.07-1.6,4.29,4.29,0,0,0,1-.25h.2v1.42a3,3,0,0,1,2.39-1.47,1.83,1.83,0,0,1,1.91,1.47,3,3,0,0,1,2.39-1.47,1.88,1.88,0,0,1,2,2v3.75c0,.69,0,1.06,0,1.28-.37,0-.79,0-1.22,0v-4.75a1.18,1.18,0,0,0-.4-1.05,1.33,1.33,0,0,0-.83-.29,2.66,2.66,0,0,0-1.92,1.17v3.6a11.22,11.22,0,0,0,.06,1.28c-.41,0-.82,0-1.23,0v-4.75a1.18,1.18,0,0,0-.4-1.05,1.31,1.31,0,0,0-.83-.29,1.87,1.87,0,0,0-1.08.38,3.42,3.42,0,0,0-.87.87v3.45c0,.74,0,1.14,0,1.35-.38,0-.78,0-1.21,0Z" transform="translate(50.26)"/><path d="M218.07,209.7a2.58,2.58,0,0,1,2.71,2.78,6.07,6.07,0,0,1-.06.85h-4.55v.19a2.14,2.14,0,0,0,2.14,2.38,3,3,0,0,0,1.92-.68,3.81,3.81,0,0,0,.38.67,2.88,2.88,0,0,1-1.17.71,4,4,0,0,1-1.3.23c-1.78,0-3.15-1.19-3.15-3.53C215,211.27,216.3,209.7,218.07,209.7Zm1.67,2.86c0-.9-.33-2-1.63-2a2,2,0,0,0-1.92,2Z" transform="translate(50.26)"/><path d="M222.28,210.69l-1-.13V210l1-.21.1-1.38a3.89,3.89,0,0,0,.91-.22h.15v1.6h1.94a2.49,2.49,0,0,0,0,.53c0,.16,0,.29,0,.41h-1.89v3.92c0,.95.39,1.24,1,1.24a1.73,1.73,0,0,0,1-.34,2.49,2.49,0,0,0,.26.77,2.69,2.69,0,0,1-1.55.55c-1.09,0-1.85-.67-1.85-2.06Z" transform="translate(50.26)"/><path d="M226.55,217.84v-.08a1,1,0,0,0,.82-1c-.52,0-.85-.25-.85-.67a.72.72,0,0,1,.77-.74c.53,0,.83.38.83,1.09a1.83,1.83,0,0,1-1.23,1.73A2.37,2.37,0,0,0,226.55,217.84Z" transform="translate(50.26)"/><path d="M234.75,209.7a2.66,2.66,0,0,1,1.67.52,1.83,1.83,0,0,1,.67,1.56v.11h-.26a3.94,3.94,0,0,0-.77.07v-.2a1.27,1.27,0,0,0-.28-.79,1.19,1.19,0,0,0-1-.38,1.64,1.64,0,0,0-1.38.76,3.14,3.14,0,0,0-.53,1.86c0,1.52.66,2.69,2.15,2.69a3.23,3.23,0,0,0,1.85-.6,2.46,2.46,0,0,0,.37.66,3.57,3.57,0,0,1-2.38.87c-1.81,0-3.15-1.27-3.15-3.53C231.68,211.27,232.94,209.7,234.75,209.7Z" transform="translate(50.26)"/><path d="M241,216.83c-1.92,0-3.06-1.53-3.06-3.56s1.3-3.57,3.1-3.57,3.07,1.44,3.07,3.53S242.82,216.83,241,216.83Zm0-6.22c-1.21,0-1.93,1.13-1.93,2.62,0,1.72.82,2.66,1.93,2.66a1.65,1.65,0,0,0,1.36-.72,3,3,0,0,0,.56-1.94C242.94,211.67,242.21,210.61,241,210.61Z" transform="translate(50.26)"/><path d="M245.4,211.6c0-.46-.05-1.59-.07-1.6a3.68,3.68,0,0,0,1-.25h.2v1.42A3,3,0,0,1,249,209.7a1.87,1.87,0,0,1,2,2v3.75a12.79,12.79,0,0,0,.06,1.28c-.41,0-.82,0-1.23,0v-4.75a1.18,1.18,0,0,0-.4-1.05,1.31,1.31,0,0,0-.83-.29,1.84,1.84,0,0,0-1.08.38,3.42,3.42,0,0,0-.87.87v3.45c0,.74,0,1.1,0,1.35-.38,0-.78,0-1.21,0Z" transform="translate(50.26)"/><path d="M254.17,215.91a2.21,2.21,0,0,0,1.06-.25.89.89,0,0,0,.46-.87c0-.57-.39-.75-1.47-1.17a6.05,6.05,0,0,1-1.37-.74,1.55,1.55,0,0,1-.56-1.35c0-1.13.89-1.83,2.23-1.83a4.09,4.09,0,0,1,2,.45,2.14,2.14,0,0,0-.27.72l-.09,0a3.64,3.64,0,0,0-1.48-.3c-.67,0-1.28.21-1.28.88s.5.9,1.33,1.17a4.16,4.16,0,0,1,1.51.81,1.75,1.75,0,0,1,.45,1.3c0,1.42-1.21,2.05-2.47,2.05a3.55,3.55,0,0,1-2-.58,2.64,2.64,0,0,0,.29-.77A3.09,3.09,0,0,0,254.17,215.91Z" transform="translate(50.26)"/><path d="M260.59,209.7a2.58,2.58,0,0,1,2.71,2.78,6.06,6.06,0,0,1-.05.85H258.7v.19a2.14,2.14,0,0,0,2.13,2.38,3,3,0,0,0,1.92-.68,4.57,4.57,0,0,0,.38.67,2.88,2.88,0,0,1-1.17.71,4,4,0,0,1-1.3.23c-1.78,0-3.15-1.19-3.15-3.53C257.51,211.27,258.83,209.7,260.59,209.7Zm1.67,2.86c0-.9-.33-2-1.63-2a2,2,0,0,0-1.92,2Z" transform="translate(50.26)"/><path d="M267.21,209.7a2.66,2.66,0,0,1,1.67.52,1.83,1.83,0,0,1,.67,1.56v.11h-.26a3.94,3.94,0,0,0-.77.07v-.2a1.27,1.27,0,0,0-.28-.79,1.19,1.19,0,0,0-1-.38,1.64,1.64,0,0,0-1.38.76,3.14,3.14,0,0,0-.53,1.86c0,1.52.66,2.69,2.15,2.69a3.23,3.23,0,0,0,1.85-.6,2.46,2.46,0,0,0,.37.66,3.57,3.57,0,0,1-2.38.87c-1.81,0-3.15-1.27-3.15-3.53C264.14,211.27,265.4,209.7,267.21,209.7Z" transform="translate(50.26)"/><path d="M271.06,210.69l-1-.13,0-.6,1-.21.09-1.38a3.66,3.66,0,0,0,.91-.22h.16v1.6h1.93a2.49,2.49,0,0,0,0,.53c0,.16,0,.29,0,.41h-1.88v3.92c0,.95.39,1.24,1,1.24a1.71,1.71,0,0,0,1-.34,2.79,2.79,0,0,0,.26.77,2.66,2.66,0,0,1-1.54.55c-1.1,0-1.85-.67-1.85-2.06Z" transform="translate(50.26)"/><path d="M278,209.7a2.57,2.57,0,0,1,2.7,2.78,6.06,6.06,0,0,1-.05.85h-4.55v.19a2.14,2.14,0,0,0,2.13,2.38,3.07,3.07,0,0,0,1.93-.68,4.58,4.58,0,0,0,.37.67,2.88,2.88,0,0,1-1.17.71,3.92,3.92,0,0,1-1.3.23c-1.78,0-3.14-1.19-3.14-3.53C274.91,211.27,276.22,209.7,278,209.7Zm1.66,2.86c0-.9-.32-2-1.62-2a2,2,0,0,0-1.93,2Z" transform="translate(50.26)"/><path d="M282.2,210.69l-1-.13V210l1-.21.09-1.38a3.66,3.66,0,0,0,.91-.22h.16v1.6h1.94a2.93,2.93,0,0,0,0,.94h-1.89v3.92c0,.95.39,1.24,1,1.24a1.7,1.7,0,0,0,1-.34,3.16,3.16,0,0,0,.26.77,2.64,2.64,0,0,1-1.54.55c-1.1,0-1.85-.67-1.85-2.06Z" transform="translate(50.26)"/><path d="M286.61,211.58c0-.79-.05-1.56-.07-1.73a8.6,8.6,0,0,0,1-.1h.2v4.67a1.3,1.3,0,0,0,.4,1.06,1.33,1.33,0,0,0,.85.34,2.72,2.72,0,0,0,1.84-1v-3.09c0-.92-.05-1.67-.06-1.89a8.34,8.34,0,0,0,1-.1H292v5.19a10.51,10.51,0,0,0,.17,1.82c-.38,0-.79,0-1.22,0a10.55,10.55,0,0,1-.12-1.19,3,3,0,0,1-2.29,1.22,2,2,0,0,1-2-2.1Z" transform="translate(50.26)"/><path d="M296.49,209.7a2.57,2.57,0,0,1,2.7,2.78,6.06,6.06,0,0,1-.05.85h-4.55v.19a2.14,2.14,0,0,0,2.13,2.38,3.07,3.07,0,0,0,1.93-.68,4.58,4.58,0,0,0,.37.67,2.88,2.88,0,0,1-1.17.71,4,4,0,0,1-1.3.23c-1.78,0-3.14-1.19-3.14-3.53C293.41,211.27,294.72,209.7,296.49,209.7Zm1.66,2.86c0-.9-.32-2-1.62-2a2,2,0,0,0-1.93,2Z" transform="translate(50.26)"/><path d="M300.49,211.6c0-.46-.06-1.38-.06-1.6a4,4,0,0,0,1-.25h.19v1.43a2,2,0,0,1,1.76-1.48,1.89,1.89,0,0,1,1.06.28,3.77,3.77,0,0,0-.39,1,1.4,1.4,0,0,0-.78-.22c-.66,0-1.17.33-1.65,1.41v3.22c0,.74,0,1.05,0,1.35-.37,0-.79,0-1.22,0Z" transform="translate(50.26)"/><path d="M87.1,232a1.33,1.33,0,0,1-1,.49c-.62,0-1.07-.39-1.23-1.23a3.57,3.57,0,0,1-.85.84,2.24,2.24,0,0,1-1.3.39A1.61,1.61,0,0,1,81,230.75c0-1,1-2.11,3.82-2.46v-.7c0-1-.42-1.39-1.24-1.39a1.12,1.12,0,0,0-1.26,1.27,8.24,8.24,0,0,0-1.08.12c0-.06,0-.12,0-.17,0-1.52,1.11-2.12,2.42-2.12A2.1,2.1,0,0,1,86,227.56v2.85c0,.62.08,1.12.54,1.12a.58.58,0,0,0,.37-.16A1.58,1.58,0,0,0,87.1,232Zm-2.29-3c-.94.15-2.69.5-2.69,1.68,0,.64.48.93,1.06.93a2.3,2.3,0,0,0,1.63-1Z" transform="translate(50.26)"/><path d="M87.4,229c0-2.34,1.45-3.68,3.18-3.68a2.91,2.91,0,0,1,1.51.39c0-.38,0-2.82,0-3a7.06,7.06,0,0,0,1-.22h.18v8.18a8.94,8.94,0,0,0,.18,1.72c-.38,0-.78,0-1.21,0a3.27,3.27,0,0,1-.09-.67,2.81,2.81,0,0,1-1.81.71C88.77,232.44,87.4,231.15,87.4,229Zm3.4-2.86c-1.17,0-2.21,1-2.21,2.71a3.1,3.1,0,0,0,.57,1.93,1.81,1.81,0,0,0,1.49.73A2.33,2.33,0,0,0,92.1,231c0-.14,0-1.46,0-4.32A1.61,1.61,0,0,0,90.8,226.12Z" transform="translate(50.26)"/><path d="M95.56,222.84a.73.73,0,0,1,.74.7.74.74,0,0,1-1.48,0A.73.73,0,0,1,95.56,222.84ZM95,231v-3.5c0-.34,0-1.72,0-1.9a4.09,4.09,0,0,0,1-.25h.19V231c0,.75,0,1.19,0,1.36-.37,0-.79,0-1.22,0Z" transform="translate(50.26)"/><path d="M97.9,227.51c0-1-.07-1.8-.08-1.91a5.53,5.53,0,0,0,1.05-.25h.19a5.37,5.37,0,0,0,0,.57,2.82,2.82,0,0,1,1.76-.62c1.58,0,2.93,1.23,2.93,3.42s-1.46,3.72-3.19,3.72a3,3,0,0,1-1.5-.41V234a10.68,10.68,0,0,0,0,1.18c-.38,0-.8,0-1.23,0,0-.17,0-2.11,0-2.28Zm4.65,1.35c0-1.6-.84-2.61-2-2.61a2.36,2.36,0,0,0-1.45.44V231a1.62,1.62,0,0,0,1.3.56C101.53,231.6,102.55,230.56,102.55,228.86Z" transform="translate(50.26)"/><path d="M105.62,222.84a.73.73,0,0,1,.74.7.74.74,0,0,1-1.48,0A.73.73,0,0,1,105.62,222.84ZM105,231v-3.5c0-.34,0-1.72-.06-1.9a4.09,4.09,0,0,0,1-.25h.2V231c0,.75,0,1.19,0,1.36-.37,0-.79,0-1.22,0Z" transform="translate(50.26)"/><path d="M109.46,231.51a2.26,2.26,0,0,0,1.05-.24.92.92,0,0,0,.47-.88c0-.57-.39-.75-1.47-1.17a6.14,6.14,0,0,1-1.38-.74,1.55,1.55,0,0,1-.56-1.35c0-1.13.9-1.83,2.24-1.83a4.14,4.14,0,0,1,2,.45,2,2,0,0,0-.28.72l-.09.05a3.64,3.64,0,0,0-1.48-.3c-.66,0-1.27.21-1.27.89s.49.89,1.32,1.17a4,4,0,0,1,1.51.8,1.75,1.75,0,0,1,.45,1.3c0,1.42-1.2,2.06-2.47,2.06a3.5,3.5,0,0,1-2-.59,2.65,2.65,0,0,0,.28-.77A3.13,3.13,0,0,0,109.46,231.51Z" transform="translate(50.26)"/><path d="M115.86,225.3a2.64,2.64,0,0,1,1.67.52,1.83,1.83,0,0,1,.67,1.56v.12h-.26a3.84,3.84,0,0,0-.76.06v-.19a1.23,1.23,0,0,0-.29-.8,1.22,1.22,0,0,0-1-.37,1.61,1.61,0,0,0-1.37.75,3.15,3.15,0,0,0-.54,1.86c0,1.52.67,2.69,2.15,2.69a3.26,3.26,0,0,0,1.86-.6,2.2,2.2,0,0,0,.36.66,3.56,3.56,0,0,1-2.38.88c-1.8,0-3.14-1.28-3.14-3.54C112.8,226.87,114.06,225.3,115.86,225.3Z" transform="translate(50.26)"/><path d="M120.08,222.84a.74.74,0,0,1,.74.7.74.74,0,0,1-1.48,0A.73.73,0,0,1,120.08,222.84Zm-.59,8.16v-3.5c0-.34,0-1.72,0-1.9a4.31,4.31,0,0,0,1-.25h.19V231c0,.75,0,1.19,0,1.36-.38,0-.79,0-1.22,0Z" transform="translate(50.26)"/><path d="M122.39,227.2c0-.46,0-1.59-.06-1.6a3.76,3.76,0,0,0,1-.25h.19v1.42A3,3,0,0,1,126,225.3a1.87,1.87,0,0,1,2,2v3.75c0,.69,0,1,0,1.28-.41,0-.82,0-1.22,0v-4.75a1.15,1.15,0,0,0-.41-1.05,1.31,1.31,0,0,0-.83-.29,1.87,1.87,0,0,0-1.08.38,3.59,3.59,0,0,0-.87.87V231c0,.75,0,1.11,0,1.36-.38,0-.78,0-1.21,0Z" transform="translate(50.26)"/><path d="M130.22,232a1.12,1.12,0,0,1-.81-1,1.61,1.61,0,0,1,.92-1.29,2.24,2.24,0,0,1-1-1.9,2.32,2.32,0,0,1,2.49-2.53,3.1,3.1,0,0,1,1.12.22l2.26-.12c0,.17,0,.31,0,.46v.39l-.08.05-1.3,0a2.51,2.51,0,0,1,.48,1.57,2.31,2.31,0,0,1-2.5,2.33,2.26,2.26,0,0,1-.91-.19,1.07,1.07,0,0,0-.47.74c0,.35.32.57.95.57h1.49c1.51,0,2.34.56,2.34,1.65,0,1.39-1.51,2.2-3.18,2.2a4.09,4.09,0,0,1-2.16-.51,1.45,1.45,0,0,1-.82-1.25A1.43,1.43,0,0,1,130.22,232Zm2.45.1h-1.8a1.19,1.19,0,0,0-.78,1c0,.62.74,1.14,2,1.14a2.9,2.9,0,0,0,1.5-.35,1,1,0,0,0,.63-.87C134.21,232.49,133.78,232.12,132.67,232.12Zm-.84-6.08c-1,0-1.37.83-1.37,1.7a1.52,1.52,0,0,0,1.38,1.65,1.16,1.16,0,0,0,1-.5,2.16,2.16,0,0,0,.34-1.17C133.22,226.87,132.79,226,131.83,226Z" transform="translate(50.26)"/><path d="M141.54,225.3a2.57,2.57,0,0,1,2.7,2.78,5.83,5.83,0,0,1-.05.84h-4.55v.2a2.14,2.14,0,0,0,2.13,2.38,3.07,3.07,0,0,0,1.93-.68,4.58,4.58,0,0,0,.37.67,2.78,2.78,0,0,1-1.17.71,4,4,0,0,1-1.3.24c-1.78,0-3.14-1.2-3.14-3.54C138.46,226.87,139.77,225.3,141.54,225.3Zm1.66,2.86c0-.9-.32-2-1.62-2a2,2,0,0,0-1.93,2Z" transform="translate(50.26)"/><path d="M145.53,224.65c0-.28,0-1.81,0-2a5,5,0,0,0,1-.22h.18v8.48a10.6,10.6,0,0,0,.05,1.42c-.37,0-.82,0-1.23,0,0-.12,0-1.28,0-1.46Z" transform="translate(50.26)"/><path d="M149,222.84a.73.73,0,0,1,.74.7.74.74,0,0,1-1.48,0A.73.73,0,0,1,149,222.84Zm-.58,8.16v-3.5c0-.34,0-1.72-.06-1.9a4.09,4.09,0,0,0,1-.25h.2V231c0,.75,0,1.19,0,1.36-.37,0-.79,0-1.22,0Z" transform="translate(50.26)"/><path d="M151.52,226.29l-1-.13v-.6l1-.21.09-1.38a3.66,3.66,0,0,0,.91-.22h.16v1.6h1.94a2.93,2.93,0,0,0,0,.94h-1.89v3.92c0,.95.39,1.24,1,1.24a1.73,1.73,0,0,0,1-.34,2.49,2.49,0,0,0,.26.77,2.7,2.7,0,0,1-1.55.56c-1.09,0-1.85-.68-1.85-2.07Z" transform="translate(50.26)"/><path d="M155.79,233.44v-.08a1,1,0,0,0,.82-1c-.52,0-.85-.25-.85-.67a.72.72,0,0,1,.77-.74c.53,0,.83.38.83,1.09a1.82,1.82,0,0,1-1.24,1.73A1.91,1.91,0,0,0,155.79,233.44Z" transform="translate(50.26)"/><path d="M162.9,231.51a2.26,2.26,0,0,0,1-.24.92.92,0,0,0,.47-.88c0-.57-.39-.75-1.47-1.17a6.14,6.14,0,0,1-1.38-.74,1.55,1.55,0,0,1-.56-1.35c0-1.13.9-1.83,2.24-1.83a4.11,4.11,0,0,1,2,.45,2,2,0,0,0-.28.72l-.09.05a3.64,3.64,0,0,0-1.48-.3c-.66,0-1.27.21-1.27.89s.49.89,1.32,1.17a3.94,3.94,0,0,1,1.51.8,1.76,1.76,0,0,1,.46,1.3c0,1.42-1.21,2.06-2.47,2.06a3.51,3.51,0,0,1-2-.59,2.39,2.39,0,0,0,.28-.77A3.13,3.13,0,0,0,162.9,231.51Z" transform="translate(50.26)"/><path d="M169.32,225.3a2.57,2.57,0,0,1,2.7,2.78,5.83,5.83,0,0,1-.05.84h-4.55v.2a2.14,2.14,0,0,0,2.13,2.38,3.07,3.07,0,0,0,1.93-.68,3.81,3.81,0,0,0,.38.67,2.9,2.9,0,0,1-1.17.71,4.05,4.05,0,0,1-1.31.24c-1.78,0-3.14-1.2-3.14-3.54C166.24,226.87,167.55,225.3,169.32,225.3Zm1.66,2.86c0-.9-.32-2-1.62-2a2,2,0,0,0-1.93,2Z" transform="translate(50.26)"/><path d="M172.87,229c0-2.34,1.45-3.68,3.18-3.68a2.91,2.91,0,0,1,1.51.39c0-.38,0-2.82,0-3a6.79,6.79,0,0,0,1-.22h.18v8.18a8.94,8.94,0,0,0,.18,1.72c-.37,0-.78,0-1.2,0a3,3,0,0,1-.1-.67,2.79,2.79,0,0,1-1.8.71C174.25,232.44,172.87,231.15,172.87,229Zm3.4-2.86c-1.17,0-2.21,1-2.21,2.71a3,3,0,0,0,.58,1.93,1.79,1.79,0,0,0,1.48.73,2.31,2.31,0,0,0,1.45-.51c0-.14,0-1.46,0-4.32A1.59,1.59,0,0,0,176.27,226.12Z" transform="translate(50.26)"/><path d="M182.61,229c0-2.34,1.45-3.68,3.18-3.68a2.91,2.91,0,0,1,1.51.39c0-.38,0-2.82,0-3a7.06,7.06,0,0,0,1-.22h.18v8.18a8.94,8.94,0,0,0,.18,1.72c-.38,0-.78,0-1.21,0a3.27,3.27,0,0,1-.09-.67,2.81,2.81,0,0,1-1.81.71C184,232.44,182.61,231.15,182.61,229Zm3.4-2.86c-1.17,0-2.21,1-2.21,2.71a3.1,3.1,0,0,0,.57,1.93,1.81,1.81,0,0,0,1.49.73,2.33,2.33,0,0,0,1.45-.51c0-.14,0-1.46,0-4.32A1.61,1.61,0,0,0,186,226.12Z" transform="translate(50.26)"/><path d="M190.77,222.84a.73.73,0,0,1,.74.7.74.74,0,0,1-1.48,0A.73.73,0,0,1,190.77,222.84Zm-.59,8.16v-3.5c0-.34,0-1.72-.05-1.9a4.09,4.09,0,0,0,1-.25h.19V231c0,.75,0,1.19,0,1.36-.37,0-.79,0-1.22,0Z" transform="translate(50.26)"/><path d="M198.73,232a1.33,1.33,0,0,1-1,.49c-.61,0-1.06-.39-1.22-1.23a3.45,3.45,0,0,1-.86.84,2.2,2.2,0,0,1-1.3.39,1.62,1.62,0,0,1-1.73-1.69c0-1,.95-2.11,3.83-2.46v-.7c0-1-.42-1.39-1.24-1.39a1.12,1.12,0,0,0-1.26,1.27,8.24,8.24,0,0,0-1.08.12c0-.06,0-.12,0-.17,0-1.52,1.1-2.12,2.42-2.12a2.1,2.1,0,0,1,2.31,2.26v2.85c0,.62.08,1.12.53,1.12a.59.59,0,0,0,.38-.16A1.43,1.43,0,0,0,198.73,232Zm-2.29-3c-.94.15-2.69.5-2.69,1.68,0,.64.48.93,1.06.93a2.3,2.3,0,0,0,1.63-1Z" transform="translate(50.26)"/><path d="M199.61,227.2a14.79,14.79,0,0,0-.07-1.6,4.29,4.29,0,0,0,1-.25h.2v1.42a3,3,0,0,1,2.39-1.47,1.83,1.83,0,0,1,1.91,1.47,3,3,0,0,1,2.39-1.47,1.88,1.88,0,0,1,2,2v3.75c0,.69,0,1.06,0,1.28-.37,0-.79,0-1.22,0v-4.75a1.18,1.18,0,0,0-.4-1.05,1.33,1.33,0,0,0-.83-.29,2.66,2.66,0,0,0-1.92,1.17v3.6a11.22,11.22,0,0,0,.06,1.28c-.41,0-.82,0-1.23,0v-4.75a1.18,1.18,0,0,0-.4-1.05,1.31,1.31,0,0,0-.83-.29,1.84,1.84,0,0,0-1.08.38,3.59,3.59,0,0,0-.87.87V231c0,.75,0,1.15,0,1.36-.38,0-.78,0-1.21,0Z" transform="translate(50.26)"/><path d="M213.77,227.2c0-.46-.06-1.59-.07-1.6a3.68,3.68,0,0,0,1-.25h.2v1.42a3,3,0,0,1,2.39-1.47,1.87,1.87,0,0,1,2,2v3.75c0,.69,0,1,.05,1.28-.4,0-.82,0-1.22,0v-4.75a1.18,1.18,0,0,0-.4-1.05,1.31,1.31,0,0,0-.83-.29,1.84,1.84,0,0,0-1.08.38,3.59,3.59,0,0,0-.87.87V231c0,.75,0,1.11,0,1.36-.38,0-.78,0-1.21,0Z" transform="translate(50.26)"/><path d="M223.63,232.44c-1.92,0-3.06-1.54-3.06-3.57s1.3-3.57,3.1-3.57,3.07,1.44,3.07,3.53S225.45,232.44,223.63,232.44Zm0-6.23c-1.21,0-1.93,1.13-1.93,2.62,0,1.72.82,2.66,1.93,2.66a1.65,1.65,0,0,0,1.36-.72,3,3,0,0,0,.56-1.94C225.57,227.27,224.84,226.21,223.65,226.21Z" transform="translate(50.26)"/><path d="M228,227.2c0-.46-.06-1.59-.07-1.6a3.68,3.68,0,0,0,1-.25h.2v1.42a3,3,0,0,1,2.39-1.47,1.87,1.87,0,0,1,2,2v3.75c0,.69,0,1,0,1.28-.4,0-.81,0-1.22,0v-4.75a1.18,1.18,0,0,0-.4-1.05,1.31,1.31,0,0,0-.83-.29,1.84,1.84,0,0,0-1.08.38,3.59,3.59,0,0,0-.87.87V231c0,.75,0,1.11,0,1.36-.38,0-.78,0-1.21,0Z" transform="translate(50.26)"/><path d="M235.25,227.18c0-.79-.05-1.56-.06-1.73a8.78,8.78,0,0,0,1-.1h.19V230a1.27,1.27,0,0,0,.41,1.06,1.31,1.31,0,0,0,.84.34,2.73,2.73,0,0,0,1.85-1v-3.09c0-.92-.05-1.67-.07-1.89a8.47,8.47,0,0,0,1-.1h.21v5.19a9.58,9.58,0,0,0,.17,1.82c-.38,0-.79,0-1.22,0a8.35,8.35,0,0,1-.12-1.19,3.09,3.09,0,0,1-2.29,1.23,2,2,0,0,1-2-2.11Z" transform="translate(50.26)"/><path d="M242.51,227.2a14.79,14.79,0,0,0-.07-1.6,4.29,4.29,0,0,0,1-.25h.2v1.42a3,3,0,0,1,2.39-1.47,1.84,1.84,0,0,1,1.91,1.47,3,3,0,0,1,2.39-1.47,1.88,1.88,0,0,1,2,2v3.75c0,.69,0,1.06,0,1.28-.38,0-.79,0-1.22,0v-4.75a1.18,1.18,0,0,0-.4-1.05,1.34,1.34,0,0,0-.84-.29,2.66,2.66,0,0,0-1.91,1.17v3.6a11.22,11.22,0,0,0,.06,1.28c-.41,0-.82,0-1.23,0v-4.75a1.18,1.18,0,0,0-.4-1.05,1.31,1.31,0,0,0-.83-.29,1.84,1.84,0,0,0-1.08.38,3.59,3.59,0,0,0-.87.87V231c0,.75,0,1.15,0,1.36-.38,0-.78,0-1.21,0Z" transform="translate(50.26)"/><path d="M254.07,227.2a14.79,14.79,0,0,0-.07-1.6,4.4,4.4,0,0,0,1-.25h.2v1.42a3,3,0,0,1,2.39-1.47,1.84,1.84,0,0,1,1.91,1.47,3,3,0,0,1,2.39-1.47,1.88,1.88,0,0,1,2,2v3.75c0,.69,0,1.06,0,1.28-.38,0-.79,0-1.22,0v-4.75a1.15,1.15,0,0,0-.41-1.05,1.31,1.31,0,0,0-.83-.29,2.66,2.66,0,0,0-1.91,1.17v3.6c0,.69,0,1.11.05,1.28-.4,0-.82,0-1.22,0v-4.75a1.18,1.18,0,0,0-.4-1.05,1.33,1.33,0,0,0-.83-.29,1.84,1.84,0,0,0-1.08.38,3.59,3.59,0,0,0-.87.87V231c0,.75,0,1.15,0,1.36-.37,0-.77,0-1.2,0Z" transform="translate(50.26)"/><path d="M267.85,230.56c.06.22.17.54.18.64l.09-.34.1-.3.45-1.27c.19-.57.37-1.14.55-1.7l.5-1.52.23-.72c.28,0,.91,0,1.19,0l-.49,1.33-.91,2.51-.89,2.49-.44,1.26a4.4,4.4,0,0,1-.8,1.56,1.7,1.7,0,0,1-1.41.63,2.3,2.3,0,0,1-1.23-.38,2.32,2.32,0,0,0,.35-.81,2,2,0,0,0,.86.24c.46,0,.76-.35,1.06-1.1.06-.2.18-.45.27-.75l-2.76-7H266Z" transform="translate(50.26)"/><path d="M274.57,227.2c0-.46-.05-1.59-.07-1.6a3.68,3.68,0,0,0,1-.25h.2v1.42a3,3,0,0,1,2.39-1.47,1.87,1.87,0,0,1,2,2v3.75c0,.69,0,1,.05,1.28-.4,0-.81,0-1.22,0v-4.75a1.18,1.18,0,0,0-.4-1.05,1.31,1.31,0,0,0-.83-.29,1.84,1.84,0,0,0-1.08.38,3.59,3.59,0,0,0-.87.87V231c0,.75,0,1.11,0,1.36-.38,0-.78,0-1.21,0Z" transform="translate(50.26)"/><path d="M282.39,222.84a.73.73,0,0,1,.74.7.74.74,0,1,1-.74-.7Zm-.58,8.16v-3.5c0-.34,0-1.72-.05-1.9a4.12,4.12,0,0,0,1-.25h.2V231c0,.75,0,1.19,0,1.36-.38,0-.8,0-1.22,0Z" transform="translate(50.26)"/><path d="M285.15,232.36h-.47V224c0-.23,0-1.23,0-1.34a5,5,0,0,0,1-.22h.17c0,.36,0,2.95,0,3.45a2.79,2.79,0,0,1,1.75-.61c1.58,0,2.93,1.23,2.93,3.42s-1.46,3.72-3.17,3.72a3.28,3.28,0,0,1-1.69-.49Zm4.17-3.5c0-1.6-.83-2.61-2-2.61a2.33,2.33,0,0,0-1.44.44c0,2.9,0,4.21,0,4.35a1.62,1.62,0,0,0,1.3.56C288.3,231.6,289.32,230.56,289.32,228.86Z" transform="translate(50.26)"/><path d="M291.82,224.62c0-.39,0-1.86,0-1.94a5.15,5.15,0,0,0,1-.22H293v4.32a3,3,0,0,1,2.39-1.48,1.88,1.88,0,0,1,2,2v3.75c0,.69,0,1.16.05,1.28a12.13,12.13,0,0,0-1.22,0v-4.75a1.15,1.15,0,0,0-.41-1.05,1.35,1.35,0,0,0-.83-.29,2.64,2.64,0,0,0-2,1.26v3.37a10.21,10.21,0,0,0,.05,1.42c-.4,0-.82,0-1.23,0,0-.16,0-1.34,0-1.47Z" transform="translate(50.26)"/><path d="M95.81,240.9a2.58,2.58,0,0,1,2.71,2.78,7.73,7.73,0,0,1,0,.84H93.92v.2a2.13,2.13,0,0,0,2.13,2.38,3,3,0,0,0,1.92-.68,4.57,4.57,0,0,0,.38.67,2.78,2.78,0,0,1-1.17.71,4,4,0,0,1-1.3.24c-1.78,0-3.15-1.2-3.15-3.54C92.73,242.47,94.05,240.9,95.81,240.9Zm1.67,2.86c0-.9-.33-2-1.63-2a2,2,0,0,0-1.92,2Z" transform="translate(50.26)"/><path d="M99.79,242.78c0-.79-.05-1.56-.06-1.73a8.78,8.78,0,0,0,1-.1H101v4.67a1.3,1.3,0,0,0,.4,1.06,1.36,1.36,0,0,0,.85.34,2.75,2.75,0,0,0,1.85-1v-3.09c0-.92-.06-1.67-.07-1.89a8.65,8.65,0,0,0,1-.1h.21v5.19a10.76,10.76,0,0,0,.16,1.82c-.37,0-.79,0-1.22,0a11.47,11.47,0,0,1-.11-1.19,3.09,3.09,0,0,1-2.29,1.23,2,2,0,0,1-2-2.11Z" transform="translate(50.26)"/><path d="M107.62,238.44a.74.74,0,0,1,.74.7.74.74,0,0,1-1.48,0A.73.73,0,0,1,107.62,238.44ZM107,246.6v-3.51c0-.33,0-1.71,0-1.89a4.31,4.31,0,0,0,1-.25h.19v5.65c0,.75,0,1.19,0,1.36-.38,0-.79,0-1.22,0Z" transform="translate(50.26)"/><path d="M111.45,247.11a2.26,2.26,0,0,0,1-.24A.9.9,0,0,0,113,246c0-.57-.39-.75-1.47-1.17a6.05,6.05,0,0,1-1.37-.74,1.55,1.55,0,0,1-.56-1.35c0-1.13.89-1.83,2.23-1.83a4.09,4.09,0,0,1,2,.45,2.14,2.14,0,0,0-.27.72l-.09.05a3.64,3.64,0,0,0-1.48-.3c-.67,0-1.28.21-1.28.88s.5.9,1.33,1.17a4.16,4.16,0,0,1,1.51.81A1.8,1.8,0,0,1,114,246c0,1.42-1.21,2.06-2.47,2.06a3.53,3.53,0,0,1-2-.59,2.64,2.64,0,0,0,.29-.77A3.07,3.07,0,0,0,111.45,247.11Z" transform="translate(50.26)"/><path d="M115.25,242.8a14.79,14.79,0,0,0-.07-1.6,4.4,4.4,0,0,0,1-.25h.2v1.42a3,3,0,0,1,2.39-1.47,1.84,1.84,0,0,1,1.91,1.47,3,3,0,0,1,2.39-1.47,1.88,1.88,0,0,1,2,2v3.75c0,.69,0,1.06,0,1.28-.38,0-.79,0-1.22,0v-4.75a1.18,1.18,0,0,0-.4-1.05,1.34,1.34,0,0,0-.84-.29,2.66,2.66,0,0,0-1.91,1.17v3.6c0,.69,0,1.11,0,1.28-.4,0-.81,0-1.22,0v-4.75a1.18,1.18,0,0,0-.4-1.05,1.31,1.31,0,0,0-.83-.29,1.84,1.84,0,0,0-1.08.38,3.42,3.42,0,0,0-.87.87v3.44c0,.75,0,1.15,0,1.36-.38,0-.78,0-1.21,0Z" transform="translate(50.26)"/><path d="M129.42,248c-1.93,0-3.07-1.54-3.07-3.57s1.3-3.57,3.11-3.57,3.06,1.44,3.06,3.53S131.24,248,129.42,248Zm0-6.23c-1.21,0-1.92,1.13-1.92,2.62,0,1.72.82,2.66,1.92,2.66a1.66,1.66,0,0,0,1.37-.72,3.09,3.09,0,0,0,.56-1.94C131.36,242.87,130.63,241.81,129.43,241.81Z" transform="translate(50.26)"/><path d="M133.36,244.58c0-2.34,1.45-3.68,3.18-3.68a2.91,2.91,0,0,1,1.51.39c0-.38,0-2.82,0-3a6.79,6.79,0,0,0,1-.22h.18v8.18a8.94,8.94,0,0,0,.18,1.72c-.38,0-.78,0-1.21,0a3.27,3.27,0,0,1-.09-.67,2.79,2.79,0,0,1-1.81.71C134.73,248,133.36,246.75,133.36,244.58Zm3.4-2.86c-1.17,0-2.21,1-2.21,2.71a3.1,3.1,0,0,0,.57,1.93,1.82,1.82,0,0,0,1.49.73,2.33,2.33,0,0,0,1.45-.51c0-.14,0-1.46,0-4.32A1.6,1.6,0,0,0,136.76,241.72Z" transform="translate(50.26)"/><path d="M143.76,241.89l-1-.13v-.6l1-.21.09-1.38a3.89,3.89,0,0,0,.91-.22h.15V241h1.94a2.49,2.49,0,0,0,0,.53c0,.16,0,.29,0,.41h-1.88v3.92c0,.95.39,1.24,1,1.24a1.71,1.71,0,0,0,1-.34,2.49,2.49,0,0,0,.26.77,2.7,2.7,0,0,1-1.55.56c-1.09,0-1.84-.68-1.84-2.07Z" transform="translate(50.26)"/><path d="M148.76,238.44a.73.73,0,0,1,.74.7.74.74,0,0,1-1.48,0A.73.73,0,0,1,148.76,238.44Zm-.58,8.16v-3.51c0-.33,0-1.71-.06-1.89a4.09,4.09,0,0,0,1-.25h.2v5.65c0,.75,0,1.19,0,1.36-.38,0-.8,0-1.23,0Z" transform="translate(50.26)"/><path d="M151.08,242.8c0-.46-.06-1.59-.07-1.6a3.68,3.68,0,0,0,1-.25h.2v1.42a3,3,0,0,1,2.39-1.47,1.87,1.87,0,0,1,2,2v3.75c0,.69,0,1,.05,1.28-.4,0-.82,0-1.22,0v-4.75a1.18,1.18,0,0,0-.4-1.05,1.33,1.33,0,0,0-.83-.29,1.84,1.84,0,0,0-1.08.38,3.42,3.42,0,0,0-.87.87v3.44c0,.75,0,1.11,0,1.36-.37,0-.78,0-1.2,0Z" transform="translate(50.26)"/><path d="M160.94,240.9a2.64,2.64,0,0,1,1.67.52,1.83,1.83,0,0,1,.67,1.56v.11H163a3.77,3.77,0,0,0-.76.07V243a1.29,1.29,0,0,0-.29-.79,1.19,1.19,0,0,0-1-.38,1.64,1.64,0,0,0-1.38.76,3.14,3.14,0,0,0-.53,1.86c0,1.52.66,2.69,2.15,2.69a3.26,3.26,0,0,0,1.86-.6,2.2,2.2,0,0,0,.36.66A3.58,3.58,0,0,1,161,248c-1.81,0-3.15-1.28-3.15-3.54C157.87,242.47,159.14,240.9,160.94,240.9Z" transform="translate(50.26)"/><path d="M165.15,238.44a.74.74,0,0,1,.75.7.75.75,0,0,1-1.49,0A.74.74,0,0,1,165.15,238.44Zm-.58,8.16v-3.51c0-.33,0-1.71,0-1.89a4.12,4.12,0,0,0,1-.25h.2v5.65c0,.75,0,1.19,0,1.36-.38,0-.8,0-1.22,0Z" transform="translate(50.26)"/><path d="M167,244.58c0-2.34,1.46-3.68,3.19-3.68a2.91,2.91,0,0,1,1.51.39c0-.38,0-2.82,0-3a6.94,6.94,0,0,0,1-.22h.19v8.18a8.19,8.19,0,0,0,.18,1.72c-.38,0-.78,0-1.21,0a3.27,3.27,0,0,1-.09-.67A2.81,2.81,0,0,1,170,248C168.39,248,167,246.75,167,244.58Zm3.41-2.86c-1.17,0-2.21,1-2.21,2.71a3,3,0,0,0,.57,1.93,1.81,1.81,0,0,0,1.48.73,2.36,2.36,0,0,0,1.46-.51c0-.14,0-1.46,0-4.32A1.61,1.61,0,0,0,170.42,241.72Z" transform="translate(50.26)"/><path d="M174.58,242.78c0-.79-.05-1.56-.07-1.73a8.42,8.42,0,0,0,1-.1h.2v4.67a1.3,1.3,0,0,0,.4,1.06,1.33,1.33,0,0,0,.85.34,2.72,2.72,0,0,0,1.84-1v-3.09c0-.92-.05-1.67-.06-1.89a8.34,8.34,0,0,0,1-.1H180v5.19a10.51,10.51,0,0,0,.17,1.82c-.38,0-.79,0-1.22,0,0-.15-.1-.62-.12-1.19a3.06,3.06,0,0,1-2.29,1.23,2,2,0,0,1-2-2.11Z" transform="translate(50.26)"/><path d="M181.83,242.8c0-.46-.05-1.59-.06-1.6a3.76,3.76,0,0,0,1-.25H183v1.42a3,3,0,0,1,2.39-1.47,1.87,1.87,0,0,1,2,2v3.75c0,.69,0,1,0,1.28-.4,0-.82,0-1.22,0v-4.75a1.15,1.15,0,0,0-.41-1.05,1.31,1.31,0,0,0-.83-.29,1.87,1.87,0,0,0-1.08.38,3.42,3.42,0,0,0-.87.87v3.44c0,.75,0,1.11,0,1.36-.38,0-.78,0-1.21,0Z" transform="translate(50.26)"/><path d="M189.29,241.89l-1-.13v-.6l1-.21.1-1.38a3.89,3.89,0,0,0,.91-.22h.15V241h1.94a2.49,2.49,0,0,0,0,.53c0,.16,0,.29,0,.41h-1.89v3.92c0,.95.39,1.24,1,1.24a1.73,1.73,0,0,0,1-.34,2.49,2.49,0,0,0,.26.77,2.7,2.7,0,0,1-1.55.56c-1.09,0-1.85-.68-1.85-2.07Z" transform="translate(50.26)"/><path d="M196.3,242.78c0-.79-.05-1.56-.06-1.73a8.78,8.78,0,0,0,1-.1h.19v4.67a1.3,1.3,0,0,0,.4,1.06,1.36,1.36,0,0,0,.85.34,2.75,2.75,0,0,0,1.85-1v-3.09c0-.92-.06-1.67-.07-1.89a8.65,8.65,0,0,0,1-.1h.21v5.19a10.76,10.76,0,0,0,.16,1.82c-.37,0-.79,0-1.22,0a11.47,11.47,0,0,1-.11-1.19,3.09,3.09,0,0,1-2.29,1.23,2,2,0,0,1-2-2.11Z" transform="translate(50.26)"/><path d="M203.76,241.89l-1-.13v-.6l1-.21.09-1.38a3.66,3.66,0,0,0,.91-.22h.16V241h1.94a2.49,2.49,0,0,0-.05.53c0,.16,0,.29,0,.41h-1.89v3.92c0,.95.39,1.24,1,1.24a1.73,1.73,0,0,0,1-.34,2.49,2.49,0,0,0,.26.77,2.7,2.7,0,0,1-1.55.56c-1.09,0-1.85-.68-1.85-2.07Z" transform="translate(50.26)"/><path d="M210.78,240.25c0-.28,0-1.81,0-2a5,5,0,0,0,1-.22H212v8.48A10,10,0,0,0,212,248c-.38,0-.82,0-1.24,0,0-.12,0-1.28,0-1.46Z" transform="translate(50.26)"/><path d="M219.32,247.55a1.3,1.3,0,0,1-1,.49c-.61,0-1.06-.39-1.22-1.23a3.45,3.45,0,0,1-.86.84,2.2,2.2,0,0,1-1.3.39,1.62,1.62,0,0,1-1.73-1.7c0-1,.95-2.1,3.83-2.45v-.7c0-.95-.42-1.4-1.24-1.4a1.13,1.13,0,0,0-1.26,1.28,8.24,8.24,0,0,0-1.08.12c0-.06,0-.12,0-.17,0-1.52,1.1-2.12,2.42-2.12a2.1,2.1,0,0,1,2.31,2.26V246c0,.62.08,1.11.53,1.11a.58.58,0,0,0,.38-.15A1.59,1.59,0,0,0,219.32,247.55Zm-2.28-3c-.94.15-2.69.5-2.69,1.68,0,.64.48.92,1.06.92a2.29,2.29,0,0,0,1.63-1Z" transform="translate(50.26)"/><path d="M222.69,248c-1.92,0-3.07-1.54-3.07-3.57s1.3-3.57,3.11-3.57,3.07,1.44,3.07,3.53S224.51,248,222.69,248Zm0-6.23c-1.2,0-1.92,1.13-1.92,2.62,0,1.72.82,2.66,1.92,2.66a1.65,1.65,0,0,0,1.37-.72,3,3,0,0,0,.56-1.94C224.63,242.87,223.9,241.81,222.7,241.81Z" transform="translate(50.26)"/><path d="M227.09,242.8c0-.46-.07-1.38-.07-1.6a3.85,3.85,0,0,0,1-.25h.2v1.43A2,2,0,0,1,230,240.9a1.92,1.92,0,0,1,1.07.28,3.46,3.46,0,0,0-.39,1,1.43,1.43,0,0,0-.78-.22c-.67,0-1.17.33-1.65,1.41v3.21c0,.75,0,1.06.05,1.36-.38,0-.8,0-1.22,0Z" transform="translate(50.26)"/><path d="M234.26,240.9a2.58,2.58,0,0,1,2.71,2.78,5.83,5.83,0,0,1-.06.84h-4.55v.2a2.14,2.14,0,0,0,2.14,2.38,3,3,0,0,0,1.92-.68,3.81,3.81,0,0,0,.38.67,2.9,2.9,0,0,1-1.17.71,4,4,0,0,1-1.3.24c-1.78,0-3.15-1.2-3.15-3.54C231.18,242.47,232.49,240.9,234.26,240.9Zm1.67,2.86c0-.9-.33-2-1.63-2a2,2,0,0,0-1.92,2Z" transform="translate(50.26)"/><path d="M240.89,240.9a2.58,2.58,0,0,1,2.71,2.78,5.83,5.83,0,0,1-.06.84H239v.2a2.14,2.14,0,0,0,2.14,2.38,3,3,0,0,0,1.92-.68,3.81,3.81,0,0,0,.38.67,2.9,2.9,0,0,1-1.17.71,4,4,0,0,1-1.3.24c-1.78,0-3.15-1.2-3.15-3.54C237.81,242.47,239.12,240.9,240.89,240.9Zm1.67,2.86c0-.9-.33-2-1.63-2a2,2,0,0,0-1.92,2Z" transform="translate(50.26)"/><path d="M245.1,241.89l-1-.13v-.6l1-.21.09-1.38a3.66,3.66,0,0,0,.91-.22h.16V241h1.94a2.49,2.49,0,0,0,0,.53c0,.16,0,.29,0,.41h-1.89v3.92c0,.95.39,1.24,1,1.24a1.73,1.73,0,0,0,1-.34,2.49,2.49,0,0,0,.26.77A2.7,2.7,0,0,1,247,248c-1.09,0-1.85-.68-1.85-2.07Z" transform="translate(50.26)"/><path d="M251.68,244.58c0-2.34,1.46-3.68,3.19-3.68a2.85,2.85,0,0,1,1.5.39c0-.38,0-2.82,0-3a6.94,6.94,0,0,0,1-.22h.18v8.18a8,8,0,0,0,.19,1.72c-.38,0-.78,0-1.21,0a2.65,2.65,0,0,1-.09-.67,2.83,2.83,0,0,1-1.81.71C253.06,248,251.68,246.75,251.68,244.58Zm3.41-2.86c-1.17,0-2.21,1-2.21,2.71a3,3,0,0,0,.57,1.93,1.81,1.81,0,0,0,1.48.73,2.36,2.36,0,0,0,1.46-.51c0-.14,0-1.46,0-4.32A1.58,1.58,0,0,0,255.09,241.72Z" transform="translate(50.26)"/><path d="M261.89,248c-1.93,0-3.07-1.54-3.07-3.57s1.3-3.57,3.1-3.57,3.07,1.44,3.07,3.53S263.71,248,261.89,248Zm0-6.23c-1.21,0-1.92,1.13-1.92,2.62,0,1.72.81,2.66,1.92,2.66a1.65,1.65,0,0,0,1.36-.72,3,3,0,0,0,.56-1.94C263.82,242.87,263.1,241.81,261.9,241.81Z" transform="translate(50.26)"/><path d="M266.27,240.25c0-.28,0-1.81,0-2a5.06,5.06,0,0,0,1-.22h.19v8.48a10.6,10.6,0,0,0,.05,1.42c-.38,0-.82,0-1.24,0,0-.12,0-1.28,0-1.46Z" transform="translate(50.26)"/><path d="M271.78,248c-1.93,0-3.07-1.54-3.07-3.57s1.3-3.57,3.11-3.57,3.07,1.44,3.07,3.53S273.6,248,271.78,248Zm0-6.23c-1.21,0-1.92,1.13-1.92,2.62,0,1.72.82,2.66,1.92,2.66a1.66,1.66,0,0,0,1.37-.72,3.09,3.09,0,0,0,.56-1.94C273.72,242.87,273,241.81,271.79,241.81Z" transform="translate(50.26)"/><path d="M276.17,242.8c0-.46-.06-1.38-.06-1.6a4,4,0,0,0,1-.25h.19v1.43a2,2,0,0,1,1.76-1.48,1.89,1.89,0,0,1,1.06.28,3.77,3.77,0,0,0-.39,1A1.4,1.4,0,0,0,279,242c-.66,0-1.17.33-1.65,1.41v3.21c0,.75,0,1.06.05,1.36-.37,0-.79,0-1.22,0Z" transform="translate(50.26)"/><path d="M283.35,240.9a2.57,2.57,0,0,1,2.7,2.78,5.83,5.83,0,0,1-.05.84h-4.55v.2a2.14,2.14,0,0,0,2.13,2.38,3.07,3.07,0,0,0,1.93-.68,4.58,4.58,0,0,0,.37.67,2.78,2.78,0,0,1-1.17.71,4,4,0,0,1-1.3.24c-1.78,0-3.14-1.2-3.14-3.54C280.27,242.47,281.58,240.9,283.35,240.9Zm1.66,2.86c0-.9-.32-2-1.62-2a2,2,0,0,0-1.93,2Z" transform="translate(50.26)"/><path d="M89.22,258.4a15.41,15.41,0,0,0-.06-1.6,4.53,4.53,0,0,0,1-.25h.19V258a3,3,0,0,1,2.39-1.47A1.85,1.85,0,0,1,94.7,258a3,3,0,0,1,2.39-1.47,1.88,1.88,0,0,1,2,2v3.75c0,.69,0,1.06,0,1.28-.38,0-.8,0-1.23,0v-4.75a1.18,1.18,0,0,0-.4-1.05,1.31,1.31,0,0,0-.83-.29,2.62,2.62,0,0,0-1.91,1.17v3.6c0,.69,0,1.11,0,1.28-.4,0-.82,0-1.22,0v-4.75a1.15,1.15,0,0,0-.41-1.05,1.31,1.31,0,0,0-.83-.29,1.87,1.87,0,0,0-1.08.38,3.42,3.42,0,0,0-.87.87v3.44c0,.75,0,1.15,0,1.36-.38,0-.78,0-1.21,0Z" transform="translate(50.26)"/><path d="M106.42,263.15a1.32,1.32,0,0,1-1,.48c-.61,0-1.07-.38-1.22-1.22a3.63,3.63,0,0,1-.86.84,2.31,2.31,0,0,1-1.3.38,1.61,1.61,0,0,1-1.73-1.69c0-1,1-2.1,3.82-2.45v-.7c0-1-.41-1.4-1.23-1.4a1.13,1.13,0,0,0-1.26,1.28,8.07,8.07,0,0,0-1.08.12c0-.06,0-.12,0-.17,0-1.52,1.1-2.12,2.41-2.12a2.1,2.1,0,0,1,2.32,2.26v2.85c0,.62.08,1.11.53,1.11a.61.61,0,0,0,.38-.15A1.59,1.59,0,0,0,106.42,263.15Zm-2.29-3c-.93.15-2.69.5-2.69,1.68,0,.64.48.92,1.07.92a2.25,2.25,0,0,0,1.62-1Z" transform="translate(50.26)"/><path d="M107.93,263.22a1.14,1.14,0,0,1-.81-1,1.6,1.6,0,0,1,.93-1.29,2.23,2.23,0,0,1-1-1.9,2.33,2.33,0,0,1,2.5-2.53,3.14,3.14,0,0,1,1.12.22l2.26-.12a3.8,3.8,0,0,0,0,.46v.39l-.07.05-1.3,0A2.55,2.55,0,0,1,112,259a2.31,2.31,0,0,1-2.51,2.33,2.14,2.14,0,0,1-.91-.2,1.09,1.09,0,0,0-.47.75c0,.35.33.57.95.57h1.49c1.51,0,2.34.56,2.34,1.65,0,1.39-1.5,2.2-3.18,2.2a4.09,4.09,0,0,1-2.16-.51,1.49,1.49,0,0,1-.82-1.25A1.43,1.43,0,0,1,107.93,263.22Zm2.46.1h-1.81a1.19,1.19,0,0,0-.78,1c0,.62.74,1.14,2,1.14a2.93,2.93,0,0,0,1.51-.35,1,1,0,0,0,.62-.87C111.92,263.69,111.49,263.32,110.39,263.32Zm-.85-6.08c-1,0-1.36.83-1.36,1.7a1.52,1.52,0,0,0,1.37,1.65,1.14,1.14,0,0,0,1-.5,2.14,2.14,0,0,0,.34-1.18C110.93,258.07,110.5,257.24,109.54,257.24Z" transform="translate(50.26)"/><path d="M114,258.4c0-.46-.06-1.59-.07-1.6a3.68,3.68,0,0,0,1-.25h.2V258a3,3,0,0,1,2.39-1.47,1.87,1.87,0,0,1,2,2v3.75c0,.69,0,1,0,1.28-.4,0-.82,0-1.22,0v-4.75a1.18,1.18,0,0,0-.4-1.05,1.33,1.33,0,0,0-.83-.29,1.84,1.84,0,0,0-1.08.38,3.42,3.42,0,0,0-.87.87v3.44c0,.75,0,1.11,0,1.36-.37,0-.77,0-1.2,0Z" transform="translate(50.26)"/><path d="M126.92,263.15a1.32,1.32,0,0,1-1,.48c-.61,0-1.06-.38-1.22-1.22a3.63,3.63,0,0,1-.86.84,2.31,2.31,0,0,1-1.3.38,1.61,1.61,0,0,1-1.73-1.69c0-1,1-2.1,3.82-2.45v-.7c0-1-.41-1.4-1.23-1.4a1.13,1.13,0,0,0-1.26,1.28,8.07,8.07,0,0,0-1.08.12c0-.06,0-.12,0-.17,0-1.52,1.1-2.12,2.41-2.12a2.1,2.1,0,0,1,2.32,2.26v2.85c0,.62.08,1.11.53,1.11a.61.61,0,0,0,.38-.15A1.59,1.59,0,0,0,126.92,263.15Zm-2.29-3c-.93.15-2.69.5-2.69,1.68,0,.64.48.92,1.07.92a2.25,2.25,0,0,0,1.62-1Z" transform="translate(50.26)"/><path d="M136.05,263.15a1.33,1.33,0,0,1-1,.48c-.61,0-1.07-.38-1.23-1.22a3.57,3.57,0,0,1-.85.84,2.31,2.31,0,0,1-1.3.38,1.61,1.61,0,0,1-1.73-1.69c0-1,.95-2.1,3.82-2.45v-.7c0-1-.42-1.4-1.24-1.4a1.13,1.13,0,0,0-1.26,1.28,8.24,8.24,0,0,0-1.08.12c0-.06,0-.12,0-.17,0-1.52,1.11-2.12,2.42-2.12a2.1,2.1,0,0,1,2.31,2.26v2.85c0,.62.08,1.11.54,1.11a.55.55,0,0,0,.37-.15A1.77,1.77,0,0,0,136.05,263.15Zm-2.29-3c-.94.15-2.69.5-2.69,1.68,0,.64.48.92,1.06.92a2.27,2.27,0,0,0,1.63-1Z" transform="translate(50.26)"/><path d="M136.92,255.85c0-.28,0-1.81,0-2a5.15,5.15,0,0,0,1-.22h.18v8.48a10.6,10.6,0,0,0,0,1.42c-.38,0-.82,0-1.23,0,0-.12,0-1.28,0-1.46Z" transform="translate(50.26)"/><path d="M140.39,254a.73.73,0,0,1,.74.7.74.74,0,0,1-1.48,0A.73.73,0,0,1,140.39,254Zm-.59,8.16v-3.51c0-.33,0-1.71-.05-1.89a4.09,4.09,0,0,0,1-.25H141v5.65c0,.75,0,1.19,0,1.36-.37,0-.79,0-1.22,0Z" transform="translate(50.26)"/><path d="M146.94,263a2.74,2.74,0,0,1-1.75.66c-1.56,0-2.94-1.28-2.94-3.45,0-2.34,1.45-3.68,3.18-3.68a2.94,2.94,0,0,1,1.67.49l.53-.44h.48v8.22c0,.63,0,1.19,0,1.57-.38,0-.81,0-1.24,0,0-.15,0-1.51,0-1.69Zm0-5.11a1.59,1.59,0,0,0-1.29-.54c-1.17,0-2.21,1-2.21,2.71A3,3,0,0,0,144,262a1.79,1.79,0,0,0,1.48.73,2.49,2.49,0,0,0,1.44-.5Z" transform="translate(50.26)"/><path d="M149.8,258.38c0-.79-.05-1.56-.06-1.73a8.78,8.78,0,0,0,1-.1H151v4.67a1.3,1.3,0,0,0,.4,1.06,1.36,1.36,0,0,0,.85.34,2.75,2.75,0,0,0,1.85-1v-3.09c0-.92-.06-1.67-.07-1.89a8.65,8.65,0,0,0,1-.1h.21v5.19a10.76,10.76,0,0,0,.16,1.82c-.37,0-.79,0-1.22,0a11.47,11.47,0,0,1-.11-1.19,3.08,3.08,0,0,1-2.29,1.22,2,2,0,0,1-2-2.1Z" transform="translate(50.26)"/><path d="M162.7,263.15a1.33,1.33,0,0,1-1,.48c-.61,0-1.07-.38-1.23-1.22a3.57,3.57,0,0,1-.85.84,2.31,2.31,0,0,1-1.3.38,1.61,1.61,0,0,1-1.73-1.69c0-1,.95-2.1,3.82-2.45v-.7c0-1-.42-1.4-1.24-1.4a1.13,1.13,0,0,0-1.26,1.28,8.24,8.24,0,0,0-1.08.12c0-.06,0-.12,0-.17,0-1.52,1.11-2.12,2.42-2.12a2.1,2.1,0,0,1,2.31,2.26v2.85c0,.62.08,1.11.54,1.11a.55.55,0,0,0,.37-.15A1.77,1.77,0,0,0,162.7,263.15Zm-2.29-3c-.94.15-2.69.5-2.69,1.68,0,.64.48.92,1.06.92a2.27,2.27,0,0,0,1.63-1Z" transform="translate(50.26)"/><path d="M163.58,258.4a15.41,15.41,0,0,0-.06-1.6,4.53,4.53,0,0,0,1-.25h.19V258a3,3,0,0,1,2.39-1.47,1.83,1.83,0,0,1,1.91,1.47,3,3,0,0,1,2.4-1.47,1.88,1.88,0,0,1,2,2v3.75c0,.69,0,1.06,0,1.28-.37,0-.79,0-1.22,0v-4.75a1.18,1.18,0,0,0-.4-1.05,1.31,1.31,0,0,0-.83-.29,2.62,2.62,0,0,0-1.91,1.17v3.6c0,.69,0,1.11,0,1.28-.4,0-.82,0-1.22,0v-4.75a1.15,1.15,0,0,0-.41-1.05,1.31,1.31,0,0,0-.83-.29,1.87,1.87,0,0,0-1.08.38,3.42,3.42,0,0,0-.87.87v3.44c0,.75,0,1.15,0,1.36-.38,0-.78,0-1.21,0Z" transform="translate(50.26)"/><path d="M180.36,256.5a2.58,2.58,0,0,1,2.71,2.78,5.83,5.83,0,0,1,0,.84h-4.55v.2a2.14,2.14,0,0,0,2.13,2.38,3,3,0,0,0,1.92-.68,4.57,4.57,0,0,0,.38.67,2.78,2.78,0,0,1-1.17.71,4,4,0,0,1-1.3.23c-1.78,0-3.15-1.19-3.15-3.53C177.28,258.07,178.6,256.5,180.36,256.5Zm1.67,2.86c0-.9-.33-2-1.63-2a2,2,0,0,0-1.92,2Z" transform="translate(50.26)"/><path d="M184.37,258.4c0-.46-.07-1.38-.07-1.6a3.85,3.85,0,0,0,1-.25h.2V258a2,2,0,0,1,1.75-1.48,1.92,1.92,0,0,1,1.07.28,3.46,3.46,0,0,0-.39,1,1.43,1.43,0,0,0-.78-.22c-.66,0-1.17.33-1.65,1.41v3.21c0,.75,0,1.06.05,1.36-.38,0-.79,0-1.22,0Z" transform="translate(50.26)"/><path d="M194.59,263.15a1.35,1.35,0,0,1-1,.48c-.62,0-1.07-.38-1.23-1.22a3.57,3.57,0,0,1-.85.84,2.31,2.31,0,0,1-1.3.38,1.61,1.61,0,0,1-1.73-1.69c0-1,1-2.1,3.82-2.45v-.7c0-1-.42-1.4-1.24-1.4a1.13,1.13,0,0,0-1.26,1.28,8.24,8.24,0,0,0-1.08.12c0-.06,0-.12,0-.17,0-1.52,1.11-2.12,2.42-2.12a2.1,2.1,0,0,1,2.31,2.26v2.85c0,.62.08,1.11.54,1.11a.58.58,0,0,0,.37-.15A1.58,1.58,0,0,0,194.59,263.15Zm-2.29-3c-.94.15-2.69.5-2.69,1.68,0,.64.48.92,1.06.92a2.29,2.29,0,0,0,1.63-1Z" transform="translate(50.26)"/><path d="M195.51,257.49l-1-.13,0-.6,1-.21.09-1.38a3.66,3.66,0,0,0,.91-.22h.16v1.6h1.93a2.49,2.49,0,0,0,0,.53c0,.16,0,.29,0,.41h-1.88v3.92c0,.95.39,1.24,1,1.24a1.71,1.71,0,0,0,1-.34,2.79,2.79,0,0,0,.26.77,2.66,2.66,0,0,1-1.54.55c-1.1,0-1.85-.67-1.85-2.06Z" transform="translate(50.26)"/><path d="M203.11,256.56l1.8,5.29a4.24,4.24,0,0,1,.18.64,4.87,4.87,0,0,1,.2-.64l.44-1.3.57-1.73.51-1.53.23-.73a11.61,11.61,0,0,0,1.18,0l-2.61,7h-.3l-.79,0-.52-1.36-.86-2.25-.84-2.2c-.25-.67-.41-1.08-.46-1.21C202.27,256.58,202.71,256.58,203.11,256.56Z" transform="translate(50.26)"/><path d="M211.58,263.63c-1.93,0-3.07-1.53-3.07-3.56s1.3-3.57,3.11-3.57,3.07,1.44,3.07,3.53S213.4,263.63,211.58,263.63Zm0-6.22c-1.21,0-1.92,1.13-1.92,2.62,0,1.72.82,2.66,1.92,2.66A1.66,1.66,0,0,0,213,262a3.09,3.09,0,0,0,.56-1.94C213.52,258.47,212.79,257.41,211.59,257.41Z" transform="translate(50.26)"/><path d="M216,255.85c0-.28,0-1.81,0-2a5.15,5.15,0,0,0,1-.22h.18v8.48a10.6,10.6,0,0,0,.05,1.42c-.38,0-.82,0-1.23,0,0-.12,0-1.28,0-1.46Z" transform="translate(50.26)"/><path d="M218.83,258.38c0-.79-.05-1.56-.06-1.73a8.78,8.78,0,0,0,1-.1H220v4.67a1.3,1.3,0,0,0,.4,1.06,1.36,1.36,0,0,0,.85.34,2.75,2.75,0,0,0,1.85-1v-3.09c0-.92-.06-1.67-.07-1.89a8.65,8.65,0,0,0,1-.1h.21v5.19a10.76,10.76,0,0,0,.16,1.82c-.37,0-.79,0-1.22,0a11.47,11.47,0,0,1-.11-1.19,3.08,3.08,0,0,1-2.29,1.22,2,2,0,0,1-2-2.1Z" transform="translate(50.26)"/><path d="M226.29,257.49l-1-.13v-.6l1-.21.09-1.38a3.66,3.66,0,0,0,.91-.22h.16v1.6h1.94a2.49,2.49,0,0,0,0,.53c0,.16,0,.29,0,.41h-1.89v3.92c0,.95.39,1.24,1,1.24a1.73,1.73,0,0,0,1-.34,2.49,2.49,0,0,0,.26.77,2.69,2.69,0,0,1-1.55.55c-1.09,0-1.85-.67-1.85-2.06Z" transform="translate(50.26)"/><path d="M230.75,258.71a18.71,18.71,0,0,0-.08-1.91,5.82,5.82,0,0,0,1.06-.25h.18c0,.12,0,.38,0,.57a2.83,2.83,0,0,1,1.77-.62c1.57,0,2.92,1.23,2.92,3.42s-1.45,3.71-3.18,3.71a3.08,3.08,0,0,1-1.51-.4v1.93a10.77,10.77,0,0,0,0,1.18c-.38,0-.79,0-1.22,0,0-.17,0-2.11,0-2.28Zm4.66,1.35c0-1.6-.85-2.61-2-2.61a2.41,2.41,0,0,0-1.46.44v4.35a1.62,1.62,0,0,0,1.3.56C234.38,262.8,235.41,261.76,235.41,260.06Z" transform="translate(50.26)"/><path d="M243.54,263.15a1.32,1.32,0,0,1-1,.48c-.61,0-1.06-.38-1.22-1.22a3.45,3.45,0,0,1-.86.84,2.26,2.26,0,0,1-1.3.38,1.61,1.61,0,0,1-1.73-1.69c0-1,.95-2.1,3.83-2.45v-.7c0-1-.42-1.4-1.24-1.4a1.13,1.13,0,0,0-1.26,1.28,8.24,8.24,0,0,0-1.08.12c0-.06,0-.12,0-.17,0-1.52,1.1-2.12,2.42-2.12a2.1,2.1,0,0,1,2.31,2.26v2.85c0,.62.08,1.11.53,1.11a.58.58,0,0,0,.38-.15A1.59,1.59,0,0,0,243.54,263.15Zm-2.28-3c-.94.15-2.69.5-2.69,1.68,0,.64.48.92,1.06.92a2.29,2.29,0,0,0,1.63-1Z" transform="translate(50.26)"/><path d="M244.47,257.49l-1-.13,0-.6,1-.21.09-1.38a3.89,3.89,0,0,0,.91-.22h.15v1.6h1.94a2.49,2.49,0,0,0-.05.53c0,.16,0,.29,0,.41h-1.88v3.92c0,.95.39,1.24,1,1.24a1.71,1.71,0,0,0,1-.34,2.49,2.49,0,0,0,.26.77,2.69,2.69,0,0,1-1.55.55c-1.09,0-1.84-.67-1.84-2.06Z" transform="translate(50.26)"/><path d="M248.65,262.91a.72.72,0,0,1,.74-.72.72.72,0,1,1,0,1.43A.72.72,0,0,1,248.65,262.91Z" transform="translate(50.26)"/><path d="M254.26,254.43c.43,0,.8,0,1.18,0V260c0,1.65.71,2.57,2.07,2.57s2.06-.92,2.06-2.62v-5.54a9.47,9.47,0,0,0,1.19,0V260c0,2.38-1.25,3.64-3.28,3.64s-3.22-1.11-3.22-3.47Z" transform="translate(50.26)"/><path d="M262.81,257.49l-1-.13v-.6l1-.21.09-1.38a3.66,3.66,0,0,0,.91-.22H264v1.6h1.93a3.38,3.38,0,0,0,0,.53,2.55,2.55,0,0,0,0,.41H264v3.92c0,.95.39,1.24,1,1.24a1.7,1.7,0,0,0,1-.34,3.16,3.16,0,0,0,.26.77,2.64,2.64,0,0,1-1.54.55c-1.1,0-1.85-.67-1.85-2.06Z" transform="translate(50.26)"/><path d="M274.47,259.36l-.31-1.26c0,.18-.18.84-.29,1.27l-1.23,4.19-1.13,0-2.29-7,.65,0a6.13,6.13,0,0,0,.62,0l1.41,5c0,.13.06.29.1.49s.07.31.08.34.06-.28.19-.8l.45-1.76.49-1.94c.17-.64.3-1.07.39-1.3h1.12a8.17,8.17,0,0,1,.23.79c.13.42.28.89.42,1.41s.3,1,.44,1.56.26.93.33,1.23l.18.81a8.57,8.57,0,0,1,.19-.85l1.38-4.95c.21,0,.4,0,.61,0l.61,0-2.27,7-1.11,0Z" transform="translate(50.26)"/><path d="M280.8,254a.73.73,0,0,1,.74.7.74.74,0,1,1-.74-.7Zm-.58,8.16v-3.51c0-.33,0-1.71-.05-1.89a4.12,4.12,0,0,0,1-.25h.2v5.65c0,.75,0,1.19,0,1.36-.38,0-.8,0-1.23,0Z" transform="translate(50.26)"/><path d="M284.64,262.71a2.14,2.14,0,0,0,1.05-.25.89.89,0,0,0,.47-.87c0-.57-.39-.75-1.47-1.17a6.57,6.57,0,0,1-1.38-.74,1.55,1.55,0,0,1-.56-1.35c0-1.13.9-1.83,2.24-1.83a4.14,4.14,0,0,1,2,.45,2,2,0,0,0-.28.72l-.09.05a3.64,3.64,0,0,0-1.48-.3c-.66,0-1.27.21-1.27.88s.49.9,1.32,1.17a4.07,4.07,0,0,1,1.51.81,1.76,1.76,0,0,1,.46,1.3c0,1.42-1.21,2.05-2.47,2.05a3.5,3.5,0,0,1-2-.58,2.65,2.65,0,0,0,.28-.77A3.13,3.13,0,0,0,284.64,262.71Z" transform="translate(50.26)"/><path d="M289,254a.74.74,0,0,1,.75.7.75.75,0,0,1-1.49,0A.74.74,0,0,1,289,254Zm-.58,8.16v-3.51c0-.33,0-1.71-.05-1.89a4.31,4.31,0,0,0,1-.25h.19v5.65c0,.75,0,1.19,0,1.36-.38,0-.79,0-1.22,0Z" transform="translate(50.26)"/><path d="M92.46,272.1a2.57,2.57,0,0,1,2.7,2.78,6.06,6.06,0,0,1,0,.85H90.56v.19a2.14,2.14,0,0,0,2.13,2.38,3.07,3.07,0,0,0,1.93-.68,4.58,4.58,0,0,0,.37.67,2.88,2.88,0,0,1-1.17.71,4,4,0,0,1-1.3.24c-1.78,0-3.14-1.2-3.14-3.54C89.38,273.67,90.69,272.1,92.46,272.1ZM94.12,275c0-.9-.32-2-1.62-2a2,2,0,0,0-1.93,2Z" transform="translate(50.26)"/><path d="M96.46,274c0-.46,0-1.59-.06-1.6a3.76,3.76,0,0,0,1-.25h.19v1.42A3,3,0,0,1,100,272.1a1.87,1.87,0,0,1,2,2v3.75c0,.69,0,1,.05,1.28-.4,0-.82,0-1.22,0v-4.75a1.18,1.18,0,0,0-.4-1.05,1.36,1.36,0,0,0-.84-.29,1.89,1.89,0,0,0-1.08.38,3.59,3.59,0,0,0-.87.87v3.45c0,.74,0,1.1,0,1.35-.37,0-.78,0-1.21,0Z" transform="translate(50.26)"/><path d="M104.29,269.64a.73.73,0,0,1,.74.7.74.74,0,0,1-1.48,0A.73.73,0,0,1,104.29,269.64Zm-.59,8.17v-3.52c0-.33,0-1.71,0-1.89a4.09,4.09,0,0,0,1-.25h.19v5.66c0,.74,0,1.18,0,1.35-.37,0-.79,0-1.22,0Z" transform="translate(50.26)"/><path d="M106.6,274a15.41,15.41,0,0,0-.06-1.6,4.53,4.53,0,0,0,1-.25h.19v1.42a3,3,0,0,1,2.39-1.47,1.85,1.85,0,0,1,1.92,1.47,3,3,0,0,1,2.39-1.47,1.88,1.88,0,0,1,2,2v3.75c0,.69,0,1.06,0,1.28-.38,0-.8,0-1.23,0v-4.75a1.18,1.18,0,0,0-.4-1.05,1.31,1.31,0,0,0-.83-.29,2.62,2.62,0,0,0-1.91,1.17v3.6c0,.69,0,1.11.05,1.28-.4,0-.82,0-1.22,0v-4.75a1.15,1.15,0,0,0-.41-1.05,1.31,1.31,0,0,0-.83-.29,1.87,1.87,0,0,0-1.08.38,3.59,3.59,0,0,0-.87.87v3.45c0,.74,0,1.14,0,1.35-.38,0-.78,0-1.21,0Z" transform="translate(50.26)"/><path d="M126.4,278.75a1.3,1.3,0,0,1-1,.49c-.61,0-1.06-.4-1.22-1.23a3.42,3.42,0,0,1-.86.83,2.18,2.18,0,0,1-1.3.4,1.62,1.62,0,0,1-1.73-1.7c0-1,.95-2.1,3.82-2.45v-.7c0-.95-.41-1.39-1.23-1.39a1.12,1.12,0,0,0-1.26,1.27,8.07,8.07,0,0,0-1.08.12c0-.06,0-.12,0-.17,0-1.52,1.1-2.12,2.41-2.12a2.11,2.11,0,0,1,2.32,2.26v2.85c0,.62.08,1.12.53,1.12a.61.61,0,0,0,.38-.16A1.59,1.59,0,0,0,126.4,278.75Zm-2.29-3c-.93.14-2.69.49-2.69,1.67,0,.64.48.93,1.07.93a2.26,2.26,0,0,0,1.62-1Z" transform="translate(50.26)"/><path d="M126.7,275.78c0-2.34,1.46-3.68,3.19-3.68a2.85,2.85,0,0,1,1.5.39c0-.38,0-2.82,0-3a8.64,8.64,0,0,0,1-.23h.18v8.18a8,8,0,0,0,.19,1.72c-.38,0-.78,0-1.21,0a2.65,2.65,0,0,1-.09-.67,2.83,2.83,0,0,1-1.81.71C128.08,279.24,126.7,278,126.7,275.78Zm3.41-2.86c-1.17,0-2.21,1-2.21,2.71a3,3,0,0,0,.57,1.93,1.81,1.81,0,0,0,1.48.73,2.36,2.36,0,0,0,1.46-.51c0-.14,0-1.46,0-4.32A1.58,1.58,0,0,0,130.11,272.92Z" transform="translate(50.26)"/><path d="M136.89,274a15.41,15.41,0,0,0-.06-1.6,4.53,4.53,0,0,0,1-.25h.19v1.42a3,3,0,0,1,2.39-1.47,1.85,1.85,0,0,1,1.92,1.47,3,3,0,0,1,2.39-1.47,1.88,1.88,0,0,1,2,2v3.75c0,.69,0,1.06,0,1.28-.38,0-.8,0-1.23,0v-4.75a1.18,1.18,0,0,0-.4-1.05,1.31,1.31,0,0,0-.83-.29,2.62,2.62,0,0,0-1.91,1.17v3.6c0,.69,0,1.11.05,1.28-.4,0-.82,0-1.22,0v-4.75a1.15,1.15,0,0,0-.41-1.05,1.31,1.31,0,0,0-.83-.29,1.87,1.87,0,0,0-1.08.38,3.59,3.59,0,0,0-.87.87v3.45c0,.74,0,1.14,0,1.35-.38,0-.78,0-1.21,0Z" transform="translate(50.26)"/><path d="M149,269.64a.73.73,0,0,1,.74.7.74.74,0,0,1-1.48,0A.73.73,0,0,1,149,269.64Zm-.58,8.17v-3.52c0-.33,0-1.71-.06-1.89a4.09,4.09,0,0,0,1-.25h.2v5.66c0,.74,0,1.18,0,1.35-.38,0-.8,0-1.23,0Z" transform="translate(50.26)"/><path d="M151.34,274c0-.46-.06-1.59-.07-1.6a3.68,3.68,0,0,0,1-.25h.2v1.42a3,3,0,0,1,2.39-1.47,1.87,1.87,0,0,1,2,2v3.75c0,.69,0,1,0,1.28-.4,0-.82,0-1.22,0v-4.75a1.18,1.18,0,0,0-.4-1.05,1.33,1.33,0,0,0-.83-.29,1.84,1.84,0,0,0-1.08.38,3.59,3.59,0,0,0-.87.87v3.45c0,.74,0,1.1,0,1.35-.37,0-.78,0-1.2,0Z" transform="translate(50.26)"/><path d="M159.16,269.64a.73.73,0,0,1,.74.7.74.74,0,0,1-1.48,0A.73.73,0,0,1,159.16,269.64Zm-.58,8.17v-3.52c0-.33,0-1.71-.06-1.89a4.09,4.09,0,0,0,1-.25h.2v5.66c0,.74,0,1.18,0,1.35-.38,0-.8,0-1.23,0Z" transform="translate(50.26)"/><path d="M161.48,274a14.79,14.79,0,0,0-.07-1.6,4.4,4.4,0,0,0,1-.25h.2v1.42A3,3,0,0,1,165,272.1a1.84,1.84,0,0,1,1.91,1.47,3,3,0,0,1,2.39-1.47,1.88,1.88,0,0,1,2,2v3.75c0,.69,0,1.06,0,1.28-.38,0-.79,0-1.22,0v-4.75a1.15,1.15,0,0,0-.41-1.05,1.31,1.31,0,0,0-.83-.29,2.66,2.66,0,0,0-1.91,1.17v3.6c0,.69,0,1.11.05,1.28-.4,0-.82,0-1.22,0v-4.75a1.18,1.18,0,0,0-.4-1.05,1.33,1.33,0,0,0-.83-.29,1.84,1.84,0,0,0-1.08.38,3.59,3.59,0,0,0-.87.87v3.45c0,.74,0,1.14,0,1.35-.37,0-.78,0-1.2,0Z" transform="translate(50.26)"/><path d="M176.2,272.16l1.8,5.29a4.24,4.24,0,0,1,.18.64,4.87,4.87,0,0,1,.2-.64l.44-1.3.57-1.73.51-1.53.23-.73a11.61,11.61,0,0,0,1.18,0l-2.61,7h-.3l-.79,0-.52-1.36-.86-2.25-.84-2.2c-.25-.67-.41-1.08-.46-1.21C175.36,272.18,175.8,272.18,176.2,272.16Z" transform="translate(50.26)"/><path d="M184.68,272.1a2.57,2.57,0,0,1,2.7,2.78,6.06,6.06,0,0,1,0,.85h-4.55v.19a2.14,2.14,0,0,0,2.13,2.38,3.05,3.05,0,0,0,1.93-.68,3.81,3.81,0,0,0,.38.67,3,3,0,0,1-1.17.71,4,4,0,0,1-1.3.24c-1.79,0-3.15-1.2-3.15-3.54C181.6,273.67,182.91,272.1,184.68,272.1Zm1.66,2.86c0-.9-.32-2-1.62-2a2,2,0,0,0-1.92,2Z" transform="translate(50.26)"/><path d="M188.68,274c0-.46-.05-1.59-.06-1.6a3.76,3.76,0,0,0,1-.25h.19v1.42a3,3,0,0,1,2.4-1.47,1.87,1.87,0,0,1,2,2v3.75c0,.69,0,1,0,1.28-.4,0-.82,0-1.22,0v-4.75a1.18,1.18,0,0,0-.4-1.05,1.34,1.34,0,0,0-.84-.29,1.84,1.84,0,0,0-1.07.38,3.64,3.64,0,0,0-.88.87v3.45c0,.74,0,1.1,0,1.35-.37,0-.78,0-1.21,0Z" transform="translate(50.26)"/><path d="M196.51,269.64a.73.73,0,0,1,.74.7.74.74,0,0,1-1.48,0A.73.73,0,0,1,196.51,269.64Zm-.58,8.17v-3.52c0-.33,0-1.71-.06-1.89a4.09,4.09,0,0,0,1-.25h.2v5.66c0,.74,0,1.18,0,1.35-.37,0-.79,0-1.22,0Z" transform="translate(50.26)"/><path d="M204.47,278.75a1.33,1.33,0,0,1-1,.49c-.62,0-1.07-.4-1.23-1.23a3.37,3.37,0,0,1-.85.83,2.18,2.18,0,0,1-1.3.4,1.61,1.61,0,0,1-1.73-1.7c0-1,.95-2.1,3.82-2.45v-.7c0-.95-.42-1.39-1.24-1.39a1.12,1.12,0,0,0-1.26,1.27,8.24,8.24,0,0,0-1.08.12c0-.06,0-.12,0-.17,0-1.52,1.11-2.12,2.42-2.12a2.1,2.1,0,0,1,2.31,2.26v2.85c0,.62.08,1.12.54,1.12a.58.58,0,0,0,.37-.16A1.58,1.58,0,0,0,204.47,278.75Zm-2.29-3c-.94.14-2.69.49-2.69,1.67,0,.64.48.93,1.06.93a2.3,2.3,0,0,0,1.63-1Z" transform="translate(50.26)"/><path d="M205.35,274c0-.54,0-1.43-.06-1.6a4.53,4.53,0,0,0,1-.25h.19v1.42a3,3,0,0,1,2.39-1.47,1.83,1.83,0,0,1,1.91,1.47,3,3,0,0,1,2.4-1.47,1.88,1.88,0,0,1,2,2v3.75c0,.69,0,1.06,0,1.28-.37,0-.79,0-1.22,0v-4.75a1.18,1.18,0,0,0-.4-1.05,1.31,1.31,0,0,0-.83-.29,2.62,2.62,0,0,0-1.91,1.17v3.6a12.33,12.33,0,0,0,.05,1.28c-.41,0-.82,0-1.22,0v-4.75a1.15,1.15,0,0,0-.41-1.05,1.31,1.31,0,0,0-.83-.29,1.87,1.87,0,0,0-1.08.38,3.59,3.59,0,0,0-.87.87v3.45c0,.74,0,1.14,0,1.35-.38,0-.78,0-1.21,0Z" transform="translate(50.26)"/><path d="M216.66,280.24v-.08a1,1,0,0,0,.82-1c-.52,0-.85-.25-.85-.67a.72.72,0,0,1,.77-.74c.53,0,.83.38.83,1.09a1.83,1.83,0,0,1-1.23,1.73A2.37,2.37,0,0,0,216.66,280.24Z" transform="translate(50.26)"/><path d="M226.49,278.57a2.76,2.76,0,0,1-1.76.67c-1.56,0-2.93-1.29-2.93-3.46,0-2.34,1.45-3.68,3.18-3.68a2.93,2.93,0,0,1,1.66.49l.54-.44h.48v8.22c0,.63,0,1.19,0,1.57-.37,0-.8,0-1.23,0,0-.15,0-1.51,0-1.69Zm0-5.11a1.61,1.61,0,0,0-1.29-.54c-1.17,0-2.21,1-2.21,2.71a3.1,3.1,0,0,0,.57,1.93,1.81,1.81,0,0,0,1.49.73,2.49,2.49,0,0,0,1.44-.5Z" transform="translate(50.26)"/><path d="M229.35,274c0-.79,0-1.56-.07-1.73a8.42,8.42,0,0,0,1-.1h.2v4.67a1.3,1.3,0,0,0,.4,1.06,1.33,1.33,0,0,0,.85.34,2.72,2.72,0,0,0,1.84-1v-3.09c0-.92-.05-1.67-.06-1.89a8.34,8.34,0,0,0,1-.1h.21v5.19a10.51,10.51,0,0,0,.17,1.82c-.38,0-.79,0-1.22,0,0-.15-.1-.62-.12-1.19a3.06,3.06,0,0,1-2.29,1.23,2,2,0,0,1-2-2.11Z" transform="translate(50.26)"/><path d="M237.17,269.64a.74.74,0,0,1,.75.7.75.75,0,0,1-1.49,0A.74.74,0,0,1,237.17,269.64Zm-.58,8.17v-3.52c0-.33,0-1.71-.05-1.89a4.12,4.12,0,0,0,1-.25h.2v5.66c0,.74,0,1.18,0,1.35-.38,0-.79,0-1.22,0Z" transform="translate(50.26)"/><path d="M241,278.31a2.26,2.26,0,0,0,1.05-.24.92.92,0,0,0,.47-.88c0-.57-.39-.75-1.47-1.17a6.37,6.37,0,0,1-1.38-.74,1.57,1.57,0,0,1-.56-1.35c0-1.13.9-1.83,2.24-1.83a4.09,4.09,0,0,1,2,.45,2,2,0,0,0-.27.72l-.09.05a3.69,3.69,0,0,0-1.49-.3c-.66,0-1.27.21-1.27.89s.49.89,1.33,1.17a4,4,0,0,1,1.5.8,1.76,1.76,0,0,1,.46,1.3c0,1.42-1.21,2.06-2.47,2.06a3.51,3.51,0,0,1-2-.59,2.64,2.64,0,0,0,.29-.77A3.07,3.07,0,0,0,241,278.31Z" transform="translate(50.26)"/><path d="M247.41,274c0-.46-.06-1.59-.07-1.6a3.68,3.68,0,0,0,1-.25h.2v1.42A3,3,0,0,1,251,272.1a1.87,1.87,0,0,1,2,2v3.75c0,.69,0,1,0,1.28-.4,0-.82,0-1.22,0v-4.75a1.18,1.18,0,0,0-.4-1.05,1.33,1.33,0,0,0-.83-.29,1.84,1.84,0,0,0-1.08.38,3.59,3.59,0,0,0-.87.87v3.45c0,.74,0,1.1,0,1.35-.37,0-.78,0-1.2,0Z" transform="translate(50.26)"/><path d="M257.27,279.24c-1.92,0-3.07-1.54-3.07-3.57s1.3-3.57,3.11-3.57,3.07,1.44,3.07,3.53S259.09,279.24,257.27,279.24Zm0-6.23c-1.21,0-1.93,1.13-1.93,2.62,0,1.72.82,2.66,1.93,2.66a1.65,1.65,0,0,0,1.36-.72,3,3,0,0,0,.56-1.94C259.21,274.07,258.48,273,257.29,273Z" transform="translate(50.26)"/><path d="M263.19,278.31a2.26,2.26,0,0,0,1.05-.24.92.92,0,0,0,.47-.88c0-.57-.39-.75-1.47-1.17a6.14,6.14,0,0,1-1.38-.74,1.55,1.55,0,0,1-.56-1.35c0-1.13.9-1.83,2.24-1.83a4.14,4.14,0,0,1,2,.45,2,2,0,0,0-.28.72l-.09.05a3.64,3.64,0,0,0-1.48-.3c-.66,0-1.27.21-1.27.89s.49.89,1.32,1.17a3.94,3.94,0,0,1,1.51.8,1.76,1.76,0,0,1,.46,1.3c0,1.42-1.21,2.06-2.47,2.06a3.51,3.51,0,0,1-2-.59,2.65,2.65,0,0,0,.28-.77A3.13,3.13,0,0,0,263.19,278.31Z" transform="translate(50.26)"/><path d="M267.19,273.09l-1-.13v-.6l1-.21.09-1.38a3.66,3.66,0,0,0,.91-.22h.16v1.6h1.94a2.93,2.93,0,0,0,0,.94h-1.89V277c0,.95.39,1.24,1,1.24a1.7,1.7,0,0,0,1-.34,3.16,3.16,0,0,0,.26.77,2.65,2.65,0,0,1-1.54.56c-1.1,0-1.85-.68-1.85-2.07Z" transform="translate(50.26)"/><path d="M271.62,274c0-.46-.06-1.38-.06-1.6a4,4,0,0,0,1-.25h.19v1.43a2,2,0,0,1,1.76-1.48,2,2,0,0,1,1.07.28,3.46,3.46,0,0,0-.39,1,1.45,1.45,0,0,0-.78-.22c-.67,0-1.18.33-1.66,1.41v3.22c0,.74,0,1.05.06,1.35-.38,0-.8,0-1.23,0Z" transform="translate(50.26)"/><path d="M276.32,274c0-.79-.06-1.56-.07-1.73a8.78,8.78,0,0,0,1-.1h.2v4.67a1.3,1.3,0,0,0,.4,1.06,1.33,1.33,0,0,0,.84.34,2.73,2.73,0,0,0,1.85-1v-3.09c0-.92-.05-1.67-.06-1.89a8.52,8.52,0,0,0,1-.1h.21v5.19a10.51,10.51,0,0,0,.17,1.82c-.38,0-.79,0-1.22,0a10.55,10.55,0,0,1-.12-1.19,3.06,3.06,0,0,1-2.29,1.23,2,2,0,0,1-2-2.11Z" transform="translate(50.26)"/><path d="M283.12,275.78c0-2.34,1.45-3.68,3.18-3.68a2.91,2.91,0,0,1,1.51.39c0-.38,0-2.82,0-3a8.79,8.79,0,0,0,1-.23H289v8.18a8.94,8.94,0,0,0,.18,1.72c-.38,0-.78,0-1.21,0a3.27,3.27,0,0,1-.09-.67,2.79,2.79,0,0,1-1.81.71C284.49,279.24,283.12,278,283.12,275.78Zm3.4-2.86c-1.17,0-2.21,1-2.21,2.71a3.1,3.1,0,0,0,.57,1.93,1.81,1.81,0,0,0,1.49.73,2.33,2.33,0,0,0,1.45-.51c0-.14,0-1.46,0-4.32A1.61,1.61,0,0,0,286.52,272.92Z" transform="translate(50.26)"/><path d="M158.58,287.7a2.57,2.57,0,0,1,2.7,2.78,6.06,6.06,0,0,1-.05.85h-4.55v.19a2.14,2.14,0,0,0,2.13,2.38,3,3,0,0,0,1.92-.68,4.57,4.57,0,0,0,.38.67,2.88,2.88,0,0,1-1.17.71,4,4,0,0,1-1.3.23c-1.78,0-3.14-1.19-3.14-3.53C155.5,289.27,156.81,287.7,158.58,287.7Zm1.66,2.86c0-.9-.32-2-1.62-2a2,2,0,0,0-1.93,2Z" transform="translate(50.26)"/><path d="M162,287.78h1.27c.43.71,1,1.53,1.75,2.66.76-1.13,1.32-1.95,1.75-2.66H168c-.84,1.24-1.61,2.35-2.32,3.38.63.94,1.61,2.45,2.44,3.6a10.12,10.12,0,0,0-1.25.05c-.06-.14-.51-.79-.92-1.43s-.86-1.3-.92-1.42l-1.82,2.81c-.41,0-1,0-1.29,0,.8-1.15,1.75-2.58,2.42-3.6C163.53,290.1,162.81,289,162,287.78Z" transform="translate(50.26)"/><path d="M171.51,287.7a2.58,2.58,0,0,1,2.71,2.78,6.07,6.07,0,0,1-.06.85h-4.55v.19a2.14,2.14,0,0,0,2.14,2.38,3,3,0,0,0,1.92-.68,3.81,3.81,0,0,0,.38.67,3,3,0,0,1-1.17.71,4,4,0,0,1-1.3.23c-1.78,0-3.15-1.19-3.15-3.53C168.43,289.27,169.74,287.7,171.51,287.7Zm1.67,2.86c0-.9-.33-2-1.63-2a2,2,0,0,0-1.92,2Z" transform="translate(50.26)"/><path d="M175.52,289.6c0-.46-.07-1.38-.07-1.6a3.94,3.94,0,0,0,1-.25h.2v1.43a2,2,0,0,1,1.75-1.48,1.92,1.92,0,0,1,1.07.28,3.46,3.46,0,0,0-.39,1,1.43,1.43,0,0,0-.78-.22c-.67,0-1.17.33-1.65,1.41v3.22c0,.74,0,1,.05,1.35-.38,0-.8,0-1.22,0Z" transform="translate(50.26)"/><path d="M182.68,287.7a2.61,2.61,0,0,1,1.66.52,1.81,1.81,0,0,1,.68,1.56v.11h-.26a3.94,3.94,0,0,0-.77.07v-.2a1.27,1.27,0,0,0-.28-.79,1.21,1.21,0,0,0-1-.38,1.62,1.62,0,0,0-1.38.76,3.14,3.14,0,0,0-.53,1.86c0,1.52.66,2.69,2.14,2.69a3.24,3.24,0,0,0,1.86-.6,2.46,2.46,0,0,0,.37.66,3.57,3.57,0,0,1-2.38.87c-1.81,0-3.15-1.27-3.15-3.53C179.61,289.27,180.87,287.7,182.68,287.7Z" transform="translate(50.26)"/><path d="M186.89,285.24a.73.73,0,0,1,.74.7.74.74,0,0,1-1.48,0A.73.73,0,0,1,186.89,285.24Zm-.59,8.17v-3.52c0-.33,0-1.71-.05-1.89a4.09,4.09,0,0,0,1-.25h.19v5.66c0,.74,0,1.18,0,1.35-.37,0-.79,0-1.22,0Z" transform="translate(50.26)"/><path d="M192,288.69l-1-.13V288l1-.21.09-1.38a3.66,3.66,0,0,0,.91-.22h.16v1.6h1.94a2.93,2.93,0,0,0,0,.94h-1.89v3.92c0,.95.39,1.24,1,1.24a1.68,1.68,0,0,0,1-.34,3.16,3.16,0,0,0,.26.77,2.64,2.64,0,0,1-1.54.55c-1.09,0-1.85-.67-1.85-2.06Z" transform="translate(50.26)"/><path d="M202.09,294.35a1.35,1.35,0,0,1-1,.48c-.61,0-1.07-.39-1.23-1.22a3.37,3.37,0,0,1-.85.83,2.24,2.24,0,0,1-1.3.39,1.61,1.61,0,0,1-1.73-1.69c0-1,1-2.1,3.82-2.45V290c0-.95-.42-1.4-1.24-1.4a1.13,1.13,0,0,0-1.26,1.28,8.24,8.24,0,0,0-1.08.12c0-.06,0-.12,0-.17,0-1.52,1.11-2.12,2.42-2.12a2.1,2.1,0,0,1,2.31,2.26v2.85c0,.62.08,1.11.54,1.11a.55.55,0,0,0,.37-.15A1.58,1.58,0,0,0,202.09,294.35Zm-2.29-3c-.94.14-2.69.49-2.69,1.67,0,.64.48.92,1.06.92a2.27,2.27,0,0,0,1.63-1Z" transform="translate(50.26)"/><path d="M203,288.69l-1-.13V288l1-.21.09-1.38a3.66,3.66,0,0,0,.91-.22h.16v1.6h1.93a3.38,3.38,0,0,0,0,.53,2.55,2.55,0,0,0,0,.41h-1.89v3.92c0,.95.39,1.24,1,1.24a1.7,1.7,0,0,0,1-.34,3.16,3.16,0,0,0,.26.77,2.64,2.64,0,0,1-1.54.55c-1.1,0-1.85-.67-1.85-2.06Z" transform="translate(50.26)"/><path d="M208,285.24a.74.74,0,0,1,.74.7.75.75,0,0,1-1.49,0A.74.74,0,0,1,208,285.24Zm-.59,8.17v-3.52c0-.33,0-1.71-.05-1.89a4.31,4.31,0,0,0,1-.25h.19v5.66c0,.74,0,1.18,0,1.35-.38,0-.79,0-1.22,0Z" transform="translate(50.26)"/><path d="M212.94,294.83c-1.92,0-3.07-1.53-3.07-3.56s1.3-3.57,3.11-3.57,3.07,1.44,3.07,3.53S214.76,294.83,212.94,294.83Zm0-6.22c-1.21,0-1.93,1.13-1.93,2.62,0,1.72.82,2.66,1.93,2.66a1.65,1.65,0,0,0,1.36-.72,3,3,0,0,0,.56-1.94C214.88,289.67,214.15,288.61,213,288.61Z" transform="translate(50.26)"/><path d="M217.34,289.6c0-.46-.06-1.59-.07-1.6a3.68,3.68,0,0,0,1-.25h.2v1.42a3,3,0,0,1,2.39-1.47,1.87,1.87,0,0,1,2,2v3.75c0,.69,0,1,0,1.28-.4,0-.82,0-1.22,0v-4.75a1.18,1.18,0,0,0-.4-1.05,1.33,1.33,0,0,0-.83-.29,1.84,1.84,0,0,0-1.08.38,3.42,3.42,0,0,0-.87.87v3.45c0,.74,0,1.1,0,1.35-.38,0-.79,0-1.21,0Z" transform="translate(50.26)"/><path d="M77.16,342.11A2.49,2.49,0,0,0,76,344a1.36,1.36,0,0,0,2.71.12,1.34,1.34,0,0,0,0-.2l.46,0a3.56,3.56,0,0,0,.55,0v.26a2.23,2.23,0,0,1-2.43,2.1,2.13,2.13,0,0,1-2.4-2.24,3.06,3.06,0,0,1,1.38-2.34c.27-.25.54-.48.8-.7a1,1,0,0,0,.4-.77,1.55,1.55,0,0,0-.32-.84h.77a1.22,1.22,0,0,1,.49,1C78.37,341.12,77.77,341.6,77.16,342.11Zm1.08-4.41a.72.72,0,0,1-.75.71.71.71,0,1,1,0-1.42A.72.72,0,0,1,78.24,337.7Z" transform="translate(50.26)"/><path d="M84.06,335.36a2.48,2.48,0,0,1,2.53,1.69,5.49,5.49,0,0,0-.6.69h0a1.69,1.69,0,0,0-1.84-1.3,2.37,2.37,0,0,0-2,1,4.16,4.16,0,0,0-.76,2.64,3.9,3.9,0,0,0,.8,2.59,2.65,2.65,0,0,0,2.14.95,3.83,3.83,0,0,0,2.08-.66,2.94,2.94,0,0,0,.31.92,4.54,4.54,0,0,1-2.52.78,3.82,3.82,0,0,1-2.94-1.2,4.81,4.81,0,0,1-1.09-3.32C80.15,337.33,81.66,335.36,84.06,335.36Z" transform="translate(50.26)"/><path d="M90.49,344.65c-1.93,0-3.07-1.54-3.07-3.57s1.3-3.57,3.11-3.57S93.59,339,93.59,341,92.31,344.65,90.49,344.65Zm0-6.23c-1.21,0-1.92,1.13-1.92,2.62,0,1.72.81,2.66,1.92,2.66a1.63,1.63,0,0,0,1.36-.72,3,3,0,0,0,.56-1.94C92.42,339.48,91.7,338.42,90.5,338.42Z" transform="translate(50.26)"/><path d="M94.88,339.41c0-.54,0-1.43-.06-1.6a4.53,4.53,0,0,0,1-.25h.19V339a3,3,0,0,1,2.39-1.47,1.83,1.83,0,0,1,1.91,1.47,3,3,0,0,1,2.4-1.47,1.88,1.88,0,0,1,2,2v3.75c0,.69,0,1.06,0,1.28-.37,0-.79,0-1.22,0v-4.75a1.18,1.18,0,0,0-.4-1.05,1.31,1.31,0,0,0-.83-.29,2.62,2.62,0,0,0-1.91,1.17v3.6a12.33,12.33,0,0,0,0,1.28c-.41,0-.82,0-1.22,0v-4.75a1.15,1.15,0,0,0-.41-1.05,1.31,1.31,0,0,0-.83-.29,1.87,1.87,0,0,0-1.08.38,3.59,3.59,0,0,0-.87.87v3.45c0,.74,0,1.14,0,1.35-.38,0-.78,0-1.21,0Z" transform="translate(50.26)"/><path d="M109.05,344.65c-1.92,0-3.07-1.54-3.07-3.57s1.3-3.57,3.11-3.57,3.07,1.44,3.07,3.53S110.87,344.65,109.05,344.65Zm0-6.23c-1.21,0-1.92,1.13-1.92,2.62,0,1.72.82,2.66,1.92,2.66a1.66,1.66,0,0,0,1.37-.72A3,3,0,0,0,111,341C111,339.48,110.26,338.42,109.06,338.42Z" transform="translate(50.26)"/><path d="M116.25,338.5l-1-.13v-.6l1-.21.09-1.38a3.66,3.66,0,0,0,.91-.22h.16v1.6h1.94a2.93,2.93,0,0,0,0,.94h-1.89v3.92c0,.95.39,1.24,1,1.24a1.73,1.73,0,0,0,1-.34,2.49,2.49,0,0,0,.26.77,2.7,2.7,0,0,1-1.55.56c-1.09,0-1.85-.68-1.85-2.07Z" transform="translate(50.26)"/><path d="M123.18,337.51a2.58,2.58,0,0,1,2.71,2.78,6.07,6.07,0,0,1-.06.85h-4.55v.19a2.14,2.14,0,0,0,2.14,2.38,3,3,0,0,0,1.92-.68,3.81,3.81,0,0,0,.38.67,3,3,0,0,1-1.17.71,4,4,0,0,1-1.3.24c-1.78,0-3.15-1.2-3.15-3.54C120.1,339.08,121.41,337.51,123.18,337.51Zm1.67,2.86c0-.9-.33-2-1.63-2a2,2,0,0,0-1.92,2Z" transform="translate(50.26)"/><path d="M131.31,343.72a2.26,2.26,0,0,0,1.05-.24.92.92,0,0,0,.47-.88c0-.57-.39-.75-1.47-1.17a6.14,6.14,0,0,1-1.38-.74,1.55,1.55,0,0,1-.56-1.35c0-1.13.9-1.83,2.24-1.83a4.14,4.14,0,0,1,2,.45,2,2,0,0,0-.28.72l-.09.05a3.64,3.64,0,0,0-1.48-.3c-.66,0-1.27.21-1.27.89s.49.89,1.32,1.17a4,4,0,0,1,1.51.8,1.76,1.76,0,0,1,.46,1.3c0,1.42-1.21,2.06-2.47,2.06a3.51,3.51,0,0,1-2-.59,2.65,2.65,0,0,0,.28-.77A3.13,3.13,0,0,0,131.31,343.72Z" transform="translate(50.26)"/><path d="M137.73,337.51a2.57,2.57,0,0,1,2.7,2.78,6.06,6.06,0,0,1-.05.85h-4.55v.19a2.14,2.14,0,0,0,2.13,2.38,3.07,3.07,0,0,0,1.93-.68,4.58,4.58,0,0,0,.37.67,2.88,2.88,0,0,1-1.17.71,4,4,0,0,1-1.3.24c-1.78,0-3.14-1.2-3.14-3.54C134.65,339.08,136,337.51,137.73,337.51Zm1.66,2.86c0-.9-.32-2-1.62-2a2,2,0,0,0-1.93,2Z" transform="translate(50.26)"/><path d="M141.73,339.41c0-.46,0-1.59-.06-1.6a3.76,3.76,0,0,0,1-.25h.19V339a3,3,0,0,1,2.39-1.47,1.87,1.87,0,0,1,2,2v3.75c0,.69,0,1,.05,1.28-.4,0-.82,0-1.22,0v-4.75a1.15,1.15,0,0,0-.41-1.05,1.31,1.31,0,0,0-.83-.29,1.87,1.87,0,0,0-1.08.38,3.59,3.59,0,0,0-.87.87v3.45c0,.74,0,1.1,0,1.35-.38,0-.78,0-1.21,0Z" transform="translate(50.26)"/><path d="M149.19,338.5l-1-.13v-.6l1-.21.1-1.38a3.89,3.89,0,0,0,.91-.22h.15v1.6h1.94a2.49,2.49,0,0,0,0,.53c0,.16,0,.29,0,.41h-1.89v3.92c0,.95.39,1.24,1,1.24a1.73,1.73,0,0,0,1-.34,2.49,2.49,0,0,0,.26.77,2.7,2.7,0,0,1-1.55.56c-1.09,0-1.85-.68-1.85-2.07Z" transform="translate(50.26)"/><path d="M154.2,335.05a.73.73,0,0,1,.74.7.74.74,0,0,1-1.48,0A.73.73,0,0,1,154.2,335.05Zm-.59,8.17V339.7c0-.33,0-1.71-.05-1.89a4.09,4.09,0,0,0,1-.25h.19v5.66c0,.74,0,1.18,0,1.35-.37,0-.79,0-1.22,0Z" transform="translate(50.26)"/><path d="M158,343.72a2.3,2.3,0,0,0,1.06-.24.92.92,0,0,0,.47-.88c0-.57-.39-.75-1.47-1.17a6.14,6.14,0,0,1-1.38-.74,1.55,1.55,0,0,1-.56-1.35c0-1.13.9-1.83,2.24-1.83a4.07,4.07,0,0,1,2,.45,2.14,2.14,0,0,0-.27.72l-.09.05a3.64,3.64,0,0,0-1.48-.3c-.66,0-1.28.21-1.28.89s.5.89,1.33,1.17a4,4,0,0,1,1.51.8,1.75,1.75,0,0,1,.45,1.3c0,1.42-1.21,2.06-2.47,2.06a3.56,3.56,0,0,1-2-.59,2.38,2.38,0,0,0,.29-.77A3.12,3.12,0,0,0,158,343.72Z" transform="translate(50.26)"/><path d="M162,338.5l-1-.13,0-.6,1-.21.09-1.38A3.89,3.89,0,0,0,163,336h.16v1.6h1.93a2.49,2.49,0,0,0,0,.53c0,.16,0,.29,0,.41h-1.88v3.92c0,.95.39,1.24,1,1.24a1.71,1.71,0,0,0,1-.34,2.49,2.49,0,0,0,.26.77,2.68,2.68,0,0,1-1.55.56c-1.09,0-1.84-.68-1.84-2.07Z" transform="translate(50.26)"/><path d="M169,337.51a2.57,2.57,0,0,1,2.7,2.78,6.06,6.06,0,0,1,0,.85h-4.55v.19a2.14,2.14,0,0,0,2.13,2.38,3.07,3.07,0,0,0,1.93-.68,4.58,4.58,0,0,0,.37.67,2.88,2.88,0,0,1-1.17.71,4,4,0,0,1-1.3.24c-1.78,0-3.14-1.2-3.14-3.54C165.89,339.08,167.2,337.51,169,337.51Zm1.66,2.86c0-.9-.32-2-1.62-2a2,2,0,0,0-1.93,2Z" transform="translate(50.26)"/><path d="M175.57,339.41c0-.46-.06-1.38-.06-1.6a4,4,0,0,0,1-.25h.19V339a2,2,0,0,1,1.76-1.48,1.89,1.89,0,0,1,1.06.28,3.77,3.77,0,0,0-.39,1,1.4,1.4,0,0,0-.78-.22c-.66,0-1.17.33-1.65,1.41v3.22c0,.74,0,1,0,1.35-.37,0-.79,0-1.22,0Z" transform="translate(50.26)"/><path d="M182.75,337.51a2.57,2.57,0,0,1,2.7,2.78,6.06,6.06,0,0,1,0,.85h-4.55v.19a2.14,2.14,0,0,0,2.13,2.38,3.07,3.07,0,0,0,1.93-.68,4.58,4.58,0,0,0,.37.67,2.88,2.88,0,0,1-1.17.71,4,4,0,0,1-1.3.24c-1.78,0-3.14-1.2-3.14-3.54C179.67,339.08,181,337.51,182.75,337.51Zm1.66,2.86c0-.9-.32-2-1.62-2a2,2,0,0,0-1.93,2Z" transform="translate(50.26)"/><path d="M192.39,344.16a1.3,1.3,0,0,1-1,.49c-.61,0-1.06-.4-1.22-1.23a3.26,3.26,0,0,1-.86.83,2.14,2.14,0,0,1-1.3.4,1.62,1.62,0,0,1-1.73-1.7c0-1,.95-2.1,3.83-2.45v-.7c0-.95-.42-1.39-1.24-1.39a1.12,1.12,0,0,0-1.26,1.27,8.24,8.24,0,0,0-1.08.12c0-.06,0-.12,0-.17,0-1.52,1.1-2.12,2.42-2.12a2.1,2.1,0,0,1,2.31,2.26v2.85c0,.62.08,1.12.53,1.12a.61.61,0,0,0,.38-.16A1.59,1.59,0,0,0,192.39,344.16Zm-2.28-3c-.94.14-2.7.49-2.7,1.67,0,.64.49.93,1.07.93a2.3,2.3,0,0,0,1.63-1Z" transform="translate(50.26)"/><path d="M193.26,336.86c0-.28,0-1.81,0-2a5.81,5.81,0,0,0,1-.23h.18v8.48a10,10,0,0,0,.06,1.42c-.38,0-.82,0-1.24,0,0-.12,0-1.28,0-1.46Z" transform="translate(50.26)"/><path d="M196.73,335.05a.74.74,0,0,1,.75.7.75.75,0,0,1-1.49,0A.74.74,0,0,1,196.73,335.05Zm-.58,8.17V339.7c0-.33,0-1.71-.05-1.89a4.12,4.12,0,0,0,1-.25h.2v5.66c0,.74,0,1.18,0,1.35-.38,0-.79,0-1.22,0Z" transform="translate(50.26)"/><path d="M198.54,344.57v-.8l.68-1,1.21-1.77c.43-.64.83-1.21,1.19-1.74l.63-.87h-2.11c-.51,0-1,0-1.47,0,0-.15,0-.33,0-.47a3,3,0,0,0,0-.43h4.89v.82l-.74,1-1.23,1.78-1.19,1.7-.53.78h2.51a10.67,10.67,0,0,0,1.16-.05,4.21,4.21,0,0,0,0,.46,4,4,0,0,0,0,.48Z" transform="translate(50.26)"/><path d="M210.4,344.16a1.31,1.31,0,0,1-1,.49c-.61,0-1.07-.4-1.23-1.23a3.37,3.37,0,0,1-.85.83,2.18,2.18,0,0,1-1.3.4,1.61,1.61,0,0,1-1.73-1.7c0-1,1-2.1,3.82-2.45v-.7c0-.95-.42-1.39-1.24-1.39a1.12,1.12,0,0,0-1.26,1.27,8.24,8.24,0,0,0-1.08.12c0-.06,0-.12,0-.17,0-1.52,1.11-2.12,2.42-2.12a2.1,2.1,0,0,1,2.31,2.26v2.85c0,.62.08,1.12.54,1.12a.56.56,0,0,0,.37-.16A1.77,1.77,0,0,0,210.4,344.16Zm-2.29-3c-.94.14-2.69.49-2.69,1.67,0,.64.48.93,1.06.93a2.28,2.28,0,0,0,1.63-1Z" transform="translate(50.26)"/><path d="M211.28,339.41c0-.46-.05-1.59-.06-1.6a3.76,3.76,0,0,0,1-.25h.19V339a3,3,0,0,1,2.39-1.47,1.87,1.87,0,0,1,2,2v3.75c0,.69,0,1,.05,1.28-.4,0-.82,0-1.22,0v-4.75a1.15,1.15,0,0,0-.41-1.05,1.31,1.31,0,0,0-.83-.29,1.87,1.87,0,0,0-1.08.38,3.59,3.59,0,0,0-.87.87v3.45c0,.74,0,1.1,0,1.35-.38,0-.78,0-1.21,0Z" transform="translate(50.26)"/><path d="M218.08,341.19c0-2.34,1.46-3.68,3.19-3.68a2.85,2.85,0,0,1,1.5.39c0-.38,0-2.82,0-3a8.36,8.36,0,0,0,1-.23h.18v8.18a8,8,0,0,0,.19,1.72c-.38,0-.78,0-1.21,0a2.65,2.65,0,0,1-.09-.67,2.83,2.83,0,0,1-1.81.71C219.46,344.65,218.08,343.36,218.08,341.19Zm3.41-2.86c-1.17,0-2.21,1-2.21,2.71a3,3,0,0,0,.57,1.93,1.81,1.81,0,0,0,1.48.73,2.36,2.36,0,0,0,1.46-.51c0-.14,0-1.46,0-4.32A1.58,1.58,0,0,0,221.49,338.33Z" transform="translate(50.26)"/><path d="M228.29,344.65c-1.93,0-3.07-1.54-3.07-3.57s1.3-3.57,3.1-3.57,3.07,1.44,3.07,3.53S230.11,344.65,228.29,344.65Zm0-6.23c-1.21,0-1.93,1.13-1.93,2.62,0,1.72.82,2.66,1.93,2.66a1.65,1.65,0,0,0,1.36-.72,3,3,0,0,0,.56-1.94C230.22,339.48,229.49,338.42,228.3,338.42Z" transform="translate(50.26)"/><path d="M237.9,337.51a2.58,2.58,0,0,1,2.71,2.78,6.06,6.06,0,0,1-.05.85H236v.19a2.14,2.14,0,0,0,2.13,2.38,3,3,0,0,0,1.92-.68,4.57,4.57,0,0,0,.38.67,2.88,2.88,0,0,1-1.17.71,4,4,0,0,1-1.3.24c-1.78,0-3.15-1.2-3.15-3.54C234.82,339.08,236.14,337.51,237.9,337.51Zm1.67,2.86c0-.9-.33-2-1.63-2a2,2,0,0,0-1.92,2Z" transform="translate(50.26)"/><path d="M243.43,343.72a2.26,2.26,0,0,0,1-.24.9.9,0,0,0,.47-.88c0-.57-.39-.75-1.47-1.17a6.37,6.37,0,0,1-1.38-.74,1.57,1.57,0,0,1-.56-1.35c0-1.13.9-1.83,2.24-1.83a4.09,4.09,0,0,1,2,.45,2,2,0,0,0-.27.72l-.09.05a3.69,3.69,0,0,0-1.49-.3c-.66,0-1.27.21-1.27.89s.49.89,1.33,1.17a4,4,0,0,1,1.5.8,1.76,1.76,0,0,1,.46,1.3c0,1.42-1.21,2.06-2.47,2.06a3.51,3.51,0,0,1-2-.59,2.64,2.64,0,0,0,.29-.77A3.07,3.07,0,0,0,243.43,343.72Z" transform="translate(50.26)"/><path d="M247.43,338.5l-1-.13v-.6l1-.21.09-1.38a3.66,3.66,0,0,0,.91-.22h.16v1.6h1.94a2.49,2.49,0,0,0-.05.53c0,.16,0,.29,0,.41H248.6v3.92c0,.95.39,1.24,1,1.24a1.73,1.73,0,0,0,1-.34,2.49,2.49,0,0,0,.26.77,2.7,2.7,0,0,1-1.55.56c-1.09,0-1.85-.68-1.85-2.07Z" transform="translate(50.26)"/><path d="M257.51,344.16a1.31,1.31,0,0,1-1,.49c-.61,0-1.07-.4-1.22-1.23a3.6,3.6,0,0,1-.86.83,2.18,2.18,0,0,1-1.3.4,1.61,1.61,0,0,1-1.73-1.7c0-1,.95-2.1,3.82-2.45v-.7c0-.95-.42-1.39-1.23-1.39a1.13,1.13,0,0,0-1.27,1.27,7.94,7.94,0,0,0-1.07.12c0-.06,0-.12,0-.17,0-1.52,1.11-2.12,2.42-2.12a2.1,2.1,0,0,1,2.31,2.26v2.85c0,.62.08,1.12.54,1.12a.56.56,0,0,0,.37-.16A1.77,1.77,0,0,0,257.51,344.16Zm-2.29-3c-.94.14-2.69.49-2.69,1.67,0,.64.48.93,1.07.93a2.28,2.28,0,0,0,1.62-1Z" transform="translate(50.26)"/><path d="M266.63,344.16a1.3,1.3,0,0,1-1,.49c-.61,0-1.06-.4-1.22-1.23a3.26,3.26,0,0,1-.86.83,2.14,2.14,0,0,1-1.3.4,1.62,1.62,0,0,1-1.73-1.7c0-1,1-2.1,3.83-2.45v-.7c0-.95-.42-1.39-1.24-1.39a1.12,1.12,0,0,0-1.26,1.27,8.24,8.24,0,0,0-1.08.12c0-.06,0-.12,0-.17,0-1.52,1.1-2.12,2.42-2.12a2.1,2.1,0,0,1,2.31,2.26v2.85c0,.62.08,1.12.53,1.12a.59.59,0,0,0,.38-.16A1.59,1.59,0,0,0,266.63,344.16Zm-2.28-3c-.94.14-2.69.49-2.69,1.67,0,.64.48.93,1.06.93a2.3,2.3,0,0,0,1.63-1Z" transform="translate(50.26)"/><path d="M270,337.51a2.66,2.66,0,0,1,1.67.52,1.83,1.83,0,0,1,.67,1.56v.11h-.26a3.77,3.77,0,0,0-.76.07v-.19a1.29,1.29,0,0,0-.29-.8,1.22,1.22,0,0,0-1-.37,1.63,1.63,0,0,0-1.38.75,3.14,3.14,0,0,0-.53,1.86c0,1.52.66,2.69,2.15,2.69a3.23,3.23,0,0,0,1.85-.6,2.46,2.46,0,0,0,.37.66,3.58,3.58,0,0,1-2.38.88c-1.81,0-3.15-1.28-3.15-3.54C266.93,339.08,268.19,337.51,270,337.51Z" transform="translate(50.26)"/><path d="M273.85,338.5l-1-.13,0-.6,1-.21.09-1.38a3.66,3.66,0,0,0,.91-.22H275v1.6h1.93a2.49,2.49,0,0,0-.05.53c0,.16,0,.29,0,.41H275v3.92c0,.95.39,1.24,1,1.24a1.71,1.71,0,0,0,1-.34,2.79,2.79,0,0,0,.26.77,2.68,2.68,0,0,1-1.54.56c-1.1,0-1.85-.68-1.85-2.07Z" transform="translate(50.26)"/><path d="M278.85,335.05a.74.74,0,0,1,.75.7.75.75,0,0,1-1.49,0A.74.74,0,0,1,278.85,335.05Zm-.58,8.17V339.7c0-.33,0-1.71,0-1.89a4.12,4.12,0,0,0,1-.25h.2v5.66c0,.74,0,1.18,0,1.35-.38,0-.79,0-1.22,0Z" transform="translate(50.26)"/><path d="M281.74,337.57l1.79,5.29a4.39,4.39,0,0,1,.19.64,6.58,6.58,0,0,1,.19-.64l.44-1.3.58-1.73.5-1.53.24-.73a11.61,11.61,0,0,0,1.18,0l-2.61,7h-.3l-.8,0-.52-1.36-.85-2.25-.85-2.2-.45-1.21C280.9,337.59,281.34,337.59,281.74,337.57Z" transform="translate(50.26)"/><path d="M288.46,335.05a.73.73,0,0,1,.74.7.74.74,0,0,1-1.48,0A.73.73,0,0,1,288.46,335.05Zm-.58,8.17V339.7c0-.33,0-1.71-.06-1.89a4.09,4.09,0,0,0,1-.25h.2v5.66c0,.74,0,1.18,0,1.35-.38,0-.8,0-1.23,0Z" transform="translate(50.26)"/><path d="M290.32,341.19c0-2.34,1.46-3.68,3.19-3.68a2.85,2.85,0,0,1,1.5.39c0-.38,0-2.82,0-3a8.36,8.36,0,0,0,1-.23h.18v8.18a8,8,0,0,0,.19,1.72c-.38,0-.78,0-1.21,0a2.65,2.65,0,0,1-.09-.67,2.83,2.83,0,0,1-1.81.71C291.7,344.65,290.32,343.36,290.32,341.19Zm3.41-2.86c-1.17,0-2.21,1-2.21,2.71a3,3,0,0,0,.57,1.93,1.81,1.81,0,0,0,1.48.73,2.36,2.36,0,0,0,1.46-.51c0-.14,0-1.46,0-4.32A1.58,1.58,0,0,0,293.73,338.33Z" transform="translate(50.26)"/><path d="M303.55,344.16a1.3,1.3,0,0,1-1,.49c-.61,0-1.06-.4-1.22-1.23a3.26,3.26,0,0,1-.86.83,2.14,2.14,0,0,1-1.3.4,1.62,1.62,0,0,1-1.73-1.7c0-1,.95-2.1,3.83-2.45v-.7c0-.95-.42-1.39-1.24-1.39a1.12,1.12,0,0,0-1.26,1.27,8.24,8.24,0,0,0-1.08.12c0-.06,0-.12,0-.17,0-1.52,1.1-2.12,2.42-2.12a2.1,2.1,0,0,1,2.31,2.26v2.85c0,.62.08,1.12.53,1.12a.59.59,0,0,0,.38-.16A1.59,1.59,0,0,0,303.55,344.16Zm-2.28-3c-.94.14-2.69.49-2.69,1.67,0,.64.48.93,1.06.93a2.3,2.3,0,0,0,1.63-1Z" transform="translate(50.26)"/><path d="M303.85,341.19c0-2.34,1.46-3.68,3.19-3.68a2.91,2.91,0,0,1,1.51.39c0-.38,0-2.82,0-3a8.64,8.64,0,0,0,1-.23h.19v8.18a8.19,8.19,0,0,0,.18,1.72c-.38,0-.78,0-1.21,0a3.27,3.27,0,0,1-.09-.67,2.81,2.81,0,0,1-1.81.71C305.23,344.65,303.85,343.36,303.85,341.19Zm3.41-2.86c-1.17,0-2.21,1-2.21,2.71a3,3,0,0,0,.57,1.93,1.81,1.81,0,0,0,1.48.73,2.36,2.36,0,0,0,1.46-.51c0-.14,0-1.46,0-4.32A1.61,1.61,0,0,0,307.26,338.33Z" transform="translate(50.26)"/><path d="M314.81,337.62a1.27,1.27,0,0,0-1.36-1.36,1.24,1.24,0,0,0-1.36,1.22v.21h-.35a5.08,5.08,0,0,0-.65,0v-.26a2.23,2.23,0,0,1,2.42-2.11,2.14,2.14,0,0,1,2.41,2.24,3.07,3.07,0,0,1-1.37,2.34c-.28.26-.56.49-.82.71a.94.94,0,0,0-.39.76,1.4,1.4,0,0,0,.33.84h-.78a1.29,1.29,0,0,1-.5-1C312.39,339.72,314.81,339.35,314.81,337.62Zm-1.53,5.58a.72.72,0,1,1,0,1.43.72.72,0,1,1,0-1.43Z" transform="translate(50.26)"/><image width="1747" height="1081" transform="translate(135.51 342.51) scale(0.12)" xlink:href="../../../../../Downloads/Recurso%201.png"/></g></g></svg>