<svg xmlns="http://www.w3.org/2000/svg" viewBox="0 0 480.78 478.63"><defs><style>.cls-1{fill:#f95c4b;}.cls-2{font-size:57px;font-family:MultiDisplay-Bold, Multi Display;font-weight:700;}.cls-2,.cls-6{fill:#1c1b28;}.cls-10,.cls-11,.cls-12,.cls-13,.cls-3{fill:none;stroke-linecap:round;}.cls-3{stroke:#f95c4b;stroke-width:5px;}.cls-10,.cls-13,.cls-3{stroke-linejoin:round;}.cls-4{fill:#fcb910;}.cls-5{fill:#e5a21a;}.cls-7{fill:#00bcbc;}.cls-14,.cls-8{fill:#009995;}.cls-9{fill:#e09e1b;}.cls-10,.cls-11{stroke:#1c1b28;stroke-width:3px;}.cls-11,.cls-12{stroke-miterlimit:10;}.cls-12{stroke:#fff;}.cls-13{stroke:#f2af19;stroke-width:4px;}.cls-14{opacity:0.71;}</style></defs><g id="Capa_2" data-name="Capa 2"><g id="Capa_2-2" data-name="Capa 2"><circle class="cls-1" cx="240.39" cy="235.66" r="182.14"/><text class="cls-2" transform="translate(315.32 462.8) rotate(-22.35)">T</text><text class="cls-2" transform="translate(353.57 446.33) rotate(-31.78)">a</text><text class="cls-2" transform="matrix(0.76, -0.65, 0.65, 0.76, 387.2, 424.39)">t</text><text class="cls-2" transform="translate(413.32 401.55) rotate(-50.06)">ú</text><path class="cls-3" d="M311.62,447.8a223.5,223.5,0,0,1-71.23,11.58c-123.56,0-223.72-100.16-223.72-223.72S116.83,11.93,240.39,11.93,464.11,112.1,464.11,235.66a222.66,222.66,0,0,1-36.94,123.19"/><circle class="cls-4" cx="240.39" cy="235.66" r="147.92"/><path class="cls-5" d="M201.64,354.17c-56.47-4.26-81.52-32.81-81.52-32.81L146,244.5s44.34,32.27,56.59,92.49"/><path class="cls-5" d="M287.48,356.4c-1.4-61.77,22.66-91.83,22.66-91.83l56.55,48s-13.81,32.26-64.43,57.66"/><path class="cls-6" d="M249.48,280.07l-18.94,1.62a20,20,0,0,1-20.44-17l-2.7-20.08L235,242.88l14.12,24.22Z"/><path class="cls-7" d="M224.94,99.45,183,56.16a19.69,19.69,0,0,1,.39-27.81L212.46,0"/><path class="cls-7" d="M265.21,0l29.07,28.35a19.7,19.7,0,0,1,.4,27.81l-42,43.29"/><path class="cls-7" d="M387.8,237.27a147.07,147.07,0,0,1-18.5,71.65q-2.81,5.06-6,9.85a31.78,31.78,0,0,1-55.49-21.15c0-.51,0-1,0-1.52a69.21,69.21,0,0,0,1.35-7.81,68.26,68.26,0,0,0,.48-8.13,69.62,69.62,0,1,0-138.8,7.78,66.19,66.19,0,0,0,1.48,8.5c0,.39,0,.79,0,1.18a31.78,31.78,0,0,1-55.77,20.84q-2.94-4.44-5.54-9.1A147.75,147.75,0,1,1,387.8,237.27Z"/><path class="cls-8" d="M388.74,236.19a147.07,147.07,0,0,1-18.5,71.65q-2.81,5.06-6,9.85a31.67,31.67,0,0,1-16.46,9.79q1.8-2.88,3.45-5.86A147.78,147.78,0,0,0,145.14,123.77a147.74,147.74,0,0,1,243.6,112.42Z"/><path class="cls-4" d="M224.94,99.45,228.4,59a17.75,17.75,0,0,0-.63-6.4L212.46,0,203,48.94a23.08,23.08,0,0,0,2.5,15.62Z"/><path class="cls-4" d="M375,291.32a41.31,41.31,0,0,0-40.57.65A13.67,13.67,0,0,0,329,276.59l-8.87-17.72-.76-1.88-3-11.05-8.91-15.86-1.13.27c10.93-54-3.74-78.86-4.37-79.9a.3.3,0,0,1,0-.08c-14.79-34.72-35.75-48.25-50.06-52.87a34.19,34.19,0,0,0-33,6.94c-12.71,11.1-23.53,26.19-23.53,26.19s-26.37,28-15,69.69c0,0,11.41,42.06,45.9,62,.39.23.51.76.8,1.12,27.44,34,91.06,58.27,91.06,58.27s30.83,11.16,70.75-8.9a.7.7,0,0,0,.39-.59C389.34,310,388.9,299,375,291.32Z"/><path class="cls-8" d="M372.48,290.44a41.26,41.26,0,0,0-40.56.66,13.67,13.67,0,0,0-5.39-15.38L317.67,258l-.76-1.87-3-11.05L305,229.2l-1.13.28c10.92-54-3.75-78.87-4.38-79.91l0-.07c-14.78-34.73-35.75-48.25-50.05-52.88-11.42-3.69-23.32-.18-33,6.94a103.35,103.35,0,0,0-24.19,25.89s-27,29.51-14.3,70c0,0,2.63,13.39,15.3,29.23.24.31,3.2-.15,3.46.16,7,8.4,14.42,17.47,27.68,26.72.37.26,5.3,2.43,5.58,2.79,27.45,34,86.72,60,86.72,60s29.84,13.63,69.77-6.44a.7.7,0,0,0,.38-.59C386.85,309.08,386.42,298.17,372.48,290.44Z"/><path class="cls-4" d="M376.09,290.44a41.26,41.26,0,0,0-40.56.66,13.67,13.67,0,0,0-5.39-15.38L321.28,258l-.76-1.87-3-11.05-8.91-15.87-1.13.28c10.92-54-3.75-78.87-4.38-79.91l0-.07c-14.78-34.73-35.75-48.25-50-52.88a34.24,34.24,0,0,0-33,6.94c-12.71,11.11-23.52,26.2-23.52,26.2s-26.38,28-15,69.68c0,0,11.4,42.06,45.9,62,.39.23.5.76.79,1.11,27.45,34,91.07,58.28,91.07,58.28S350.09,332,390,311.9a.7.7,0,0,0,.38-.59C390.46,309.08,390,298.17,376.09,290.44Z"/><path class="cls-9" d="M374.43,290.76a41.31,41.31,0,0,0-40.57.66A13.66,13.66,0,0,0,328.48,276L320,257.56l-1.12-1.12L317.28,244l-8.78-16-.74-.09c10.93-54-4.06-77.28-4.69-78.32l0-.07c-13.76-35.38-37.12-48.66-51.43-53.29-11.42-3.69-24.22-.22-33.26,7.67-7.15,6.25-12.79,13.85-17.15,19.22,4.16-4.9,9-10.77,14.76-15.81a33.58,33.58,0,0,1,32.61-7c14.31,4.63,35.27,18.15,50.06,52.87a.2.2,0,0,0,0,.08c.63,1,15.3,25.92,4.38,79.91l1.12-.28,8.91,15.86,3,11.05.76,1.88,8.87,17.73a13.66,13.66,0,0,1,5.38,15.38,41.28,41.28,0,0,1,40.57-.66c11.83,6.56,13.93,15.42,14.26,19.31.8-.38,1.61-.76,2.42-1.17a.7.7,0,0,0,.38-.59C388.8,309.4,388.36,298.49,374.43,290.76Z"/><path class="cls-4" d="M252.73,99.45,249.27,59a17.54,17.54,0,0,1,.64-6.4L265.21,0l9.45,48.94a23.08,23.08,0,0,1-2.5,15.62Z"/><path class="cls-7" d="M224.11,103.65l-5.23,5.17A27.39,27.39,0,0,0,215.7,144l24.14,34.47a8.15,8.15,0,0,0,13.82-.73l19-34.42a27.53,27.53,0,0,0-4.31-32.43l-6.61-6.83A26.47,26.47,0,0,0,224.11,103.65Z"/><path class="cls-1" d="M210.1,264.72a20,20,0,0,0,19.82,17c-5.54-18.45-15.69-19.55-20.1-19.06Z"/><path class="cls-10" d="M200.7,240.24l.89,21.38c3.68,20.35,8.2,26.38,28.52,27.09l23-3.38"/><path class="cls-8" d="M268.35,110.89l-6.61-6.83a26.47,26.47,0,0,0-37.63-.41l-5.23,5.17a27.17,27.17,0,0,0-4.47,5.8c.3-.33.59-.67.91-1l5.22-5.17a26.47,26.47,0,0,1,37.64.42l6.6,6.82a27.52,27.52,0,0,1,4.32,32.43l-17.83,32.29a8.18,8.18,0,0,0,2.39-2.68l19-34.42A27.53,27.53,0,0,0,268.35,110.89Z"/><path class="cls-11" d="M199.3,169.42s10.19-8,21.75-3.12"/><path class="cls-11" d="M271.92,166.59s11.9-5.14,21.83,2.51"/><line class="cls-12" x1="222.14" y1="120.06" x2="239.97" y2="120.06"/><line class="cls-12" x1="217.15" y1="124.81" x2="234.98" y2="124.81"/><line class="cls-12" x1="219.71" y1="129.45" x2="237.53" y2="129.45"/><line class="cls-12" x1="239.02" y1="124.81" x2="244.48" y2="124.81"/><path class="cls-10" d="M308.27,228.53s14,13.55,8.08,28.28"/><path class="cls-10" d="M324.67,277.72s5.94-12.35-6.42-23.52"/><path class="cls-10" d="M326.1,272.79s11.69,5.21,10.3,17.84"/><path class="cls-13" d="M196.28,189.87s13.92-11.38,25.13,2.32"/><path class="cls-13" d="M196.78,189.9s14-7.07,24.63,2.29"/><path class="cls-11" d="M196.28,189.47s14.31-16.25,25.13,2.32"/><path class="cls-11" d="M196.28,189.47s14.31-12.39,25.13,2.32"/><path class="cls-13" d="M295.4,190.52s-13.91-11.38-25.13,2.32"/><path class="cls-13" d="M294.91,190.55s-14-7.07-24.64,2.29"/><path class="cls-11" d="M295.4,190.12s-14.31-16.25-25.13,2.32"/><path class="cls-11" d="M295.4,190.12s-14.31-12.39-25.13,2.32"/><path class="cls-8" d="M230.52,363.64l-7.23,7.59a12.82,12.82,0,0,1-18.94-.42l-7.26-8.33a13.55,13.55,0,1,1,13.65-23.41l17.16,8.33A10.32,10.32,0,0,1,230.52,363.64Z"/><path class="cls-7" d="M232.14,361.66l-7.23,7.58a12.82,12.82,0,0,1-18.94-.41l-7.27-8.33a13.55,13.55,0,1,1,13.66-23.41l17.15,8.32A10.33,10.33,0,0,1,232.14,361.66Z"/><path class="cls-8" d="M270.58,384.73l8.92,5.5A12.84,12.84,0,0,0,297.72,385l4.9-9.9a13.56,13.56,0,1,0-19.17-19.17L269,368.35A10.33,10.33,0,0,0,270.58,384.73Z"/><path class="cls-7" d="M268.51,383.23l8.92,5.49a12.82,12.82,0,0,0,18.22-5.23l4.9-9.9a13.55,13.55,0,1,0-19.16-19.16l-14.48,12.41A10.35,10.35,0,0,0,268.51,383.23Z"/><polygon class="cls-14" points="336.53 228.19 331.32 220.43 338.42 221.31 345.53 222.36 343.91 228.19 341.73 235.95 336.53 228.19"/><polygon class="cls-14" points="336.51 267.55 331.31 259.78 338.4 260.67 345.51 261.71 343.9 267.55 341.72 275.31 336.51 267.55"/><polygon class="cls-14" points="334.18 205.2 329.54 198.27 335.86 199.07 342.21 200 340.76 205.2 338.82 212.12 334.18 205.2"/><polygon class="cls-14" points="304.25 142.17 300.23 136.17 305.71 136.86 311.21 137.66 309.96 142.17 308.27 148.17 304.25 142.17"/><polygon class="cls-14" points="319.48 176.86 314.27 169.1 321.37 169.99 328.48 171.03 326.86 176.86 324.68 184.63 319.48 176.86"/><polygon class="cls-14" points="320.26 230.25 317.46 224.51 322.18 225.77 326.89 227.13 325.26 230.93 323.07 235.98 320.26 230.25"/><polygon class="cls-14" points="351.37 259.78 347.69 252.28 352.86 254.42 358.03 256.69 356.76 261.24 355.05 267.29 351.37 259.78"/><polygon class="cls-14" points="334.6 247.87 331.8 242.13 336.51 243.39 341.23 244.75 339.6 248.55 337.41 253.6 334.6 247.87"/><polygon class="cls-14" points="351.24 277.72 348.86 272.86 352.86 273.93 356.87 275.08 355.48 278.3 353.62 282.58 351.24 277.72"/><polygon class="cls-14" points="352.77 237.15 349.96 231.41 354.68 232.67 359.4 234.03 357.76 237.83 355.57 242.88 352.77 237.15"/><polygon class="cls-14" points="348.56 213.61 346.5 209.4 349.96 210.32 353.42 211.32 352.22 214.11 350.62 217.81 348.56 213.61"/><polygon class="cls-14" points="318.72 192.79 316.66 188.58 320.12 189.5 323.58 190.5 322.38 193.29 320.78 196.99 318.72 192.79"/><polygon class="cls-14" points="311.64 158.64 309.59 154.43 313.05 155.35 316.51 156.35 315.31 159.13 313.7 162.84 311.64 158.64"/><polygon class="cls-14" points="296.84 129.45 295.4 126.49 297.83 127.14 300.26 127.84 299.42 129.8 298.29 132.4 296.84 129.45"/><polygon class="cls-14" points="316.83 147.23 315.39 144.28 317.82 144.93 320.25 145.63 319.41 147.58 318.28 150.18 316.83 147.23"/><polygon class="cls-14" points="319.47 209.46 316.66 203.72 321.38 204.98 326.1 206.34 324.46 210.14 322.27 215.19 319.47 209.46"/><polygon class="cls-14" points="331.2 190.19 329.37 186.45 332.44 187.27 335.52 188.16 334.46 190.63 333.03 193.93 331.2 190.19"/><polygon class="cls-14" points="334.27 170.81 332.44 167.07 335.52 167.89 338.6 168.78 337.53 171.26 336.11 174.55 334.27 170.81"/><polygon class="cls-14" points="339.32 186.09 336.51 180.35 341.23 181.61 345.95 182.97 344.32 186.77 342.13 191.82 339.32 186.09"/><polygon class="cls-14" points="324.18 159.41 321.38 153.68 326.1 154.94 330.81 156.3 329.18 160.09 326.99 165.14 324.18 159.41"/><polygon class="cls-14" points="124.57 221.87 127.78 213.09 121.1 215.64 114.44 218.34 117.39 223.62 121.35 230.64 124.57 221.87"/><polygon class="cls-14" points="124.51 261.42 128.07 252.78 121.29 255.06 114.52 257.49 117.27 262.89 120.94 270.06 124.51 261.42"/><polygon class="cls-14" points="116.87 291.41 119.81 284.28 114.22 286.16 108.63 288.17 110.9 292.62 113.93 298.55 116.87 291.41"/><polygon class="cls-14" points="125.6 200.57 129.47 193.19 123.26 194.66 117.06 196.27 119.05 201.28 121.73 207.96 125.6 200.57"/><polygon class="cls-14" points="156.26 136.99 160.29 130.99 154.8 131.68 149.3 132.48 150.56 136.99 152.24 142.99 156.26 136.99"/><polygon class="cls-14" points="141.03 171.68 146.24 163.92 139.15 164.81 132.03 165.85 133.65 171.69 135.83 179.45 141.03 171.68"/><polygon class="cls-14" points="140.25 225.07 143.06 219.34 138.34 220.59 133.62 221.95 135.25 225.75 137.44 230.8 140.25 225.07"/><polygon class="cls-14" points="109.14 254.6 112.82 247.09 107.66 249.24 102.48 251.51 103.75 256.06 105.47 262.11 109.14 254.6"/><polygon class="cls-14" points="125.91 242.69 128.72 236.96 124 238.21 119.28 239.57 120.91 243.37 123.1 248.42 125.91 242.69"/><polygon class="cls-14" points="109.27 272.54 111.65 267.68 107.65 268.75 103.65 269.9 105.03 273.12 106.89 277.4 109.27 272.54"/><polygon class="cls-14" points="107.75 231.97 110.55 226.23 105.83 227.49 101.11 228.85 102.75 232.65 104.94 237.7 107.75 231.97"/><polygon class="cls-14" points="111.95 208.43 114.01 204.22 110.55 205.14 107.09 206.14 108.29 208.93 109.89 212.63 111.95 208.43"/><polygon class="cls-14" points="141.79 187.61 143.85 183.41 140.39 184.32 136.93 185.32 138.13 188.11 139.74 191.81 141.79 187.61"/><polygon class="cls-14" points="148.87 153.46 150.93 149.25 147.47 150.17 144 151.17 145.2 153.96 146.81 157.66 148.87 153.46"/><polygon class="cls-14" points="163.67 124.27 165.12 121.31 162.68 121.96 160.25 122.66 161.1 124.62 162.22 127.22 163.67 124.27"/><polygon class="cls-14" points="108.63 192.44 110.08 189.49 107.65 190.13 105.22 190.83 106.06 192.79 107.19 195.39 108.63 192.44"/><polygon class="cls-14" points="102.24 217.43 103.02 214.24 100.78 215.39 98.56 216.59 99.8 218.32 101.45 220.62 102.24 217.43"/><polygon class="cls-14" points="117.33 277.72 118.11 274.53 115.88 275.68 113.65 276.88 114.89 278.61 116.54 280.92 117.33 277.72"/><polygon class="cls-14" points="143.68 142.05 145.12 139.1 142.69 139.75 140.26 140.45 141.1 142.4 142.23 145 143.68 142.05"/><polygon class="cls-14" points="141.05 204.28 143.85 198.55 139.14 199.8 134.42 201.16 136.05 204.96 138.24 210.01 141.05 204.28"/><polygon class="cls-14" points="129.32 185.01 131.15 181.27 128.07 182.09 124.99 182.98 126.06 185.46 127.49 188.75 129.32 185.01"/><polygon class="cls-14" points="126.24 165.63 128.07 161.89 124.99 162.71 121.91 163.6 122.98 166.08 124.41 169.37 126.24 165.63"/><polygon class="cls-14" points="121.19 180.91 124 175.18 119.28 176.43 114.56 177.79 116.2 181.59 118.39 186.64 121.19 180.91"/><polygon class="cls-14" points="136.33 154.23 139.14 148.5 134.42 149.75 129.7 151.12 131.33 154.91 133.52 159.96 136.33 154.23"/></g></g></svg>