<svg xmlns="http://www.w3.org/2000/svg" viewBox="0 0 1366.57 280.26"><defs><style>.cls-1{fill:#00bcbc;}.cls-2{fill:#fff;}.cls-3{font-size:46.75px;fill:#1c1b28;font-family:MultiDisplay-Thin, Multi Display;font-weight:200;letter-spacing:0.1em;}</style></defs><g id="Capa_2" data-name="Capa 2"><g id="Capa_2-2" data-name="Capa 2"><rect class="cls-1" width="1366.57" height="280.26"/><path class="cls-2" d="M546.65,76h-39.8c1.21-8.24,1.41-18.89,1.41-33,26.73.8,159.21.6,181.92,0-1.61,12.26-1.81,28.13-1.81,33-9-.2-89.87,0-105.15,0v72.15c0,8.44.61,30.54.81,36.17-15.28,0-31.35.8-38,1.2.2-5,.61-18.68.61-26.12Z"/><path class="cls-2" d="M649.8,131.53v-3.82c0-7-.33-13.31-9-13.31-6.48,0-9.31,6-8,11.48-4.65.33-18.62.83-25.94,3-.16-1.83-.33-3.66-.33-5.32,0-28.1,23.28-29.76,36.08-29.76,15.46,0,36.41,6,36.41,32.59V153c0,8.48,1.83,12.3,7.15,12.3h1.33a42.08,42.08,0,0,0,.67,12.14c-3.83,5.32-10.81,8.14-17.46,8.14-7.65,0-15.8-1.66-19.29-11.8a30.81,30.81,0,0,1-24.11,11.8c-14.63,0-24.1-8.14-24.1-22.94C603.25,152.48,611.23,135.85,649.8,131.53Zm0,14c-7.15,1-18.62,4-18.62,11.3,0,5.49,4.15,7.48,9.14,7.48a22.64,22.64,0,0,0,9.48-2.16Z"/><path class="cls-2" d="M706,42.12a147.26,147.26,0,0,0,25-4.94h5.63l-2,30.11h29.46a137.29,137.29,0,0,0-1.52,17.11,90.66,90.66,0,0,0,.65,11.7H735.71v35.53c0,15.59,5.42,23,15.82,23a35.08,35.08,0,0,0,12.13-2.6c.64,8.66,2.38,14.08,6.28,24-9.53,6.07-20.58,9.53-31,9.53-22.31,0-42.46-14.94-42.46-46.14l.36-51.11c0-3.72.22-7.44.58-11.14l2.87-29.35A6.31,6.31,0,0,1,706,42.12Z"/><path class="cls-2" d="M774.87,129.62c0-9.49-1.28-27.85-1.77-33,6,0,13-.32,26.41-1.61h4.34V149.1c0,6.93,4.51,10.47,9.83,10.47,4.66,0,10.3-2.42,14.48-5.31V130.43c0-9.34-1.12-28.5-1.6-33.81,6,0,12.39-.32,26.24-1.61h4.35v62.63c0,8.05.48,17.39,2.57,25.27-9.5,0-18.84.17-30.11,1-.48-4.35-.8-8-1.28-15-7.57,8.69-17.39,15-27.86,15-11.75,0-25.76-7.89-25.76-26.24C774.71,145.4,774.87,136.39,774.87,129.62Zm40.74-71.8h24.63v1.77L820.76,84.22H807.4Z"/><text class="cls-3" transform="translate(535.11 246.95)">Más allá de ti</text></g></g></svg>