<svg xmlns="http://www.w3.org/2000/svg" viewBox="0 0 352.87 224.49"><defs><style>.cls-1{font-size:46.75px;font-family:MultiDisplay-Thin, Multi Display;font-weight:200;letter-spacing:0.1em;}.cls-2{fill:#1c1b28;}.cls-3{fill:#00bcbc;}</style></defs><g id="Capa_2" data-name="Capa 2"><g id="Capa_2-2" data-name="Capa 2"><text class="cls-1" transform="translate(28.25 214.34)">Más allá de ti</text><path class="cls-2" d="M39.79,38.86H0C1.21,30.62,1.41,20,1.41,5.9c26.72.8,159.21.6,181.92,0-1.61,12.26-1.81,28.13-1.81,33-9-.2-89.88,0-105.15,0V111c0,8.44.6,30.54.8,36.17-15.27,0-31.35.8-38,1.21.2-5,.6-18.69.6-26.13Z"/><path class="cls-2" d="M143,94.35V90.53c0-7-.34-13.3-9-13.3-6.49,0-9.31,6-8,11.47-4.66.33-18.62.83-25.94,3-.17-1.83-.33-3.66-.33-5.32,0-28.1,23.27-29.76,36.08-29.76,15.46,0,36.41,6,36.41,32.59v26.6c0,8.48,1.83,12.3,7.15,12.3h1.33a42.42,42.42,0,0,0,.66,12.14c-3.82,5.32-10.81,8.15-17.46,8.15-7.64,0-15.79-1.67-19.28-11.81a30.85,30.85,0,0,1-24.11,11.81c-14.63,0-24.11-8.15-24.11-22.95C96.39,115.3,104.37,98.67,143,94.35Zm0,14c-7.15,1-18.63,4-18.63,11.3,0,5.49,4.16,7.48,9.15,7.48a22.68,22.68,0,0,0,9.48-2.16Z"/><path class="cls-3" d="M199.12,4.94a147,147,0,0,0,25-4.94h5.63l-1.95,30.11h29.46a139,139,0,0,0-1.51,17.12,90.6,90.6,0,0,0,.65,11.69H228.86V94.45c0,15.59,5.41,23,15.81,23a35,35,0,0,0,12.13-2.6c.65,8.66,2.39,14.08,6.28,24-9.53,6.07-20.58,9.54-31,9.54-22.32,0-42.46-14.95-42.46-46.14L190,51.13c0-3.72.22-7.44.58-11.14l2.86-29.35A6.32,6.32,0,0,1,199.12,4.94Z"/><path class="cls-3" d="M268,92.44c0-9.49-1.29-27.85-1.77-33,6,0,13-.32,26.4-1.61H297v54.09c0,6.93,4.51,10.47,9.82,10.47,4.67,0,10.31-2.42,14.49-5.31V93.25c0-9.34-1.13-28.5-1.61-33.81,6,0,12.4-.32,26.24-1.61h4.35v62.63c0,8,.48,17.39,2.58,25.28-9.5,0-18.84.16-30.11,1-.48-4.35-.81-8-1.29-15-7.56,8.69-17.39,15-27.85,15-11.75,0-25.76-7.89-25.76-26.24C267.86,108.22,268,99.21,268,92.44Zm40.73-71.8h24.64v1.77L313.91,47H300.54Z"/></g></g></svg>