<svg xmlns="http://www.w3.org/2000/svg" viewBox="0 0 480.78 479.55"><defs><style>.cls-1{fill:#f95c4b;}.cls-2{font-size:57px;font-family:MultiDisplay-Bold, Multi Display;font-weight:700;}.cls-2,.cls-6{fill:#1c1b28;}.cls-10,.cls-11,.cls-12,.cls-13,.cls-14,.cls-3,.cls-9{fill:none;stroke-linecap:round;}.cls-3{stroke:#f95c4b;stroke-width:5px;}.cls-12,.cls-13,.cls-14,.cls-3,.cls-9{stroke-linejoin:round;}.cls-4{fill:#fcb910;}.cls-5{fill:#e5a21a;}.cls-7{fill:#00bcbc;}.cls-15,.cls-8{fill:#009995;}.cls-10,.cls-9{stroke:#1c1b28;}.cls-10,.cls-12,.cls-13,.cls-9{stroke-width:3px;}.cls-10,.cls-11{stroke-miterlimit:10;}.cls-11{stroke:#fff;}.cls-12{stroke:#009995;}.cls-13{stroke:#e09e1b;}.cls-14{stroke:#f2af19;stroke-width:4px;}.cls-15{opacity:0.71;}.cls-16{fill:#e09e1b;}</style></defs><g id="Capa_2" data-name="Capa 2"><g id="Capa_2-2" data-name="Capa 2"><circle class="cls-1" cx="240.39" cy="236.58" r="182.14"/><text class="cls-2" transform="translate(315.32 463.72) rotate(-22.35)">T</text><text class="cls-2" transform="translate(353.57 447.25) rotate(-31.78)">a</text><text class="cls-2" transform="matrix(0.76, -0.65, 0.65, 0.76, 387.2, 425.32)">t</text><text class="cls-2" transform="translate(413.32 402.47) rotate(-50.06)">ú</text><path class="cls-3" d="M311.62,448.73a223.49,223.49,0,0,1-71.23,11.57c-123.56,0-223.72-100.16-223.72-223.72S116.83,12.86,240.39,12.86,464.11,113,464.11,236.58a222.66,222.66,0,0,1-36.94,123.19"/><circle class="cls-4" cx="240.39" cy="236.58" r="147.92"/><path class="cls-5" d="M201.59,354.17c-56.48-4.26-81.53-32.81-81.53-32.81l25.87-76.86s44.34,32.27,56.59,92.49"/><path class="cls-5" d="M287.43,356.4c-1.4-61.77,22.66-91.83,22.66-91.83l56.54,48s-13.8,32.26-64.42,57.66"/><path class="cls-6" d="M249.43,280.07l-18.94,1.62a20,20,0,0,1-20.44-17l-2.7-20.08L235,242.88l14.13,24.22Z"/><path class="cls-7" d="M224.89,99.45,182.94,56.16a19.7,19.7,0,0,1,.4-27.81L212.41,0"/><path class="cls-7" d="M265.16,0l29.07,28.35a19.69,19.69,0,0,1,.39,27.81L252.68,99.45"/><path class="cls-7" d="M387.74,237.8a147.07,147.07,0,0,1-18.5,71.65q-2.81,5.06-6,9.85a31.78,31.78,0,0,1-55.49-21.15c0-.51,0-1,0-1.52a69.21,69.21,0,0,0,1.35-7.81,68.26,68.26,0,0,0,.48-8.13,69.62,69.62,0,1,0-138.8,7.78,66.19,66.19,0,0,0,1.48,8.5c0,.39,0,.79,0,1.18A31.78,31.78,0,0,1,116.55,319q-2.94-4.44-5.54-9.1A147.75,147.75,0,1,1,387.74,237.8Z"/><path class="cls-8" d="M388.69,236.19a147.07,147.07,0,0,1-18.5,71.65q-2.81,5.06-6,9.85a31.67,31.67,0,0,1-16.46,9.79q1.8-2.88,3.45-5.86A147.78,147.78,0,0,0,145.09,123.77a147.74,147.74,0,0,1,243.6,112.42Z"/><path class="cls-4" d="M224.89,99.45,228.35,59a17.54,17.54,0,0,0-.64-6.4L212.41,0,203,48.94a23.08,23.08,0,0,0,2.5,15.62Z"/><path class="cls-4" d="M374.92,291.32a41.31,41.31,0,0,0-40.57.65A13.67,13.67,0,0,0,329,276.59l-8.87-17.72-.76-1.88-3-11.05-8.91-15.86-1.13.27c10.92-54-3.74-78.86-4.37-79.9a.3.3,0,0,1,0-.08c-14.79-34.72-35.76-48.25-50.06-52.87a34.19,34.19,0,0,0-33,6.94c-12.72,11.1-23.53,26.19-23.53,26.19s-26.37,28-15,69.69c0,0,11.41,42.06,45.9,62,.39.23.51.76.79,1.12,27.45,34,91.07,58.27,91.07,58.27s30.83,11.16,70.75-8.9a.67.67,0,0,0,.38-.59C389.29,310,388.85,299,374.92,291.32Z"/><path class="cls-8" d="M372.43,290.44a41.28,41.28,0,0,0-40.57.66,13.66,13.66,0,0,0-5.38-15.38L317.62,258l-.76-1.87-3-11.05-8.91-15.87-1.13.28c10.92-54-3.75-78.87-4.38-79.91l0-.07c-14.78-34.73-35.75-48.25-50.06-52.88-11.41-3.69-23.31-.18-33,6.94a103.5,103.5,0,0,0-24.2,25.89s-27,29.51-14.29,70c0,0,2.63,13.39,15.29,29.23.25.31,3.21-.15,3.46.16,7,8.4,14.43,17.47,27.69,26.72.37.26,5.3,2.43,5.58,2.79,27.45,34,86.72,60,86.72,60s29.84,13.63,69.77-6.44a.7.7,0,0,0,.38-.59C386.8,309.08,386.36,298.17,372.43,290.44Z"/><path class="cls-4" d="M376.14,291a41.28,41.28,0,0,0-40.57.66,13.67,13.67,0,0,0-5.38-15.38l-8.87-17.73-.76-1.88-3-11-8.91-15.87-1.13.28c10.92-54-3.74-78.87-4.37-79.91a.25.25,0,0,1,0-.07c-14.79-34.73-35.75-48.25-50.06-52.88a34.22,34.22,0,0,0-33,6.94c-12.71,11.1-23.53,26.2-23.53,26.2s-26.37,28-15,69.68c0,0,11.41,42.06,45.9,62,.39.23.51.75.79,1.11,27.45,34,91.07,58.28,91.07,58.28s30.83,11.16,70.75-8.91a.69.69,0,0,0,.39-.59C390.51,309.67,390.07,298.76,376.14,291Z"/><path class="cls-4" d="M252.68,99.45,249.22,59a17.75,17.75,0,0,1,.63-6.4L265.16,0l9.45,48.94a23.08,23.08,0,0,1-2.5,15.62Z"/><path class="cls-7" d="M224.06,103.65l-5.23,5.17A27.39,27.39,0,0,0,215.65,144l24.14,34.47a8.15,8.15,0,0,0,13.82-.73l19-34.42a27.53,27.53,0,0,0-4.31-32.43l-6.61-6.83A26.47,26.47,0,0,0,224.06,103.65Z"/><path class="cls-1" d="M210.05,264.72a20,20,0,0,0,19.82,17c-5.54-18.45-15.69-19.55-20.1-19.06Z"/><path class="cls-9" d="M200.65,240.24l.89,21.38c3.68,20.35,8.2,26.38,28.51,27.09l23-3.38"/><path class="cls-8" d="M268.3,110.89l-6.61-6.83a26.47,26.47,0,0,0-37.63-.41l-5.23,5.17a27.17,27.17,0,0,0-4.47,5.8c.3-.33.59-.67.91-1l5.22-5.17a26.47,26.47,0,0,1,37.64.42l6.6,6.82A27.5,27.5,0,0,1,269,148.13l-17.82,32.29a8.18,8.18,0,0,0,2.39-2.68l19-34.42A27.53,27.53,0,0,0,268.3,110.89Z"/><path class="cls-10" d="M199.25,169.42s10.19-8,21.75-3.12"/><path class="cls-10" d="M271.87,166.59s11.9-5.14,21.83,2.51"/><line class="cls-11" x1="222.09" y1="120.06" x2="239.92" y2="120.06"/><line class="cls-11" x1="217.1" y1="124.81" x2="234.93" y2="124.81"/><line class="cls-11" x1="219.66" y1="129.45" x2="237.48" y2="129.45"/><line class="cls-11" x1="238.97" y1="124.81" x2="244.43" y2="124.81"/><path class="cls-12" d="M308.22,226.74s16.07,10.77,10.38,29.53"/><path class="cls-12" d="M316.32,248.87s15.63,9.49,9.93,28.25"/><path class="cls-12" d="M326.25,270.63S339,274.05,338,289.9"/><path class="cls-13" d="M324.62,277.72s5.94-12.35-6.42-23.52"/><path class="cls-13" d="M326,272.79s11.7,5.21,10.31,17.84"/><path class="cls-14" d="M196.23,189.87s13.91-11.38,25.13,2.32"/><path class="cls-14" d="M196.72,189.9s14-7.07,24.64,2.29"/><path class="cls-10" d="M196.23,189.47s14.31-16.25,25.13,2.32"/><path class="cls-10" d="M196.23,189.47s14.31-12.39,25.13,2.32"/><path class="cls-14" d="M295.35,190.52s-13.91-11.38-25.13,2.32"/><path class="cls-14" d="M294.85,190.55s-14-7.07-24.63,2.29"/><path class="cls-10" d="M295.35,190.12s-14.31-16.25-25.13,2.32"/><path class="cls-10" d="M295.35,190.12s-14.31-12.39-25.13,2.32"/><path class="cls-8" d="M230.47,363.64l-7.23,7.59a12.82,12.82,0,0,1-18.94-.42L197,362.48a13.55,13.55,0,1,1,13.65-23.41l17.16,8.33A10.32,10.32,0,0,1,230.47,363.64Z"/><path class="cls-7" d="M232.09,361.66l-7.23,7.58a12.83,12.83,0,0,1-19-.41l-7.26-8.33a13.55,13.55,0,1,1,13.66-23.41l17.15,8.32A10.34,10.34,0,0,1,232.09,361.66Z"/><path class="cls-8" d="M270.53,384.73l8.92,5.5A12.83,12.83,0,0,0,297.66,385l4.91-9.9a13.56,13.56,0,1,0-19.17-19.17l-14.47,12.42A10.33,10.33,0,0,0,270.53,384.73Z"/><path class="cls-7" d="M268.46,383.23l8.92,5.49a12.82,12.82,0,0,0,18.22-5.23l4.9-9.9a13.55,13.55,0,1,0-19.16-19.16l-14.48,12.41A10.34,10.34,0,0,0,268.46,383.23Z"/><polygon class="cls-15" points="336.48 228.19 331.27 220.43 338.37 221.31 345.48 222.36 343.86 228.19 341.68 235.95 336.48 228.19"/><polygon class="cls-15" points="336.46 267.55 331.25 259.78 338.35 260.67 345.46 261.71 343.85 267.55 341.67 275.31 336.46 267.55"/><polygon class="cls-15" points="334.13 205.2 329.49 198.27 335.81 199.07 342.16 200 340.71 205.2 338.77 212.12 334.13 205.2"/><polygon class="cls-15" points="304.2 142.17 300.18 136.17 305.66 136.86 311.16 137.66 309.91 142.17 308.22 148.17 304.2 142.17"/><polygon class="cls-15" points="319.43 176.86 314.22 169.1 321.32 169.99 328.43 171.03 326.81 176.86 324.63 184.63 319.43 176.86"/><polygon class="cls-15" points="320.21 230.25 317.41 224.51 322.12 225.77 326.84 227.13 325.21 230.93 323.02 235.98 320.21 230.25"/><polygon class="cls-15" points="351.32 259.78 347.64 252.28 352.81 254.42 357.98 256.69 356.71 261.24 354.99 267.29 351.32 259.78"/><polygon class="cls-15" points="334.55 247.87 331.75 242.13 336.46 243.39 341.18 244.75 339.55 248.55 337.36 253.6 334.55 247.87"/><polygon class="cls-15" points="351.19 277.72 348.81 272.86 352.81 273.93 356.81 275.08 355.43 278.3 353.57 282.58 351.19 277.72"/><polygon class="cls-15" points="352.72 237.15 349.91 231.41 354.63 232.67 359.35 234.03 357.71 237.83 355.52 242.88 352.72 237.15"/><polygon class="cls-15" points="348.51 213.61 346.45 209.4 349.91 210.32 353.37 211.32 352.17 214.11 350.57 217.81 348.51 213.61"/><polygon class="cls-15" points="318.67 192.79 316.61 188.58 320.07 189.5 323.53 190.5 322.33 193.29 320.73 196.99 318.67 192.79"/><polygon class="cls-15" points="311.59 158.64 309.54 154.43 313 155.35 316.46 156.35 315.26 159.13 313.65 162.84 311.59 158.64"/><polygon class="cls-15" points="296.79 129.45 295.35 126.49 297.78 127.14 300.21 127.84 299.37 129.8 298.24 132.4 296.79 129.45"/><polygon class="cls-15" points="316.78 147.23 315.34 144.28 317.77 144.93 320.2 145.63 319.36 147.58 318.23 150.18 316.78 147.23"/><polygon class="cls-15" points="319.42 209.46 316.61 203.72 321.33 204.98 326.04 206.34 324.41 210.14 322.22 215.19 319.42 209.46"/><polygon class="cls-15" points="331.14 190.19 329.31 186.45 332.39 187.27 335.47 188.16 334.4 190.63 332.98 193.93 331.14 190.19"/><polygon class="cls-15" points="334.22 170.81 332.39 167.07 335.47 167.89 338.55 168.78 337.48 171.26 336.05 174.55 334.22 170.81"/><polygon class="cls-15" points="339.27 186.09 336.46 180.35 341.18 181.61 345.9 182.97 344.27 186.77 342.08 191.82 339.27 186.09"/><polygon class="cls-15" points="324.13 159.41 321.33 153.68 326.04 154.94 330.76 156.3 329.13 160.09 326.94 165.14 324.13 159.41"/><polygon class="cls-15" points="124.52 221.87 127.73 213.09 121.05 215.64 114.38 218.34 117.34 223.62 121.3 230.64 124.52 221.87"/><polygon class="cls-15" points="124.45 261.42 128.02 252.78 121.24 255.06 114.47 257.49 117.22 262.89 120.89 270.06 124.45 261.42"/><polygon class="cls-15" points="116.82 291.41 119.76 284.28 114.17 286.16 108.58 288.17 110.85 292.62 113.88 298.55 116.82 291.41"/><polygon class="cls-15" points="125.55 200.57 129.42 193.19 123.21 194.66 117 196.27 119 201.28 121.67 207.96 125.55 200.57"/><polygon class="cls-15" points="156.21 136.99 160.24 130.99 154.75 131.68 149.25 132.48 150.5 136.99 152.19 142.99 156.21 136.99"/><polygon class="cls-15" points="140.98 171.68 146.19 163.92 139.09 164.81 131.98 165.85 133.6 171.69 135.78 179.45 140.98 171.68"/><polygon class="cls-15" points="140.2 225.07 143 219.34 138.29 220.59 133.57 221.95 135.2 225.75 137.39 230.8 140.2 225.07"/><polygon class="cls-15" points="109.09 254.6 112.77 247.09 107.6 249.24 102.43 251.51 103.7 256.06 105.42 262.11 109.09 254.6"/><polygon class="cls-15" points="125.86 242.69 128.66 236.96 123.95 238.21 119.23 239.57 120.86 243.37 123.05 248.42 125.86 242.69"/><polygon class="cls-15" points="109.22 272.54 111.6 267.68 107.6 268.75 103.6 269.9 104.98 273.12 106.84 277.4 109.22 272.54"/><polygon class="cls-15" points="107.69 231.97 110.5 226.23 105.78 227.49 101.06 228.85 102.7 232.65 104.89 237.7 107.69 231.97"/><polygon class="cls-15" points="111.9 208.43 113.96 204.22 110.5 205.14 107.04 206.14 108.24 208.93 109.84 212.63 111.9 208.43"/><polygon class="cls-15" points="141.74 187.61 143.8 183.41 140.34 184.32 136.88 185.32 138.08 188.11 139.69 191.81 141.74 187.61"/><polygon class="cls-15" points="148.82 153.46 150.88 149.25 147.41 150.17 143.95 151.17 145.15 153.96 146.76 157.66 148.82 153.46"/><polygon class="cls-15" points="163.62 124.27 165.06 121.31 162.63 121.96 160.2 122.66 161.04 124.62 162.17 127.22 163.62 124.27"/><polygon class="cls-15" points="108.58 192.44 110.03 189.49 107.6 190.13 105.17 190.83 106.01 192.79 107.14 195.39 108.58 192.44"/><polygon class="cls-15" points="102.19 217.43 102.97 214.24 100.73 215.39 98.51 216.59 99.75 218.32 101.4 220.62 102.19 217.43"/><polygon class="cls-15" points="117.28 277.72 118.06 274.53 115.83 275.68 113.6 276.88 114.84 278.61 116.49 280.92 117.28 277.72"/><polygon class="cls-15" points="143.63 142.05 145.07 139.1 142.64 139.75 140.21 140.45 141.05 142.4 142.18 145 143.63 142.05"/><polygon class="cls-15" points="141 204.28 143.8 198.55 139.08 199.8 134.37 201.16 136 204.96 138.19 210.01 141 204.28"/><polygon class="cls-15" points="129.27 185.01 131.1 181.27 128.02 182.09 124.94 182.98 126.01 185.46 127.44 188.75 129.27 185.01"/><polygon class="cls-15" points="126.19 165.63 128.02 161.89 124.94 162.71 121.86 163.6 122.93 166.08 124.36 169.37 126.19 165.63"/><polygon class="cls-15" points="121.14 180.91 123.95 175.18 119.23 176.43 114.51 177.79 116.14 181.59 118.33 186.64 121.14 180.91"/><polygon class="cls-15" points="136.28 154.23 139.08 148.5 134.37 149.75 129.65 151.12 131.28 154.91 133.47 159.96 136.28 154.23"/><path class="cls-16" d="M374.38,290.76a41.17,41.17,0,0,0-38.17-.62c-.95.47-1.26-.51-1.15-1.56.82-7.57-5.1-11.47-6.36-12.36a1.28,1.28,0,0,1-.43-.52l-7-17.71c-.07-.14-1.36-.48-1.47-.6l-.63-.63a1.34,1.34,0,0,1-.38-.77l-1.49-11.79a1.36,1.36,0,0,0-.15-.47L308.45,228l-.74-.09c10.92-54-4.06-77.28-4.69-78.32l0-.07c-13.76-35.38-37.13-48.66-51.43-53.29-11.42-3.69-24.22-.22-33.26,7.67-7.15,6.25-12.79,13.85-17.15,19.22,4.16-4.9,9-10.77,14.76-15.81a33.57,33.57,0,0,1,32.61-7c14.3,4.62,35.24,18.13,50,52.8l.12.22c1.05,1.77,16.21,26.44,5.46,79.56h0s12.51,8.65,10.82,23.33c-.13,1.17,1.23,1,1.55,2.1,0,0,9.9,2.38,7,18.57a2.3,2.3,0,0,0,1.13,2.37c2.82.45,9.13,3.74,6.95,12.9a1.3,1.3,0,0,0,1.89,1.35,41.19,41.19,0,0,1,38.18.62c10.32,5.72,13.23,13.19,14,17.59a1.32,1.32,0,0,0,1.87.94l0,0a2,2,0,0,0,1.12-1.89C388.52,307.22,386.9,297.71,374.38,290.76Z"/><path class="cls-13" d="M307.18,228s15.06,14.07,9.12,28.8"/></g></g></svg>