<svg xmlns="http://www.w3.org/2000/svg" viewBox="0 0 298.09 480.95"><defs><style>.cls-1{fill:#e5e5e5;}.cls-2{fill:#00bcbc;}.cls-3{fill:#009995;}.cls-4{fill:#fcb910;}.cls-5{fill:#e5a21a;}.cls-6{fill:#1c1b28;}.cls-7{fill:#e09e1b;}.cls-10,.cls-11,.cls-12,.cls-13,.cls-8{fill:none;stroke-linecap:round;}.cls-10,.cls-11,.cls-8{stroke:#1c1b28;}.cls-10,.cls-13,.cls-8{stroke-linejoin:round;}.cls-8{stroke-width:2px;}.cls-9{fill:#f95c4b;}.cls-10,.cls-11{stroke-width:3px;}.cls-11,.cls-12{stroke-miterlimit:10;}.cls-12{stroke:#fff;}.cls-13{stroke:#f2af19;stroke-width:4px;}</style></defs><g id="Capa_2" data-name="Capa 2"><g id="Capa_2-2" data-name="Capa 2"><ellipse class="cls-1" cx="146.87" cy="455.29" rx="100.75" ry="25.66"/><path class="cls-2" d="M112.66,416c7.08,7.32,19.22,11.78,33.67,12.4a44.36,44.36,0,0,1-11.09,11.84s33.78.24,46.86-21.1a23.08,23.08,0,0,0,3.27-2.9l5.35-14.85L185,374.44l-60.24-5.17L103,395.11Z"/><path class="cls-3" d="M185,374.44l-2.44-.21,5.2,24.53-5.35,14.85a22.48,22.48,0,0,1-3.27,2.9c-9.47,15.46-29.79,19.59-40.28,20.7a45.81,45.81,0,0,1-3.64,3s33.78.24,46.86-21.1a23.08,23.08,0,0,0,3.27-2.9l5.35-14.85Z"/><path class="cls-4" d="M45,334.77s3.59,63.17,45.54,86.06l15.83-.95,26.33-17.57,13.92,4.5,17.11-5.45,25.57,17.52,16.59,1c29-22.34,40.89-70.34,40.89-70.34l15.56-78.41-84.59-66.77L95.08,206,46.84,269.7Z"/><path class="cls-5" d="M109.33,354.17c-56.48-4.26-81.53-32.81-81.53-32.81L53.66,244.5S98,276.77,110.26,337"/><path class="cls-5" d="M195.17,356.4c-1.4-61.77,22.66-91.83,22.66-91.83l56.54,48s-13.8,32.26-64.43,57.66"/><path class="cls-6" d="M157.16,280.07l-18.94,1.62a20,20,0,0,1-20.44-17l-2.69-20.08,27.63-1.76,14.13,24.22Z"/><path class="cls-2" d="M132.62,99.45,90.68,56.16a19.7,19.7,0,0,1,.39-27.81L120.15,0"/><path class="cls-2" d="M172.89,0,202,28.35a19.7,19.7,0,0,1,.39,27.81L160.42,99.45"/><path class="cls-2" d="M295.48,237.27A147.07,147.07,0,0,1,277,308.92q-2.81,5.06-6,9.85a31.78,31.78,0,0,1-55.49-21.15c0-.51,0-1,0-1.52a69.21,69.21,0,0,0,1.35-7.81,68.26,68.26,0,0,0,.48-8.13,69.62,69.62,0,1,0-138.8,7.78,66.19,66.19,0,0,0,1.48,8.5c0,.39,0,.79,0,1.18a31.78,31.78,0,0,1-55.77,20.84q-2.94-4.44-5.54-9.1a147.75,147.75,0,1,1,276.73-72.09Z"/><path class="cls-3" d="M296.43,236.19a147.07,147.07,0,0,1-18.5,71.65q-2.81,5.06-6,9.85a31.67,31.67,0,0,1-16.46,9.79q1.8-2.88,3.45-5.86A147.78,147.78,0,0,0,52.83,123.77a147.74,147.74,0,0,1,243.6,112.42Z"/><path class="cls-4" d="M132.62,99.45,136.08,59a17.53,17.53,0,0,0-.63-6.4L120.15,0l-9.46,48.94a23.14,23.14,0,0,0,2.5,15.62Z"/><path class="cls-4" d="M282.65,291.32a41.29,41.29,0,0,0-40.56.65,13.67,13.67,0,0,0-5.39-15.38l-8.86-17.72-.76-1.88-3-11.05-8.91-15.86-1.13.27c10.92-54-3.75-78.86-4.38-79.9,0,0,0,0,0-.08-14.78-34.72-35.75-48.25-50.06-52.87a34.21,34.21,0,0,0-33,6.94C113.85,115.54,103,130.63,103,130.63s-26.38,28-15,69.69c0,0,11.4,42.06,45.89,62,.4.23.51.76.8,1.12,27.45,34,91.07,58.27,91.07,58.27s30.82,11.16,70.75-8.9a.71.71,0,0,0,.38-.59C297,310,296.58,299,282.65,291.32Z"/><path class="cls-3" d="M280.17,290.44a41.28,41.28,0,0,0-40.57.66,13.67,13.67,0,0,0-5.38-15.38L225.35,258l-.76-1.87-3-11.05-8.91-15.87-1.13.28c10.93-54-3.74-78.87-4.37-79.91a.25.25,0,0,1,0-.07c-14.79-34.73-35.75-48.25-50.06-52.88-11.42-3.69-23.32-.18-33,6.94a103.5,103.5,0,0,0-24.2,25.89s-27,29.51-14.3,70c0,0,2.63,13.39,15.3,29.23.25.31,3.2-.15,3.46.16,7,8.4,14.42,17.47,27.68,26.72.38.26,5.3,2.43,5.59,2.79,27.44,34,86.72,60,86.72,60s29.84,13.63,69.76-6.44a.69.69,0,0,0,.39-.59C294.54,309.08,294.1,298.17,280.17,290.44Z"/><path class="cls-4" d="M283.78,290.44a41.28,41.28,0,0,0-40.57.66,13.67,13.67,0,0,0-5.38-15.38L229,258l-.76-1.87-3-11.05-8.91-15.87-1.13.28c10.93-54-3.74-78.87-4.37-79.91a.25.25,0,0,1,0-.07c-14.79-34.73-35.75-48.25-50.06-52.88a34.22,34.22,0,0,0-33,6.94c-12.71,11.11-23.53,26.2-23.53,26.2s-26.37,28-15,69.68c0,0,11.41,42.06,45.9,62,.39.23.51.76.8,1.11,27.44,34,91.06,58.28,91.06,58.28S257.78,332,297.7,311.9a.69.69,0,0,0,.39-.59C298.15,309.08,297.71,298.17,283.78,290.44Z"/><path class="cls-7" d="M282.12,290.76a41.31,41.31,0,0,0-40.57.66A13.67,13.67,0,0,0,236.16,276l-8.49-18.48-1.13-1.12L225,244l-8.78-16-.74-.09c10.92-54-4.06-77.28-4.69-78.32a.25.25,0,0,1,0-.07c-13.77-35.38-37.13-48.66-51.44-53.29-11.41-3.69-24.22-.22-33.25,7.67-7.16,6.25-12.79,13.85-17.15,19.22,4.15-4.9,9-10.77,14.75-15.81a33.59,33.59,0,0,1,32.62-7c14.3,4.63,35.27,18.15,50.05,52.87l0,.08c.64,1,15.3,25.92,4.38,79.91l1.13-.28,8.91,15.86,3,11.05.76,1.88,8.86,17.73a13.67,13.67,0,0,1,5.39,15.38,41.27,41.27,0,0,1,40.56-.66c11.84,6.56,13.94,15.42,14.26,19.31.81-.38,1.61-.76,2.42-1.17a.66.66,0,0,0,.38-.59C296.49,309.4,296.05,298.49,282.12,290.76Z"/><path class="cls-4" d="M160.42,99.45,157,59a17.53,17.53,0,0,1,.63-6.4L172.89,0l9.46,48.94a23.14,23.14,0,0,1-2.5,15.62Z"/><path class="cls-2" d="M131.79,103.65l-5.22,5.17A27.39,27.39,0,0,0,123.39,144l24.13,34.47a8.15,8.15,0,0,0,13.82-.73l19-34.42A27.5,27.5,0,0,0,176,110.89l-6.6-6.83A26.48,26.48,0,0,0,131.79,103.65Z"/><path class="cls-8" d="M117.41,392.79l15.31,9.52c9.35,5.45,16.32,5.36,23.78,1.71l18.66-10.52"/><path class="cls-9" d="M117.78,264.72a20,20,0,0,0,19.83,17c-5.54-18.45-15.69-19.55-20.11-19.06Z"/><path class="cls-10" d="M108.38,240.24l.89,21.38C113,282,117.47,288,137.79,288.71l23-3.38"/><path class="cls-3" d="M176,110.89l-6.6-6.83a26.48,26.48,0,0,0-37.64-.41l-5.22,5.17a27.22,27.22,0,0,0-4.48,5.8c.31-.33.59-.67.91-1l5.23-5.17a26.46,26.46,0,0,1,37.63.42l6.61,6.82a27.53,27.53,0,0,1,4.31,32.43L159,180.42a8.07,8.07,0,0,0,2.39-2.68l19-34.42A27.5,27.5,0,0,0,176,110.89Z"/><path class="cls-11" d="M107,169.42s10.2-8,21.75-3.12"/><path class="cls-11" d="M179.61,166.59s11.89-5.14,21.83,2.51"/><line class="cls-12" x1="129.83" y1="120.06" x2="147.65" y2="120.06"/><line class="cls-12" x1="124.84" y1="124.81" x2="142.66" y2="124.81"/><line class="cls-12" x1="127.39" y1="129.45" x2="145.22" y2="129.45"/><line class="cls-12" x1="146.7" y1="124.81" x2="152.17" y2="124.81"/><path class="cls-10" d="M216,228.53s14,13.55,8.08,28.28"/><path class="cls-10" d="M232.35,277.72s5.94-12.35-6.41-23.52"/><path class="cls-10" d="M233.78,272.79s11.7,5.21,10.3,17.84"/><path class="cls-13" d="M104,189.87s13.91-11.38,25.12,2.32"/><path class="cls-13" d="M104.46,189.9s14-7.07,24.63,2.29"/><path class="cls-11" d="M104,189.47s14.3-16.25,25.12,2.32"/><path class="cls-11" d="M104,189.47s14.3-12.39,25.12,2.32"/><path class="cls-13" d="M203.08,190.52s-13.91-11.38-25.12,2.32"/><path class="cls-13" d="M202.59,190.55s-14-7.07-24.63,2.29"/><path class="cls-11" d="M203.08,190.12s-14.3-16.25-25.12,2.32"/><path class="cls-11" d="M203.08,190.12s-14.3-12.39-25.12,2.32"/><path class="cls-3" d="M138.21,363.64,131,371.23a12.83,12.83,0,0,1-18.95-.42l-7.26-8.33a13.55,13.55,0,1,1,13.66-23.41l17.15,8.33A10.33,10.33,0,0,1,138.21,363.64Z"/><path class="cls-2" d="M139.82,361.66l-7.23,7.58a12.82,12.82,0,0,1-18.94-.41l-7.26-8.33A13.55,13.55,0,1,1,120,337.09l17.16,8.32A10.34,10.34,0,0,1,139.82,361.66Z"/><path class="cls-3" d="M178.27,384.73l8.92,5.5A12.83,12.83,0,0,0,205.4,385l4.9-9.9a13.55,13.55,0,1,0-19.16-19.17l-14.47,12.42A10.33,10.33,0,0,0,178.27,384.73Z"/><path class="cls-2" d="M176.2,383.23l8.92,5.49a12.81,12.81,0,0,0,18.21-5.23l4.91-9.9a13.55,13.55,0,1,0-19.17-19.16L174.6,366.84A10.34,10.34,0,0,0,176.2,383.23Z"/><path class="cls-3" d="M98.32,436.05l-22.13,6.07a28.73,28.73,0,0,0-12.71,7.38l-7.21,7.22,28.42,3.08c4.67.45,10.21-.11,14.42-3.09l17-9.73-6.41-29.33-1.85,1.2-14.79,1L86,438.9"/><path class="cls-3" d="M202.37,436.05l22.13,6.07a28.71,28.71,0,0,1,12.72,7.38l5.56,5.57a1.11,1.11,0,0,1-.68,1.88L215,459.59c-4.67.45-9.21.1-13.43-2.88l-17-9.73,5.53-28.05,4.41,1.9,11.42-.95,1.6-1.27,7.22,20.29"/><path class="cls-2" d="M94.75,436.23,72.62,442.3a28.62,28.62,0,0,0-12.71,7.38l-7.22,7.22,29.43,2.87a22.63,22.63,0,0,0,13.42-2.88l17-9.73-4.68-28.31-18.37,1.22-7.13,19"/><path class="cls-8" d="M53.58,456.06s5.62-13.13,42-20.26"/><path class="cls-2" d="M201,436.23l22.13,6.07a28.62,28.62,0,0,1,12.71,7.38L243,456.9l-29.43,2.87a22.63,22.63,0,0,1-13.42-2.88l-17-9.73,6.17-28.28,16.59,1,7.41,19.2"/><path class="cls-8" d="M203.43,436.51s28,4.23,39.06,19.73"/></g></g></svg>