<svg xmlns="http://www.w3.org/2000/svg" viewBox="0 0 480.78 479.22"><defs><style>.cls-1{fill:#9768f2;}.cls-2{font-size:57px;font-family:MultiDisplay-Bold, Multi Display;font-weight:700;}.cls-2,.cls-6{fill:#1c1b28;}.cls-11,.cls-12,.cls-13,.cls-14,.cls-3{fill:none;}.cls-3{stroke:#9768f2;stroke-width:5px;}.cls-12,.cls-13,.cls-3{stroke-miterlimit:10;}.cls-4{fill:#fcb910;}.cls-5{fill:#e5a21a;}.cls-7{fill:#00bcbc;}.cls-15,.cls-8{fill:#009995;}.cls-9{fill:#e09e1b;}.cls-10{fill:#f95c4b;}.cls-11,.cls-12{stroke:#1c1b28;stroke-width:3px;}.cls-11,.cls-12,.cls-13,.cls-14{stroke-linecap:round;}.cls-11,.cls-14{stroke-linejoin:round;}.cls-13{stroke:#fff;}.cls-14{stroke:#f2af19;stroke-width:4px;}.cls-15{opacity:0.71;}</style></defs><g id="Capa_2" data-name="Capa 2"><g id="Capa_2-2" data-name="Capa 2"><circle class="cls-1" cx="240.39" cy="236.25" r="182.14"/><text class="cls-2" transform="translate(315.32 463.39) rotate(-22.35)">T</text><text class="cls-2" transform="translate(353.57 446.92) rotate(-31.78)">a</text><text class="cls-2" transform="matrix(0.76, -0.65, 0.65, 0.76, 387.2, 424.99)">t</text><text class="cls-2" transform="translate(413.32 402.15) rotate(-50.06)">ú</text><path class="cls-3" d="M311.62,448.4A223.5,223.5,0,0,1,240.39,460C116.83,460,16.67,359.81,16.67,236.25S116.83,12.53,240.39,12.53,464.11,112.69,464.11,236.25a222.66,222.66,0,0,1-36.94,123.19"/><circle class="cls-4" cx="240.39" cy="236.25" r="147.92"/><path class="cls-5" d="M201.76,354.17c-56.48-4.26-81.53-32.81-81.53-32.81l25.86-76.86s44.34,32.27,56.6,92.49"/><path class="cls-5" d="M287.59,356.4c-1.39-61.77,22.66-91.83,22.66-91.83l56.55,48S353,344.8,302.37,370.2"/><path class="cls-6" d="M249.59,280.07l-18.94,1.62a20,20,0,0,1-20.44-17l-2.69-20.08,27.63-1.76,14.12,24.22Z"/><path class="cls-7" d="M225.05,99.45,183.11,56.16a19.7,19.7,0,0,1,.39-27.81L212.57,0"/><path class="cls-7" d="M265.32,0l29.07,28.35a19.7,19.7,0,0,1,.4,27.81L252.85,99.45"/><path class="cls-7" d="M387.91,237.27a147.07,147.07,0,0,1-18.5,71.65q-2.81,5.06-6,9.85a31.78,31.78,0,0,1-55.49-21.15c0-.51,0-1,0-1.52a69.21,69.21,0,0,0,1.35-7.81,68.26,68.26,0,0,0,.48-8.13A69.62,69.62,0,1,0,171,287.94a66.19,66.19,0,0,0,1.48,8.5c0,.39,0,.79,0,1.18a31.78,31.78,0,0,1-55.77,20.84q-2.94-4.44-5.54-9.1a147.75,147.75,0,1,1,276.73-72.09Z"/><path class="cls-8" d="M388.86,236.19a147.07,147.07,0,0,1-18.5,71.65q-2.81,5.06-6,9.85a31.67,31.67,0,0,1-16.46,9.79q1.8-2.88,3.45-5.86A147.78,147.78,0,0,0,145.26,123.77a147.74,147.74,0,0,1,243.6,112.42Z"/><path class="cls-4" d="M225.05,99.45,228.51,59a17.53,17.53,0,0,0-.63-6.4L212.57,0l-9.45,48.94a23.08,23.08,0,0,0,2.5,15.62Z"/><path class="cls-4" d="M375.08,291.32a41.31,41.31,0,0,0-40.57.65,13.66,13.66,0,0,0-5.38-15.38l-8.87-17.72L319.5,257l-3-11.05-8.91-15.86-1.12.27c10.92-54-3.75-78.86-4.38-79.9a.3.3,0,0,1,0-.08C287.23,115.65,266.27,102.12,252,97.5a34.2,34.2,0,0,0-33,6.94c-12.71,11.1-23.52,26.19-23.52,26.19s-26.38,28-15,69.69c0,0,11.41,42.06,45.9,62,.4.23.51.76.8,1.12,27.44,34,91.07,58.27,91.07,58.27s30.82,11.16,70.75-8.9a.71.71,0,0,0,.38-.59C389.45,310,389,299,375.08,291.32Z"/><path class="cls-8" d="M372.6,290.44a41.28,41.28,0,0,0-40.57.66,13.67,13.67,0,0,0-5.39-15.38L317.78,258l-.76-1.87-3-11.05-8.91-15.87-1.13.28c10.92-54-3.74-78.87-4.37-79.91a.25.25,0,0,1,0-.07c-14.79-34.73-35.76-48.25-50.06-52.88-11.42-3.69-23.32-.18-33,6.94a103.35,103.35,0,0,0-24.19,25.89s-27,29.51-14.3,70c0,0,2.63,13.39,15.3,29.23.25.31,3.2-.15,3.46.16,7,8.4,14.42,17.47,27.68,26.72.37.26,5.3,2.43,5.59,2.79,27.44,34,86.71,60,86.71,60S346.6,332,386.52,311.9a.66.66,0,0,0,.38-.59C387,309.08,386.53,298.17,372.6,290.44Z"/><path class="cls-4" d="M376.21,290.44a41.28,41.28,0,0,0-40.57.66,13.67,13.67,0,0,0-5.39-15.38L321.39,258l-.76-1.87-3-11.05-8.91-15.87-1.13.28c10.92-54-3.74-78.87-4.37-79.91a.25.25,0,0,1,0-.07c-14.79-34.73-35.76-48.25-50.06-52.88a34.24,34.24,0,0,0-33,6.94c-12.71,11.11-23.52,26.2-23.52,26.2s-26.38,28-15,69.68c0,0,11.41,42.06,45.9,62,.39.23.51.76.79,1.11,27.45,34,91.07,58.28,91.07,58.28s30.83,11.16,70.75-8.91a.66.66,0,0,0,.38-.59C390.58,309.08,390.14,298.17,376.21,290.44Z"/><path class="cls-9" d="M374.54,290.76a41.29,41.29,0,0,0-40.56.66A13.67,13.67,0,0,0,328.59,276l-8.5-18.48L319,256.44,317.4,244l-8.79-16-.73-.09c10.92-54-4.06-77.28-4.69-78.32a.25.25,0,0,1,0-.07c-13.77-35.38-37.13-48.66-51.44-53.29-11.41-3.69-24.22-.22-33.26,7.67-7.15,6.25-12.78,13.85-17.15,19.22,4.16-4.9,9-10.77,14.76-15.81a33.58,33.58,0,0,1,32.61-7c14.31,4.63,35.28,18.15,50.06,52.87l0,.08c.63,1,15.3,25.92,4.38,79.91l1.13-.28,8.91,15.86,3,11.05.76,1.88,8.86,17.73a13.66,13.66,0,0,1,5.38,15.38,41.28,41.28,0,0,1,40.57-.66c11.84,6.56,13.93,15.42,14.26,19.31.8-.38,1.61-.76,2.42-1.17a.68.68,0,0,0,.38-.59C388.92,309.4,388.48,298.49,374.54,290.76Z"/><path class="cls-4" d="M252.85,99.45,249.38,59a17.54,17.54,0,0,1,.64-6.4L265.32,0l9.45,48.94a23.07,23.07,0,0,1-2.49,15.62Z"/><path class="cls-7" d="M224.22,103.65,219,108.82A27.39,27.39,0,0,0,215.82,144L240,178.47a8.15,8.15,0,0,0,13.82-.73l19-34.42a27.53,27.53,0,0,0-4.31-32.43l-6.6-6.83A26.48,26.48,0,0,0,224.22,103.65Z"/><path class="cls-10" d="M210.21,264.72a20,20,0,0,0,19.83,17c-5.55-18.45-15.69-19.55-20.11-19.06Z"/><path class="cls-11" d="M200.81,240.24l.89,21.38c3.68,20.35,8.2,26.38,28.52,27.09l23-3.38"/><path class="cls-8" d="M268.46,110.89l-6.6-6.83a26.48,26.48,0,0,0-37.64-.41L219,108.82a27.17,27.17,0,0,0-4.47,5.8c.3-.33.59-.67.91-1l5.23-5.17a26.46,26.46,0,0,1,37.63.42l6.61,6.82a27.53,27.53,0,0,1,4.31,32.43l-17.83,32.29a8.18,8.18,0,0,0,2.39-2.68l19-34.42A27.53,27.53,0,0,0,268.46,110.89Z"/><path class="cls-12" d="M199.41,169.42s10.19-8,21.75-3.12"/><path class="cls-12" d="M272,166.59s11.9-5.14,21.83,2.51"/><line class="cls-13" x1="222.26" y1="120.06" x2="240.08" y2="120.06"/><line class="cls-13" x1="217.27" y1="124.81" x2="235.09" y2="124.81"/><line class="cls-13" x1="219.82" y1="129.45" x2="237.64" y2="129.45"/><line class="cls-13" x1="239.13" y1="124.81" x2="244.59" y2="124.81"/><path class="cls-11" d="M308.39,228.53s14,13.55,8.08,28.28"/><path class="cls-11" d="M324.78,277.72s5.94-12.35-6.41-23.52"/><path class="cls-11" d="M326.21,272.79s11.69,5.21,10.3,17.84"/><path class="cls-14" d="M196.4,189.87s13.91-11.38,25.12,2.32"/><path class="cls-14" d="M196.89,189.9s14-7.07,24.63,2.29"/><path class="cls-12" d="M196.4,189.47s14.3-16.25,25.12,2.32"/><path class="cls-12" d="M196.4,189.47s14.3-12.39,25.12,2.32"/><path class="cls-14" d="M295.51,190.52s-13.91-11.38-25.12,2.32"/><path class="cls-14" d="M295,190.55s-14-7.07-24.63,2.29"/><path class="cls-12" d="M295.51,190.12s-14.3-16.25-25.12,2.32"/><path class="cls-12" d="M295.51,190.12s-14.3-12.39-25.12,2.32"/><path class="cls-8" d="M230.63,363.64l-7.22,7.59a12.83,12.83,0,0,1-18.95-.42l-7.26-8.33a13.55,13.55,0,1,1,13.65-23.41L228,347.4A10.32,10.32,0,0,1,230.63,363.64Z"/><path class="cls-7" d="M232.25,361.66,225,369.24a12.82,12.82,0,0,1-18.94-.41l-7.27-8.33a13.55,13.55,0,1,1,13.66-23.41l17.16,8.32A10.34,10.34,0,0,1,232.25,361.66Z"/><path class="cls-8" d="M270.69,384.73l8.92,5.5A12.84,12.84,0,0,0,297.83,385l4.9-9.9a13.55,13.55,0,1,0-19.16-19.17l-14.48,12.42A10.33,10.33,0,0,0,270.69,384.73Z"/><path class="cls-7" d="M268.63,383.23l8.92,5.49a12.81,12.81,0,0,0,18.21-5.23l4.9-9.9a13.55,13.55,0,1,0-19.16-19.16L267,366.84A10.34,10.34,0,0,0,268.63,383.23Z"/><polygon class="cls-15" points="336.64 228.19 331.44 220.43 338.53 221.31 345.64 222.36 344.02 228.19 341.85 235.95 336.64 228.19"/><polygon class="cls-15" points="336.62 267.55 331.42 259.78 338.51 260.67 345.63 261.71 344.01 267.55 341.83 275.31 336.62 267.55"/><polygon class="cls-15" points="334.29 205.2 329.65 198.27 335.98 199.07 342.32 200 340.88 205.2 338.93 212.12 334.29 205.2"/><polygon class="cls-15" points="304.36 142.17 300.34 136.17 305.82 136.86 311.32 137.66 310.07 142.17 308.39 148.17 304.36 142.17"/><polygon class="cls-15" points="319.59 176.86 314.38 169.1 321.48 169.99 328.6 171.03 326.98 176.86 324.8 184.63 319.59 176.86"/><polygon class="cls-15" points="320.38 230.25 317.57 224.51 322.29 225.77 327.01 227.13 325.37 230.93 323.18 235.98 320.38 230.25"/><polygon class="cls-15" points="351.48 259.78 347.81 252.28 352.97 254.42 358.15 256.69 356.87 261.24 355.16 267.29 351.48 259.78"/><polygon class="cls-15" points="334.71 247.87 331.91 242.13 336.63 243.39 341.35 244.75 339.71 248.55 337.52 253.6 334.71 247.87"/><polygon class="cls-15" points="351.36 277.72 348.98 272.86 352.98 273.93 356.98 275.08 355.59 278.3 353.74 282.58 351.36 277.72"/><polygon class="cls-15" points="352.88 237.15 350.07 231.41 354.79 232.67 359.51 234.03 357.88 237.83 355.69 242.88 352.88 237.15"/><polygon class="cls-15" points="348.67 213.61 346.61 209.4 350.07 210.32 353.54 211.32 352.34 214.11 350.73 217.81 348.67 213.61"/><polygon class="cls-15" points="318.83 192.79 316.77 188.58 320.23 189.5 323.69 190.5 322.5 193.29 320.89 196.99 318.83 192.79"/><polygon class="cls-15" points="311.76 158.64 309.7 154.43 313.16 155.35 316.62 156.35 315.42 159.13 313.81 162.84 311.76 158.64"/><polygon class="cls-15" points="296.96 129.45 295.51 126.49 297.94 127.14 300.37 127.84 299.53 129.8 298.4 132.4 296.96 129.45"/><polygon class="cls-15" points="316.95 147.23 315.5 144.28 317.93 144.93 320.36 145.63 319.52 147.58 318.39 150.18 316.95 147.23"/><polygon class="cls-15" points="319.58 209.46 316.77 203.72 321.49 204.98 326.21 206.34 324.57 210.14 322.38 215.19 319.58 209.46"/><polygon class="cls-15" points="331.31 190.19 329.48 186.45 332.56 187.27 335.63 188.16 334.57 190.63 333.14 193.93 331.31 190.19"/><polygon class="cls-15" points="334.39 170.81 332.56 167.07 335.63 167.89 338.71 168.78 337.65 171.26 336.22 174.55 334.39 170.81"/><polygon class="cls-15" points="339.43 186.09 336.63 180.35 341.35 181.61 346.06 182.97 344.43 186.77 342.24 191.82 339.43 186.09"/><polygon class="cls-15" points="324.3 159.41 321.49 153.68 326.21 154.94 330.93 156.3 329.29 160.09 327.1 165.14 324.3 159.41"/><polygon class="cls-15" points="124.68 221.87 127.89 213.09 121.21 215.64 114.55 218.34 117.51 223.62 121.47 230.64 124.68 221.87"/><polygon class="cls-15" points="124.62 261.42 128.18 252.78 121.4 255.06 114.64 257.49 117.38 262.89 121.06 270.06 124.62 261.42"/><polygon class="cls-15" points="116.98 291.41 119.92 284.28 114.33 286.16 108.74 288.17 111.01 292.62 114.04 298.55 116.98 291.41"/><polygon class="cls-15" points="125.71 200.57 129.58 193.19 123.38 194.66 117.17 196.27 119.16 201.28 121.84 207.96 125.71 200.57"/><polygon class="cls-15" points="156.38 136.99 160.4 130.99 154.91 131.68 149.42 132.48 150.67 136.99 152.35 142.99 156.38 136.99"/><polygon class="cls-15" points="141.15 171.68 146.35 163.92 139.26 164.81 132.14 165.85 133.76 171.69 135.94 179.45 141.15 171.68"/><polygon class="cls-15" points="140.36 225.07 143.17 219.34 138.45 220.59 133.73 221.95 135.37 225.75 137.56 230.8 140.36 225.07"/><polygon class="cls-15" points="109.26 254.6 112.93 247.09 107.77 249.24 102.59 251.51 103.87 256.06 105.58 262.11 109.26 254.6"/><polygon class="cls-15" points="126.02 242.69 128.83 236.96 124.11 238.21 119.39 239.57 121.03 243.37 123.22 248.42 126.02 242.69"/><polygon class="cls-15" points="109.38 272.54 111.76 267.68 107.76 268.75 103.76 269.9 105.14 273.12 107 277.4 109.38 272.54"/><polygon class="cls-15" points="107.86 231.97 110.66 226.23 105.95 227.49 101.23 228.85 102.86 232.65 105.05 237.7 107.86 231.97"/><polygon class="cls-15" points="112.07 208.43 114.13 204.22 110.66 205.14 107.2 206.14 108.4 208.93 110.01 212.63 112.07 208.43"/><polygon class="cls-15" points="141.91 187.61 143.97 183.41 140.5 184.32 137.04 185.32 138.24 188.11 139.85 191.81 141.91 187.61"/><polygon class="cls-15" points="148.98 153.46 151.04 149.25 147.58 150.17 144.12 151.17 145.32 153.96 146.92 157.66 148.98 153.46"/><polygon class="cls-15" points="163.78 124.27 165.23 121.31 162.8 121.96 160.37 122.66 161.21 124.62 162.34 127.22 163.78 124.27"/><polygon class="cls-15" points="108.75 192.44 110.19 189.49 107.76 190.13 105.33 190.83 106.17 192.79 107.3 195.39 108.75 192.44"/><polygon class="cls-15" points="102.35 217.43 103.14 214.24 100.9 215.39 98.67 216.59 99.91 218.32 101.56 220.62 102.35 217.43"/><polygon class="cls-15" points="117.44 277.72 118.23 274.53 115.99 275.68 113.76 276.88 115 278.61 116.66 280.92 117.44 277.72"/><polygon class="cls-15" points="143.79 142.05 145.24 139.1 142.81 139.75 140.38 140.45 141.22 142.4 142.34 145 143.79 142.05"/><polygon class="cls-15" points="141.16 204.28 143.97 198.55 139.25 199.8 134.53 201.16 136.16 204.96 138.35 210.01 141.16 204.28"/><polygon class="cls-15" points="129.43 185.01 131.26 181.27 128.18 182.09 125.1 182.98 126.17 185.46 127.6 188.75 129.43 185.01"/><polygon class="cls-15" points="126.35 165.63 128.18 161.89 125.1 162.71 122.03 163.6 123.09 166.08 124.52 169.37 126.35 165.63"/><polygon class="cls-15" points="121.3 180.91 124.11 175.18 119.39 176.43 114.67 177.79 116.31 181.59 118.5 186.64 121.3 180.91"/><polygon class="cls-15" points="136.44 154.23 139.25 148.5 134.53 149.75 129.81 151.12 131.44 154.91 133.63 159.96 136.44 154.23"/></g></g></svg>