<svg xmlns="http://www.w3.org/2000/svg" viewBox="0 0 480.78 479.85"><defs><style>.cls-1,.cls-2{fill:#1c1b28;}.cls-2{font-size:57px;font-family:MultiDisplay-Bold, Multi Display;font-weight:700;}.cls-10,.cls-11,.cls-12,.cls-13,.cls-14,.cls-3,.cls-9{fill:none;}.cls-10,.cls-3,.cls-9{stroke:#1c1b28;}.cls-10,.cls-11,.cls-3{stroke-miterlimit:10;}.cls-3{stroke-width:5px;}.cls-4{fill:#fcb910;}.cls-5{fill:#e5a21a;}.cls-6{fill:#00bcbc;}.cls-15,.cls-7{fill:#009995;}.cls-8{fill:#f95c4b;}.cls-10,.cls-11,.cls-12,.cls-13,.cls-14,.cls-9{stroke-linecap:round;}.cls-12,.cls-13,.cls-14,.cls-9{stroke-linejoin:round;}.cls-10,.cls-12,.cls-13,.cls-9{stroke-width:3px;}.cls-11{stroke:#fff;}.cls-12{stroke:#009995;}.cls-13{stroke:#e09e1b;}.cls-14{stroke:#f2af19;stroke-width:4px;}.cls-15{opacity:0.71;}.cls-16{fill:#e09e1b;}</style></defs><g id="Capa_2" data-name="Capa 2"><g id="Capa_2-2" data-name="Capa 2"><circle class="cls-1" cx="240.39" cy="236.88" r="182.14"/><text class="cls-2" transform="translate(315.32 464.02) rotate(-22.35)">T</text><text class="cls-2" transform="translate(353.57 447.55) rotate(-31.78)">a</text><text class="cls-2" transform="matrix(0.76, -0.65, 0.65, 0.76, 387.2, 425.61)">t</text><text class="cls-2" transform="translate(413.32 402.77) rotate(-50.06)">ú</text><path class="cls-3" d="M311.62,449a223.5,223.5,0,0,1-71.23,11.58c-123.56,0-223.72-100.16-223.72-223.72S116.83,13.15,240.39,13.15,464.11,113.32,464.11,236.88a222.68,222.68,0,0,1-36.94,123.19"/><circle class="cls-4" cx="240.39" cy="236.88" r="147.92"/><path class="cls-5" d="M202,354.17c-56.47-4.26-81.52-32.81-81.52-32.81l25.86-76.86s44.34,32.27,56.59,92.49"/><path class="cls-5" d="M287.82,356.4c-1.4-61.77,22.66-91.83,22.66-91.83l56.55,48S353.22,344.8,302.6,370.2"/><path class="cls-1" d="M249.82,280.07l-18.94,1.62a20,20,0,0,1-20.44-17l-2.7-20.08,27.64-1.76L249.5,267.1Z"/><path class="cls-6" d="M225.28,99.45,183.34,56.16a19.69,19.69,0,0,1,.39-27.81L212.8,0"/><path class="cls-6" d="M265.55,0l29.07,28.35a19.7,19.7,0,0,1,.4,27.81L253.07,99.45"/><path class="cls-6" d="M388.14,237.8a147.07,147.07,0,0,1-18.5,71.65q-2.81,5.06-6,9.85a31.78,31.78,0,0,1-55.49-21.15c0-.51,0-1,0-1.52a69.21,69.21,0,0,0,1.35-7.81,68.26,68.26,0,0,0,.48-8.13,69.62,69.62,0,1,0-138.8,7.78,66.19,66.19,0,0,0,1.48,8.5c0,.39,0,.79,0,1.18A31.78,31.78,0,0,1,117,319q-2.94-4.44-5.54-9.1A147.75,147.75,0,1,1,388.14,237.8Z"/><path class="cls-7" d="M389.08,236.19a147,147,0,0,1-18.5,71.65q-2.81,5.06-6,9.85a31.68,31.68,0,0,1-16.45,9.79q1.78-2.88,3.44-5.86A147.78,147.78,0,0,0,145.48,123.77a147.74,147.74,0,0,1,243.6,112.42Z"/><path class="cls-4" d="M225.28,99.45,228.74,59a17.53,17.53,0,0,0-.63-6.4L212.8,0l-9.45,48.94a23.08,23.08,0,0,0,2.5,15.62Z"/><path class="cls-4" d="M375.31,291.32a41.31,41.31,0,0,0-40.57.65,13.67,13.67,0,0,0-5.38-15.38l-8.87-17.72-.76-1.88-3-11.05-8.91-15.86-1.13.27c10.93-54-3.74-78.86-4.37-79.9a.3.3,0,0,1,0-.08c-14.79-34.72-35.75-48.25-50.06-52.87a34.2,34.2,0,0,0-33,6.94c-12.71,11.1-23.53,26.19-23.53,26.19s-26.37,28-15,69.69c0,0,11.41,42.06,45.9,62,.39.23.51.76.8,1.12,27.44,34,91.07,58.27,91.07,58.27s30.82,11.16,70.75-8.9a.71.71,0,0,0,.38-.59C389.68,310,389.24,299,375.31,291.32Z"/><path class="cls-7" d="M372.82,290.44a41.27,41.27,0,0,0-40.56.66,13.67,13.67,0,0,0-5.39-15.38L318,258l-.76-1.87-3-11.05-8.91-15.87-1.13.28c10.92-54-3.74-78.87-4.38-79.91a.25.25,0,0,0,0-.07c-14.78-34.73-35.75-48.25-50-52.88-11.42-3.69-23.32-.18-33,6.94a103.35,103.35,0,0,0-24.19,25.89s-27,29.51-14.3,70c0,0,2.63,13.39,15.3,29.23.24.31,3.2-.15,3.46.16,7,8.4,14.42,17.47,27.68,26.72.37.26,5.3,2.43,5.58,2.79,27.45,34,86.72,60,86.72,60s29.85,13.63,69.77-6.44a.7.7,0,0,0,.38-.59C387.2,309.08,386.76,298.17,372.82,290.44Z"/><path class="cls-4" d="M376.53,291a41.28,41.28,0,0,0-40.57.66,13.66,13.66,0,0,0-5.38-15.38l-8.87-17.73L321,256.7l-3-11L309,229.79l-1.13.28c10.93-54-3.74-78.87-4.37-79.91a.25.25,0,0,1,0-.07c-14.79-34.73-35.75-48.25-50.06-52.88a34.22,34.22,0,0,0-33,6.94c-12.71,11.1-23.53,26.2-23.53,26.2s-26.37,28-15,69.68c0,0,11.41,42.06,45.9,62,.4.23.51.75.8,1.11,27.44,34,91.07,58.28,91.07,58.28s30.82,11.16,70.75-8.91a.7.7,0,0,0,.38-.59C390.9,309.67,390.46,298.76,376.53,291Z"/><path class="cls-4" d="M253.07,99.45,249.61,59a17.54,17.54,0,0,1,.64-6.4L265.55,0,275,48.94a23.08,23.08,0,0,1-2.5,15.62Z"/><path class="cls-6" d="M224.45,103.65l-5.23,5.17A27.38,27.38,0,0,0,216.05,144l24.13,34.47a8.15,8.15,0,0,0,13.82-.73l19-34.42a27.53,27.53,0,0,0-4.31-32.43l-6.6-6.83A26.48,26.48,0,0,0,224.45,103.65Z"/><path class="cls-8" d="M210.44,264.72a20,20,0,0,0,19.82,17c-5.54-18.45-15.69-19.55-20.1-19.06Z"/><path class="cls-9" d="M201,240.24l.89,21.38c3.68,20.35,8.2,26.38,28.52,27.09l23-3.38"/><path class="cls-7" d="M268.69,110.89l-6.6-6.83a26.48,26.48,0,0,0-37.64-.41l-5.23,5.17a27.17,27.17,0,0,0-4.47,5.8c.3-.33.59-.67.91-1l5.23-5.17a26.46,26.46,0,0,1,37.63.42l6.6,6.82a27.52,27.52,0,0,1,4.32,32.43l-17.83,32.29a8.18,8.18,0,0,0,2.39-2.68l19-34.42A27.53,27.53,0,0,0,268.69,110.89Z"/><path class="cls-10" d="M199.64,169.42s10.19-8,21.75-3.12"/><path class="cls-10" d="M272.26,166.59s11.9-5.14,21.83,2.51"/><line class="cls-11" x1="222.49" y1="120.06" x2="240.31" y2="120.06"/><line class="cls-11" x1="217.5" y1="124.81" x2="235.32" y2="124.81"/><line class="cls-11" x1="220.05" y1="129.45" x2="237.87" y2="129.45"/><line class="cls-11" x1="239.36" y1="124.81" x2="244.82" y2="124.81"/><path class="cls-12" d="M308.61,226.74s16.08,10.77,10.38,29.53"/><path class="cls-12" d="M316.72,248.87s15.62,9.49,9.93,28.25"/><path class="cls-12" d="M326.65,270.63s12.77,3.42,11.7,19.27"/><path class="cls-13" d="M325,277.72s5.94-12.35-6.42-23.52"/><path class="cls-13" d="M326.44,272.79s11.69,5.21,10.3,17.84"/><path class="cls-14" d="M196.62,189.87s13.92-11.38,25.13,2.32"/><path class="cls-14" d="M197.12,189.9s14-7.07,24.63,2.29"/><path class="cls-10" d="M196.62,189.47s14.31-16.25,25.13,2.32"/><path class="cls-10" d="M196.62,189.47s14.31-12.39,25.13,2.32"/><path class="cls-14" d="M295.74,190.52s-13.91-11.38-25.12,2.32"/><path class="cls-14" d="M295.25,190.55s-14-7.07-24.63,2.29"/><path class="cls-10" d="M295.74,190.12s-14.3-16.25-25.12,2.32"/><path class="cls-10" d="M295.74,190.12s-14.3-12.39-25.12,2.32"/><path class="cls-7" d="M230.86,363.64l-7.22,7.59a12.83,12.83,0,0,1-18.95-.42l-7.26-8.33a13.55,13.55,0,1,1,13.65-23.41l17.16,8.33A10.32,10.32,0,0,1,230.86,363.64Z"/><path class="cls-6" d="M232.48,361.66l-7.23,7.58a12.82,12.82,0,0,1-18.94-.41L199,360.5a13.55,13.55,0,1,1,13.66-23.41l17.16,8.32A10.34,10.34,0,0,1,232.48,361.66Z"/><path class="cls-7" d="M270.92,384.73l8.92,5.5A12.84,12.84,0,0,0,298.06,385l4.9-9.9a13.56,13.56,0,1,0-19.17-19.17l-14.47,12.42A10.33,10.33,0,0,0,270.92,384.73Z"/><path class="cls-6" d="M268.85,383.23l8.92,5.49A12.82,12.82,0,0,0,296,383.49l4.9-9.9a13.55,13.55,0,1,0-19.16-19.16l-14.47,12.41A10.34,10.34,0,0,0,268.85,383.23Z"/><polygon class="cls-15" points="336.87 228.19 331.66 220.43 338.76 221.31 345.87 222.36 344.25 228.19 342.07 235.95 336.87 228.19"/><polygon class="cls-15" points="336.85 267.55 331.65 259.78 338.74 260.67 345.86 261.71 344.24 267.55 342.06 275.31 336.85 267.55"/><polygon class="cls-15" points="334.52 205.2 329.88 198.27 336.2 199.07 342.55 200 341.11 205.2 339.16 212.12 334.52 205.2"/><polygon class="cls-15" points="304.59 142.17 300.57 136.17 306.05 136.86 311.55 137.66 310.3 142.17 308.61 148.17 304.59 142.17"/><polygon class="cls-15" points="319.82 176.86 314.61 169.1 321.71 169.99 328.82 171.03 327.2 176.86 325.02 184.63 319.82 176.86"/><polygon class="cls-15" points="320.61 230.25 317.8 224.51 322.52 225.77 327.23 227.13 325.6 230.93 323.41 235.98 320.61 230.25"/><polygon class="cls-15" points="351.71 259.78 348.03 252.28 353.2 254.42 358.38 256.69 357.1 261.24 355.39 267.29 351.71 259.78"/><polygon class="cls-15" points="334.94 247.87 332.14 242.13 336.86 243.39 341.57 244.75 339.94 248.55 337.75 253.6 334.94 247.87"/><polygon class="cls-15" points="351.58 277.72 349.2 272.86 353.2 273.93 357.21 275.08 355.82 278.3 353.96 282.58 351.58 277.72"/><polygon class="cls-15" points="353.11 237.15 350.3 231.41 355.02 232.67 359.74 234.03 358.11 237.83 355.92 242.88 353.11 237.15"/><polygon class="cls-15" points="348.9 213.61 346.84 209.4 350.3 210.32 353.76 211.32 352.56 214.11 350.96 217.81 348.9 213.61"/><polygon class="cls-15" points="319.06 192.79 317 188.58 320.46 189.5 323.92 190.5 322.72 193.29 321.12 196.99 319.06 192.79"/><polygon class="cls-15" points="311.99 158.64 309.93 154.43 313.39 155.35 316.85 156.35 315.65 159.13 314.04 162.84 311.99 158.64"/><polygon class="cls-15" points="297.18 129.45 295.74 126.49 298.17 127.14 300.6 127.84 299.76 129.8 298.63 132.4 297.18 129.45"/><polygon class="cls-15" points="317.18 147.23 315.73 144.28 318.16 144.93 320.59 145.63 319.75 147.58 318.62 150.18 317.18 147.23"/><polygon class="cls-15" points="319.81 209.46 317 203.72 321.72 204.98 326.44 206.34 324.8 210.14 322.61 215.19 319.81 209.46"/><polygon class="cls-15" points="331.54 190.19 329.71 186.45 332.78 187.27 335.86 188.16 334.8 190.63 333.37 193.93 331.54 190.19"/><polygon class="cls-15" points="334.62 170.81 332.78 167.07 335.86 167.89 338.94 168.78 337.88 171.26 336.45 174.55 334.62 170.81"/><polygon class="cls-15" points="339.66 186.09 336.86 180.35 341.57 181.61 346.29 182.97 344.66 186.77 342.47 191.82 339.66 186.09"/><polygon class="cls-15" points="324.52 159.41 321.72 153.68 326.44 154.94 331.15 156.3 329.52 160.09 327.33 165.14 324.52 159.41"/><polygon class="cls-15" points="124.91 221.87 128.12 213.09 121.44 215.64 114.78 218.34 117.73 223.62 121.69 230.64 124.91 221.87"/><polygon class="cls-15" points="124.85 261.42 128.41 252.78 121.63 255.06 114.86 257.49 117.61 262.89 121.29 270.06 124.85 261.42"/><polygon class="cls-15" points="117.21 291.41 120.15 284.28 114.56 286.16 108.97 288.17 111.24 292.62 114.27 298.55 117.21 291.41"/><polygon class="cls-15" points="125.94 200.57 129.81 193.19 123.61 194.66 117.4 196.27 119.39 201.28 122.07 207.96 125.94 200.57"/><polygon class="cls-15" points="156.6 136.99 160.63 130.99 155.14 131.68 149.64 132.48 150.9 136.99 152.58 142.99 156.6 136.99"/><polygon class="cls-15" points="141.38 171.68 146.58 163.92 139.49 164.81 132.37 165.85 133.99 171.69 136.17 179.45 141.38 171.68"/><polygon class="cls-15" points="140.59 225.07 143.4 219.34 138.68 220.59 133.96 221.95 135.59 225.75 137.78 230.8 140.59 225.07"/><polygon class="cls-15" points="109.48 254.6 113.16 247.09 108 249.24 102.82 251.51 104.09 256.06 105.81 262.11 109.48 254.6"/><polygon class="cls-15" points="126.25 242.69 129.06 236.96 124.34 238.21 119.62 239.57 121.25 243.37 123.44 248.42 126.25 242.69"/><polygon class="cls-15" points="109.61 272.54 111.99 267.68 107.99 268.75 103.99 269.9 105.37 273.12 107.23 277.4 109.61 272.54"/><polygon class="cls-15" points="108.09 231.97 110.89 226.23 106.17 227.49 101.46 228.85 103.09 232.65 105.28 237.7 108.09 231.97"/><polygon class="cls-15" points="112.29 208.43 114.35 204.22 110.89 205.14 107.43 206.14 108.63 208.93 110.24 212.63 112.29 208.43"/><polygon class="cls-15" points="142.14 187.61 144.19 183.41 140.73 184.32 137.27 185.32 138.47 188.11 140.08 191.81 142.14 187.61"/><polygon class="cls-15" points="149.21 153.46 151.27 149.25 147.81 150.17 144.35 151.17 145.54 153.96 147.15 157.66 149.21 153.46"/><polygon class="cls-15" points="164.01 124.27 165.46 121.31 163.03 121.96 160.59 122.66 161.44 124.62 162.56 127.22 164.01 124.27"/><polygon class="cls-15" points="108.97 192.44 110.42 189.49 107.99 190.13 105.56 190.83 106.4 192.79 107.53 195.39 108.97 192.44"/><polygon class="cls-15" points="102.58 217.43 103.36 214.24 101.13 215.39 98.9 216.59 100.14 218.32 101.79 220.62 102.58 217.43"/><polygon class="cls-15" points="117.67 277.72 118.45 274.53 116.22 275.68 113.99 276.88 115.23 278.61 116.89 280.92 117.67 277.72"/><polygon class="cls-15" points="144.02 142.05 145.46 139.1 143.03 139.75 140.6 140.45 141.44 142.4 142.57 145 144.02 142.05"/><polygon class="cls-15" points="141.39 204.28 144.19 198.55 139.48 199.8 134.76 201.16 136.39 204.96 138.58 210.01 141.39 204.28"/><polygon class="cls-15" points="129.66 185.01 131.49 181.27 128.41 182.09 125.33 182.98 126.4 185.46 127.83 188.75 129.66 185.01"/><polygon class="cls-15" points="126.58 165.63 128.41 161.89 125.33 162.71 122.25 163.6 123.32 166.08 124.75 169.37 126.58 165.63"/><polygon class="cls-15" points="121.53 180.91 124.34 175.18 119.62 176.43 114.9 177.79 116.54 181.59 118.73 186.64 121.53 180.91"/><polygon class="cls-15" points="136.67 154.23 139.48 148.5 134.76 149.75 130.04 151.12 131.67 154.91 133.86 159.96 136.67 154.23"/><path class="cls-16" d="M374.77,290.76a41.17,41.17,0,0,0-38.17-.62c-1,.47-1.26-.51-1.15-1.56.82-7.57-5.09-11.47-6.36-12.36a1.26,1.26,0,0,1-.42-.52L321.62,258c-.07-.14-1.35-.48-1.47-.6l-.63-.63a1.34,1.34,0,0,1-.38-.77l-1.48-11.79a1.38,1.38,0,0,0-.16-.47L308.84,228l-.74-.09c10.93-54-4.05-77.28-4.69-78.32l0-.07c-13.76-35.38-37.12-48.66-51.43-53.29-11.42-3.69-24.22-.22-33.26,7.67-7.15,6.25-12.79,13.85-17.15,19.22,4.16-4.9,9-10.77,14.76-15.81a33.58,33.58,0,0,1,32.61-7c14.3,4.62,35.24,18.13,50,52.8l.11.22c1,1.77,16.21,26.44,5.46,79.56h0s12.51,8.65,10.83,23.33c-.14,1.17,1.22,1,1.54,2.1,0,0,9.91,2.38,7,18.57a2.32,2.32,0,0,0,1.14,2.37c2.81.45,9.12,3.74,6.94,12.9a1.31,1.31,0,0,0,1.9,1.35,41.17,41.17,0,0,1,38.17.62c10.32,5.72,13.24,13.19,14,17.59a1.32,1.32,0,0,0,1.87.94l0,0a2,2,0,0,0,1.12-1.89C388.92,307.22,387.29,297.71,374.77,290.76Z"/><path class="cls-13" d="M307.57,228s15.06,14.07,9.12,28.8"/></g></g></svg>