<svg xmlns="http://www.w3.org/2000/svg" viewBox="0 0 298.19 480.95"><defs><style>.cls-1{fill:#e5e5e5;}.cls-2{fill:#00bcbc;}.cls-16,.cls-3{fill:#009995;}.cls-4{fill:#fcb910;}.cls-5{fill:#e5a21a;}.cls-6{fill:#1c1b28;}.cls-10,.cls-11,.cls-12,.cls-13,.cls-14,.cls-15,.cls-7,.cls-9{fill:none;stroke-linecap:round;}.cls-7{stroke:#e5a21a;}.cls-12,.cls-13,.cls-14,.cls-15,.cls-7,.cls-9{stroke-linejoin:round;}.cls-10,.cls-12,.cls-13,.cls-7,.cls-9{stroke-width:3px;}.cls-8{fill:#f95c4b;}.cls-10,.cls-9{stroke:#1c1b28;}.cls-10,.cls-11{stroke-miterlimit:10;}.cls-11{stroke:#fff;}.cls-12,.cls-15{stroke:#009995;}.cls-13{stroke:#e09e1b;}.cls-14{stroke:#f2af19;stroke-width:4px;}.cls-15{stroke-width:2px;}.cls-16{opacity:0.71;}.cls-17{fill:#e09e1b;}</style></defs><g id="Capa_2" data-name="Capa 2"><g id="Capa_2-2" data-name="Capa 2"><ellipse class="cls-1" cx="146.87" cy="455.29" rx="100.75" ry="25.66"/><path class="cls-2" d="M112.66,416c7.08,7.32,19.22,11.78,33.67,12.4a44.36,44.36,0,0,1-11.09,11.84s33.78.24,46.86-21.1a23.08,23.08,0,0,0,3.27-2.9l5.35-14.85L185,374.44l-60.24-5.17L103,395.11Z"/><path class="cls-3" d="M185,374.44l-2.44-.21,5.2,24.53-5.35,14.85a22.48,22.48,0,0,1-3.27,2.9c-9.47,15.46-29.79,19.59-40.28,20.7a45.81,45.81,0,0,1-3.64,3s33.78.24,46.86-21.1a23.08,23.08,0,0,0,3.27-2.9l5.35-14.85Z"/><path class="cls-4" d="M45,334.77s3.59,63.17,45.54,86.06l15.83-.95,26.33-17.57,13.92,4.5,17.11-5.45,25.57,17.52,16.59,1c29-22.34,40.89-70.34,40.89-70.34l15.56-78.41-84.59-66.77L95.08,206,46.84,269.7Z"/><path class="cls-5" d="M109.33,354.17c-56.48-4.26-81.53-32.81-81.53-32.81L53.66,244.5S98,276.77,110.26,337"/><path class="cls-5" d="M195.17,356.4c-1.4-61.77,22.66-91.83,22.66-91.83l56.54,48s-13.8,32.26-64.43,57.66"/><path class="cls-6" d="M157.16,280.07l-18.94,1.62a20,20,0,0,1-20.44-17l-2.69-20.08,27.63-1.76,14.13,24.22Z"/><path class="cls-2" d="M132.62,99.45,90.68,56.16a19.7,19.7,0,0,1,.39-27.81L120.15,0"/><path class="cls-2" d="M172.89,0,202,28.35a19.7,19.7,0,0,1,.39,27.81L160.42,99.45"/><path class="cls-2" d="M295.48,237.8A147.07,147.07,0,0,1,277,309.45q-2.81,5.06-6,9.85a31.78,31.78,0,0,1-55.49-21.15c0-.51,0-1,0-1.52a69.21,69.21,0,0,0,1.35-7.81,68.26,68.26,0,0,0,.48-8.13,69.62,69.62,0,1,0-138.8,7.78A66.19,66.19,0,0,0,80,297c0,.39,0,.79,0,1.18A31.78,31.78,0,0,1,24.29,319q-2.94-4.44-5.54-9.1A147.75,147.75,0,1,1,295.48,237.8Z"/><path class="cls-3" d="M296.43,236.19a147.07,147.07,0,0,1-18.5,71.65q-2.81,5.06-6,9.85a31.67,31.67,0,0,1-16.46,9.79q1.8-2.88,3.45-5.86A147.78,147.78,0,0,0,52.83,123.77a147.74,147.74,0,0,1,243.6,112.42Z"/><path class="cls-4" d="M132.62,99.45,136.08,59a17.53,17.53,0,0,0-.63-6.4L120.15,0l-9.46,48.94a23.14,23.14,0,0,0,2.5,15.62Z"/><path class="cls-4" d="M282.65,291.32a41.29,41.29,0,0,0-40.56.65,13.67,13.67,0,0,0-5.39-15.38l-8.86-17.72-.76-1.88-3-11.05-8.91-15.86-1.13.27c10.92-54-3.75-78.86-4.38-79.9,0,0,0,0,0-.08-14.78-34.72-35.75-48.25-50.06-52.87a34.21,34.21,0,0,0-33,6.94C113.85,115.54,103,130.63,103,130.63s-26.38,28-15,69.69c0,0,11.4,42.06,45.89,62,.4.23.51.76.8,1.12,27.45,34,91.07,58.27,91.07,58.27s30.82,11.16,70.75-8.9a.71.71,0,0,0,.38-.59C297,310,296.58,299,282.65,291.32Z"/><path class="cls-3" d="M280.17,290.44a41.28,41.28,0,0,0-40.57.66,13.67,13.67,0,0,0-5.38-15.38L225.35,258l-.76-1.87-3-11.05-8.91-15.87-1.13.28c10.93-54-3.74-78.87-4.37-79.91a.25.25,0,0,1,0-.07c-14.79-34.73-35.75-48.25-50.06-52.88-11.42-3.69-23.32-.18-33,6.94a103.5,103.5,0,0,0-24.2,25.89s-27,29.51-14.3,70c0,0,2.63,13.39,15.3,29.23.25.31,3.2-.15,3.46.16,7,8.4,14.42,17.47,27.68,26.72.38.26,5.3,2.43,5.59,2.79,27.44,34,86.72,60,86.72,60s29.84,13.63,69.76-6.44a.69.69,0,0,0,.39-.59C294.54,309.08,294.1,298.17,280.17,290.44Z"/><path class="cls-4" d="M283.87,291a41.26,41.26,0,0,0-40.56.66,13.67,13.67,0,0,0-5.39-15.38l-8.86-17.73-.76-1.88-3-11-8.91-15.87-1.13.28c10.92-54-3.75-78.87-4.38-79.91l0-.07c-14.78-34.73-35.75-48.25-50.06-52.88a34.23,34.23,0,0,0-33,6.94c-12.71,11.1-23.52,26.2-23.52,26.2s-26.38,28-15,69.68c0,0,11.4,42.06,45.9,62,.39.23.5.75.79,1.11,27.45,34,91.07,58.28,91.07,58.28s30.82,11.16,70.75-8.91a.7.7,0,0,0,.38-.59C298.24,309.67,297.8,298.76,283.87,291Z"/><path class="cls-4" d="M160.42,99.45,157,59a17.53,17.53,0,0,1,.63-6.4L172.89,0l9.46,48.94a23.14,23.14,0,0,1-2.5,15.62Z"/><path class="cls-2" d="M131.79,103.65l-5.22,5.17A27.39,27.39,0,0,0,123.39,144l24.13,34.47a8.15,8.15,0,0,0,13.82-.73l19-34.42A27.5,27.5,0,0,0,176,110.89l-6.6-6.83A26.48,26.48,0,0,0,131.79,103.65Z"/><path class="cls-7" d="M117.41,392.79l15.31,9.52c9.35,5.45,16.32,5.36,23.78,1.71l18.66-10.52"/><path class="cls-8" d="M117.78,264.72a20,20,0,0,0,19.83,17c-5.54-18.45-15.69-19.55-20.11-19.06Z"/><path class="cls-9" d="M108.38,240.24l.89,21.38C113,282,117.47,288,137.79,288.71l23-3.38"/><path class="cls-3" d="M176,110.89l-6.6-6.83a26.48,26.48,0,0,0-37.64-.41l-5.22,5.17a27.22,27.22,0,0,0-4.48,5.8c.31-.33.59-.67.91-1l5.23-5.17a26.46,26.46,0,0,1,37.63.42l6.61,6.82a27.53,27.53,0,0,1,4.31,32.43L159,180.42a8.07,8.07,0,0,0,2.39-2.68l19-34.42A27.5,27.5,0,0,0,176,110.89Z"/><path class="cls-10" d="M107,169.42s10.2-8,21.75-3.12"/><path class="cls-10" d="M179.61,166.59s11.89-5.14,21.83,2.51"/><line class="cls-11" x1="129.83" y1="120.06" x2="147.65" y2="120.06"/><line class="cls-11" x1="124.84" y1="124.81" x2="142.66" y2="124.81"/><line class="cls-11" x1="127.39" y1="129.45" x2="145.22" y2="129.45"/><line class="cls-11" x1="146.7" y1="124.81" x2="152.17" y2="124.81"/><path class="cls-12" d="M216,226.74s16.07,10.77,10.38,29.53"/><path class="cls-12" d="M224.06,248.87s15.62,9.49,9.93,28.25"/><path class="cls-12" d="M234,270.63s12.77,3.42,11.7,19.27"/><path class="cls-13" d="M232.35,277.72s5.94-12.35-6.41-23.52"/><path class="cls-13" d="M233.78,272.79s11.7,5.21,10.3,17.84"/><path class="cls-14" d="M104,189.87s13.91-11.38,25.12,2.32"/><path class="cls-14" d="M104.46,189.9s14-7.07,24.63,2.29"/><path class="cls-10" d="M104,189.47s14.3-16.25,25.12,2.32"/><path class="cls-10" d="M104,189.47s14.3-12.39,25.12,2.32"/><path class="cls-14" d="M203.08,190.52s-13.91-11.38-25.12,2.32"/><path class="cls-14" d="M202.59,190.55s-14-7.07-24.63,2.29"/><path class="cls-10" d="M203.08,190.12s-14.3-16.25-25.12,2.32"/><path class="cls-10" d="M203.08,190.12s-14.3-12.39-25.12,2.32"/><path class="cls-3" d="M138.21,363.64,131,371.23a12.83,12.83,0,0,1-18.95-.42l-7.26-8.33a13.55,13.55,0,1,1,13.66-23.41l17.15,8.33A10.33,10.33,0,0,1,138.21,363.64Z"/><path class="cls-2" d="M139.82,361.66l-7.23,7.58a12.82,12.82,0,0,1-18.94-.41l-7.26-8.33A13.55,13.55,0,1,1,120,337.09l17.16,8.32A10.34,10.34,0,0,1,139.82,361.66Z"/><path class="cls-3" d="M178.27,384.73l8.92,5.5A12.83,12.83,0,0,0,205.4,385l4.9-9.9a13.55,13.55,0,1,0-19.16-19.17l-14.47,12.42A10.33,10.33,0,0,0,178.27,384.73Z"/><path class="cls-2" d="M176.2,383.23l8.92,5.49a12.81,12.81,0,0,0,18.21-5.23l4.91-9.9a13.55,13.55,0,1,0-19.17-19.16L174.6,366.84A10.34,10.34,0,0,0,176.2,383.23Z"/><path class="cls-3" d="M98.32,436.05l-22.13,6.07a28.73,28.73,0,0,0-12.71,7.38l-7.21,7.22,28.42,3.08c4.67.45,10.21-.11,14.42-3.09l17-9.73-6.41-29.33-1.85,1.2-14.79,1L86,438.9"/><path class="cls-3" d="M202.37,436.05l22.13,6.07a28.71,28.71,0,0,1,12.72,7.38l5.56,5.57a1.11,1.11,0,0,1-.68,1.88L215,459.59c-4.67.45-9.21.1-13.43-2.88l-17-9.73,5.53-28.05,4.41,1.9,11.42-.95,1.6-1.27,7.22,20.29"/><path class="cls-2" d="M94.75,436.23,72.62,442.3a28.62,28.62,0,0,0-12.71,7.38l-7.22,7.22,29.43,2.87a22.63,22.63,0,0,0,13.42-2.88l17-9.73-4.68-28.31-18.37,1.22-7.13,19"/><path class="cls-15" d="M53.58,456.06s5.62-13.13,42-20.26"/><path class="cls-2" d="M201,436.23l22.13,6.07a28.62,28.62,0,0,1,12.71,7.38L243,456.9l-29.43,2.87a22.63,22.63,0,0,1-13.42-2.88l-17-9.73,6.17-28.28,16.59,1,7.41,19.2"/><path class="cls-15" d="M203.43,436.51s28,4.23,39.06,19.73"/><polygon class="cls-16" points="244.21 228.19 239.01 220.43 246.1 221.31 253.22 222.36 251.6 228.19 249.42 235.95 244.21 228.19"/><polygon class="cls-16" points="244.19 267.55 238.99 259.78 246.08 260.67 253.2 261.71 251.58 267.55 249.4 275.31 244.19 267.55"/><polygon class="cls-16" points="241.86 205.2 237.22 198.27 243.55 199.07 249.89 200 248.45 205.2 246.51 212.12 241.86 205.2"/><polygon class="cls-16" points="211.94 142.17 207.91 136.17 213.39 136.86 218.89 137.66 217.64 142.17 215.96 148.17 211.94 142.17"/><polygon class="cls-16" points="227.16 176.86 221.96 169.1 229.05 169.99 236.17 171.03 234.55 176.86 232.37 184.63 227.16 176.86"/><polygon class="cls-16" points="227.95 230.25 225.14 224.51 229.86 225.77 234.58 227.13 232.94 230.93 230.75 235.98 227.95 230.25"/><polygon class="cls-16" points="259.05 259.78 255.38 252.28 260.54 254.42 265.72 256.69 264.44 261.24 262.73 267.29 259.05 259.78"/><polygon class="cls-16" points="242.29 247.87 239.48 242.13 244.2 243.39 248.92 244.75 247.28 248.55 245.09 253.6 242.29 247.87"/><polygon class="cls-16" points="258.93 277.72 256.55 272.86 260.55 273.93 264.55 275.08 263.16 278.3 261.31 282.58 258.93 277.72"/><polygon class="cls-16" points="260.45 237.15 257.65 231.41 262.36 232.67 267.08 234.03 265.45 237.83 263.26 242.88 260.45 237.15"/><polygon class="cls-16" points="256.24 213.61 254.19 209.4 257.65 210.32 261.11 211.32 259.91 214.11 258.3 217.81 256.24 213.61"/><polygon class="cls-16" points="226.4 192.79 224.34 188.58 227.81 189.5 231.27 190.5 230.07 193.29 228.46 196.99 226.4 192.79"/><polygon class="cls-16" points="219.33 158.64 217.27 154.43 220.73 155.35 224.19 156.35 222.99 159.13 221.39 162.84 219.33 158.64"/><polygon class="cls-16" points="204.53 129.45 203.08 126.49 205.51 127.14 207.94 127.84 207.1 129.8 205.97 132.4 204.53 129.45"/><polygon class="cls-16" points="224.52 147.23 223.07 144.28 225.5 144.93 227.94 145.63 227.09 147.58 225.97 150.18 224.52 147.23"/><polygon class="cls-16" points="227.15 209.46 224.34 203.72 229.06 204.98 233.78 206.34 232.15 210.14 229.96 215.19 227.15 209.46"/><polygon class="cls-16" points="238.88 190.19 237.05 186.45 240.13 187.27 243.21 188.16 242.14 190.63 240.71 193.93 238.88 190.19"/><polygon class="cls-16" points="241.96 170.81 240.13 167.07 243.21 167.89 246.28 168.78 245.22 171.26 243.79 174.55 241.96 170.81"/><polygon class="cls-16" points="247.01 186.09 244.2 180.35 248.92 181.61 253.63 182.97 252 186.77 249.81 191.82 247.01 186.09"/><polygon class="cls-16" points="231.87 159.41 229.06 153.68 233.78 154.94 238.5 156.3 236.86 160.09 234.68 165.14 231.87 159.41"/><polygon class="cls-16" points="32.25 221.87 35.47 213.09 28.78 215.64 22.12 218.34 25.08 223.62 29.04 230.64 32.25 221.87"/><polygon class="cls-16" points="32.19 261.42 35.75 252.78 28.98 255.06 22.21 257.49 24.95 262.89 28.63 270.06 32.19 261.42"/><polygon class="cls-16" points="24.56 291.41 27.5 284.28 21.9 286.16 16.32 288.17 18.58 292.62 21.62 298.55 24.56 291.41"/><polygon class="cls-16" points="33.28 200.57 37.15 193.19 30.95 194.66 24.74 196.27 26.73 201.28 29.41 207.96 33.28 200.57"/><polygon class="cls-16" points="63.95 136.99 67.97 130.99 62.49 131.68 56.99 132.48 58.24 136.99 59.92 142.99 63.95 136.99"/><polygon class="cls-16" points="48.72 171.68 53.92 163.92 46.83 164.81 39.72 165.85 41.34 171.69 43.51 179.45 48.72 171.68"/><polygon class="cls-16" points="47.93 225.07 50.74 219.34 46.02 220.59 41.3 221.95 42.94 225.75 45.13 230.8 47.93 225.07"/><polygon class="cls-16" points="16.83 254.6 20.5 247.09 15.34 249.24 10.16 251.51 11.44 256.06 13.15 262.11 16.83 254.6"/><polygon class="cls-16" points="33.59 242.69 36.4 236.96 31.68 238.21 26.96 239.57 28.6 243.37 30.79 248.42 33.59 242.69"/><polygon class="cls-16" points="16.95 272.54 19.34 267.68 15.33 268.75 11.33 269.9 12.72 273.12 14.57 277.4 16.95 272.54"/><polygon class="cls-16" points="15.43 231.97 18.24 226.23 13.52 227.49 8.8 228.85 10.43 232.65 12.62 237.7 15.43 231.97"/><polygon class="cls-16" points="19.64 208.43 21.7 204.22 18.24 205.14 14.78 206.14 15.97 208.93 17.58 212.63 19.64 208.43"/><polygon class="cls-16" points="49.48 187.61 51.54 183.41 48.08 184.32 44.62 185.32 45.81 188.11 47.42 191.81 49.48 187.61"/><polygon class="cls-16" points="56.55 153.46 58.61 149.25 55.15 150.17 51.69 151.17 52.89 153.96 54.49 157.66 56.55 153.46"/><polygon class="cls-16" points="71.35 124.27 72.8 121.31 70.37 121.96 67.94 122.66 68.78 124.62 69.91 127.22 71.35 124.27"/><polygon class="cls-16" points="16.32 192.44 17.76 189.49 15.33 190.13 12.9 190.83 13.74 192.79 14.87 195.39 16.32 192.44"/><polygon class="cls-16" points="9.92 217.43 10.71 214.24 8.47 215.39 6.24 216.59 7.48 218.32 9.14 220.62 9.92 217.43"/><polygon class="cls-16" points="25.01 277.72 25.8 274.53 23.56 275.68 21.34 276.88 22.57 278.61 24.23 280.92 25.01 277.72"/><polygon class="cls-16" points="51.36 142.05 52.81 139.1 50.38 139.75 47.95 140.45 48.79 142.4 49.92 145 51.36 142.05"/><polygon class="cls-16" points="48.73 204.28 51.54 198.55 46.82 199.8 42.1 201.16 43.74 204.96 45.92 210.01 48.73 204.28"/><polygon class="cls-16" points="37 185.01 38.83 181.27 35.75 182.09 32.68 182.98 33.74 185.46 35.17 188.75 37 185.01"/><polygon class="cls-16" points="33.92 165.63 35.75 161.89 32.68 162.71 29.6 163.6 30.66 166.08 32.09 169.37 33.92 165.63"/><polygon class="cls-16" points="28.88 180.91 31.68 175.18 26.96 176.43 22.25 177.79 23.88 181.59 26.07 186.64 28.88 180.91"/><polygon class="cls-16" points="44.01 154.23 46.82 148.5 42.1 149.75 37.38 151.12 39.02 154.91 41.21 159.96 44.01 154.23"/><path class="cls-17" d="M282.12,290.76a41.19,41.19,0,0,0-38.18-.62c-.94.47-1.25-.51-1.14-1.56.82-7.57-5.1-11.47-6.36-12.36a1.21,1.21,0,0,1-.43-.52L229,258c-.06-.14-1.35-.48-1.46-.6l-.64-.63a1.34,1.34,0,0,1-.38-.77L225,244.2a1.36,1.36,0,0,0-.15-.47L216.19,228l-.74-.09c10.92-54-4.06-77.28-4.69-78.32a.25.25,0,0,1,0-.07c-13.77-35.38-37.13-48.66-51.44-53.29-11.41-3.69-24.22-.22-33.25,7.67-7.16,6.25-12.79,13.85-17.15,19.22,4.15-4.9,9-10.77,14.75-15.81a33.59,33.59,0,0,1,32.62-7c14.29,4.62,35.24,18.13,50,52.8l.11.22c1.06,1.77,16.22,26.44,5.47,79.56h0s12.51,8.65,10.82,23.33c-.13,1.17,1.23,1,1.54,2.1,0,0,9.91,2.38,7,18.57a2.3,2.3,0,0,0,1.13,2.37c2.81.45,9.12,3.74,7,12.9a1.3,1.3,0,0,0,1.89,1.35,41.17,41.17,0,0,1,38.17.62c10.32,5.72,13.24,13.19,14,17.59a1.32,1.32,0,0,0,1.87.94l0,0a2,2,0,0,0,1.12-1.89C296.26,307.22,294.63,297.71,282.12,290.76Z"/><path class="cls-13" d="M214.91,228S230,242.08,224,256.81"/></g></g></svg>